<?xml version="1.0" standalone="no"?> <!DOCTYPE svg PUBLIC "-//W3C//DTD SVG 1.0//EN" "http://www.w3.org/TR/2001/REC-SVG-20010904/DTD/svg10.dtd" > <svg xmlns="http://www.w3.org/2000/svg" width="100%" height="100%">
<defs >
<font id="SunAntwerpenCd_300" horiz-adv-x="813" ><font-face
    font-family="SunAntwerpenCd"
    units-per-em="2000"
    panose-1="2 11 3 3 5 3 2 2 2 4"
    ascent="1800"
    descent="-400"
    alphabetic="0" />
<missing-glyph horiz-adv-x="1100" d="M900 200V900H200V200H900ZM500 700V800H800V300H700V500H500V600H700V700H500ZM100 100V1000H1000V100H100ZM300 300V800H400V400H600V300H300Z" />
<glyph unicode="&#xd;" glyph-name="CR" horiz-adv-x="0" />
<glyph unicode=" " glyph-name="space" horiz-adv-x="414" />
<glyph unicode="!" glyph-name="exclam" horiz-adv-x="600" d="M314 271L292 1350H429L406 271H314ZM438 68Q438 43 435 28T423 5T399 -8T359 -12Q336 -12 321 -8T298 4T286 28T282 66Q282 89 285 105T298 129T322 141T361 145Q385 145 400 142T423 130T434 106T438
68V68Z" />
<glyph unicode="&quot;" glyph-name="quotedbl" horiz-adv-x="718" d="M177 850L161 1350H277L259 850H177ZM458 850L442 1350H558L540 850H458Z" />
<glyph unicode="#" glyph-name="numbersign" horiz-adv-x="840" d="M591 385L552 0H464L503 385H278L238 0H150L189 385H56V467H197L242 905H56V987H251L288 1350H376L339 987H564L601 1350H690L653 987H784V905H645L599 467H784V385H591ZM556 905H331L286 467H511L556
905Z" />
<glyph unicode="$" glyph-name="dollar" horiz-adv-x="840" d="M369 -199L360 12Q281 15 212 43T85 111L123 181Q148 164 178 150T241 126T305 111T365 105Q425 105 472 119T553 163T605 234T623 334Q623 395 601 438T541 515T456 575T358 628T261 685T177 755T117
849T94 978Q94 1034 113 1083T168 1172T251 1236T360 1270L369 1482H440L449 1271Q513 1266 568 1244T665 1198L635 1130Q616 1140 590 1150T535 1167T476 1180T418 1185Q365 1185 326 1170T260 1129T220 1066T207 989Q207 928 230 884T290 807T376 747T474 694T572
637T658 567T718 473T741 345Q741 286 722 231T665 132T573 57T449 16L440 -199H369Z" />
<glyph unicode="%" glyph-name="percent" horiz-adv-x="1365" d="M607 1044Q607 875 540 793T350 710Q285 710 238 730T161 792T116 892T101 1030Q101 1115 118 1177T168 1281T249 1343T359 1364Q423 1364 470 1344T548 1283T592 1182T607 1044V1044ZM517 1032Q517
1097 508 1144T480 1224T429 1272T356 1288Q314 1288 283 1273T232 1228T202 1151T192 1042Q192 977 201 930T229 850T279 802T352 786Q394 786 425 801T476 846T507 923T517 1032V1032ZM1264 320Q1264 152 1197 69T1007 -14Q942 -14 895 6T818 68T773 168T758
306Q758 391 775 453T826 557T906 619T1016 640Q1080 640 1127 620T1205 559T1249 458T1264 320V320ZM1174 308Q1174 373 1165 420T1137 500T1086 548T1013 564Q971 564 940 549T889 504T859 427T849 318Q849 253 858 206T886 126T936 78T1010 62Q1051 62 1082
77T1133 122T1164 199T1174 308V308ZM276 -49L202 -8L1081 1409L1153 1367L276 -49Z" />
<glyph unicode="&amp;" glyph-name="ampersand" horiz-adv-x="1185" d="M996 745Q996 682 986 615T955 482T904 353T836 234Q906 164 962 123T1051 81H1107V5Q1099 0 1089 -3T1068 -9T1045 -12T1020 -14Q997 -14 969 -3T909 30T842 82T767 151Q734 113 695 83T612
31T522 -2T427 -14Q348 -14 287 12T184 84T122 192T100 327Q100 397 117 455T165 561T233 650T315 727Q281 784 257 832T217 920T195 994T188 1060Q188 1124 207 1179T263 1276T353 1340T473 1364Q544 1364 592 1340T669 1281T711 1204T724 1128Q724 1057 700 1002T635
899T545 810T443 727Q477 672 516 617T598 507T683 403T767 307Q797 353 819 406T856 516T879 631T889 745H996ZM209 350Q209 287 226 236T276 149T352 96T453 77Q490 77 524 86T590 114T651 157T706 214Q660 261 614 314T524 424T439 537T362 652Q331 624 303
593T254 525T221 445T209 350V350ZM617 1110Q617 1139 608 1169T580 1223T532 1264T461 1280Q418 1280 387 1263T335 1219T306 1156T296 1081Q296 1054 301 1025T319 963T351 889T398 800Q440 834 479 868T550 939T599 1017T617 1110V1110Z" />
<glyph unicode="&apos;" glyph-name="quotesingle" horiz-adv-x="445" d="M181 850L166 1350H279L262 850H181Z" />
<glyph unicode="(" glyph-name="parenleft" horiz-adv-x="521" d="M359 -341Q307 -247 267 -140T199 80T157 312T143 547Q143 665 157 785T200 1022T268 1246T361 1448L434 1419Q389 1322 355 1218T297 1004T261 781T249 553Q249 442 261 329T298 105T356 -110T434
-312L359 -341Z" />
<glyph unicode=")" glyph-name="parenright" horiz-adv-x="521" d="M87 -312Q131 -216 166 -111T224 103T260 327T272 555Q272 665 260 778T223 1002T165 1217T87 1419L162 1448Q214 1354 254 1247T322 1026T364 795T378 561Q378 442 364 322T321 85T253 -139T160
-341L87 -312Z" />
<glyph unicode="*" glyph-name="asterisk" horiz-adv-x="840" d="M681 806L457 987L476 671H364L382 987L159 806L98 893L357 1045L98 1187L159 1281L382 1103L364 1418H475L458 1104L681 1281L742 1187L483 1046L742 896L681 806Z" />
<glyph unicode="+" glyph-name="plus" horiz-adv-x="840" d="M468 552V166H372V552H67V638H372V1018H468V638H773V552H468Z" />
<glyph unicode="," glyph-name="comma" horiz-adv-x="442" d="M77 -226Q113 -199 136 -175T172 -129T191 -87T197 -46Q197 -21 191 -10T178 9T164 29T157 65Q157 88 161 103T174 128T199 142T235 147Q257 147 272 143T297 129T310 103T314 63Q314 9 305 -36T273
-123T213 -202T119 -279L77 -226Z" />
<glyph unicode="-" glyph-name="hyphen" horiz-adv-x="377" d="M42 547V636H379V547H42Z" />
<glyph unicode="." glyph-name="period" horiz-adv-x="443" d="M314 69Q314 44 311 29T299 5T275 -8T235 -12Q211 -12 196 -8T173 4T161 28T157 67Q157 90 160 106T173 130T197 143T237 147Q260 147 275 144T299 131T310 107T314 69V69Z" />
<glyph unicode="/" glyph-name="slash" horiz-adv-x="840" d="M97 -208H-7L720 1418H824L97 -208Z" />
<glyph unicode="0" glyph-name="zero" horiz-adv-x="840" d="M770 684Q770 493 751 362T689 147T578 25T412 -14Q348 -14 299 2T211 52T147 140T103 269T78 442T70 666Q70 857 89 988T151 1203T262 1325T428 1364Q524 1364 588 1327T693 1210T751 1002T770 684ZM658
672Q658 781 653 867T635 1020T605 1135T560 1215T498 1261T418 1276Q374 1276 340 1261T279 1216T234 1137T205 1023T188 872T182 678Q182 514 194 400T235 214T309 108T422 74Q466 74 500 89T561 134T606 213T635 327T652 478T658 672Z" />
<glyph unicode="1" glyph-name="one" horiz-adv-x="840" d="M748 94V0H118V94H388V1232L142 1132L120 1202L414 1352H504V94H748Z" />
<glyph unicode="2" glyph-name="two" horiz-adv-x="840" d="M76 0V82Q173 211 248 318T381 515T477 680T542 817T578 932T590 1032Q590 1098 571 1145T520 1220T446 1261T356 1274Q330 1274 304 1272T250 1263T189 1248T116 1226L98 1304Q143 1320 177 1331T246
1349T315 1360T390 1364Q457 1364 514 1345T615 1285T683 1184T708 1040Q708 957 681 868T596 671T444 426T206 96H728V0H76Z" />
<glyph unicode="3" glyph-name="three" horiz-adv-x="840" d="M66 132Q140 107 211 94T354 80Q409 80 454 96T533 148T585 242T604 380Q604 451 590 505T546 598T468 656T352 676H234V764H346Q401 764 443 782T512 835T554 921T568 1038Q568 1093 557 1135T522
1209T456 1257T356 1274Q331 1274 299 1270T233 1260T169 1245T116 1226L96 1304Q122 1315 154 1325T224 1344T307 1358T398 1364Q471 1364 526 1340T616 1274T669 1177T686 1060Q686 989 671 932T630 833T569 767T494 734Q552 730 596 702T669 626T712 520T726
396Q726 300 704 224T638 95T527 14T370 -14Q333 -14 295 -10T218 3T137 25T54 58L66 132Z" />
<glyph unicode="4" glyph-name="four" horiz-adv-x="840" d="M616 1350V424H788V330H616V0H504V330H36V414Q83 542 135 668T242 914T349 1142T456 1350H616ZM506 1252Q462 1169 416 1074T320 871T224 650T134 424H506V1252Z" />
<glyph unicode="5" glyph-name="five" horiz-adv-x="840" d="M658 1254H248L223 802Q257 807 300 811T390 815Q475 815 540 786T648 705T713 578T735 414Q735 307 712 227T642 93T528 13T370 -14Q309 -14 234 2T62 54L74 123Q160 102 231 91T362 79Q424 79 472
95T552 149T600 246T617 392Q617 468 601 528T553 632T471 698T352 722Q323 722 294 720T237 715T178 706T116 693L153 1350H253H658V1254Z" />
<glyph unicode="6" glyph-name="six" horiz-adv-x="840" d="M724 1232Q661 1250 603 1260T492 1270Q427 1270 377 1234T290 1124T234 937T214 670Q251 696 283 714T348 745T414 763T484 770Q548 770 599 746T686 676T741 565T760 416Q760 315 737 235T670 100T565
15T428 -14Q373 -14 328 -1T247 40T184 117T138 234T110 399T100 618Q100 766 114 880T153 1078T214 1216T292 1304T383 1350T486 1364Q539 1364 597 1351T736 1308L724 1232ZM216 572Q216 446 230 352T272 196T342 103T442 72Q493 72 532 94T596 158T635 258T648
388Q648 459 636 513T598 605T532 661T438 680Q415 680 391 675T341 657T283 627T216 582V572Z" />
<glyph unicode="7" glyph-name="seven" horiz-adv-x="840" d="M518 602Q504 565 484 518T442 418T395 311T350 209T297 90T250 -14L170 10L652 1254H74V1350H778V1264L518 602Z" />
<glyph unicode="8" glyph-name="eight" horiz-adv-x="840" d="M766 324Q766 253 744 192T678 84T567 12T412 -14Q327 -14 263 8T157 73T95 172T74 300Q74 373 93 431T147 534T226 616T330 692Q278 727 240 759T169 831T119 924T100 1042Q100 1111 120 1170T182
1272T285 1340T428 1364Q514 1364 574 1340T671 1275T724 1180T740 1064Q740 1000 722 948T673 854T601 778T506 708Q566 670 610 635T690 555T746 453T766 324ZM658 310Q658 371 639 420T585 507T510 576T410 642Q357 606 320 577T252 509T201 422T182 312Q182
258 198 214T244 138T320 89T422 72Q474 72 517 89T592 137T641 213T658 310ZM418 1280Q369 1280 330 1264T263 1218T222 1147T208 1056Q208 1002 225 959T272 881T338 819T426 756Q478 792 514 822T576 887T617 963T632 1056Q632 1106 619 1147T580 1218T513 1264T418
1280Z" />
<glyph unicode="9" glyph-name="nine" horiz-adv-x="840" d="M98 122Q137 111 170 104T232 92T290 85T346 82Q412 82 463 116T550 223T606 409T626 680Q591 655 559 637T493 606T427 587T358 580Q295 580 244 604T156 674T100 786T80 934Q80 1039 103 1120T171
1255T275 1337T410 1364Q467 1364 512 1351T593 1308T657 1231T702 1114T729 951T738 736Q738 591 725 478T686 281T626 141T547 50T453 1T344 -14Q318 -14 289 -10T228 1T161 20T84 48L98 122ZM624 778Q624 905 610 999T568 1155T498 1247T398 1278Q347 1278 308
1257T244 1194T205 1094T192 964Q192 892 205 838T244 746T310 691T402 672Q425 672 448 677T499 694T556 724T624 770V778Z" />
<glyph unicode=":" glyph-name="colon" horiz-adv-x="481" d="M350 917Q350 893 347 878T334 854T311 842T274 838Q252 838 238 841T215 853T203 877T199 915Q199 939 203 954T215 978T238 990T275 994Q297 994 311 991T334 979T346 956T350 917V917ZM350 68Q350
44 347 29T334 5T311 -7T274 -11Q252 -11 238 -8T215 4T203 28T199 66Q199 90 203 105T215 129T238 142T275 146Q297 146 311 143T334 130T346 107T350 68V68Z" />
<glyph unicode=";" glyph-name="semicolon" horiz-adv-x="525" d="M349 917Q349 893 346 878T333 854T310 842T273 838Q251 838 237 841T214 853T202 877T198 915Q198 939 202 954T214 978T237 990T275 994Q296 994 310 991T333 979T345 956T349 917V917ZM115
-230Q151 -202 174 -178T212 -131T232 -87T238 -46Q238 -30 235 -20T228 -3T218 9T209 21T201 38T198 64Q198 87 202 102T216 127T239 141T273 145Q294 145 308 141T332 128T345 102T349 62Q349 13 340 -32T308 -119T249 -201T157 -279L115 -230Z" />
<glyph unicode="&lt;" glyph-name="less" horiz-adv-x="840" d="M719 155L66 555V636L720 1036L770 952L177 596L770 239L719 155Z" />
<glyph unicode="=" glyph-name="equal" horiz-adv-x="840" d="M78 742V828H762V742H78ZM78 362V448H762V362H78Z" />
<glyph unicode="&gt;" glyph-name="greater" horiz-adv-x="840" d="M124 155L73 238L667 595L73 952L124 1036L778 636V555L124 155Z" />
<glyph unicode="?" glyph-name="question" horiz-adv-x="780" d="M666 1061Q666 991 646 938T595 839T529 751T462 662T410 559T387 430L385 271H293L287 443Q285 507 303 563T350 668T413 763T477 854T527 942T547 1034Q547 1089 533 1131T491 1202T424 1246T334
1261Q298 1261 265 1257T204 1247T152 1234T113 1222L89 1298Q127 1313 159 1324T223 1343T287 1354T356 1359Q438 1359 496 1336T592 1274T648 1180T666 1061V1061ZM417 68Q417 43 414 28T402 5T378 -8T338 -12Q315 -12 300 -8T277 4T265 28T261 66Q261 89 264
105T276 129T300 141T340 145Q363 145 378 142T402 130T413 106T417 68V68Z" />
<glyph unicode="@" glyph-name="at" horiz-adv-x="1666" d="M1245 -198Q1196 -224 1141 -245T1025 -282T902 -305T777 -313Q661 -313 570 -290T408 -222T287 -115T205 27T159 201T144 400Q144 535 167 663T236 905T349 1112T505 1274T703 1380T941 1418Q1084 1418
1187 1373T1357 1248T1456 1057T1488 816Q1488 677 1463 557T1380 349T1231 211T1003 160H950L956 358Q932 319 903 282T840 215T768 167T688 148Q635 148 598 169T536 229T500 324T489 447Q489 574 515 675T591 847T714 954T878 991Q943 991 1002 984T1110 962L1042
246Q1106 246 1156 267T1244 325T1308 413T1351 523T1375 648T1383 779Q1383 853 1373 923T1341 1055T1284 1168T1198 1256T1080 1313T925 1334Q810 1334 716 1297T546 1196T415 1045T322 856T267 644T248 424Q248 280 276 160T370 -46T543 -181T809 -230Q856 -230
909 -223T1017 -202T1124 -171T1225 -129L1245 -198ZM994 884Q975 891 942 897T866 904Q806 904 757 876T673 792T620 655T601 466Q601 412 607 370T628 299T665 255T718 239Q748 239 781 261T845 318T904 398T954 489L994 884Z" />
<glyph unicode="A" glyph-name="A" horiz-adv-x="893" d="M738 0Q730 37 722 75T706 151T688 229T669 309H212Q195 232 179 155T147 0H33Q67 155 106 325T189 668T279 1015T374 1350H510Q563 1168 611 995T702 655T785 324T860 0H738ZM650 402Q625 502 599 604T545
810T488 1018T430 1226Q406 1133 381 1032T331 826T281 614T232 402H650Z" />
<glyph unicode="B" glyph-name="B" horiz-adv-x="933" d="M166 1350H466Q551 1350 611 1325T709 1257T765 1158T783 1042Q783 976 768 925T725 835T661 769T580 725Q638 717 687 691T771 623T825 525T844 401Q844 312 818 238T739 110T605 26T412 -4Q375 -4 342
-4T277 -2T219 -1T166 0V1350ZM280 755H412Q482 755 530 778T609 840T652 927T666 1025Q666 1071 653 1113T612 1187T544 1238T449 1258H280V755ZM280 97Q280 97 294 96T332 94T384 92T444 91Q516 91 569 113T656 174T706 267T723 387Q723 446 707 497T656 585T566
642T434 663H280V97Z" />
<glyph unicode="C" glyph-name="C" horiz-adv-x="814" d="M756 164Q730 125 699 92T631 36T551 -1T455 -14Q375 -14 309 28T195 155T121 366T94 658Q94 837 126 970T212 1190T334 1320T477 1364Q522 1364 561 1351T632 1314T692 1254T742 1174L678 1123Q638 1193
592 1230T479 1267Q445 1267 412 1251T350 1202T297 1122T254 1010T225 865T215 690Q215 551 232 439T282 249T365 127T479 84Q515 84 545 94T603 122T655 166T703 223L756 164Z" />
<glyph unicode="D" glyph-name="D" horiz-adv-x="972" d="M166 1350Q220 1350 282 1351T412 1352Q492 1352 557 1331T675 1270T765 1172T828 1043T866 886T878 706Q878 534 846 402T750 180T593 43T377 -3Q346 -3 317 -3T260 -2T209 -1T166 0V1350ZM281 99Q310
96 341 95T402 94Q486 94 552 129T664 237T735 421T759 685Q759 762 751 834T726 969T680 1086T611 1177T517 1236T395 1257Q371 1257 351 1257T315 1256T290 1256T281 1255V99Z" />
<glyph unicode="E" glyph-name="E" horiz-adv-x="774" d="M166 0V1350H680V1253H282V752H607V658H282V97H686V0H166Z" />
<glyph unicode="F" glyph-name="F" horiz-adv-x="709" d="M282 1253V737H601V641H282V0H166V1350H655V1253H282Z" />
<glyph unicode="G" glyph-name="G" horiz-adv-x="930" d="M804 124Q776 93 743 68T670 24T586 -4T490 -14Q402 -14 329 27T204 151T123 362T94 664Q94 850 130 983T224 1200T357 1324T507 1364Q549 1364 589 1352T666 1320T734 1274T790 1217L737 1158Q712 1183
685 1204T629 1239T570 1261T508 1269Q442 1269 387 1230T293 1117T233 935T211 691Q211 535 232 421T292 231T385 120T508 83Q539 83 566 88T617 103T659 125T691 151V621H516V709H804V124Z" />
<glyph unicode="H" glyph-name="H" horiz-adv-x="1050" d="M768 0V662H282V0H166V1350H282V761H768V1350H884V0H768Z" />
<glyph unicode="I" glyph-name="I" horiz-adv-x="448" d="M166 0V1350H282V0H166Z" />
<glyph unicode="J" glyph-name="J" horiz-adv-x="452" d="M286 136Q286 56 280 -11T258 -137T213 -247T139 -347L78 -300Q106 -263 124 -218T152 -120T165 -5T169 129V1350H286V136Z" />
<glyph unicode="K" glyph-name="K" horiz-adv-x="828" d="M671 0L282 694H280V0H166V1350H280V726H282L644 1350H778L390 730L808 0H671Z" />
<glyph unicode="L" glyph-name="L" horiz-adv-x="662" d="M166 0V1350H282V97H650V0H166Z" />
<glyph unicode="M" glyph-name="M" horiz-adv-x="1428" d="M1166 0Q1165 111 1162 224T1153 448T1142 666T1128 869T1114 1051T1099 1203H1097L753 0H654L312 1203H310Q301 1090 293 950T278 655T266 333T257 0H141Q145 159 152 329T170 672T196 1016T229 1350H386L715
207H717L1047 1350H1198Q1215 1188 1230 1017T1256 672T1275 329T1286 0H1166Z" />
<glyph unicode="N" glyph-name="N" horiz-adv-x="1072" d="M789 0L410 873Q381 941 355 1002T308 1112Q284 1168 264 1218H262Q264 1171 265 1118Q266 1072 267 1014T268 893V0H166V1350H328L661 586Q688 525 714 463T761 351Q785 292 808 239H810Q808 290 807
345Q806 392 805 449T804 562V1350H906V0H789Z" />
<glyph unicode="O" glyph-name="O" horiz-adv-x="1048" d="M954 692Q954 564 939 462T894 282T825 148T736 56T631 3T514 -14Q420 -14 343 24T210 143T125 351T94 658Q94 786 109 887T154 1067T223 1202T312 1294T417 1347T534 1364Q628 1364 705 1326T838 1207T923
999T954 692V692ZM836 658Q836 813 815 927T755 1117T655 1230T518 1267Q450 1267 394 1232T297 1126T235 947T212 692Q212 588 221 503T248 350T293 232T356 149T434 99T530 83Q598 83 654 118T751 224T813 403T836 658V658Z" />
<glyph unicode="P" glyph-name="P" horiz-adv-x="868" d="M166 0V1350Q192 1350 220 1350T279 1351T340 1351T403 1352Q518 1352 597 1322T726 1239T796 1113T818 953Q818 862 793 784T713 646T568 553T351 519H282V0H166ZM282 614H386Q467 614 525 635T622 699T678
801T697 940Q697 1013 681 1072T627 1172T530 1234T384 1256H282V614Z" />
<glyph unicode="Q" glyph-name="Q" horiz-adv-x="1048" d="M1119 -294Q1061 -254 1008 -241T907 -228Q875 -228 846 -231T787 -234Q751 -234 717 -227T648 -197T580 -131T511 -14Q418 -14 342 24T210 143T125 351T94 658Q94 786 109 887T154 1067T223 1202T312
1294T417 1347T534 1364Q628 1364 705 1326T838 1207T923 999T954 692Q954 569 940 472T901 300T842 171T767 80T681 23T591 -6Q619 -48 647 -73T703 -113T759 -132T818 -137Q849 -137 879 -135T940 -133Q967 -133 995 -137T1050 -153T1106 -186T1161 -241L1119
-294ZM836 658Q836 761 827 846T800 999T755 1117T692 1201T614 1250T518 1267Q450 1267 394 1232T297 1126T235 947T212 692Q212 537 233 423T293 233T392 120T530 83Q598 83 654 118T751 224T813 403T836 658V658Z" />
<glyph unicode="R" glyph-name="R" horiz-adv-x="910" d="M746 0L381 621H280V0H166V1350Q194 1350 223 1350T286 1351T357 1352T440 1353Q532 1353 602 1328T719 1258T789 1149T813 1009Q813 957 804 911T776 826T731 754T668 697T591 658T498 638L879 0H746ZM280
715H439Q499 715 546 733T626 787T676 873T693 991Q693 1054 678 1103T628 1187T540 1240T410 1258H280V715Z" />
<glyph unicode="S" glyph-name="S" horiz-adv-x="816" d="M733 354Q733 284 711 218T645 100T535 17T381 -14Q289 -14 215 16T77 95L115 165Q143 147 174 132T238 106T302 89T364 83Q423 83 469 100T546 151T594 233T611 343Q611 409 589 455T531 538T448 602T352
658T257 718T174 793T115 894T93 1034Q93 1103 115 1163T179 1268T280 1338T411 1364Q448 1364 480 1358T544 1342T605 1317T668 1282L638 1212Q585 1239 532 1255T425 1271Q369 1271 329 1253T262 1204T223 1132T210 1044Q210 978 232 931T291 847T375 783T471
726T567 666T650 592T710 492T733 354V354Z" />
<glyph unicode="T" glyph-name="T" horiz-adv-x="720" d="M418 1253V0H302V1253H14V1350H706V1253H418Z" />
<glyph unicode="U" glyph-name="U" horiz-adv-x="1036" d="M877 500Q877 366 852 269T780 109T664 16T508 -14Q419 -14 353 14T244 101T180 254T159 476V1350H275V495Q275 380 289 301T333 173T410 102T524 80Q580 80 625 101T702 171T749 296T766 487V1350H877V500Z" />
<glyph unicode="V" glyph-name="V" horiz-adv-x="877" d="M849 1350Q816 1188 779 1022T699 686T607 345T503 0H370Q317 176 270 346T180 684T100 1017T29 1350H154Q211 1041 288 737T449 129Q492 279 530 427T603 727T669 1033T730 1350H849Z" />
<glyph unicode="W" glyph-name="W" horiz-adv-x="1429" d="M1391 1350Q1352 1158 1315 986T1240 649T1162 322T1077 0H949L745 936L710 1120H708L675 933L483 0H354Q306 170 265 329T187 649T113 980T38 1350H160Q191 1180 223 1022T288 717T354 433T424 148H426L449
288L668 1350H772L1001 294L1025 147H1027Q1060 276 1092 417T1156 711T1218 1024T1278 1350H1391Z" />
<glyph unicode="X" glyph-name="X" horiz-adv-x="885" d="M696 0Q660 96 627 179T561 336T497 476T434 608Q405 547 374 481T310 341T245 182T179 0H58Q97 109 135 201T211 377T290 538T372 697Q339 766 305 837T237 987T166 1155T89 1350H216Q247 1266 277 1192T336
1051T393 922T449 800Q477 857 505 919T563 1049T620 1192T676 1350H793Q762 1260 729 1178T661 1017T588 864T511 715Q552 635 590 556T666 391T744 209T828 0H696Z" />
<glyph unicode="Y" glyph-name="Y" horiz-adv-x="793" d="M795 1350Q758 1255 719 1159T637 968T550 780T455 599V0H338V599Q290 685 247 771T163 949T81 1140T-2 1350H124Q157 1257 191 1173T260 1010T333 855T410 700Q448 775 484 857T554 1022T618 1189T674 1350H795Z" />
<glyph unicode="Z" glyph-name="Z" horiz-adv-x="764" d="M69 0V86L538 1254H92L96 1350H664V1265L195 98H695L692 0H69Z" />
<glyph unicode="[" glyph-name="bracketleft" horiz-adv-x="601" d="M210 -346V1478H469V1400H310V-268H469V-346H210Z" />
<glyph unicode="\" glyph-name="backslash" horiz-adv-x="840" d="M750 -208L24 1418H130L856 -208H750Z" />
<glyph unicode="]" glyph-name="bracketright" horiz-adv-x="601" d="M132 -346V-268H291V1400H132V1478H391V-346H132Z" />
<glyph unicode="^" glyph-name="asciicircum" horiz-adv-x="840" d="M683 735L422 1324L161 735L69 777L372 1418H476L773 781L683 735Z" />
<glyph unicode="_" glyph-name="underscore" horiz-adv-x="840" d="M0 -359V-270H840V-359H0Z" />
<glyph unicode="`" glyph-name="grave" horiz-adv-x="478" d="M335 1129L90 1367L173 1435L388 1170L335 1129Z" />
<glyph unicode="a" glyph-name="a" horiz-adv-x="832" d="M596 0L588 120Q551 84 521 60T458 19T391 -6T312 -14Q196 -14 136 54T76 246Q76 318 100 376T174 478T305 546T496 570H576V686Q576 750 562 793T520 862T454 899T366 910Q335 910 305 906T246 894T192
877T136 856L114 930Q145 944 177 956T245 978T321 994T402 1000Q473 1000 526 982T614 927T666 836T684 710V0H596ZM576 488H482Q394 488 337 472T247 425T203 355T190 264Q190 221 199 186T228 125T275 86T342 72Q400 72 457 105T576 204V488Z" />
<glyph unicode="b" glyph-name="b" horiz-adv-x="880" d="M154 1418H264V880Q296 909 326 931T387 968T446 992T506 1000Q569 1000 621 966T710 868T768 719T788 530Q788 390 757 286T671 116T541 18T378 -14Q351 -14 321 -12T262 -5T206 3T154 14V1418ZM264 90Q296
80 332 75T404 70Q462 70 511 97T596 178T653 314T674 500Q674 590 661 665T621 794T557 878T474 908Q454 908 430 900T379 876T323 837T264 782V90Z" />
<glyph unicode="c" glyph-name="c" horiz-adv-x="708" d="M662 126Q633 92 605 67T544 24T475 -3T394 -12Q322 -12 266 19T171 111T112 265T92 478Q92 618 119 719T193 881T296 970T412 998Q478 998 532 969T638 878L594 820Q544 868 500 889T414 910Q363 910
324 883T258 804T218 676T204 502Q204 397 218 318T259 184T327 103T420 76Q474 76 520 101T620 184L662 126Z" />
<glyph unicode="d" glyph-name="d" horiz-adv-x="880" d="M636 0L624 114Q590 83 559 59T496 19T435 -5T374 -14Q311 -14 259 20T170 117T112 266T92 456Q92 596 122 699T208 869T336 966T496 998Q521 998 548 996T616 988V1418H726V0H636ZM616 896Q584 905 548
909T476 914Q418 914 369 887T284 806T227 671T206 484Q206 395 220 320T260 191T323 106T406 76Q445 76 501 108T616 202V896Z" />
<glyph unicode="e" glyph-name="e" horiz-adv-x="830" d="M204 490V468Q204 365 220 291T268 169T345 99T448 76Q479 76 507 79T564 90T622 108T684 136L708 66Q639 28 569 7T420 -14Q343 -14 283 13T180 99T115 248T92 464Q92 613 120 718T197 884T304 973T428
1000Q476 1000 516 987T588 948T645 880T685 782T706 652T708 490H204ZM600 568V574Q600 653 589 716T555 823T497 892T414 916Q366 916 328 889T264 814T224 703T206 568H600Z" />
<glyph unicode="f" glyph-name="f" horiz-adv-x="482" d="M526 1308Q494 1324 464 1333T406 1342Q340 1342 311 1299T282 1162V986H468V904H282V0H172V904H26V986H172V1154Q172 1219 184 1269T221 1356T285 1411T376 1430Q401 1430 426 1426T474 1413T516 1395T552
1374L526 1308Z" />
<glyph unicode="g" glyph-name="g" horiz-adv-x="880" d="M726 28Q726 -48 716 -106T687 -207T641 -277T578 -322T502 -345T412 -352Q382 -352 349 -349T283 -339T218 -323T156 -302L168 -230Q242 -244 300 -251T404 -258Q460 -258 499 -245T565 -204T603 -128T616
-10V120Q550 61 491 31T374 0Q312 0 260 34T170 131T112 278T92 462Q92 599 123 701T209 869T339 966T502 998Q530 998 559 996T618 991T675 982T726 972V28ZM616 896Q600 900 583 903T547 909T511 913T476 914Q419 914 370 887T284 807T227 674T206 492Q206 406
220 332T260 204T324 120T406 90Q425 90 449 98T500 122T557 162T616 216V896Z" />
<glyph unicode="h" glyph-name="h" horiz-adv-x="916" d="M656 0Q656 56 656 119T658 276T659 427T660 534Q660 633 649 704T615 820T561 886T486 908Q461 908 434 899T378 872T321 831T264 778V0H154V1418H264V872Q289 896 317 918T377 959T446 989T518 1000Q578
1000 624 977T704 904T754 770T772 568Q772 521 772 465T770 306T767 133T766 0H656Z" />
<glyph unicode="i" glyph-name="i" horiz-adv-x="418" d="M278 1246Q278 1223 276 1210T266 1190T246 1179T210 1176Q187 1176 174 1178T154 1188T143 1209T140 1246Q140 1269 143 1282T153 1302T174 1313T210 1316Q233 1316 246 1314T266 1304T275 1283T278 1246ZM154
0V986H264V0H154Z" />
<glyph unicode="j" glyph-name="j" horiz-adv-x="418" d="M264 74Q264 0 256 -59T229 -169T180 -264T104 -352L38 -308Q91 -246 122 -158T154 34V944V986H264V74ZM278 1246Q278 1223 276 1210T266 1190T246 1179T210 1176Q187 1176 174 1178T154 1188T143 1209T140
1246Q140 1269 143 1282T153 1302T174 1313T210 1316Q233 1316 246 1314T266 1304T275 1283T278 1246Z" />
<glyph unicode="k" glyph-name="k" horiz-adv-x="714" d="M592 0L266 540H264V0H154V1418H264V600H266L536 986H672L354 588L726 0H592Z" />
<glyph unicode="l" glyph-name="l" horiz-adv-x="448" d="M390 2Q379 -1 366 -3T339 -8T312 -11T288 -12Q250 -12 225 -4T185 24T162 83T154 182V1418H264V224Q264 176 267 148T277 104T297 82T332 76Q346 76 360 76T388 76L390 2Z" />
<glyph unicode="m" glyph-name="m" horiz-adv-x="1386" d="M1126 0Q1126 56 1126 119T1128 276T1129 427T1130 534Q1130 632 1119 703T1087 820T1035 886T964 908Q942 908 916 899T862 871T802 826T736 764Q739 745 741 727T746 685T749 633T750 568V0H642V534Q642
632 631 703T599 820T547 886T476 908Q455 908 430 899T377 872T321 831T264 778V0H154V986H246L254 864Q282 891 311 914T373 957T441 988T510 1000Q551 1000 584 988T642 954T684 904T716 840Q751 875 784 903T853 953T924 987T996 1000Q1053 1000 1097 977T1174
904T1223 770T1240 568Q1240 521 1240 465T1238 306T1235 133T1234 0H1126Z" />
<glyph unicode="n" glyph-name="n" horiz-adv-x="916" d="M656 0Q656 56 656 119T658 276T659 427T660 534Q660 633 649 704T615 820T561 886T486 908Q461 908 434 899T378 872T321 831T264 778V0H154V986H246L254 864Q282 891 311 914T374 957T444 988T518 1000Q578
1000 624 977T704 904T754 770T772 568Q772 521 772 465T770 306T767 133T766 0H656Z" />
<glyph unicode="o" glyph-name="o" horiz-adv-x="880" d="M788 518Q788 417 774 337T735 197T675 98T600 33T515 -3T422 -14Q347 -14 287 13T183 98T116 248T92 466Q92 568 106 648T145 788T205 888T280 953T365 989T458 1000Q533 1000 593 973T697 887T764 737T788
518ZM676 486Q676 594 662 674T618 807T545 886T440 912Q383 912 340 887T266 811T220 682T204 498Q204 390 218 310T262 178T335 100T440 74Q497 74 540 99T614 175T660 303T676 486Z" />
<glyph unicode="p" glyph-name="p" horiz-adv-x="880" d="M154 -346V986H244L256 874Q290 905 321 928T384 967T446 991T506 1000Q569 1000 621 966T710 868T768 719T788 530Q788 390 758 287T672 117T543 20T382 -12Q356 -12 324 -10T264 -2V-346H154ZM264 90Q296
80 332 75T404 70Q462 70 511 97T596 178T653 314T674 500Q674 590 661 665T621 794T557 878T474 908Q454 908 430 900T379 876T323 837T264 782V90Z" />
<glyph unicode="q" glyph-name="q" horiz-adv-x="880" d="M616 -346V106Q584 77 554 55T493 18T434 -6T374 -14Q332 -14 295 1T226 46T170 117T128 211T101 326T92 456Q92 595 122 698T208 868T338 966T502 998Q530 998 559 996T618 991T675 982T726 972V-346H616ZM616
896Q600 900 583 903T547 909T511 913T476 914Q418 914 369 887T284 806T227 671T206 486Q206 396 220 321T260 191T323 106T406 76Q425 76 449 84T500 108T557 147T616 202V896Z" />
<glyph unicode="r" glyph-name="r" horiz-adv-x="574" d="M526 868Q507 875 492 877T462 880Q443 880 423 869T380 836T330 778T264 688V0H154V986H246L256 802Q294 858 324 896T380 956T428 988T474 998Q488 998 505 994T538 980L526 868Z" />
<glyph unicode="s" glyph-name="s" horiz-adv-x="668" d="M92 118Q153 95 199 85T288 74Q338 74 375 87T436 126T472 184T484 256Q484 298 468 330T424 385T372 423T292 466T203 518T141 571T97 644T80 742Q80 796 100 843T157 925T245 980T356 1000Q379 1000
403 997T450 988T497 972T544 952L524 884Q506 891 487 897T449 906T410 912T372 914Q329 914 295 902T238 868T204 815T192 750Q192 708 208 676T252 621T305 583T386 541T475 490T537 437T581 364T598 266Q598 205 578 154T520 65T426 7T302 -14Q244 -14 184
3T74 50L92 118Z" />
<glyph unicode="t" glyph-name="t" horiz-adv-x="578" d="M516 108L532 38Q504 24 481 15T436 0T396 -9T358 -12Q305 -12 269 2T211 48T178 129T168 252V904H26V986H172Q176 1018 179 1051T185 1119T192 1189T198 1264H278V986H510V904H278V282Q278 222 282 184T299
122T332 87T386 76Q398 76 410 77T438 83T473 93T516 108Z" />
<glyph unicode="u" glyph-name="u" horiz-adv-x="916" d="M674 0L666 122Q639 95 610 72T547 30T476 0T402 -12Q342 -12 296 10T216 83T166 217T148 420Q148 466 148 522T150 680T153 853T154 986H264Q264 930 264 868T262 712T261 561T260 454Q260 354 271 283T305
166T359 100T434 78Q459 78 486 87T542 115T598 157T656 210V986H766V0H674Z" />
<glyph unicode="v" glyph-name="v" horiz-adv-x="752" d="M710 986Q689 868 661 743T596 488T516 233T424 0H314L26 986H142L348 286L384 134Q419 229 451 334T510 549T560 769T598 986H710Z" />
<glyph unicode="w" glyph-name="w" horiz-adv-x="1212" d="M1154 986Q1136 879 1111 761T1055 518T986 262T906 0H792L612 714L590 826H588L570 714L410 0H290L30 986H144L318 320L358 144H360L388 286L544 986H654L828 290L858 144H860Q890 248 916 352T966 562T1009
775T1044 986H1154Z" />
<glyph unicode="x" glyph-name="x" horiz-adv-x="792" d="M606 0L386 450Q360 399 331 340T274 221T221 106T174 0H50L328 524L92 986H220L400 606Q423 648 447 698T496 799T540 898T576 986H696L458 538L736 0H606Z" />
<glyph unicode="y" glyph-name="y" horiz-adv-x="748" d="M708 986Q667 769 625 593T540 281T456 46T374 -123T296 -237T223 -305T157 -338T94 -348Q74 -348 50 -344T4 -332V-256Q10 -257 17 -258T32 -260T49 -261T68 -262Q108 -262 145 -245T216 -196Q234 -177
249 -153T277 -101T295 -46T302 6Q302 45 293 93T264 202L24 986H140L346 308Q353 284 360 255T372 196T379 136T378 84Q409 166 441 273T502 500T555 745T594 986H708Z" />
<glyph unicode="z" glyph-name="z" horiz-adv-x="692" d="M598 0H88V78L460 896H104L108 986H584V910L210 92H604L598 0Z" />
<glyph unicode="{" glyph-name="braceleft" horiz-adv-x="630" d="M448 -346Q394 -346 356 -332T295 -291T261 -222T250 -122V278Q250 353 242 402T218 481T176 522T116 534H82V618H116Q151 618 176 630T217 670T242 746T250 866V1244Q250 1305 261 1349T295 1421T358
1464T454 1478H500V1400H456Q425 1400 404 1393T371 1369T352 1325T346 1256V876Q346 799 337 745T310 656T264 602T196 576Q236 569 264 550T310 497T337 411T346 284V-114Q346 -159 352 -188T371 -235T407 -260T464 -268H500V-346H448Z" />
<glyph unicode="|" glyph-name="bar" horiz-adv-x="410" d="M156 -346V1506H254V-346H156Z" />
<glyph unicode="}" glyph-name="braceright" horiz-adv-x="630" d="M516 534Q481 534 456 522T414 482T389 406T380 286V-112Q380 -173 369 -217T335 -289T272 -332T176 -346H130V-268H174Q206 -268 227 -261T260 -237T278 -193T284 -124V276Q284 353 293 407T320
496T367 550T436 576Q396 583 368 602T321 655T293 741T284 868V1246Q284 1291 279 1320T260 1367T225 1392T168 1400H130V1478H184Q238 1478 275 1464T336 1423T369 1353T380 1254V874Q380 799 388 750T414 671T456 630T516 618H550V534H516Z" />
<glyph unicode="~" glyph-name="asciitilde" horiz-adv-x="840" d="M784 1174Q784 1117 769 1069T725 985T657 931T572 912Q528 912 496 926T440 962T386 1023T344 1077T309 1106T258 1120Q230 1120 209 1107T174 1069T153 1011T146 936H56V954Q56 1011 71 1059T115
1141T183 1195T268 1214Q312 1214 344 1200T400 1164T454 1103T496 1049T531 1020T582 1006Q610 1006 631 1019T666 1058T687 1117T694 1192H784V1174Z" />
<glyph unicode="&#x8e;" glyph-name="Zcaron" horiz-adv-x="764" d="M69 0V86L538 1254H92L96 1350H664V1265L195 98H695L692 0H69ZM146 1646L181 1705L385 1576L587 1705L621 1648L383 1465L146 1646Z" />
<glyph unicode="&#x9e;" glyph-name="zcaron" horiz-adv-x="692" d="M598 0H88V78L460 896H104L108 986H584V910L210 92H604L598 0ZM350 1132L130 1392L177 1439L352 1260L527 1439L573 1394L350 1132Z" />
<glyph unicode="&#xa0;" glyph-name="space" horiz-adv-x="414" />
<glyph unicode="&#xa1;" glyph-name="exclamdown" horiz-adv-x="600" d="M286 858L308 -221H171L194 858H286ZM162 1061Q162 1084 165 1100T177 1124T201 1136T241 1140Q264 1140 279 1137T302 1125T314 1101T318 1062Q318 1038 315 1023T302 999T278 987T239
983Q215 983 200 986T177 999T166 1022T162 1061V1061Z" />
<glyph unicode="&#xa2;" glyph-name="cent" horiz-adv-x="840" d="M724 320Q705 295 680 273T623 232T556 201T480 184L470 -14H398L388 182Q324 191 274 218T189 295T135 419T116 594Q116 698 136 777T194 910T279 994T386 1036L398 1236H470L480 1038Q544 1034
602 1002T702 920L658 862Q607 909 557 931T452 954Q398 954 356 930T286 862T243 759T228 630Q228 540 243 473T287 362T357 296T450 274Q488 274 521 281T582 303T634 335T682 376L724 320Z" />
<glyph unicode="&#xa3;" glyph-name="sterling" horiz-adv-x="840" d="M78 0V77Q130 135 163 197T213 328T233 474T224 639H63V721H211Q204 750 198 783T186 852T177 925T174 1002Q174 1098 196 1166T259 1278T353 1342T469 1363Q501 1363 537 1358T608 1343T675
1321T736 1294L717 1225Q646 1251 591 1262T490 1273Q431 1273 393 1254T331 1200T298 1120T288 1019Q288 977 292 938T301 862T314 790T327 721H655V639H339Q348 559 346 484T329 341T282 210T200 94H767V0H78Z" />
<glyph unicode="&#xa4;" glyph-name="currency" horiz-adv-x="840" d="M708 42L592 218Q555 182 506 164T400 146Q351 146 310 160T238 202L132 42L56 96L178 256Q150 300 136 363T122 510Q122 596 139 664T188 782L56 954L132 1008L246 836Q282 869 329 885T432
902Q481 902 524 887T600 842L708 1008L786 954L654 786Q682 742 697 683T712 544Q712 456 696 388T648 272L786 96L708 42ZM608 510Q608 591 597 651T561 750T501 808T414 828Q370 828 335 811T276 757T239 668T226 544Q226 458 238 397T274 298T334 241T422 222Q466
222 500 240T559 294T595 384T608 510Z" />
<glyph unicode="&#xa5;" glyph-name="yen" horiz-adv-x="840" d="M728 446H478V262H728V184H478V0H362V184H112V262H362V446H112V526H362V618Q314 702 270 786T185 959T102 1143T16 1350H140Q174 1260 209 1177T280 1016T354 864T434 712Q473 781 510 860T583
1022T649 1187T708 1350H824Q781 1250 740 1155T659 971T573 792T478 618V526H728V446Z" />
<glyph unicode="&#xa6;" glyph-name="brokenbar" horiz-adv-x="410" d="M254 -346H156V395H254V-346ZM156 1505H254V738H156V1505Z" />
<glyph unicode="&#xa7;" glyph-name="section" horiz-adv-x="840" d="M217 -241Q245 -252 282 -258T358 -265Q400 -265 430 -250T478 -210T505 -152T513 -83Q513 -31 495 14T446 103T376 190T296 280T216 376T146 484T97 609T78 757Q78 835 93 909T137 1051T203
1175T285 1274T378 1338T477 1362Q528 1362 570 1350T643 1317L620 1247Q591 1259 555 1265T480 1272Q438 1272 409 1257T361 1217T335 1158T326 1087Q326 1037 344 992T394 904T464 817T544 728T624 632T694 523T743 397T762 248Q762 170 746 95T701 -48T634 -171T551
-269T458 -333T361 -356Q335 -356 312 -353T267 -343T228 -329T193 -310L217 -241ZM660 225Q660 308 639 376T583 503T505 612T420 709T339 802T277 897T246 1000T260 1118Q243 1082 229 1045T204 968T187 882T180 783Q180 699 201 631T257 504T334 396T419 299T500
206T562 111T593 8T580 -112Q597 -76 611 -39T636 39T653 125T660 225V225Z" />
<glyph unicode="&#xa8;" glyph-name="dieresis" horiz-adv-x="615" d="M526 1247Q526 1226 523 1213T513 1193T494 1182T462 1179Q441 1179 429 1182T411 1192T402 1212T399 1247Q399 1268 402 1281T411 1301T430 1312T462 1315Q483 1315 495 1312T514 1302T523
1282T526 1247ZM217 1247Q217 1226 214 1213T204 1193T185 1182T153 1179Q133 1179 121 1182T102 1192T93 1212T90 1247Q90 1268 93 1281T102 1301T121 1312T153 1315Q174 1315 186 1312T205 1302T214 1282T217 1247Z" />
<glyph unicode="&#xa9;" glyph-name="copyright" horiz-adv-x="1324" d="M1231 679Q1231 582 1212 494T1156 328T1069 188T955 79T817 10T660 -14Q576 -14 502 10T365 78T252 184T166 322T112 487T93 672Q93 768 112 857T168 1022T255 1162T369 1271T507 1340T664
1364Q747 1364 821 1340T959 1272T1072 1166T1157 1028T1212 863T1231 679V679ZM1145 674Q1145 802 1110 914T1010 1109T857 1240T662 1289Q556 1289 467 1241T314 1111T215 916T179 676Q179 548 214 436T314 241T467 110T662 61Q768 61 857 109T1010 239T1109
433T1145 674V674ZM876 406Q853 382 830 363T780 331T724 311T656 304Q538 304 474 395T409 670Q409 772 431 845T489 965T572 1034T671 1056Q726 1056 770 1035T855 968L814 916Q775 948 741 962T673 977Q637 977 607 958T556 902T523 811T511 687Q511 614 521
558T551 463T603 404T674 384Q720 384 757 402T837 457L876 406Z" />
<glyph unicode="&#xaa;" glyph-name="ordfeminine" horiz-adv-x="774" d="M504 678L497 770Q468 742 442 723T391 692T344 675T298 669Q255 669 221 684T163 726T126 790T113 870Q113 914 128 957T180 1033T275 1088T422 1109H486V1194Q486 1231 477 1259T451
1307T404 1337T335 1347Q298 1347 253 1338T160 1308L141 1375Q164 1386 191 1396T247 1413T306 1425T364 1429Q422 1429 463 1415T532 1373T571 1304T584 1210V678H504ZM486 1036H414Q354 1036 315 1025T253 993T221 944T212 883Q212 858 218 834T238 790T272
758T319 746Q335 746 353 751T391 769T435 798T486 841V1036ZM122 431V511H610V431H122Z" />
<glyph unicode="&#xab;" glyph-name="guillemotleft" horiz-adv-x="809" d="M302 220L97 593L304 965L381 933L219 593L381 254L302 220ZM598 260L421 593L600 925L676 893L540 593L676 294L598 260Z" />
<glyph unicode="&#xac;" glyph-name="logicalnot" horiz-adv-x="840" d="M654 280V551H66V639H749V280H654Z" />
<glyph unicode="&#xad;" glyph-name="hyphen" horiz-adv-x="377" d="M42 547V636H379V547H42Z" />
<glyph unicode="&#xae;" glyph-name="registered" horiz-adv-x="944" d="M848 969Q848 879 820 799T742 659T622 564T469 529Q387 529 318 563T200 656T123 795T96 966Q96 1057 124 1137T202 1277T322 1371T475 1406Q557 1406 626 1372T744 1279T820 1140T848
969V969ZM776 966Q776 1044 754 1112T691 1231T596 1311T472 1341Q405 1341 349 1313T252 1234T190 1116T168 970Q168 891 190 823T252 704T348 624T472 594Q540 594 595 622T691 701T753 819T776 966V966ZM542 731L449 947H420V731H344V1223Q375 1224 405 1224T463
1225Q505 1225 534 1215T581 1186T607 1143T616 1091Q616 1043 593 1008T524 955L632 731H542ZM420 1008H464Q496 1008 515 1029T535 1079Q535 1116 518 1138T457 1160H420V1008Z" />
<glyph unicode="&#xaf;" glyph-name="macron" horiz-adv-x="597" d="M90 1197V1283H508V1197H90Z" />
<glyph unicode="&#xb0;" glyph-name="degree" horiz-adv-x="781" d="M601 1126Q601 1070 588 1024T547 944T477 891T379 872Q322 872 282 889T217 937T180 1014T168 1118Q168 1174 181 1220T222 1300T291 1352T390 1371Q447 1371 487 1355T552 1307T589 1230T601
1126V1126ZM506 1122Q506 1166 500 1197T479 1248T442 1277T384 1287Q349 1287 326 1276T288 1243T269 1191T263 1122Q263 1078 269 1047T289 995T327 966T384 956Q419 956 442 967T480 1001T500 1053T506 1122V1122Z" />
<glyph unicode="&#xb1;" glyph-name="plusminus" horiz-adv-x="840" d="M72 0V86H768V0H72ZM468 631V295H372V631H67V717H372V1046H468V717H773V631H468Z" />
<glyph unicode="&#xb2;" glyph-name="twosuperior" horiz-adv-x="573" d="M74 737V810Q164 898 223 965T316 1084T364 1175T378 1247Q378 1286 368 1312T340 1354T299 1375T252 1381Q233 1381 215 1378T178 1371T139 1360T99 1346L86 1411Q110 1422 133 1430T182
1445T234 1455T294 1459Q331 1459 365 1448T426 1414T468 1353T484 1263Q484 1220 470 1173T423 1072T333 955T194 818H502V737H74Z" />
<glyph unicode="&#xb3;" glyph-name="threesuperior" horiz-adv-x="598" d="M79 825Q106 818 131 814T178 807T220 803T259 801Q299 801 327 809T373 834T400 876T408 937Q408 971 400 996T373 1038T324 1065T253 1074H166V1143H251Q317 1143 352 1176T388 1270Q388
1324 360 1353T267 1383Q249 1383 229 1381T188 1376T147 1368T109 1358L94 1420Q130 1434 181 1446T295 1459Q344 1459 381 1446T442 1410T479 1354T491 1283Q491 1247 482 1220T457 1172T421 1138T377 1118Q409 1115 434 1100T477 1062T503 1008T513 946Q513
887 497 846T451 778T376 740T274 727Q231 727 182 734T69 764L79 825Z" />
<glyph unicode="&#xb4;" glyph-name="acute" horiz-adv-x="477" d="M142 1129L90 1170L305 1435L388 1367L142 1129Z" />
<glyph unicode="&#xb5;" glyph-name="mu" horiz-adv-x="920" d="M674 0L666 124Q639 97 610 74T549 31T482 1T412 -10Q347 -10 302 28T240 136Q242 106 243 75T246 13T249 -49T253 -110T257 -171T260 -232T264 -290T268 -346H154V986H264V396Q264 318 275 259T308
159T361 98T434 78Q459 78 486 87T542 115T598 157T656 210V986H766V0H674Z" />
<glyph unicode="&#xb6;" glyph-name="paragraph" horiz-adv-x="1125" d="M834 -220V1264H618V-220H522V626Q438 613 367 634T242 703T159 822T128 981Q128 1058 150 1125T217 1242T326 1321T477 1350H931V-220H834Z" />
<glyph unicode="&#xb7;" glyph-name="periodcentered" horiz-adv-x="471" d="M312 597Q312 573 309 558T297 533T273 521T235 517Q212 517 197 520T174 533T163 557T159 595Q159 618 162 634T174 658T198 671T237 675Q260 675 274 672T297 659T309 635T312 597V597Z" />
<glyph unicode="&#xb8;" glyph-name="cedilla" horiz-adv-x="359" d="M267 -84Q274 -163 244 -229T148 -350L90 -309Q113 -285 129 -259T154 -205T166 -148T167 -84H267Z" />
<glyph unicode="&#xb9;" glyph-name="onesuperior" horiz-adv-x="565" d="M90 736V816H250V1356L106 1304L88 1364L272 1450H348V816H492V736H90Z" />
<glyph unicode="&#xba;" glyph-name="ordmasculine" horiz-adv-x="739" d="M643 1062Q643 963 623 889T566 765T475 691T357 666Q298 666 250 687T167 752T114 866T95 1032Q95 1132 115 1206T173 1329T263 1404T382 1429Q441 1429 489 1408T571 1343T624 1229T643
1062V1062ZM543 1044Q543 1128 531 1186T497 1281T442 1334T370 1350Q330 1350 298 1334T243 1281T208 1188T195 1050Q195 966 207 908T241 813T296 761T369 744Q408 744 440 761T496 814T531 906T543 1044V1044ZM126 431V511H615V431H126Z" />
<glyph unicode="&#xbb;" glyph-name="guillemotright" horiz-adv-x="809" d="M507 965L712 593L505 220L428 252L590 593L428 931L507 965ZM211 925L388 593L209 260L134 292L269 593L134 891L211 925Z" />
<glyph unicode="&#xbc;" glyph-name="onequarter" horiz-adv-x="1218" d="M90 736V816H250V1356L106 1304L88 1364L272 1450H348V816H492V736H90ZM1106 1459L1172 1419L208 -126L140 -86L1106 1459ZM1080 54V-112H982V54H676V122Q703 181 736 244T804 369T874
490T942 598H1080V132H1178V54H1080ZM982 526Q958 490 930 443T871 344T812 237T758 132H982V526Z" />
<glyph unicode="&#xbd;" glyph-name="onehalf" horiz-adv-x="1276" d="M90 736V816H250V1356L106 1304L88 1364L272 1450H348V816H492V736H90ZM1106 1459L1172 1419L208 -126L140 -86L1106 1459ZM776 -111V-38Q866 50 925 117T1018 236T1066 327T1080 399Q1080
438 1070 464T1042 506T1001 527T954 533Q935 533 917 530T880 523T841 512T801 498L788 563Q812 574 835 582T884 597T936 607T996 611Q1033 611 1067 600T1128 566T1170 505T1186 415Q1186 372 1172 325T1125 224T1035 107T896 -30H1204V-111H776Z" />
<glyph unicode="&#xbe;" glyph-name="threequarters" horiz-adv-x="1217" d="M79 825Q106 818 131 814T178 807T220 803T259 801Q299 801 327 809T373 834T400 876T408 937Q408 971 400 996T373 1038T324 1065T253 1074H166V1143H251Q317 1143 352 1176T388 1270Q388
1324 360 1353T267 1383Q249 1383 229 1381T188 1376T147 1368T109 1358L94 1420Q130 1434 181 1446T295 1459Q344 1459 381 1446T442 1410T479 1354T491 1283Q491 1247 482 1220T457 1172T421 1138T377 1118Q409 1115 434 1100T477 1062T503 1008T513 946Q513
887 497 846T451 778T376 740T274 727Q231 727 182 734T69 764L79 825ZM1105 1459L1171 1419L207 -126L139 -86L1105 1459ZM1079 54V-112H981V54H675V122Q702 181 735 244T803 369T873 490T941 598H1079V132H1177V54H1079ZM981 526Q957 490 929 443T870 344T811
237T757 132H981V526Z" />
<glyph unicode="&#xbf;" glyph-name="questiondown" horiz-adv-x="780" d="M114 68Q114 137 134 190T185 290T251 378T318 466T370 569T393 699L395 858H487L493 685Q495 621 477 566T430 461T366 365T303 275T253 187T233 94Q233 39 247 -3T289 -74T356 -118T446
-133Q482 -133 515 -129T576 -119T628 -106T667 -93L691 -170Q653 -184 621 -195T557 -214T493 -226T424 -230Q342 -230 284 -208T188 -145T132 -51T114 68V68ZM363 1061Q363 1084 366 1100T378 1124T402 1136T442 1140Q465 1140 480 1137T503 1125T515 1101T519
1062Q519 1038 516 1023T504 999T480 987T440 983Q417 983 402 986T378 999T367 1022T363 1061V1061Z" />
<glyph unicode="&#xc0;" glyph-name="Agrave" horiz-adv-x="893" d="M738 0Q730 37 722 75T706 151T688 229T669 309H212Q195 232 179 155T147 0H33Q67 155 106 325T189 668T279 1015T374 1350H510Q563 1168 611 995T702 655T785 324T860 0H738ZM650 402Q625 502
599 604T545 810T488 1018T430 1226Q406 1133 381 1032T331 826T281 614T232 402H650ZM476 1464L170 1613L232 1704L515 1523L476 1464Z" />
<glyph unicode="&#xc1;" glyph-name="Aacute" horiz-adv-x="893" d="M738 0Q730 37 722 75T706 151T688 229T669 309H212Q195 232 179 155T147 0H33Q67 155 106 325T189 668T279 1015T374 1350H510Q563 1168 611 995T702 655T785 324T860 0H738ZM650 402Q625 502
599 604T545 810T488 1018T430 1226Q406 1133 381 1032T331 826T281 614T232 402H650ZM630 1704L689 1614L381 1464L344 1522L630 1704Z" />
<glyph unicode="&#xc2;" glyph-name="Acircumflex" horiz-adv-x="893" d="M738 0Q730 37 722 75T706 151T688 229T669 309H212Q195 232 179 155T147 0H33Q67 155 106 325T189 668T279 1015T374 1350H510Q563 1168 611 995T702 655T785 324T860 0H738ZM650 402Q625
502 599 604T545 810T488 1018T430 1226Q406 1133 381 1032T331 826T281 614T232 402H650ZM684 1524L648 1465L444 1594L242 1465L209 1522L447 1705L684 1524Z" />
<glyph unicode="&#xc3;" glyph-name="Atilde" horiz-adv-x="893" d="M738 0Q730 37 722 75T706 151T688 229T669 309H212Q195 232 179 155T147 0H33Q67 155 106 325T189 668T279 1015T374 1350H510Q563 1168 611 995T702 655T785 324T860 0H738ZM650 402Q625 502
599 604T545 810T488 1018T430 1226Q406 1133 381 1032T331 826T281 614T232 402H650ZM731 1630Q711 1592 692 1563T652 1515T605 1485T548 1475Q506 1475 477 1493T425 1532T380 1572T333 1590Q319 1590 306 1585T279 1566T248 1532T212 1481L162 1518Q180 1556
199 1585T241 1633T288 1663T344 1673Q386 1673 415 1655T468 1615T513 1576T560 1558Q573 1558 586 1563T614 1582T644 1616T680 1667L731 1630Z" />
<glyph unicode="&#xc4;" glyph-name="Adieresis" horiz-adv-x="893" d="M738 0Q730 37 722 75T706 151T688 229T669 309H212Q195 232 179 155T147 0H33Q67 155 106 325T189 668T279 1015T374 1350H510Q563 1168 611 995T702 655T785 324T860 0H738ZM650 402Q625
502 599 604T545 810T488 1018T430 1226Q406 1133 381 1032T331 826T281 614T232 402H650ZM664 1556Q664 1534 661 1521T652 1501T633 1491T600 1488Q579 1488 567 1491T548 1500T539 1520T536 1554Q536 1576 538 1589T548 1609T567 1619T600 1622Q620 1622 632
1619T651 1609T661 1590T664 1556ZM342 1556Q342 1534 340 1521T331 1501T312 1491T279 1488Q259 1488 247 1491T228 1500T219 1520T216 1554Q216 1576 218 1589T228 1609T247 1619T279 1622Q300 1622 312 1619T330 1609T339 1590T342 1556Z" />
<glyph unicode="&#xc5;" glyph-name="Aring" horiz-adv-x="893" d="M738 0Q730 37 722 75T706 151T688 229T669 309H212Q195 232 179 155T147 0H33Q67 155 106 325T189 668T279 1015T374 1350H510Q563 1168 611 995T702 655T785 324T860 0H738ZM650 402Q625 502
599 604T545 810T488 1018T430 1226Q406 1133 381 1032T331 826T281 614T232 402H650ZM603 1563Q603 1515 589 1484T551 1434T498 1408T436 1401Q402 1401 374 1408T327 1433T296 1478T285 1545Q285 1594 299 1625T336 1674T390 1700T451 1708Q485 1708 513 1700T561
1675T592 1631T603 1563V1563ZM521 1553Q521 1601 502 1625T445 1649Q408 1649 388 1627T367 1555Q367 1531 372 1513T386 1484T410 1466T443 1460Q480 1460 500 1482T521 1553V1553Z" />
<glyph unicode="&#xc6;" glyph-name="AE" horiz-adv-x="1212" d="M563 0V307H222Q210 268 198 228T173 149T148 72T126 0H11Q67 172 126 342T247 682T372 1018T501 1350H1088V1253H677V740H1014V646H677V97H1094V0H563ZM563 1260H561Q518 1143 479 1033T401 817T325
608T252 402H563V1260Z" />
<glyph unicode="&#xc7;" glyph-name="Ccedilla" horiz-adv-x="814" d="M756 164Q730 125 699 92T631 36T551 -1T455 -14Q375 -14 309 28T195 155T121 366T94 658Q94 837 126 970T212 1190T334 1320T477 1364Q522 1364 561 1351T632 1314T692 1254T742 1174L678
1123Q638 1193 592 1230T479 1267Q445 1267 412 1251T350 1202T297 1122T254 1010T225 865T215 690Q215 551 232 439T282 249T365 127T479 84Q515 84 545 94T603 122T655 166T703 223L756 164ZM498 -84Q505 -163 475 -229T379 -350L321 -309Q344 -285 360 -259T385
-205T397 -148T398 -84H498Z" />
<glyph unicode="&#xc8;" glyph-name="Egrave" horiz-adv-x="774" d="M166 0V1350H680V1253H282V752H607V658H282V97H686V0H166ZM470 1464L164 1613L226 1704L509 1523L470 1464Z" />
<glyph unicode="&#xc9;" glyph-name="Eacute" horiz-adv-x="774" d="M166 0V1350H680V1253H282V752H607V658H282V97H686V0H166ZM614 1704L673 1614L365 1464L328 1522L614 1704Z" />
<glyph unicode="&#xca;" glyph-name="Ecircumflex" horiz-adv-x="774" d="M166 0V1350H680V1253H282V752H607V658H282V97H686V0H166ZM663 1524L627 1465L423 1594L221 1465L188 1522L426 1705L663 1524Z" />
<glyph unicode="&#xcb;" glyph-name="Edieresis" horiz-adv-x="774" d="M166 0V1350H680V1253H282V752H607V658H282V97H686V0H166ZM645 1556Q645 1534 642 1521T633 1501T614 1491T581 1488Q560 1488 548 1491T529 1500T520 1520T517 1554Q517 1576 519 1589T529
1609T548 1619T581 1622Q601 1622 613 1619T632 1609T642 1590T645 1556ZM323 1556Q323 1534 321 1521T312 1501T293 1491T260 1488Q240 1488 228 1491T209 1500T200 1520T197 1554Q197 1576 199 1589T209 1609T228 1619T260 1622Q281 1622 293 1619T311 1609T320
1590T323 1556Z" />
<glyph unicode="&#xcc;" glyph-name="Igrave" horiz-adv-x="448" d="M166 0V1350H282V0H166ZM257 1464L-49 1613L13 1704L296 1523L257 1464Z" />
<glyph unicode="&#xcd;" glyph-name="Iacute" horiz-adv-x="448" d="M166 0V1350H282V0H166ZM428 1704L487 1614L179 1464L142 1522L428 1704Z" />
<glyph unicode="&#xce;" glyph-name="Icircumflex" horiz-adv-x="448" d="M166 0V1350H282V0H166ZM717 1524L681 1465L477 1594L275 1465L242 1522L480 1705L717 1524Z" />
<glyph unicode="&#xcf;" glyph-name="Idieresis" horiz-adv-x="448" d="M166 0V1350H282V0H166ZM702 1556Q702 1534 699 1521T690 1501T671 1491T638 1488Q617 1488 605 1491T586 1500T577 1520T574 1554Q574 1576 576 1589T586 1609T605 1619T638 1622Q658 1622
670 1619T689 1609T699 1590T702 1556ZM380 1556Q380 1534 378 1521T369 1501T350 1491T317 1488Q297 1488 285 1491T266 1500T257 1520T254 1554Q254 1576 256 1589T266 1609T285 1619T317 1622Q338 1622 350 1619T368 1609T377 1590T380 1556Z" />
<glyph unicode="&#xd0;" glyph-name="Eth" horiz-adv-x="987" d="M180 1350Q235 1350 297 1351T426 1352Q506 1352 572 1331T690 1270T780 1172T843 1043T880 886T893 706Q893 534 861 402T765 180T608 43T391 -3Q361 -3 332 -3T275 -2T224 -1T180 0V653H60V747H180V1350ZM295
747H516V653H295V99Q325 96 356 95T417 94Q501 94 567 129T679 237T749 421T774 685Q774 762 766 834T740 969T694 1086T625 1177T531 1236T410 1257Q387 1257 367 1257T331 1256T306 1256T295 1255V747Z" />
<glyph unicode="&#xd1;" glyph-name="Ntilde" horiz-adv-x="1072" d="M789 0L410 873Q381 941 355 1002T308 1112Q284 1168 264 1218H262Q264 1171 265 1118Q266 1072 267 1014T268 893V0H166V1350H328L661 586Q688 525 714 463T761 351Q785 292 808 239H810Q808
290 807 345Q806 392 805 449T804 562V1350H906V0H789ZM833 1630Q813 1592 794 1563T754 1515T707 1485T650 1475Q608 1475 579 1493T527 1532T482 1572T435 1590Q421 1590 408 1585T381 1566T350 1532T314 1481L264 1518Q282 1556 301 1585T343 1633T390 1663T446
1673Q488 1673 517 1655T570 1615T615 1576T662 1558Q675 1558 688 1563T716 1582T746 1616T782 1667L833 1630Z" />
<glyph unicode="&#xd2;" glyph-name="Ograve" horiz-adv-x="1048" d="M954 692Q954 564 939 462T894 282T825 148T736 56T631 3T514 -14Q420 -14 343 24T210 143T125 351T94 658Q94 786 109 887T154 1067T223 1202T312 1294T417 1347T534 1364Q628 1364 705 1326T838
1207T923 999T954 692V692ZM836 658Q836 813 815 927T755 1117T655 1230T518 1267Q450 1267 394 1232T297 1126T235 947T212 692Q212 588 221 503T248 350T293 232T356 149T434 99T530 83Q598 83 654 118T751 224T813 403T836 658V658ZM585 1464L279 1613L341 1704L624
1523L585 1464Z" />
<glyph unicode="&#xd3;" glyph-name="Oacute" horiz-adv-x="1048" d="M954 692Q954 564 939 462T894 282T825 148T736 56T631 3T514 -14Q420 -14 343 24T210 143T125 351T94 658Q94 786 109 887T154 1067T223 1202T312 1294T417 1347T534 1364Q628 1364 705 1326T838
1207T923 999T954 692V692ZM836 658Q836 813 815 927T755 1117T655 1230T518 1267Q450 1267 394 1232T297 1126T235 947T212 692Q212 588 221 503T248 350T293 232T356 149T434 99T530 83Q598 83 654 118T751 224T813 403T836 658V658ZM721 1704L780 1614L472 1464L435
1522L721 1704Z" />
<glyph unicode="&#xd4;" glyph-name="Ocircumflex" horiz-adv-x="1048" d="M954 692Q954 564 939 462T894 282T825 148T736 56T631 3T514 -14Q420 -14 343 24T210 143T125 351T94 658Q94 786 109 887T154 1067T223 1202T312 1294T417 1347T534 1364Q628 1364 705
1326T838 1207T923 999T954 692V692ZM836 658Q836 813 815 927T755 1117T655 1230T518 1267Q450 1267 394 1232T297 1126T235 947T212 692Q212 588 221 503T248 350T293 232T356 149T434 99T530 83Q598 83 654 118T751 224T813 403T836 658V658ZM762 1524L726 1465L522
1594L320 1465L287 1522L525 1705L762 1524Z" />
<glyph unicode="&#xd5;" glyph-name="Otilde" horiz-adv-x="1048" d="M954 692Q954 564 939 462T894 282T825 148T736 56T631 3T514 -14Q420 -14 343 24T210 143T125 351T94 658Q94 786 109 887T154 1067T223 1202T312 1294T417 1347T534 1364Q628 1364 705 1326T838
1207T923 999T954 692V692ZM836 658Q836 813 815 927T755 1117T655 1230T518 1267Q450 1267 394 1232T297 1126T235 947T212 692Q212 588 221 503T248 350T293 232T356 149T434 99T530 83Q598 83 654 118T751 224T813 403T836 658V658ZM809 1630Q789 1592 770 1563T730
1515T683 1485T626 1475Q584 1475 555 1493T503 1532T458 1572T411 1590Q397 1590 384 1585T357 1566T326 1532T290 1481L240 1518Q258 1556 277 1585T319 1633T366 1663T422 1673Q464 1673 493 1655T546 1615T591 1576T638 1558Q651 1558 664 1563T692 1582T722
1616T758 1667L809 1630Z" />
<glyph unicode="&#xd6;" glyph-name="Odieresis" horiz-adv-x="1048" d="M954 692Q954 564 939 462T894 282T825 148T736 56T631 3T514 -14Q420 -14 343 24T210 143T125 351T94 658Q94 786 109 887T154 1067T223 1202T312 1294T417 1347T534 1364Q628 1364 705
1326T838 1207T923 999T954 692V692ZM836 658Q836 813 815 927T755 1117T655 1230T518 1267Q450 1267 394 1232T297 1126T235 947T212 692Q212 588 221 503T248 350T293 232T356 149T434 99T530 83Q598 83 654 118T751 224T813 403T836 658V658ZM749 1556Q749 1534
746 1521T737 1501T718 1491T685 1488Q664 1488 652 1491T633 1500T624 1520T621 1554Q621 1576 623 1589T633 1609T652 1619T685 1622Q705 1622 717 1619T736 1609T746 1590T749 1556ZM427 1556Q427 1534 425 1521T416 1501T397 1491T364 1488Q344 1488 332 1491T313
1500T304 1520T301 1554Q301 1576 303 1589T313 1609T332 1619T364 1622Q385 1622 397 1619T415 1609T424 1590T427 1556Z" />
<glyph unicode="&#xd7;" glyph-name="multiply" horiz-adv-x="840" d="M738 313L674 251L420 530L166 251L102 313L360 595L102 877L166 940L420 661L674 940L738 877L480 595L738 313Z" />
<glyph unicode="&#xd8;" glyph-name="Oslash" horiz-adv-x="1048" d="M954 692Q954 564 939 462T894 282T825 148T736 56T631 3T514 -14Q442 -14 381 9T269 79L159 -138L85 -100L209 144Q153 226 124 355T94 658Q94 786 109 887T154 1067T223 1202T312 1294T417
1347T534 1364Q606 1364 666 1342T779 1271L889 1487L963 1450L839 1206Q894 1123 924 994T954 692V692ZM839 658Q839 786 823 890T772 1072L321 182Q361 131 412 106T530 80Q576 80 617 95T692 142T753 221T800 333T829 478T839 658V658ZM518 1270Q449 1270 392
1235T295 1128T232 948T209 691Q209 564 224 461T276 278L727 1168Q687 1219 636 1244T518 1270V1270Z" />
<glyph unicode="&#xd9;" glyph-name="Ugrave" horiz-adv-x="1036" d="M877 500Q877 366 852 269T780 109T664 16T508 -14Q419 -14 353 14T244 101T180 254T159 476V1350H275V495Q275 380 289 301T333 173T410 102T524 80Q580 80 625 101T702 171T749 296T766 487V1350H877V500ZM568
1464L262 1613L324 1704L607 1523L568 1464Z" />
<glyph unicode="&#xda;" glyph-name="Uacute" horiz-adv-x="1036" d="M877 500Q877 366 852 269T780 109T664 16T508 -14Q419 -14 353 14T244 101T180 254T159 476V1350H275V495Q275 380 289 301T333 173T410 102T524 80Q580 80 625 101T702 171T749 296T766 487V1350H877V500ZM769
1704L828 1614L520 1464L483 1522L769 1704Z" />
<glyph unicode="&#xdb;" glyph-name="Ucircumflex" horiz-adv-x="1036" d="M877 500Q877 366 852 269T780 109T664 16T508 -14Q419 -14 353 14T244 101T180 254T159 476V1350H275V495Q275 380 289 301T333 173T410 102T524 80Q580 80 625 101T702 171T749 296T766
487V1350H877V500ZM757 1524L721 1465L517 1594L315 1465L282 1522L520 1705L757 1524Z" />
<glyph unicode="&#xdc;" glyph-name="Udieresis" horiz-adv-x="1036" d="M877 500Q877 366 852 269T780 109T664 16T508 -14Q419 -14 353 14T244 101T180 254T159 476V1350H275V495Q275 380 289 301T333 173T410 102T524 80Q580 80 625 101T702 171T749 296T766
487V1350H877V500ZM745 1556Q745 1534 742 1521T733 1501T714 1491T681 1488Q660 1488 648 1491T629 1500T620 1520T617 1554Q617 1576 619 1589T629 1609T648 1619T681 1622Q701 1622 713 1619T732 1609T742 1590T745 1556ZM423 1556Q423 1534 421 1521T412 1501T393
1491T360 1488Q340 1488 328 1491T309 1500T300 1520T297 1554Q297 1576 299 1589T309 1609T328 1619T360 1622Q381 1622 393 1619T411 1609T420 1590T423 1556Z" />
<glyph unicode="&#xdd;" glyph-name="Yacute" horiz-adv-x="793" d="M795 1350Q758 1255 719 1159T637 968T550 780T455 599V0H338V599Q290 685 247 771T163 949T81 1140T-2 1350H124Q157 1257 191 1173T260 1010T333 855T410 700Q448 775 484 857T554 1022T618
1189T674 1350H795ZM641 1704L700 1614L392 1464L355 1522L641 1704Z" />
<glyph unicode="&#xde;" glyph-name="Thorn" horiz-adv-x="868" d="M166 0V1350H282V1135Q304 1137 334 1137T404 1137Q520 1137 599 1107T726 1024T796 897T818 737Q818 647 793 568T713 431T568 338T351 304H282V0H166ZM282 399H386Q467 399 525 420T622 484T678
586T697 724Q697 798 681 857T627 956T530 1019T384 1041H282V399Z" />
<glyph unicode="&#xdf;" glyph-name="germandbls" horiz-adv-x="922" d="M154 0V1016Q154 1119 174 1197T234 1326T334 1404T474 1430Q532 1430 581 1413T665 1364T720 1284T740 1178Q740 1114 726 1069T691 994T634 931T581 879T552 830T538 754Q538 714 550
683T583 627T623 587T684 540T751 486T798 433T831 361T844 268Q844 208 827 157T777 67T698 7T594 -14Q546 -14 502 -2T416 34L432 100Q472 87 507 81T576 74Q615 74 645 88T695 126T724 182T734 250Q734 307 714 348T664 416T583 481T501 549T449 624T428 734Q428
788 441 826T475 889T528 946T582 1004T616 1068T630 1162Q630 1205 618 1238T584 1295T531 1330T462 1342Q405 1342 367 1321T306 1258T274 1160T264 1026V0H154Z" />
<glyph unicode="&#xe0;" glyph-name="agrave" horiz-adv-x="831" d="M596 0L588 120Q551 84 521 60T458 19T391 -6T312 -14Q196 -14 136 54T76 246Q76 318 100 376T174 478T305 546T496 570H576V686Q576 750 562 793T520 862T454 899T366 910Q335 910 305 906T246
894T192 877T136 856L114 930Q145 944 177 956T245 978T321 994T402 1000Q473 1000 526 982T614 927T666 836T684 710V0H596ZM576 488H482Q394 488 337 472T247 425T203 355T190 264Q190 221 199 186T228 125T275 86T342 72Q400 72 457 105T576 204V488ZM423 1129L178
1367L261 1435L476 1170L423 1129Z" />
<glyph unicode="&#xe1;" glyph-name="aacute" horiz-adv-x="831" d="M596 0L588 120Q551 84 521 60T458 19T391 -6T312 -14Q196 -14 136 54T76 246Q76 318 100 376T174 478T305 546T496 570H576V686Q576 750 562 793T520 862T454 899T366 910Q335 910 305 906T246
894T192 877T136 856L114 930Q145 944 177 956T245 978T321 994T402 1000Q473 1000 526 982T614 927T666 836T684 710V0H596ZM576 488H482Q394 488 337 472T247 425T203 355T190 264Q190 221 199 186T228 125T275 86T342 72Q400 72 457 105T576 204V488ZM384 1129L332
1170L547 1435L630 1367L384 1129Z" />
<glyph unicode="&#xe2;" glyph-name="acircumflex" horiz-adv-x="831" d="M596 0L588 120Q551 84 521 60T458 19T391 -6T312 -14Q196 -14 136 54T76 246Q76 318 100 376T174 478T305 546T496 570H576V686Q576 750 562 793T520 862T454 899T366 910Q335 910 305
906T246 894T192 877T136 856L114 930Q145 944 177 956T245 978T321 994T402 1000Q473 1000 526 982T614 927T666 836T684 710V0H596ZM576 488H482Q394 488 337 472T247 425T203 355T190 264Q190 221 199 186T228 125T275 86T342 72Q400 72 457 105T576 204V488ZM578
1131L404 1310L229 1132L183 1176L406 1438L626 1178L578 1131Z" />
<glyph unicode="&#xe3;" glyph-name="atilde" horiz-adv-x="831" d="M596 0L588 120Q551 84 521 60T458 19T391 -6T312 -14Q196 -14 136 54T76 246Q76 318 100 376T174 478T305 546T496 570H576V686Q576 750 562 793T520 862T454 899T366 910Q335 910 305 906T246
894T192 877T136 856L114 930Q145 944 177 956T245 978T321 994T402 1000Q473 1000 526 982T614 927T666 836T684 710V0H596ZM576 488H482Q394 488 337 472T247 425T203 355T190 264Q190 221 199 186T228 125T275 86T342 72Q400 72 457 105T576 204V488ZM674 1326Q655
1288 637 1259T598 1211T553 1181T498 1171Q457 1171 428 1189T375 1228T330 1268T283 1286Q270 1286 258 1281T232 1262T204 1228T168 1177L119 1214Q137 1252 155 1281T194 1329T239 1359T295 1369Q336 1369 365 1351T418 1311T462 1272T509 1254Q523 1254 535
1259T561 1278T589 1312T624 1363L674 1326Z" />
<glyph unicode="&#xe4;" glyph-name="adieresis" horiz-adv-x="831" d="M596 0L588 120Q551 84 521 60T458 19T391 -6T312 -14Q196 -14 136 54T76 246Q76 318 100 376T174 478T305 546T496 570H576V686Q576 750 562 793T520 862T454 899T366 910Q335 910 305 906T246
894T192 877T136 856L114 930Q145 944 177 956T245 978T321 994T402 1000Q473 1000 526 982T614 927T666 836T684 710V0H596ZM576 488H482Q394 488 337 472T247 425T203 355T190 264Q190 221 199 186T228 125T275 86T342 72Q400 72 457 105T576 204V488ZM619 1247Q619
1226 616 1213T606 1193T587 1182T555 1179Q534 1179 522 1182T504 1192T495 1212T492 1247Q492 1268 495 1281T504 1301T523 1312T555 1315Q576 1315 588 1312T607 1302T616 1282T619 1247ZM310 1247Q310 1226 307 1213T297 1193T278 1182T246 1179Q226 1179 214
1182T195 1192T186 1212T183 1247Q183 1268 186 1281T195 1301T214 1312T246 1315Q267 1315 279 1312T298 1302T307 1282T310 1247Z" />
<glyph unicode="&#xe5;" glyph-name="aring" horiz-adv-x="831" d="M596 0L588 120Q551 84 521 60T458 19T391 -6T312 -14Q196 -14 136 54T76 246Q76 318 100 376T174 478T305 546T496 570H576V686Q576 750 562 793T520 862T454 899T366 910Q335 910 305 906T246
894T192 877T136 856L114 930Q145 944 177 956T245 978T321 994T402 1000Q473 1000 526 982T614 927T666 836T684 710V0H596ZM576 488H482Q394 488 337 472T247 425T203 355T190 264Q190 221 199 186T228 125T275 86T342 72Q400 72 457 105T576 204V488ZM567 1272Q567
1220 553 1186T515 1132T462 1104T400 1095Q366 1095 338 1103T291 1131T260 1180T249 1253Q249 1304 263 1338T300 1393T354 1421T415 1430Q449 1430 477 1422T525 1394T556 1345T567 1272V1272ZM485 1260Q485 1287 480 1308T466 1342T442 1361T409 1368Q372 1368
352 1343T331 1265Q331 1238 336 1218T350 1184T374 1164T407 1157Q444 1157 464 1182T485 1260V1260Z" />
<glyph unicode="&#xe6;" glyph-name="ae" horiz-adv-x="1308" d="M1186 66Q1117 28 1047 7T898 -14Q853 -14 814 -5T741 26T679 80T630 160Q591 116 554 84T478 30T398 -3T312 -14Q196 -14 136 54T76 246Q76 318 100 376T174 478T305 546T496 570H576V686Q576
750 562 793T520 862T454 899T366 910Q335 910 305 906T246 894T192 877T136 856L114 930Q145 944 177 956T245 978T321 994T402 1000Q450 1000 491 990T565 958T621 906T654 834Q672 870 697 900T754 952T824 987T906 1000Q954 1000 994 987T1066 948T1123 880T1163
782T1184 652T1186 490H682V468Q682 365 698 291T746 169T823 99T926 76Q957 76 985 79T1042 90T1100 108T1162 136L1186 66ZM1078 568V574Q1078 653 1067 716T1033 823T975 892T892 916Q844 916 806 889T742 814T702 703T684 568H1078ZM482 490Q396 490 339 473T249
426T203 355T190 264Q190 221 199 186T228 125T275 86T342 72Q403 72 467 114T598 242Q585 296 580 358T576 490H482Z" />
<glyph unicode="&#xe7;" glyph-name="ccedilla" horiz-adv-x="709" d="M662 126Q633 92 605 67T544 24T475 -3T394 -12Q322 -12 266 19T171 111T112 265T92 478Q92 618 119 719T193 881T296 970T412 998Q478 998 532 969T638 878L594 820Q544 868 500 889T414
910Q363 910 324 883T258 804T218 676T204 502Q204 397 218 318T259 184T327 103T420 76Q474 76 520 101T620 184L662 126ZM440 -84Q447 -163 417 -229T321 -350L263 -309Q286 -285 302 -259T327 -205T339 -148T340 -84H440Z" />
<glyph unicode="&#xe8;" glyph-name="egrave" horiz-adv-x="830" d="M204 490V468Q204 365 220 291T268 169T345 99T448 76Q479 76 507 79T564 90T622 108T684 136L708 66Q639 28 569 7T420 -14Q343 -14 283 13T180 99T115 248T92 464Q92 613 120 718T197 884T304
973T428 1000Q476 1000 516 987T588 948T645 880T685 782T706 652T708 490H204ZM600 568V574Q600 653 589 716T555 823T497 892T414 916Q366 916 328 889T264 814T224 703T206 568H600ZM447 1129L202 1367L285 1435L500 1170L447 1129Z" />
<glyph unicode="&#xe9;" glyph-name="eacute" horiz-adv-x="830" d="M204 490V468Q204 365 220 291T268 169T345 99T448 76Q479 76 507 79T564 90T622 108T684 136L708 66Q639 28 569 7T420 -14Q343 -14 283 13T180 99T115 248T92 464Q92 613 120 718T197 884T304
973T428 1000Q476 1000 516 987T588 948T645 880T685 782T706 652T708 490H204ZM600 568V574Q600 653 589 716T555 823T497 892T414 916Q366 916 328 889T264 814T224 703T206 568H600ZM401 1129L349 1170L564 1435L647 1367L401 1129Z" />
<glyph unicode="&#xea;" glyph-name="ecircumflex" horiz-adv-x="830" d="M204 490V468Q204 365 220 291T268 169T345 99T448 76Q479 76 507 79T564 90T622 108T684 136L708 66Q639 28 569 7T420 -14Q343 -14 283 13T180 99T115 248T92 464Q92 613 120 718T197
884T304 973T428 1000Q476 1000 516 987T588 948T645 880T685 782T706 652T708 490H204ZM600 568V574Q600 653 589 716T555 823T497 892T414 916Q366 916 328 889T264 814T224 703T206 568H600ZM593 1131L419 1310L244 1132L198 1176L421 1438L641 1178L593 1131Z"
/>
<glyph unicode="&#xeb;" glyph-name="edieresis" horiz-adv-x="830" d="M204 490V468Q204 365 220 291T268 169T345 99T448 76Q479 76 507 79T564 90T622 108T684 136L708 66Q639 28 569 7T420 -14Q343 -14 283 13T180 99T115 248T92 464Q92 613 120 718T197 884T304
973T428 1000Q476 1000 516 987T588 948T645 880T685 782T706 652T708 490H204ZM600 568V574Q600 653 589 716T555 823T497 892T414 916Q366 916 328 889T264 814T224 703T206 568H600ZM638 1247Q638 1226 635 1213T625 1193T606 1182T574 1179Q553 1179 541 1182T523
1192T514 1212T511 1247Q511 1268 514 1281T523 1301T542 1312T574 1315Q595 1315 607 1312T626 1302T635 1282T638 1247ZM329 1247Q329 1226 326 1213T316 1193T297 1182T265 1179Q245 1179 233 1182T214 1192T205 1212T202 1247Q202 1268 205 1281T214 1301T233
1312T265 1315Q286 1315 298 1312T317 1302T326 1282T329 1247Z" />
<glyph unicode="&#xec;" glyph-name="igrave" horiz-adv-x="418" d="M155 0V987H264V0H155ZM487 1129L242 1367L325 1435L540 1170L487 1129Z" />
<glyph unicode="&#xed;" glyph-name="iacute" horiz-adv-x="418" d="M155 0V987H264V0H155ZM187 1129L135 1170L350 1435L433 1367L187 1129Z" />
<glyph unicode="&#xee;" glyph-name="icircumflex" horiz-adv-x="418" d="M155 0V987H264V0H155ZM640 1131L466 1310L291 1132L245 1176L468 1438L688 1178L640 1131Z" />
<glyph unicode="&#xef;" glyph-name="idieresis" horiz-adv-x="418" d="M155 0V987H264V0H155ZM651 1247Q651 1227 649 1214T639 1193T620 1182T588 1179Q569 1179 557 1181T538 1192T529 1213T526 1247Q526 1267 528 1280T538 1301T557 1312T588 1315Q607 1315
619 1313T639 1302T648 1281T651 1247V1247ZM407 1247Q407 1227 405 1214T395 1193T376 1182T345 1179Q325 1179 313 1181T294 1192T285 1213T282 1247Q282 1267 284 1280T294 1301T313 1312T345 1315Q363 1315 375 1313T395 1302T404 1281T407 1247V1247Z" />
<glyph unicode="&#xf0;" glyph-name="eth" horiz-adv-x="880" d="M564 1232Q605 1174 639 1116T702 981T748 808T766 594Q766 490 756 404T725 251T675 133T607 51T521 2T418 -14Q343 -14 282 16T179 107T113 259T90 470Q90 602 115 701T188 866T302 964T450 996Q468
996 485 995T520 992T553 988T584 982Q575 1005 562 1031T534 1083T501 1135T466 1184L290 1068L240 1130L418 1246Q381 1291 343 1330T254 1418H398Q416 1401 431 1386T461 1355T490 1325T516 1294L682 1404L730 1340L564 1232ZM652 566Q652 661 643 738T614 882Q595
889 575 895T534 904T490 910T446 912Q389 912 345 889T269 816T221 688T204 504Q204 401 218 322T261 188T334 105T438 76Q495 76 536 107T602 199T640 352T652 566Z" />
<glyph unicode="&#xf1;" glyph-name="ntilde" horiz-adv-x="917" d="M656 0Q656 56 656 119T658 276T659 427T660 534Q660 633 649 704T615 820T561 886T486 908Q461 908 434 899T378 872T321 831T264 778V0H154V986H246L254 864Q282 891 311 914T374 957T444
988T518 1000Q578 1000 624 977T704 904T754 770T772 568Q772 521 772 465T770 306T767 133T766 0H656ZM734 1326Q715 1288 697 1259T658 1211T613 1181T558 1171Q517 1171 488 1189T435 1228T390 1268T343 1286Q330 1286 318 1281T292 1262T264 1228T228 1177L179
1214Q197 1252 215 1281T254 1329T299 1359T355 1369Q396 1369 425 1351T478 1311T522 1272T569 1254Q583 1254 595 1259T621 1278T649 1312T684 1363L734 1326Z" />
<glyph unicode="&#xf2;" glyph-name="ograve" horiz-adv-x="880" d="M788 518Q788 417 774 337T735 197T675 98T600 33T515 -3T422 -14Q347 -14 287 13T183 98T116 248T92 466Q92 568 106 648T145 788T205 888T280 953T365 989T458 1000Q533 1000 593 973T697
887T764 737T788 518ZM676 486Q676 594 662 674T618 807T545 886T440 912Q383 912 340 887T266 811T220 682T204 498Q204 390 218 310T262 178T335 100T440 74Q497 74 540 99T614 175T660 303T676 486ZM455 1129L210 1367L293 1435L508 1170L455 1129Z" />
<glyph unicode="&#xf3;" glyph-name="oacute" horiz-adv-x="880" d="M788 518Q788 417 774 337T735 197T675 98T600 33T515 -3T422 -14Q347 -14 287 13T183 98T116 248T92 466Q92 568 106 648T145 788T205 888T280 953T365 989T458 1000Q533 1000 593 973T697
887T764 737T788 518ZM676 486Q676 594 662 674T618 807T545 886T440 912Q383 912 340 887T266 811T220 682T204 498Q204 390 218 310T262 178T335 100T440 74Q497 74 540 99T614 175T660 303T676 486ZM431 1129L379 1170L594 1435L677 1367L431 1129Z" />
<glyph unicode="&#xf4;" glyph-name="ocircumflex" horiz-adv-x="880" d="M788 518Q788 417 774 337T735 197T675 98T600 33T515 -3T422 -14Q347 -14 287 13T183 98T116 248T92 466Q92 568 106 648T145 788T205 888T280 953T365 989T458 1000Q533 1000 593 973T697
887T764 737T788 518ZM676 486Q676 594 662 674T618 807T545 886T440 912Q383 912 340 887T266 811T220 682T204 498Q204 390 218 310T262 178T335 100T440 74Q497 74 540 99T614 175T660 303T676 486ZM615 1131L441 1310L266 1132L220 1176L443 1438L663 1178L615
1131Z" />
<glyph unicode="&#xf5;" glyph-name="otilde" horiz-adv-x="880" d="M788 518Q788 417 774 337T735 197T675 98T600 33T515 -3T422 -14Q347 -14 287 13T183 98T116 248T92 466Q92 568 106 648T145 788T205 888T280 953T365 989T458 1000Q533 1000 593 973T697
887T764 737T788 518ZM676 486Q676 594 662 674T618 807T545 886T440 912Q383 912 340 887T266 811T220 682T204 498Q204 390 218 310T262 178T335 100T440 74Q497 74 540 99T614 175T660 303T676 486ZM718 1326Q699 1288 681 1259T642 1211T597 1181T542 1171Q501
1171 472 1189T419 1228T374 1268T327 1286Q314 1286 302 1281T276 1262T248 1228T212 1177L163 1214Q181 1252 199 1281T238 1329T283 1359T339 1369Q380 1369 409 1351T462 1311T506 1272T553 1254Q567 1254 579 1259T605 1278T633 1312T668 1363L718 1326Z"
/>
<glyph unicode="&#xf6;" glyph-name="odieresis" horiz-adv-x="880" d="M788 518Q788 417 774 337T735 197T675 98T600 33T515 -3T422 -14Q347 -14 287 13T183 98T116 248T92 466Q92 568 106 648T145 788T205 888T280 953T365 989T458 1000Q533 1000 593 973T697
887T764 737T788 518ZM676 486Q676 594 662 674T618 807T545 886T440 912Q383 912 340 887T266 811T220 682T204 498Q204 390 218 310T262 178T335 100T440 74Q497 74 540 99T614 175T660 303T676 486ZM658 1247Q658 1226 655 1213T645 1193T626 1182T594 1179Q573
1179 561 1182T543 1192T534 1212T531 1247Q531 1268 534 1281T543 1301T562 1312T594 1315Q615 1315 627 1312T646 1302T655 1282T658 1247ZM349 1247Q349 1226 346 1213T336 1193T317 1182T285 1179Q265 1179 253 1182T234 1192T225 1212T222 1247Q222 1268 225
1281T234 1301T253 1312T285 1315Q306 1315 318 1312T337 1302T346 1282T349 1247Z" />
<glyph unicode="&#xf7;" glyph-name="divide" horiz-adv-x="840" d="M493 311Q493 289 490 275T478 252T456 240T420 236Q397 236 383 239T361 251T349 273T345 311Q345 334 348 349T360 372T383 384T420 388Q441 388 455 385T478 373T489 350T493 311V311ZM69
551V639H771V551H69ZM493 880Q493 856 490 841T478 818T456 806T420 802Q397 802 383 805T361 817T349 840T345 879Q345 902 348 916T360 939T383 950T420 954Q441 954 455 951T478 940T489 917T493 880V880Z" />
<glyph unicode="&#xf8;" glyph-name="oslash" horiz-adv-x="880" d="M700 882Q743 820 765 731T788 518Q788 417 774 337T735 197T675 98T600 33T515 -3T422 -14Q373 -14 331 -2T254 36L164 -140L94 -102L192 86Q143 146 118 239T92 466Q92 568 106 648T145 788T205
888T280 953T365 989T458 1000Q511 1000 556 985T640 938L716 1082L786 1044L700 882ZM300 122Q326 96 362 83T440 70Q497 70 541 95T617 172T664 302T680 486Q680 579 670 644T636 762L300 122ZM594 848Q565 883 526 898T440 914Q382 914 338 889T263 813T216
684T200 500Q200 399 213 324T254 202L594 848Z" />
<glyph unicode="&#xf9;" glyph-name="ugrave" horiz-adv-x="917" d="M674 0L666 122Q639 95 610 72T547 30T476 0T402 -12Q342 -12 296 10T216 83T166 217T148 420Q148 466 148 522T150 680T153 853T154 986H264Q264 930 264 868T262 712T261 561T260 454Q260
354 271 283T305 166T359 100T434 78Q459 78 486 87T542 115T598 157T656 210V986H766V0H674ZM474 1129L229 1367L312 1435L527 1170L474 1129Z" />
<glyph unicode="&#xfa;" glyph-name="uacute" horiz-adv-x="917" d="M674 0L666 122Q639 95 610 72T547 30T476 0T402 -12Q342 -12 296 10T216 83T166 217T148 420Q148 466 148 522T150 680T153 853T154 986H264Q264 930 264 868T262 712T261 561T260 454Q260
354 271 283T305 166T359 100T434 78Q459 78 486 87T542 115T598 157T656 210V986H766V0H674ZM459 1129L407 1170L622 1435L705 1367L459 1129Z" />
<glyph unicode="&#xfb;" glyph-name="ucircumflex" horiz-adv-x="917" d="M674 0L666 122Q639 95 610 72T547 30T476 0T402 -12Q342 -12 296 10T216 83T166 217T148 420Q148 466 148 522T150 680T153 853T154 986H264Q264 930 264 868T262 712T261 561T260 454Q260
354 271 283T305 166T359 100T434 78Q459 78 486 87T542 115T598 157T656 210V986H766V0H674ZM635 1131L461 1310L286 1132L240 1176L463 1438L683 1178L635 1131Z" />
<glyph unicode="&#xfc;" glyph-name="udieresis" horiz-adv-x="917" d="M674 0L666 122Q639 95 610 72T547 30T476 0T402 -12Q342 -12 296 10T216 83T166 217T148 420Q148 466 148 522T150 680T153 853T154 986H264Q264 930 264 868T262 712T261 561T260 454Q260
354 271 283T305 166T359 100T434 78Q459 78 486 87T542 115T598 157T656 210V986H766V0H674ZM675 1247Q675 1226 672 1213T662 1193T643 1182T611 1179Q590 1179 578 1182T560 1192T551 1212T548 1247Q548 1268 551 1281T560 1301T579 1312T611 1315Q632 1315
644 1312T663 1302T672 1282T675 1247ZM366 1247Q366 1226 363 1213T353 1193T334 1182T302 1179Q282 1179 270 1182T251 1192T242 1212T239 1247Q239 1268 242 1281T251 1301T270 1312T302 1315Q323 1315 335 1312T354 1302T363 1282T366 1247Z" />
<glyph unicode="&#xfd;" glyph-name="yacute" horiz-adv-x="749" d="M708 986Q667 769 625 593T540 281T456 46T374 -123T296 -237T223 -305T157 -338T94 -348Q74 -348 50 -344T4 -332V-256Q10 -257 17 -258T32 -260T49 -261T68 -262Q108 -262 145 -245T216 -196Q234
-177 249 -153T277 -101T295 -46T302 6Q302 45 293 93T264 202L24 986H140L346 308Q353 284 360 255T372 196T379 136T378 84Q409 166 441 273T502 500T555 745T594 986H708ZM383 1129L331 1170L546 1435L629 1367L383 1129Z" />
<glyph unicode="&#xfe;" glyph-name="thorn" horiz-adv-x="880" d="M154 -346V1418H264V880Q296 909 326 931T387 968T446 992T506 1000Q569 1000 621 966T710 868T768 719T788 530Q788 390 758 287T672 117T543 20T382 -12Q370 -12 357 -12T328 -10T296 -7T264
-2V-346H154ZM264 90Q280 85 297 81T333 75T368 71T404 70Q462 70 511 97T596 178T653 314T674 500Q674 590 661 665T621 794T557 878T474 908Q434 908 378 876T264 782V90Z" />
<glyph unicode="&#xff;" glyph-name="ydieresis" horiz-adv-x="749" d="M708 986Q667 769 625 593T540 281T456 46T374 -123T296 -237T223 -305T157 -338T94 -348Q74 -348 50 -344T4 -332V-256Q10 -257 17 -258T32 -260T49 -261T68 -262Q108 -262 145 -245T216
-196Q234 -177 249 -153T277 -101T295 -46T302 6Q302 45 293 93T264 202L24 986H140L346 308Q353 284 360 255T372 196T379 136T378 84Q409 166 441 273T502 500T555 745T594 986H708ZM604 1247Q604 1226 601 1213T591 1193T572 1182T540 1179Q519 1179 507 1182T489
1192T480 1212T477 1247Q477 1268 480 1281T489 1301T508 1312T540 1315Q561 1315 573 1312T592 1302T601 1282T604 1247ZM295 1247Q295 1226 292 1213T282 1193T263 1182T231 1179Q211 1179 199 1182T180 1192T171 1212T168 1247Q168 1268 171 1281T180 1301T199
1312T231 1315Q252 1315 264 1312T283 1302T292 1282T295 1247Z" />
<glyph unicode="&#x100;" glyph-name="Amacron" horiz-adv-x="893" d="M738 0Q730 37 722 75T706 151T688 229T669 309H212Q195 232 179 155T147 0H33Q67 155 106 325T189 668T279 1015T374 1350H510Q563 1168 611 995T702 655T785 324T860 0H738ZM650 402Q625
502 599 604T545 810T488 1018T430 1226Q406 1133 381 1032T331 826T281 614T232 402H650ZM219 1517V1601H677V1517H219Z" />
<glyph unicode="&#x101;" glyph-name="amacron" horiz-adv-x="831" d="M596 0L588 120Q551 84 521 60T458 19T391 -6T312 -14Q196 -14 136 54T76 246Q76 318 100 376T174 478T305 546T496 570H576V686Q576 750 562 793T520 862T454 899T366 910Q335 910 305 906T246
894T192 877T136 856L114 930Q145 944 177 956T245 978T321 994T402 1000Q473 1000 526 982T614 927T666 836T684 710V0H596ZM576 488H482Q394 488 337 472T247 425T203 355T190 264Q190 221 199 186T228 125T275 86T342 72Q400 72 457 105T576 204V488ZM194 1197V1283H612V1197H194Z"
/>
<glyph unicode="&#x102;" glyph-name="Abreve" horiz-adv-x="893" d="M738 0Q730 37 722 75T706 151T688 229T669 309H212Q195 232 179 155T147 0H33Q67 155 106 325T189 668T279 1015T374 1350H510Q563 1168 611 995T702 655T785 324T860 0H738ZM650 402Q625
502 599 604T545 810T488 1018T430 1226Q406 1133 381 1032T331 826T281 614T232 402H650ZM663 1698Q663 1645 649 1600T607 1521T538 1470T444 1451Q390 1451 349 1469T279 1521T237 1599T222 1698H294Q294 1662 304 1633T334 1582T382 1550T444 1539Q478 1539
505 1550T552 1581T582 1631T592 1698H663Z" />
<glyph unicode="&#x103;" glyph-name="abreve" horiz-adv-x="831" d="M596 0L588 120Q551 84 521 60T458 19T391 -6T312 -14Q196 -14 136 54T76 246Q76 318 100 376T174 478T305 546T496 570H576V686Q576 750 562 793T520 862T454 899T366 910Q335 910 305 906T246
894T192 877T136 856L114 930Q145 944 177 956T245 978T321 994T402 1000Q473 1000 526 982T614 927T666 836T684 710V0H596ZM576 488H482Q394 488 337 472T247 425T203 355T190 264Q190 221 199 186T228 125T275 86T342 72Q400 72 457 105T576 204V488ZM626 1405Q626
1340 612 1290T569 1205T499 1152T403 1134Q349 1134 309 1152T240 1204T199 1289T185 1405H257Q257 1361 266 1328T295 1271T342 1236T405 1224Q441 1224 469 1235T515 1269T544 1326T554 1405H626Z" />
<glyph unicode="&#x104;" glyph-name="Aogonek" horiz-adv-x="891" d="M901 -315Q885 -324 869 -331T836 -342T802 -349T768 -352Q734 -352 706 -344T658 -321T628 -280T617 -221Q617 -193 624 -164T647 -107T684 -52T736 0Q728 37 720 75T704 151T686 229T667
309H210Q194 232 178 155T145 0H32Q65 155 104 325T187 668T277 1015T372 1350H508Q562 1168 610 995T701 655T784 324T858 0Q823 -18 797 -42T755 -94T730 -149T721 -201Q721 -239 739 -255T798 -272Q815 -272 838 -268T883 -256L901 -315ZM648 402Q624 502 598
604T543 810T486 1018T428 1226Q405 1133 380 1032T329 826T279 614T231 402H648Z" />
<glyph unicode="&#x105;" glyph-name="aogonek" horiz-adv-x="832" d="M740 -314Q724 -324 708 -331T676 -342T642 -349T608 -352Q574 -352 546 -344T498 -320T467 -280T456 -222Q456 -163 490 -103T594 12L588 120Q551 84 521 60T458 19T391 -6T312 -14Q196 -14
136 54T76 246Q76 318 100 376T174 478T305 546T496 570H576V686Q576 750 562 793T520 862T454 899T366 910Q335 910 305 906T246 894T192 877T136 856L114 930Q145 944 177 956T245 978T321 994T402 1000Q472 1000 525 982T613 927T666 836T684 710V0Q622 -47
591 -100T560 -200Q560 -238 579 -255T638 -272Q655 -272 678 -268T722 -256L740 -314ZM576 488H482Q394 488 337 472T247 425T203 355T190 264Q190 221 199 186T228 125T275 86T342 72Q400 72 457 105T576 204V488Z" />
<glyph unicode="&#x106;" glyph-name="Cacute" horiz-adv-x="814" d="M756 164Q730 125 699 92T631 36T551 -1T455 -14Q375 -14 309 28T195 155T121 366T94 658Q94 837 126 970T212 1190T334 1320T477 1364Q522 1364 561 1351T632 1314T692 1254T742 1174L678
1123Q638 1193 592 1230T479 1267Q445 1267 412 1251T350 1202T297 1122T254 1010T225 865T215 690Q215 551 232 439T282 249T365 127T479 84Q515 84 545 94T603 122T655 166T703 223L756 164ZM669 1704L728 1614L420 1464L383 1522L669 1704Z" />
<glyph unicode="&#x107;" glyph-name="cacute" horiz-adv-x="709" d="M662 126Q633 92 605 67T544 24T475 -3T394 -12Q322 -12 266 19T171 111T112 265T92 478Q92 618 119 719T193 881T296 970T412 998Q478 998 532 969T638 878L594 820Q544 868 500 889T414 910Q363
910 324 883T258 804T218 676T204 502Q204 397 218 318T259 184T327 103T420 76Q474 76 520 101T620 184L662 126ZM397 1129L345 1170L560 1435L643 1367L397 1129Z" />
<glyph unicode="&#x108;" glyph-name="Ccircumflex" horiz-adv-x="814" d="M756 164Q730 125 699 92T631 36T551 -1T455 -14Q375 -14 309 28T195 155T121 366T94 658Q94 837 126 970T212 1190T334 1320T477 1364Q522 1364 561 1351T632 1314T692 1254T742 1174L678
1123Q638 1193 592 1230T479 1267Q445 1267 412 1251T350 1202T297 1122T254 1010T225 865T215 690Q215 551 232 439T282 249T365 127T479 84Q515 84 545 94T603 122T655 166T703 223L756 164ZM710 1524L674 1465L470 1594L268 1465L235 1522L473 1705L710 1524Z"
/>
<glyph unicode="&#x109;" glyph-name="ccircumflex" horiz-adv-x="709" d="M662 126Q633 92 605 67T544 24T475 -3T394 -12Q322 -12 266 19T171 111T112 265T92 478Q92 618 119 719T193 881T296 970T412 998Q478 998 532 969T638 878L594 820Q544 868 500 889T414
910Q363 910 324 883T258 804T218 676T204 502Q204 397 218 318T259 184T327 103T420 76Q474 76 520 101T620 184L662 126ZM577 1131L403 1310L228 1132L182 1176L405 1438L625 1178L577 1131Z" />
<glyph unicode="&#x10a;" glyph-name="Cdotaccent" horiz-adv-x="814" d="M756 164Q730 125 699 92T631 36T551 -1T455 -14Q375 -14 309 28T195 155T121 366T94 658Q94 837 126 970T212 1190T334 1320T477 1364Q522 1364 561 1351T632 1314T692 1254T742 1174L678
1123Q638 1193 592 1230T479 1267Q445 1267 412 1251T350 1202T297 1122T254 1010T225 865T215 690Q215 551 232 439T282 249T365 127T479 84Q515 84 545 94T603 122T655 166T703 223L756 164ZM536 1557Q536 1536 534 1523T523 1502T502 1492T467 1489Q446 1489
433 1491T412 1500T402 1521T399 1555Q399 1577 401 1590T412 1611T433 1621T468 1624Q488 1624 501 1622T523 1612T533 1592T536 1557V1557Z" />
<glyph unicode="&#x10b;" glyph-name="cdotaccent" horiz-adv-x="709" d="M662 126Q633 92 605 67T544 24T475 -3T394 -12Q322 -12 266 19T171 111T112 265T92 478Q92 618 119 719T193 881T296 970T412 998Q478 998 532 969T638 878L594 820Q544 868 500 889T414
910Q363 910 324 883T258 804T218 676T204 502Q204 397 218 318T259 184T327 103T420 76Q474 76 520 101T620 184L662 126ZM472 1248Q472 1226 470 1213T459 1191T438 1180T402 1177Q380 1177 367 1179T346 1190T336 1211T333 1248Q333 1269 335 1282T345 1304T366
1315T402 1318Q424 1318 437 1316T459 1306T469 1284T472 1248V1248Z" />
<glyph unicode="&#x10c;" glyph-name="Ccaron" horiz-adv-x="814" d="M756 164Q730 125 699 92T631 36T551 -1T455 -14Q375 -14 309 28T195 155T121 366T94 658Q94 837 126 970T212 1190T334 1320T477 1364Q522 1364 561 1351T632 1314T692 1254T742 1174L678
1123Q638 1193 592 1230T479 1267Q445 1267 412 1251T350 1202T297 1122T254 1010T225 865T215 690Q215 551 232 439T282 249T365 127T479 84Q515 84 545 94T603 122T655 166T703 223L756 164ZM225 1646L260 1705L464 1576L666 1705L700 1648L462 1465L225 1646Z"
/>
<glyph unicode="&#x10d;" glyph-name="ccaron" horiz-adv-x="709" d="M662 126Q633 92 605 67T544 24T475 -3T394 -12Q322 -12 266 19T171 111T112 265T92 478Q92 618 119 719T193 881T296 970T412 998Q478 998 532 969T638 878L594 820Q544 868 500 889T414 910Q363
910 324 883T258 804T218 676T204 502Q204 397 218 318T259 184T327 103T420 76Q474 76 520 101T620 184L662 126ZM400 1132L180 1392L227 1439L402 1260L577 1439L623 1394L400 1132Z" />
<glyph unicode="&#x10e;" glyph-name="Dcaron" horiz-adv-x="972" d="M166 1350Q220 1350 282 1351T412 1352Q492 1352 557 1331T675 1270T765 1172T828 1043T866 886T878 706Q878 534 846 402T750 180T593 43T377 -3Q346 -3 317 -3T260 -2T209 -1T166 0V1350ZM281
99Q310 96 341 95T402 94Q486 94 552 129T664 237T735 421T759 685Q759 762 751 834T726 969T680 1086T611 1177T517 1236T395 1257Q371 1257 351 1257T315 1256T290 1256T281 1255V99ZM200 1646L235 1705L439 1576L641 1705L675 1648L437 1465L200 1646Z" />
<glyph unicode="&#x10f;" glyph-name="dcaron" horiz-adv-x="911" d="M636 0L624 114Q590 83 559 59T496 19T435 -5T374 -14Q311 -14 259 20T170 117T112 266T92 456Q92 596 122 699T208 869T336 966T496 998Q521 998 548 996T616 988V1418H726V0H636ZM616 896Q584
905 548 909T476 914Q418 914 369 887T284 806T227 671T206 484Q206 395 220 320T260 191T323 106T406 76Q445 76 501 108T616 202V896ZM859 1135L794 1145L866 1481L966 1461L859 1135Z" />
<glyph unicode="&#x110;" glyph-name="Dcroat" horiz-adv-x="987" d="M180 1350Q235 1350 297 1351T426 1352Q506 1352 572 1331T690 1270T780 1172T843 1043T880 886T893 706Q893 534 861 402T765 180T608 43T391 -3Q361 -3 332 -3T275 -2T224 -1T180 0V653H60V747H180V1350ZM295
747H516V653H295V99Q325 96 356 95T417 94Q501 94 567 129T679 237T749 421T774 685Q774 762 766 834T740 969T694 1086T625 1177T531 1236T410 1257Q387 1257 367 1257T331 1256T306 1256T295 1255V747Z" />
<glyph unicode="&#x111;" glyph-name="dcroat" horiz-adv-x="880" d="M726 0H636L624 114Q590 83 559 59T496 19T435 -5T374 -14Q311 -14 259 20T170 117T112 266T92 456Q92 595 123 698T209 868T337 966T496 998Q521 998 548 996T616 988V1164H412V1240H616V1418H726V1240H870V1164H726V0ZM616
896Q584 905 548 909T476 914Q418 914 369 887T284 806T227 671T206 484Q206 395 220 320T260 191T323 106T406 76Q445 76 501 108T616 202V896Z" />
<glyph unicode="&#x112;" glyph-name="Emacron" horiz-adv-x="774" d="M166 0V1350H680V1253H282V752H607V658H282V97H686V0H166ZM192 1517V1601H650V1517H192Z" />
<glyph unicode="&#x113;" glyph-name="emacron" horiz-adv-x="830" d="M204 490V468Q204 365 220 291T268 169T345 99T448 76Q479 76 507 79T564 90T622 108T684 136L708 66Q639 28 569 7T420 -14Q343 -14 283 13T180 99T115 248T92 464Q92 613 120 718T197 884T304
973T428 1000Q476 1000 516 987T588 948T645 880T685 782T706 652T708 490H204ZM600 568V574Q600 653 589 716T555 823T497 892T414 916Q366 916 328 889T264 814T224 703T206 568H600ZM215 1197V1283H633V1197H215Z" />
<glyph unicode="&#x114;" glyph-name="Ebreve" horiz-adv-x="774" d="M166 0V1350H680V1253H282V752H607V658H282V97H686V0H166ZM634 1698Q634 1645 620 1600T578 1521T509 1470T415 1451Q361 1451 320 1469T250 1521T208 1599T193 1698H265Q265 1662 275 1633T305
1582T353 1550T415 1539Q449 1539 476 1550T523 1581T553 1631T563 1698H634Z" />
<glyph unicode="&#x115;" glyph-name="ebreve" horiz-adv-x="830" d="M204 490V468Q204 365 220 291T268 169T345 99T448 76Q479 76 507 79T564 90T622 108T684 136L708 66Q639 28 569 7T420 -14Q343 -14 283 13T180 99T115 248T92 464Q92 613 120 718T197 884T304
973T428 1000Q476 1000 516 987T588 948T645 880T685 782T706 652T708 490H204ZM600 568V574Q600 653 589 716T555 823T497 892T414 916Q366 916 328 889T264 814T224 703T206 568H600ZM638 1405Q638 1340 624 1290T581 1205T511 1152T415 1134Q361 1134 321 1152T252
1204T211 1289T197 1405H269Q269 1361 278 1328T307 1271T354 1236T417 1224Q453 1224 481 1235T527 1269T556 1326T566 1405H638Z" />
<glyph unicode="&#x116;" glyph-name="Edotaccent" horiz-adv-x="774" d="M166 0V1350H680V1253H282V752H607V658H282V97H686V0H166ZM494 1555Q494 1534 492 1521T481 1500T460 1490T425 1487Q404 1487 391 1489T370 1498T360 1519T357 1553Q357 1575 359 1588T370
1609T391 1619T426 1622Q446 1622 459 1620T481 1610T491 1590T494 1555V1555Z" />
<glyph unicode="&#x117;" glyph-name="edotaccent" horiz-adv-x="830" d="M204 490V468Q204 365 220 291T268 169T345 99T448 76Q479 76 507 79T564 90T622 108T684 136L708 66Q639 28 569 7T420 -14Q343 -14 283 13T180 99T115 248T92 464Q92 613 120 718T197
884T304 973T428 1000Q476 1000 516 987T588 948T645 880T685 782T706 652T708 490H204ZM600 568V574Q600 653 589 716T555 823T497 892T414 916Q366 916 328 889T264 814T224 703T206 568H600ZM488 1248Q488 1226 486 1213T475 1191T454 1180T418 1177Q396 1177
383 1179T362 1190T352 1211T349 1248Q349 1269 351 1282T361 1304T382 1315T418 1318Q440 1318 453 1316T475 1306T485 1284T488 1248V1248Z" />
<glyph unicode="&#x118;" glyph-name="Eogonek" horiz-adv-x="774" d="M686 0Q647 -26 621 -52T578 -103T555 -153T548 -201Q548 -239 566 -255T624 -272Q642 -272 664 -268T710 -256L727 -315Q712 -324 696 -331T663 -342T629 -349T595 -352Q561 -352 533 -344T485
-321T454 -280T443 -221Q443 -193 451 -164T475 -107T516 -51T572 0H166V1350H680V1253H282V752H607V658H282V97H686V0Z" />
<glyph unicode="&#x119;" glyph-name="eogonek" horiz-adv-x="830" d="M706 70Q664 35 632 0T579 -69T547 -136T536 -200Q536 -238 554 -255T612 -272Q629 -272 652 -268T698 -256L714 -314Q699 -324 683 -331T651 -342T617 -349T582 -352Q548 -352 520 -344T472
-320T441 -280T430 -222Q430 -163 462 -103T562 12Q531 0 495 -7T420 -14Q343 -14 283 13T180 99T115 248T92 464Q92 613 120 718T197 884T304 973T428 1000Q476 1000 516 987T588 948T645 880T685 782T706 652T708 490H204V468Q204 365 220 291T268 169T345 99T448
76Q479 76 507 79T564 90T622 108T684 136L706 70ZM600 568V574Q600 653 589 716T555 823T497 892T414 916Q366 916 328 889T264 814T224 703T206 568H600Z" />
<glyph unicode="&#x11a;" glyph-name="Ecaron" horiz-adv-x="774" d="M166 0V1350H680V1253H282V752H607V658H282V97H686V0H166ZM188 1646L223 1705L427 1576L629 1705L663 1648L425 1465L188 1646Z" />
<glyph unicode="&#x11b;" glyph-name="ecaron" horiz-adv-x="830" d="M204 490V468Q204 365 220 291T268 169T345 99T448 76Q479 76 507 79T564 90T622 108T684 136L708 66Q639 28 569 7T420 -14Q343 -14 283 13T180 99T115 248T92 464Q92 613 120 718T197 884T304
973T428 1000Q476 1000 516 987T588 948T645 880T685 782T706 652T708 490H204ZM600 568V574Q600 653 589 716T555 823T497 892T414 916Q366 916 328 889T264 814T224 703T206 568H600ZM423 1132L203 1392L250 1439L425 1260L600 1439L646 1394L423 1132Z" />
<glyph unicode="&#x11c;" glyph-name="Gcircumflex" horiz-adv-x="930" d="M804 124Q776 93 743 68T670 24T586 -4T490 -14Q402 -14 329 27T204 151T123 362T94 664Q94 850 130 983T224 1200T357 1324T507 1364Q549 1364 589 1352T666 1320T734 1274T790 1217L737
1158Q712 1183 685 1204T629 1239T570 1261T508 1269Q442 1269 387 1230T293 1117T233 935T211 691Q211 535 232 421T292 231T385 120T508 83Q539 83 566 88T617 103T659 125T691 151V621H516V709H804V124ZM749 1524L713 1465L509 1594L307 1465L274 1522L512 1705L749
1524Z" />
<glyph unicode="&#x11d;" glyph-name="gcircumflex" horiz-adv-x="880" d="M726 28Q726 -48 716 -106T687 -207T641 -277T578 -322T502 -345T412 -352Q382 -352 349 -349T283 -339T218 -323T156 -302L168 -230Q242 -244 300 -251T404 -258Q460 -258 499 -245T565
-204T603 -128T616 -10V120Q550 61 491 31T374 0Q312 0 260 34T170 131T112 278T92 462Q92 599 123 701T209 869T339 966T502 998Q530 998 559 996T618 991T675 982T726 972V28ZM616 896Q600 900 583 903T547 909T511 913T476 914Q419 914 370 887T284 807T227
674T206 492Q206 406 220 332T260 204T324 120T406 90Q425 90 449 98T500 122T557 162T616 216V896ZM630 1131L456 1310L281 1132L235 1176L458 1438L678 1178L630 1131Z" />
<glyph unicode="&#x11e;" glyph-name="Gbreve" horiz-adv-x="930" d="M804 124Q776 93 743 68T670 24T586 -4T490 -14Q402 -14 329 27T204 151T123 362T94 664Q94 850 130 983T224 1200T357 1324T507 1364Q549 1364 589 1352T666 1320T734 1274T790 1217L737 1158Q712
1183 685 1204T629 1239T570 1261T508 1269Q442 1269 387 1230T293 1117T233 935T211 691Q211 535 232 421T292 231T385 120T508 83Q539 83 566 88T617 103T659 125T691 151V621H516V709H804V124ZM726 1698Q726 1645 712 1600T670 1521T601 1470T507 1451Q453 1451
412 1469T342 1521T300 1599T285 1698H357Q357 1662 367 1633T397 1582T445 1550T507 1539Q541 1539 568 1550T615 1581T645 1631T655 1698H726Z" />
<glyph unicode="&#x11f;" glyph-name="gbreve" horiz-adv-x="880" d="M726 28Q726 -48 716 -106T687 -207T641 -277T578 -322T502 -345T412 -352Q382 -352 349 -349T283 -339T218 -323T156 -302L168 -230Q242 -244 300 -251T404 -258Q460 -258 499 -245T565 -204T603
-128T616 -10V120Q550 61 491 31T374 0Q312 0 260 34T170 131T112 278T92 462Q92 599 123 701T209 869T339 966T502 998Q530 998 559 996T618 991T675 982T726 972V28ZM616 896Q600 900 583 903T547 909T511 913T476 914Q419 914 370 887T284 807T227 674T206 492Q206
406 220 332T260 204T324 120T406 90Q425 90 449 98T500 122T557 162T616 216V896ZM685 1405Q685 1340 671 1290T628 1205T558 1152T462 1134Q408 1134 368 1152T299 1204T258 1289T244 1405H316Q316 1361 325 1328T354 1271T401 1236T464 1224Q500 1224 528 1235T574
1269T603 1326T613 1405H685Z" />
<glyph unicode="&#x120;" glyph-name="Gdotaccent" horiz-adv-x="930" d="M804 124Q776 93 743 68T670 24T586 -4T490 -14Q402 -14 329 27T204 151T123 362T94 664Q94 850 130 983T224 1200T357 1324T507 1364Q549 1364 589 1352T666 1320T734 1274T790 1217L737
1158Q712 1183 685 1204T629 1239T570 1261T508 1269Q442 1269 387 1230T293 1117T233 935T211 691Q211 535 232 421T292 231T385 120T508 83Q539 83 566 88T617 103T659 125T691 151V621H516V709H804V124ZM579 1557Q579 1536 577 1523T566 1502T545 1492T510 1489Q489
1489 476 1491T455 1500T445 1521T442 1555Q442 1577 444 1590T455 1611T476 1621T511 1624Q531 1624 544 1622T566 1612T576 1592T579 1557V1557Z" />
<glyph unicode="&#x121;" glyph-name="gdotaccent" horiz-adv-x="880" d="M726 28Q726 -48 716 -106T687 -207T641 -277T578 -322T502 -345T412 -352Q382 -352 349 -349T283 -339T218 -323T156 -302L168 -230Q242 -244 300 -251T404 -258Q460 -258 499 -245T565
-204T603 -128T616 -10V120Q550 61 491 31T374 0Q312 0 260 34T170 131T112 278T92 462Q92 599 123 701T209 869T339 966T502 998Q530 998 559 996T618 991T675 982T726 972V28ZM616 896Q600 900 583 903T547 909T511 913T476 914Q419 914 370 887T284 807T227
674T206 492Q206 406 220 332T260 204T324 120T406 90Q425 90 449 98T500 122T557 162T616 216V896ZM523 1248Q523 1226 521 1213T510 1191T489 1180T453 1177Q431 1177 418 1179T397 1190T387 1211T384 1248Q384 1269 386 1282T396 1304T417 1315T453 1318Q475
1318 488 1316T510 1306T520 1284T523 1248V1248Z" />
<glyph unicode="&#x122;" glyph-name="Gcommaaccent" horiz-adv-x="930" d="M804 124Q776 93 743 68T670 24T586 -4T490 -14Q402 -14 329 27T204 151T123 362T94 664Q94 850 130 983T224 1200T357 1324T507 1364Q549 1364 589 1352T666 1320T734 1274T790 1217L737
1158Q712 1183 685 1204T629 1239T570 1261T508 1269Q442 1269 387 1230T293 1117T233 935T211 691Q211 535 232 421T292 231T385 120T508 83Q539 83 566 88T617 103T659 125T691 151V621H516V709H804V124ZM505 -80Q523 -80 535 -84T555 -95T566 -114T570 -144Q570
-182 558 -214T522 -271T467 -317T398 -354L369 -307Q416 -279 439 -253T462 -203Q462 -193 459 -188T451 -178T444 -164T441 -140Q441 -125 445 -114T456 -95T476 -84T505 -80V-80Z" />
<glyph unicode="&#x123;" glyph-name="gcommaaccent" horiz-adv-x="880" d="M726 28Q726 -48 716 -106T687 -207T641 -277T578 -322T502 -345T412 -352Q382 -352 349 -349T283 -339T218 -323T156 -302L168 -230Q242 -244 300 -251T404 -258Q460 -258 499 -245T565
-204T603 -128T616 -10V120Q550 61 491 31T374 0Q312 0 260 34T170 131T112 278T92 462Q92 599 123 701T209 869T339 966T502 998Q530 998 559 996T618 991T675 982T726 972V28ZM616 896Q600 900 583 903T547 909T511 913T476 914Q419 914 370 887T284 807T227
674T206 492Q206 406 220 332T260 204T324 120T406 90Q425 90 449 98T500 122T557 162T616 216V896ZM590 1386Q571 1370 557 1355T533 1324T518 1293T513 1261Q513 1251 516 1246T524 1235T533 1218T537 1189Q537 1173 534 1161T523 1142T503 1132T473 1128Q454
1128 442 1131T422 1142T412 1162T409 1193Q409 1227 417 1257T443 1316T488 1372T553 1427L590 1386Z" />
<glyph unicode="&#x124;" glyph-name="Hcircumflex" horiz-adv-x="1050" d="M768 0V662H282V0H166V1350H282V761H768V1350H884V0H768ZM762 1524L726 1465L522 1594L320 1465L287 1522L525 1705L762 1524Z" />
<glyph unicode="&#x125;" glyph-name="hcircumflex" horiz-adv-x="917" d="M656 0Q656 56 656 119T658 276T659 427T660 534Q660 633 649 704T615 820T561 886T486 908Q461 908 434 899T378 872T321 831T264 778V0H154V1418H264V872Q289 896 317 918T377 959T446
989T518 1000Q578 1000 624 977T704 904T754 770T772 568Q772 521 772 465T770 306T767 133T766 0H656ZM713 1561L677 1502L473 1631L271 1502L238 1559L476 1742L713 1561Z" />
<glyph unicode="&#x126;" glyph-name="Hbar" horiz-adv-x="1054" d="M770 0V658H284V0H168V1037H56V1121H168V1350H284V1121H770V1350H886V1121H999V1037H886V0H770ZM770 754V1037H284V754H770Z" />
<glyph unicode="&#x127;" glyph-name="hbar" horiz-adv-x="917" d="M656 0Q656 63 656 133T658 274T659 410T660 533Q660 633 649 704T615 821T560 887T486 909Q460 909 433 899T378 872T321 830T264 777V0H155V1176H11V1258H155V1422H264V1258H500V1176H264V872Q286
893 314 916T375 957T444 987T518 999Q576 999 622 977T702 905T753 772T771 568Q771 514 770 445T768 301T766 148T765 0H656Z" />
<glyph unicode="&#x128;" glyph-name="Itilde" horiz-adv-x="448" d="M166 0V1350H282V0H166ZM510 1630Q490 1592 471 1563T431 1515T384 1485T327 1475Q285 1475 256 1493T204 1532T159 1572T112 1590Q98 1590 85 1585T58 1566T27 1532T-9 1481L-59 1518Q-41
1556 -22 1585T20 1633T67 1663T123 1673Q165 1673 194 1655T247 1615T292 1576T339 1558Q352 1558 365 1563T393 1582T423 1616T459 1667L510 1630Z" />
<glyph unicode="&#x129;" glyph-name="itilde" horiz-adv-x="418" d="M155 0V987H264V0H155ZM488 1326Q469 1288 451 1259T412 1211T367 1181T312 1171Q271 1171 242 1189T189 1228T144 1268T97 1286Q84 1286 72 1281T46 1262T18 1228T-18 1177L-67 1214Q-49 1252
-31 1281T8 1329T53 1359T109 1369Q150 1369 179 1351T232 1311T276 1272T323 1254Q337 1254 349 1259T375 1278T403 1312T438 1363L488 1326Z" />
<glyph unicode="&#x12a;" glyph-name="Imacron" horiz-adv-x="448" d="M166 0V1350H282V0H166ZM253 1517V1601H711V1517H253Z" />
<glyph unicode="&#x12b;" glyph-name="imacron" horiz-adv-x="418" d="M155 0V987H264V0H155ZM259 1197V1283H677V1197H259Z" />
<glyph unicode="&#x12c;" glyph-name="Ibreve" horiz-adv-x="448" d="M166 0V1350H282V0H166ZM702 1698Q702 1645 688 1600T646 1521T577 1470T483 1451Q429 1451 388 1469T318 1521T276 1599T261 1698H333Q333 1662 343 1633T373 1582T421 1550T483 1539Q517
1539 544 1550T591 1581T621 1631T631 1698H702Z" />
<glyph unicode="&#x12d;" glyph-name="ibreve" horiz-adv-x="418" d="M155 0V987H264V0H155ZM687 1405Q687 1340 673 1290T630 1205T560 1152T464 1134Q410 1134 370 1152T301 1204T260 1289T246 1405H318Q318 1361 327 1328T356 1271T403 1236T466 1224Q502 1224
530 1235T576 1269T605 1326T615 1405H687Z" />
<glyph unicode="&#x12e;" glyph-name="Iogonek" horiz-adv-x="448" d="M166 1350H282V0Q257 -18 236 -43T201 -95T180 -150T172 -201Q172 -239 190 -255T248 -272Q265 -272 288 -268T334 -256L351 -315Q336 -324 320 -331T286 -342T253 -349T218 -352Q184 -352
156 -344T109 -321T78 -280T67 -221Q67 -164 93 -109T166 0V1350Z" />
<glyph unicode="&#x12f;" glyph-name="iogonek" horiz-adv-x="418" d="M278 1246Q278 1223 276 1210T266 1190T246 1179T210 1176Q187 1176 174 1178T154 1188T143 1209T140 1246Q140 1269 143 1282T153 1302T174 1313T210 1316Q233 1316 246 1314T266 1304T275
1283T278 1246ZM154 986H264V0Q241 -18 222 -43T189 -96T168 -151T160 -200Q160 -238 179 -255T236 -272Q254 -272 277 -268T322 -256L340 -314Q324 -324 308 -331T276 -342T242 -349T208 -352Q174 -352 146 -344T98 -320T67 -280T56 -222Q56 -167 81 -112T154
0V986Z" />
<glyph unicode="&#x130;" glyph-name="Idotaccent" horiz-adv-x="448" d="M166 0V1350H282V0H166ZM293 1555Q293 1534 291 1521T280 1500T259 1490T224 1487Q203 1487 190 1489T169 1498T159 1519T156 1553Q156 1575 158 1588T169 1609T190 1619T225 1622Q245
1622 258 1620T280 1610T290 1590T293 1555V1555Z" />
<glyph unicode="&#x131;" glyph-name="dotlessi" horiz-adv-x="418" d="M155 0V987H264V0H155Z" />
<glyph unicode="&#x132;" glyph-name="IJ" horiz-adv-x="900" d="M166 0V1350H282V0H166ZM734 136Q734 56 728 -11T706 -137T661 -247T587 -347L526 -300Q554 -263 572 -218T600 -120T613 -5T617 129V1350H734V136Z" />
<glyph unicode="&#x133;" glyph-name="ij" horiz-adv-x="837" d="M278 1246Q278 1223 276 1210T266 1190T246 1179T210 1176Q187 1176 174 1178T154 1188T143 1209T140 1246Q140 1269 143 1282T153 1302T174 1313T210 1316Q233 1316 246 1314T266 1304T275 1283T278
1246ZM154 0V986H264V0H154ZM682 74Q682 0 674 -59T647 -169T598 -264T522 -352L456 -308Q509 -246 540 -158T572 34V944V986H682V74ZM696 1246Q696 1223 694 1210T684 1190T664 1179T628 1176Q605 1176 592 1178T572 1188T561 1209T558 1246Q558 1269 561 1282T571
1302T592 1313T628 1316Q651 1316 664 1314T684 1304T693 1283T696 1246Z" />
<glyph unicode="&#x134;" glyph-name="Jcircumflex" horiz-adv-x="452" d="M286 136Q286 56 280 -11T258 -137T213 -247T139 -347L78 -300Q106 -263 124 -218T152 -120T165 -5T169 129V1350H286V136ZM723 1524L687 1465L483 1594L281 1465L248 1522L486 1705L723 1524Z" />
<glyph unicode="&#x135;" glyph-name="jcircumflex" horiz-adv-x="418" d="M264 74Q264 0 256 -59T229 -169T180 -264T104 -352L38 -308Q91 -246 122 -158T154 34V986H264V74ZM641 1131L467 1310L292 1132L246 1176L469 1438L689 1178L641 1131Z" />
<glyph unicode="&#x136;" glyph-name="Kcommaaccent" horiz-adv-x="828" d="M671 0L282 694H280V0H166V1350H280V726H282L644 1350H778L390 730L808 0H671ZM457 -80Q475 -80 487 -84T507 -95T518 -114T522 -144Q522 -182 510 -214T474 -271T419 -317T350 -354L321
-307Q368 -279 391 -253T414 -203Q414 -193 411 -188T403 -178T396 -164T393 -140Q393 -125 397 -114T408 -95T428 -84T457 -80V-80Z" />
<glyph unicode="&#x137;" glyph-name="kcommaaccent" horiz-adv-x="712" d="M592 0L266 540H264V0H154V1418H264V600H266L536 986H672L354 588L726 0H592ZM420 -80Q438 -80 450 -84T470 -95T481 -114T485 -144Q485 -182 473 -214T437 -271T382 -317T313 -354L284
-307Q331 -279 354 -253T377 -203Q377 -193 374 -188T366 -178T359 -164T356 -140Q356 -125 360 -114T371 -95T391 -84T420 -80V-80Z" />
<glyph unicode="&#x138;" glyph-name="kgreenlandic" horiz-adv-x="712" d="M581 0L264 503V503V0H155V987H264V563V563L543 987H679L354 551L716 0H581Z" />
<glyph unicode="&#x139;" glyph-name="Lacute" horiz-adv-x="662" d="M166 0V1350H282V97H650V0H166ZM490 1704L549 1614L241 1464L204 1522L490 1704Z" />
<glyph unicode="&#x13a;" glyph-name="lacute" horiz-adv-x="447" d="M390 2Q379 -1 366 -3T339 -8T312 -11T288 -12Q250 -12 225 -4T185 24T162 83T154 182V1418H264V224Q264 176 267 148T277 104T297 82T332 76Q346 76 360 76T388 76L390 2ZM455 1708L514 1618L206
1468L169 1526L455 1708Z" />
<glyph unicode="&#x13b;" glyph-name="Lcommaaccent" horiz-adv-x="662" d="M166 0V1350H282V97H650V0H166ZM417 -80Q435 -80 447 -84T467 -95T478 -114T482 -144Q482 -182 470 -214T434 -271T379 -317T310 -354L281 -307Q328 -279 351 -253T374 -203Q374 -193
371 -188T363 -178T356 -164T353 -140Q353 -125 357 -114T368 -95T388 -84T417 -80V-80Z" />
<glyph unicode="&#x13c;" glyph-name="lcommaaccent" horiz-adv-x="447" d="M390 2Q379 -1 366 -3T339 -8T312 -11T288 -12Q250 -12 225 -4T185 24T162 83T154 182V1418H264V224Q264 176 267 148T277 104T297 82T332 76Q346 76 360 76T388 76L390 2ZM293 -80Q311
-80 323 -84T343 -95T354 -114T358 -144Q358 -182 346 -214T310 -271T255 -317T186 -354L157 -307Q204 -279 227 -253T250 -203Q250 -193 247 -188T239 -178T232 -164T229 -140Q229 -125 233 -114T244 -95T264 -84T293 -80V-80Z" />
<glyph unicode="&#x13d;" glyph-name="Lcaron" horiz-adv-x="710" d="M166 0V1350H282V97H650V0H166ZM510 1182L445 1192L517 1528L617 1508L510 1182Z" />
<glyph unicode="&#x13e;" glyph-name="lcaron" horiz-adv-x="476" d="M390 2Q379 -1 366 -3T339 -8T312 -11T288 -12Q250 -12 225 -4T185 24T162 83T154 182V1418H264V224Q264 176 267 148T277 104T297 82T332 76Q346 76 360 76T388 76L390 2ZM398 1135L333 1145L405
1481L505 1461L398 1135Z" />
<glyph unicode="&#x13f;" glyph-name="Ldot" horiz-adv-x="803" d="M166 0V1350H282V97H650V0H166ZM722 697Q722 673 719 658T707 633T683 621T645 617Q622 617 607 620T584 633T573 657T569 695Q569 718 572 734T584 758T608 771T647 775Q670 775 684 772T707
759T719 735T722 697V697Z" />
<glyph unicode="&#x140;" glyph-name="ldot" horiz-adv-x="615" d="M390 2Q379 -1 366 -3T339 -8T312 -11T288 -12Q250 -12 225 -4T185 24T162 83T154 182V1418H264V224Q264 176 267 148T277 104T297 82T332 76Q346 76 360 76T388 76L390 2ZM589 597Q589 573 586
558T574 533T550 521T512 517Q489 517 474 520T451 533T440 557T436 595Q436 618 439 634T451 658T475 671T514 675Q537 675 551 672T574 659T586 635T589 597V597Z" />
<glyph unicode="&#x141;" glyph-name="Lslash" horiz-adv-x="682" d="M515 974V880L302 745V97H670V0H186V673L43 582V675L186 766V1350H302V839L515 974Z" />
<glyph unicode="&#x142;" glyph-name="lslash" horiz-adv-x="454" d="M398 2Q387 -1 374 -3T347 -8T320 -11T296 -12Q258 -12 233 -4T193 24T170 83T162 182V682L30 598V690L162 776V1418H272V846L404 932V838L272 752V224Q272 176 275 148T285 104T305 82T340
76Q354 76 368 76T396 76L398 2Z" />
<glyph unicode="&#x143;" glyph-name="Nacute" horiz-adv-x="1072" d="M789 0L410 873Q381 941 355 1002T308 1112Q284 1168 264 1218H262Q264 1171 265 1118Q266 1072 267 1014T268 893V0H166V1350H328L661 586Q688 525 714 463T761 351Q785 292 808 239H810Q808
290 807 345Q806 392 805 449T804 562V1350H906V0H789ZM773 1704L832 1614L524 1464L487 1522L773 1704Z" />
<glyph unicode="&#x144;" glyph-name="nacute" horiz-adv-x="917" d="M656 0Q656 56 656 119T658 276T659 427T660 534Q660 633 649 704T615 820T561 886T486 908Q461 908 434 899T378 872T321 831T264 778V0H154V986H246L254 864Q282 891 311 914T374 957T444
988T518 1000Q578 1000 624 977T704 904T754 770T772 568Q772 521 772 465T770 306T767 133T766 0H656ZM455 1129L403 1170L618 1435L701 1367L455 1129Z" />
<glyph unicode="&#x145;" glyph-name="Ncommaaccent" horiz-adv-x="1072" d="M789 0L410 873Q381 941 355 1002T308 1112Q284 1168 264 1218H262Q264 1171 265 1118Q266 1072 267 1014T268 893V0H166V1350H328L661 586Q688 525 714 463T761 351Q785 292 808 239H810Q808
290 807 345Q806 392 805 449T804 562V1350H906V0H789ZM531 -80Q549 -80 561 -84T581 -95T592 -114T596 -144Q596 -182 584 -214T548 -271T493 -317T424 -354L395 -307Q442 -279 465 -253T488 -203Q488 -193 485 -188T477 -178T470 -164T467 -140Q467 -125 471
-114T482 -95T502 -84T531 -80V-80Z" />
<glyph unicode="&#x146;" glyph-name="ncommaaccent" horiz-adv-x="917" d="M656 0Q656 56 656 119T658 276T659 427T660 534Q660 633 649 704T615 820T561 886T486 908Q461 908 434 899T378 872T321 831T264 778V0H154V986H246L254 864Q282 891 311 914T374 957T444
988T518 1000Q578 1000 624 977T704 904T754 770T772 568Q772 521 772 465T770 306T767 133T766 0H656ZM458 -80Q476 -80 488 -84T508 -95T519 -114T523 -144Q523 -182 511 -214T475 -271T420 -317T351 -354L322 -307Q369 -279 392 -253T415 -203Q415 -193 412
-188T404 -178T397 -164T394 -140Q394 -125 398 -114T409 -95T429 -84T458 -80V-80Z" />
<glyph unicode="&#x147;" glyph-name="Ncaron" horiz-adv-x="1072" d="M789 0L410 873Q381 941 355 1002T308 1112Q284 1168 264 1218H262Q264 1171 265 1118Q266 1072 267 1014T268 893V0H166V1350H328L661 586Q688 525 714 463T761 351Q785 292 808 239H810Q808
290 807 345Q806 392 805 449T804 562V1350H906V0H789ZM307 1646L342 1705L546 1576L748 1705L782 1648L544 1465L307 1646Z" />
<glyph unicode="&#x148;" glyph-name="ncaron" horiz-adv-x="917" d="M656 0Q656 56 656 119T658 276T659 427T660 534Q660 633 649 704T615 820T561 886T486 908Q461 908 434 899T378 872T321 831T264 778V0H154V986H246L254 864Q282 891 311 914T374 957T444
988T518 1000Q578 1000 624 977T704 904T754 770T772 568Q772 521 772 465T770 306T767 133T766 0H656ZM461 1132L241 1392L288 1439L463 1260L638 1439L684 1394L461 1132Z" />
<glyph unicode="&#x149;" glyph-name="napostrophe" horiz-adv-x="957" d="M283 1135Q306 1150 323 1164T350 1191T365 1216T371 1241Q371 1252 367 1258T359 1270T351 1285T348 1312Q348 1328 351 1339T363 1358T383 1369T412 1373Q429 1373 441 1370T461 1359T472
1340T476 1309Q476 1272 465 1241T432 1182T381 1132T318 1089L283 1135ZM696 0Q696 56 696 119T698 276T699 427T700 534Q700 633 689 704T655 820T601 886T526 908Q501 908 474 899T418 872T361 831T304 778V0H194V986H286L294 864Q322 891 351 914T414 957T484
988T558 1000Q618 1000 664 977T744 904T794 770T812 568Q812 521 812 465T810 306T807 133T806 0H696Z" />
<glyph unicode="&#x14a;" glyph-name="Eng" horiz-adv-x="1072" d="M906 130Q906 50 902 -17T884 -144T844 -254T773 -353L710 -308Q732 -280 747 -247T773 -176T788 -93T794 0H785L408 873Q379 941 353 1002T307 1112Q283 1168 264 1218H262Q264 1171 265 1118Q266
1072 267 1014T268 893V0H166V1350H328L661 583Q688 523 713 461T760 349Q784 289 808 234H810Q808 285 807 341Q806 388 805 446T804 562V1350H906V130Z" />
<glyph unicode="&#x14b;" glyph-name="eng" horiz-adv-x="916" d="M544 -308Q597 -246 628 -158T660 34V534Q660 633 649 704T615 820T561 886T486 908Q461 908 434 899T378 872T321 831T264 778V0H154V986H246L254 864Q282 891 311 914T374 957T444 988T518 1000Q578
1000 624 977T702 904T752 770T770 568V74Q770 0 762 -59T734 -169T685 -264T610 -352L544 -308Z" />
<glyph unicode="&#x14c;" glyph-name="Omacron" horiz-adv-x="1048" d="M954 692Q954 564 939 462T894 282T825 148T736 56T631 3T514 -14Q420 -14 343 24T210 143T125 351T94 658Q94 786 109 887T154 1067T223 1202T312 1294T417 1347T534 1364Q628 1364 705
1326T838 1207T923 999T954 692V692ZM836 658Q836 813 815 927T755 1117T655 1230T518 1267Q450 1267 394 1232T297 1126T235 947T212 692Q212 588 221 503T248 350T293 232T356 149T434 99T530 83Q598 83 654 118T751 224T813 403T836 658V658ZM296 1517V1601H754V1517H296Z"
/>
<glyph unicode="&#x14d;" glyph-name="omacron" horiz-adv-x="880" d="M788 518Q788 417 774 337T735 197T675 98T600 33T515 -3T422 -14Q347 -14 287 13T183 98T116 248T92 466Q92 568 106 648T145 788T205 888T280 953T365 989T458 1000Q533 1000 593 973T697
887T764 737T788 518ZM676 486Q676 594 662 674T618 807T545 886T440 912Q383 912 340 887T266 811T220 682T204 498Q204 390 218 310T262 178T335 100T440 74Q497 74 540 99T614 175T660 303T676 486ZM232 1197V1283H650V1197H232Z" />
<glyph unicode="&#x14e;" glyph-name="Obreve" horiz-adv-x="1048" d="M954 692Q954 564 939 462T894 282T825 148T736 56T631 3T514 -14Q420 -14 343 24T210 143T125 351T94 658Q94 786 109 887T154 1067T223 1202T312 1294T417 1347T534 1364Q628 1364 705 1326T838
1207T923 999T954 692V692ZM836 658Q836 813 815 927T755 1117T655 1230T518 1267Q450 1267 394 1232T297 1126T235 947T212 692Q212 588 221 503T248 350T293 232T356 149T434 99T530 83Q598 83 654 118T751 224T813 403T836 658V658ZM745 1698Q745 1645 731 1600T689
1521T620 1470T526 1451Q472 1451 431 1469T361 1521T319 1599T304 1698H376Q376 1662 386 1633T416 1582T464 1550T526 1539Q560 1539 587 1550T634 1581T664 1631T674 1698H745Z" />
<glyph unicode="&#x14f;" glyph-name="obreve" horiz-adv-x="880" d="M788 518Q788 417 774 337T735 197T675 98T600 33T515 -3T422 -14Q347 -14 287 13T183 98T116 248T92 466Q92 568 106 648T145 788T205 888T280 953T365 989T458 1000Q533 1000 593 973T697
887T764 737T788 518ZM676 486Q676 594 662 674T618 807T545 886T440 912Q383 912 340 887T266 811T220 682T204 498Q204 390 218 310T262 178T335 100T440 74Q497 74 540 99T614 175T660 303T676 486ZM660 1405Q660 1340 646 1290T603 1205T533 1152T437 1134Q383
1134 343 1152T274 1204T233 1289T219 1405H291Q291 1361 300 1328T329 1271T376 1236T439 1224Q475 1224 503 1235T549 1269T578 1326T588 1405H660Z" />
<glyph unicode="&#x150;" glyph-name="Ohungarumlaut" horiz-adv-x="1048" d="M954 692Q954 564 939 462T894 282T825 148T736 56T631 3T514 -14Q420 -14 343 24T210 143T125 351T94 658Q94 786 109 887T154 1067T223 1202T312 1294T417 1347T534 1364Q628 1364
705 1326T838 1207T923 999T954 692V692ZM836 658Q836 813 815 927T755 1117T655 1230T518 1267Q450 1267 394 1232T297 1126T235 947T212 692Q212 588 221 503T248 350T293 232T356 149T434 99T530 83Q598 83 654 118T751 224T813 403T836 658V658ZM672 1456L635
1504L931 1700L996 1625L672 1456ZM331 1453L290 1496L542 1699L610 1632L331 1453Z" />
<glyph unicode="&#x151;" glyph-name="ohungarumlaut" horiz-adv-x="880" d="M788 518Q788 417 774 337T735 197T675 98T600 33T515 -3T422 -14Q347 -14 287 13T183 98T116 248T92 466Q92 568 106 648T145 788T205 888T280 953T365 989T458 1000Q533 1000 593
973T697 887T764 737T788 518ZM676 486Q676 594 662 674T618 807T545 886T440 912Q383 912 340 887T266 811T220 682T204 498Q204 390 218 310T262 178T335 100T440 74Q497 74 540 99T614 175T660 303T676 486ZM568 1126L516 1167L731 1433L811 1365L568 1126ZM289
1126L237 1167L431 1433L514 1368L289 1126Z" />
<glyph unicode="&#x152;" glyph-name="OE" horiz-adv-x="1260" d="M659 0Q626 -7 587 -10T514 -14Q419 -14 342 24T210 143T125 351T94 658Q94 786 109 887T154 1067T223 1202T312 1294T417 1347T534 1364Q572 1364 610 1360T681 1350H1166V1253H756V752H1092V658H756V97H1172V0H659ZM641
1253Q611 1260 580 1263T518 1267Q450 1267 394 1232T297 1126T235 947T212 692Q212 536 233 422T293 233T392 120T530 83Q558 83 587 86T641 95V1253Z" />
<glyph unicode="&#x153;" glyph-name="oe" horiz-adv-x="1414" d="M1292 66Q1223 28 1153 7T1004 -14Q947 -14 901 1T820 47T761 119T722 216Q707 162 679 119T613 47T526 2T422 -14Q347 -14 287 13T183 98T116 248T92 466Q92 568 106 648T145 788T205 888T280
953T365 989T458 1000Q510 1000 554 986T635 942T697 871T740 774Q753 825 779 866T840 938T919 984T1012 1000Q1060 1000 1100 987T1172 948T1229 880T1269 782T1290 652T1292 490H786V468Q786 365 803 291T851 169T928 99T1032 76Q1063 76 1091 79T1148 90T1206
108T1268 136L1292 66ZM1184 568V574Q1184 653 1173 716T1139 823T1081 892T998 916Q950 916 912 889T848 814T806 703T788 568H1184ZM676 486Q676 594 662 674T618 807T545 886T440 912Q383 912 340 887T266 811T220 682T204 498Q204 390 218 310T262 178T335
100T440 74Q497 74 540 99T614 175T660 303T676 486Z" />
<glyph unicode="&#x154;" glyph-name="Racute" horiz-adv-x="910" d="M746 0L381 621H280V0H166V1350Q194 1350 223 1350T286 1351T357 1352T440 1353Q532 1353 602 1328T719 1258T789 1149T813 1009Q813 957 804 911T776 826T731 754T668 697T591 658T498 638L879
0H746ZM280 715H439Q499 715 546 733T626 787T676 873T693 991Q693 1054 678 1103T628 1187T540 1240T410 1258H280V715ZM662 1704L721 1614L413 1464L376 1522L662 1704Z" />
<glyph unicode="&#x155;" glyph-name="racute" horiz-adv-x="574" d="M526 868Q507 875 492 877T462 880Q443 880 423 869T380 836T330 778T264 688V0H154V986H246L256 802Q294 858 324 896T380 956T428 988T474 998Q488 998 505 994T538 980L526 868ZM329 1129L277
1170L492 1435L575 1367L329 1129Z" />
<glyph unicode="&#x156;" glyph-name="Rcommaaccent" horiz-adv-x="910" d="M746 0L381 621H280V0H166V1350Q194 1350 223 1350T286 1351T357 1352T440 1353Q532 1353 602 1328T719 1258T789 1149T813 1009Q813 957 804 911T776 826T731 754T668 697T591 658T498
638L879 0H746ZM280 715H439Q499 715 546 733T626 787T676 873T693 991Q693 1054 678 1103T628 1187T540 1240T410 1258H280V715ZM497 -80Q515 -80 527 -84T547 -95T558 -114T562 -144Q562 -182 550 -214T514 -271T459 -317T390 -354L361 -307Q408 -279 431 -253T454
-203Q454 -193 451 -188T443 -178T436 -164T433 -140Q433 -125 437 -114T448 -95T468 -84T497 -80V-80Z" />
<glyph unicode="&#x157;" glyph-name="rcommaaccent" horiz-adv-x="574" d="M526 868Q507 875 492 877T462 880Q443 880 423 869T380 836T330 778T264 688V0H154V986H246L256 802Q294 858 324 896T380 956T428 988T474 998Q488 998 505 994T538 980L526 868ZM469
-80Q487 -80 499 -84T519 -95T530 -114T534 -144Q534 -182 522 -214T486 -271T431 -317T362 -354L333 -307Q380 -279 403 -253T426 -203Q426 -193 423 -188T415 -178T408 -164T405 -140Q405 -125 409 -114T420 -95T440 -84T469 -80V-80Z" />
<glyph unicode="&#x158;" glyph-name="Rcaron" horiz-adv-x="910" d="M746 0L381 621H280V0H166V1350Q194 1350 223 1350T286 1351T357 1352T440 1353Q532 1353 602 1328T719 1258T789 1149T813 1009Q813 957 804 911T776 826T731 754T668 697T591 658T498 638L879
0H746ZM280 715H439Q499 715 546 733T626 787T676 873T693 991Q693 1054 678 1103T628 1187T540 1240T410 1258H280V715ZM194 1646L229 1705L433 1576L635 1705L669 1648L431 1465L194 1646Z" />
<glyph unicode="&#x159;" glyph-name="rcaron" horiz-adv-x="574" d="M526 868Q507 875 492 877T462 880Q443 880 423 869T380 836T330 778T264 688V0H154V986H246L256 802Q294 858 324 896T380 956T428 988T474 998Q488 998 505 994T538 980L526 868ZM336 1132L116
1392L163 1439L338 1260L513 1439L559 1394L336 1132Z" />
<glyph unicode="&#x15a;" glyph-name="Sacute" horiz-adv-x="816" d="M733 354Q733 284 711 218T645 100T535 17T381 -14Q289 -14 215 16T77 95L115 165Q143 147 174 132T238 106T302 89T364 83Q423 83 469 100T546 151T594 233T611 343Q611 409 589 455T531 538T448
602T352 658T257 718T174 793T115 894T93 1034Q93 1103 115 1163T179 1268T280 1338T411 1364Q448 1364 480 1358T544 1342T605 1317T668 1282L638 1212Q585 1239 532 1255T425 1271Q369 1271 329 1253T262 1204T223 1132T210 1044Q210 978 232 931T291 847T375
783T471 726T567 666T650 592T710 492T733 354V354ZM596 1704L655 1614L347 1464L310 1522L596 1704Z" />
<glyph unicode="&#x15b;" glyph-name="sacute" horiz-adv-x="669" d="M92 118Q153 95 199 85T288 74Q338 74 375 87T436 126T472 184T484 256Q484 298 468 330T424 385T372 423T292 466T203 518T141 571T97 644T80 742Q80 796 100 843T157 925T245 980T356 1000Q379
1000 403 997T450 988T497 972T544 952L524 884Q506 891 487 897T449 906T410 912T372 914Q329 914 295 902T238 868T204 815T192 750Q192 708 208 676T252 621T305 583T386 541T475 490T537 437T581 364T598 266Q598 205 578 154T520 65T426 7T302 -14Q244 -14
184 3T74 50L92 118ZM340 1129L288 1170L503 1435L586 1367L340 1129Z" />
<glyph unicode="&#x15c;" glyph-name="Scircumflex" horiz-adv-x="816" d="M733 354Q733 284 711 218T645 100T535 17T381 -14Q289 -14 215 16T77 95L115 165Q143 147 174 132T238 106T302 89T364 83Q423 83 469 100T546 151T594 233T611 343Q611 409 589 455T531
538T448 602T352 658T257 718T174 793T115 894T93 1034Q93 1103 115 1163T179 1268T280 1338T411 1364Q448 1364 480 1358T544 1342T605 1317T668 1282L638 1212Q585 1239 532 1255T425 1271Q369 1271 329 1253T262 1204T223 1132T210 1044Q210 978 232 931T291
847T375 783T471 726T567 666T650 592T710 492T733 354V354ZM649 1524L613 1465L409 1594L207 1465L174 1522L412 1705L649 1524Z" />
<glyph unicode="&#x15d;" glyph-name="scircumflex" horiz-adv-x="669" d="M92 118Q153 95 199 85T288 74Q338 74 375 87T436 126T472 184T484 256Q484 298 468 330T424 385T372 423T292 466T203 518T141 571T97 644T80 742Q80 796 100 843T157 925T245 980T356
1000Q379 1000 403 997T450 988T497 972T544 952L524 884Q506 891 487 897T449 906T410 912T372 914Q329 914 295 902T238 868T204 815T192 750Q192 708 208 676T252 621T305 583T386 541T475 490T537 437T581 364T598 266Q598 205 578 154T520 65T426 7T302 -14Q244
-14 184 3T74 50L92 118ZM505 1131L331 1310L156 1132L110 1176L333 1438L553 1178L505 1131Z" />
<glyph unicode="&#x15e;" glyph-name="Scedilla" horiz-adv-x="816" d="M733 354Q733 284 711 218T645 100T535 17T381 -14Q289 -14 215 16T77 95L115 165Q143 147 174 132T238 106T302 89T364 83Q423 83 469 100T546 151T594 233T611 343Q611 409 589 455T531
538T448 602T352 658T257 718T174 793T115 894T93 1034Q93 1103 115 1163T179 1268T280 1338T411 1364Q448 1364 480 1358T544 1342T605 1317T668 1282L638 1212Q585 1239 532 1255T425 1271Q369 1271 329 1253T262 1204T223 1132T210 1044Q210 978 232 931T291
847T375 783T471 726T567 666T650 592T710 492T733 354V354ZM459 -84Q466 -163 436 -229T340 -350L282 -309Q305 -285 321 -259T346 -205T358 -148T359 -84H459Z" />
<glyph unicode="&#x15f;" glyph-name="scedilla" horiz-adv-x="669" d="M92 118Q153 95 199 85T288 74Q338 74 375 87T436 126T472 184T484 256Q484 298 468 330T424 385T372 423T292 466T203 518T141 571T97 644T80 742Q80 796 100 843T157 925T245 980T356 1000Q379
1000 403 997T450 988T497 972T544 952L524 884Q506 891 487 897T449 906T410 912T372 914Q329 914 295 902T238 868T204 815T192 750Q192 708 208 676T252 621T305 583T386 541T475 490T537 437T581 364T598 266Q598 205 578 154T520 65T426 7T302 -14Q244 -14
184 3T74 50L92 118ZM370 -84Q377 -163 347 -229T251 -350L193 -309Q216 -285 232 -259T257 -205T269 -148T270 -84H370Z" />
<glyph unicode="&#x160;" glyph-name="Scaron" horiz-adv-x="816" d="M733 354Q733 284 711 218T645 100T535 17T381 -14Q289 -14 215 16T77 95L115 165Q143 147 174 132T238 106T302 89T364 83Q423 83 469 100T546 151T594 233T611 343Q611 409 589 455T531 538T448
602T352 658T257 718T174 793T115 894T93 1034Q93 1103 115 1163T179 1268T280 1338T411 1364Q448 1364 480 1358T544 1342T605 1317T668 1282L638 1212Q585 1239 532 1255T425 1271Q369 1271 329 1253T262 1204T223 1132T210 1044Q210 978 232 931T291 847T375
783T471 726T567 666T650 592T710 492T733 354V354ZM175 1646L210 1705L414 1576L616 1705L650 1648L412 1465L175 1646Z" />
<glyph unicode="&#x161;" glyph-name="scaron" horiz-adv-x="669" d="M92 118Q153 95 199 85T288 74Q338 74 375 87T436 126T472 184T484 256Q484 298 468 330T424 385T372 423T292 466T203 518T141 571T97 644T80 742Q80 796 100 843T157 925T245 980T356 1000Q379
1000 403 997T450 988T497 972T544 952L524 884Q506 891 487 897T449 906T410 912T372 914Q329 914 295 902T238 868T204 815T192 750Q192 708 208 676T252 621T305 583T386 541T475 490T537 437T581 364T598 266Q598 205 578 154T520 65T426 7T302 -14Q244 -14
184 3T74 50L92 118ZM339 1132L119 1392L166 1439L341 1260L516 1439L562 1394L339 1132Z" />
<glyph unicode="&#x162;" glyph-name="uni0162" horiz-adv-x="720" d="M418 1253V0H302V1253H14V1350H706V1253H418ZM360 -80Q378 -80 390 -84T410 -95T421 -114T425 -144Q425 -182 413 -214T377 -271T322 -317T253 -354L224 -307Q271 -279 294 -253T317 -203Q317
-193 314 -188T306 -178T299 -164T296 -140Q296 -125 300 -114T311 -95T331 -84T360 -80V-80Z" />
<glyph unicode="&#x163;" glyph-name="uni0163" horiz-adv-x="578" d="M516 108L532 38Q504 24 481 15T436 0T396 -9T358 -12Q305 -12 269 2T211 48T178 129T168 252V904H26V986H172Q176 1018 179 1051T185 1119T192 1189T198 1264H278V986H510V904H278V282Q278
222 282 184T299 122T332 87T386 76Q398 76 410 77T438 83T473 93T516 108ZM347 -80Q365 -80 377 -84T397 -95T408 -114T412 -144Q412 -182 400 -214T364 -271T309 -317T240 -354L211 -307Q258 -279 281 -253T304 -203Q304 -193 301 -188T293 -178T286 -164T283
-140Q283 -125 287 -114T298 -95T318 -84T347 -80V-80Z" />
<glyph unicode="&#x164;" glyph-name="Tcaron" horiz-adv-x="720" d="M418 1253V0H302V1253H14V1350H706V1253H418ZM123 1646L158 1705L362 1576L564 1705L598 1648L360 1465L123 1646Z" />
<glyph unicode="&#x165;" glyph-name="tcaron" horiz-adv-x="600" d="M516 108L532 38Q504 24 481 15T436 0T396 -9T358 -12Q305 -12 269 2T211 48T178 129T168 252V904H26V986H172Q176 1018 179 1051T185 1119T192 1189T198 1264H278V986H510V904H278V282Q278
222 282 184T299 122T332 87T386 76Q398 76 410 77T438 83T473 93T516 108ZM431 1135L366 1145L438 1481L538 1461L431 1135Z" />
<glyph unicode="&#x166;" glyph-name="Tbar" horiz-adv-x="720" d="M418 1253V735H616V640H418V0H302V640H104V735H302V1253H14V1350H706V1253H418Z" />
<glyph unicode="&#x167;" glyph-name="tbar" horiz-adv-x="578" d="M532 38Q476 11 437 0T360 -12Q307 -12 271 2T212 48T179 129T168 252V486H44V568H168V904H26V986H172Q179 1048 185 1115T198 1264H278V986H510V904H278V568H472V486H278V282Q278 223 283 185T300
122T333 87T388 76Q411 76 440 83T516 108L532 38Z" />
<glyph unicode="&#x168;" glyph-name="Utilde" horiz-adv-x="1036" d="M877 500Q877 366 852 269T780 109T664 16T508 -14Q419 -14 353 14T244 101T180 254T159 476V1350H275V495Q275 380 289 301T333 173T410 102T524 80Q580 80 625 101T702 171T749 296T766
487V1350H877V500ZM804 1630Q784 1592 765 1563T725 1515T678 1485T621 1475Q579 1475 550 1493T498 1532T453 1572T406 1590Q392 1590 379 1585T352 1566T321 1532T285 1481L235 1518Q253 1556 272 1585T314 1633T361 1663T417 1673Q459 1673 488 1655T541 1615T586
1576T633 1558Q646 1558 659 1563T687 1582T717 1616T753 1667L804 1630Z" />
<glyph unicode="&#x169;" glyph-name="utilde" horiz-adv-x="917" d="M674 0L666 122Q639 95 610 72T547 30T476 0T402 -12Q342 -12 296 10T216 83T166 217T148 420Q148 466 148 522T150 680T153 853T154 986H264Q264 930 264 868T262 712T261 561T260 454Q260
354 271 283T305 166T359 100T434 78Q459 78 486 87T542 115T598 157T656 210V986H766V0H674ZM736 1326Q717 1288 699 1259T660 1211T615 1181T560 1171Q519 1171 490 1189T437 1228T392 1268T345 1286Q332 1286 320 1281T294 1262T266 1228T230 1177L181 1214Q199
1252 217 1281T256 1329T301 1359T357 1369Q398 1369 427 1351T480 1311T524 1272T571 1254Q585 1254 597 1259T623 1278T651 1312T686 1363L736 1326Z" />
<glyph unicode="&#x16a;" glyph-name="Umacron" horiz-adv-x="1036" d="M877 500Q877 366 852 269T780 109T664 16T508 -14Q419 -14 353 14T244 101T180 254T159 476V1350H275V495Q275 380 289 301T333 173T410 102T524 80Q580 80 625 101T702 171T749 296T766
487V1350H877V500ZM292 1517V1601H750V1517H292Z" />
<glyph unicode="&#x16b;" glyph-name="umacron" horiz-adv-x="917" d="M674 0L666 122Q639 95 610 72T547 30T476 0T402 -12Q342 -12 296 10T216 83T166 217T148 420Q148 466 148 522T150 680T153 853T154 986H264Q264 930 264 868T262 712T261 561T260 454Q260
354 271 283T305 166T359 100T434 78Q459 78 486 87T542 115T598 157T656 210V986H766V0H674ZM251 1197V1283H669V1197H251Z" />
<glyph unicode="&#x16c;" glyph-name="Ubreve" horiz-adv-x="1036" d="M877 500Q877 366 852 269T780 109T664 16T508 -14Q419 -14 353 14T244 101T180 254T159 476V1350H275V495Q275 380 289 301T333 173T410 102T524 80Q580 80 625 101T702 171T749 296T766
487V1350H877V500ZM740 1698Q740 1645 726 1600T684 1521T615 1470T521 1451Q467 1451 426 1469T356 1521T314 1599T299 1698H371Q371 1662 381 1633T411 1582T459 1550T521 1539Q555 1539 582 1550T629 1581T659 1631T669 1698H740Z" />
<glyph unicode="&#x16d;" glyph-name="ubreve" horiz-adv-x="917" d="M674 0L666 122Q639 95 610 72T547 30T476 0T402 -12Q342 -12 296 10T216 83T166 217T148 420Q148 466 148 522T150 680T153 853T154 986H264Q264 930 264 868T262 712T261 561T260 454Q260
354 271 283T305 166T359 100T434 78Q459 78 486 87T542 115T598 157T656 210V986H766V0H674ZM679 1405Q679 1340 665 1290T622 1205T552 1152T456 1134Q402 1134 362 1152T293 1204T252 1289T238 1405H310Q310 1361 319 1328T348 1271T395 1236T458 1224Q494 1224
522 1235T568 1269T597 1326T607 1405H679Z" />
<glyph unicode="&#x16e;" glyph-name="Uring" horiz-adv-x="1036" d="M877 500Q877 366 852 269T780 109T664 16T508 -14Q419 -14 353 14T244 101T180 254T159 476V1350H275V495Q275 380 289 301T333 173T410 102T524 80Q580 80 625 101T702 171T749 296T766 487V1350H877V500ZM678
1563Q678 1515 664 1484T626 1434T573 1408T511 1401Q477 1401 449 1408T402 1433T371 1478T360 1545Q360 1594 374 1625T411 1674T465 1700T526 1708Q560 1708 588 1700T636 1675T667 1631T678 1563V1563ZM596 1553Q596 1601 577 1625T520 1649Q483 1649 463 1627T442
1555Q442 1531 447 1513T461 1484T485 1466T518 1460Q555 1460 575 1482T596 1553V1553Z" />
<glyph unicode="&#x16f;" glyph-name="uring" horiz-adv-x="917" d="M674 0L666 122Q639 95 610 72T547 30T476 0T402 -12Q342 -12 296 10T216 83T166 217T148 420Q148 466 148 522T150 680T153 853T154 986H264Q264 930 264 868T262 712T261 561T260 454Q260
354 271 283T305 166T359 100T434 78Q459 78 486 87T542 115T598 157T656 210V986H766V0H674ZM621 1272Q621 1220 607 1186T569 1132T516 1104T454 1095Q420 1095 392 1103T345 1131T314 1180T303 1253Q303 1304 317 1338T354 1393T408 1421T469 1430Q503 1430
531 1422T579 1394T610 1345T621 1272V1272ZM539 1260Q539 1287 534 1308T520 1342T496 1361T463 1368Q426 1368 406 1343T385 1265Q385 1238 390 1218T404 1184T428 1164T461 1157Q498 1157 518 1182T539 1260V1260Z" />
<glyph unicode="&#x170;" glyph-name="Uhungarumlaut" horiz-adv-x="1036" d="M877 500Q877 366 852 269T780 109T664 16T508 -14Q419 -14 353 14T244 101T180 254T159 476V1350H275V495Q275 380 289 301T333 173T410 102T524 80Q580 80 625 101T702 171T749 296T766
487V1350H877V500ZM651 1456L614 1504L910 1700L975 1625L651 1456ZM310 1453L269 1496L521 1699L589 1632L310 1453Z" />
<glyph unicode="&#x171;" glyph-name="uhungarumlaut" horiz-adv-x="917" d="M674 0L666 122Q639 95 610 72T547 30T476 0T402 -12Q342 -12 296 10T216 83T166 217T148 420Q148 466 148 522T150 680T153 853T154 986H264Q264 930 264 868T262 712T261 561T260
454Q260 354 271 283T305 166T359 100T434 78Q459 78 486 87T542 115T598 157T656 210V986H766V0H674ZM588 1126L536 1167L751 1433L831 1365L588 1126ZM309 1126L257 1167L451 1433L534 1368L309 1126Z" />
<glyph unicode="&#x172;" glyph-name="Uogonek" horiz-adv-x="1036" d="M751 -315Q736 -324 720 -331T686 -342T653 -349T618 -352Q584 -352 556 -344T509 -321T478 -280T467 -221Q467 -195 474 -168T495 -112T533 -57T588 -4Q570 -9 549 -11T508 -14Q419 -14
353 14T244 101T180 254T159 476V1350H275V495Q275 380 289 301T333 173T410 102T524 80Q580 80 625 101T702 171T749 296T766 487V1350H877V500Q877 427 870 364T846 247T806 150T749 73Q715 39 683 6T626 -60T587 -128T572 -201Q572 -239 590 -255T648 -272Q665
-272 688 -268T734 -256L751 -315Z" />
<glyph unicode="&#x173;" glyph-name="uogonek" horiz-adv-x="916" d="M766 0Q704 -47 673 -100T642 -200Q642 -238 661 -255T720 -272Q737 -272 760 -268T804 -256L822 -314Q806 -324 790 -331T758 -342T724 -349T690 -352Q656 -352 628 -344T580 -320T549 -280T538
-222Q538 -162 571 -102T674 10L666 122Q639 95 610 72T547 30T476 0T402 -12Q342 -12 296 10T216 83T166 217T148 420Q148 466 148 522T150 680T153 853T154 986H264Q264 930 264 868T262 712T261 561T260 454Q260 354 271 283T305 166T359 100T434 78Q459 78
486 87T542 115T598 157T656 210V986H766V0Z" />
<glyph unicode="&#x174;" glyph-name="Wcircumflex" horiz-adv-x="1429" d="M1391 1350Q1352 1158 1315 986T1240 649T1162 322T1077 0H949L745 936L710 1120H708L675 933L483 0H354Q306 170 265 329T187 649T113 980T38 1350H160Q191 1180 223 1022T288 717T354
433T424 148H426L449 288L668 1350H772L1001 294L1025 147H1027Q1060 276 1092 417T1156 711T1218 1024T1278 1350H1391ZM957 1524L921 1465L717 1594L515 1465L482 1522L720 1705L957 1524Z" />
<glyph unicode="&#x175;" glyph-name="wcircumflex" horiz-adv-x="1211" d="M1154 986Q1136 879 1111 761T1055 518T986 262T906 0H792L612 714L590 826H588L570 714L410 0H290L30 986H144L318 320L358 144H360L388 286L544 986H654L828 290L858 144H860Q890 248
916 352T966 562T1009 775T1044 986H1154ZM774 1131L600 1310L425 1132L379 1176L602 1438L822 1178L774 1131Z" />
<glyph unicode="&#x176;" glyph-name="Ycircumflex" horiz-adv-x="793" d="M795 1350Q758 1255 719 1159T637 968T550 780T455 599V0H338V599Q290 685 247 771T163 949T81 1140T-2 1350H124Q157 1257 191 1173T260 1010T333 855T410 700Q448 775 484 857T554 1022T618
1189T674 1350H795ZM638 1524L602 1465L398 1594L196 1465L163 1522L401 1705L638 1524Z" />
<glyph unicode="&#x177;" glyph-name="ycircumflex" horiz-adv-x="749" d="M708 986Q667 769 625 593T540 281T456 46T374 -123T296 -237T223 -305T157 -338T94 -348Q74 -348 50 -344T4 -332V-256Q10 -257 17 -258T32 -260T49 -261T68 -262Q108 -262 145 -245T216
-196Q234 -177 249 -153T277 -101T295 -46T302 6Q302 45 293 93T264 202L24 986H140L346 308Q353 284 360 255T372 196T379 136T378 84Q409 166 441 273T502 500T555 745T594 986H708ZM554 1131L380 1310L205 1132L159 1176L382 1438L602 1178L554 1131Z" />
<glyph unicode="&#x178;" glyph-name="Ydieresis" horiz-adv-x="793" d="M795 1350Q758 1255 719 1159T637 968T550 780T455 599V0H338V599Q290 685 247 771T163 949T81 1140T-2 1350H124Q157 1257 191 1173T260 1010T333 855T410 700Q448 775 484 857T554 1022T618
1189T674 1350H795ZM623 1556Q623 1534 620 1521T611 1501T592 1491T559 1488Q538 1488 526 1491T507 1500T498 1520T495 1554Q495 1576 497 1589T507 1609T526 1619T559 1622Q579 1622 591 1619T610 1609T620 1590T623 1556ZM301 1556Q301 1534 299 1521T290 1501T271
1491T238 1488Q218 1488 206 1491T187 1500T178 1520T175 1554Q175 1576 177 1589T187 1609T206 1619T238 1622Q259 1622 271 1619T289 1609T298 1590T301 1556Z" />
<glyph unicode="&#x179;" glyph-name="Zacute" horiz-adv-x="764" d="M69 0V86L538 1254H92L96 1350H664V1265L195 98H695L692 0H69ZM595 1704L654 1614L346 1464L309 1522L595 1704Z" />
<glyph unicode="&#x17a;" glyph-name="zacute" horiz-adv-x="692" d="M598 0H88V78L460 896H104L108 986H584V910L210 92H604L598 0ZM319 1129L267 1170L482 1435L565 1367L319 1129Z" />
<glyph unicode="&#x17b;" glyph-name="Zdotaccent" horiz-adv-x="764" d="M69 0V86L538 1254H92L96 1350H664V1265L195 98H695L692 0H69ZM451 1555Q451 1534 449 1521T438 1500T417 1490T382 1487Q361 1487 348 1489T327 1498T317 1519T314 1553Q314 1575 316
1588T327 1609T348 1619T383 1622Q403 1622 416 1620T438 1610T448 1590T451 1555V1555Z" />
<glyph unicode="&#x17c;" glyph-name="zdotaccent" horiz-adv-x="692" d="M598 0H88V78L460 896H104L108 986H584V910L210 92H604L598 0ZM416 1246Q416 1224 414 1211T403 1189T382 1178T346 1175Q324 1175 311 1177T290 1188T280 1209T277 1246Q277 1267 279
1280T289 1302T310 1313T346 1316Q368 1316 381 1314T403 1304T413 1282T416 1246V1246Z" />
<glyph unicode="&#x17d;" glyph-name="Zcaron" horiz-adv-x="764" d="M69 0V86L538 1254H92L96 1350H664V1265L195 98H695L692 0H69ZM146 1646L181 1705L385 1576L587 1705L621 1648L383 1465L146 1646Z" />
<glyph unicode="&#x17e;" glyph-name="zcaron" horiz-adv-x="692" d="M598 0H88V78L460 896H104L108 986H584V910L210 92H604L598 0ZM350 1132L130 1392L177 1439L352 1260L527 1439L573 1394L350 1132Z" />
<glyph unicode="&#x17f;" glyph-name="longs" horiz-adv-x="444" d="M506 1308Q476 1324 446 1333T386 1342Q321 1342 293 1299T264 1162V0H154V1154Q154 1218 166 1269T204 1356T267 1411T358 1430Q383 1430 407 1426T454 1414T496 1397T530 1376L506 1308Z" />
<glyph unicode="&#x192;" glyph-name="florin" horiz-adv-x="840" d="M756 1239Q726 1255 695 1265T632 1275Q597 1275 573 1263T532 1229T506 1172T491 1096L453 729H726V647H446L387 74Q381 8 365 -46T319 -138T250 -196T155 -217Q130 -217 106 -213T61 -201T21
-184T-16 -162L10 -93Q39 -109 71 -119T133 -129Q168 -129 193 -118T235 -84T262 -28T277 48L339 647H94V729H346L380 1071Q387 1137 403 1191T447 1283T516 1342T611 1363Q636 1363 659 1359T704 1347T745 1329T782 1308L756 1239Z" />
<glyph unicode="&#x1e6;" glyph-name="Gcaron" horiz-adv-x="930" d="M804 124Q776 93 743 68T670 24T586 -4T490 -14Q402 -14 329 27T204 151T123 362T94 664Q94 850 130 983T224 1200T357 1324T507 1364Q549 1364 589 1352T666 1320T734 1274T790 1217L737 1158Q712
1183 685 1204T629 1239T570 1261T508 1269Q442 1269 387 1230T293 1117T233 935T211 691Q211 535 232 421T292 231T385 120T508 83Q539 83 566 88T617 103T659 125T691 151V621H516V709H804V124ZM272 1646L307 1705L511 1576L713 1705L747 1648L509 1465L272 1646Z"
/>
<glyph unicode="&#x1e7;" glyph-name="gcaron" horiz-adv-x="880" d="M726 28Q726 -48 716 -106T687 -207T641 -277T578 -322T502 -345T412 -352Q382 -352 349 -349T283 -339T218 -323T156 -302L168 -230Q242 -244 300 -251T404 -258Q460 -258 499 -245T565 -204T603
-128T616 -10V120Q550 61 491 31T374 0Q312 0 260 34T170 131T112 278T92 462Q92 599 123 701T209 869T339 966T502 998Q530 998 559 996T618 991T675 982T726 972V28ZM616 896Q600 900 583 903T547 909T511 913T476 914Q419 914 370 887T284 807T227 674T206 492Q206
406 220 332T260 204T324 120T406 90Q425 90 449 98T500 122T557 162T616 216V896ZM460 1132L240 1392L287 1439L462 1260L637 1439L683 1394L460 1132Z" />
<glyph unicode="&#x1fa;" glyph-name="Aringacute" horiz-adv-x="893" d="M738 0Q730 37 722 75T706 151T688 229T669 309H212Q195 232 179 155T147 0H33Q67 155 106 325T189 668T279 1015T374 1350H510Q563 1168 611 995T702 655T785 324T860 0H738ZM650 402Q625
502 599 604T545 810T488 1018T430 1226Q406 1133 381 1032T331 826T281 614T232 402H650ZM601 1503Q601 1471 587 1450T549 1416T496 1398T434 1392Q400 1392 372 1398T325 1416T294 1447T283 1491Q283 1522 297 1544T334 1579T388 1597T449 1603Q483 1603 511
1597T559 1579T590 1548T601 1503V1503ZM519 1497Q519 1524 500 1539T443 1555Q406 1555 386 1540T365 1498Q365 1471 383 1456T441 1440Q478 1440 498 1455T519 1497V1497ZM606 1770L638 1702L361 1642L342 1687L606 1770Z" />
<glyph unicode="&#x1fb;" glyph-name="aringacute" horiz-adv-x="831" d="M596 0L588 120Q551 84 521 60T458 19T391 -6T312 -14Q196 -14 136 54T76 246Q76 318 100 376T174 478T305 546T496 570H576V686Q576 750 562 793T520 862T454 899T366 910Q335 910 305
906T246 894T192 877T136 856L114 930Q145 944 177 956T245 978T321 994T402 1000Q473 1000 526 982T614 927T666 836T684 710V0H596ZM576 488H482Q394 488 337 472T247 425T203 355T190 264Q190 221 199 186T228 125T275 86T342 72Q400 72 457 105T576 204V488ZM574
1236Q574 1190 560 1160T522 1111T469 1086T407 1078Q340 1078 298 1110T256 1219Q256 1265 270 1295T307 1344T361 1370T422 1377Q456 1377 484 1370T532 1345T563 1301T574 1236V1236ZM492 1226Q492 1249 487 1267T473 1296T449 1312T416 1318Q379 1318 359 1297T338
1229Q338 1205 343 1188T357 1160T381 1143T414 1137Q451 1137 471 1158T492 1226V1226ZM572 1638L619 1549L328 1440L299 1495L572 1638Z" />
<glyph unicode="&#x1fc;" glyph-name="AEacute" horiz-adv-x="1212" d="M563 0V307H222Q210 268 198 228T173 149T148 72T126 0H11Q67 172 126 342T247 682T372 1018T501 1350H1088V1253H677V740H1014V646H677V97H1094V0H563ZM563 1260H561Q518 1143 479 1033T401
817T325 608T252 402H563V1260ZM967 1704L1026 1614L718 1464L681 1522L967 1704Z" />
<glyph unicode="&#x1fd;" glyph-name="aeacute" horiz-adv-x="1308" d="M1186 66Q1117 28 1047 7T898 -14Q853 -14 814 -5T741 26T679 80T630 160Q591 116 554 84T478 30T398 -3T312 -14Q196 -14 136 54T76 246Q76 318 100 376T174 478T305 546T496 570H576V686Q576
750 562 793T520 862T454 899T366 910Q335 910 305 906T246 894T192 877T136 856L114 930Q145 944 177 956T245 978T321 994T402 1000Q450 1000 491 990T565 958T621 906T654 834Q672 870 697 900T754 952T824 987T906 1000Q954 1000 994 987T1066 948T1123 880T1163
782T1184 652T1186 490H682V468Q682 365 698 291T746 169T823 99T926 76Q957 76 985 79T1042 90T1100 108T1162 136L1186 66ZM1078 568V574Q1078 653 1067 716T1033 823T975 892T892 916Q844 916 806 889T742 814T702 703T684 568H1078ZM482 490Q396 490 339 473T249
426T203 355T190 264Q190 221 199 186T228 125T275 86T342 72Q403 72 467 114T598 242Q585 296 580 358T576 490H482ZM662 1129L610 1170L825 1435L908 1367L662 1129Z" />
<glyph unicode="&#x1fe;" glyph-name="Oslashacute" horiz-adv-x="1048" d="M954 692Q954 564 939 462T894 282T825 148T736 56T631 3T514 -14Q442 -14 381 9T269 79L159 -138L85 -100L209 144Q153 226 124 355T94 658Q94 786 109 887T154 1067T223 1202T312 1294T417
1347T534 1364Q606 1364 666 1342T779 1271L889 1487L963 1450L839 1206Q894 1123 924 994T954 692V692ZM839 658Q839 786 823 890T772 1072L321 182Q361 131 412 106T530 80Q576 80 617 95T692 142T753 221T800 333T829 478T839 658V658ZM518 1270Q449 1270 392
1235T295 1128T232 948T209 691Q209 564 224 461T276 278L727 1168Q687 1219 636 1244T518 1270V1270ZM720 1708L779 1618L471 1468L434 1526L720 1708Z" />
<glyph unicode="&#x1ff;" glyph-name="oslashacute" horiz-adv-x="880" d="M700 882Q743 820 765 731T788 518Q788 417 774 337T735 197T675 98T600 33T515 -3T422 -14Q373 -14 331 -2T254 36L164 -140L94 -102L192 86Q143 146 118 239T92 466Q92 568 106 648T145
788T205 888T280 953T365 989T458 1000Q511 1000 556 985T640 938L716 1082L786 1044L700 882ZM300 122Q326 96 362 83T440 70Q497 70 541 95T617 172T664 302T680 486Q680 579 670 644T636 762L300 122ZM594 848Q565 883 526 898T440 914Q382 914 338 889T263
813T216 684T200 500Q200 399 213 324T254 202L594 848ZM428 1129L376 1170L591 1435L674 1367L428 1129Z" />
<glyph unicode="&#x218;" glyph-name="Scommaaccent" horiz-adv-x="816" d="M733 354Q733 284 711 218T645 100T535 17T381 -14Q289 -14 215 16T77 95L115 165Q143 147 174 132T238 106T302 89T364 83Q423 83 469 100T546 151T594 233T611 343Q611 409 589 455T531
538T448 602T352 658T257 718T174 793T115 894T93 1034Q93 1103 115 1163T179 1268T280 1338T411 1364Q448 1364 480 1358T544 1342T605 1317T668 1282L638 1212Q585 1239 532 1255T425 1271Q369 1271 329 1253T262 1204T223 1132T210 1044Q210 978 232 931T291
847T375 783T471 726T567 666T650 592T710 492T733 354V354ZM400 -80Q418 -80 430 -84T450 -95T461 -114T465 -144Q465 -182 453 -214T417 -271T362 -317T293 -354L264 -307Q311 -279 334 -253T357 -203Q357 -193 354 -188T346 -178T339 -164T336 -140Q336 -125
340 -114T351 -95T371 -84T400 -80V-80Z" />
<glyph unicode="&#x219;" glyph-name="scommaaccent" horiz-adv-x="669" d="M92 118Q153 95 199 85T288 74Q338 74 375 87T436 126T472 184T484 256Q484 298 468 330T424 385T372 423T292 466T203 518T141 571T97 644T80 742Q80 796 100 843T157 925T245 980T356
1000Q379 1000 403 997T450 988T497 972T544 952L524 884Q506 891 487 897T449 906T410 912T372 914Q329 914 295 902T238 868T204 815T192 750Q192 708 208 676T252 621T305 583T386 541T475 490T537 437T581 364T598 266Q598 205 578 154T520 65T426 7T302 -14Q244
-14 184 3T74 50L92 118ZM322 -80Q340 -80 352 -84T372 -95T383 -114T387 -144Q387 -182 375 -214T339 -271T284 -317T215 -354L186 -307Q233 -279 256 -253T279 -203Q279 -193 276 -188T268 -178T261 -164T258 -140Q258 -125 262 -114T273 -95T293 -84T322 -80V-80Z"
/>
<glyph unicode="&#x21a;" glyph-name="Tcommaaccent" horiz-adv-x="720" d="M418 1253V0H302V1253H14V1350H706V1253H418ZM360 -80Q378 -80 390 -84T410 -95T421 -114T425 -144Q425 -182 413 -214T377 -271T322 -317T253 -354L224 -307Q271 -279 294 -253T317
-203Q317 -193 314 -188T306 -178T299 -164T296 -140Q296 -125 300 -114T311 -95T331 -84T360 -80V-80Z" />
<glyph unicode="&#x21b;" glyph-name="tcommaaccent" horiz-adv-x="578" d="M516 108L532 38Q504 24 481 15T436 0T396 -9T358 -12Q305 -12 269 2T211 48T178 129T168 252V904H26V986H172Q176 1018 179 1051T185 1119T192 1189T198 1264H278V986H510V904H278V282Q278
222 282 184T299 122T332 87T386 76Q398 76 410 77T438 83T473 93T516 108ZM347 -80Q365 -80 377 -84T397 -95T408 -114T412 -144Q412 -182 400 -214T364 -271T309 -317T240 -354L211 -307Q258 -279 281 -253T304 -203Q304 -193 301 -188T293 -178T286 -164T283
-140Q283 -125 287 -114T298 -95T318 -84T347 -80V-80Z" />
<glyph unicode="&#x237;" glyph-name="dotlessj" horiz-adv-x="418" d="M264 74Q264 0 256 -59T229 -169T180 -264T104 -352L38 -308Q91 -246 122 -158T154 34V986H264V74Z" />
<glyph unicode="&#x2bc;" glyph-name="apostrophe" horiz-adv-x="460" d="M101 1135Q124 1150 141 1164T168 1191T183 1216T189 1241Q189 1252 185 1258T177 1270T169 1285T166 1312Q166 1328 169 1339T181 1358T201 1369T230 1373Q247 1373 259 1370T279 1359T290
1340T294 1309Q294 1272 283 1241T250 1182T199 1132T136 1089L101 1135Z" />
<glyph unicode="&#x2c6;" glyph-name="circumflex" horiz-adv-x="623" d="M485 1131L311 1310L136 1132L90 1176L313 1438L533 1178L485 1131Z" />
<glyph unicode="&#x2c7;" glyph-name="caron" horiz-adv-x="623" d="M310 1132L90 1392L137 1439L312 1260L487 1439L533 1394L310 1132Z" />
<glyph unicode="&#x2c9;" glyph-name="macron" horiz-adv-x="597" d="M90 1197V1283H508V1197H90Z" />
<glyph unicode="&#x2d8;" glyph-name="breve" horiz-adv-x="621" d="M531 1405Q531 1340 517 1290T474 1205T404 1152T308 1134Q254 1134 214 1152T145 1204T104 1289T90 1405H162Q162 1361 171 1328T200 1271T247 1236T310 1224Q346 1224 374 1235T420 1269T449
1326T459 1405H531Z" />
<glyph unicode="&#x2d9;" glyph-name="dotaccent" horiz-adv-x="318" d="M229 1246Q229 1224 227 1211T216 1189T195 1178T159 1175Q137 1175 124 1177T103 1188T93 1209T90 1246Q90 1267 92 1280T102 1302T123 1313T159 1316Q181 1316 194 1314T216 1304T226
1282T229 1246V1246Z" />
<glyph unicode="&#x2da;" glyph-name="ring" horiz-adv-x="498" d="M408 1272Q408 1220 394 1186T356 1132T303 1104T241 1095Q207 1095 179 1103T132 1131T101 1180T90 1253Q90 1304 104 1338T141 1393T195 1421T256 1430Q290 1430 318 1422T366 1394T397 1345T408
1272V1272ZM326 1260Q326 1287 321 1308T307 1342T283 1361T250 1368Q213 1368 193 1343T172 1265Q172 1238 177 1218T191 1184T215 1164T248 1157Q285 1157 305 1182T326 1260V1260Z" />
<glyph unicode="&#x2db;" glyph-name="ogonek" horiz-adv-x="463" d="M374 -315Q358 -324 342 -331T309 -342T275 -349T241 -352Q207 -352 179 -344T131 -321T101 -280T90 -221Q90 -193 97 -165T120 -108T158 -53T212 0H310Q280 -25 259 -50T223 -102T201 -152T194
-201Q194 -239 212 -255T271 -272Q288 -272 311 -268T356 -256L374 -315Z" />
<glyph unicode="&#x2dc;" glyph-name="tilde" horiz-adv-x="735" d="M645 1326Q626 1288 608 1259T569 1211T524 1181T469 1171Q428 1171 399 1189T346 1228T301 1268T254 1286Q241 1286 229 1281T203 1262T175 1228T139 1177L90 1214Q108 1252 126 1281T165 1329T210
1359T266 1369Q307 1369 336 1351T389 1311T433 1272T480 1254Q494 1254 506 1259T532 1278T560 1312T595 1363L645 1326Z" />
<glyph unicode="&#x2dd;" glyph-name="hungarumlaut" horiz-adv-x="753" d="M421 1126L369 1167L584 1433L664 1365L421 1126ZM142 1126L90 1167L284 1433L367 1368L142 1126Z" />
<glyph unicode="&#x312;" glyph-name="uni0312" horiz-adv-x="361" d="M271 1386Q252 1370 238 1355T214 1324T199 1293T194 1261Q194 1251 197 1246T205 1235T214 1218T218 1189Q218 1173 215 1161T204 1142T184 1132T154 1128Q135 1128 123 1131T103 1142T93
1162T90 1193Q90 1227 98 1257T124 1316T169 1372T234 1427L271 1386Z" />
<glyph unicode="&#x315;" glyph-name="uni0315" horiz-adv-x="351" d="M155 1135L90 1145L162 1481L262 1461L155 1135Z" />
<glyph unicode="&#x326;" glyph-name="uni0326" horiz-adv-x="380" d="M226 -80Q244 -80 256 -84T276 -95T287 -114T291 -144Q291 -182 279 -214T243 -271T188 -317T119 -354L90 -307Q137 -279 160 -253T183 -203Q183 -193 180 -188T172 -178T165 -164T162 -140Q162
-125 166 -114T177 -95T197 -84T226 -80V-80Z" />
<glyph unicode="&#x37e;" glyph-name="semicolon" horiz-adv-x="525" d="M349 917Q349 893 346 878T333 854T310 842T273 838Q251 838 237 841T214 853T202 877T198 915Q198 939 202 954T214 978T237 990T275 994Q296 994 310 991T333 979T345 956T349 917V917ZM115
-230Q151 -202 174 -178T212 -131T232 -87T238 -46Q238 -30 235 -20T228 -3T218 9T209 21T201 38T198 64Q198 87 202 102T216 127T239 141T273 145Q294 145 308 141T332 128T345 102T349 62Q349 13 340 -32T308 -119T249 -201T157 -279L115 -230Z" />
<glyph unicode="&#x394;" glyph-name="Delta" horiz-adv-x="879" d="M41 0V74Q74 220 111 380T191 705T277 1033T367 1350H503Q553 1179 599 1015T687 692T766 378T838 74V0H41ZM711 97Q649 379 577 661T423 1226Q399 1133 376 1039T330 851T285 662T242 473T200
285T159 97H711Z" />
<glyph unicode="&#x3a9;" glyph-name="Omega" horiz-adv-x="1066" d="M610 0V117Q659 157 702 219T777 362T827 533T845 722Q845 810 836 885T809 1021T764 1128T702 1205T623 1251T527 1267Q481 1267 441 1252T366 1208T305 1135T260 1033T231 904T221 748Q221
640 237 545T285 369T360 226T458 117V0H71V98H363Q302 138 254 200T172 343T121 523T103 730Q103 839 118 929T161 1089T229 1212T318 1297T424 1347T543 1364Q638 1364 715 1328T848 1216T933 1024T963 749Q963 644 946 549T894 370T810 218T699 98H996V0H610Z"
/>
<glyph unicode="&#x3bc;" glyph-name="mu" horiz-adv-x="920" d="M674 0L666 124Q639 97 610 74T549 31T482 1T412 -10Q347 -10 302 28T240 136Q242 106 243 75T246 13T249 -49T253 -110T257 -171T260 -232T264 -290T268 -346H154V986H264V396Q264 318 275 259T308
159T361 98T434 78Q459 78 486 87T542 115T598 157T656 210V986H766V0H674Z" />
<glyph unicode="&#x3c0;" glyph-name="pi" horiz-adv-x="988" d="M930 896H715Q715 716 717 585T725 364T739 217T760 130T789 89T826 78Q847 78 872 84T926 102L943 31Q905 11 865 0T794 -12Q758 -12 731 -4T685 28T652 93T632 201T620 362T614 583Q614 587 614
591T614 602Q613 666 613 739T613 896H289Q289 861 289 823T289 746T288 665T286 583T284 500T282 416T279 334T276 254Q274 221 273 189T270 125T266 62T262 0H151Q154 43 157 88T162 180T168 275T173 371Q176 437 178 504T182 638T185 770T186 896H21V987H930V896Z"
/>
<glyph unicode="&#x1e02;" glyph-name="uni1E02" horiz-adv-x="935" d="M168 1350H468Q553 1350 613 1325T711 1257T767 1158T785 1042Q785 976 770 925T727 835T663 769T582 725Q640 717 689 691T773 623T827 525T846 401Q846 312 820 238T741 110T607 26T414
-4Q377 -4 344 -4T279 -2T221 -1T168 0V1350ZM282 755H414Q484 755 532 778T611 840T654 927T668 1025Q668 1071 655 1113T614 1187T546 1238T451 1258H282V755ZM282 97Q282 97 296 96T334 94T386 92T446 91Q518 91 571 113T658 174T708 267T725 387Q725 446 709
497T658 585T568 642T436 663H282V97ZM499 1555Q499 1534 497 1521T486 1500T465 1490T430 1487Q409 1487 396 1489T375 1498T365 1519T362 1553Q362 1575 364 1588T375 1609T396 1619T431 1622Q451 1622 464 1620T486 1610T496 1590T499 1555V1555Z" />
<glyph unicode="&#x1e03;" glyph-name="uni1E03" horiz-adv-x="880" d="M154 1414H264V880Q296 909 326 931T387 968T446 992T506 1000Q569 1000 621 966T710 868T768 719T788 530Q788 390 757 286T671 116T541 18T378 -14Q351 -14 321 -12T262 -5T206 3T154 14V1414ZM264
90Q296 80 332 75T404 70Q462 70 511 97T596 178T653 314T674 500Q674 590 661 665T621 794T557 878T474 908Q454 908 430 900T379 876T323 837T264 782V90ZM278 1646Q278 1623 275 1610T265 1590T244 1581T208 1578Q186 1578 173 1580T153 1590T143 1609T140 1644Q140
1667 143 1680T153 1700T174 1709T210 1712Q233 1712 245 1710T265 1701T275 1682T278 1646Z" />
<glyph unicode="&#x1e0a;" glyph-name="uni1E0A" horiz-adv-x="972" d="M166 1350Q220 1350 282 1351T412 1352Q492 1352 557 1331T675 1270T765 1172T828 1043T866 886T878 706Q878 534 846 402T750 180T593 43T377 -3Q346 -3 317 -3T260 -2T209 -1T166 0V1350ZM281
99Q310 96 341 95T402 94Q486 94 552 129T664 237T735 421T759 685Q759 762 751 834T726 969T680 1086T611 1177T517 1236T395 1257Q371 1257 351 1257T315 1256T290 1256T281 1255V99ZM505 1555Q505 1534 503 1521T492 1500T471 1490T436 1487Q415 1487 402 1489T381
1498T371 1519T368 1553Q368 1575 370 1588T381 1609T402 1619T437 1622Q457 1622 470 1620T492 1610T502 1590T505 1555V1555Z" />
<glyph unicode="&#x1e0b;" glyph-name="uni1E0B" horiz-adv-x="880" d="M636 0L624 114Q590 83 559 59T496 19T435 -5T374 -14Q311 -14 259 20T170 117T112 266T92 456Q92 596 122 699T208 869T336 966T496 998Q521 998 548 996T616 988V1414H726V0H636ZM616 896Q584
905 548 909T476 914Q418 914 369 887T284 806T227 671T206 484Q206 395 220 320T260 191T323 106T406 76Q445 76 501 108T616 202V896ZM740 1646Q740 1623 737 1610T727 1590T706 1581T670 1578Q648 1578 635 1580T615 1590T605 1609T602 1644Q602 1667 605 1680T615
1700T636 1709T672 1712Q695 1712 707 1710T727 1701T737 1682T740 1646Z" />
<glyph unicode="&#x1e1e;" glyph-name="uni1E1E" horiz-adv-x="709" d="M282 1253V737H601V641H282V0H166V1350H655V1253H282ZM485 1555Q485 1534 483 1521T472 1500T451 1490T416 1487Q395 1487 382 1489T361 1498T351 1519T348 1553Q348 1575 350 1588T361 1609T382
1619T417 1622Q437 1622 450 1620T472 1610T482 1590T485 1555V1555Z" />
<glyph unicode="&#x1e1f;" glyph-name="uni1E1F" horiz-adv-x="482" d="M526 1304Q494 1320 464 1329T406 1338Q339 1338 311 1296T282 1160V986H468V904H282V0H172V904H26V986H172V1150Q172 1215 184 1265T221 1352T285 1407T376 1426Q401 1426 426 1422T474
1410T517 1393T552 1372L526 1304ZM428 1646Q428 1623 425 1610T415 1590T394 1581T358 1578Q336 1578 323 1580T303 1590T293 1609T290 1644Q290 1667 293 1680T303 1700T324 1709T360 1712Q383 1712 395 1710T415 1701T425 1682T428 1646Z" />
<glyph unicode="&#x1e40;" glyph-name="uni1E40" horiz-adv-x="1426" d="M1421 0Q1420 111 1417 224T1408 448T1397 666T1383 869T1369 1051T1354 1203H1352L1008 0H909L567 1203H565Q556 1090 548 950T533 655T521 333T512 0H396Q400 159 407 329T425 672T451
1016T484 1350H641L970 207H972L1302 1350H1453Q1470 1188 1485 1017T1511 672T1530 329T1541 0H1421ZM783 1555Q783 1534 781 1521T770 1500T749 1490T714 1487Q693 1487 680 1489T659 1498T649 1519T646 1553Q646 1575 648 1588T659 1609T680 1619T715 1622Q735
1622 748 1620T770 1610T780 1590T783 1555V1555Z" />
<glyph unicode="&#x1e41;" glyph-name="uni1E41" horiz-adv-x="1386" d="M1126 0Q1126 56 1126 119T1128 276T1129 427T1130 534Q1130 632 1119 703T1087 820T1035 886T964 908Q942 908 916 899T862 871T802 826T736 764Q739 745 741 727T746 685T749 633T750
568V0H642V534Q642 632 631 703T599 820T547 886T476 908Q455 908 430 899T377 872T321 831T264 778V0H154V986H246L254 864Q282 891 311 914T373 957T441 988T510 1000Q551 1000 584 988T642 954T684 904T716 840Q751 875 784 903T853 953T924 987T996 1000Q1053
1000 1097 977T1174 904T1223 770T1240 568Q1240 521 1240 465T1238 306T1235 133T1234 0H1126ZM763 1246Q763 1224 761 1211T750 1189T729 1178T693 1175Q671 1175 658 1177T637 1188T627 1209T624 1246Q624 1267 626 1280T636 1302T657 1313T693 1316Q715 1316
728 1314T750 1304T760 1282T763 1246V1246Z" />
<glyph unicode="&#x1e56;" glyph-name="uni1E56" horiz-adv-x="868" d="M166 0V1350Q192 1350 220 1350T279 1351T340 1351T403 1352Q518 1352 597 1322T726 1239T796 1113T818 953Q818 862 793 784T713 646T568 553T351 519H282V0H166ZM282 614H386Q467 614 525
635T622 699T678 801T697 940Q697 1013 681 1072T627 1172T530 1234T384 1256H282V614ZM499 1555Q499 1534 497 1521T486 1500T465 1490T430 1487Q409 1487 396 1489T375 1498T365 1519T362 1553Q362 1575 364 1588T375 1609T396 1619T431 1622Q451 1622 464 1620T486
1610T496 1590T499 1555V1555Z" />
<glyph unicode="&#x1e57;" glyph-name="uni1E57" horiz-adv-x="880" d="M154 -346V986H244L256 874Q290 905 321 928T384 967T446 991T506 1000Q569 1000 621 966T710 868T768 719T788 530Q788 390 758 287T672 117T543 20T382 -12Q356 -12 324 -10T264 -2V-346H154ZM264
90Q296 80 332 75T404 70Q462 70 511 97T596 178T653 314T674 500Q674 590 661 665T621 794T557 878T474 908Q454 908 430 900T379 876T323 837T264 782V90ZM508 1246Q508 1224 506 1211T495 1189T474 1178T438 1175Q416 1175 403 1177T382 1188T372 1209T369 1246Q369
1267 371 1280T381 1302T402 1313T438 1316Q460 1316 473 1314T495 1304T505 1282T508 1246V1246Z" />
<glyph unicode="&#x1e60;" glyph-name="uni1E60" horiz-adv-x="816" d="M733 354Q733 284 711 218T645 100T535 17T381 -14Q289 -14 215 16T77 95L115 165Q143 147 174 132T238 106T302 89T364 83Q423 83 469 100T546 151T594 233T611 343Q611 409 589 455T531
538T448 602T352 658T257 718T174 793T115 894T93 1034Q93 1103 115 1163T179 1268T280 1338T411 1364Q448 1364 480 1358T544 1342T605 1317T668 1282L638 1212Q585 1239 532 1255T425 1271Q369 1271 329 1253T262 1204T223 1132T210 1044Q210 978 232 931T291
847T375 783T471 726T567 666T650 592T710 492T733 354V354ZM477 1556Q477 1535 475 1522T464 1501T443 1491T408 1488Q387 1488 374 1490T353 1499T343 1520T340 1554Q340 1576 342 1589T353 1610T374 1620T409 1623Q429 1623 442 1621T464 1611T474 1591T477
1556V1556Z" />
<glyph unicode="&#x1e61;" glyph-name="uni1E61" horiz-adv-x="669" d="M92 118Q153 95 199 85T288 74Q338 74 375 87T436 126T472 184T484 256Q484 298 468 330T424 385T372 423T292 466T203 518T141 571T97 644T80 742Q80 796 100 843T157 925T245 980T356 1000Q379
1000 403 997T450 988T497 972T544 952L524 884Q506 891 487 897T449 906T410 912T372 914Q329 914 295 902T238 868T204 815T192 750Q192 708 208 676T252 621T305 583T386 541T475 490T537 437T581 364T598 266Q598 205 578 154T520 65T426 7T302 -14Q244 -14
184 3T74 50L92 118ZM404 1248Q404 1226 402 1213T391 1191T370 1180T334 1177Q312 1177 299 1179T278 1190T268 1211T265 1248Q265 1269 267 1282T277 1304T298 1315T334 1318Q356 1318 369 1316T391 1306T401 1284T404 1248V1248Z" />
<glyph unicode="&#x1e6a;" glyph-name="uni1E6A" horiz-adv-x="720" d="M418 1253V0H302V1253H14V1350H706V1253H418ZM429 1555Q429 1534 427 1521T416 1500T395 1490T360 1487Q339 1487 326 1489T305 1498T295 1519T292 1553Q292 1575 294 1588T305 1609T326
1619T361 1622Q381 1622 394 1620T416 1610T426 1590T429 1555V1555Z" />
<glyph unicode="&#x1e6b;" glyph-name="uni1E6B" horiz-adv-x="578" d="M516 108L532 38Q504 24 481 15T436 0T396 -9T358 -12Q305 -12 269 2T211 48T178 129T168 252V904H26V986H172Q176 1018 179 1051T185 1119T192 1189T198 1264H278V986H510V904H278V282Q278
222 282 184T299 122T332 87T386 76Q398 76 410 77T438 83T473 93T516 108ZM237 1284Q237 1262 235 1249T224 1227T203 1216T167 1213Q145 1213 132 1215T111 1226T101 1247T98 1284Q98 1305 100 1318T110 1340T131 1351T167 1354Q189 1354 202 1352T224 1342T234
1320T237 1284V1284Z" />
<glyph unicode="&#x1e80;" glyph-name="Wgrave" horiz-adv-x="1429" d="M1391 1350Q1352 1158 1315 986T1240 649T1162 322T1077 0H949L745 936L710 1120H708L675 933L483 0H354Q306 170 265 329T187 649T113 980T38 1350H160Q191 1180 223 1022T288 717T354 433T424
148H426L449 288L668 1350H772L1001 294L1025 147H1027Q1060 276 1092 417T1156 711T1218 1024T1278 1350H1391ZM775 1464L469 1613L531 1704L814 1523L775 1464Z" />
<glyph unicode="&#x1e81;" glyph-name="wgrave" horiz-adv-x="1211" d="M1154 986Q1136 879 1111 761T1055 518T986 262T906 0H792L612 714L590 826H588L570 714L410 0H290L30 986H144L318 320L358 144H360L388 286L544 986H654L828 290L858 144H860Q890 248 916
352T966 562T1009 775T1044 986H1154ZM608 1129L363 1367L446 1435L661 1170L608 1129Z" />
<glyph unicode="&#x1e82;" glyph-name="Wacute" horiz-adv-x="1429" d="M1391 1350Q1352 1158 1315 986T1240 649T1162 322T1077 0H949L745 936L710 1120H708L675 933L483 0H354Q306 170 265 329T187 649T113 980T38 1350H160Q191 1180 223 1022T288 717T354 433T424
148H426L449 288L668 1350H772L1001 294L1025 147H1027Q1060 276 1092 417T1156 711T1218 1024T1278 1350H1391ZM932 1704L991 1614L683 1464L646 1522L932 1704Z" />
<glyph unicode="&#x1e83;" glyph-name="wacute" horiz-adv-x="1211" d="M1154 986Q1136 879 1111 761T1055 518T986 262T906 0H792L612 714L590 826H588L570 714L410 0H290L30 986H144L318 320L358 144H360L388 286L544 986H654L828 290L858 144H860Q890 248 916
352T966 562T1009 775T1044 986H1154ZM590 1129L538 1170L753 1435L836 1367L590 1129Z" />
<glyph unicode="&#x1e84;" glyph-name="Wdieresis" horiz-adv-x="1429" d="M1391 1350Q1352 1158 1315 986T1240 649T1162 322T1077 0H949L745 936L710 1120H708L675 933L483 0H354Q306 170 265 329T187 649T113 980T38 1350H160Q191 1180 223 1022T288 717T354
433T424 148H426L449 288L668 1350H772L1001 294L1025 147H1027Q1060 276 1092 417T1156 711T1218 1024T1278 1350H1391ZM946 1556Q946 1534 943 1521T934 1501T915 1491T882 1488Q861 1488 849 1491T830 1500T821 1520T818 1554Q818 1576 820 1589T830 1609T849
1619T882 1622Q902 1622 914 1619T933 1609T943 1590T946 1556ZM624 1556Q624 1534 622 1521T613 1501T594 1491T561 1488Q541 1488 529 1491T510 1500T501 1520T498 1554Q498 1576 500 1589T510 1609T529 1619T561 1622Q582 1622 594 1619T612 1609T621 1590T624
1556Z" />
<glyph unicode="&#x1e85;" glyph-name="wdieresis" horiz-adv-x="1211" d="M1154 986Q1136 879 1111 761T1055 518T986 262T906 0H792L612 714L590 826H588L570 714L410 0H290L30 986H144L318 320L358 144H360L388 286L544 986H654L828 290L858 144H860Q890 248
916 352T966 562T1009 775T1044 986H1154ZM818 1247Q818 1226 815 1213T805 1193T786 1182T754 1179Q733 1179 721 1182T703 1192T694 1212T691 1247Q691 1268 694 1281T703 1301T722 1312T754 1315Q775 1315 787 1312T806 1302T815 1282T818 1247ZM509 1247Q509
1226 506 1213T496 1193T477 1182T445 1179Q425 1179 413 1182T394 1192T385 1212T382 1247Q382 1268 385 1281T394 1301T413 1312T445 1315Q466 1315 478 1312T497 1302T506 1282T509 1247Z" />
<glyph unicode="&#x1ef2;" glyph-name="Ygrave" horiz-adv-x="793" d="M795 1350Q758 1255 719 1159T637 968T550 780T455 599V0H338V599Q290 685 247 771T163 949T81 1140T-2 1350H124Q157 1257 191 1173T260 1010T333 855T410 700Q448 775 484 857T554 1022T618
1189T674 1350H795ZM417 1464L111 1613L173 1704L456 1523L417 1464Z" />
<glyph unicode="&#x1ef3;" glyph-name="ygrave" horiz-adv-x="749" d="M708 986Q667 769 625 593T540 281T456 46T374 -123T296 -237T223 -305T157 -338T94 -348Q74 -348 50 -344T4 -332V-256Q10 -257 17 -258T32 -260T49 -261T68 -262Q108 -262 145 -245T216
-196Q234 -177 249 -153T277 -101T295 -46T302 6Q302 45 293 93T264 202L24 986H140L346 308Q353 284 360 255T372 196T379 136T378 84Q409 166 441 273T502 500T555 745T594 986H708ZM396 1129L151 1367L234 1435L449 1170L396 1129Z" />
<glyph unicode="&#x200b;" glyph-name="uni200B" horiz-adv-x="0" />
<glyph unicode="&#x2010;" glyph-name="hyphen" horiz-adv-x="377" d="M42 547V636H379V547H42Z" />
<glyph unicode="&#x2011;" glyph-name="hyphen" horiz-adv-x="377" d="M42 547V636H379V547H42Z" />
<glyph unicode="&#x2013;" glyph-name="endash" horiz-adv-x="840" d="M67 552V639H773V552H67Z" />
<glyph unicode="&#x2014;" glyph-name="emdash" horiz-adv-x="1680" d="M252 552V639H1428V552H252Z" />
<glyph unicode="&#x2015;" glyph-name="uni2015" horiz-adv-x="1680" d="M252 552V639H1428V552H252Z" />
<glyph unicode="&#x2018;" glyph-name="quoteleft" horiz-adv-x="427" d="M354 1468Q320 1442 297 1417T260 1370T241 1328T235 1288Q235 1272 238 1263T245 1246T254 1234T263 1222T271 1206T274 1179Q274 1156 270 1141T256 1116T233 1102T199 1098Q178 1098
164 1102T140 1115T127 1141T123 1181Q123 1231 132 1276T164 1362T221 1441T310 1518L354 1468Z" />
<glyph unicode="&#x2019;" glyph-name="quoteright" horiz-adv-x="444" d="M90 1094Q125 1120 147 1144T183 1191T203 1234T209 1274Q209 1298 203 1308T190 1327T177 1347T171 1382Q171 1405 175 1420T188 1445T211 1459T245 1464Q266 1464 280 1460T304 1446T317
1421T321 1380Q321 1331 312 1286T281 1200T224 1119T135 1044L90 1094Z" />
<glyph unicode="&#x201a;" glyph-name="quotesinglbase" horiz-adv-x="444" d="M80 -224Q114 -198 136 -174T173 -127T193 -84T199 -45Q199 -21 193 -11T180 9T166 29T160 64Q160 87 164 102T177 127T201 141T235 145Q256 145 270 141T294 128T307 102T311 62Q311
12 302 -33T270 -119T213 -199T124 -275L80 -224Z" />
<glyph unicode="&#x201c;" glyph-name="quotedblleft" horiz-adv-x="687" d="M614 1468Q580 1442 557 1417T521 1370T502 1328T496 1288Q496 1264 502 1254T515 1234T528 1214T534 1179Q534 1156 530 1141T517 1116T494 1102T460 1098Q440 1098 426 1102T404 1115T391
1141T387 1181Q387 1231 395 1276T425 1362T482 1441T570 1518L614 1468ZM351 1468Q316 1442 293 1417T257 1370T238 1328T232 1288Q232 1264 238 1254T251 1234T264 1214T270 1179Q270 1156 266 1141T253 1116T231 1102T198 1098Q178 1098 164 1102T140 1115T127
1141T123 1181Q123 1231 132 1276T162 1362T218 1441T307 1518L351 1468Z" />
<glyph unicode="&#x201d;" glyph-name="quotedblright" horiz-adv-x="704" d="M354 1094Q387 1120 410 1144T446 1191T466 1234T472 1274Q472 1298 466 1308T453 1327T440 1347T434 1382Q434 1405 438 1420T451 1445T473 1459T506 1464Q527 1464 541 1460T564
1446T577 1421T581 1380Q581 1331 573 1286T543 1200T486 1119T398 1044L354 1094ZM90 1094Q124 1120 147 1144T183 1191T203 1234T209 1274Q209 1298 203 1308T190 1327T177 1347T171 1382Q171 1405 175 1420T188 1445T211 1459T244 1464Q264 1464 278 1460T301
1446T314 1421T318 1380Q318 1331 309 1286T279 1200T222 1119T134 1044L90 1094Z" />
<glyph unicode="&#x201e;" glyph-name="quotedblbase" horiz-adv-x="704" d="M343 -224Q377 -198 400 -173T436 -126T456 -84T462 -44Q462 -20 456 -10T443 10T430 30T424 65Q424 88 428 103T441 128T463 141T496 146Q516 146 530 142T554 129T567 103T571 63Q571
13 562 -32T532 -118T475 -198T387 -274L343 -224ZM80 -224Q114 -198 136 -173T172 -126T192 -84T198 -44Q198 -20 192 -10T179 10T166 30T160 65Q160 88 164 103T177 128T200 141T234 146Q254 146 268 142T290 129T303 103T307 63Q307 13 299 -32T269 -118T212
-198T124 -274L80 -224Z" />
<glyph unicode="&#x2020;" glyph-name="dagger" horiz-adv-x="644" d="M373 1050V425H271V1050H78V1134H271V1418H373V1134H566V1050H373Z" />
<glyph unicode="&#x2021;" glyph-name="daggerdbl" horiz-adv-x="644" d="M373 287V0H271V287H78V371H271V1045H78V1129H271V1418H373V1129H566V1045H373V371H566V287H373Z" />
<glyph unicode="&#x2022;" glyph-name="bullet" horiz-adv-x="840" d="M640 661Q640 614 623 574T577 504T507 457T420 440Q374 440 334 457T264 504T217 574T199 661Q199 707 216 747T263 817T333 864T420 881Q466 881 506 864T576 817T623 747T640 661V661Z" />
<glyph unicode="&#x2026;" glyph-name="ellipsis" horiz-adv-x="1220" d="M1060 68Q1060 44 1057 29T1044 5T1021 -7T984 -11Q962 -11 948 -8T925 4T913 28T909 66Q909 90 913 105T925 129T948 142T986 146Q1007 146 1021 143T1044 130T1056 107T1060 68V68ZM685
68Q685 44 682 29T670 5T647 -7T609 -11Q588 -11 574 -8T551 4T539 28T535 66Q535 90 538 105T551 129T574 142T611 146Q633 146 647 143T670 130T681 107T685 68V68ZM311 68Q311 44 308 29T295 5T272 -7T235 -11Q213 -11 199 -8T176 4T164 28T160 66Q160 90 164
105T176 129T199 142T237 146Q258 146 272 143T295 130T307 107T311 68V68Z" />
<glyph unicode="&#x2030;" glyph-name="perthousand" horiz-adv-x="1916" d="M581 1061Q581 901 517 823T337 744Q275 744 231 763T158 821T115 916T101 1047Q101 1127 117 1186T165 1285T242 1344T346 1364Q407 1364 451 1345T525 1287T567 1192T581 1061V1061ZM496
1049Q496 1111 488 1156T460 1232T413 1277T343 1292Q303 1292 274 1278T225 1236T196 1163T186 1059Q186 997 194 952T222 876T270 831T339 816Q379 816 409 830T458 872T487 945T496 1049V1049ZM194 -43L125 2L1116 1404L1184 1357L194 -43ZM1206 301Q1206 142
1143 63T963 -16Q902 -16 858 3T784 61T742 157T728 288Q728 368 744 427T791 526T867 585T970 605Q1032 605 1076 586T1149 528T1192 432T1206 301V301ZM1121 289Q1121 351 1113 396T1085 472T1037 518T968 533Q928 533 899 519T850 476T822 403T813 300Q813 238
821 193T848 117T896 71T964 56Q1004 56 1034 70T1083 113T1111 185T1121 289V289ZM1814 301Q1814 142 1750 63T1570 -16Q1508 -16 1464 3T1391 61T1348 157T1334 288Q1334 368 1350 427T1398 526T1474 585T1579 605Q1639 605 1683 586T1757 528T1800 432T1814
301V301ZM1728 289Q1728 351 1719 396T1692 472T1645 518T1576 533Q1536 533 1507 519T1458 476T1429 403T1419 300Q1419 238 1427 193T1455 117T1503 71T1572 56Q1612 56 1641 70T1690 113T1718 185T1728 289V289Z" />
<glyph unicode="&#x2039;" glyph-name="guilsinglleft" horiz-adv-x="516" d="M302 220L97 593L304 965L382 933L220 593L382 254L302 220Z" />
<glyph unicode="&#x203a;" glyph-name="guilsinglright" horiz-adv-x="516" d="M214 965L419 593L212 220L134 252L296 593L134 931L214 965Z" />
<glyph unicode="&#x2044;" glyph-name="fraction" horiz-adv-x="132" d="M534 1459L600 1419L-364 -126L-432 -86L534 1459Z" />
<glyph unicode="&#x2060;" glyph-name="uni2060" horiz-adv-x="0" />
<glyph unicode="&#x2070;" glyph-name="zero.superior" horiz-adv-x="622" d="M542 1100Q542 1002 527 931T483 814T408 746T300 724Q240 724 197 741T126 798T83 909T68 1084Q68 1182 83 1253T128 1369T203 1436T312 1458Q372 1458 414 1442T484 1385T527 1276T542
1100ZM440 1086Q440 1175 433 1232T409 1322T368 1368T306 1382Q270 1382 245 1366T203 1316T178 1229T170 1098Q170 1010 178 952T202 861T244 814T306 800Q342 800 367 816T408 867T432 956T440 1086Z" />
<glyph unicode="&#x2074;" glyph-name="four.superior" horiz-adv-x="592" d="M454 902V736H356V902H50V970Q77 1029 110 1092T178 1217T248 1338T316 1446H454V980H552V902H454ZM356 1374Q332 1338 304 1291T245 1192T186 1085T132 980H356V1374Z" />
<glyph unicode="&#x2075;" glyph-name="five.superior" horiz-adv-x="579" d="M208 1366L194 1150Q228 1153 248 1154T292 1156Q344 1156 385 1143T453 1103T495 1039T510 952Q510 894 495 851T450 781T375 740T268 726Q248 726 226 728T178 736T126 750T70 768L80
824Q128 813 174 808T258 802Q296 802 323 809T370 831T398 874T408 940Q408 977 399 1004T370 1050T320 1077T250 1086Q217 1086 181 1082T100 1070L128 1446H460V1366H208Z" />
<glyph unicode="&#x2076;" glyph-name="six.superior" horiz-adv-x="600" d="M504 1366Q452 1376 421 1381T358 1386Q317 1386 286 1370T234 1319T202 1232T190 1106Q232 1129 271 1140T352 1152Q397 1152 431 1139T489 1101T524 1040T536 960Q536 907 521 864T476
789T405 742T312 726Q256 726 216 742T147 797T105 902T90 1068Q90 1181 109 1257T163 1378T243 1440T346 1458Q364 1458 383 1456T423 1450T466 1440T514 1424L504 1366ZM434 948Q434 1014 406 1050T318 1086Q289 1086 258 1076T190 1042Q190 978 197 932T220
856T260 811T318 796Q374 796 404 837T434 948Z" />
<glyph unicode="&#x2077;" glyph-name="seven.superior" horiz-adv-x="568" d="M362 1056Q342 1015 320 970T274 880T227 796T184 725L111 751L394 1365H65V1447H510V1375L362 1056Z" />
<glyph unicode="&#x2078;" glyph-name="eight.superior" horiz-adv-x="600" d="M530 914Q530 871 516 837T473 778T397 740T288 726Q230 726 188 737T120 771T81 826T68 900Q68 934 78 962T107 1014T151 1057T210 1094Q146 1127 116 1171T86 1276Q86 1318 100
1351T141 1409T210 1447T306 1460Q363 1460 403 1448T469 1413T505 1359T516 1288Q516 1230 484 1189T378 1106Q458 1068 494 1025T530 914ZM416 1280Q416 1337 388 1363T296 1390Q245 1390 216 1362T186 1284Q186 1261 192 1242T212 1205T247 1171T300 1138Q361
1171 388 1204T416 1280ZM428 898Q428 926 419 948T393 990T348 1026T284 1062Q225 1029 198 993T170 910Q170 853 204 825T304 796Q332 796 354 803T393 823T419 855T428 898Z" />
<glyph unicode="&#x2079;" glyph-name="nine.superior" horiz-adv-x="596" d="M88 820Q135 810 175 804T246 798Q286 798 317 814T370 864T403 951T414 1078Q370 1055 333 1044T254 1032Q210 1032 176 1045T117 1083T81 1143T68 1222Q68 1275 84 1319T130 1394T201
1441T294 1458Q350 1458 390 1442T459 1387T501 1282T516 1116Q516 1002 497 926T442 806T361 744T258 726Q220 726 175 734T76 764L88 820ZM414 1142Q414 1205 407 1251T384 1328T344 1373T288 1388Q230 1388 200 1348T170 1236Q170 1203 177 1178T199 1135T236
1109T288 1100Q316 1100 344 1109T414 1142Z" />
<glyph unicode="&#x2080;" glyph-name="zero.inferior" horiz-adv-x="622" d="M542 252Q542 154 527 83T483 -34T408 -102T300 -124Q240 -124 197 -107T126 -50T83 61T68 236Q68 334 83 405T128 521T203 588T312 610Q372 610 414 594T484 537T527 428T542 252ZM440
238Q440 327 433 384T409 474T368 520T306 534Q270 534 245 518T203 468T178 381T170 250Q170 162 178 104T202 13T244 -34T306 -48Q342 -48 367 -32T408 19T432 108T440 238Z" />
<glyph unicode="&#x2081;" glyph-name="one.inferior" horiz-adv-x="566" d="M90 -112V-32H250V508L106 456L88 516L272 602H348V-32H492V-112H90Z" />
<glyph unicode="&#x2082;" glyph-name="two.inferior" horiz-adv-x="573" d="M74 -111V-38Q164 50 223 117T316 236T364 327T378 399Q378 438 368 464T340 506T299 527T252 533Q233 533 215 530T178 523T139 512T99 498L86 563Q110 574 133 582T182 597T234 607T294
611Q331 611 365 600T426 566T468 505T484 415Q484 372 470 325T423 224T333 107T194 -30H502V-111H74Z" />
<glyph unicode="&#x2083;" glyph-name="three.inferior" horiz-adv-x="598" d="M79 -23Q106 -30 131 -34T178 -41T220 -45T259 -47Q299 -47 327 -39T373 -14T400 28T408 89Q408 123 400 148T373 190T324 217T253 226H166V295H251Q317 295 352 328T388 422Q388
476 360 505T267 535Q249 535 229 533T188 528T147 520T109 510L94 572Q130 586 181 598T295 611Q344 611 381 598T442 562T479 506T491 435Q491 399 482 372T457 324T421 290T377 270Q409 267 434 252T477 214T503 160T513 98Q513 39 497 -2T451 -70T376 -108T274
-121Q231 -121 182 -114T69 -84L79 -23Z" />
<glyph unicode="&#x2084;" glyph-name="four.inferior" horiz-adv-x="592" d="M454 54V-112H356V54H50V122Q77 181 110 244T178 369T248 490T316 598H454V132H552V54H454ZM356 526Q332 490 304 443T245 344T186 237T132 132H356V526Z" />
<glyph unicode="&#x2085;" glyph-name="five.inferior" horiz-adv-x="580" d="M208 518L194 302Q228 305 248 306T292 308Q344 308 385 295T453 255T495 191T510 104Q510 46 495 3T450 -67T375 -108T268 -122Q248 -122 226 -120T178 -112T126 -98T70 -80L80 -24Q128
-35 174 -40T258 -46Q296 -46 323 -39T370 -17T398 26T408 92Q408 129 399 156T370 202T320 229T250 238Q217 238 181 234T100 222L128 598H460V518H208Z" />
<glyph unicode="&#x2086;" glyph-name="six.inferior" horiz-adv-x="600" d="M504 518Q452 528 421 533T358 538Q317 538 286 522T234 471T202 384T190 258Q232 281 271 292T352 304Q397 304 431 291T489 253T524 192T536 112Q536 59 521 16T476 -59T405 -106T312
-122Q256 -122 216 -106T147 -51T105 54T90 220Q90 333 109 409T163 530T243 592T346 610Q364 610 383 608T423 602T466 592T514 576L504 518ZM434 100Q434 166 406 202T318 238Q289 238 258 228T190 194Q190 130 197 84T220 8T260 -37T318 -52Q374 -52 404 -11T434
100Z" />
<glyph unicode="&#x2087;" glyph-name="seven.inferior" horiz-adv-x="568" d="M362 208Q342 167 320 122T274 32T227 -52T184 -123L111 -97L394 517H65V599H510V527L362 208Z" />
<glyph unicode="&#x2088;" glyph-name="eight.inferior" horiz-adv-x="600" d="M530 66Q530 23 516 -11T473 -70T397 -108T288 -122Q230 -122 188 -111T120 -77T81 -22T68 52Q68 86 78 114T107 166T151 209T210 246Q146 279 116 323T86 428Q86 470 100 503T141
561T210 599T306 612Q363 612 403 600T469 565T505 511T516 440Q516 382 484 341T378 258Q458 220 494 177T530 66ZM416 432Q416 489 388 515T296 542Q245 542 216 514T186 436Q186 413 192 394T212 357T247 323T300 290Q361 323 388 356T416 432ZM428 50Q428 78
419 100T393 142T348 178T284 214Q225 181 198 145T170 62Q170 5 204 -23T304 -52Q332 -52 354 -45T393 -25T419 7T428 50Z" />
<glyph unicode="&#x2089;" glyph-name="nine.inferior" horiz-adv-x="596" d="M88 -28Q135 -38 175 -44T246 -50Q286 -50 317 -34T370 16T403 103T414 230Q370 207 333 196T254 184Q210 184 176 197T117 235T81 295T68 374Q68 427 84 471T130 546T201 593T294
610Q350 610 390 594T459 539T501 434T516 268Q516 154 497 78T442 -42T361 -104T258 -122Q220 -122 175 -114T76 -84L88 -28ZM414 294Q414 357 407 403T384 480T344 525T288 540Q230 540 200 500T170 388Q170 355 177 330T199 287T236 261T288 252Q316 252 344
261T414 294Z" />
<glyph unicode="&#x20ac;" glyph-name="Euro" horiz-adv-x="840" d="M574 859V781H240Q238 752 238 725T238 667Q238 645 238 620T240 573H574V495H247Q257 398 280 321T337 191T416 109T514 80Q544 80 571 90T623 119T670 161T715 215L767 156Q738 115 709 84T646
31T575 -2T495 -14Q424 -14 363 17T255 111T175 270T132 495H17V573H127Q125 592 125 615T125 658Q125 690 125 720T129 781H17V859H134Q149 974 183 1067T265 1227T374 1328T504 1364Q551 1364 592 1348T667 1303T726 1237T769 1160L712 1111Q669 1193 620 1231T514
1270Q459 1270 414 1237T334 1149T277 1018T247 859H574Z" />
<glyph unicode="&#x2122;" glyph-name="trademark" horiz-adv-x="704" d="M562 1020Q562 1054 562 1086T560 1150T557 1217T551 1291L476 1020H416L346 1291Q344 1251 342 1217T338 1151T335 1086T333 1020H282Q285 1102 289 1185T304 1350H387L452 1097L520 1350H601Q609
1269 613 1186T620 1020H562ZM183 1303V1020H122V1303H57V1350H248V1303H183Z" />
<glyph unicode="&#x2126;" glyph-name="Omega" horiz-adv-x="1066" d="M610 0V117Q659 157 702 219T777 362T827 533T845 722Q845 810 836 885T809 1021T764 1128T702 1205T623 1251T527 1267Q481 1267 441 1252T366 1208T305 1135T260 1033T231 904T221 748Q221
640 237 545T285 369T360 226T458 117V0H71V98H363Q302 138 254 200T172 343T121 523T103 730Q103 839 118 929T161 1089T229 1212T318 1297T424 1347T543 1364Q638 1364 715 1328T848 1216T933 1024T963 749Q963 644 946 549T894 370T810 218T699 98H996V0H610Z"
/>
<glyph unicode="&#x2202;" glyph-name="partialdiff" horiz-adv-x="811" d="M282 1425Q380 1375 462 1309T604 1151T697 939T731 659Q731 539 722 442T693 271T645 142T580 54T496 3T396 -14Q325 -14 267 20T167 119T102 272T79 472Q79 586 105 682T179 848T294
957T444 997Q461 997 478 997T511 994T544 990T576 985Q557 1042 525 1093T448 1191T350 1279T235 1356L282 1425ZM621 630Q621 698 616 760T599 880Q580 888 560 894T520 904T478 909T436 911Q392 911 349 882T272 800T216 677T195 521Q195 410 208 326T248 185T316
99T412 70Q461 70 500 103T565 205T606 379T621 630V630Z" />
<glyph unicode="&#x2206;" glyph-name="Delta" horiz-adv-x="879" d="M41 0V74Q74 220 111 380T191 705T277 1033T367 1350H503Q553 1179 599 1015T687 692T766 378T838 74V0H41ZM711 97Q649 379 577 661T423 1226Q399 1133 376 1039T330 851T285 662T242 473T200
285T159 97H711Z" />
<glyph unicode="&#x220f;" glyph-name="product" horiz-adv-x="1099" d="M906 1259V0H793V1259H305V0H193V1259H44V1350H1054V1259H906Z" />
<glyph unicode="&#x2211;" glyph-name="summation" horiz-adv-x="840" d="M65 0V75L478 699L91 1266V1350H726V1254H236L609 704L206 98H738V0H65Z" />
<glyph unicode="&#x2212;" glyph-name="minus" horiz-adv-x="840" d="M69 551V639H771V551H69Z" />
<glyph unicode="&#x2215;" glyph-name="fraction" horiz-adv-x="132" d="M534 1459L600 1419L-364 -126L-432 -86L534 1459Z" />
<glyph unicode="&#x2219;" glyph-name="periodcentered" horiz-adv-x="471" d="M312 597Q312 573 309 558T297 533T273 521T235 517Q212 517 197 520T174 533T163 557T159 595Q159 618 162 634T174 658T198 671T237 675Q260 675 274 672T297 659T309 635T312 597V597Z" />
<glyph unicode="&#x221a;" glyph-name="radical" horiz-adv-x="830" d="M819 1350Q794 1190 763 1022T693 682T609 338T513 0H361L172 901H22V987H260L445 95Q490 256 530 416T603 734T662 1046T704 1350H819Z" />
<glyph unicode="&#x221e;" glyph-name="infinity" horiz-adv-x="1680" d="M1587 611Q1587 532 1565 465T1501 347T1398 268T1260 240Q1205 240 1151 264T1045 327T941 417T841 519Q789 465 735 415T627 326T516 264T403 240Q330 240 273 266T176 337T115 445T93
582Q93 658 114 725T176 843T279 922T421 951Q475 951 529 927T636 863T741 773T845 671Q898 725 951 775T1059 865T1168 927T1278 951Q1351 951 1408 925T1505 853T1566 745T1587 611V611ZM1471 599Q1471 659 1458 705T1418 784T1354 832T1267 849Q1225 849 1183
828T1096 774T1007 696T914 604Q962 555 1008 508T1098 425T1185 366T1267 343Q1321 343 1359 363T1423 418T1459 500T1471 599V599ZM210 592Q210 533 223 487T261 408T324 360T411 343Q453 343 497 363T586 416T677 494T770 587Q721 636 675 683T583 766T495 826T411
849Q358 849 320 829T257 773T222 691T210 592V592Z" />
<glyph unicode="&#x222b;" glyph-name="integral'" horiz-adv-x="661" d="M624 1307Q595 1323 564 1332T504 1341Q436 1341 408 1298T380 1162V-124Q380 -188 368 -239T330 -326T267 -381T175 -400Q149 -400 124 -396T77 -383T34 -366T0 -346L26 -278Q55 -293
86 -302T147 -312Q214 -312 242 -269T271 -133V1153Q271 1217 282 1268T319 1355T383 1410T475 1429Q501 1429 526 1425T574 1413T615 1396T650 1375L624 1307Z" />
<glyph unicode="&#x2248;" glyph-name="approxequal" horiz-adv-x="840" d="M771 804Q743 773 718 751T667 715T616 693T559 686Q524 686 498 694T448 715T405 742T363 770T316 791T260 800Q243 800 228 796T195 781T157 755T113 714L67 770Q94 801 120 823T171
859T222 881T279 888Q313 888 340 880T390 859T433 832T475 804T522 783T578 774Q594 774 609 778T643 793T680 819T725 860L771 804ZM771 421Q743 390 718 368T667 331T616 310T559 302Q524 302 498 310T448 332T405 359T363 386T316 407T260 416Q243 416 228
412T195 397T157 371T113 331L67 386Q94 417 120 439T171 476T222 498T279 505Q313 505 340 497T390 476T433 448T475 421T522 400T578 391Q594 391 609 395T643 410T680 436T725 476L771 421Z" />
<glyph unicode="&#x2260;" glyph-name="notequal" horiz-adv-x="840" d="M363 362L222 51L141 88L267 362H78V448H305L439 742H78V828H477L618 1140L699 1103L573 828H762V742H535L401 448H762V362H363Z" />
<glyph unicode="&#x2264;" glyph-name="lessequal" horiz-adv-x="840" d="M72 0V86H768V0H72ZM706 277L74 633V718L706 1075L753 994L179 676L753 358L706 277Z" />
<glyph unicode="&#x2265;" glyph-name="greaterequal" horiz-adv-x="840" d="M72 0V86H768V0H72ZM134 277L87 357L661 675L87 993L134 1075L766 718V633L134 277Z" />
<glyph unicode="&#x25ca;" glyph-name="lozenge" horiz-adv-x="840" d="M474 0H366L42 677L366 1350H474L798 673L474 0ZM417 1239L155 684L423 111L685 666L417 1239Z" />
<glyph unicode="&#xeeee;" glyph-name="BBox" horiz-adv-x="350" d="M350 1800V-400H0V1800H350Z" />
<glyph unicode="&#xf000;" glyph-name="LuFo" horiz-adv-x="360" d="M360 -400H0V-40H360V-400ZM40 -80V-360H320V-80H40ZM80 -120H120V-280H200V-320H80V-120ZM280 -120V-320H240V-240H160V-200H240V-160H160V-120H280ZM360 1410H0V1770H360V1410ZM40 1730V1450H320V1730H40ZM80
1690H120V1530H200V1490H80V1690ZM280 1690V1490H240V1570H160V1610H240V1650H160V1690H280Z" />
<glyph unicode="&#xf6be;" glyph-name="dotlessj" horiz-adv-x="418" d="M264 74Q264 0 256 -59T229 -169T180 -264T104 -352L38 -308Q91 -246 122 -158T154 34V986H264V74Z" />
<glyph unicode="&#xf6c1;" glyph-name="Scedilla" horiz-adv-x="816" d="M733 354Q733 284 711 218T645 100T535 17T381 -14Q289 -14 215 16T77 95L115 165Q143 147 174 132T238 106T302 89T364 83Q423 83 469 100T546 151T594 233T611 343Q611 409 589 455T531
538T448 602T352 658T257 718T174 793T115 894T93 1034Q93 1103 115 1163T179 1268T280 1338T411 1364Q448 1364 480 1358T544 1342T605 1317T668 1282L638 1212Q585 1239 532 1255T425 1271Q369 1271 329 1253T262 1204T223 1132T210 1044Q210 978 232 931T291
847T375 783T471 726T567 666T650 592T710 492T733 354V354ZM459 -84Q466 -163 436 -229T340 -350L282 -309Q305 -285 321 -259T346 -205T358 -148T359 -84H459Z" />
<glyph unicode="&#xf6c2;" glyph-name="scedilla" horiz-adv-x="669" d="M92 118Q153 95 199 85T288 74Q338 74 375 87T436 126T472 184T484 256Q484 298 468 330T424 385T372 423T292 466T203 518T141 571T97 644T80 742Q80 796 100 843T157 925T245 980T356
1000Q379 1000 403 997T450 988T497 972T544 952L524 884Q506 891 487 897T449 906T410 912T372 914Q329 914 295 902T238 868T204 815T192 750Q192 708 208 676T252 621T305 583T386 541T475 490T537 437T581 364T598 266Q598 205 578 154T520 65T426 7T302 -14Q244
-14 184 3T74 50L92 118ZM370 -84Q377 -163 347 -229T251 -350L193 -309Q216 -285 232 -259T257 -205T269 -148T270 -84H370Z" />
<glyph unicode="&#xf6c9;" glyph-name="acute.cap" horiz-adv-x="525" d="M376 1704L435 1614L127 1464L90 1522L376 1704Z" />
<glyph unicode="&#xf6ca;" glyph-name="caron.cap" horiz-adv-x="654" d="M90 1646L125 1705L329 1576L531 1705L565 1648L327 1465L90 1646Z" />
<glyph unicode="&#xf6cb;" glyph-name="dieresis.cap" horiz-adv-x="627" d="M538 1556Q538 1534 535 1521T526 1501T507 1491T474 1488Q453 1488 441 1491T422 1500T413 1520T410 1554Q410 1576 412 1589T422 1609T441 1619T474 1622Q494 1622 506 1619T525 1609T535
1590T538 1556ZM216 1556Q216 1534 214 1521T205 1501T186 1491T153 1488Q133 1488 121 1491T102 1500T93 1520T90 1554Q90 1576 92 1589T102 1609T121 1619T153 1622Q174 1622 186 1619T204 1609T213 1590T216 1556Z" />
<glyph unicode="&#xf6ce;" glyph-name="grave.cap" horiz-adv-x="524" d="M396 1464L90 1613L152 1704L435 1523L396 1464Z" />
<glyph unicode="&#xf6cf;" glyph-name="hungarumlaut.cap" horiz-adv-x="886" d="M472 1456L435 1504L731 1700L796 1625L472 1456ZM131 1453L90 1496L342 1699L410 1632L131 1453Z" />
<glyph unicode="&#xf6d0;" glyph-name="macron.cap" horiz-adv-x="637" d="M90 1517V1601H548V1517H90Z" />
<glyph unicode="&#xf730;" glyph-name="zero.oldstyle" horiz-adv-x="840" d="M767 569Q767 403 742 292T671 112T558 15T411 -14Q328 -14 265 12T159 105T95 281T73 559Q73 725 98 837T170 1016T282 1113T430 1142Q512 1142 575 1116T681 1024T745 847T767 569V569ZM653
554Q653 699 638 795T594 949T522 1030T420 1054Q362 1054 319 1030T246 950T203 802T188 575Q188 429 202 333T246 180T319 98T420 74Q478 74 521 98T594 178T638 327T653 554V554Z" />
<glyph unicode="&#xf731;" glyph-name="one.oldstyle" horiz-adv-x="840" d="M120 0V93H391V1009L145 908L123 979L417 1129H506V93H750V0H120Z" />
<glyph unicode="&#xf732;" glyph-name="two.oldstyle" horiz-adv-x="840" d="M85 0V83Q192 190 271 273T406 422T498 540T554 637T582 725T590 813Q590 880 572 926T523 999T453 1039T370 1052Q342 1052 316 1049T260 1041T199 1026T127 1004L106 1082Q147 1097
183 1108T254 1127T328 1139T413 1143Q472 1143 525 1124T619 1065T684 965T708 821Q708 765 698 715T665 615T605 511T514 396T388 261T223 96H738V0H85Z" />
<glyph unicode="&#xf733;" glyph-name="three.oldstyle" horiz-adv-x="840" d="M61 -82Q147 -105 217 -116T344 -127Q413 -127 461 -109T541 -54T586 38T600 166Q600 235 586 290T542 383T464 441T346 461H230V549H341Q396 549 438 566T507 618T549 704T563 821Q563
874 553 916T517 989T452 1036T352 1053Q326 1053 294 1049T229 1039T164 1024T110 1006L91 1081Q114 1091 146 1102T217 1122T300 1137T393 1143Q468 1143 522 1119T612 1053T664 956T681 840Q681 766 666 710T624 614T563 551T489 519Q549 516 592 487T665 411T708
305T722 183Q722 86 700 10T633 -119T522 -200T366 -229Q334 -229 300 -225T226 -211T143 -188T49 -155L61 -82Z" />
<glyph unicode="&#xf734;" glyph-name="four.oldstyle" horiz-adv-x="840" d="M623 1128V202H796V108H623V-220H513V108H46V193Q94 324 147 450T254 695T362 923T467 1128H623ZM513 1031Q472 952 426 856T331 654T234 433T141 202H513V1031Z" />
<glyph unicode="&#xf735;" glyph-name="five.oldstyle" horiz-adv-x="840" d="M244 1032L219 581Q235 584 254 586T295 590T339 593T385 594Q471 594 535 566T643 487T709 362T731 197Q731 90 708 11T638 -122T524 -201T366 -227Q305 -227 230 -213T58 -164L70
-92Q154 -111 225 -122T355 -133Q419 -133 467 -117T548 -65T596 30T613 175Q613 250 598 310T550 413T468 478T348 501Q319 501 290 500T233 494T174 485T112 472L149 1128H247H654V1032H244Z" />
<glyph unicode="&#xf736;" glyph-name="six.oldstyle" horiz-adv-x="840" d="M718 1229Q661 1246 603 1256T489 1266Q424 1266 373 1236T286 1136T230 952T207 669Q242 694 275 712T340 743T404 762T470 769Q538 769 591 745T680 676T736 565T755 415Q755 313
732 234T665 99T560 15T422 -14Q368 -14 323 -1T241 43T178 122T133 241T105 405T96 617Q96 768 110 882T149 1079T210 1216T288 1302T380 1347T481 1361Q534 1361 593 1347T730 1305L718 1229ZM208 579Q211 440 225 344T267 187T337 101T437 74Q489 74 527 96T591
159T630 258T643 387Q643 458 630 512T592 603T528 659T439 679Q415 679 390 674T337 657T276 626T208 581V579Z" />
<glyph unicode="&#xf737;" glyph-name="seven.oldstyle" horiz-adv-x="840" d="M514 396Q498 355 477 305T431 200T381 87T330 -27T281 -136T237 -233L158 -208L648 1032H70V1128H774V1042L514 396Z" />
<glyph unicode="&#xf738;" glyph-name="eight.oldstyle" horiz-adv-x="840" d="M766 325Q766 254 745 193T679 85T569 13T412 -14Q325 -14 261 8T156 73T94 173T74 300Q74 376 94 433T150 537T231 620T330 693Q286 722 245 754T171 827T119 921T99 1042Q99 1110
119 1169T181 1271T284 1339T429 1364Q518 1364 578 1339T674 1273T725 1177T741 1063Q741 997 722 946T671 852T596 775T507 708Q558 675 604 639T687 558T744 456T766 325V325ZM657 310Q657 374 637 423T583 510T504 581T411 642Q368 613 328 582T255 512T203
424T183 312Q183 257 198 213T244 138T319 90T421 72Q475 72 518 89T592 138T640 213T657 310V310ZM418 1279Q367 1279 328 1263T262 1217T221 1146T207 1055Q207 999 226 956T275 877T345 813T425 756Q471 788 509 819T575 886T618 962T633 1055Q633 1105 620
1146T581 1216T514 1262T418 1279V1279Z" />
<glyph unicode="&#xf739;" glyph-name="nine.oldstyle" horiz-adv-x="840" d="M107 -97Q144 -108 177 -116T240 -129T298 -136T355 -139Q420 -139 471 -109T558 -8T614 176T637 459Q601 435 569 417T504 385T440 366T374 360Q306 360 253 383T164 452T108 563T89
713Q89 815 112 895T178 1030T283 1113T421 1142Q476 1142 521 1129T603 1085T666 1006T711 887T739 724T748 512Q748 360 734 246T695 49T633 -88T555 -175T463 -221T362 -234Q333 -234 303 -231T239 -219T170 -200T94 -172L107 -97ZM200 741Q200 670 212 616T251
524T315 469T405 450Q451 450 507 472T635 548V548Q633 688 619 784T577 941T507 1027T406 1054Q354 1054 316 1032T252 969T213 870T200 741V741Z" />
<glyph unicode="&#xf8ff;" glyph-name="" horiz-adv-x="1480" d="M977 217L1034 66L978 48L1031 -94L974 -113L998 -172L942 -313H837Q835 -332 829 -348T810 -375T781 -393T740 -400Q716 -400 699 -394T671 -376T652 -348T644 -313H538L448 -49L505 -33L448 128L510
148L474 252V352Q437 397 410 445T365 546T339 654T330 773Q330 846 344 917T385 1053T449 1171T532 1264T631 1326T740 1348Q797 1348 849 1326T947 1265T1030 1171T1095 1053T1136 918T1151 773Q1151 711 1142 655T1114 546T1069 445T1005 351V229L977 217ZM784
793Q772 794 761 794T739 795Q728 795 719 795T696 793L706 397H774L784 793ZM43 736Q43 749 43 762T43 788T43 814T43 840L248 827Q248 817 248 808T247 788T247 769T248 749L43 736ZM157 1427Q165 1436 173 1445T190 1464T207 1482T225 1500L362 1329Q356 1323
350 1316T338 1303T325 1289T313 1276L157 1427ZM776 1529Q767 1530 758 1530T740 1530T722 1530T704 1529L692 1757Q692 1757 706 1758T740 1760Q762 1760 775 1759T788 1757L776 1529ZM1167 1276Q1161 1282 1155 1289T1143 1302T1130 1316T1117 1329L1255 1500Q1263
1491 1271 1482T1289 1464T1306 1446T1323 1427L1167 1276ZM1232 750Q1232 760 1232 769T1233 788T1233 807T1232 826L1437 838Q1437 826 1437 814T1437 788T1437 763T1437 738L1232 750ZM946 397Q974 432 996 476T1035 568T1059 668T1068 773Q1068 872 1041 960T969
1115T865 1220T740 1259Q675 1259 616 1221T511 1116T439 961T412 773Q412 720 421 668T446 567T485 475T535 397H636L624 779Q606 775 593 771T566 761Q557 758 552 761T543 772T538 788T538 806T542 822T550 832Q575 842 597 849T641 861T687 868T740 871Q769
871 793 869T840 862T883 850T931 832Q936 830 938 823T942 807T942 789T938 772T929 762T915 761Q901 767 888 771T856 779L844 397H946ZM925 333H556V261L584 171L925 272V333ZM898 197L542 92L578 -6L934 96L898 197ZM902 23L544 -82L598 -243H885L910 -169L899
-134L786 -172L764 -121L938 -69L902 23ZM758 824Q760 831 758 838H756Q758 831 756 824H758ZM756 834Q751 835 751 834T752 831T754 828T752 828V826Q756 825 756 826T756 828T754 831T756 832V834ZM750 832Q750 837 744 834V832Q748 834 748 832Q744 832 744
828Q744 825 746 825T748 828V826H750V832ZM744 824Q742 831 744 838H742Q740 831 742 824H744ZM740 828Q737 826 737 830T740 832V834Q734 835 734 829T740 826V828ZM734 834H732V828Q732 826 731 826T730 828V834H728V828Q728 825 731 825T734 828V834ZM726 828H724V836H722V826H726V828ZM746
828Q746 828 746 829T748 830Q748 828 747 827T746 828V828Z" />
<glyph unicode="&#xfb00;" glyph-name="f_f" horiz-adv-x="938" d="M980 1308Q950 1324 920 1333T860 1342Q794 1342 765 1299T736 1162V986H922V904H736V0H628V904H282V0H172V904H26V986H172V1144Q172 1209 184 1259T221 1346T285 1401T376 1420Q423 1420 468
1405T548 1368L522 1298Q494 1314 464 1323T406 1332Q340 1332 311 1289T282 1152V986H628V1154Q628 1219 640 1269T677 1356T741 1411T832 1430Q857 1430 882 1426T930 1413T972 1395T1008 1374L980 1308Z" />
<glyph unicode="&#xfb01;" glyph-name="fi" horiz-adv-x="892" d="M628 0V904H282V0H172V904H26V986H172V1154Q172 1219 184 1269T221 1356T285 1411T376 1430Q422 1430 467 1415T544 1378L520 1308Q490 1324 461 1333T404 1342Q339 1342 310 1299T280 1162V986H736V0H628ZM752
1246Q752 1223 749 1210T739 1190T718 1179T682 1176Q659 1176 646 1178T626 1188T617 1209T614 1246Q614 1269 616 1282T626 1302T646 1313T682 1316Q705 1316 718 1314T738 1304T749 1283T752 1246Z" />
<glyph unicode="&#xfb02;" glyph-name="fl" horiz-adv-x="920" d="M864 2Q852 -1 839 -3T811 -8T784 -11T760 -12Q722 -12 698 -4T659 24T636 83T628 182V1328Q610 1331 590 1333T548 1338T507 1341T472 1342Q424 1342 390 1329T331 1287T295 1207T282 1084V986H464V904H282V0H172V904H26V986H172V1062Q172
1154 188 1222T238 1336T327 1406T460 1430Q477 1430 497 1429T540 1427T583 1423T632 1418H736V224Q736 176 739 148T749 104T770 82T806 76Q820 76 834 76T862 76L864 2Z" />
<glyph unicode="&#xfb03;" glyph-name="f_f_i" horiz-adv-x="1346" d="M1082 0V904H736V0H628V904H282V0H172V904H26V986H172V1144Q172 1209 184 1259T221 1346T285 1401T376 1420Q423 1420 468 1405T548 1368L522 1298Q494 1314 464 1323T406 1332Q340 1332 311
1289T282 1152V986H628V1154Q628 1219 640 1269T677 1356T741 1411T832 1430Q878 1430 923 1415T1000 1378L974 1308Q945 1324 916 1333T860 1342Q794 1342 765 1299T736 1162V986H1192V0H1082ZM1206 1246Q1206 1223 1204 1210T1194 1190T1174 1179T1138 1176Q1115
1176 1102 1178T1082 1188T1071 1209T1068 1246Q1068 1269 1071 1282T1081 1302T1102 1313T1138 1316Q1161 1316 1174 1314T1194 1304T1203 1283T1206 1246Z" />
<glyph unicode="&#xfb04;" glyph-name="f_f_l" horiz-adv-x="1376" d="M1318 2Q1307 -1 1294 -3T1267 -8T1240 -11T1216 -12Q1178 -12 1153 -4T1113 24T1090 83T1082 182V1328Q1065 1331 1045 1333T1004 1338T964 1341T928 1342Q880 1342 845 1329T786 1287T749
1207T736 1084V986H918V904H736V0H628V904H282V0H172V904H26V986H172V1144Q172 1209 184 1259T221 1346T285 1401T376 1420Q423 1420 468 1405T548 1368L522 1298Q494 1314 464 1323T406 1332Q340 1332 311 1289T282 1152V986H628V1062Q628 1154 644 1222T694 1336T783
1406T916 1430Q932 1430 952 1429T995 1427T1039 1423T1088 1418H1192V224Q1192 176 1195 148T1205 104T1225 82T1260 76Q1274 76 1288 76T1316 76L1318 2Z" />
<glyph unicode="&#xfb06;" glyph-name="s_t" horiz-adv-x="1222" d="M1176 38Q1121 11 1080 0T1000 -12Q948 -12 912 2T854 48T822 129T812 252V904H678V986H812V1064Q812 1137 799 1189T763 1274T706 1321T632 1336Q594 1336 562 1323T507 1283T471 1221T458
1140Q458 1107 465 1078T484 1025T511 983T542 950L524 886Q506 893 487 898T448 906T409 912T372 914Q329 914 295 902T238 868T204 815T192 750Q192 708 208 676T252 621T305 583T386 541T475 490T537 437T581 364T598 266Q598 205 578 154T520 65T426 7T302
-14Q244 -14 184 3T74 50L92 118Q153 95 199 85T288 74Q338 74 375 87T436 126T472 184T484 256Q484 298 468 330T424 385T372 423T292 466T203 518T141 571T97 644T80 742Q80 796 100 843T157 925T245 980T356 1000Q373 1000 387 999T412 995T428 991T436 988Q405
1010 387 1051T368 1144Q368 1206 389 1257T447 1344T535 1399T644 1418Q706 1418 756 1400T844 1342T901 1235T922 1074V986H1154V904H922V282Q922 222 926 184T943 122T976 87T1030 76Q1053 76 1082 83T1160 108L1176 38Z" />
<glyph unicode="&#xfeff;" glyph-name="uniFEFF" horiz-adv-x="0" />
</font>
</defs>
</svg>
