<?xml version="1.0" standalone="no"?> <!DOCTYPE svg PUBLIC "-//W3C//DTD SVG 1.0//EN" "http://www.w3.org/TR/2001/REC-SVG-20010904/DTD/svg10.dtd" > <svg xmlns="http://www.w3.org/2000/svg" width="100%" height="100%">
<defs >
<font id="SunAntwerpenCd_500" horiz-adv-x="818" ><font-face
    font-family="SunAntwerpenCd"
    units-per-em="2000"
    panose-1="2 11 5 3 5 3 2 2 2 4"
    ascent="1800"
    descent="-400"
    alphabetic="0" />
<missing-glyph horiz-adv-x="1100" d="M900 200V900H200V200H900ZM500 700V800H800V300H700V500H500V600H700V700H500ZM100 100V1000H1000V100H100ZM300 300V800H400V400H600V300H300Z" />
<glyph unicode="&#xd;" glyph-name="CR" horiz-adv-x="0" />
<glyph unicode=" " glyph-name="space" horiz-adv-x="414" />
<glyph unicode="!" glyph-name="exclam" horiz-adv-x="600" d="M294 297L266 1350H449L421 297H294ZM455 84Q455 55 451 37T435 7T406 -8T357 -13Q328 -13 309 -9T280 7T265 36T260 83Q260 111 264 130T280 160T310 175T358 180Q388 180 406 176T436 160T451 131T455
84V84Z" />
<glyph unicode="&quot;" glyph-name="quotedbl" horiz-adv-x="738" d="M163 850L145 1350H295L275 850H163ZM461 850L443 1350H593L573 850H461Z" />
<glyph unicode="#" glyph-name="numbersign" horiz-adv-x="840" d="M610 383L571 0H459L497 383H284L245 0H134L171 383H51V489H182L222 887H51V992H232L268 1350H381L345 992H558L594 1350H706L671 992H789V887H660L620 489H789V383H610ZM548 887H334L294 489H508L548
887Z" />
<glyph unicode="$" glyph-name="dollar" horiz-adv-x="840" d="M359 -201L349 12Q269 16 200 45T73 117L119 207Q145 191 175 177T236 154T299 139T358 133Q413 133 456 146T530 185T576 250T593 341Q593 397 571 437T514 508T433 564T339 616T246 672T165 742T107
837T85 967Q85 1026 104 1077T158 1168T241 1236T349 1272L359 1485H450L461 1275Q526 1269 583 1245T683 1192L643 1104Q623 1116 597 1126T543 1144T486 1156T430 1161Q383 1161 347 1147T286 1109T250 1052T238 981Q238 925 260 884T318 812T401 755T495 704T590
648T672 578T731 484T753 354Q753 294 734 238T677 136T586 59T461 17L450 -201H359Z" />
<glyph unicode="%" glyph-name="percent" horiz-adv-x="1378" d="M614 1037Q614 864 545 779T347 693Q280 693 231 714T151 776T105 879T90 1023Q90 1109 108 1173T160 1281T243 1345T357 1367Q425 1367 473 1346T553 1284T599 1181T614 1037V1037ZM497 1026Q497
1088 489 1133T463 1207T419 1251T354 1265Q316 1265 289 1252T244 1210T217 1138T208 1034Q208 972 216 927T241 853T286 809T351 795Q387 795 415 808T461 850T488 921T497 1026V1026ZM1287 328Q1287 155 1218 70T1020 -16Q952 -16 904 4T824 66T778 169T763
313Q763 400 781 464T832 571T916 636T1030 658Q1098 658 1146 637T1226 575T1272 472T1287 328V328ZM1169 316Q1169 379 1161 424T1136 498T1091 541T1027 556Q989 556 962 543T917 501T890 429T881 325Q881 262 889 218T914 144T959 100T1024 86Q1060 86 1088
99T1134 140T1160 211T1169 316V316ZM291 -56L198 -4L1079 1415L1171 1362L291 -56Z" />
<glyph unicode="&amp;" glyph-name="ampersand" horiz-adv-x="1168" d="M1004 752Q1004 686 994 619T965 485T918 358T853 241Q915 180 964 144T1044 108H1097V5Q1089 1 1078 -3T1055 -10T1030 -14T1001 -16Q977 -16 951 -6T894 24T831 71T761 135Q727 100 688
72T607 25T519 -5T427 -16Q341 -16 277 11T171 86T109 196T88 333Q88 402 105 459T151 564T218 651T298 726Q264 783 240 830T201 917T180 991T173 1056Q173 1124 194 1180T254 1278T348 1343T472 1366Q543 1366 593 1343T676 1285T723 1206T738 1122Q738 1051
714 995T652 891T566 804T468 724Q498 674 534 625T607 527T682 433T758 347Q783 389 802 438T834 539T855 645T863 752H1004ZM232 357Q232 298 248 251T293 170T363 120T455 103Q486 103 516 111T574 134T628 171T678 220Q636 264 594 313T512 413T434 518T363
623Q335 598 312 571T270 511T242 441T232 357V357ZM597 1106Q597 1132 589 1159T565 1209T522 1245T459 1259Q422 1259 395 1244T349 1205T323 1149T314 1081Q314 1056 319 1029T335 971T364 904T407 822Q444 854 478 885T539 950T581 1022T597 1106V1106Z" />
<glyph unicode="&apos;" glyph-name="quotesingle" horiz-adv-x="454" d="M172 850L155 1350H300L281 850H172Z" />
<glyph unicode="(" glyph-name="parenleft" horiz-adv-x="518" d="M344 -342Q292 -248 251 -143T182 76T139 308T124 548Q124 668 139 789T182 1025T252 1248T346 1451L444 1413Q401 1321 368 1219T311 1008T275 785T262 554Q262 440 275 326T311 103T368 -110T444
-305L344 -342Z" />
<glyph unicode=")" glyph-name="parenright" horiz-adv-x="518" d="M73 -305Q116 -213 150 -111T207 100T243 323T256 555Q256 668 243 782T207 1005T149 1218T73 1413L174 1451Q226 1357 267 1251T336 1032T378 800T393 561Q393 440 378 319T335 83T266 -140T172
-342L73 -305Z" />
<glyph unicode="*" glyph-name="asterisk" horiz-adv-x="840" d="M681 778L471 953L491 652H348L368 952L159 778L84 897L326 1036L84 1167L159 1291L368 1119L348 1418H491L472 1120L681 1291L756 1167L513 1037L756 899L681 778Z" />
<glyph unicode="+" glyph-name="plus" horiz-adv-x="840" d="M482 540V169H358V540H64V653H358V1018H482V653H776V540H482Z" />
<glyph unicode="," glyph-name="comma" horiz-adv-x="444" d="M65 -226Q101 -198 124 -173T161 -126T180 -84T186 -41Q186 -17 179 -6T162 16T146 40T138 83Q138 111 143 130T160 161T190 178T236 183Q264 183 283 178T313 161T329 130T334 81Q334 21 324 -28T290
-122T225 -208T122 -293L65 -226Z" />
<glyph unicode="-" glyph-name="hyphen" horiz-adv-x="378" d="M39 529V649H382V529H39Z" />
<glyph unicode="." glyph-name="period" horiz-adv-x="446" d="M334 86Q334 56 330 37T315 7T285 -8T235 -13Q206 -13 187 -9T157 7T142 36T138 84Q138 112 142 131T157 162T188 178T237 183Q267 183 286 179T315 163T330 133T334 86V86Z" />
<glyph unicode="/" glyph-name="slash" horiz-adv-x="840" d="M117 -208H-14L695 1418H827L117 -208Z" />
<glyph unicode="0" glyph-name="zero" horiz-adv-x="840" d="M779 684Q779 493 759 360T694 143T581 21T412 -17Q348 -17 297 -2T207 48T140 135T95 265T70 440T61 666Q61 857 81 990T146 1207T259 1329T428 1367Q524 1367 591 1332T699 1215T760 1004T779 684V684ZM629
673Q629 778 625 861T610 1009T583 1118T543 1191T489 1233T419 1247Q380 1247 350 1234T296 1193T257 1121T231 1013T216 866T211 677Q211 520 222 410T257 232T322 134T421 103Q460 103 490 116T544 157T583 229T609 337T624 484T629 673V673Z" />
<glyph unicode="1" glyph-name="one" horiz-adv-x="840" d="M755 128V0H108V128H366V1193L134 1099L102 1196L402 1351H524V128H755Z" />
<glyph unicode="2" glyph-name="two" horiz-adv-x="840" d="M69 0V115Q162 238 234 341T361 530T452 687T512 817T546 927T556 1021Q556 1083 539 1125T493 1192T425 1228T344 1239Q319 1239 294 1236T239 1227T178 1213T107 1191L87 1297Q128 1313 165 1326T239
1348T312 1361T393 1366Q464 1366 524 1346T628 1284T696 1180T720 1033Q720 950 695 864T615 673T470 436T250 134H740V0H69Z" />
<glyph unicode="3" glyph-name="three" horiz-adv-x="840" d="M61 160Q130 137 197 125T337 113Q390 113 433 128T507 176T555 261T572 386Q572 450 560 500T519 584T447 637T340 656H220V778H335Q386 778 424 794T488 842T527 920T540 1027Q540 1075 530 1114T497
1181T437 1224T347 1240Q321 1240 290 1236T227 1226T165 1211T110 1192L87 1298Q114 1310 148 1322T221 1344T306 1360T400 1366Q479 1366 536 1341T630 1273T684 1172T701 1050Q701 981 687 927T648 833T589 768T516 732Q574 727 615 698T685 624T726 522T740
403Q740 305 717 228T647 96T530 13T367 -16Q330 -16 292 -12T213 2T132 27T48 62L61 160Z" />
<glyph unicode="4" glyph-name="four" horiz-adv-x="840" d="M639 1350V449H793V319H639V0H489V319H31V441Q75 567 122 688T219 925T318 1147T416 1350H639ZM490 1224Q453 1147 411 1057T325 867T239 662T157 449H490V1224Z" />
<glyph unicode="5" glyph-name="five" horiz-adv-x="840" d="M669 1216H269L247 812Q278 817 317 820T397 824Q485 824 550 796T659 714T725 586T747 417Q747 309 722 228T649 92T531 11T370 -16Q308 -16 230 1T54 57L68 150Q154 131 223 121T350 110Q408 110
453 125T527 174T571 263T586 397Q586 467 572 522T529 616T454 675T346 696Q317 696 289 694T231 689T171 679T106 666L143 1350H276H669V1216Z" />
<glyph unicode="6" glyph-name="six" horiz-adv-x="840" d="M729 1204Q669 1221 611 1231T496 1241Q438 1241 391 1209T311 1110T259 939T238 693Q270 715 301 733T362 763T425 781T492 788Q560 788 612 764T700 693T753 579T772 426Q772 323 748 241T678 102T570
15T429 -16Q374 -16 327 -4T242 37T176 114T128 233T98 403T87 629Q87 776 101 888T142 1082T204 1218T285 1306T379 1352T482 1366Q539 1366 601 1351T744 1302L729 1204ZM240 569Q240 449 252 361T290 215T353 129T442 101Q487 101 520 121T575 180T609 273T621
398Q621 464 610 514T577 597T521 647T439 664Q418 664 396 659T350 644T299 618T240 578V569Z" />
<glyph unicode="7" glyph-name="seven" horiz-adv-x="840" d="M536 597Q519 555 499 507T456 406T408 298T358 189T309 82T261 -17L156 19L609 1216H66V1350H781V1228L536 597Z" />
<glyph unicode="8" glyph-name="eight" horiz-adv-x="840" d="M777 336Q777 261 755 197T687 86T573 11T411 -17Q320 -17 255 6T147 72T84 175T63 308Q63 381 82 437T133 538T208 619T301 689Q260 717 222 748T155 821T107 913T88 1032Q88 1103 109 1164T172 1270T279
1341T430 1367Q521 1367 582 1342T681 1275T735 1176T752 1057Q752 991 735 941T688 849T619 774T537 711Q584 680 627 645T704 565T757 465T777 336V336ZM631 318Q631 376 613 421T565 501T494 566T409 622Q372 595 336 567T272 503T226 423T209 320Q209 270 222
230T263 160T330 115T421 99Q469 99 507 115T573 160T616 229T631 318V318ZM418 1253Q373 1253 338 1238T280 1196T244 1132T232 1048Q232 996 248 957T292 885T354 827T427 776Q467 804 500 832T558 893T595 963T608 1048Q608 1093 597 1130T562 1195T503 1238T418
1253V1253Z" />
<glyph unicode="9" glyph-name="nine" horiz-adv-x="840" d="M92 151Q132 141 165 134T229 122T287 115T343 112Q400 112 447 142T529 239T582 408T603 659Q571 635 541 618T480 588T417 569T351 563Q284 563 232 587T144 658T88 772T68 925Q68 1031 92 1113T161
1252T269 1337T409 1366Q466 1366 513 1354T599 1312T665 1234T713 1114T743 947T753 726Q753 581 739 470T698 277T635 138T553 48T456 -1T347 -16Q319 -16 289 -12T226 0T156 22T78 55L92 151ZM600 784Q600 904 588 991T550 1136T487 1220T400 1247Q354 1247
320 1228T264 1170T230 1078T219 954Q219 886 230 837T264 754T321 705T401 688Q421 688 443 692T489 707T540 734T600 774V784Z" />
<glyph unicode=":" glyph-name="colon" horiz-adv-x="482" d="M366 906Q366 876 362 858T346 829T318 814T273 809Q248 809 231 813T202 828T186 857T181 904Q181 932 186 951T202 981T231 996T275 1001Q300 1001 318 997T346 982T361 953T366 906V906ZM366 85Q366
56 362 38T346 8T318 -7T273 -12Q248 -12 231 -8T202 8T186 37T181 84Q181 112 186 131T202 160T231 176T275 181Q300 181 318 177T346 161T361 132T366 85V85Z" />
<glyph unicode=";" glyph-name="semicolon" horiz-adv-x="518" d="M365 906Q365 876 360 858T344 829T316 814T272 809Q246 809 229 813T201 828T185 857T180 904Q180 932 185 951T201 981T229 996T273 1001Q299 1001 316 997T344 982T360 953T365 906V906ZM101
-233Q137 -205 161 -179T200 -130T221 -85T227 -41Q227 -25 224 -15T215 2T204 15T192 29T184 50T180 81Q180 109 185 128T202 158T230 175T272 180Q297 180 314 175T343 159T359 128T365 79Q365 28 355 -20T320 -115T256 -205T158 -293L101 -233Z" />
<glyph unicode="&lt;" glyph-name="less" horiz-adv-x="840" d="M710 145L63 543V650L712 1048L776 936L211 597L776 259L710 145Z" />
<glyph unicode="=" glyph-name="equal" horiz-adv-x="840" d="M75 728V842H765V728H75ZM75 352V465H765V352H75Z" />
<glyph unicode="&gt;" glyph-name="greater" horiz-adv-x="840" d="M131 145L67 258L632 596L67 934L132 1048L780 650V543L131 145Z" />
<glyph unicode="?" glyph-name="question" horiz-adv-x="780" d="M680 1054Q680 983 660 930T611 832T547 748T482 664T432 567T410 445L407 297H279L274 453Q271 520 288 576T332 679T391 768T451 852T498 935T517 1024Q517 1073 504 1111T467 1175T407 1215T325
1229Q292 1229 262 1225T205 1215T155 1202T115 1189L78 1290Q117 1307 151 1320T219 1343T288 1356T363 1361Q445 1361 505 1339T603 1276T661 1179T680 1054V1054ZM441 84Q441 55 437 37T421 7T391 -8T342 -13Q313 -13 295 -9T265 7T250 36T246 83Q246 111 250
130T265 160T295 175T344 180Q373 180 392 176T421 160T436 131T441 84V84Z" />
<glyph unicode="@" glyph-name="at" horiz-adv-x="1668" d="M1250 -202Q1199 -230 1143 -252T1026 -289T902 -313T775 -321Q661 -321 570 -298T406 -230T281 -123T194 22T143 201T126 410Q126 546 151 675T223 916T341 1121T502 1281T704 1384T946 1421Q1094 1421
1201 1376T1377 1249T1479 1056T1512 814Q1512 672 1485 551T1397 341T1241 202T1012 151H944L945 338Q921 299 892 263T831 200T762 157T686 140Q631 140 593 162T530 225T493 323T481 452Q481 582 509 684T589 855T716 960T883 997Q951 997 1013 989T1129 963L1063
266Q1119 266 1164 286T1244 340T1303 422T1344 526T1368 645T1376 774Q1376 846 1366 914T1334 1041T1278 1151T1193 1236T1076 1291T926 1311Q813 1311 721 1276T556 1180T427 1035T336 854T281 652T263 440Q263 294 292 174T387 -31T556 -164T810 -211Q858 -211
911 -204T1017 -184T1124 -152T1225 -112L1250 -202ZM977 864Q960 870 931 875T867 880Q813 880 769 855T694 780T646 653T628 476Q628 423 634 384T652 317T684 277T731 263Q757 263 785 282T841 332T893 403T939 486L977 864Z" />
<glyph unicode="A" glyph-name="A" horiz-adv-x="916" d="M724 0Q717 38 710 75T695 148T679 222T661 297H237Q222 225 207 152T177 0H26Q59 159 97 329T177 672T265 1016T358 1350H550Q601 1170 647 999T736 660T816 328T889 0H724ZM638 421Q615 514 591 610T543
803T492 997T440 1191Q419 1104 397 1010T351 816T306 617T262 421H638Z" />
<glyph unicode="B" glyph-name="B" horiz-adv-x="944" d="M151 1350H477Q564 1350 626 1325T727 1257T786 1157T805 1036Q805 973 791 924T752 837T692 772T617 728Q673 718 719 691T797 622T847 526T864 408Q864 320 838 245T758 114T619 28T419 -4Q383 -4 348
-4T279 -2T213 -1T151 0V1350ZM305 769H421Q483 769 526 789T596 844T635 923T647 1014Q647 1057 636 1095T600 1163T540 1210T454 1228H305V769ZM305 127Q305 127 318 126T351 124T397 122T450 121Q516 121 563 141T641 197T687 283T702 394Q702 448 688 495T642
576T560 629T440 648H305V127Z" />
<glyph unicode="C" glyph-name="C" horiz-adv-x="808" d="M761 167Q734 126 702 92T633 34T551 -3T454 -16Q370 -16 302 26T186 152T111 362T84 656Q84 838 116 971T203 1192T328 1323T478 1366Q521 1366 559 1354T632 1317T694 1258T747 1176L668 1102Q629 1167
587 1199T485 1232Q454 1232 425 1218T369 1174T321 1101T282 996T257 859T247 691Q247 554 263 448T309 268T383 157T484 118Q517 118 545 127T598 153T647 194T694 249L761 167Z" />
<glyph unicode="D" glyph-name="D" horiz-adv-x="978" d="M150 1350Q192 1350 285 1351T426 1352Q507 1352 574 1331T694 1271T785 1174T849 1046T886 890T898 708Q898 536 866 403T769 180T609 43T388 -4Q359 -4 330 -4T259 -2T194 -1T150 0V1350ZM306 132Q333
129 359 128T412 126Q490 126 550 160T651 264T714 439T736 684Q736 762 728 831T704 961T661 1069T599 1152T515 1205T408 1224Q389 1224 371 1224T339 1223T317 1223T306 1222V132Z" />
<glyph unicode="E" glyph-name="E" horiz-adv-x="772" d="M150 0V1350H686V1220H308V766H618V638H308V132H692V0H150Z" />
<glyph unicode="F" glyph-name="F" horiz-adv-x="708" d="M309 1219V748H610V619H309V0H151V1350H661V1219H309Z" />
<glyph unicode="G" glyph-name="G" horiz-adv-x="932" d="M819 126Q789 94 754 68T678 23T591 -6T490 -16Q395 -16 320 25T192 150T112 360T84 659Q84 847 119 980T213 1200T349 1326T509 1366Q556 1366 599 1353T680 1318T750 1266T808 1202L737 1126Q711 1151
685 1172T631 1207T574 1228T514 1236Q453 1236 403 1202T317 1098T262 927T242 692Q242 540 261 431T315 252T399 148T511 115Q537 115 560 119T604 132T640 150T667 173V608H507V721H819V126Z" />
<glyph unicode="H" glyph-name="H" horiz-adv-x="1050" d="M741 0V646H309V0H151V1350H309V776H741V1350H899V0H741Z" />
<glyph unicode="I" glyph-name="I" horiz-adv-x="460" d="M151 0V1350H310V0H151Z" />
<glyph unicode="J" glyph-name="J" horiz-adv-x="464" d="M313 138Q313 59 305 -9T277 -136T224 -248T141 -348L61 -282Q90 -244 108 -199T136 -102T150 10T154 140V1350H313V138Z" />
<glyph unicode="K" glyph-name="K" horiz-adv-x="850" d="M655 0L309 674H307V0H151V1350H307V742H309L633 1350H808L450 736L837 0H655Z" />
<glyph unicode="L" glyph-name="L" horiz-adv-x="664" d="M151 0V1350H310V130H651V0H151Z" />
<glyph unicode="M" glyph-name="M" horiz-adv-x="1430" d="M1142 0Q1140 104 1137 210T1130 421T1121 625T1109 817T1096 991T1083 1142H1081L772 0H634L326 1142H324Q316 1029 309 896T295 615T285 313T278 0H126Q130 161 137 331T154 673T179 1016T211 1350H423L717
280H719L1016 1350H1217Q1234 1187 1248 1016T1273 673T1291 331T1303 0H1142Z" />
<glyph unicode="N" glyph-name="N" horiz-adv-x="1072" d="M752 0L410 830Q384 895 360 953T318 1059Q297 1114 279 1162H277Q279 1112 281 1057Q283 1009 284 948T285 823V0H151V1350H364L662 633Q686 575 709 516T751 410Q773 354 793 303H795Q793 357 791 415Q789
464 788 523T787 640V1350H921V0H752Z" />
<glyph unicode="O" glyph-name="O" horiz-adv-x="1048" d="M964 693Q964 563 948 460T903 278T832 143T741 52T634 1T514 -16Q415 -16 336 21T200 138T114 347T84 656Q84 787 100 890T145 1072T216 1206T307 1297T414 1349T534 1366Q633 1366 712 1329T848 1211T934
1003T964 693V693ZM804 656Q804 808 785 917T730 1097T641 1201T518 1235Q458 1235 408 1204T321 1106T264 938T244 694Q244 592 252 510T277 363T317 252T373 175T444 130T530 115Q590 115 640 146T727 243T784 412T804 656V656Z" />
<glyph unicode="P" glyph-name="P" horiz-adv-x="884" d="M150 0V1350Q177 1350 207 1350T284 1350T363 1351T424 1352Q536 1352 616 1323T745 1239T817 1111T840 946Q840 851 814 771T731 631T584 538T370 504H308V0H150ZM308 630H400Q472 630 524 650T610 708T660
802T676 930Q676 1001 661 1055T614 1147T528 1204T398 1224H308V630Z" />
<glyph unicode="Q" glyph-name="Q" horiz-adv-x="1048" d="M1108 -307Q1053 -269 1002 -257T904 -245Q873 -245 845 -247T788 -250Q750 -250 714 -243T644 -211T575 -140T507 -16Q411 -15 333 22T200 139T114 347T84 656Q84 787 100 890T145 1072T216 1206T307
1297T414 1349T534 1366Q633 1366 712 1329T848 1211T934 1003T964 693Q964 573 951 477T913 307T856 179T783 87T699 27T610 -4Q635 -43 661 -67T714 -104T768 -122T823 -127Q853 -127 881 -126T940 -124Q967 -124 994 -128T1049 -145T1104 -180T1160 -238L1108
-307ZM804 656Q804 757 796 839T771 986T731 1098T675 1175T604 1220T518 1235Q458 1235 408 1204T321 1106T264 938T244 695Q244 542 263 432T318 252T407 148T530 115Q590 115 640 146T727 243T784 412T804 656V656Z" />
<glyph unicode="R" glyph-name="R" horiz-adv-x="918" d="M717 0L395 606H305V0H151V1350Q184 1350 219 1351T291 1352T369 1353T452 1354Q549 1354 620 1328T739 1256T809 1144T832 1000Q832 950 824 906T799 824T757 754T701 699T630 659T546 636L893 0H717ZM305
731H443Q498 731 540 748T611 797T655 876T670 985Q670 1043 656 1088T612 1164T535 1212T420 1228H305V731Z" />
<glyph unicode="S" glyph-name="S" horiz-adv-x="816" d="M744 362Q744 289 722 221T654 100T541 16T379 -16Q284 -16 206 16T63 100L109 192Q138 174 169 160T233 135T295 120T354 114Q407 114 448 129T518 174T562 247T577 346Q577 407 556 450T500 527T421
588T329 643T238 703T158 778T102 881T81 1020Q81 1095 104 1158T172 1267T277 1340T413 1366Q450 1366 484 1360T552 1343T617 1315T684 1276L645 1184Q592 1210 539 1225T436 1240Q385 1240 349 1224T289 1181T253 1116T241 1037Q241 975 263 932T320 854T400
792T492 736T585 676T665 600T722 500T744 362V362Z" />
<glyph unicode="T" glyph-name="T" horiz-adv-x="720" d="M439 1218V0H281V1218H14V1350H706V1218H439Z" />
<glyph unicode="U" glyph-name="U" horiz-adv-x="1036" d="M891 496Q891 361 865 264T789 105T668 13T507 -17Q416 -17 348 11T234 97T167 248T145 470V1350H303V492Q303 386 315 313T353 195T422 130T524 110Q576 110 616 129T684 192T726 307T740 481V1350H891V496Z" />
<glyph unicode="V" glyph-name="V" horiz-adv-x="886" d="M866 1350Q836 1185 801 1018T724 681T636 342T535 0H349Q297 175 252 344T165 681T89 1014T22 1350H191Q240 1059 310 765T457 173Q496 317 531 460T598 750T657 1046T710 1350H866Z" />
<glyph unicode="W" glyph-name="W" horiz-adv-x="1430" d="M1400 1350Q1365 1166 1330 994T1259 655T1184 326T1103 0H926L745 869L711 1070H709L677 868L505 0H329Q283 170 244 330T169 654T99 988T31 1350H196Q223 1190 251 1043T307 755T365 476T425 201H427L452
363L648 1350H801L1006 365L1031 200H1033Q1062 328 1090 466T1145 749T1199 1044T1251 1350H1400Z" />
<glyph unicode="X" glyph-name="X" horiz-adv-x="890" d="M669 0Q637 89 607 167T548 316T491 451T435 578Q408 519 380 455T323 320T265 170T207 0H47Q83 107 118 199T190 376T263 540T341 700Q309 769 277 842T212 994T146 1161T76 1350H245Q272 1273 298 1204T351
1072T402 948T453 830Q478 886 504 945T555 1070T606 1204T656 1350H812Q783 1261 752 1179T688 1019T619 865T546 716Q584 639 620 559T693 392T767 208T844 0H669Z" />
<glyph unicode="Y" glyph-name="Y" horiz-adv-x="794" d="M801 1350Q765 1249 727 1150T649 954T566 766T476 590V0H317V590Q272 675 231 762T149 942T71 1136T-7 1350H162Q190 1263 219 1184T280 1030T344 880T412 729Q445 803 477 881T538 1039T594 1196T642 1350H801Z" />
<glyph unicode="Z" glyph-name="Z" horiz-adv-x="764" d="M62 0V120L502 1218H82L85 1350H674V1231L234 134H702L699 0H62Z" />
<glyph unicode="[" glyph-name="bracketleft" horiz-adv-x="602" d="M190 -346V1478H478V1377H324V-245H478V-346H190Z" />
<glyph unicode="\" glyph-name="backslash" horiz-adv-x="840" d="M729 -208L21 1418H154L862 -208H729Z" />
<glyph unicode="]" glyph-name="bracketright" horiz-adv-x="602" d="M125 -346V-245H279V1377H125V1478H413V-346H125Z" />
<glyph unicode="^" glyph-name="asciicircum" horiz-adv-x="840" d="M664 731L421 1288L180 731L60 783L359 1418H488L782 786L664 731Z" />
<glyph unicode="_" glyph-name="underscore" horiz-adv-x="840" d="M0 -361V-242H841V-361H0Z" />
<glyph unicode="`" glyph-name="grave" horiz-adv-x="482" d="M333 1123L79 1362L184 1440L403 1175L333 1123Z" />
<glyph unicode="a" glyph-name="a" horiz-adv-x="838" d="M588 0L580 114Q547 82 517 58T455 18T387 -7T309 -16Q187 -16 127 53T67 251Q67 323 91 383T165 488T296 556T489 581H560V685Q560 744 547 783T508 845T448 878T369 888Q337 888 306 883T244 871T185
853T130 832L106 931Q137 946 172 959T245 983T325 1000T411 1006Q485 1006 540 987T632 931T687 839T706 712V0H588ZM560 477H477Q397 477 346 462T266 420T227 355T216 273Q216 233 224 202T250 148T294 113T354 101Q408 101 458 131T560 215V477Z" />
<glyph unicode="b" glyph-name="b" horiz-adv-x="888" d="M139 1418H287V894Q316 920 345 941T404 976T463 998T521 1006Q588 1006 641 970T731 871T787 722T807 535Q807 392 776 288T688 116T553 17T381 -15Q352 -15 320 -13T256 -6T194 3T139 15V1418ZM287 114Q316
105 346 101T406 97Q460 97 505 122T582 199T633 326T651 502Q651 590 639 660T603 780T547 855T473 882Q456 882 435 875T390 855T340 821T287 773V114Z" />
<glyph unicode="c" glyph-name="c" horiz-adv-x="708" d="M670 126Q642 93 612 67T549 23T477 -4T393 -14Q317 -14 259 17T162 109T102 264T81 481Q81 623 109 722T184 884T289 975T411 1004Q482 1004 538 974T647 883L591 802Q544 848 503 866T424 885Q377 885
342 861T282 790T246 671T233 506Q233 405 245 330T282 205T343 131T428 107Q481 107 524 131T618 208L670 126Z" />
<glyph unicode="d" glyph-name="d" horiz-adv-x="888" d="M627 0L615 109Q583 79 552 56T490 17T428 -8T367 -16Q299 -16 247 19T157 118T101 267T81 454Q81 599 112 703T199 874T331 972T496 1004Q521 1004 549 1002T601 995V1418H749V0H627ZM601 876Q572 885
542 889T482 893Q428 893 383 868T306 793T255 666T237 488Q237 400 249 330T285 210T341 135T415 108Q449 108 498 135T601 217V876Z" />
<glyph unicode="e" glyph-name="e" horiz-adv-x="844" d="M231 479V461Q231 367 246 300T291 190T362 126T458 106Q489 106 518 109T578 120T640 139T708 165L734 72Q664 33 587 9T423 -16Q344 -16 281 10T174 95T105 245T81 466Q81 623 112 727T194 893T307 981T435
1006Q484 1006 527 994T605 955T666 887T709 787T732 652T734 479H231ZM589 579V586Q589 658 579 716T548 814T496 875T421 897Q378 897 345 873T287 807T250 706T233 579H589Z" />
<glyph unicode="f" glyph-name="f" horiz-adv-x="490" d="M527 1283Q499 1297 471 1305T415 1314Q353 1314 328 1275T303 1152V992H475V880H303V0H155V880H22V992H155V1142Q155 1209 167 1262T205 1353T273 1411T371 1431Q399 1431 425 1426T475 1413T519 1395T555
1374L527 1283Z" />
<glyph unicode="g" glyph-name="g" horiz-adv-x="888" d="M749 32Q749 -47 738 -106T706 -208T655 -280T589 -325T509 -348T417 -355Q386 -355 353 -352T284 -341T214 -322T146 -296L160 -201Q236 -216 296 -224T404 -232Q456 -232 493 -220T555 -182T590 -113T601
-8V112Q542 59 484 30T367 0Q300 0 247 35T157 133T101 280T81 463Q81 604 112 706T200 875T335 973T507 1005Q536 1005 568 1003T632 997T694 987T749 975V32ZM601 876Q586 880 571 883T541 888T511 892T481 893Q428 893 383 868T306 792T255 668T237 497Q237
412 249 343T285 225T341 150T415 124Q432 124 453 131T498 152T548 186T601 234V876Z" />
<glyph unicode="h" glyph-name="h" horiz-adv-x="918" d="M633 0Q633 67 633 139T635 280T636 414T637 531Q637 627 627 694T598 803T550 863T483 882Q461 882 437 874T388 850T338 814T287 768V0H139V1418H287V886Q308 907 335 928T394 967T459 995T531 1006Q591
1006 638 984T719 910T769 775T787 569Q787 518 786 451T784 308T782 153T781 0H633Z" />
<glyph unicode="i" glyph-name="i" horiz-adv-x="426" d="M303 1248Q303 1221 299 1205T285 1178T258 1164T212 1160Q185 1160 168 1163T140 1176T126 1203T122 1247Q122 1274 126 1290T140 1317T168 1331T213 1335Q240 1335 257 1332T285 1319T299 1292T303 1248V1248ZM139
0V992H287V0H139Z" />
<glyph unicode="j" glyph-name="j" horiz-adv-x="426" d="M287 79Q287 6 278 -54T248 -166T196 -264T118 -355L25 -302Q75 -239 107 -155T139 36V950V992H287V79ZM303 1248Q303 1221 299 1205T285 1178T258 1164T212 1160Q185 1160 168 1163T140 1176T126 1203T122
1247Q122 1274 126 1290T140 1317T168 1331T213 1335Q240 1335 257 1332T285 1319T299 1292T303 1248V1248Z" />
<glyph unicode="k" glyph-name="k" horiz-adv-x="738" d="M578 0L291 530H287V0H139V1418H287V604H291L530 992H704L412 590L752 0H578Z" />
<glyph unicode="l" glyph-name="l" horiz-adv-x="454" d="M406 4Q392 0 377 -3T345 -9T313 -12T283 -13Q245 -13 218 -6T174 23T148 83T139 183V1418H287V244Q287 200 289 172T299 129T318 108T352 102Q364 102 377 102T403 102L406 4Z" />
<glyph unicode="m" glyph-name="m" horiz-adv-x="1384" d="M1099 0Q1099 67 1099 139T1101 280T1102 414T1103 531Q1103 627 1094 694T1066 803T1020 863T957 882Q938 882 915 874T867 849T814 810T756 756Q759 740 761 722T764 682T767 633T769 571V0H621V531Q621
627 612 694T584 803T538 863T476 882Q456 882 434 874T387 850T338 814T287 768V0H139V992H261L271 874Q296 898 325 921T386 964T452 994T523 1006Q565 1006 598 995T656 963T699 914T731 854Q763 885 796 913T863 961T933 994T1005 1006Q1063 1006 1109 984T1187
910T1236 775T1254 569Q1254 518 1253 451T1251 308T1249 153T1248 0H1099Z" />
<glyph unicode="n" glyph-name="n" horiz-adv-x="918" d="M633 0Q633 67 633 139T635 280T636 414T637 531Q637 627 627 694T598 803T550 863T483 882Q461 882 437 874T388 850T338 814T287 768V0H139V992H261L271 874Q296 898 325 921T387 964T456 994T531 1006Q591
1006 638 984T719 910T769 775T787 569Q787 518 786 451T784 308T782 153T781 0H633Z" />
<glyph unicode="o" glyph-name="o" horiz-adv-x="888" d="M807 521Q807 417 793 338T753 199T692 98T614 32T524 -5T427 -16Q348 -16 285 10T176 95T106 246T81 469Q81 572 95 652T135 791T196 892T274 958T364 995T461 1006Q540 1006 603 980T712 895T782 745T807
521V521ZM656 486Q656 592 643 668T603 793T537 865T443 888Q394 888 355 866T288 797T247 678T232 504Q232 398 245 322T285 197T351 125T445 102Q494 102 533 124T600 193T641 312T656 486V486Z" />
<glyph unicode="p" glyph-name="p" horiz-adv-x="888" d="M139 -346V992H261L274 883Q306 913 337 935T400 974T461 998T521 1006Q588 1006 641 971T731 872T787 723T807 535Q807 391 775 288T688 117T556 18T392 -14Q372 -14 344 -12T287 -4V-346H139ZM287 114Q315
105 346 101T406 97Q460 97 505 122T582 199T633 326T651 502Q651 590 639 660T603 780T547 855T473 882Q456 882 435 875T390 855T340 821T287 773V114Z" />
<glyph unicode="q" glyph-name="q" horiz-adv-x="888" d="M601 -346V96Q572 69 543 49T484 14T425 -8T367 -16Q322 -16 284 0T214 46T157 118T115 213T90 326T81 455Q81 598 112 702T200 874T334 973T507 1005Q536 1005 568 1003T632 997T694 987T749 975V-346H601ZM601
876Q587 880 572 883T542 888T511 892T482 893Q427 893 383 868T306 791T255 664T237 488Q237 400 249 330T285 210T341 135T415 108Q432 108 453 115T498 135T548 169T601 217V876Z" />
<glyph unicode="r" glyph-name="r" horiz-adv-x="586" d="M539 839Q516 847 500 849T472 852Q452 852 434 842T394 810T346 754T287 672V0H139V992H261L275 816Q310 870 339 906T393 964T440 995T485 1005Q502 1005 519 1001T556 986L539 839Z" />
<glyph unicode="s" glyph-name="s" horiz-adv-x="678" d="M83 141Q145 120 192 111T283 101Q330 101 364 113T419 147T451 199T462 264Q462 304 446 333T402 384T339 424T266 462T194 504T131 559T87 633T70 736Q70 793 91 842T149 928T240 985T359 1006Q384 1006
409 1003T461 993T513 976T563 951L543 865Q522 872 502 877T462 886T423 892T386 894Q346 894 315 883T264 852T233 806T223 748Q223 707 240 679T284 628T346 587T419 549T491 507T554 452T599 377T616 275Q616 211 595 158T535 66T438 6T308 -16Q241 -16 179
3T64 55L83 141Z" />
<glyph unicode="t" glyph-name="t" horiz-adv-x="578" d="M520 135L537 40Q508 25 483 15T435 -2T391 -12T351 -15Q296 -15 259 -1T198 44T164 126T153 250V880H22V992H158Q163 1025 167 1058T176 1126T185 1197T193 1274H301V992H515V880H301V288Q301 238 304
204T319 147T349 116T398 106Q408 106 420 107T446 111T479 120T520 135V135Z" />
<glyph unicode="u" glyph-name="u" horiz-adv-x="918" d="M659 0L649 117Q624 93 595 70T533 27T464 -3T389 -15Q328 -15 281 8T200 82T150 217T133 422Q133 473 134 541T136 684T138 839T139 992H287Q287 925 287 853T285 712T284 578T283 461Q283 364 293 297T322
189T370 129T437 110Q459 110 483 118T532 142T582 178T633 224V992H781V0H659Z" />
<glyph unicode="v" glyph-name="v" horiz-adv-x="766" d="M733 992Q712 865 685 740T625 486T550 234T462 0H291L20 992H177L359 334L394 166Q426 262 454 365T506 573T549 783T580 992H733Z" />
<glyph unicode="w" glyph-name="w" horiz-adv-x="1230" d="M1182 992Q1166 877 1143 757T1089 513T1023 259T947 0H782L624 667L602 792H600L581 667L441 0H271L24 992H181L332 360L368 184H370L396 332L533 992H693L849 335L876 185H878Q903 284 927 384T971
586T1008 788T1037 992H1182Z" />
<glyph unicode="x" glyph-name="x" horiz-adv-x="794" d="M579 0L384 428Q358 377 333 320T283 207T237 97T197 0H39L300 525L76 992H244L404 626Q424 667 446 715T489 813T528 908T558 992H712L487 541L750 0H579Z" />
<glyph unicode="y" glyph-name="y" horiz-adv-x="760" d="M728 992Q692 776 654 604T575 298T493 63T411 -109T329 -228T250 -302T175 -340T105 -351Q84 -351 57 -345T3 -327V-229Q10 -230 18 -231T36 -232T55 -233T74 -234Q113 -234 147 -220T210 -177Q226 -161
240 -139T263 -94T279 -47T285 0Q285 35 277 79T251 181L17 992H173L357 337Q363 314 369 287T381 231T388 174T388 121Q417 205 445 309T498 527T543 760T575 992H728Z" />
<glyph unicode="z" glyph-name="z" horiz-adv-x="692" d="M609 0H76V107L426 871H92L97 992H595V885L244 122H616L609 0Z" />
<glyph unicode="{" glyph-name="braceleft" horiz-adv-x="622" d="M441 -346Q384 -346 344 -331T279 -286T243 -211T231 -108V290Q231 359 224 403T201 473T163 508T111 518H73V634H111Q140 634 162 643T200 678T223 745T231 854V1233Q231 1295 243 1341T280 1417T346
1463T447 1478H500V1377H459Q430 1377 411 1371T380 1349T363 1307T358 1244V865Q358 795 350 745T325 660T281 605T215 576Q254 566 281 547T325 493T350 410T358 294V-104Q358 -145 363 -172T380 -215T413 -238T464 -245H500V-346H441Z" />
<glyph unicode="|" glyph-name="bar" horiz-adv-x="412" d="M141 -346V1506H271V-346H141Z" />
<glyph unicode="}" glyph-name="braceright" horiz-adv-x="622" d="M510 518Q480 518 458 509T421 474T398 407T390 298V-100Q390 -162 379 -208T342 -285T275 -331T175 -346H121V-245H163Q191 -245 210 -239T241 -217T258 -176T263 -112V286Q263 356 271 406T296
491T340 546T406 576Q368 585 341 605T296 659T271 742T263 858V1236Q263 1277 258 1304T241 1347T208 1370T157 1377H121V1478H181Q237 1478 277 1463T342 1418T378 1343T390 1240V862Q390 793 397 749T420 679T458 644T510 634H548V518H510Z" />
<glyph unicode="~" glyph-name="asciitilde" horiz-adv-x="840" d="M792 1173Q792 1111 776 1059T729 970T657 913T565 893Q517 893 484 908T426 947T383 998T347 1048T310 1087T264 1103Q240 1103 222 1091T191 1056T173 999T168 922H49V948Q49 1011 65 1062T111
1151T183 1208T275 1229Q322 1229 355 1213T414 1174T457 1124T494 1074T531 1035T577 1019Q601 1019 619 1031T648 1066T666 1123T672 1200H792V1173Z" />
<glyph unicode="&#x8e;" glyph-name="Zcaron" horiz-adv-x="764" d="M62 0V120L502 1218H82L85 1350H674V1231L234 134H702L699 0H62ZM141 1639L182 1711L385 1591L587 1711L627 1640L383 1458L141 1639Z" />
<glyph unicode="&#x9e;" glyph-name="zcaron" horiz-adv-x="692" d="M609 0H76V107L426 871H92L97 992H595V885L244 122H616L609 0ZM348 1127L122 1388L175 1448L352 1279L526 1448L579 1389L348 1127Z" />
<glyph unicode="&#xa0;" glyph-name="space" horiz-adv-x="414" />
<glyph unicode="&#xa1;" glyph-name="exclamdown" horiz-adv-x="600" d="M306 835L334 -219H151L179 835H306ZM145 1047Q145 1075 149 1094T165 1124T194 1140T243 1145Q272 1145 291 1140T320 1124T335 1095T340 1048Q340 1020 336 1002T320 972T290 956T242
951Q212 951 194 955T164 971T149 1000T145 1047V1047Z" />
<glyph unicode="&#xa2;" glyph-name="cent" horiz-adv-x="840" d="M735 313Q716 290 692 269T638 231T574 200T502 182L489 -17H396L384 176Q320 186 269 213T182 291T126 416T106 597Q106 702 128 780T187 913T275 1000T384 1044L396 1243H489L502 1046Q564 1040
619 1009T714 931L658 851Q611 893 565 914T467 935Q419 935 381 913T315 852T274 756T259 632Q259 543 273 479T315 375T380 315T464 296Q501 296 532 303T590 324T640 354T685 393L735 313Z" />
<glyph unicode="&#xa3;" glyph-name="sterling" horiz-adv-x="840" d="M75 0V104Q123 159 154 217T201 339T220 474T214 626H61V735H197Q191 761 185 792T174 856T166 926T163 998Q163 1095 186 1164T250 1278T348 1343T471 1364Q506 1364 542 1359T614 1343T683
1320T743 1292L724 1201Q657 1224 604 1233T509 1243Q452 1243 415 1226T357 1178T326 1104T317 1010Q317 972 320 936T329 866T340 799T353 735H660V626H368Q375 551 373 483T358 352T316 233T245 128H772V0H75Z" />
<glyph unicode="&#xa4;" glyph-name="currency" horiz-adv-x="840" d="M690 36L580 207Q545 175 500 160T401 145Q358 145 321 156T252 192L151 36L50 102L169 258Q141 301 127 362T113 509Q113 596 130 664T179 780L50 948L150 1014L260 847Q294 876 337 889T431
903Q476 903 515 891T586 852L691 1014L791 948L665 785Q692 743 707 684T722 545Q722 456 706 390T659 275L791 102L690 36ZM588 508Q588 588 578 645T546 738T492 791T414 808Q375 808 344 793T291 745T257 662T245 544Q245 461 256 404T289 310T344 257T421
241Q461 241 491 257T543 306T576 389T588 508V508Z" />
<glyph unicode="&#xa5;" glyph-name="yen" horiz-adv-x="840" d="M736 443H499V274H736V172H499V0H341V172H104V274H341V443H104V545H341V627Q294 710 252 793T171 965T92 1148T13 1350H178Q207 1266 237 1189T300 1039T366 894T436 752Q471 818 504 892T569 1044T627
1198T677 1350H827Q791 1260 754 1169T676 986T592 804T499 628V545H736V443Z" />
<glyph unicode="&#xa6;" glyph-name="brokenbar" horiz-adv-x="412" d="M271 -346H141V399H271V-346ZM141 1503H271V737H141V1503Z" />
<glyph unicode="&#xa7;" glyph-name="section" horiz-adv-x="840" d="M206 -210Q235 -221 273 -227T350 -234Q388 -234 415 -221T460 -186T484 -135T492 -73Q492 -25 474 18T426 102T358 184T280 269T202 363T134 469T86 594T68 742Q68 819 84 895T129 1040T197
1168T283 1270T380 1338T482 1363Q534 1363 578 1349T657 1310L628 1217Q597 1229 561 1235T487 1242Q449 1242 423 1229T379 1193T355 1140T347 1076Q347 1030 365 989T413 907T481 826T559 741T637 646T706 538T754 412T772 263Q772 183 755 106T707 -39T635
-166T548 -266T452 -331T354 -355Q327 -355 303 -352T256 -341T214 -324T175 -302L206 -210ZM644 238Q644 315 624 378T573 495T501 596T422 685T347 770T287 857T256 951T264 1058Q250 1027 238 995T216 929T202 855T196 771Q196 694 215 631T266 515T337 415T416
325T491 240T551 153T583 58T577 -51Q590 -20 602 12T624 79T638 153T644 238V238Z" />
<glyph unicode="&#xa8;" glyph-name="dieresis" horiz-adv-x="632" d="M553 1250Q553 1226 549 1210T535 1185T512 1172T475 1168Q451 1168 437 1172T414 1184T401 1209T397 1250Q397 1275 401 1290T414 1315T437 1328T475 1332Q498 1332 512 1329T536 1316T549
1292T553 1250ZM235 1250Q235 1226 231 1210T218 1185T194 1172T157 1168Q134 1168 119 1172T95 1184T83 1209T79 1250Q79 1275 83 1290T96 1315T119 1328T157 1332Q180 1332 195 1329T218 1316T231 1292T235 1250Z" />
<glyph unicode="&#xa9;" glyph-name="copyright" horiz-adv-x="1324" d="M1239 679Q1239 581 1219 492T1162 325T1073 185T957 77T817 8T659 -17Q575 -17 500 7T362 74T247 180T160 319T105 485T85 671Q85 769 105 858T162 1025T251 1166T367 1273T507 1342T665
1367Q748 1367 823 1343T962 1276T1077 1170T1164 1031T1219 866T1239 679V679ZM1129 674Q1129 799 1095 908T998 1097T851 1224T662 1270Q560 1270 474 1225T326 1099T230 910T195 677Q195 550 229 442T326 253T473 126T662 80Q764 80 850 125T998 251T1094 439T1129
674V674ZM881 403Q857 378 833 359T782 326T724 305T655 298Q532 298 467 390T402 669Q402 770 423 844T481 966T566 1039T669 1063Q726 1063 772 1041T861 971L811 904Q776 933 744 947T680 961Q647 961 620 944T574 892T544 807T533 689Q533 617 542 563T569
473T616 420T680 402Q723 402 758 418T835 471L881 403Z" />
<glyph unicode="&#xaa;" glyph-name="ordfeminine" horiz-adv-x="758" d="M491 678L483 764Q456 737 431 719T381 690T334 673T288 668Q245 668 210 683T150 725T112 789T98 872Q98 920 114 963T168 1040T264 1094T410 1114H466V1189Q466 1222 459 1247T435 1290T393
1315T330 1324Q293 1324 248 1316T150 1286L129 1372Q155 1384 184 1394T243 1413T304 1425T365 1430Q423 1430 466 1416T538 1373T579 1303T592 1205V678H491ZM466 1026H404Q350 1026 315 1015T258 985T230 941T222 886Q222 864 228 842T246 803T276 776T318 765Q333
765 348 769T382 784T421 810T466 847V1026ZM114 423V523H613V423H114Z" />
<glyph unicode="&#xab;" glyph-name="guillemotleft" horiz-adv-x="814" d="M294 210L84 591L296 972L397 933L237 591L397 252L294 210ZM596 250L416 591L598 932L698 893L565 591L698 292L596 250Z" />
<glyph unicode="&#xac;" glyph-name="logicalnot" horiz-adv-x="840" d="M630 268V538H62V655H754V268H630Z" />
<glyph unicode="&#xad;" glyph-name="hyphen" horiz-adv-x="378" d="M39 529V649H382V529H39Z" />
<glyph unicode="&#xae;" glyph-name="registered" horiz-adv-x="944" d="M857 969Q857 877 828 796T746 654T623 558T469 522Q385 522 315 556T195 651T116 792T87 966Q87 1058 116 1139T197 1281T320 1377T475 1413Q559 1413 629 1379T749 1284T828 1143T857
969V969ZM772 965Q772 1044 750 1111T688 1229T594 1307T473 1336Q406 1336 351 1308T256 1231T194 1115T172 969Q172 891 194 824T255 706T350 628T472 599Q538 599 593 627T687 704T749 820T772 965V965ZM536 734L451 941H425V734H336V1221Q370 1223 403 1223T466
1224Q508 1224 538 1214T587 1186T616 1142T626 1087Q626 1041 604 1006T538 952L639 734H536ZM425 1009H466Q496 1009 514 1029T532 1077Q532 1111 516 1131T460 1151H425V1009Z" />
<glyph unicode="&#xaf;" glyph-name="macron" horiz-adv-x="588" d="M79 1184V1297H509V1184H79Z" />
<glyph unicode="&#xb0;" glyph-name="degree" horiz-adv-x="774" d="M616 1124Q616 1063 602 1015T557 931T482 877T377 858Q316 858 273 875T203 924T162 1005T149 1116Q149 1176 163 1224T208 1308T283 1362T387 1381Q448 1381 491 1364T562 1315T603 1235T616
1124V1124ZM497 1120Q497 1161 491 1191T472 1239T436 1267T382 1276Q349 1276 327 1266T292 1235T274 1185T268 1120Q268 1078 274 1049T293 1000T329 972T382 963Q414 963 436 973T472 1004T491 1054T497 1120V1120Z" />
<glyph unicode="&#xb1;" glyph-name="plusminus" horiz-adv-x="840" d="M69 0V113H771V0H69ZM482 628V300H358V628H64V741H358V1063H482V741H776V628H482Z" />
<glyph unicode="&#xb2;" glyph-name="twosuperior" horiz-adv-x="584" d="M68 728V826Q155 909 212 973T302 1086T347 1171T360 1240Q360 1274 352 1297T328 1333T292 1352T248 1358Q230 1358 211 1355T173 1348T138 1338T94 1324L78 1408Q107 1421 131 1430T181
1445T236 1456T298 1460Q339 1460 375 1449T440 1413T484 1351T500 1260Q500 1216 487 1171T442 1075T357 963T224 832H518V728H68Z" />
<glyph unicode="&#xb3;" glyph-name="threesuperior" horiz-adv-x="602" d="M72 832Q98 826 121 822T166 815T208 811T248 810Q286 810 312 817T355 839T380 877T388 932Q388 964 380 987T355 1025T310 1048T242 1056H156V1146H242Q303 1146 336 1176T370 1262Q370
1312 343 1338T260 1364Q243 1364 223 1362T182 1357T140 1348T102 1338L84 1418Q132 1437 185 1448T296 1460Q348 1460 387 1447T453 1410T491 1353T504 1278Q504 1244 496 1217T473 1168T438 1133T394 1112Q425 1108 449 1093T491 1055T517 1003T526 942Q526
882 509 839T459 769T380 729T274 716Q221 716 169 725T60 756L72 832Z" />
<glyph unicode="&#xb4;" glyph-name="acute" horiz-adv-x="480" d="M147 1123L79 1175L297 1440L402 1362L147 1123Z" />
<glyph unicode="&#xb5;" glyph-name="mu" horiz-adv-x="920" d="M659 0L649 119Q625 94 598 71T540 30T477 2T410 -9Q354 -9 314 23T258 115Q259 87 261 58T265 0T269 -59T273 -118T278 -177T283 -235T287 -292T292 -346H139V992H287V410Q287 332 297 276T325
182T372 128T437 110Q459 110 483 118T532 142T582 178T633 224V992H781V0H659Z" />
<glyph unicode="&#xb6;" glyph-name="paragraph" horiz-adv-x="1124" d="M820 -219V1241H617V-219H495V607Q413 596 343 618T222 689T141 810T111 972Q111 1052 134 1121T201 1241T311 1321T464 1350H942V-219H820Z" />
<glyph unicode="&#xb7;" glyph-name="periodcentered" horiz-adv-x="472" d="M331 598Q331 569 327 551T312 521T283 505T235 500Q207 500 189 504T160 520T146 549T141 596Q141 624 145 643T160 673T189 689T237 694Q265 694 283 690T312 674T327 645T331 598V598Z" />
<glyph unicode="&#xb8;" glyph-name="cedilla" horiz-adv-x="368" d="M287 -83Q295 -166 264 -232T160 -354L79 -309Q104 -282 121 -256T146 -202T157 -145T156 -83H287Z" />
<glyph unicode="&#xb9;" glyph-name="onesuperior" horiz-adv-x="568" d="M84 728V830H236V1330L102 1280L80 1360L266 1450H366V830H504V728H84Z" />
<glyph unicode="&#xba;" glyph-name="ordmasculine" horiz-adv-x="732" d="M646 1063Q646 963 625 889T566 765T473 690T353 665Q293 665 243 686T158 751T104 865T84 1032Q84 1131 105 1205T164 1329T257 1404T377 1429Q438 1429 487 1408T572 1343T626 1229T646
1063V1063ZM519 1042Q519 1123 509 1178T478 1266T429 1315T365 1330Q331 1330 302 1315T253 1267T222 1181T211 1053Q211 972 222 917T253 828T301 780T365 765Q400 765 428 780T477 828T508 913T519 1042V1042ZM118 423V523H619V423H118Z" />
<glyph unicode="&#xbb;" glyph-name="guillemotright" horiz-adv-x="814" d="M521 972L731 591L519 210L418 250L578 591L418 931L521 972ZM218 932L399 591L216 250L116 290L250 591L116 891L218 932Z" />
<glyph unicode="&#xbc;" glyph-name="onequarter" horiz-adv-x="1234" d="M84 728V830H236V1330L102 1280L80 1360L266 1450H366V830H504V728H84ZM1099 1461L1181 1410L220 -137L136 -87L1099 1461ZM1106 40V-116H978V40H678V132Q702 188 732 249T795 373T861
493T926 602H1106V142H1198V40H1106ZM978 512Q956 477 931 433T879 340T827 240T780 142H978V512Z" />
<glyph unicode="&#xbd;" glyph-name="onehalf" horiz-adv-x="1292" d="M84 728V830H236V1330L102 1280L80 1360L266 1450H366V830H504V728H84ZM1099 1461L1181 1410L220 -137L136 -87L1099 1461ZM776 -116V-18Q863 65 920 129T1010 242T1055 327T1068 396Q1068
430 1060 453T1036 489T1000 508T956 514Q938 514 919 511T881 504T846 494T802 480L786 564Q815 577 839 586T889 601T944 612T1006 616Q1047 616 1083 605T1148 569T1192 507T1208 416Q1208 372 1195 327T1150 231T1065 119T932 -12H1226V-116H776Z" />
<glyph unicode="&#xbe;" glyph-name="threequarters" horiz-adv-x="1226" d="M72 832Q98 826 121 822T166 815T208 811T248 810Q286 810 312 817T355 839T380 877T388 932Q388 964 380 987T355 1025T310 1048T242 1056H156V1146H242Q303 1146 336 1176T370 1262Q370
1312 343 1338T260 1364Q243 1364 223 1362T182 1357T140 1348T102 1338L84 1418Q132 1437 185 1448T296 1460Q348 1460 387 1447T453 1410T491 1353T504 1278Q504 1244 496 1217T473 1168T438 1133T394 1112Q425 1108 449 1093T491 1055T517 1003T526 942Q526
882 509 839T459 769T380 729T274 716Q221 716 169 725T60 756L72 832ZM1093 1461L1175 1410L214 -137L130 -87L1093 1461ZM1098 40V-116H970V40H670V132Q694 188 724 249T787 373T853 493T918 602H1098V142H1190V40H1098ZM970 512Q948 477 923 433T871 340T819
240T772 142H970V512Z" />
<glyph unicode="&#xbf;" glyph-name="questiondown" horiz-adv-x="780" d="M100 78Q100 148 120 201T169 299T233 384T298 468T348 564T370 687L373 835H501L506 679Q509 611 492 556T448 453T389 363T329 279T282 197T263 107Q263 59 276 21T313 -43T373 -84T455
-98Q488 -98 518 -94T575 -84T625 -71T665 -57L702 -159Q663 -176 629 -189T561 -212T492 -225T417 -230Q335 -230 275 -208T177 -145T119 -47T100 78V78ZM339 1047Q339 1075 343 1094T359 1124T389 1140T438 1145Q467 1145 485 1140T515 1124T530 1095T534 1048Q534
1020 530 1002T515 972T485 956T436 951Q407 951 388 955T359 971T344 1000T339 1047V1047Z" />
<glyph unicode="&#xc0;" glyph-name="Agrave" horiz-adv-x="916" d="M724 0Q717 38 710 75T695 148T679 222T661 297H237Q222 225 207 152T177 0H26Q59 159 97 329T177 672T265 1016T358 1350H550Q601 1170 647 999T736 660T816 328T889 0H724ZM638 421Q615 514
591 610T543 803T492 997T440 1191Q419 1104 397 1010T351 816T306 617T262 421H638ZM498 1456L180 1599L259 1709L547 1531L498 1456Z" />
<glyph unicode="&#xc1;" glyph-name="Aacute" horiz-adv-x="916" d="M724 0Q717 38 710 75T695 148T679 222T661 297H237Q222 225 207 152T177 0H26Q59 159 97 329T177 672T265 1016T358 1350H550Q601 1170 647 999T736 660T816 328T889 0H724ZM638 421Q615 514
591 610T543 803T492 997T440 1191Q419 1104 397 1010T351 816T306 617T262 421H638ZM630 1709L705 1600L387 1456L338 1529L630 1709Z" />
<glyph unicode="&#xc2;" glyph-name="Acircumflex" horiz-adv-x="916" d="M724 0Q717 38 710 75T695 148T679 222T661 297H237Q222 225 207 152T177 0H26Q59 159 97 329T177 672T265 1016T358 1350H550Q601 1170 647 999T736 660T816 328T889 0H724ZM638 421Q615
514 591 610T543 803T492 997T440 1191Q419 1104 397 1010T351 816T306 617T262 421H638ZM700 1530L659 1458L455 1578L253 1458L214 1529L458 1711L700 1530Z" />
<glyph unicode="&#xc3;" glyph-name="Atilde" horiz-adv-x="916" d="M724 0Q717 38 710 75T695 148T679 222T661 297H237Q222 225 207 152T177 0H26Q59 159 97 329T177 672T265 1016T358 1350H550Q601 1170 647 999T736 660T816 328T889 0H724ZM638 421Q615 514
591 610T543 803T492 997T440 1191Q419 1104 397 1010T351 816T306 617T262 421H638ZM747 1629Q728 1590 709 1560T666 1509T616 1477T555 1466Q513 1466 484 1483T432 1520T389 1558T345 1576Q332 1576 320 1571T294 1553T265 1520T232 1471L169 1519Q187 1558
207 1588T250 1639T300 1671T361 1682Q403 1682 432 1665T484 1627T527 1589T571 1572Q584 1572 596 1577T622 1595T651 1628T684 1677L747 1629Z" />
<glyph unicode="&#xc4;" glyph-name="Adieresis" horiz-adv-x="916" d="M724 0Q717 38 710 75T695 148T679 222T661 297H237Q222 225 207 152T177 0H26Q59 159 97 329T177 672T265 1016T358 1350H550Q601 1170 647 999T736 660T816 328T889 0H724ZM638 421Q615
514 591 610T543 803T492 997T440 1191Q419 1104 397 1010T351 816T306 617T262 421H638ZM693 1560Q693 1534 690 1519T677 1494T653 1481T615 1477Q592 1477 578 1481T554 1494T542 1518T538 1559Q538 1584 541 1599T554 1624T577 1636T615 1640Q639 1640 653
1637T677 1624T689 1600T693 1560ZM365 1560Q365 1534 361 1519T349 1494T325 1481T287 1477Q264 1477 250 1481T226 1494T214 1518T210 1559Q210 1584 213 1599T226 1624T249 1636T287 1640Q311 1640 325 1637T348 1624T361 1600T365 1560Z" />
<glyph unicode="&#xc5;" glyph-name="Aring" horiz-adv-x="916" d="M724 0Q717 38 710 75T695 148T679 222T661 297H237Q222 225 207 152T177 0H26Q59 159 97 329T177 672T265 1016T358 1350H550Q601 1170 647 999T736 660T816 328T889 0H724ZM638 421Q615 514
591 610T543 803T492 997T440 1191Q419 1104 397 1010T351 816T306 617T262 421H638ZM629 1566Q629 1518 614 1486T574 1435T516 1408T447 1400Q409 1400 378 1408T326 1433T293 1479T281 1549Q281 1597 295 1629T335 1680T394 1708T463 1716Q500 1716 531 1708T583
1683T617 1636T629 1566V1566ZM527 1557Q527 1604 509 1625T455 1647Q421 1647 402 1627T382 1558Q382 1535 386 1518T400 1490T423 1474T454 1468Q488 1468 507 1488T527 1557V1557Z" />
<glyph unicode="&#xc6;" glyph-name="AE" horiz-adv-x="1208" d="M557 0V293H235Q224 257 213 219T189 144T166 70T145 0H-5Q49 173 107 344T225 684T346 1019T473 1350H1096V1219H709V755H1026V628H709V132H1103V0H557ZM557 1224H554Q515 1114 478 1010T406 806T338
610T272 421H557V1224Z" />
<glyph unicode="&#xc7;" glyph-name="Ccedilla" horiz-adv-x="808" d="M761 167Q734 126 702 92T633 34T551 -3T454 -16Q370 -16 302 26T186 152T111 362T84 656Q84 838 116 971T203 1192T328 1323T478 1366Q521 1366 559 1354T632 1317T694 1258T747 1176L668
1102Q629 1167 587 1199T485 1232Q454 1232 425 1218T369 1174T321 1101T282 996T257 859T247 691Q247 554 263 448T309 268T383 157T484 118Q517 118 545 127T598 153T647 194T694 249L761 167ZM511 -83Q519 -166 488 -232T384 -354L303 -309Q328 -282 345 -256T370
-202T381 -145T380 -83H511Z" />
<glyph unicode="&#xc8;" glyph-name="Egrave" horiz-adv-x="772" d="M150 0V1350H686V1220H308V766H618V638H308V132H692V0H150ZM470 1456L152 1599L231 1709L519 1531L470 1456Z" />
<glyph unicode="&#xc9;" glyph-name="Eacute" horiz-adv-x="772" d="M150 0V1350H686V1220H308V766H618V638H308V132H692V0H150ZM603 1709L678 1600L360 1456L311 1529L603 1709Z" />
<glyph unicode="&#xca;" glyph-name="Ecircumflex" horiz-adv-x="772" d="M150 0V1350H686V1220H308V766H618V638H308V132H692V0H150ZM663 1530L622 1458L418 1578L216 1458L177 1529L421 1711L663 1530Z" />
<glyph unicode="&#xcb;" glyph-name="Edieresis" horiz-adv-x="772" d="M150 0V1350H686V1220H308V766H618V638H308V132H692V0H150ZM658 1560Q658 1534 655 1519T642 1494T618 1481T580 1477Q557 1477 543 1481T519 1494T507 1518T503 1559Q503 1584 506 1599T519
1624T542 1636T580 1640Q604 1640 618 1637T642 1624T654 1600T658 1560ZM330 1560Q330 1534 326 1519T314 1494T290 1481T252 1477Q229 1477 215 1481T191 1494T179 1518T175 1559Q175 1584 178 1599T191 1624T214 1636T252 1640Q276 1640 290 1637T313 1624T326
1600T330 1560Z" />
<glyph unicode="&#xcc;" glyph-name="Igrave" horiz-adv-x="460" d="M151 0V1350H310V0H151ZM528 1456L210 1599L289 1709L577 1531L528 1456Z" />
<glyph unicode="&#xcd;" glyph-name="Iacute" horiz-adv-x="460" d="M151 0V1350H310V0H151ZM423 1709L498 1600L180 1456L131 1529L423 1709Z" />
<glyph unicode="&#xce;" glyph-name="Icircumflex" horiz-adv-x="460" d="M151 0V1350H310V0H151ZM727 1530L686 1458L482 1578L280 1458L241 1529L485 1711L727 1530Z" />
<glyph unicode="&#xcf;" glyph-name="Idieresis" horiz-adv-x="460" d="M151 0V1350H310V0H151ZM723 1560Q723 1534 720 1519T707 1494T683 1481T645 1477Q622 1477 608 1481T584 1494T572 1518T568 1559Q568 1584 571 1599T584 1624T607 1636T645 1640Q669 1640
683 1637T707 1624T719 1600T723 1560ZM395 1560Q395 1534 391 1519T379 1494T355 1481T317 1477Q294 1477 280 1481T256 1494T244 1518T240 1559Q240 1584 243 1599T256 1624T279 1636T317 1640Q341 1640 355 1637T378 1624T391 1600T395 1560Z" />
<glyph unicode="&#xd0;" glyph-name="Eth" horiz-adv-x="994" d="M166 1350Q232 1350 301 1351T441 1353Q524 1353 591 1332T710 1271T800 1174T864 1046T901 889T913 708Q913 535 881 403T784 180T625 43T403 -4Q371 -4 339 -4T277 -3T218 -1T166 0V635H52V761H166V1350ZM322
761H521V635H322V132Q348 129 375 128T428 127Q505 127 565 161T666 264T729 438T751 684Q751 761 744 830T720 960T677 1069T615 1152T532 1205T424 1224Q404 1224 386 1224T354 1223T332 1223T322 1222V761Z" />
<glyph unicode="&#xd1;" glyph-name="Ntilde" horiz-adv-x="1072" d="M752 0L410 830Q384 895 360 953T318 1059Q297 1114 279 1162H277Q279 1112 281 1057Q283 1009 284 948T285 823V0H151V1350H364L662 633Q686 575 709 516T751 410Q773 354 793 303H795Q793
357 791 415Q789 464 788 523T787 640V1350H921V0H752ZM837 1629Q818 1590 799 1560T756 1509T706 1477T645 1466Q603 1466 574 1483T522 1520T479 1558T435 1576Q422 1576 410 1571T384 1553T355 1520T322 1471L259 1519Q277 1558 297 1588T340 1639T390 1671T451
1682Q493 1682 522 1665T574 1627T617 1589T661 1572Q674 1572 686 1577T712 1595T741 1628T774 1677L837 1629Z" />
<glyph unicode="&#xd2;" glyph-name="Ograve" horiz-adv-x="1048" d="M964 693Q964 563 948 460T903 278T832 143T741 52T634 1T514 -16Q415 -16 336 21T200 138T114 347T84 656Q84 787 100 890T145 1072T216 1206T307 1297T414 1349T534 1366Q633 1366 712 1329T848
1211T934 1003T964 693V693ZM804 656Q804 808 785 917T730 1097T641 1201T518 1235Q458 1235 408 1204T321 1106T264 938T244 694Q244 592 252 510T277 363T317 252T373 175T444 130T530 115Q590 115 640 146T727 243T784 412T804 656V656ZM589 1456L271 1599L350
1709L638 1531L589 1456Z" />
<glyph unicode="&#xd3;" glyph-name="Oacute" horiz-adv-x="1048" d="M964 693Q964 563 948 460T903 278T832 143T741 52T634 1T514 -16Q415 -16 336 21T200 138T114 347T84 656Q84 787 100 890T145 1072T216 1206T307 1297T414 1349T534 1366Q633 1366 712 1329T848
1211T934 1003T964 693V693ZM804 656Q804 808 785 917T730 1097T641 1201T518 1235Q458 1235 408 1204T321 1106T264 938T244 694Q244 592 252 510T277 363T317 252T373 175T444 130T530 115Q590 115 640 146T727 243T784 412T804 656V656ZM713 1709L788 1600L470
1456L421 1529L713 1709Z" />
<glyph unicode="&#xd4;" glyph-name="Ocircumflex" horiz-adv-x="1048" d="M964 693Q964 563 948 460T903 278T832 143T741 52T634 1T514 -16Q415 -16 336 21T200 138T114 347T84 656Q84 787 100 890T145 1072T216 1206T307 1297T414 1349T534 1366Q633 1366 712
1329T848 1211T934 1003T964 693V693ZM804 656Q804 808 785 917T730 1097T641 1201T518 1235Q458 1235 408 1204T321 1106T264 938T244 694Q244 592 252 510T277 363T317 252T373 175T444 130T530 115Q590 115 640 146T727 243T784 412T804 656V656ZM767 1530L726
1458L522 1578L320 1458L281 1529L525 1711L767 1530Z" />
<glyph unicode="&#xd5;" glyph-name="Otilde" horiz-adv-x="1048" d="M964 693Q964 563 948 460T903 278T832 143T741 52T634 1T514 -16Q415 -16 336 21T200 138T114 347T84 656Q84 787 100 890T145 1072T216 1206T307 1297T414 1349T534 1366Q633 1366 712 1329T848
1211T934 1003T964 693V693ZM804 656Q804 808 785 917T730 1097T641 1201T518 1235Q458 1235 408 1204T321 1106T264 938T244 694Q244 592 252 510T277 363T317 252T373 175T444 130T530 115Q590 115 640 146T727 243T784 412T804 656V656ZM813 1629Q794 1590 775
1560T732 1509T682 1477T621 1466Q579 1466 550 1483T498 1520T455 1558T411 1576Q398 1576 386 1571T360 1553T331 1520T298 1471L235 1519Q253 1558 273 1588T316 1639T366 1671T427 1682Q469 1682 498 1665T550 1627T593 1589T637 1572Q650 1572 662 1577T688
1595T717 1628T750 1677L813 1629Z" />
<glyph unicode="&#xd6;" glyph-name="Odieresis" horiz-adv-x="1048" d="M964 693Q964 563 948 460T903 278T832 143T741 52T634 1T514 -16Q415 -16 336 21T200 138T114 347T84 656Q84 787 100 890T145 1072T216 1206T307 1297T414 1349T534 1366Q633 1366 712
1329T848 1211T934 1003T964 693V693ZM804 656Q804 808 785 917T730 1097T641 1201T518 1235Q458 1235 408 1204T321 1106T264 938T244 694Q244 592 252 510T277 363T317 252T373 175T444 130T530 115Q590 115 640 146T727 243T784 412T804 656V656ZM766 1560Q766
1534 763 1519T750 1494T726 1481T688 1477Q665 1477 651 1481T627 1494T615 1518T611 1559Q611 1584 614 1599T627 1624T650 1636T688 1640Q712 1640 726 1637T750 1624T762 1600T766 1560ZM438 1560Q438 1534 434 1519T422 1494T398 1481T360 1477Q337 1477 323
1481T299 1494T287 1518T283 1559Q283 1584 286 1599T299 1624T322 1636T360 1640Q384 1640 398 1637T421 1624T434 1600T438 1560Z" />
<glyph unicode="&#xd7;" glyph-name="multiply" horiz-adv-x="840" d="M753 323L670 241L420 512L170 241L87 323L340 597L87 870L170 952L420 681L670 952L753 870L500 597L753 323Z" />
<glyph unicode="&#xd8;" glyph-name="Oslash" horiz-adv-x="1048" d="M964 693Q964 563 948 460T903 278T832 143T741 52T634 1T514 -16Q443 -16 383 4T274 68L167 -144L76 -98L198 142Q142 223 113 352T84 656Q84 787 100 890T145 1072T216 1206T307 1297T414
1349T534 1366Q605 1366 664 1346T774 1282L881 1493L972 1447L850 1208Q905 1125 934 997T964 693V693ZM812 657Q812 768 799 860T757 1022L341 200Q377 155 423 132T530 109Q571 109 608 122T677 165T733 238T776 343T802 482T812 657V657ZM518 1241Q456 1241
404 1210T315 1111T257 941T236 693Q236 581 248 491T291 327L707 1149Q671 1195 625 1218T518 1241V1241Z" />
<glyph unicode="&#xd9;" glyph-name="Ugrave" horiz-adv-x="1036" d="M891 496Q891 361 865 264T789 105T668 13T507 -17Q416 -17 348 11T234 97T167 248T145 470V1350H303V492Q303 386 315 313T353 195T422 130T524 110Q576 110 616 129T684 192T726 307T740
481V1350H891V496ZM566 1456L248 1599L327 1709L615 1531L566 1456Z" />
<glyph unicode="&#xda;" glyph-name="Uacute" horiz-adv-x="1036" d="M891 496Q891 361 865 264T789 105T668 13T507 -17Q416 -17 348 11T234 97T167 248T145 470V1350H303V492Q303 386 315 313T353 195T422 130T524 110Q576 110 616 129T684 192T726 307T740
481V1350H891V496ZM761 1709L836 1600L518 1456L469 1529L761 1709Z" />
<glyph unicode="&#xdb;" glyph-name="Ucircumflex" horiz-adv-x="1036" d="M891 496Q891 361 865 264T789 105T668 13T507 -17Q416 -17 348 11T234 97T167 248T145 470V1350H303V492Q303 386 315 313T353 195T422 130T524 110Q576 110 616 129T684 192T726 307T740
481V1350H891V496ZM764 1530L723 1458L519 1578L317 1458L278 1529L522 1711L764 1530Z" />
<glyph unicode="&#xdc;" glyph-name="Udieresis" horiz-adv-x="1036" d="M891 496Q891 361 865 264T789 105T668 13T507 -17Q416 -17 348 11T234 97T167 248T145 470V1350H303V492Q303 386 315 313T353 195T422 130T524 110Q576 110 616 129T684 192T726 307T740
481V1350H891V496ZM763 1560Q763 1534 760 1519T747 1494T723 1481T685 1477Q662 1477 648 1481T624 1494T612 1518T608 1559Q608 1584 611 1599T624 1624T647 1636T685 1640Q709 1640 723 1637T747 1624T759 1600T763 1560ZM435 1560Q435 1534 431 1519T419 1494T395
1481T357 1477Q334 1477 320 1481T296 1494T284 1518T280 1559Q280 1584 283 1599T296 1624T319 1636T357 1640Q381 1640 395 1637T418 1624T431 1600T435 1560Z" />
<glyph unicode="&#xdd;" glyph-name="Yacute" horiz-adv-x="794" d="M801 1350Q765 1249 727 1150T649 954T566 766T476 590V0H317V590Q272 675 231 762T149 942T71 1136T-7 1350H162Q190 1263 219 1184T280 1030T344 880T412 729Q445 803 477 881T538 1039T594
1196T642 1350H801ZM636 1709L711 1600L393 1456L344 1529L636 1709Z" />
<glyph unicode="&#xde;" glyph-name="Thorn" horiz-adv-x="884" d="M151 0V1350H309V1137Q331 1138 359 1138T425 1138Q540 1138 619 1108T748 1024T818 896T840 732Q840 640 815 559T733 419T588 324T370 289H309V0H151ZM309 416H400Q472 416 524 436T610 494T660
589T677 717Q677 785 663 839T615 932T529 990T399 1010H309V416Z" />
<glyph unicode="&#xdf;" glyph-name="germandbls" horiz-adv-x="936" d="M139 0V1008Q139 1113 160 1192T225 1324T332 1404T480 1431Q545 1431 598 1414T689 1362T748 1279T769 1166Q769 1099 755 1056T720 981T674 928T628 881T593 828T579 755Q579 716 591
687T624 635T671 591T724 549T777 503T824 446T856 374T869 279Q869 217 852 164T802 71T722 9T612 -14Q559 -14 513 0T423 39L440 124Q478 112 511 106T580 100Q616 100 642 112T686 147T711 197T720 258Q720 314 699 352T645 419T576 476T506 536T453 615T431
729Q431 786 445 823T480 889T525 941T571 992T607 1056T621 1147Q621 1186 610 1217T579 1270T531 1303T468 1314Q416 1314 381 1294T325 1236T296 1142T287 1018V0H139Z" />
<glyph unicode="&#xe0;" glyph-name="agrave" horiz-adv-x="838" d="M588 0L580 114Q547 82 517 58T455 18T387 -7T309 -16Q187 -16 127 53T67 251Q67 323 91 383T165 488T296 556T489 581H560V685Q560 744 547 783T508 845T448 878T369 888Q337 888 306 883T244
871T185 853T130 832L106 931Q137 946 172 959T245 983T325 1000T411 1006Q485 1006 540 987T632 931T687 839T706 712V0H588ZM560 477H477Q397 477 346 462T266 420T227 355T216 273Q216 233 224 202T250 148T294 113T354 101Q408 101 458 131T560 215V477ZM429
1123L175 1362L280 1440L499 1175L429 1123Z" />
<glyph unicode="&#xe1;" glyph-name="aacute" horiz-adv-x="838" d="M588 0L580 114Q547 82 517 58T455 18T387 -7T309 -16Q187 -16 127 53T67 251Q67 323 91 383T165 488T296 556T489 581H560V685Q560 744 547 783T508 845T448 878T369 888Q337 888 306 883T244
871T185 853T130 832L106 931Q137 946 172 959T245 983T325 1000T411 1006Q485 1006 540 987T632 931T687 839T706 712V0H588ZM560 477H477Q397 477 346 462T266 420T227 355T216 273Q216 233 224 202T250 148T294 113T354 101Q408 101 458 131T560 215V477ZM394
1123L326 1175L544 1440L649 1362L394 1123Z" />
<glyph unicode="&#xe2;" glyph-name="acircumflex" horiz-adv-x="838" d="M588 0L580 114Q547 82 517 58T455 18T387 -7T309 -16Q187 -16 127 53T67 251Q67 323 91 383T165 488T296 556T489 581H560V685Q560 744 547 783T508 845T448 878T369 888Q337 888 306
883T244 871T185 853T130 832L106 931Q137 946 172 959T245 983T325 1000T411 1006Q485 1006 540 987T632 931T687 839T706 712V0H588ZM560 477H477Q397 477 346 462T266 420T227 355T216 273Q216 233 224 202T250 148T294 113T354 101Q408 101 458 131T560 215V477ZM586
1126L411 1296L235 1127L183 1185L413 1447L641 1186L586 1126Z" />
<glyph unicode="&#xe3;" glyph-name="atilde" horiz-adv-x="838" d="M588 0L580 114Q547 82 517 58T455 18T387 -7T309 -16Q187 -16 127 53T67 251Q67 323 91 383T165 488T296 556T489 581H560V685Q560 744 547 783T508 845T448 878T369 888Q337 888 306 883T244
871T185 853T130 832L106 931Q137 946 172 959T245 983T325 1000T411 1006Q485 1006 540 987T632 931T687 839T706 712V0H588ZM560 477H477Q397 477 346 462T266 420T227 355T216 273Q216 233 224 202T250 148T294 113T354 101Q408 101 458 131T560 215V477ZM685
1325Q666 1286 648 1256T607 1205T559 1173T500 1162Q459 1162 430 1179T378 1216T335 1254T291 1272Q279 1272 267 1267T243 1249T216 1216T184 1167L122 1215Q140 1254 159 1284T200 1335T248 1367T307 1378Q348 1378 377 1361T429 1323T472 1285T516 1268Q528
1268 540 1273T564 1291T591 1324T623 1373L685 1325Z" />
<glyph unicode="&#xe4;" glyph-name="adieresis" horiz-adv-x="838" d="M588 0L580 114Q547 82 517 58T455 18T387 -7T309 -16Q187 -16 127 53T67 251Q67 323 91 383T165 488T296 556T489 581H560V685Q560 744 547 783T508 845T448 878T369 888Q337 888 306 883T244
871T185 853T130 832L106 931Q137 946 172 959T245 983T325 1000T411 1006Q485 1006 540 987T632 931T687 839T706 712V0H588ZM560 477H477Q397 477 346 462T266 420T227 355T216 273Q216 233 224 202T250 148T294 113T354 101Q408 101 458 131T560 215V477ZM647
1250Q647 1226 643 1210T629 1185T606 1172T569 1168Q545 1168 531 1172T508 1184T495 1209T491 1250Q491 1275 495 1290T508 1315T531 1328T569 1332Q592 1332 606 1329T630 1316T643 1292T647 1250ZM329 1250Q329 1226 325 1210T312 1185T288 1172T251 1168Q228
1168 213 1172T189 1184T177 1209T173 1250Q173 1275 177 1290T190 1315T213 1328T251 1332Q274 1332 289 1329T312 1316T325 1292T329 1250Z" />
<glyph unicode="&#xe5;" glyph-name="aring" horiz-adv-x="838" d="M588 0L580 114Q547 82 517 58T455 18T387 -7T309 -16Q187 -16 127 53T67 251Q67 323 91 383T165 488T296 556T489 581H560V685Q560 744 547 783T508 845T448 878T369 888Q337 888 306 883T244
871T185 853T130 832L106 931Q137 946 172 959T245 983T325 1000T411 1006Q485 1006 540 987T632 931T687 839T706 712V0H588ZM560 477H477Q397 477 346 462T266 420T227 355T216 273Q216 233 224 202T250 148T294 113T354 101Q408 101 458 131T560 215V477ZM587
1280Q587 1227 572 1191T532 1134T474 1103T405 1093Q367 1093 336 1102T284 1131T251 1183T239 1261Q239 1314 253 1350T293 1407T352 1438T421 1448Q458 1448 489 1439T541 1410T575 1358T587 1280V1280ZM485 1267Q485 1295 481 1315T467 1349T445 1368T413 1375Q379
1375 360 1351T340 1274Q340 1246 344 1225T358 1191T381 1172T412 1166Q446 1166 465 1190T485 1267V1267Z" />
<glyph unicode="&#xe6;" glyph-name="ae" horiz-adv-x="1316" d="M1206 72Q1136 33 1059 9T895 -16Q851 -16 811 -7T736 22T672 74T622 151Q584 109 547 78T472 26T394 -5T309 -16Q187 -16 127 53T67 251Q67 323 91 383T165 488T296 556T489 581H560V685Q560 744
547 783T508 845T448 878T369 888Q337 888 306 883T244 871T185 853T130 832L106 931Q137 946 172 959T245 983T325 1000T411 1006Q455 1006 495 997T567 970T623 923T659 857Q678 889 703 916T760 964T828 995T907 1006Q957 1006 1000 994T1078 955T1139 887T1182
787T1205 652T1206 479H704V461Q704 367 719 300T764 190T835 126T930 106Q961 106 991 109T1051 120T1113 139T1180 165L1206 72ZM1061 579V586Q1061 658 1051 716T1020 814T968 875T893 897Q850 897 817 873T759 807T722 706T706 579H1061ZM477 479Q397 479 347
463T267 420T227 355T216 273Q216 233 224 202T250 148T294 113T354 101Q408 101 464 136T581 248Q569 300 564 359T560 479H477Z" />
<glyph unicode="&#xe7;" glyph-name="ccedilla" horiz-adv-x="708" d="M670 126Q642 93 612 67T549 23T477 -4T393 -14Q317 -14 259 17T162 109T102 264T81 481Q81 623 109 722T184 884T289 975T411 1004Q482 1004 538 974T647 883L591 802Q544 848 503 866T424
885Q377 885 342 861T282 790T246 671T233 506Q233 405 245 330T282 205T343 131T428 107Q481 107 524 131T618 208L670 126ZM451 -83Q459 -166 428 -232T324 -354L243 -309Q268 -282 285 -256T310 -202T321 -145T320 -83H451Z" />
<glyph unicode="&#xe8;" glyph-name="egrave" horiz-adv-x="844" d="M231 479V461Q231 367 246 300T291 190T362 126T458 106Q489 106 518 109T578 120T640 139T708 165L734 72Q664 33 587 9T423 -16Q344 -16 281 10T174 95T105 245T81 466Q81 623 112 727T194
893T307 981T435 1006Q484 1006 527 994T605 955T666 887T709 787T732 652T734 479H231ZM589 579V586Q589 658 579 716T548 814T496 875T421 897Q378 897 345 873T287 807T250 706T233 579H589ZM449 1123L195 1362L300 1440L519 1175L449 1123Z" />
<glyph unicode="&#xe9;" glyph-name="eacute" horiz-adv-x="844" d="M231 479V461Q231 367 246 300T291 190T362 126T458 106Q489 106 518 109T578 120T640 139T708 165L734 72Q664 33 587 9T423 -16Q344 -16 281 10T174 95T105 245T81 466Q81 623 112 727T194
893T307 981T435 1006Q484 1006 527 994T605 955T666 887T709 787T732 652T734 479H231ZM589 579V586Q589 658 579 716T548 814T496 875T421 897Q378 897 345 873T287 807T250 706T233 579H589ZM407 1123L339 1175L557 1440L662 1362L407 1123Z" />
<glyph unicode="&#xea;" glyph-name="ecircumflex" horiz-adv-x="844" d="M231 479V461Q231 367 246 300T291 190T362 126T458 106Q489 106 518 109T578 120T640 139T708 165L734 72Q664 33 587 9T423 -16Q344 -16 281 10T174 95T105 245T81 466Q81 623 112 727T194
893T307 981T435 1006Q484 1006 527 994T605 955T666 887T709 787T732 652T734 479H231ZM589 579V586Q589 658 579 716T548 814T496 875T421 897Q378 897 345 873T287 807T250 706T233 579H589ZM601 1126L426 1296L250 1127L198 1185L428 1447L656 1186L601 1126Z"
/>
<glyph unicode="&#xeb;" glyph-name="edieresis" horiz-adv-x="844" d="M231 479V461Q231 367 246 300T291 190T362 126T458 106Q489 106 518 109T578 120T640 139T708 165L734 72Q664 33 587 9T423 -16Q344 -16 281 10T174 95T105 245T81 466Q81 623 112 727T194
893T307 981T435 1006Q484 1006 527 994T605 955T666 887T709 787T732 652T734 479H231ZM589 579V586Q589 658 579 716T548 814T496 875T421 897Q378 897 345 873T287 807T250 706T233 579H589ZM664 1250Q664 1226 660 1210T646 1185T623 1172T586 1168Q562 1168
548 1172T525 1184T512 1209T508 1250Q508 1275 512 1290T525 1315T548 1328T586 1332Q609 1332 623 1329T647 1316T660 1292T664 1250ZM346 1250Q346 1226 342 1210T329 1185T305 1172T268 1168Q245 1168 230 1172T206 1184T194 1209T190 1250Q190 1275 194 1290T207
1315T230 1328T268 1332Q291 1332 306 1329T329 1316T342 1292T346 1250Z" />
<glyph unicode="&#xec;" glyph-name="igrave" horiz-adv-x="426" d="M139 0V992H287V0H139ZM491 1123L237 1362L342 1440L561 1175L491 1123Z" />
<glyph unicode="&#xed;" glyph-name="iacute" horiz-adv-x="426" d="M139 0V992H287V0H139ZM191 1123L123 1175L341 1440L446 1362L191 1123Z" />
<glyph unicode="&#xee;" glyph-name="icircumflex" horiz-adv-x="426" d="M139 0V992H287V0H139ZM644 1126L469 1296L293 1127L241 1185L471 1447L699 1186L644 1126Z" />
<glyph unicode="&#xef;" glyph-name="idieresis" horiz-adv-x="426" d="M139 0V992H287V0H139ZM674 1250Q674 1226 670 1211T657 1186T634 1172T597 1168Q575 1168 561 1171T537 1184T525 1210T521 1250Q521 1274 524 1290T537 1315T560 1328T597 1332Q619 1332
633 1329T657 1316T670 1291T674 1250V1250ZM417 1250Q417 1226 414 1211T401 1186T378 1172T341 1168Q319 1168 305 1171T281 1184T269 1210T265 1250Q265 1274 268 1290T281 1315T304 1328T341 1332Q363 1332 377 1329T401 1316T413 1291T417 1250V1250Z" />
<glyph unicode="&#xf0;" glyph-name="eth" horiz-adv-x="886" d="M593 1226Q627 1176 661 1116T724 979T769 809T787 600Q787 492 776 405T744 250T691 132T618 49T527 0T419 -16Q340 -16 277 14T169 105T102 255T78 467Q78 599 104 699T178 866T294 968T447 1002Q462
1002 478 1001T509 998T537 994T563 989Q554 1010 543 1034T517 1081T488 1128T457 1172L286 1071L225 1151L396 1252Q357 1298 319 1337T236 1418H423Q438 1404 452 1390T480 1362T506 1333T531 1304L691 1399L752 1319L593 1226ZM632 561Q632 652 623 726T595
863Q579 869 562 874T526 882T490 887T452 889Q401 889 361 867T292 797T250 678T235 505Q235 409 247 335T284 211T349 134T441 107Q493 107 529 134T588 218T621 360T632 561V561Z" />
<glyph unicode="&#xf1;" glyph-name="ntilde" horiz-adv-x="918" d="M633 0Q633 67 633 139T635 280T636 414T637 531Q637 627 627 694T598 803T550 863T483 882Q461 882 437 874T388 850T338 814T287 768V0H139V992H261L271 874Q296 898 325 921T387 964T456
994T531 1006Q591 1006 638 984T719 910T769 775T787 569Q787 518 786 451T784 308T782 153T781 0H633ZM738 1325Q719 1286 701 1256T660 1205T612 1173T553 1162Q512 1162 483 1179T431 1216T388 1254T344 1272Q332 1272 320 1267T296 1249T269 1216T237 1167L175
1215Q193 1254 212 1284T253 1335T301 1367T360 1378Q401 1378 430 1361T482 1323T525 1285T569 1268Q581 1268 593 1273T617 1291T644 1324T676 1373L738 1325Z" />
<glyph unicode="&#xf2;" glyph-name="ograve" horiz-adv-x="888" d="M807 521Q807 417 793 338T753 199T692 98T614 32T524 -5T427 -16Q348 -16 285 10T176 95T106 246T81 469Q81 572 95 652T135 791T196 892T274 958T364 995T461 1006Q540 1006 603 980T712 895T782
745T807 521V521ZM656 486Q656 592 643 668T603 793T537 865T443 888Q394 888 355 866T288 797T247 678T232 504Q232 398 245 322T285 197T351 125T445 102Q494 102 533 124T600 193T641 312T656 486V486ZM454 1123L200 1362L305 1440L524 1175L454 1123Z" />
<glyph unicode="&#xf3;" glyph-name="oacute" horiz-adv-x="888" d="M807 521Q807 417 793 338T753 199T692 98T614 32T524 -5T427 -16Q348 -16 285 10T176 95T106 246T81 469Q81 572 95 652T135 791T196 892T274 958T364 995T461 1006Q540 1006 603 980T712 895T782
745T807 521V521ZM656 486Q656 592 643 668T603 793T537 865T443 888Q394 888 355 866T288 797T247 678T232 504Q232 398 245 322T285 197T351 125T445 102Q494 102 533 124T600 193T641 312T656 486V486ZM433 1123L365 1175L583 1440L688 1362L433 1123Z" />
<glyph unicode="&#xf4;" glyph-name="ocircumflex" horiz-adv-x="888" d="M807 521Q807 417 793 338T753 199T692 98T614 32T524 -5T427 -16Q348 -16 285 10T176 95T106 246T81 469Q81 572 95 652T135 791T196 892T274 958T364 995T461 1006Q540 1006 603 980T712
895T782 745T807 521V521ZM656 486Q656 592 643 668T603 793T537 865T443 888Q394 888 355 866T288 797T247 678T232 504Q232 398 245 322T285 197T351 125T445 102Q494 102 533 124T600 193T641 312T656 486V486ZM618 1126L443 1296L267 1127L215 1185L445 1447L673
1186L618 1126Z" />
<glyph unicode="&#xf5;" glyph-name="otilde" horiz-adv-x="888" d="M807 521Q807 417 793 338T753 199T692 98T614 32T524 -5T427 -16Q348 -16 285 10T176 95T106 246T81 469Q81 572 95 652T135 791T196 892T274 958T364 995T461 1006Q540 1006 603 980T712 895T782
745T807 521V521ZM656 486Q656 592 643 668T603 793T537 865T443 888Q394 888 355 866T288 797T247 678T232 504Q232 398 245 322T285 197T351 125T445 102Q494 102 533 124T600 193T641 312T656 486V486ZM726 1325Q707 1286 689 1256T648 1205T600 1173T541 1162Q500
1162 471 1179T419 1216T376 1254T332 1272Q320 1272 308 1267T284 1249T257 1216T225 1167L163 1215Q181 1254 200 1284T241 1335T289 1367T348 1378Q389 1378 418 1361T470 1323T513 1285T557 1268Q569 1268 581 1273T605 1291T632 1324T664 1373L726 1325Z"
/>
<glyph unicode="&#xf6;" glyph-name="odieresis" horiz-adv-x="888" d="M807 521Q807 417 793 338T753 199T692 98T614 32T524 -5T427 -16Q348 -16 285 10T176 95T106 246T81 469Q81 572 95 652T135 791T196 892T274 958T364 995T461 1006Q540 1006 603 980T712
895T782 745T807 521V521ZM656 486Q656 592 643 668T603 793T537 865T443 888Q394 888 355 866T288 797T247 678T232 504Q232 398 245 322T285 197T351 125T445 102Q494 102 533 124T600 193T641 312T656 486V486ZM682 1250Q682 1226 678 1210T664 1185T641 1172T604
1168Q580 1168 566 1172T543 1184T530 1209T526 1250Q526 1275 530 1290T543 1315T566 1328T604 1332Q627 1332 641 1329T665 1316T678 1292T682 1250ZM364 1250Q364 1226 360 1210T347 1185T323 1172T286 1168Q263 1168 248 1172T224 1184T212 1209T208 1250Q208
1275 212 1290T225 1315T248 1328T286 1332Q309 1332 324 1329T347 1316T360 1292T364 1250Z" />
<glyph unicode="&#xf7;" glyph-name="divide" horiz-adv-x="840" d="M509 300Q509 274 505 257T490 229T462 214T419 209Q394 209 377 213T350 228T335 255T330 300Q330 326 334 344T349 373T377 388T420 393Q444 393 461 389T489 374T504 345T509 300V300ZM68
538V655H772V538H68ZM509 894Q509 866 505 849T490 821T462 806T419 801Q394 801 377 805T350 819T335 847T330 893Q330 920 334 937T349 964T377 979T420 984Q444 984 461 980T489 965T504 938T509 894V894Z" />
<glyph unicode="&#xf8;" glyph-name="oslash" horiz-adv-x="888" d="M716 890Q761 829 784 739T807 521Q807 417 793 338T753 199T692 98T614 32T524 -5T427 -16Q379 -16 337 -5T261 28L171 -143L87 -99L183 86Q133 145 107 239T81 469Q81 572 95 652T135 791T196
892T274 958T364 995T461 1006Q511 1006 555 994T640 952L718 1099L802 1054L716 890ZM320 142Q344 119 376 108T444 97Q495 97 536 119T605 188T648 309T664 484Q664 563 656 621T627 726L320 142ZM580 836Q554 867 519 880T445 894Q393 894 352 872T283 802T240
681T224 505Q224 421 235 355T270 247L580 836Z" />
<glyph unicode="&#xf9;" glyph-name="ugrave" horiz-adv-x="918" d="M659 0L649 117Q624 93 595 70T533 27T464 -3T389 -15Q328 -15 281 8T200 82T150 217T133 422Q133 473 134 541T136 684T138 839T139 992H287Q287 925 287 853T285 712T284 578T283 461Q283
364 293 297T322 189T370 129T437 110Q459 110 483 118T532 142T582 178T633 224V992H781V0H659ZM469 1123L215 1362L320 1440L539 1175L469 1123Z" />
<glyph unicode="&#xfa;" glyph-name="uacute" horiz-adv-x="918" d="M659 0L649 117Q624 93 595 70T533 27T464 -3T389 -15Q328 -15 281 8T200 82T150 217T133 422Q133 473 134 541T136 684T138 839T139 992H287Q287 925 287 853T285 712T284 578T283 461Q283
364 293 297T322 189T370 129T437 110Q459 110 483 118T532 142T582 178T633 224V992H781V0H659ZM460 1123L392 1175L610 1440L715 1362L460 1123Z" />
<glyph unicode="&#xfb;" glyph-name="ucircumflex" horiz-adv-x="918" d="M659 0L649 117Q624 93 595 70T533 27T464 -3T389 -15Q328 -15 281 8T200 82T150 217T133 422Q133 473 134 541T136 684T138 839T139 992H287Q287 925 287 853T285 712T284 578T283 461Q283
364 293 297T322 189T370 129T437 110Q459 110 483 118T532 142T582 178T633 224V992H781V0H659ZM634 1126L459 1296L283 1127L231 1185L461 1447L689 1186L634 1126Z" />
<glyph unicode="&#xfc;" glyph-name="udieresis" horiz-adv-x="918" d="M659 0L649 117Q624 93 595 70T533 27T464 -3T389 -15Q328 -15 281 8T200 82T150 217T133 422Q133 473 134 541T136 684T138 839T139 992H287Q287 925 287 853T285 712T284 578T283 461Q283
364 293 297T322 189T370 129T437 110Q459 110 483 118T532 142T582 178T633 224V992H781V0H659ZM695 1250Q695 1226 691 1210T677 1185T654 1172T617 1168Q593 1168 579 1172T556 1184T543 1209T539 1250Q539 1275 543 1290T556 1315T579 1328T617 1332Q640 1332
654 1329T678 1316T691 1292T695 1250ZM377 1250Q377 1226 373 1210T360 1185T336 1172T299 1168Q276 1168 261 1172T237 1184T225 1209T221 1250Q221 1275 225 1290T238 1315T261 1328T299 1332Q322 1332 337 1329T360 1316T373 1292T377 1250Z" />
<glyph unicode="&#xfd;" glyph-name="yacute" horiz-adv-x="760" d="M728 992Q692 776 654 604T575 298T493 63T411 -109T329 -228T250 -302T175 -340T105 -351Q84 -351 57 -345T3 -327V-229Q10 -230 18 -231T36 -232T55 -233T74 -234Q113 -234 147 -220T210 -177Q226
-161 240 -139T263 -94T279 -47T285 0Q285 35 277 79T251 181L17 992H173L357 337Q363 314 369 287T381 231T388 174T388 121Q417 205 445 309T498 527T543 760T575 992H728ZM391 1123L323 1175L541 1440L646 1362L391 1123Z" />
<glyph unicode="&#xfe;" glyph-name="thorn" horiz-adv-x="888" d="M139 -346V1418H287V894Q316 920 345 941T404 976T463 998T521 1006Q588 1006 641 970T731 871T787 722T807 535Q807 392 775 288T688 117T556 18T392 -14Q382 -14 370 -14T344 -12T316 -9T287
-4V-346H139ZM287 114Q301 110 316 107T346 102T376 98T406 97Q460 97 505 122T582 199T633 326T651 502Q651 590 639 660T603 780T547 855T473 882Q439 882 390 855T287 773V114Z" />
<glyph unicode="&#xff;" glyph-name="ydieresis" horiz-adv-x="760" d="M728 992Q692 776 654 604T575 298T493 63T411 -109T329 -228T250 -302T175 -340T105 -351Q84 -351 57 -345T3 -327V-229Q10 -230 18 -231T36 -232T55 -233T74 -234Q113 -234 147 -220T210
-177Q226 -161 240 -139T263 -94T279 -47T285 0Q285 35 277 79T251 181L17 992H173L357 337Q363 314 369 287T381 231T388 174T388 121Q417 205 445 309T498 527T543 760T575 992H728ZM629 1250Q629 1226 625 1210T611 1185T588 1172T551 1168Q527 1168 513 1172T490
1184T477 1209T473 1250Q473 1275 477 1290T490 1315T513 1328T551 1332Q574 1332 588 1329T612 1316T625 1292T629 1250ZM311 1250Q311 1226 307 1210T294 1185T270 1172T233 1168Q210 1168 195 1172T171 1184T159 1209T155 1250Q155 1275 159 1290T172 1315T195
1328T233 1332Q256 1332 271 1329T294 1316T307 1292T311 1250Z" />
<glyph unicode="&#x100;" glyph-name="Amacron" horiz-adv-x="916" d="M724 0Q717 38 710 75T695 148T679 222T661 297H237Q222 225 207 152T177 0H26Q59 159 97 329T177 672T265 1016T358 1350H550Q601 1170 647 999T736 660T816 328T889 0H724ZM638 421Q615
514 591 610T543 803T492 997T440 1191Q419 1104 397 1010T351 816T306 617T262 421H638ZM223 1507V1616H693V1507H223Z" />
<glyph unicode="&#x101;" glyph-name="amacron" horiz-adv-x="838" d="M588 0L580 114Q547 82 517 58T455 18T387 -7T309 -16Q187 -16 127 53T67 251Q67 323 91 383T165 488T296 556T489 581H560V685Q560 744 547 783T508 845T448 878T369 888Q337 888 306 883T244
871T185 853T130 832L106 931Q137 946 172 959T245 983T325 1000T411 1006Q485 1006 540 987T632 931T687 839T706 712V0H588ZM560 477H477Q397 477 346 462T266 420T227 355T216 273Q216 233 224 202T250 148T294 113T354 101Q408 101 458 131T560 215V477ZM198
1184V1297H628V1184H198Z" />
<glyph unicode="&#x102;" glyph-name="Abreve" horiz-adv-x="916" d="M724 0Q717 38 710 75T695 148T679 222T661 297H237Q222 225 207 152T177 0H26Q59 159 97 329T177 672T265 1016T358 1350H550Q601 1170 647 999T736 660T816 328T889 0H724ZM638 421Q615 514
591 610T543 803T492 997T440 1191Q419 1104 397 1010T351 816T306 617T262 421H638ZM685 1703Q685 1645 670 1597T625 1515T554 1463T456 1444Q400 1444 357 1462T285 1514T240 1596T225 1703H319Q319 1668 328 1641T355 1594T398 1565T456 1554Q488 1554 513
1564T556 1593T583 1640T592 1703H685Z" />
<glyph unicode="&#x103;" glyph-name="abreve" horiz-adv-x="838" d="M588 0L580 114Q547 82 517 58T455 18T387 -7T309 -16Q187 -16 127 53T67 251Q67 323 91 383T165 488T296 556T489 581H560V685Q560 744 547 783T508 845T448 878T369 888Q337 888 306 883T244
871T185 853T130 832L106 931Q137 946 172 959T245 983T325 1000T411 1006Q485 1006 540 987T632 931T687 839T706 712V0H588ZM560 477H477Q397 477 346 462T266 420T227 355T216 273Q216 233 224 202T250 148T294 113T354 101Q408 101 458 131T560 215V477ZM643
1414Q643 1344 628 1291T583 1200T510 1145T411 1126Q355 1126 313 1144T242 1199T198 1290T183 1414H277Q276 1371 285 1339T311 1285T354 1252T412 1241Q446 1241 471 1251T514 1283T540 1337T549 1414H643Z" />
<glyph unicode="&#x104;" glyph-name="Aogonek" horiz-adv-x="914" d="M918 -317Q901 -327 883 -334T847 -346T810 -353T772 -355Q735 -355 705 -347T653 -323T619 -282T607 -220Q607 -192 614 -163T636 -106T673 -52T723 0Q716 38 709 75T693 148T677 222T660
297H236Q220 225 205 152T175 0H25Q58 159 96 329T176 672T263 1016T356 1350H548Q600 1170 646 999T735 660T815 328T887 0Q850 -15 823 -38T778 -88T752 -141T744 -191Q744 -227 761 -242T816 -257Q833 -257 855 -254T899 -242L918 -317ZM636 421Q614 514 590
610T541 803T491 997T439 1191Q418 1104 396 1010T350 816T304 617T261 421H636Z" />
<glyph unicode="&#x105;" glyph-name="aogonek" horiz-adv-x="838" d="M761 -317Q745 -327 727 -334T691 -346T654 -353T615 -355Q578 -355 548 -347T496 -323T462 -282T450 -220Q450 -164 482 -104T588 10L580 114Q547 82 517 58T455 18T387 -7T309 -16Q187 -16
127 53T67 251Q67 323 91 383T165 488T296 556T489 581H560V685Q560 744 547 783T508 845T448 878T369 888Q337 888 306 883T244 871T185 853T130 832L106 931Q137 946 172 959T245 983T325 1000T411 1006Q484 1006 539 987T632 931T687 839T706 712V0Q643 -48
615 -98T587 -191Q587 -227 604 -242T660 -257Q676 -257 698 -254T743 -242L761 -317ZM560 477H477Q397 477 346 462T266 420T227 355T216 273Q216 233 224 202T250 148T294 113T354 101Q408 101 458 131T560 215V477Z" />
<glyph unicode="&#x106;" glyph-name="Cacute" horiz-adv-x="808" d="M761 167Q734 126 702 92T633 34T551 -3T454 -16Q370 -16 302 26T186 152T111 362T84 656Q84 838 116 971T203 1192T328 1323T478 1366Q521 1366 559 1354T632 1317T694 1258T747 1176L668
1102Q629 1167 587 1199T485 1232Q454 1232 425 1218T369 1174T321 1101T282 996T257 859T247 691Q247 554 263 448T309 268T383 157T484 118Q517 118 545 127T598 153T647 194T694 249L761 167ZM654 1709L729 1600L411 1456L362 1529L654 1709Z" />
<glyph unicode="&#x107;" glyph-name="cacute" horiz-adv-x="708" d="M670 126Q642 93 612 67T549 23T477 -4T393 -14Q317 -14 259 17T162 109T102 264T81 481Q81 623 109 722T184 884T289 975T411 1004Q482 1004 538 974T647 883L591 802Q544 848 503 866T424
885Q377 885 342 861T282 790T246 671T233 506Q233 405 245 330T282 205T343 131T428 107Q481 107 524 131T618 208L670 126ZM404 1123L336 1175L554 1440L659 1362L404 1123Z" />
<glyph unicode="&#x108;" glyph-name="Ccircumflex" horiz-adv-x="808" d="M761 167Q734 126 702 92T633 34T551 -3T454 -16Q370 -16 302 26T186 152T111 362T84 656Q84 838 116 971T203 1192T328 1323T478 1366Q521 1366 559 1354T632 1317T694 1258T747 1176L668
1102Q629 1167 587 1199T485 1232Q454 1232 425 1218T369 1174T321 1101T282 996T257 859T247 691Q247 554 263 448T309 268T383 157T484 118Q517 118 545 127T598 153T647 194T694 249L761 167ZM712 1530L671 1458L467 1578L265 1458L226 1529L470 1711L712 1530Z"
/>
<glyph unicode="&#x109;" glyph-name="ccircumflex" horiz-adv-x="708" d="M670 126Q642 93 612 67T549 23T477 -4T393 -14Q317 -14 259 17T162 109T102 264T81 481Q81 623 109 722T184 884T289 975T411 1004Q482 1004 538 974T647 883L591 802Q544 848 503 866T424
885Q377 885 342 861T282 790T246 671T233 506Q233 405 245 330T282 205T343 131T428 107Q481 107 524 131T618 208L670 126ZM578 1126L403 1296L227 1127L175 1185L405 1447L633 1186L578 1126Z" />
<glyph unicode="&#x10a;" glyph-name="Cdotaccent" horiz-adv-x="808" d="M761 167Q734 126 702 92T633 34T551 -3T454 -16Q370 -16 302 26T186 152T111 362T84 656Q84 838 116 971T203 1192T328 1323T478 1366Q521 1366 559 1354T632 1317T694 1258T747 1176L668
1102Q629 1167 587 1199T485 1232Q454 1232 425 1218T369 1174T321 1101T282 996T257 859T247 691Q247 554 263 448T309 268T383 157T484 118Q517 118 545 127T598 153T647 194T694 249L761 167ZM551 1562Q551 1536 547 1520T533 1495T506 1482T463 1478Q437 1478
420 1481T393 1493T380 1518T376 1559Q376 1585 379 1601T393 1627T420 1640T464 1643Q489 1643 506 1640T533 1628T547 1603T551 1562V1562Z" />
<glyph unicode="&#x10b;" glyph-name="cdotaccent" horiz-adv-x="708" d="M670 126Q642 93 612 67T549 23T477 -4T393 -14Q317 -14 259 17T162 109T102 264T81 481Q81 623 109 722T184 884T289 975T411 1004Q482 1004 538 974T647 883L591 802Q544 848 503 866T424
885Q377 885 342 861T282 790T246 671T233 506Q233 405 245 330T282 205T343 131T428 107Q481 107 524 131T618 208L670 126ZM493 1251Q493 1224 490 1208T476 1181T448 1167T403 1163Q375 1163 358 1166T331 1179T317 1206T313 1250Q313 1277 316 1293T330 1320T358
1334T403 1338Q430 1338 447 1335T475 1322T489 1295T493 1251V1251Z" />
<glyph unicode="&#x10c;" glyph-name="Ccaron" horiz-adv-x="808" d="M761 167Q734 126 702 92T633 34T551 -3T454 -16Q370 -16 302 26T186 152T111 362T84 656Q84 838 116 971T203 1192T328 1323T478 1366Q521 1366 559 1354T632 1317T694 1258T747 1176L668
1102Q629 1167 587 1199T485 1232Q454 1232 425 1218T369 1174T321 1101T282 996T257 859T247 691Q247 554 263 448T309 268T383 157T484 118Q517 118 545 127T598 153T647 194T694 249L761 167ZM217 1639L258 1711L461 1591L663 1711L703 1640L459 1458L217 1639Z"
/>
<glyph unicode="&#x10d;" glyph-name="ccaron" horiz-adv-x="708" d="M670 126Q642 93 612 67T549 23T477 -4T393 -14Q317 -14 259 17T162 109T102 264T81 481Q81 623 109 722T184 884T289 975T411 1004Q482 1004 538 974T647 883L591 802Q544 848 503 866T424
885Q377 885 342 861T282 790T246 671T233 506Q233 405 245 330T282 205T343 131T428 107Q481 107 524 131T618 208L670 126ZM398 1127L172 1388L225 1448L402 1279L576 1448L629 1389L398 1127Z" />
<glyph unicode="&#x10e;" glyph-name="Dcaron" horiz-adv-x="978" d="M150 1350Q192 1350 285 1351T426 1352Q507 1352 574 1331T694 1271T785 1174T849 1046T886 890T898 708Q898 536 866 403T769 180T609 43T388 -4Q359 -4 330 -4T259 -2T194 -1T150 0V1350ZM306
132Q333 129 359 128T412 126Q490 126 550 160T651 264T714 439T736 684Q736 762 728 831T704 961T661 1069T599 1152T515 1205T408 1224Q389 1224 371 1224T339 1223T317 1223T306 1222V132ZM198 1639L239 1711L442 1591L644 1711L684 1640L440 1458L198 1639Z"
/>
<glyph unicode="&#x10f;" glyph-name="dcaron" horiz-adv-x="952" d="M627 0L615 109Q583 79 552 56T490 17T428 -8T367 -16Q299 -16 247 19T157 118T101 267T81 454Q81 599 112 703T199 874T331 972T496 1004Q521 1004 549 1002T601 995V1418H749V0H627ZM601
876Q572 885 542 889T482 893Q428 893 383 868T306 793T255 666T237 488Q237 400 249 330T285 210T341 135T415 108Q449 108 498 135T601 217V876ZM895 1123L812 1135L881 1482L1005 1461L895 1123Z" />
<glyph unicode="&#x110;" glyph-name="Dcroat" horiz-adv-x="994" d="M166 1350Q232 1350 301 1351T441 1353Q524 1353 591 1332T710 1271T800 1174T864 1046T901 889T913 708Q913 535 881 403T784 180T625 43T403 -4Q371 -4 339 -4T277 -3T218 -1T166 0V635H52V761H166V1350ZM322
761H521V635H322V132Q348 129 375 128T428 127Q505 127 565 161T666 264T729 438T751 684Q751 761 744 830T720 960T677 1069T615 1152T532 1205T424 1224Q404 1224 386 1224T354 1223T332 1223T322 1222V761Z" />
<glyph unicode="&#x111;" glyph-name="dcroat" horiz-adv-x="888" d="M749 0H627L615 109Q583 79 552 56T490 17T428 -8T367 -16Q299 -16 247 19T157 118T100 267T80 454Q80 598 112 702T200 874T332 972T496 1004Q521 1004 549 1002T601 995V1152H410V1249H601V1418H749V1249H885V1152H749V0ZM601
876Q572 885 542 889T482 893Q428 893 383 868T306 791T255 664T237 488Q237 400 249 330T285 210T341 135T415 108Q449 108 498 135T601 217V876Z" />
<glyph unicode="&#x112;" glyph-name="Emacron" horiz-adv-x="772" d="M150 0V1350H686V1220H308V766H618V638H308V132H692V0H150ZM180 1507V1616H650V1507H180Z" />
<glyph unicode="&#x113;" glyph-name="emacron" horiz-adv-x="844" d="M231 479V461Q231 367 246 300T291 190T362 126T458 106Q489 106 518 109T578 120T640 139T708 165L734 72Q664 33 587 9T423 -16Q344 -16 281 10T174 95T105 245T81 466Q81 623 112 727T194
893T307 981T435 1006Q484 1006 527 994T605 955T666 887T709 787T732 652T734 479H231ZM589 579V586Q589 658 579 716T548 814T496 875T421 897Q378 897 345 873T287 807T250 706T233 579H589ZM218 1184V1297H648V1184H218Z" />
<glyph unicode="&#x114;" glyph-name="Ebreve" horiz-adv-x="772" d="M150 0V1350H686V1220H308V766H618V638H308V132H692V0H150ZM640 1703Q640 1645 625 1597T580 1515T509 1463T411 1444Q355 1444 312 1462T240 1514T195 1596T180 1703H274Q274 1668 283 1641T310
1594T353 1565T411 1554Q443 1554 468 1564T511 1593T538 1640T547 1703H640Z" />
<glyph unicode="&#x115;" glyph-name="ebreve" horiz-adv-x="844" d="M231 479V461Q231 367 246 300T291 190T362 126T458 106Q489 106 518 109T578 120T640 139T708 165L734 72Q664 33 587 9T423 -16Q344 -16 281 10T174 95T105 245T81 466Q81 623 112 727T194
893T307 981T435 1006Q484 1006 527 994T605 955T666 887T709 787T732 652T734 479H231ZM589 579V586Q589 658 579 716T548 814T496 875T421 897Q378 897 345 873T287 807T250 706T233 579H589ZM654 1414Q654 1344 639 1291T594 1200T521 1145T422 1126Q366 1126
324 1144T253 1199T209 1290T194 1414H288Q287 1371 296 1339T322 1285T365 1252T423 1241Q457 1241 482 1251T525 1283T551 1337T560 1414H654Z" />
<glyph unicode="&#x116;" glyph-name="Edotaccent" horiz-adv-x="772" d="M150 0V1350H686V1220H308V766H618V638H308V132H692V0H150ZM508 1559Q508 1533 504 1517T490 1492T463 1479T420 1475Q394 1475 377 1478T350 1490T337 1515T333 1556Q333 1582 336 1598T350
1624T377 1637T421 1640Q446 1640 463 1637T490 1625T504 1600T508 1559V1559Z" />
<glyph unicode="&#x117;" glyph-name="edotaccent" horiz-adv-x="844" d="M231 479V461Q231 367 246 300T291 190T362 126T458 106Q489 106 518 109T578 120T640 139T708 165L734 72Q664 33 587 9T423 -16Q344 -16 281 10T174 95T105 245T81 466Q81 623 112 727T194
893T307 981T435 1006Q484 1006 527 994T605 955T666 887T709 787T732 652T734 479H231ZM589 579V586Q589 658 579 716T548 814T496 875T421 897Q378 897 345 873T287 807T250 706T233 579H589ZM516 1251Q516 1224 513 1208T499 1181T471 1167T426 1163Q398 1163
381 1166T354 1179T340 1206T336 1250Q336 1277 339 1293T353 1320T381 1334T426 1338Q453 1338 470 1335T498 1322T512 1295T516 1251V1251Z" />
<glyph unicode="&#x118;" glyph-name="Eogonek" horiz-adv-x="772" d="M693 0Q655 -25 630 -50T590 -99T567 -146T560 -191Q560 -227 578 -242T633 -257Q649 -257 671 -254T716 -242L735 -317Q718 -327 700 -334T664 -346T627 -353T589 -355Q552 -355 522 -347T469
-323T436 -282T424 -220Q424 -193 431 -164T455 -107T495 -52T552 0H151V1350H687V1219H309V766H618V639H309V132H693V0Z" />
<glyph unicode="&#x119;" glyph-name="eogonek" horiz-adv-x="844" d="M732 75Q690 41 659 7T607 -62T576 -128T566 -191Q566 -227 583 -242T638 -257Q655 -257 677 -254T721 -242L740 -317Q723 -327 705 -334T669 -346T632 -353T594 -355Q557 -355 527 -347T475
-323T441 -282T429 -220Q429 -164 459 -106T555 6Q526 -4 493 -10T423 -16Q344 -16 281 10T174 95T105 245T81 466Q81 623 112 727T194 893T307 981T435 1006Q484 1006 527 994T605 955T666 887T709 787T732 652T734 479H231V461Q231 367 246 300T291 190T362 126T458
106Q489 106 518 109T578 120T640 139T708 165L732 75ZM589 579V586Q589 658 579 716T548 814T496 875T421 897Q378 897 345 873T287 807T250 706T233 579H589Z" />
<glyph unicode="&#x11a;" glyph-name="Ecaron" horiz-adv-x="772" d="M150 0V1350H686V1220H308V766H618V638H308V132H692V0H150ZM179 1639L220 1711L423 1591L625 1711L665 1640L421 1458L179 1639Z" />
<glyph unicode="&#x11b;" glyph-name="ecaron" horiz-adv-x="844" d="M231 479V461Q231 367 246 300T291 190T362 126T458 106Q489 106 518 109T578 120T640 139T708 165L734 72Q664 33 587 9T423 -16Q344 -16 281 10T174 95T105 245T81 466Q81 623 112 727T194
893T307 981T435 1006Q484 1006 527 994T605 955T666 887T709 787T732 652T734 479H231ZM589 579V586Q589 658 579 716T548 814T496 875T421 897Q378 897 345 873T287 807T250 706T233 579H589ZM430 1127L204 1388L257 1448L434 1279L608 1448L661 1389L430 1127Z"
/>
<glyph unicode="&#x11c;" glyph-name="Gcircumflex" horiz-adv-x="932" d="M819 126Q789 94 754 68T678 23T591 -6T490 -16Q395 -16 320 25T192 150T112 360T84 659Q84 847 119 980T213 1200T349 1326T509 1366Q556 1366 599 1353T680 1318T750 1266T808 1202L737
1126Q711 1151 685 1172T631 1207T574 1228T514 1236Q453 1236 403 1202T317 1098T262 927T242 692Q242 540 261 431T315 252T399 148T511 115Q537 115 560 119T604 132T640 150T667 173V608H507V721H819V126ZM756 1530L715 1458L511 1578L309 1458L270 1529L514
1711L756 1530Z" />
<glyph unicode="&#x11d;" glyph-name="gcircumflex" horiz-adv-x="888" d="M749 32Q749 -47 738 -106T706 -208T655 -280T589 -325T509 -348T417 -355Q386 -355 353 -352T284 -341T214 -322T146 -296L160 -201Q236 -216 296 -224T404 -232Q456 -232 493 -220T555
-182T590 -113T601 -8V112Q542 59 484 30T367 0Q300 0 247 35T157 133T101 280T81 463Q81 604 112 706T200 875T335 973T507 1005Q536 1005 568 1003T632 997T694 987T749 975V32ZM601 876Q586 880 571 883T541 888T511 892T481 893Q428 893 383 868T306 792T255
668T237 497Q237 412 249 343T285 225T341 150T415 124Q432 124 453 131T498 152T548 186T601 234V876ZM637 1126L462 1296L286 1127L234 1185L464 1447L692 1186L637 1126Z" />
<glyph unicode="&#x11e;" glyph-name="Gbreve" horiz-adv-x="932" d="M819 126Q789 94 754 68T678 23T591 -6T490 -16Q395 -16 320 25T192 150T112 360T84 659Q84 847 119 980T213 1200T349 1326T509 1366Q556 1366 599 1353T680 1318T750 1266T808 1202L737 1126Q711
1151 685 1172T631 1207T574 1228T514 1236Q453 1236 403 1202T317 1098T262 927T242 692Q242 540 261 431T315 252T399 148T511 115Q537 115 560 119T604 132T640 150T667 173V608H507V721H819V126ZM738 1703Q738 1645 723 1597T678 1515T607 1463T509 1444Q453
1444 410 1462T338 1514T293 1596T278 1703H372Q372 1668 381 1641T408 1594T451 1565T509 1554Q541 1554 566 1564T609 1593T636 1640T645 1703H738Z" />
<glyph unicode="&#x11f;" glyph-name="gbreve" horiz-adv-x="888" d="M749 32Q749 -47 738 -106T706 -208T655 -280T589 -325T509 -348T417 -355Q386 -355 353 -352T284 -341T214 -322T146 -296L160 -201Q236 -216 296 -224T404 -232Q456 -232 493 -220T555 -182T590
-113T601 -8V112Q542 59 484 30T367 0Q300 0 247 35T157 133T101 280T81 463Q81 604 112 706T200 875T335 973T507 1005Q536 1005 568 1003T632 997T694 987T749 975V32ZM601 876Q586 880 571 883T541 888T511 892T481 893Q428 893 383 868T306 792T255 668T237
497Q237 412 249 343T285 225T341 150T415 124Q432 124 453 131T498 152T548 186T601 234V876ZM699 1414Q699 1344 684 1291T639 1200T566 1145T467 1126Q411 1126 369 1144T298 1199T254 1290T239 1414H333Q332 1371 341 1339T367 1285T410 1252T468 1241Q502
1241 527 1251T570 1283T596 1337T605 1414H699Z" />
<glyph unicode="&#x120;" glyph-name="Gdotaccent" horiz-adv-x="932" d="M819 126Q789 94 754 68T678 23T591 -6T490 -16Q395 -16 320 25T192 150T112 360T84 659Q84 847 119 980T213 1200T349 1326T509 1366Q556 1366 599 1353T680 1318T750 1266T808 1202L737
1126Q711 1151 685 1172T631 1207T574 1228T514 1236Q453 1236 403 1202T317 1098T262 927T242 692Q242 540 261 431T315 252T399 148T511 115Q537 115 560 119T604 132T640 150T667 173V608H507V721H819V126ZM598 1562Q598 1536 594 1520T580 1495T553 1482T510
1478Q484 1478 467 1481T440 1493T427 1518T423 1559Q423 1585 426 1601T440 1627T467 1640T511 1643Q536 1643 553 1640T580 1628T594 1603T598 1562V1562Z" />
<glyph unicode="&#x121;" glyph-name="gdotaccent" horiz-adv-x="888" d="M749 32Q749 -47 738 -106T706 -208T655 -280T589 -325T509 -348T417 -355Q386 -355 353 -352T284 -341T214 -322T146 -296L160 -201Q236 -216 296 -224T404 -232Q456 -232 493 -220T555
-182T590 -113T601 -8V112Q542 59 484 30T367 0Q300 0 247 35T157 133T101 280T81 463Q81 604 112 706T200 875T335 973T507 1005Q536 1005 568 1003T632 997T694 987T749 975V32ZM601 876Q586 880 571 883T541 888T511 892T481 893Q428 893 383 868T306 792T255
668T237 497Q237 412 249 343T285 225T341 150T415 124Q432 124 453 131T498 152T548 186T601 234V876ZM547 1251Q547 1224 544 1208T530 1181T502 1167T457 1163Q429 1163 412 1166T385 1179T371 1206T367 1250Q367 1277 370 1293T384 1320T412 1334T457 1338Q484
1338 501 1335T529 1322T543 1295T547 1251V1251Z" />
<glyph unicode="&#x122;" glyph-name="Gcommaaccent" horiz-adv-x="932" d="M819 126Q789 94 754 68T678 23T591 -6T490 -16Q395 -16 320 25T192 150T112 360T84 659Q84 847 119 980T213 1200T349 1326T509 1366Q556 1366 599 1353T680 1318T750 1266T808 1202L737
1126Q711 1151 685 1172T631 1207T574 1228T514 1236Q453 1236 403 1202T317 1098T262 927T242 692Q242 540 261 431T315 252T399 148T511 115Q537 115 560 119T604 132T640 150T667 173V608H507V721H819V126ZM506 -77Q528 -77 543 -81T567 -94T580 -117T584 -151Q584
-191 570 -224T529 -282T464 -326T378 -357L348 -297Q398 -273 422 -250T447 -203Q447 -194 444 -189T438 -178T432 -166T429 -143Q429 -127 434 -114T448 -93T471 -81T506 -77V-77Z" />
<glyph unicode="&#x123;" glyph-name="gcommaaccent" horiz-adv-x="888" d="M749 32Q749 -47 738 -106T706 -208T655 -280T589 -325T509 -348T417 -355Q386 -355 353 -352T284 -341T214 -322T146 -296L160 -201Q236 -216 296 -224T404 -232Q456 -232 493 -220T555
-182T590 -113T601 -8V112Q542 59 484 30T367 0Q300 0 247 35T157 133T101 280T81 463Q81 604 112 706T200 875T335 973T507 1005Q536 1005 568 1003T632 997T694 987T749 975V32ZM601 876Q586 880 571 883T541 888T511 892T481 893Q428 893 383 868T306 792T255
668T237 497Q237 412 249 343T285 225T341 150T415 124Q432 124 453 131T498 152T548 186T601 234V876ZM617 1388Q597 1373 581 1358T553 1328T536 1297T530 1265Q530 1254 533 1249T541 1238T549 1221T552 1193Q552 1173 548 1160T535 1138T511 1125T475 1121Q453
1121 439 1125T415 1138T403 1161T399 1198Q399 1236 410 1270T443 1333T499 1389T577 1440L617 1388Z" />
<glyph unicode="&#x124;" glyph-name="Hcircumflex" horiz-adv-x="1050" d="M741 0V646H309V0H151V1350H309V776H741V1350H899V0H741ZM767 1530L726 1458L522 1578L320 1458L281 1529L525 1711L767 1530Z" />
<glyph unicode="&#x125;" glyph-name="hcircumflex" horiz-adv-x="918" d="M633 0Q633 67 633 139T635 280T636 414T637 531Q637 627 627 694T598 803T550 863T483 882Q461 882 437 874T388 850T338 814T287 768V0H139V1418H287V886Q308 907 335 928T394 967T459
995T531 1006Q591 1006 638 984T719 910T769 775T787 569Q787 518 786 451T784 308T782 153T781 0H633ZM720 1565L679 1493L475 1613L273 1493L234 1564L478 1746L720 1565Z" />
<glyph unicode="&#x126;" glyph-name="Hbar" horiz-adv-x="1058" d="M746 0V639H313V0H155V1026H51V1137H155V1350H313V1137H746V1350H904V1137H1008V1026H904V0H746ZM746 767V1026H313V767H746Z" />
<glyph unicode="&#x127;" glyph-name="hbar" horiz-adv-x="918" d="M633 0Q633 67 633 139T635 280T636 414T637 531Q637 627 627 694T598 803T550 863T483 882Q461 882 437 874T388 850T338 814T287 768V0H139V1165H8V1274H139V1426H287V1274H507V1165H287V886Q308
907 335 928T394 967T459 995T531 1006Q591 1006 638 984T719 910T769 775T787 569Q787 518 786 451T784 308T782 153T781 0H633Z" />
<glyph unicode="&#x128;" glyph-name="Itilde" horiz-adv-x="460" d="M151 0V1350H310V0H151ZM520 1629Q501 1590 482 1560T439 1509T389 1477T328 1466Q286 1466 257 1483T205 1520T162 1558T118 1576Q105 1576 93 1571T67 1553T38 1520T5 1471L-58 1519Q-40
1558 -20 1588T23 1639T73 1671T134 1682Q176 1682 205 1665T257 1627T300 1589T344 1572Q357 1572 369 1577T395 1595T424 1628T457 1677L520 1629Z" />
<glyph unicode="&#x129;" glyph-name="itilde" horiz-adv-x="426" d="M139 0V992H287V0H139ZM495 1325Q476 1286 458 1256T417 1205T369 1173T310 1162Q269 1162 240 1179T188 1216T145 1254T101 1272Q89 1272 77 1267T53 1249T26 1216T-6 1167L-68 1215Q-50 1254
-31 1284T10 1335T58 1367T117 1378Q158 1378 187 1361T239 1323T282 1285T326 1268Q338 1268 350 1273T374 1291T401 1324T433 1373L495 1325Z" />
<glyph unicode="&#x12a;" glyph-name="Imacron" horiz-adv-x="460" d="M151 0V1350H310V0H151ZM252 1507V1616H722V1507H252Z" />
<glyph unicode="&#x12b;" glyph-name="imacron" horiz-adv-x="426" d="M139 0V992H287V0H139ZM255 1184V1297H685V1184H255Z" />
<glyph unicode="&#x12c;" glyph-name="Ibreve" horiz-adv-x="460" d="M151 0V1350H310V0H151ZM717 1703Q717 1645 702 1597T657 1515T586 1463T488 1444Q432 1444 389 1462T317 1514T272 1596T257 1703H351Q351 1668 360 1641T387 1594T430 1565T488 1554Q520
1554 545 1564T588 1593T615 1640T624 1703H717Z" />
<glyph unicode="&#x12d;" glyph-name="ibreve" horiz-adv-x="426" d="M139 0V992H287V0H139ZM700 1414Q700 1344 685 1291T640 1200T567 1145T468 1126Q412 1126 370 1144T299 1199T255 1290T240 1414H334Q333 1371 342 1339T368 1285T411 1252T469 1241Q503 1241
528 1251T571 1283T597 1337T606 1414H700Z" />
<glyph unicode="&#x12e;" glyph-name="Iogonek" horiz-adv-x="460" d="M151 1350H310V0Q279 -17 256 -41T218 -91T196 -143T188 -191Q188 -227 205 -242T260 -257Q277 -257 299 -254T344 -242L362 -317Q346 -327 328 -334T292 -346T254 -353T216 -355Q179 -355
149 -347T97 -323T63 -282T51 -220Q51 -164 77 -109T151 0V1350Z" />
<glyph unicode="&#x12f;" glyph-name="iogonek" horiz-adv-x="426" d="M303 1248Q303 1221 299 1205T285 1178T258 1164T212 1160Q185 1160 168 1163T140 1176T126 1203T122 1247Q122 1274 126 1290T140 1317T168 1331T213 1335Q240 1335 257 1332T285 1319T299
1292T303 1248V1248ZM139 992H287V0Q260 -17 240 -41T205 -91T184 -143T176 -191Q176 -227 193 -242T248 -257Q265 -257 287 -254T332 -242L350 -317Q334 -327 316 -334T279 -346T242 -353T204 -355Q167 -355 137 -347T85 -323T51 -282T39 -220Q39 -164 65 -109T139
0V992Z" />
<glyph unicode="&#x130;" glyph-name="Idotaccent" horiz-adv-x="460" d="M151 0V1350H310V0H151ZM318 1559Q318 1533 314 1517T300 1492T273 1479T230 1475Q204 1475 187 1478T160 1490T147 1515T143 1556Q143 1582 146 1598T160 1624T187 1637T231 1640Q256
1640 273 1637T300 1625T314 1600T318 1559V1559Z" />
<glyph unicode="&#x131;" glyph-name="dotlessi" horiz-adv-x="426" d="M139 0V992H287V0H139Z" />
<glyph unicode="&#x132;" glyph-name="IJ" horiz-adv-x="924" d="M151 0V1350H310V0H151ZM773 138Q773 59 765 -9T737 -136T684 -248T601 -348L521 -282Q550 -244 568 -199T596 -102T610 10T614 140V1350H773V138Z" />
<glyph unicode="&#x133;" glyph-name="ij" horiz-adv-x="850" d="M303 1248Q303 1221 299 1205T285 1178T258 1164T212 1160Q185 1160 168 1163T140 1176T126 1203T122 1247Q122 1274 126 1290T140 1317T168 1331T213 1335Q240 1335 257 1332T285 1319T299 1292T303
1248V1248ZM139 0V992H287V0H139ZM712 79Q712 6 703 -54T673 -166T621 -264T543 -355L450 -302Q500 -239 532 -155T564 36V950V992H712V79ZM728 1248Q728 1221 724 1205T710 1178T683 1164T637 1160Q610 1160 593 1163T565 1176T551 1203T547 1247Q547 1274 551
1290T565 1317T593 1331T638 1335Q665 1335 682 1332T710 1319T724 1292T728 1248V1248Z" />
<glyph unicode="&#x134;" glyph-name="Jcircumflex" horiz-adv-x="464" d="M313 138Q313 59 305 -9T277 -136T224 -248T141 -348L61 -282Q90 -244 108 -199T136 -102T150 10T154 140V1350H313V138ZM734 1530L693 1458L489 1578L287 1458L248 1529L492 1711L734 1530Z" />
<glyph unicode="&#x135;" glyph-name="jcircumflex" horiz-adv-x="426" d="M287 79Q287 6 278 -54T248 -166T196 -264T118 -355L25 -302Q75 -239 107 -155T139 36V992H287V79ZM645 1126L470 1296L294 1127L242 1185L472 1447L700 1186L645 1126Z" />
<glyph unicode="&#x136;" glyph-name="Kcommaaccent" horiz-adv-x="850" d="M655 0L309 674H307V0H151V1350H307V742H309L633 1350H808L450 736L837 0H655ZM463 -77Q485 -77 500 -81T524 -94T537 -117T541 -151Q541 -191 527 -224T486 -282T421 -326T335 -357L305
-297Q355 -273 379 -250T404 -203Q404 -194 401 -189T395 -178T389 -166T386 -143Q386 -127 391 -114T405 -93T428 -81T463 -77V-77Z" />
<glyph unicode="&#x137;" glyph-name="kcommaaccent" horiz-adv-x="734" d="M578 0L291 530H287V0H139V1418H287V604H291L530 992H704L412 590L752 0H578ZM422 -77Q444 -77 459 -81T483 -94T496 -117T500 -151Q500 -191 486 -224T445 -282T380 -326T294 -357L264
-297Q314 -273 338 -250T363 -203Q363 -194 360 -189T354 -178T348 -166T345 -143Q345 -127 350 -114T364 -93T387 -81T422 -77V-77Z" />
<glyph unicode="&#x138;" glyph-name="kgreenlandic" horiz-adv-x="734" d="M567 0L287 495V495V0H139V992H287V570V570L536 992H710L410 554L741 0H567Z" />
<glyph unicode="&#x139;" glyph-name="Lacute" horiz-adv-x="664" d="M151 0V1350H310V130H651V0H151ZM486 1709L561 1600L243 1456L194 1529L486 1709Z" />
<glyph unicode="&#x13a;" glyph-name="lacute" horiz-adv-x="454" d="M406 4Q392 0 377 -3T345 -9T313 -12T283 -13Q245 -13 218 -6T174 23T148 83T139 183V1418H287V244Q287 200 289 172T299 129T318 108T352 102Q364 102 377 102T403 102L406 4ZM444 1716L519
1607L201 1463L152 1536L444 1716Z" />
<glyph unicode="&#x13b;" glyph-name="Lcommaaccent" horiz-adv-x="664" d="M151 0V1350H310V130H651V0H151ZM417 -77Q439 -77 454 -81T478 -94T491 -117T495 -151Q495 -191 481 -224T440 -282T375 -326T289 -357L259 -297Q309 -273 333 -250T358 -203Q358 -194
355 -189T349 -178T343 -166T340 -143Q340 -127 345 -114T359 -93T382 -81T417 -77V-77Z" />
<glyph unicode="&#x13c;" glyph-name="lcommaaccent" horiz-adv-x="454" d="M406 4Q392 0 377 -3T345 -9T313 -12T283 -13Q245 -13 218 -6T174 23T148 83T139 183V1418H287V244Q287 200 289 172T299 129T318 108T352 102Q364 102 377 102T403 102L406 4ZM296 -77Q318
-77 333 -81T357 -94T370 -117T374 -151Q374 -191 360 -224T319 -282T254 -326T168 -357L138 -297Q188 -273 212 -250T237 -203Q237 -194 234 -189T228 -178T222 -166T219 -143Q219 -127 224 -114T238 -93T261 -81T296 -77V-77Z" />
<glyph unicode="&#x13d;" glyph-name="Lcaron" horiz-adv-x="720" d="M151 0V1350H310V130H651V0H151ZM536 1168L453 1181L522 1528L646 1507L536 1168Z" />
<glyph unicode="&#x13e;" glyph-name="lcaron" horiz-adv-x="512" d="M406 4Q392 0 377 -3T345 -9T313 -12T283 -13Q245 -13 218 -6T174 23T148 83T139 183V1418H287V244Q287 200 289 172T299 129T318 108T352 102Q364 102 377 102T403 102L406 4ZM433 1123L350
1135L419 1482L543 1461L433 1123Z" />
<glyph unicode="&#x13f;" glyph-name="Ldot" horiz-adv-x="814" d="M151 0V1350H310V130H651V0H151ZM749 698Q749 669 745 651T730 621T701 605T653 600Q625 600 607 604T578 620T564 649T559 696Q559 724 563 743T578 773T607 789T655 794Q683 794 701 790T730
774T745 745T749 698V698Z" />
<glyph unicode="&#x140;" glyph-name="ldot" horiz-adv-x="652" d="M406 4Q392 0 377 -3T345 -9T313 -12T283 -13Q245 -13 218 -6T174 23T148 83T139 183V1418H287V244Q287 200 289 172T299 129T318 108T352 102Q364 102 377 102T403 102L406 4ZM629 598Q629 569
625 551T610 521T581 505T533 500Q505 500 487 504T458 520T444 549T439 596Q439 624 443 643T458 673T487 689T535 694Q563 694 581 690T610 674T625 645T629 598V598Z" />
<glyph unicode="&#x141;" glyph-name="Lslash" horiz-adv-x="684" d="M525 989V866L330 743V130H671V0H171V647L42 565V686L171 768V1350H330V866L525 989Z" />
<glyph unicode="&#x142;" glyph-name="lslash" horiz-adv-x="464" d="M416 4Q402 0 387 -3T355 -9T323 -12T293 -13Q255 -13 228 -6T183 23T157 83T148 183V655L28 577V698L148 776V1418H296V870L419 950V828L296 749V244Q296 200 299 172T309 129T328 108T361
102Q374 102 387 102T412 102L416 4Z" />
<glyph unicode="&#x143;" glyph-name="Nacute" horiz-adv-x="1072" d="M752 0L410 830Q384 895 360 953T318 1059Q297 1114 279 1162H277Q279 1112 281 1057Q283 1009 284 948T285 823V0H151V1350H364L662 633Q686 575 709 516T751 410Q773 354 793 303H795Q793
357 791 415Q789 464 788 523T787 640V1350H921V0H752ZM771 1709L846 1600L528 1456L479 1529L771 1709Z" />
<glyph unicode="&#x144;" glyph-name="nacute" horiz-adv-x="918" d="M633 0Q633 67 633 139T635 280T636 414T637 531Q637 627 627 694T598 803T550 863T483 882Q461 882 437 874T388 850T338 814T287 768V0H139V992H261L271 874Q296 898 325 921T387 964T456
994T531 1006Q591 1006 638 984T719 910T769 775T787 569Q787 518 786 451T784 308T782 153T781 0H633ZM462 1123L394 1175L612 1440L717 1362L462 1123Z" />
<glyph unicode="&#x145;" glyph-name="Ncommaaccent" horiz-adv-x="1072" d="M752 0L410 830Q384 895 360 953T318 1059Q297 1114 279 1162H277Q279 1112 281 1057Q283 1009 284 948T285 823V0H151V1350H364L662 633Q686 575 709 516T751 410Q773 354 793 303H795Q793
357 791 415Q789 464 788 523T787 640V1350H921V0H752ZM530 -77Q552 -77 567 -81T591 -94T604 -117T608 -151Q608 -191 594 -224T553 -282T488 -326T402 -357L372 -297Q422 -273 446 -250T471 -203Q471 -194 468 -189T462 -178T456 -166T453 -143Q453 -127 458
-114T472 -93T495 -81T530 -77V-77Z" />
<glyph unicode="&#x146;" glyph-name="ncommaaccent" horiz-adv-x="918" d="M633 0Q633 67 633 139T635 280T636 414T637 531Q637 627 627 694T598 803T550 863T483 882Q461 882 437 874T388 850T338 814T287 768V0H139V992H261L271 874Q296 898 325 921T387 964T456
994T531 1006Q591 1006 638 984T719 910T769 775T787 569Q787 518 786 451T784 308T782 153T781 0H633ZM459 -77Q481 -77 496 -81T520 -94T533 -117T537 -151Q537 -191 523 -224T482 -282T417 -326T331 -357L301 -297Q351 -273 375 -250T400 -203Q400 -194 397
-189T391 -178T385 -166T382 -143Q382 -127 387 -114T401 -93T424 -81T459 -77V-77Z" />
<glyph unicode="&#x147;" glyph-name="Ncaron" horiz-adv-x="1072" d="M752 0L410 830Q384 895 360 953T318 1059Q297 1114 279 1162H277Q279 1112 281 1057Q283 1009 284 948T285 823V0H151V1350H364L662 633Q686 575 709 516T751 410Q773 354 793 303H795Q793
357 791 415Q789 464 788 523T787 640V1350H921V0H752ZM301 1639L342 1711L545 1591L747 1711L787 1640L543 1458L301 1639Z" />
<glyph unicode="&#x148;" glyph-name="ncaron" horiz-adv-x="918" d="M633 0Q633 67 633 139T635 280T636 414T637 531Q637 627 627 694T598 803T550 863T483 882Q461 882 437 874T388 850T338 814T287 768V0H139V992H261L271 874Q296 898 325 921T387 964T456
994T531 1006Q591 1006 638 984T719 910T769 775T787 569Q787 518 786 451T784 308T782 153T781 0H633ZM459 1127L233 1388L286 1448L463 1279L637 1448L690 1389L459 1127Z" />
<glyph unicode="&#x149;" glyph-name="napostrophe" horiz-adv-x="958" d="M278 1141Q301 1155 318 1168T345 1193T360 1216T366 1239Q366 1250 362 1256T354 1270T346 1286T343 1314Q343 1333 347 1346T361 1368T385 1381T420 1385Q440 1385 455 1381T479 1369T492
1346T497 1310Q497 1273 485 1241T450 1180T393 1128T319 1083L278 1141ZM673 0Q673 67 673 139T675 280T676 414T677 531Q677 627 667 694T638 803T590 863T523 882Q501 882 477 874T428 850T378 814T327 768V0H179V992H301L311 874Q336 898 365 921T427 964T496
994T571 1006Q631 1006 678 984T759 910T809 775T827 569Q827 518 826 451T824 308T822 153T821 0H673Z" />
<glyph unicode="&#x14a;" glyph-name="Eng" horiz-adv-x="1072" d="M921 129Q921 50 916 -18T893 -147T846 -259T769 -357L680 -294Q702 -266 717 -234T744 -165T760 -87T767 0H749L409 830Q382 895 359 953T317 1059Q296 1114 279 1162H277Q279 1112 281 1057Q283
1009 284 948T285 823V0H151V1350H364L662 630Q686 573 709 515T751 408Q772 352 793 299H795Q793 352 791 411Q789 460 788 521T787 640V1350H921V129Z" />
<glyph unicode="&#x14b;" glyph-name="eng" horiz-adv-x="918" d="M524 -302Q574 -239 605 -155T637 36V531Q637 627 627 694T598 803T550 863T483 882Q461 882 437 874T388 850T338 814T287 768V0H139V992H261L271 874Q296 898 325 921T387 964T456 994T531 1006Q591
1006 638 984T718 910T768 775T785 569V79Q785 6 776 -54T747 -166T695 -264T616 -355L524 -302Z" />
<glyph unicode="&#x14c;" glyph-name="Omacron" horiz-adv-x="1048" d="M964 693Q964 563 948 460T903 278T832 143T741 52T634 1T514 -16Q415 -16 336 21T200 138T114 347T84 656Q84 787 100 890T145 1072T216 1206T307 1297T414 1349T534 1366Q633 1366 712
1329T848 1211T934 1003T964 693V693ZM804 656Q804 808 785 917T730 1097T641 1201T518 1235Q458 1235 408 1204T321 1106T264 938T244 694Q244 592 252 510T277 363T317 252T373 175T444 130T530 115Q590 115 640 146T727 243T784 412T804 656V656ZM290 1507V1616H760V1507H290Z"
/>
<glyph unicode="&#x14d;" glyph-name="omacron" horiz-adv-x="888" d="M807 521Q807 417 793 338T753 199T692 98T614 32T524 -5T427 -16Q348 -16 285 10T176 95T106 246T81 469Q81 572 95 652T135 791T196 892T274 958T364 995T461 1006Q540 1006 603 980T712
895T782 745T807 521V521ZM656 486Q656 592 643 668T603 793T537 865T443 888Q394 888 355 866T288 797T247 678T232 504Q232 398 245 322T285 197T351 125T445 102Q494 102 533 124T600 193T641 312T656 486V486ZM230 1184V1297H660V1184H230Z" />
<glyph unicode="&#x14e;" glyph-name="Obreve" horiz-adv-x="1048" d="M964 693Q964 563 948 460T903 278T832 143T741 52T634 1T514 -16Q415 -16 336 21T200 138T114 347T84 656Q84 787 100 890T145 1072T216 1206T307 1297T414 1349T534 1366Q633 1366 712 1329T848
1211T934 1003T964 693V693ZM804 656Q804 808 785 917T730 1097T641 1201T518 1235Q458 1235 408 1204T321 1106T264 938T244 694Q244 592 252 510T277 363T317 252T373 175T444 130T530 115Q590 115 640 146T727 243T784 412T804 656V656ZM754 1703Q754 1645 739
1597T694 1515T623 1463T525 1444Q469 1444 426 1462T354 1514T309 1596T294 1703H388Q388 1668 397 1641T424 1594T467 1565T525 1554Q557 1554 582 1564T625 1593T652 1640T661 1703H754Z" />
<glyph unicode="&#x14f;" glyph-name="obreve" horiz-adv-x="888" d="M807 521Q807 417 793 338T753 199T692 98T614 32T524 -5T427 -16Q348 -16 285 10T176 95T106 246T81 469Q81 572 95 652T135 791T196 892T274 958T364 995T461 1006Q540 1006 603 980T712
895T782 745T807 521V521ZM656 486Q656 592 643 668T603 793T537 865T443 888Q394 888 355 866T288 797T247 678T232 504Q232 398 245 322T285 197T351 125T445 102Q494 102 533 124T600 193T641 312T656 486V486ZM674 1414Q674 1344 659 1291T614 1200T541 1145T442
1126Q386 1126 344 1144T273 1199T229 1290T214 1414H308Q307 1371 316 1339T342 1285T385 1252T443 1241Q477 1241 502 1251T545 1283T571 1337T580 1414H674Z" />
<glyph unicode="&#x150;" glyph-name="Ohungarumlaut" horiz-adv-x="1048" d="M964 693Q964 563 948 460T903 278T832 143T741 52T634 1T514 -16Q415 -16 336 21T200 138T114 347T84 656Q84 787 100 890T145 1072T216 1206T307 1297T414 1349T534 1366Q633 1366
712 1329T848 1211T934 1003T964 693V693ZM804 656Q804 808 785 917T730 1097T641 1201T518 1235Q458 1235 408 1204T321 1106T264 938T244 694Q244 592 252 510T277 363T317 252T373 175T444 130T530 115Q590 115 640 146T727 243T784 412T804 656V656ZM683 1450L632
1511L939 1708L1024 1622L683 1450ZM333 1447L277 1501L534 1707L622 1633L333 1447Z" />
<glyph unicode="&#x151;" glyph-name="ohungarumlaut" horiz-adv-x="888" d="M807 521Q807 417 793 338T753 199T692 98T614 32T524 -5T427 -16Q348 -16 285 10T176 95T106 246T81 469Q81 572 95 652T135 791T196 892T274 958T364 995T461 1006Q540 1006 603 980T712
895T782 745T807 521V521ZM656 486Q656 592 643 668T603 793T537 865T443 888Q394 888 355 866T288 797T247 678T232 504Q232 398 245 322T285 197T351 125T445 102Q494 102 533 124T600 193T641 312T656 486V486ZM582 1117L515 1168L739 1436L838 1358L582 1117ZM292
1117L224 1167L428 1436L529 1361L292 1117Z" />
<glyph unicode="&#x152;" glyph-name="OE" horiz-adv-x="1258" d="M665 0Q629 -8 590 -12T514 -16Q415 -16 335 21T200 138T114 347T84 656Q84 787 100 890T145 1072T216 1206T307 1297T414 1349T534 1366Q575 1366 615 1362T689 1350H1172V1219H787V766H1103V639H787V132H1178V0H665ZM632
1219Q604 1227 576 1231T518 1235Q458 1235 408 1204T321 1106T264 938T244 694Q244 541 263 432T318 252T407 148T530 115Q556 115 583 118T632 128V1219Z" />
<glyph unicode="&#x153;" glyph-name="oe" horiz-adv-x="1416" d="M1307 72Q1237 33 1160 9T996 -16Q941 -16 897 -3T819 38T760 103T720 190Q702 141 674 103T609 38T525 -2T427 -16Q348 -16 285 10T176 95T106 246T81 469Q81 572 95 652T135 791T196 892T274
958T364 995T461 1006Q511 1006 554 994T633 955T696 891T741 803Q756 850 782 887T843 951T919 992T1008 1006Q1057 1006 1100 994T1179 955T1240 887T1283 787T1306 652T1307 479H805V461Q805 367 820 300T864 190T936 126T1031 106Q1062 106 1091 109T1152 120T1214
139T1281 165L1307 72ZM1162 579V586Q1162 658 1152 716T1121 814T1069 875T994 897Q951 897 918 873T860 807T823 706T807 579H1162ZM656 486Q656 592 643 668T603 793T537 865T443 888Q394 888 355 866T288 797T247 678T232 504Q232 398 245 322T285 197T351
125T445 102Q494 102 533 124T600 193T641 312T656 486V486Z" />
<glyph unicode="&#x154;" glyph-name="Racute" horiz-adv-x="918" d="M717 0L395 606H305V0H151V1350Q184 1350 219 1351T291 1352T369 1353T452 1354Q549 1354 620 1328T739 1256T809 1144T832 1000Q832 950 824 906T799 824T757 754T701 699T630 659T546 636L893
0H717ZM305 731H443Q498 731 540 748T611 797T655 876T670 985Q670 1043 656 1088T612 1164T535 1212T420 1228H305V731ZM650 1709L725 1600L407 1456L358 1529L650 1709Z" />
<glyph unicode="&#x155;" glyph-name="racute" horiz-adv-x="586" d="M539 839Q516 847 500 849T472 852Q452 852 434 842T394 810T346 754T287 672V0H139V992H261L275 816Q310 870 339 906T393 964T440 995T485 1005Q502 1005 519 1001T556 986L539 839ZM335
1123L267 1175L485 1440L590 1362L335 1123Z" />
<glyph unicode="&#x156;" glyph-name="Rcommaaccent" horiz-adv-x="918" d="M717 0L395 606H305V0H151V1350Q184 1350 219 1351T291 1352T369 1353T452 1354Q549 1354 620 1328T739 1256T809 1144T832 1000Q832 950 824 906T799 824T757 754T701 699T630 659T546
636L893 0H717ZM305 731H443Q498 731 540 748T611 797T655 876T670 985Q670 1043 656 1088T612 1164T535 1212T420 1228H305V731ZM497 -77Q519 -77 534 -81T558 -94T571 -117T575 -151Q575 -191 561 -224T520 -282T455 -326T369 -357L339 -297Q389 -273 413 -250T438
-203Q438 -194 435 -189T429 -178T423 -166T420 -143Q420 -127 425 -114T439 -93T462 -81T497 -77V-77Z" />
<glyph unicode="&#x157;" glyph-name="rcommaaccent" horiz-adv-x="586" d="M539 839Q516 847 500 849T472 852Q452 852 434 842T394 810T346 754T287 672V0H139V992H261L275 816Q310 870 339 906T393 964T440 995T485 1005Q502 1005 519 1001T556 986L539 839ZM474
-77Q496 -77 511 -81T535 -94T548 -117T552 -151Q552 -191 538 -224T497 -282T432 -326T346 -357L316 -297Q366 -273 390 -250T415 -203Q415 -194 412 -189T406 -178T400 -166T397 -143Q397 -127 402 -114T416 -93T439 -81T474 -77V-77Z" />
<glyph unicode="&#x158;" glyph-name="Rcaron" horiz-adv-x="918" d="M717 0L395 606H305V0H151V1350Q184 1350 219 1351T291 1352T369 1353T452 1354Q549 1354 620 1328T739 1256T809 1144T832 1000Q832 950 824 906T799 824T757 754T701 699T630 659T546 636L893
0H717ZM305 731H443Q498 731 540 748T611 797T655 876T670 985Q670 1043 656 1088T612 1164T535 1212T420 1228H305V731ZM191 1639L232 1711L435 1591L637 1711L677 1640L433 1458L191 1639Z" />
<glyph unicode="&#x159;" glyph-name="rcaron" horiz-adv-x="586" d="M539 839Q516 847 500 849T472 852Q452 852 434 842T394 810T346 754T287 672V0H139V992H261L275 816Q310 870 339 906T393 964T440 995T485 1005Q502 1005 519 1001T556 986L539 839ZM334
1127L108 1388L161 1448L338 1279L512 1448L565 1389L334 1127Z" />
<glyph unicode="&#x15a;" glyph-name="Sacute" horiz-adv-x="816" d="M744 362Q744 289 722 221T654 100T541 16T379 -16Q284 -16 206 16T63 100L109 192Q138 174 169 160T233 135T295 120T354 114Q407 114 448 129T518 174T562 247T577 346Q577 407 556 450T500
527T421 588T329 643T238 703T158 778T102 881T81 1020Q81 1095 104 1158T172 1267T277 1340T413 1366Q450 1366 484 1360T552 1343T617 1315T684 1276L645 1184Q592 1210 539 1225T436 1240Q385 1240 349 1224T289 1181T253 1116T241 1037Q241 975 263 932T320
854T400 792T492 736T585 676T665 600T722 500T744 362V362ZM595 1709L670 1600L352 1456L303 1529L595 1709Z" />
<glyph unicode="&#x15b;" glyph-name="sacute" horiz-adv-x="678" d="M83 141Q145 120 192 111T283 101Q330 101 364 113T419 147T451 199T462 264Q462 304 446 333T402 384T339 424T266 462T194 504T131 559T87 633T70 736Q70 793 91 842T149 928T240 985T359
1006Q384 1006 409 1003T461 993T513 976T563 951L543 865Q522 872 502 877T462 886T423 892T386 894Q346 894 315 883T264 852T233 806T223 748Q223 707 240 679T284 628T346 587T419 549T491 507T554 452T599 377T616 275Q616 211 595 158T535 66T438 6T308 -16Q241
-16 179 3T64 55L83 141ZM347 1123L279 1175L497 1440L602 1362L347 1123Z" />
<glyph unicode="&#x15c;" glyph-name="Scircumflex" horiz-adv-x="816" d="M744 362Q744 289 722 221T654 100T541 16T379 -16Q284 -16 206 16T63 100L109 192Q138 174 169 160T233 135T295 120T354 114Q407 114 448 129T518 174T562 247T577 346Q577 407 556
450T500 527T421 588T329 643T238 703T158 778T102 881T81 1020Q81 1095 104 1158T172 1267T277 1340T413 1366Q450 1366 484 1360T552 1343T617 1315T684 1276L645 1184Q592 1210 539 1225T436 1240Q385 1240 349 1224T289 1181T253 1116T241 1037Q241 975 263
932T320 854T400 792T492 736T585 676T665 600T722 500T744 362V362ZM656 1530L615 1458L411 1578L209 1458L170 1529L414 1711L656 1530Z" />
<glyph unicode="&#x15d;" glyph-name="scircumflex" horiz-adv-x="678" d="M83 141Q145 120 192 111T283 101Q330 101 364 113T419 147T451 199T462 264Q462 304 446 333T402 384T339 424T266 462T194 504T131 559T87 633T70 736Q70 793 91 842T149 928T240 985T359
1006Q384 1006 409 1003T461 993T513 976T563 951L543 865Q522 872 502 877T462 886T423 892T386 894Q346 894 315 883T264 852T233 806T223 748Q223 707 240 679T284 628T346 587T419 549T491 507T554 452T599 377T616 275Q616 211 595 158T535 66T438 6T308 -16Q241
-16 179 3T64 55L83 141ZM510 1126L335 1296L159 1127L107 1185L337 1447L565 1186L510 1126Z" />
<glyph unicode="&#x15e;" glyph-name="Scedilla" horiz-adv-x="816" d="M744 362Q744 289 722 221T654 100T541 16T379 -16Q284 -16 206 16T63 100L109 192Q138 174 169 160T233 135T295 120T354 114Q407 114 448 129T518 174T562 247T577 346Q577 407 556 450T500
527T421 588T329 643T238 703T158 778T102 881T81 1020Q81 1095 104 1158T172 1267T277 1340T413 1366Q450 1366 484 1360T552 1343T617 1315T684 1276L645 1184Q592 1210 539 1225T436 1240Q385 1240 349 1224T289 1181T253 1116T241 1037Q241 975 263 932T320
854T400 792T492 736T585 676T665 600T722 500T744 362V362ZM471 -83Q479 -166 448 -232T344 -354L263 -309Q288 -282 305 -256T330 -202T341 -145T340 -83H471Z" />
<glyph unicode="&#x15f;" glyph-name="scedilla" horiz-adv-x="678" d="M83 141Q145 120 192 111T283 101Q330 101 364 113T419 147T451 199T462 264Q462 304 446 333T402 384T339 424T266 462T194 504T131 559T87 633T70 736Q70 793 91 842T149 928T240 985T359
1006Q384 1006 409 1003T461 993T513 976T563 951L543 865Q522 872 502 877T462 886T423 892T386 894Q346 894 315 883T264 852T233 806T223 748Q223 707 240 679T284 628T346 587T419 549T491 507T554 452T599 377T616 275Q616 211 595 158T535 66T438 6T308 -16Q241
-16 179 3T64 55L83 141ZM386 -83Q394 -166 363 -232T259 -354L178 -309Q203 -282 220 -256T245 -202T256 -145T255 -83H386Z" />
<glyph unicode="&#x160;" glyph-name="Scaron" horiz-adv-x="816" d="M744 362Q744 289 722 221T654 100T541 16T379 -16Q284 -16 206 16T63 100L109 192Q138 174 169 160T233 135T295 120T354 114Q407 114 448 129T518 174T562 247T577 346Q577 407 556 450T500
527T421 588T329 643T238 703T158 778T102 881T81 1020Q81 1095 104 1158T172 1267T277 1340T413 1366Q450 1366 484 1360T552 1343T617 1315T684 1276L645 1184Q592 1210 539 1225T436 1240Q385 1240 349 1224T289 1181T253 1116T241 1037Q241 975 263 932T320
854T400 792T492 736T585 676T665 600T722 500T744 362V362ZM169 1639L210 1711L413 1591L615 1711L655 1640L411 1458L169 1639Z" />
<glyph unicode="&#x161;" glyph-name="scaron" horiz-adv-x="678" d="M83 141Q145 120 192 111T283 101Q330 101 364 113T419 147T451 199T462 264Q462 304 446 333T402 384T339 424T266 462T194 504T131 559T87 633T70 736Q70 793 91 842T149 928T240 985T359
1006Q384 1006 409 1003T461 993T513 976T563 951L543 865Q522 872 502 877T462 886T423 892T386 894Q346 894 315 883T264 852T233 806T223 748Q223 707 240 679T284 628T346 587T419 549T491 507T554 452T599 377T616 275Q616 211 595 158T535 66T438 6T308 -16Q241
-16 179 3T64 55L83 141ZM343 1127L117 1388L170 1448L347 1279L521 1448L574 1389L343 1127Z" />
<glyph unicode="&#x162;" glyph-name="uni0162" horiz-adv-x="720" d="M439 1218V0H281V1218H14V1350H706V1218H439ZM361 -77Q383 -77 398 -81T422 -94T435 -117T439 -151Q439 -191 425 -224T384 -282T319 -326T233 -357L203 -297Q253 -273 277 -250T302 -203Q302
-194 299 -189T293 -178T287 -166T284 -143Q284 -127 289 -114T303 -93T326 -81T361 -77V-77Z" />
<glyph unicode="&#x163;" glyph-name="uni0163" horiz-adv-x="578" d="M520 135L537 40Q508 25 483 15T435 -2T391 -12T351 -15Q296 -15 259 -1T198 44T164 126T153 250V880H22V992H158Q163 1025 167 1058T176 1126T185 1197T193 1274H301V992H515V880H301V288Q301
238 304 204T319 147T349 116T398 106Q408 106 420 107T446 111T479 120T520 135V135ZM342 -77Q364 -77 379 -81T403 -94T416 -117T420 -151Q420 -191 406 -224T365 -282T300 -326T214 -357L184 -297Q234 -273 258 -250T283 -203Q283 -194 280 -189T274 -178T268
-166T265 -143Q265 -127 270 -114T284 -93T307 -81T342 -77V-77Z" />
<glyph unicode="&#x164;" glyph-name="Tcaron" horiz-adv-x="720" d="M439 1218V0H281V1218H14V1350H706V1218H439ZM117 1639L158 1711L361 1591L563 1711L603 1640L359 1458L117 1639Z" />
<glyph unicode="&#x165;" glyph-name="tcaron" horiz-adv-x="618" d="M520 135L537 40Q508 25 483 15T435 -2T391 -12T351 -15Q296 -15 259 -1T198 44T164 126T153 250V880H22V992H158Q163 1025 167 1058T176 1126T185 1197T193 1274H301V992H515V880H301V288Q301
238 304 204T319 147T349 116T398 106Q408 106 420 107T446 111T479 120T520 135V135ZM463 1123L380 1135L449 1482L573 1461L463 1123Z" />
<glyph unicode="&#x166;" glyph-name="Tbar" horiz-adv-x="720" d="M439 1218V746H623V619H439V0H281V619H97V746H281V1218H14V1350H706V1218H439Z" />
<glyph unicode="&#x167;" glyph-name="tbar" horiz-adv-x="578" d="M537 40Q483 12 438 -1T352 -15Q298 -15 260 -1T198 45T164 126T153 250V473H40V582H153V880H22V992H158Q168 1057 176 1126T193 1274H301V992H515V880H301V582H480V473H301V288Q301 238 305
203T321 147T352 116T402 106Q424 106 450 112T520 135L537 40Z" />
<glyph unicode="&#x168;" glyph-name="Utilde" horiz-adv-x="1036" d="M891 496Q891 361 865 264T789 105T668 13T507 -17Q416 -17 348 11T234 97T167 248T145 470V1350H303V492Q303 386 315 313T353 195T422 130T524 110Q576 110 616 129T684 192T726 307T740
481V1350H891V496ZM810 1629Q791 1590 772 1560T729 1509T679 1477T618 1466Q576 1466 547 1483T495 1520T452 1558T408 1576Q395 1576 383 1571T357 1553T328 1520T295 1471L232 1519Q250 1558 270 1588T313 1639T363 1671T424 1682Q466 1682 495 1665T547 1627T590
1589T634 1572Q647 1572 659 1577T685 1595T714 1628T747 1677L810 1629Z" />
<glyph unicode="&#x169;" glyph-name="utilde" horiz-adv-x="918" d="M659 0L649 117Q624 93 595 70T533 27T464 -3T389 -15Q328 -15 281 8T200 82T150 217T133 422Q133 473 134 541T136 684T138 839T139 992H287Q287 925 287 853T285 712T284 578T283 461Q283
364 293 297T322 189T370 129T437 110Q459 110 483 118T532 142T582 178T633 224V992H781V0H659ZM740 1325Q721 1286 703 1256T662 1205T614 1173T555 1162Q514 1162 485 1179T433 1216T390 1254T346 1272Q334 1272 322 1267T298 1249T271 1216T239 1167L177 1215Q195
1254 214 1284T255 1335T303 1367T362 1378Q403 1378 432 1361T484 1323T527 1285T571 1268Q583 1268 595 1273T619 1291T646 1324T678 1373L740 1325Z" />
<glyph unicode="&#x16a;" glyph-name="Umacron" horiz-adv-x="1036" d="M891 496Q891 361 865 264T789 105T668 13T507 -17Q416 -17 348 11T234 97T167 248T145 470V1350H303V492Q303 386 315 313T353 195T422 130T524 110Q576 110 616 129T684 192T726 307T740
481V1350H891V496ZM287 1507V1616H757V1507H287Z" />
<glyph unicode="&#x16b;" glyph-name="umacron" horiz-adv-x="918" d="M659 0L649 117Q624 93 595 70T533 27T464 -3T389 -15Q328 -15 281 8T200 82T150 217T133 422Q133 473 134 541T136 684T138 839T139 992H287Q287 925 287 853T285 712T284 578T283 461Q283
364 293 297T322 189T370 129T437 110Q459 110 483 118T532 142T582 178T633 224V992H781V0H659ZM245 1184V1297H675V1184H245Z" />
<glyph unicode="&#x16c;" glyph-name="Ubreve" horiz-adv-x="1036" d="M891 496Q891 361 865 264T789 105T668 13T507 -17Q416 -17 348 11T234 97T167 248T145 470V1350H303V492Q303 386 315 313T353 195T422 130T524 110Q576 110 616 129T684 192T726 307T740
481V1350H891V496ZM751 1703Q751 1645 736 1597T691 1515T620 1463T522 1444Q466 1444 423 1462T351 1514T306 1596T291 1703H385Q385 1668 394 1641T421 1594T464 1565T522 1554Q554 1554 579 1564T622 1593T649 1640T658 1703H751Z" />
<glyph unicode="&#x16d;" glyph-name="ubreve" horiz-adv-x="918" d="M659 0L649 117Q624 93 595 70T533 27T464 -3T389 -15Q328 -15 281 8T200 82T150 217T133 422Q133 473 134 541T136 684T138 839T139 992H287Q287 925 287 853T285 712T284 578T283 461Q283
364 293 297T322 189T370 129T437 110Q459 110 483 118T532 142T582 178T633 224V992H781V0H659ZM689 1414Q689 1344 674 1291T629 1200T556 1145T457 1126Q401 1126 359 1144T288 1199T244 1290T229 1414H323Q322 1371 331 1339T357 1285T400 1252T458 1241Q492
1241 517 1251T560 1283T586 1337T595 1414H689Z" />
<glyph unicode="&#x16e;" glyph-name="Uring" horiz-adv-x="1036" d="M891 496Q891 361 865 264T789 105T668 13T507 -17Q416 -17 348 11T234 97T167 248T145 470V1350H303V492Q303 386 315 313T353 195T422 130T524 110Q576 110 616 129T684 192T726 307T740
481V1350H891V496ZM693 1566Q693 1518 678 1486T638 1435T580 1408T511 1400Q473 1400 442 1408T390 1433T357 1479T345 1549Q345 1597 359 1629T399 1680T458 1708T527 1716Q564 1716 595 1708T647 1683T681 1636T693 1566V1566ZM591 1557Q591 1604 573 1625T519
1647Q485 1647 466 1627T446 1558Q446 1535 450 1518T464 1490T487 1474T518 1468Q552 1468 571 1488T591 1557V1557Z" />
<glyph unicode="&#x16f;" glyph-name="uring" horiz-adv-x="918" d="M659 0L649 117Q624 93 595 70T533 27T464 -3T389 -15Q328 -15 281 8T200 82T150 217T133 422Q133 473 134 541T136 684T138 839T139 992H287Q287 925 287 853T285 712T284 578T283 461Q283
364 293 297T322 189T370 129T437 110Q459 110 483 118T532 142T582 178T633 224V992H781V0H659ZM636 1280Q636 1227 621 1191T581 1134T523 1103T454 1093Q416 1093 385 1102T333 1131T300 1183T288 1261Q288 1314 302 1350T342 1407T401 1438T470 1448Q507 1448
538 1439T590 1410T624 1358T636 1280V1280ZM534 1267Q534 1295 530 1315T516 1349T494 1368T462 1375Q428 1375 409 1351T389 1274Q389 1246 393 1225T407 1191T430 1172T461 1166Q495 1166 514 1190T534 1267V1267Z" />
<glyph unicode="&#x170;" glyph-name="Uhungarumlaut" horiz-adv-x="1036" d="M891 496Q891 361 865 264T789 105T668 13T507 -17Q416 -17 348 11T234 97T167 248T145 470V1350H303V492Q303 386 315 313T353 195T422 130T524 110Q576 110 616 129T684 192T726
307T740 481V1350H891V496ZM653 1450L602 1511L909 1708L994 1622L653 1450ZM303 1447L247 1501L504 1707L592 1633L303 1447Z" />
<glyph unicode="&#x171;" glyph-name="uhungarumlaut" horiz-adv-x="918" d="M659 0L649 117Q624 93 595 70T533 27T464 -3T389 -15Q328 -15 281 8T200 82T150 217T133 422Q133 473 134 541T136 684T138 839T139 992H287Q287 925 287 853T285 712T284 578T283
461Q283 364 293 297T322 189T370 129T437 110Q459 110 483 118T532 142T582 178T633 224V992H781V0H659ZM591 1117L524 1168L748 1436L847 1358L591 1117ZM301 1117L233 1167L437 1436L538 1361L301 1117Z" />
<glyph unicode="&#x172;" glyph-name="Uogonek" horiz-adv-x="1036" d="M769 -317Q752 -327 734 -334T698 -346T661 -353T623 -355Q585 -355 555 -347T503 -323T469 -282T457 -220Q457 -195 464 -168T485 -113T522 -59T575 -8Q560 -12 542 -14T507 -17Q416 -17
348 11T234 97T167 248T145 470V1350H303V492Q303 386 315 313T353 195T422 130T524 110Q576 110 616 129T684 192T726 307T740 481V1350H891V496Q891 424 884 362T860 247T820 151T763 74Q729 40 699 8T645 -57T608 -122T594 -191Q594 -227 611 -242T667 -257Q683
-257 705 -254T750 -242L769 -317Z" />
<glyph unicode="&#x173;" glyph-name="uogonek" horiz-adv-x="918" d="M781 0Q718 -48 690 -98T662 -191Q662 -227 680 -242T735 -257Q751 -257 773 -254T818 -242L837 -317Q820 -327 802 -334T766 -346T729 -353T691 -355Q654 -355 623 -347T571 -323T538 -282T526
-220Q526 -164 557 -106T659 9L649 117Q624 93 595 70T533 27T464 -3T389 -15Q328 -15 281 8T200 82T150 217T133 422Q133 473 134 541T136 684T138 839T139 992H287Q287 925 287 853T285 712T284 578T283 461Q283 364 293 297T322 189T370 129T437 110Q459 110
483 118T532 142T582 178T633 224V992H781V0Z" />
<glyph unicode="&#x174;" glyph-name="Wcircumflex" horiz-adv-x="1430" d="M1400 1350Q1365 1166 1330 994T1259 655T1184 326T1103 0H926L745 869L711 1070H709L677 868L505 0H329Q283 170 244 330T169 654T99 988T31 1350H196Q223 1190 251 1043T307 755T365
476T425 201H427L452 363L648 1350H801L1006 365L1031 200H1033Q1062 328 1090 466T1145 749T1199 1044T1251 1350H1400ZM968 1530L927 1458L723 1578L521 1458L482 1529L726 1711L968 1530Z" />
<glyph unicode="&#x175;" glyph-name="wcircumflex" horiz-adv-x="1230" d="M1182 992Q1166 877 1143 757T1089 513T1023 259T947 0H782L624 667L602 792H600L581 667L441 0H271L24 992H181L332 360L368 184H370L396 332L533 992H693L849 335L876 185H878Q903
284 927 384T971 586T1008 788T1037 992H1182ZM785 1126L610 1296L434 1127L382 1185L612 1447L840 1186L785 1126Z" />
<glyph unicode="&#x176;" glyph-name="Ycircumflex" horiz-adv-x="794" d="M801 1350Q765 1249 727 1150T649 954T566 766T476 590V0H317V590Q272 675 231 762T149 942T71 1136T-7 1350H162Q190 1263 219 1184T280 1030T344 880T412 729Q445 803 477 881T538 1039T594
1196T642 1350H801ZM646 1530L605 1458L401 1578L199 1458L160 1529L404 1711L646 1530Z" />
<glyph unicode="&#x177;" glyph-name="ycircumflex" horiz-adv-x="760" d="M728 992Q692 776 654 604T575 298T493 63T411 -109T329 -228T250 -302T175 -340T105 -351Q84 -351 57 -345T3 -327V-229Q10 -230 18 -231T36 -232T55 -233T74 -234Q113 -234 147 -220T210
-177Q226 -161 240 -139T263 -94T279 -47T285 0Q285 35 277 79T251 181L17 992H173L357 337Q363 314 369 287T381 231T388 174T388 121Q417 205 445 309T498 527T543 760T575 992H728ZM561 1126L386 1296L210 1127L158 1185L388 1447L616 1186L561 1126Z" />
<glyph unicode="&#x178;" glyph-name="Ydieresis" horiz-adv-x="794" d="M801 1350Q765 1249 727 1150T649 954T566 766T476 590V0H317V590Q272 675 231 762T149 942T71 1136T-7 1350H162Q190 1263 219 1184T280 1030T344 880T412 729Q445 803 477 881T538 1039T594
1196T642 1350H801ZM642 1560Q642 1534 639 1519T626 1494T602 1481T564 1477Q541 1477 527 1481T503 1494T491 1518T487 1559Q487 1584 490 1599T503 1624T526 1636T564 1640Q588 1640 602 1637T626 1624T638 1600T642 1560ZM314 1560Q314 1534 310 1519T298 1494T274
1481T236 1477Q213 1477 199 1481T175 1494T163 1518T159 1559Q159 1584 162 1599T175 1624T198 1636T236 1640Q260 1640 274 1637T297 1624T310 1600T314 1560Z" />
<glyph unicode="&#x179;" glyph-name="Zacute" horiz-adv-x="764" d="M62 0V120L502 1218H82L85 1350H674V1231L234 134H702L699 0H62ZM588 1709L663 1600L345 1456L296 1529L588 1709Z" />
<glyph unicode="&#x17a;" glyph-name="zacute" horiz-adv-x="692" d="M609 0H76V107L426 871H92L97 992H595V885L244 122H616L609 0ZM318 1123L250 1175L468 1440L573 1362L318 1123Z" />
<glyph unicode="&#x17b;" glyph-name="Zdotaccent" horiz-adv-x="764" d="M62 0V120L502 1218H82L85 1350H674V1231L234 134H702L699 0H62ZM471 1559Q471 1533 467 1517T453 1492T426 1479T383 1475Q357 1475 340 1478T313 1490T300 1515T296 1556Q296 1582 299
1598T313 1624T340 1637T384 1640Q409 1640 426 1637T453 1625T467 1600T471 1559V1559Z" />
<glyph unicode="&#x17c;" glyph-name="zdotaccent" horiz-adv-x="692" d="M609 0H76V107L426 871H92L97 992H595V885L244 122H616L609 0ZM436 1248Q436 1221 433 1205T419 1178T391 1164T346 1160Q318 1160 301 1163T274 1176T260 1203T256 1247Q256 1274 259
1290T273 1317T301 1331T346 1335Q373 1335 390 1332T418 1319T432 1292T436 1248V1248Z" />
<glyph unicode="&#x17d;" glyph-name="Zcaron" horiz-adv-x="764" d="M62 0V120L502 1218H82L85 1350H674V1231L234 134H702L699 0H62ZM141 1639L182 1711L385 1591L587 1711L627 1640L383 1458L141 1639Z" />
<glyph unicode="&#x17e;" glyph-name="zcaron" horiz-adv-x="692" d="M609 0H76V107L426 871H92L97 992H595V885L244 122H616L609 0ZM348 1127L122 1388L175 1448L352 1279L526 1448L579 1389L348 1127Z" />
<glyph unicode="&#x17f;" glyph-name="longs" horiz-adv-x="448" d="M505 1283Q479 1297 451 1305T396 1314Q336 1314 312 1275T287 1152V0H139V1142Q139 1209 151 1262T188 1353T254 1411T351 1431Q378 1431 403 1427T452 1414T495 1397T532 1375L505 1283Z" />
<glyph unicode="&#x192;" glyph-name="florin" horiz-adv-x="840" d="M758 1215Q725 1229 694 1238T634 1247Q603 1247 581 1236T543 1204T520 1153T507 1083L473 740H733V631H465L412 83Q406 15 389 -40T341 -135T267 -196T166 -218Q139 -218 114 -214T65 -202T21
-184T-18 -161L9 -70Q42 -84 73 -92T133 -101Q164 -101 187 -91T226 -61T252 -11T266 59L321 631H88V740H329L360 1062Q366 1128 383 1183T430 1279T502 1341T602 1364Q629 1364 654 1360T703 1347T746 1329T786 1306L758 1215Z" />
<glyph unicode="&#x1e6;" glyph-name="Gcaron" horiz-adv-x="932" d="M819 126Q789 94 754 68T678 23T591 -6T490 -16Q395 -16 320 25T192 150T112 360T84 659Q84 847 119 980T213 1200T349 1326T509 1366Q556 1366 599 1353T680 1318T750 1266T808 1202L737 1126Q711
1151 685 1172T631 1207T574 1228T514 1236Q453 1236 403 1202T317 1098T262 927T242 692Q242 540 261 431T315 252T399 148T511 115Q537 115 560 119T604 132T640 150T667 173V608H507V721H819V126ZM268 1639L309 1711L512 1591L714 1711L754 1640L510 1458L268
1639Z" />
<glyph unicode="&#x1e7;" glyph-name="gcaron" horiz-adv-x="888" d="M749 32Q749 -47 738 -106T706 -208T655 -280T589 -325T509 -348T417 -355Q386 -355 353 -352T284 -341T214 -322T146 -296L160 -201Q236 -216 296 -224T404 -232Q456 -232 493 -220T555 -182T590
-113T601 -8V112Q542 59 484 30T367 0Q300 0 247 35T157 133T101 280T81 463Q81 604 112 706T200 875T335 973T507 1005Q536 1005 568 1003T632 997T694 987T749 975V32ZM601 876Q586 880 571 883T541 888T511 892T481 893Q428 893 383 868T306 792T255 668T237
497Q237 412 249 343T285 225T341 150T415 124Q432 124 453 131T498 152T548 186T601 234V876ZM462 1127L236 1388L289 1448L466 1279L640 1448L693 1389L462 1127Z" />
<glyph unicode="&#x1fa;" glyph-name="Aringacute" horiz-adv-x="916" d="M724 0Q717 38 710 75T695 148T679 222T661 297H237Q222 225 207 152T177 0H26Q59 159 97 329T177 672T265 1016T358 1350H550Q601 1170 647 999T736 660T816 328T889 0H724ZM638 421Q615
514 591 610T543 803T492 997T440 1191Q419 1104 397 1010T351 816T306 617T262 421H638ZM628 1501Q628 1469 613 1448T573 1413T515 1393T446 1387Q408 1387 377 1393T325 1411T292 1443T280 1489Q280 1520 294 1542T334 1577T393 1597T462 1603Q499 1603 530
1597T582 1579T616 1547T628 1501V1501ZM526 1494Q526 1521 508 1535T454 1550Q420 1550 401 1536T381 1496Q381 1469 399 1455T453 1440Q487 1440 506 1454T526 1494V1494ZM619 1770L658 1695L366 1637L343 1687L619 1770Z" />
<glyph unicode="&#x1fb;" glyph-name="aringacute" horiz-adv-x="838" d="M588 0L580 114Q547 82 517 58T455 18T387 -7T309 -16Q187 -16 127 53T67 251Q67 323 91 383T165 488T296 556T489 581H560V685Q560 744 547 783T508 845T448 878T369 888Q337 888 306
883T244 871T185 853T130 832L106 931Q137 946 172 959T245 983T325 1000T411 1006Q485 1006 540 987T632 931T687 839T706 712V0H588ZM560 477H477Q397 477 346 462T266 420T227 355T216 273Q216 233 224 202T250 148T294 113T354 101Q408 101 458 131T560 215V477ZM593
1244Q593 1197 578 1165T538 1114T480 1086T411 1078Q335 1078 290 1112T245 1227Q245 1274 259 1306T299 1357T358 1385T427 1393Q464 1393 495 1385T547 1359T581 1313T593 1244V1244ZM491 1233Q491 1257 487 1274T473 1303T451 1320T419 1325Q385 1325 366 1305T346
1238Q346 1213 350 1196T364 1168T387 1152T418 1146Q452 1146 471 1166T491 1233V1233ZM578 1657L634 1554L330 1449L294 1515L578 1657Z" />
<glyph unicode="&#x1fc;" glyph-name="AEacute" horiz-adv-x="1208" d="M557 0V293H235Q224 257 213 219T189 144T166 70T145 0H-5Q49 173 107 344T225 684T346 1019T473 1350H1096V1219H709V755H1026V628H709V132H1103V0H557ZM557 1224H554Q515 1114 478 1010T406
806T338 610T272 421H557V1224ZM956 1709L1031 1600L713 1456L664 1529L956 1709Z" />
<glyph unicode="&#x1fd;" glyph-name="aeacute" horiz-adv-x="1316" d="M1206 72Q1136 33 1059 9T895 -16Q851 -16 811 -7T736 22T672 74T622 151Q584 109 547 78T472 26T394 -5T309 -16Q187 -16 127 53T67 251Q67 323 91 383T165 488T296 556T489 581H560V685Q560
744 547 783T508 845T448 878T369 888Q337 888 306 883T244 871T185 853T130 832L106 931Q137 946 172 959T245 983T325 1000T411 1006Q455 1006 495 997T567 970T623 923T659 857Q678 889 703 916T760 964T828 995T907 1006Q957 1006 1000 994T1078 955T1139 887T1182
787T1205 652T1206 479H704V461Q704 367 719 300T764 190T835 126T930 106Q961 106 991 109T1051 120T1113 139T1180 165L1206 72ZM1061 579V586Q1061 658 1051 716T1020 814T968 875T893 897Q850 897 817 873T759 807T722 706T706 579H1061ZM477 479Q397 479 347
463T267 420T227 355T216 273Q216 233 224 202T250 148T294 113T354 101Q408 101 464 136T581 248Q569 300 564 359T560 479H477ZM668 1123L600 1175L818 1440L923 1362L668 1123Z" />
<glyph unicode="&#x1fe;" glyph-name="Oslashacute" horiz-adv-x="1048" d="M964 693Q964 563 948 460T903 278T832 143T741 52T634 1T514 -16Q443 -16 383 4T274 68L167 -144L76 -98L198 142Q142 223 113 352T84 656Q84 787 100 890T145 1072T216 1206T307 1297T414
1349T534 1366Q605 1366 664 1346T774 1282L881 1493L972 1447L850 1208Q905 1125 934 997T964 693V693ZM812 657Q812 768 799 860T757 1022L341 200Q377 155 423 132T530 109Q571 109 608 122T677 165T733 238T776 343T802 482T812 657V657ZM518 1241Q456 1241
404 1210T315 1111T257 941T236 693Q236 581 248 491T291 327L707 1149Q671 1195 625 1218T518 1241V1241ZM716 1716L791 1607L473 1463L424 1536L716 1716Z" />
<glyph unicode="&#x1ff;" glyph-name="oslashacute" horiz-adv-x="888" d="M716 890Q761 829 784 739T807 521Q807 417 793 338T753 199T692 98T614 32T524 -5T427 -16Q379 -16 337 -5T261 28L171 -143L87 -99L183 86Q133 145 107 239T81 469Q81 572 95 652T135
791T196 892T274 958T364 995T461 1006Q511 1006 555 994T640 952L718 1099L802 1054L716 890ZM320 142Q344 119 376 108T444 97Q495 97 536 119T605 188T648 309T664 484Q664 563 656 621T627 726L320 142ZM580 836Q554 867 519 880T445 894Q393 894 352 872T283
802T240 681T224 505Q224 421 235 355T270 247L580 836ZM431 1123L363 1175L581 1440L686 1362L431 1123Z" />
<glyph unicode="&#x218;" glyph-name="Scommaaccent" horiz-adv-x="816" d="M744 362Q744 289 722 221T654 100T541 16T379 -16Q284 -16 206 16T63 100L109 192Q138 174 169 160T233 135T295 120T354 114Q407 114 448 129T518 174T562 247T577 346Q577 407 556
450T500 527T421 588T329 643T238 703T158 778T102 881T81 1020Q81 1095 104 1158T172 1267T277 1340T413 1366Q450 1366 484 1360T552 1343T617 1315T684 1276L645 1184Q592 1210 539 1225T436 1240Q385 1240 349 1224T289 1181T253 1116T241 1037Q241 975 263
932T320 854T400 792T492 736T585 676T665 600T722 500T744 362V362ZM401 -77Q423 -77 438 -81T462 -94T475 -117T479 -151Q479 -191 465 -224T424 -282T359 -326T273 -357L243 -297Q293 -273 317 -250T342 -203Q342 -194 339 -189T333 -178T327 -166T324 -143Q324
-127 329 -114T343 -93T366 -81T401 -77V-77Z" />
<glyph unicode="&#x219;" glyph-name="scommaaccent" horiz-adv-x="678" d="M83 141Q145 120 192 111T283 101Q330 101 364 113T419 147T451 199T462 264Q462 304 446 333T402 384T339 424T266 462T194 504T131 559T87 633T70 736Q70 793 91 842T149 928T240 985T359
1006Q384 1006 409 1003T461 993T513 976T563 951L543 865Q522 872 502 877T462 886T423 892T386 894Q346 894 315 883T264 852T233 806T223 748Q223 707 240 679T284 628T346 587T419 549T491 507T554 452T599 377T616 275Q616 211 595 158T535 66T438 6T308 -16Q241
-16 179 3T64 55L83 141ZM327 -77Q349 -77 364 -81T388 -94T401 -117T405 -151Q405 -191 391 -224T350 -282T285 -326T199 -357L169 -297Q219 -273 243 -250T268 -203Q268 -194 265 -189T259 -178T253 -166T250 -143Q250 -127 255 -114T269 -93T292 -81T327 -77V-77Z"
/>
<glyph unicode="&#x21a;" glyph-name="Tcommaaccent" horiz-adv-x="720" d="M439 1218V0H281V1218H14V1350H706V1218H439ZM361 -77Q383 -77 398 -81T422 -94T435 -117T439 -151Q439 -191 425 -224T384 -282T319 -326T233 -357L203 -297Q253 -273 277 -250T302
-203Q302 -194 299 -189T293 -178T287 -166T284 -143Q284 -127 289 -114T303 -93T326 -81T361 -77V-77Z" />
<glyph unicode="&#x21b;" glyph-name="tcommaaccent" horiz-adv-x="578" d="M520 135L537 40Q508 25 483 15T435 -2T391 -12T351 -15Q296 -15 259 -1T198 44T164 126T153 250V880H22V992H158Q163 1025 167 1058T176 1126T185 1197T193 1274H301V992H515V880H301V288Q301
238 304 204T319 147T349 116T398 106Q408 106 420 107T446 111T479 120T520 135V135ZM342 -77Q364 -77 379 -81T403 -94T416 -117T420 -151Q420 -191 406 -224T365 -282T300 -326T214 -357L184 -297Q234 -273 258 -250T283 -203Q283 -194 280 -189T274 -178T268
-166T265 -143Q265 -127 270 -114T284 -93T307 -81T342 -77V-77Z" />
<glyph unicode="&#x237;" glyph-name="dotlessj" horiz-adv-x="426" d="M287 79Q287 6 278 -54T248 -166T196 -264T118 -355L25 -302Q75 -239 107 -155T139 36V992H287V79Z" />
<glyph unicode="&#x2bc;" glyph-name="apostrophe" horiz-adv-x="460" d="M90 1141Q113 1155 130 1168T157 1193T172 1216T178 1239Q178 1250 174 1256T166 1270T158 1286T155 1314Q155 1333 159 1346T173 1368T197 1381T232 1385Q252 1385 267 1381T291 1369T304
1346T309 1310Q309 1273 297 1241T262 1180T205 1128T131 1083L90 1141Z" />
<glyph unicode="&#x2c6;" glyph-name="circumflex" horiz-adv-x="616" d="M482 1126L307 1296L131 1127L79 1185L309 1447L537 1186L482 1126Z" />
<glyph unicode="&#x2c7;" glyph-name="caron" horiz-adv-x="616" d="M305 1127L79 1388L132 1448L309 1279L483 1448L536 1389L305 1127Z" />
<glyph unicode="&#x2c9;" glyph-name="macron" horiz-adv-x="588" d="M79 1184V1297H509V1184H79Z" />
<glyph unicode="&#x2d8;" glyph-name="breve" horiz-adv-x="618" d="M539 1414Q539 1344 524 1291T479 1200T406 1145T307 1126Q251 1126 209 1144T138 1199T94 1290T79 1414H173Q172 1371 181 1339T207 1285T250 1252T308 1241Q342 1241 367 1251T410 1283T436
1337T445 1414H539Z" />
<glyph unicode="&#x2d9;" glyph-name="dotaccent" horiz-adv-x="338" d="M259 1248Q259 1221 256 1205T242 1178T214 1164T169 1160Q141 1160 124 1163T97 1176T83 1203T79 1247Q79 1274 82 1290T96 1317T124 1331T169 1335Q196 1335 213 1332T241 1319T255 1292T259
1248V1248Z" />
<glyph unicode="&#x2da;" glyph-name="ring" horiz-adv-x="506" d="M427 1280Q427 1227 412 1191T372 1134T314 1103T245 1093Q207 1093 176 1102T124 1131T91 1183T79 1261Q79 1314 93 1350T133 1407T192 1438T261 1448Q298 1448 329 1439T381 1410T415 1358T427
1280V1280ZM325 1267Q325 1295 321 1315T307 1349T285 1368T253 1375Q219 1375 200 1351T180 1274Q180 1246 184 1225T198 1191T221 1172T252 1166Q286 1166 305 1190T325 1267V1267Z" />
<glyph unicode="&#x2db;" glyph-name="ogonek" horiz-adv-x="468" d="M390 -317Q373 -327 355 -334T319 -346T282 -353T244 -355Q207 -355 177 -347T124 -323T91 -282T79 -220Q79 -193 86 -164T109 -108T147 -53T201 0H329Q299 -24 278 -48T243 -98T222 -146T215
-191Q215 -227 233 -242T288 -257Q304 -257 326 -254T371 -242L390 -317Z" />
<glyph unicode="&#x2dc;" glyph-name="tilde" horiz-adv-x="720" d="M642 1325Q623 1286 605 1256T564 1205T516 1173T457 1162Q416 1162 387 1179T335 1216T292 1254T248 1272Q236 1272 224 1267T200 1249T173 1216T141 1167L79 1215Q97 1254 116 1284T157 1335T205
1367T264 1378Q305 1378 334 1361T386 1323T429 1285T473 1268Q485 1268 497 1273T521 1291T548 1324T580 1373L642 1325Z" />
<glyph unicode="&#x2dd;" glyph-name="hungarumlaut" horiz-adv-x="772" d="M437 1117L370 1168L594 1436L693 1358L437 1117ZM147 1117L79 1167L283 1436L384 1361L147 1117Z" />
<glyph unicode="&#x312;" glyph-name="uni0312" horiz-adv-x="376" d="M297 1388Q277 1373 261 1358T233 1328T216 1297T210 1265Q210 1254 213 1249T221 1238T229 1221T232 1193Q232 1173 228 1160T215 1138T191 1125T155 1121Q133 1121 119 1125T95 1138T83
1161T79 1198Q79 1236 90 1270T123 1333T179 1389T257 1440L297 1388Z" />
<glyph unicode="&#x315;" glyph-name="uni0315" horiz-adv-x="350" d="M162 1123L79 1135L148 1482L272 1461L162 1123Z" />
<glyph unicode="&#x326;" glyph-name="uni0326" horiz-adv-x="394" d="M237 -77Q259 -77 274 -81T298 -94T311 -117T315 -151Q315 -191 301 -224T260 -282T195 -326T109 -357L79 -297Q129 -273 153 -250T178 -203Q178 -194 175 -189T169 -178T163 -166T160 -143Q160
-127 165 -114T179 -93T202 -81T237 -77V-77Z" />
<glyph unicode="&#x37e;" glyph-name="semicolon" horiz-adv-x="518" d="M365 906Q365 876 360 858T344 829T316 814T272 809Q246 809 229 813T201 828T185 857T180 904Q180 932 185 951T201 981T229 996T273 1001Q299 1001 316 997T344 982T360 953T365 906V906ZM101
-233Q137 -205 161 -179T200 -130T221 -85T227 -41Q227 -25 224 -15T215 2T204 15T192 29T184 50T180 81Q180 109 185 128T202 158T230 175T272 180Q297 180 314 175T343 159T359 128T365 79Q365 28 355 -20T320 -115T256 -205T158 -293L101 -233Z" />
<glyph unicode="&#x394;" glyph-name="Delta" horiz-adv-x="890" d="M34 0V105Q65 248 101 405T177 722T259 1041T345 1350H538Q585 1186 628 1027T712 711T788 403T856 105V0H34ZM688 132Q632 396 567 661T428 1191Q407 1103 386 1015T344 839T304 662T265 485T226
308T189 132H688Z" />
<glyph unicode="&#x3a9;" glyph-name="Omega" horiz-adv-x="1064" d="M601 0V153Q646 194 684 254T752 390T797 553T813 734Q813 817 805 886T781 1012T741 1109T684 1179T613 1221T526 1235Q484 1235 448 1222T381 1182T326 1115T285 1022T260 903T251 758Q251
656 266 565T308 397T375 259T464 153V0H64V134H341Q283 171 236 230T157 367T108 539T91 741Q91 849 106 938T151 1096T221 1217T312 1300T420 1349T542 1366Q642 1366 721 1331T857 1222T943 1033T973 761Q973 658 956 566T905 393T824 248T716 134H1001V0H601Z"
/>
<glyph unicode="&#x3bc;" glyph-name="mu" horiz-adv-x="920" d="M659 0L649 119Q625 94 598 71T540 30T477 2T410 -9Q354 -9 314 23T258 115Q259 87 261 58T265 0T269 -59T273 -118T278 -177T283 -235T287 -292T292 -346H139V992H287V410Q287 332 297 276T325
182T372 128T437 110Q459 110 483 118T532 142T582 178T633 224V992H781V0H659Z" />
<glyph unicode="&#x3c0;" glyph-name="pi" horiz-adv-x="984" d="M938 869H738Q738 700 740 579T748 373T762 236T783 156T811 117T846 107Q866 107 889 112T940 129L957 33Q917 11 874 -2T796 -15Q756 -15 727 -6T678 27T643 92T621 196T609 348T602 555Q602
563 602 572T602 593Q601 653 601 721T601 869H313Q313 834 313 797T313 722T312 643T310 562T308 481T306 400T304 321T300 244Q298 213 297 182T294 120T292 59T288 0H136Q138 41 141 84T147 173T153 264T158 356Q161 421 163 486T168 617T171 745T173 869H22V992H938V869Z"
/>
<glyph unicode="&#x1e02;" glyph-name="uni1E02" horiz-adv-x="946" d="M152 1350H478Q565 1350 627 1325T728 1257T787 1157T806 1036Q806 973 792 924T753 837T693 772T618 728Q674 718 720 691T798 622T848 526T865 408Q865 320 839 245T759 114T620 28T420
-4Q384 -4 349 -4T280 -2T214 -1T152 0V1350ZM306 769H422Q484 769 527 789T597 844T636 923T648 1014Q648 1057 637 1095T601 1163T541 1210T455 1228H306V769ZM306 127Q306 127 319 126T352 124T398 122T451 121Q517 121 564 141T642 197T688 283T703 394Q703
448 689 495T643 576T561 629T441 648H306V127ZM524 1559Q524 1533 520 1517T506 1492T479 1479T436 1475Q410 1475 393 1478T366 1490T353 1515T349 1556Q349 1582 352 1598T366 1624T393 1637T437 1640Q462 1640 479 1637T506 1625T520 1600T524 1559V1559Z"
/>
<glyph unicode="&#x1e03;" glyph-name="uni1E03" horiz-adv-x="888" d="M139 1418H287V894Q316 920 345 941T404 976T463 998T521 1006Q588 1006 641 970T731 871T787 722T807 535Q807 392 776 288T688 116T553 17T381 -15Q352 -15 320 -13T256 -6T194 3T139 15V1418ZM287
114Q316 105 346 101T406 97Q460 97 505 122T582 199T633 326T651 502Q651 590 639 660T603 780T547 855T473 882Q456 882 435 875T390 855T340 821T287 773V114ZM301 1641Q301 1615 297 1599T283 1574T256 1561T213 1557Q187 1557 170 1560T143 1572T130 1597T126
1638Q126 1664 129 1680T143 1706T170 1719T214 1722Q239 1722 256 1719T283 1707T297 1682T301 1641V1641Z" />
<glyph unicode="&#x1e0a;" glyph-name="uni1E0A" horiz-adv-x="978" d="M150 1350Q192 1350 285 1351T426 1352Q507 1352 574 1331T694 1271T785 1174T849 1046T886 890T898 708Q898 536 866 403T769 180T609 43T388 -4Q359 -4 330 -4T259 -2T194 -1T150 0V1350ZM306
132Q333 129 359 128T412 126Q490 126 550 160T651 264T714 439T736 684Q736 762 728 831T704 961T661 1069T599 1152T515 1205T408 1224Q389 1224 371 1224T339 1223T317 1223T306 1222V132ZM529 1559Q529 1533 525 1517T511 1492T484 1479T441 1475Q415 1475
398 1478T371 1490T358 1515T354 1556Q354 1582 357 1598T371 1624T398 1637T442 1640Q467 1640 484 1637T511 1625T525 1600T529 1559V1559Z" />
<glyph unicode="&#x1e0b;" glyph-name="uni1E0B" horiz-adv-x="888" d="M627 0L615 109Q583 79 552 56T490 17T428 -8T367 -16Q299 -16 247 19T157 118T101 267T81 454Q81 599 112 703T199 874T331 972T496 1004Q521 1004 549 1002T601 995V1418H749V0H627ZM601
876Q572 885 542 889T482 893Q428 893 383 868T306 793T255 666T237 488Q237 400 249 330T285 210T341 135T415 108Q449 108 498 135T601 217V876ZM765 1640Q765 1614 761 1598T747 1573T720 1560T677 1556Q651 1556 634 1559T607 1571T594 1596T590 1637Q590 1663
593 1679T607 1705T634 1718T678 1721Q703 1721 720 1718T747 1706T761 1681T765 1640V1640Z" />
<glyph unicode="&#x1e1e;" glyph-name="uni1E1E" horiz-adv-x="708" d="M309 1219V748H610V619H309V0H151V1350H661V1219H309ZM500 1559Q500 1533 496 1517T482 1492T455 1479T412 1475Q386 1475 369 1478T342 1490T329 1515T325 1556Q325 1582 328 1598T342 1624T369
1637T413 1640Q438 1640 455 1637T482 1625T496 1600T500 1559V1559Z" />
<glyph unicode="&#x1e1f;" glyph-name="uni1E1F" horiz-adv-x="490" d="M443 1641Q443 1615 439 1599T425 1574T398 1561T355 1557Q329 1557 312 1560T285 1572T272 1597T268 1638Q268 1664 271 1680T285 1706T312 1719T356 1722Q381 1722 398 1719T425 1707T439
1682T443 1641V1641ZM527 1283Q499 1297 471 1305T415 1314Q353 1314 328 1275T303 1152V992H475V880H303V0H155V880H22V992H155V1142Q155 1209 167 1262T205 1353T273 1411T371 1431Q399 1431 425 1426T475 1413T519 1395T555 1374L527 1283Z" />
<glyph unicode="&#x1e40;" glyph-name="uni1E40" horiz-adv-x="1428" d="M1142 0Q1140 104 1137 210T1130 421T1121 625T1109 817T1096 991T1083 1142H1081L772 0H634L326 1142H324Q316 1029 309 896T295 615T285 313T278 0H126Q130 161 137 331T154 673T179 1016T211
1350H423L717 280H719L1016 1350H1217Q1234 1187 1248 1016T1273 673T1291 331T1303 0H1142ZM805 1559Q805 1533 801 1517T787 1492T760 1479T717 1475Q691 1475 674 1478T647 1490T634 1515T630 1556Q630 1582 633 1598T647 1624T674 1637T718 1640Q743 1640 760
1637T787 1625T801 1600T805 1559V1559Z" />
<glyph unicode="&#x1e41;" glyph-name="uni1E41" horiz-adv-x="1384" d="M1099 0Q1099 67 1099 139T1101 280T1102 414T1103 531Q1103 627 1094 694T1066 803T1020 863T957 882Q938 882 915 874T867 849T814 810T756 756Q759 740 761 722T764 682T767 633T769
571V0H621V531Q621 627 612 694T584 803T538 863T476 882Q456 882 434 874T387 850T338 814T287 768V0H139V992H261L271 874Q296 898 325 921T386 964T452 994T523 1006Q565 1006 598 995T656 963T699 914T731 854Q763 885 796 913T863 961T933 994T1005 1006Q1063
1006 1109 984T1187 910T1236 775T1254 569Q1254 518 1253 451T1251 308T1249 153T1248 0H1099ZM782 1248Q782 1221 779 1205T765 1178T737 1164T692 1160Q664 1160 647 1163T620 1176T606 1203T602 1247Q602 1274 605 1290T619 1317T647 1331T692 1335Q719 1335
736 1332T764 1319T778 1292T782 1248V1248Z" />
<glyph unicode="&#x1e56;" glyph-name="uni1E56" horiz-adv-x="884" d="M150 0V1350Q177 1350 207 1350T284 1350T363 1351T424 1352Q536 1352 616 1323T745 1239T817 1111T840 946Q840 851 814 771T731 631T584 538T370 504H308V0H150ZM308 630H400Q472 630 524
650T610 708T660 802T676 930Q676 1001 661 1055T614 1147T528 1204T398 1224H308V630ZM523 1559Q523 1533 519 1517T505 1492T478 1479T435 1475Q409 1475 392 1478T365 1490T352 1515T348 1556Q348 1582 351 1598T365 1624T392 1637T436 1640Q461 1640 478 1637T505
1625T519 1600T523 1559V1559Z" />
<glyph unicode="&#x1e57;" glyph-name="uni1E57" horiz-adv-x="888" d="M139 -346V992H261L274 883Q306 913 337 935T400 974T461 998T521 1006Q588 1006 641 971T731 872T787 723T807 535Q807 391 775 288T688 117T556 18T392 -14Q372 -14 344 -12T287 -4V-346H139ZM287
114Q315 105 346 101T406 97Q460 97 505 122T582 199T633 326T651 502Q651 590 639 660T603 780T547 855T473 882Q456 882 435 875T390 855T340 821T287 773V114ZM532 1248Q532 1221 529 1205T515 1178T487 1164T442 1160Q414 1160 397 1163T370 1176T356 1203T352
1247Q352 1274 355 1290T369 1317T397 1331T442 1335Q469 1335 486 1332T514 1319T528 1292T532 1248V1248Z" />
<glyph unicode="&#x1e60;" glyph-name="uni1E60" horiz-adv-x="816" d="M744 362Q744 289 722 221T654 100T541 16T379 -16Q284 -16 206 16T63 100L109 192Q138 174 169 160T233 135T295 120T354 114Q407 114 448 129T518 174T562 247T577 346Q577 407 556 450T500
527T421 588T329 643T238 703T158 778T102 881T81 1020Q81 1095 104 1158T172 1267T277 1340T413 1366Q450 1366 484 1360T552 1343T617 1315T684 1276L645 1184Q592 1210 539 1225T436 1240Q385 1240 349 1224T289 1181T253 1116T241 1037Q241 975 263 932T320
854T400 792T492 736T585 676T665 600T722 500T744 362V362ZM497 1562Q497 1536 493 1520T479 1495T452 1482T409 1478Q383 1478 366 1481T339 1493T326 1518T322 1559Q322 1585 325 1601T339 1627T366 1640T410 1643Q435 1643 452 1640T479 1628T493 1603T497
1562V1562Z" />
<glyph unicode="&#x1e61;" glyph-name="uni1E61" horiz-adv-x="678" d="M83 141Q145 120 192 111T283 101Q330 101 364 113T419 147T451 199T462 264Q462 304 446 333T402 384T339 424T266 462T194 504T131 559T87 633T70 736Q70 793 91 842T149 928T240 985T359
1006Q384 1006 409 1003T461 993T513 976T563 951L543 865Q522 872 502 877T462 886T423 892T386 894Q346 894 315 883T264 852T233 806T223 748Q223 707 240 679T284 628T346 587T419 549T491 507T554 452T599 377T616 275Q616 211 595 158T535 66T438 6T308 -16Q241
-16 179 3T64 55L83 141ZM429 1251Q429 1224 426 1208T412 1181T384 1167T339 1163Q311 1163 294 1166T267 1179T253 1206T249 1250Q249 1277 252 1293T266 1320T294 1334T339 1338Q366 1338 383 1335T411 1322T425 1295T429 1251V1251Z" />
<glyph unicode="&#x1e6a;" glyph-name="uni1E6A" horiz-adv-x="720" d="M439 1218V0H281V1218H14V1350H706V1218H439ZM448 1559Q448 1533 444 1517T430 1492T403 1479T360 1475Q334 1475 317 1478T290 1490T277 1515T273 1556Q273 1582 276 1598T290 1624T317
1637T361 1640Q386 1640 403 1637T430 1625T444 1600T448 1559V1559Z" />
<glyph unicode="&#x1e6b;" glyph-name="uni1E6B" horiz-adv-x="578" d="M520 135L537 40Q508 25 483 15T435 -2T391 -12T351 -15Q296 -15 259 -1T198 44T164 126T153 250V880H22V992H158Q163 1025 167 1058T176 1126T185 1197T193 1274H301V992H515V880H301V288Q301
238 304 204T319 147T349 116T398 106Q408 106 420 107T446 111T479 120T520 135V135ZM276 1326Q276 1299 273 1283T259 1256T231 1242T186 1238Q158 1238 141 1241T114 1254T100 1281T96 1325Q96 1352 99 1368T113 1395T141 1409T186 1413Q213 1413 230 1410T258
1397T272 1370T276 1326V1326Z" />
<glyph unicode="&#x1e80;" glyph-name="Wgrave" horiz-adv-x="1430" d="M1400 1350Q1365 1166 1330 994T1259 655T1184 326T1103 0H926L745 869L711 1070H709L677 868L505 0H329Q283 170 244 330T169 654T99 988T31 1350H196Q223 1190 251 1043T307 755T365 476T425
201H427L452 363L648 1350H801L1006 365L1031 200H1033Q1062 328 1090 466T1145 749T1199 1044T1251 1350H1400ZM786 1456L468 1599L547 1709L835 1531L786 1456Z" />
<glyph unicode="&#x1e81;" glyph-name="wgrave" horiz-adv-x="1230" d="M1182 992Q1166 877 1143 757T1089 513T1023 259T947 0H782L624 667L602 792H600L581 667L441 0H271L24 992H181L332 360L368 184H370L396 332L533 992H693L849 335L876 185H878Q903 284
927 384T971 586T1008 788T1037 992H1182ZM620 1123L366 1362L471 1440L690 1175L620 1123Z" />
<glyph unicode="&#x1e82;" glyph-name="Wacute" horiz-adv-x="1430" d="M1400 1350Q1365 1166 1330 994T1259 655T1184 326T1103 0H926L745 869L711 1070H709L677 868L505 0H329Q283 170 244 330T169 654T99 988T31 1350H196Q223 1190 251 1043T307 755T365 476T425
201H427L452 363L648 1350H801L1006 365L1031 200H1033Q1062 328 1090 466T1145 749T1199 1044T1251 1350H1400ZM920 1709L995 1600L677 1456L628 1529L920 1709Z" />
<glyph unicode="&#x1e83;" glyph-name="wacute" horiz-adv-x="1230" d="M1182 992Q1166 877 1143 757T1089 513T1023 259T947 0H782L624 667L602 792H600L581 667L441 0H271L24 992H181L332 360L368 184H370L396 332L533 992H693L849 335L876 185H878Q903 284
927 384T971 586T1008 788T1037 992H1182ZM607 1123L539 1175L757 1440L862 1362L607 1123Z" />
<glyph unicode="&#x1e84;" glyph-name="Wdieresis" horiz-adv-x="1430" d="M1400 1350Q1365 1166 1330 994T1259 655T1184 326T1103 0H926L745 869L711 1070H709L677 868L505 0H329Q283 170 244 330T169 654T99 988T31 1350H196Q223 1190 251 1043T307 755T365
476T425 201H427L452 363L648 1350H801L1006 365L1031 200H1033Q1062 328 1090 466T1145 749T1199 1044T1251 1350H1400ZM969 1560Q969 1534 966 1519T953 1494T929 1481T891 1477Q868 1477 854 1481T830 1494T818 1518T814 1559Q814 1584 817 1599T830 1624T853
1636T891 1640Q915 1640 929 1637T953 1624T965 1600T969 1560ZM641 1560Q641 1534 637 1519T625 1494T601 1481T563 1477Q540 1477 526 1481T502 1494T490 1518T486 1559Q486 1584 489 1599T502 1624T525 1636T563 1640Q587 1640 601 1637T624 1624T637 1600T641
1560Z" />
<glyph unicode="&#x1e85;" glyph-name="wdieresis" horiz-adv-x="1230" d="M1182 992Q1166 877 1143 757T1089 513T1023 259T947 0H782L624 667L602 792H600L581 667L441 0H271L24 992H181L332 360L368 184H370L396 332L533 992H693L849 335L876 185H878Q903 284
927 384T971 586T1008 788T1037 992H1182ZM847 1250Q847 1226 843 1210T829 1185T806 1172T769 1168Q745 1168 731 1172T708 1184T695 1209T691 1250Q691 1275 695 1290T708 1315T731 1328T769 1332Q792 1332 806 1329T830 1316T843 1292T847 1250ZM529 1250Q529
1226 525 1210T512 1185T488 1172T451 1168Q428 1168 413 1172T389 1184T377 1209T373 1250Q373 1275 377 1290T390 1315T413 1328T451 1332Q474 1332 489 1329T512 1316T525 1292T529 1250Z" />
<glyph unicode="&#x1ef2;" glyph-name="Ygrave" horiz-adv-x="794" d="M801 1350Q765 1249 727 1150T649 954T566 766T476 590V0H317V590Q272 675 231 762T149 942T71 1136T-7 1350H162Q190 1263 219 1184T280 1030T344 880T412 729Q445 803 477 881T538 1039T594
1196T642 1350H801ZM423 1456L105 1599L184 1709L472 1531L423 1456Z" />
<glyph unicode="&#x1ef3;" glyph-name="ygrave" horiz-adv-x="760" d="M728 992Q692 776 654 604T575 298T493 63T411 -109T329 -228T250 -302T175 -340T105 -351Q84 -351 57 -345T3 -327V-229Q10 -230 18 -231T36 -232T55 -233T74 -234Q113 -234 147 -220T210
-177Q226 -161 240 -139T263 -94T279 -47T285 0Q285 35 277 79T251 181L17 992H173L357 337Q363 314 369 287T381 231T388 174T388 121Q417 205 445 309T498 527T543 760T575 992H728ZM400 1123L146 1362L251 1440L470 1175L400 1123Z" />
<glyph unicode="&#x200b;" glyph-name="uni200B" horiz-adv-x="0" />
<glyph unicode="&#x2010;" glyph-name="hyphen" horiz-adv-x="378" d="M39 529V649H382V529H39Z" />
<glyph unicode="&#x2011;" glyph-name="hyphen" horiz-adv-x="378" d="M39 529V649H382V529H39Z" />
<glyph unicode="&#x2013;" glyph-name="endash" horiz-adv-x="840" d="M66 538V655H774V538H66Z" />
<glyph unicode="&#x2014;" glyph-name="emdash" horiz-adv-x="1680" d="M238 538V655H1442V538H238Z" />
<glyph unicode="&#x2015;" glyph-name="uni2015" horiz-adv-x="1680" d="M238 538V655H1442V538H238Z" />
<glyph unicode="&#x2018;" glyph-name="quoteleft" horiz-adv-x="434" d="M369 1465Q336 1439 314 1414T277 1365T257 1321T251 1282Q251 1266 254 1257T263 1241T274 1228T285 1213T293 1193T297 1161Q297 1133 292 1114T275 1084T246 1067T205 1062Q180 1062
162 1067T133 1083T117 1114T112 1164Q112 1215 122 1263T156 1356T216 1443T307 1526L369 1465Z" />
<glyph unicode="&#x2019;" glyph-name="quoteright" horiz-adv-x="450" d="M80 1065Q113 1091 135 1116T171 1164T191 1209T198 1248Q198 1271 191 1281T175 1302T160 1326T152 1368Q152 1396 157 1415T174 1445T203 1462T244 1467Q269 1467 287 1463T316 1447T332
1416T337 1366Q337 1315 327 1267T293 1173T233 1086T142 1003L80 1065Z" />
<glyph unicode="&#x201a;" glyph-name="quotesinglbase" horiz-adv-x="450" d="M71 -223Q104 -197 126 -172T162 -123T182 -78T189 -39Q189 -16 182 -6T167 15T151 38T144 81Q144 109 149 128T165 158T194 175T236 180Q260 180 278 175T307 159T323 128T329 78Q329
28 319 -20T285 -114T224 -202T133 -284L71 -223Z" />
<glyph unicode="&#x201c;" glyph-name="quotedblleft" horiz-adv-x="716" d="M650 1465Q618 1439 596 1414T559 1365T539 1321T533 1282Q533 1259 540 1248T555 1228T571 1204T578 1161Q578 1133 573 1114T556 1084T528 1067T488 1062Q463 1062 446 1067T419 1083T403
1114T398 1164Q398 1215 408 1263T440 1356T499 1443T590 1526L650 1465ZM364 1465Q332 1439 309 1414T273 1365T253 1321T247 1282Q247 1259 254 1248T269 1228T284 1204T291 1161Q291 1133 286 1114T270 1084T242 1067T203 1062Q179 1062 162 1067T133 1083T117
1114T112 1164Q112 1215 121 1263T154 1356T213 1443T304 1526L364 1465Z" />
<glyph unicode="&#x201d;" glyph-name="quotedblright" horiz-adv-x="730" d="M366 1065Q398 1091 420 1116T456 1164T476 1209T483 1248Q483 1271 476 1281T461 1302T446 1326T439 1368Q439 1396 444 1415T460 1445T487 1462T527 1467Q551 1467 568 1463T597
1447T613 1416T618 1366Q618 1315 609 1267T576 1173T517 1086T426 1003L366 1065ZM80 1065Q112 1091 134 1116T170 1164T190 1209T197 1248Q197 1271 190 1281T175 1302T159 1326T152 1368Q152 1396 157 1415T174 1445T202 1462T242 1467Q266 1467 283 1463T311
1447T327 1416T332 1366Q332 1315 322 1267T290 1173T231 1086T140 1003L80 1065Z" />
<glyph unicode="&#x201e;" glyph-name="quotedblbase" horiz-adv-x="730" d="M357 -221Q389 -195 411 -170T448 -121T468 -77T474 -38Q474 -15 467 -4T452 16T437 40T430 83Q430 111 435 130T451 160T478 176T518 182Q543 182 560 177T588 161T604 130T610 80Q610
29 600 -19T567 -112T508 -200T418 -282L357 -221ZM71 -221Q104 -195 126 -170T161 -121T181 -77T188 -38Q188 -15 181 -4T166 16T151 40T144 83Q144 111 149 130T165 160T193 176T233 182Q257 182 274 177T302 161T318 130T323 80Q323 29 314 -19T281 -112T222
-200T131 -282L71 -221Z" />
<glyph unicode="&#x2020;" glyph-name="dagger" horiz-adv-x="648" d="M392 1035V415H255V1035H70V1144H255V1418H392V1144H578V1035H392Z" />
<glyph unicode="&#x2021;" glyph-name="daggerdbl" horiz-adv-x="648" d="M392 281V0H255V281H70V390H255V1025H70V1134H255V1418H392V1134H578V1025H392V390H578V281H392Z" />
<glyph unicode="&#x2022;" glyph-name="bullet" horiz-adv-x="840" d="M670 662Q670 609 651 563T598 484T519 431T420 411Q367 411 322 430T242 483T189 563T169 662Q169 714 188 760T242 839T321 892T420 912Q473 912 518 893T597 840T650 760T670 662V662Z" />
<glyph unicode="&#x2026;" glyph-name="ellipsis" horiz-adv-x="1240" d="M1096 85Q1096 56 1091 38T1075 8T1047 -7T1003 -12Q977 -12 960 -8T932 8T916 37T911 84Q911 112 916 131T932 160T960 176T1004 181Q1030 181 1047 177T1075 161T1091 132T1096 85V85ZM712
85Q712 56 707 38T691 8T663 -7T619 -12Q594 -12 576 -8T548 8T532 37T527 84Q527 112 532 131T548 160T576 176T621 181Q646 181 664 177T692 161T707 132T712 85V85ZM329 85Q329 56 324 38T308 8T280 -7T236 -12Q210 -12 193 -8T165 8T149 37T144 84Q144 112
149 131T165 160T193 176T237 181Q263 181 280 177T308 161T324 132T329 85V85Z" />
<glyph unicode="&#x2030;" glyph-name="perthousand" horiz-adv-x="1918" d="M587 1055Q587 892 521 811T334 729Q270 729 224 748T148 807T104 904T90 1040Q90 1122 107 1183T156 1285T235 1346T343 1367Q407 1367 453 1348T529 1289T573 1191T587 1055V1055ZM476
1043Q476 1103 469 1146T444 1217T402 1258T340 1272Q305 1272 279 1259T235 1220T209 1151T201 1052Q201 993 208 950T233 879T275 838T337 824Q372 824 398 836T442 875T467 943T476 1043V1043ZM212 -50L123 5L1100 1410L1187 1353L212 -50ZM1218 309Q1218 145
1153 64T967 -18Q903 -18 857 2T782 60T738 158T723 294Q723 375 740 436T789 538T867 599T975 620Q1039 620 1085 601T1160 542T1204 445T1218 309V309ZM1108 297Q1108 356 1100 399T1076 470T1034 511T972 525Q936 525 910 513T868 474T843 405T834 306Q834 246
842 203T866 132T908 91T969 77Q1004 77 1030 90T1074 129T1099 197T1108 297V297ZM1827 309Q1827 145 1761 64T1574 -18Q1510 -18 1464 2T1389 60T1345 158T1331 294Q1331 375 1347 436T1396 538T1475 599T1584 620Q1647 620 1693 601T1769 542T1813 445T1827
309V309ZM1715 297Q1715 356 1707 399T1683 470T1641 511T1581 525Q1545 525 1519 513T1475 474T1450 405T1441 306Q1441 246 1449 203T1473 132T1515 91T1577 77Q1613 77 1639 90T1681 129T1706 197T1715 297V297Z" />
<glyph unicode="&#x2039;" glyph-name="guilsinglleft" horiz-adv-x="516" d="M294 210L84 591L296 972L400 933L240 591L400 252L294 210Z" />
<glyph unicode="&#x203a;" glyph-name="guilsinglright" horiz-adv-x="516" d="M222 972L432 591L220 210L116 250L276 591L116 931L222 972Z" />
<glyph unicode="&#x2044;" glyph-name="fraction" horiz-adv-x="146" d="M525 1461L607 1410L-354 -137L-438 -87L525 1461Z" />
<glyph unicode="&#x2060;" glyph-name="uni2060" horiz-adv-x="0" />
<glyph unicode="&#x2070;" glyph-name="zero.superior" horiz-adv-x="638" d="M568 1096Q568 995 552 923T504 804T423 736T308 714Q243 714 197 731T121 790T75 901T60 1078Q60 1178 76 1250T124 1369T204 1438T320 1460Q386 1460 431 1443T507 1385T553 1274T568
1096ZM432 1082Q432 1168 426 1222T406 1308T370 1351T314 1364Q283 1364 261 1349T224 1302T203 1218T196 1092Q196 1008 203 953T224 867T260 823T314 810Q347 810 369 825T405 872T425 956T432 1082Z" />
<glyph unicode="&#x2074;" glyph-name="four.superior" horiz-adv-x="600" d="M472 884V728H344V884H44V976Q68 1032 98 1093T161 1217T227 1337T292 1446H472V986H564V884H472ZM344 1356Q322 1321 297 1277T245 1184T193 1084T146 986H344V1356Z" />
<glyph unicode="&#x2075;" glyph-name="five.superior" horiz-adv-x="584" d="M226 1342L214 1148Q229 1151 253 1152T306 1154Q358 1154 398 1141T467 1102T509 1038T524 948Q524 887 508 844T460 772T380 730T268 716Q247 716 224 718T174 726T120 740T64 760L74
832Q123 820 168 814T250 808Q286 808 312 814T354 836T379 875T388 936Q388 969 380 993T354 1033T310 1058T244 1066Q211 1066 175 1062T92 1050L120 1446H474V1342H226Z" />
<glyph unicode="&#x2076;" glyph-name="six.superior" horiz-adv-x="616" d="M522 1348Q468 1358 436 1363T372 1368Q333 1368 304 1353T254 1307T224 1227T212 1112Q250 1133 288 1143T366 1154Q415 1154 451 1141T511 1102T546 1040T558 958Q558 903 542 858T494
782T418 733T318 716Q258 716 215 732T141 787T96 894T80 1066Q80 1178 100 1255T156 1377T242 1441T352 1460Q371 1460 392 1458T437 1450T484 1438T534 1420L522 1348ZM428 944Q428 1007 402 1039T324 1072Q298 1072 271 1063T210 1032Q210 971 216 928T237 857T272
816T324 802Q374 802 401 839T428 944Z" />
<glyph unicode="&#x2077;" glyph-name="seven.superior" horiz-adv-x="566" d="M374 1042Q348 989 327 947T282 861T237 780T194 714L96 746L364 1338H56V1446H516V1350L374 1042Z" />
<glyph unicode="&#x2078;" glyph-name="eight.superior" horiz-adv-x="618" d="M556 912Q556 867 541 831T495 768T415 728T298 714Q235 714 190 726T117 761T75 818T62 896Q62 929 71 957T98 1008T140 1049T196 1084Q135 1117 107 1161T78 1270Q78 1313 92 1347T136
1407T211 1446T316 1460Q376 1460 419 1448T490 1413T529 1357T542 1282Q542 1223 512 1183T414 1104Q488 1068 522 1025T556 912ZM412 1272Q412 1325 387 1350T306 1376Q261 1376 235 1350T208 1276Q208 1254 214 1236T232 1201T264 1171T312 1142Q364 1171 388
1201T412 1272ZM424 894Q424 919 416 940T392 978T352 1012T292 1044Q243 1017 219 983T194 906Q194 852 224 825T314 798Q339 798 359 805T393 824T416 855T424 894Z" />
<glyph unicode="&#x2079;" glyph-name="nine.superior" horiz-adv-x="612" d="M84 828Q135 818 176 812T248 806Q287 806 316 820T366 866T396 945T408 1062Q369 1039 332 1029T252 1018Q205 1018 169 1031T110 1070T74 1132T62 1214Q62 1269 78 1314T126 1392T202
1442T302 1460Q362 1460 405 1444T479 1387T524 1278T540 1106Q540 994 520 918T464 797T378 735T268 716Q225 716 175 725T70 756L84 828ZM408 1140Q408 1201 401 1244T381 1315T346 1356T296 1370Q245 1370 219 1333T192 1228Q192 1196 198 1173T218 1134T250
1110T296 1102Q321 1102 346 1111T408 1140Z" />
<glyph unicode="&#x2080;" glyph-name="zero.inferior" horiz-adv-x="638" d="M568 252Q568 151 552 79T504 -40T423 -108T308 -130Q243 -130 197 -113T121 -54T75 57T60 234Q60 334 76 406T124 525T204 594T320 616Q386 616 431 599T507 541T553 430T568 252ZM432
238Q432 324 426 378T406 464T370 507T314 520Q283 520 261 505T224 458T203 374T196 248Q196 164 203 109T224 23T260 -21T314 -34Q347 -34 369 -19T405 28T425 112T432 238Z" />
<glyph unicode="&#x2081;" glyph-name="one.inferior" horiz-adv-x="568" d="M84 -116V-14H236V486L102 436L80 516L266 606H366V-14H504V-116H84Z" />
<glyph unicode="&#x2082;" glyph-name="two.inferior" horiz-adv-x="584" d="M68 -116V-18Q155 65 212 129T302 242T347 327T360 396Q360 430 352 453T328 489T292 508T248 514Q230 514 211 511T173 504T138 494T94 480L78 564Q107 577 131 586T181 601T236 612T298
616Q339 616 375 605T440 569T484 507T500 416Q500 372 487 327T442 231T357 119T224 -12H518V-116H68Z" />
<glyph unicode="&#x2083;" glyph-name="three.inferior" horiz-adv-x="602" d="M72 -12Q98 -18 121 -22T166 -29T208 -33T248 -34Q286 -34 312 -27T355 -5T380 33T388 88Q388 120 380 143T355 181T310 204T242 212H156V302H242Q303 302 336 332T370 418Q370 468
343 494T260 520Q243 520 223 518T182 513T140 504T102 494L84 574Q132 593 185 604T296 616Q348 616 387 603T453 566T491 509T504 434Q504 400 496 373T473 324T438 289T394 268Q425 264 449 249T491 211T517 159T526 98Q526 38 509 -5T459 -75T380 -115T274
-128Q221 -128 169 -119T60 -88L72 -12Z" />
<glyph unicode="&#x2084;" glyph-name="four.inferior" horiz-adv-x="600" d="M472 40V-116H344V40H44V132Q68 188 98 249T161 373T227 493T292 602H472V142H564V40H472ZM344 512Q322 477 297 433T245 340T193 240T146 142H344V512Z" />
<glyph unicode="&#x2085;" glyph-name="five.inferior" horiz-adv-x="584" d="M226 498L214 304Q229 307 253 308T306 310Q358 310 398 297T467 258T509 194T524 104Q524 43 508 0T460 -72T380 -114T268 -128Q247 -128 224 -126T174 -118T120 -104T64 -84L74 -12Q123
-24 168 -30T250 -36Q286 -36 312 -30T354 -8T379 31T388 92Q388 125 380 149T354 189T310 214T244 222Q211 222 175 218T92 206L120 602H474V498H226Z" />
<glyph unicode="&#x2086;" glyph-name="six.inferior" horiz-adv-x="616" d="M522 504Q468 514 436 519T372 524Q333 524 304 509T254 463T224 383T212 268Q250 289 288 299T366 310Q415 310 451 297T511 258T546 196T558 114Q558 59 542 14T494 -62T418 -111T318
-128Q258 -128 215 -112T141 -57T96 50T80 222Q80 334 100 411T156 533T242 597T352 616Q371 616 392 614T437 606T484 594T534 576L522 504ZM428 100Q428 163 402 195T324 228Q298 228 271 219T210 188Q210 127 216 84T237 13T272 -28T324 -42Q374 -42 401 -5T428
100Z" />
<glyph unicode="&#x2087;" glyph-name="seven.inferior" horiz-adv-x="566" d="M374 198Q348 145 327 103T282 17T237 -64T194 -130L96 -98L364 494H56V602H516V506L374 198Z" />
<glyph unicode="&#x2088;" glyph-name="eight.inferior" horiz-adv-x="618" d="M556 68Q556 23 541 -13T495 -76T415 -116T298 -130Q235 -130 190 -118T117 -83T75 -26T62 52Q62 85 71 113T98 164T140 205T196 240Q135 273 107 317T78 426Q78 469 92 503T136 563T211
602T316 616Q376 616 419 604T490 569T529 513T542 438Q542 379 512 339T414 260Q488 224 522 181T556 68ZM412 428Q412 481 387 506T306 532Q261 532 235 506T208 432Q208 410 214 392T232 357T264 327T312 298Q364 327 388 357T412 428ZM424 50Q424 75 416 96T392
134T352 168T292 200Q243 173 219 139T194 62Q194 8 224 -19T314 -46Q339 -46 359 -39T393 -20T416 11T424 50Z" />
<glyph unicode="&#x2089;" glyph-name="nine.inferior" horiz-adv-x="612" d="M84 -16Q135 -26 176 -32T248 -38Q287 -38 316 -24T366 22T396 101T408 218Q369 195 332 185T252 174Q205 174 169 187T110 226T74 288T62 370Q62 425 78 470T126 548T202 598T302
616Q362 616 405 600T479 543T524 434T540 262Q540 150 520 74T464 -47T378 -109T268 -128Q225 -128 175 -119T70 -88L84 -16ZM408 296Q408 357 401 400T381 471T346 512T296 526Q245 526 219 489T192 384Q192 352 198 329T218 290T250 266T296 258Q321 258 346
267T408 296Z" />
<glyph unicode="&#x20ac;" glyph-name="Euro" horiz-adv-x="840" d="M581 872V771H273Q272 745 272 721T272 670Q272 650 272 626T273 582H581V481H282Q291 392 312 323T365 206T437 135T523 110Q550 110 575 119T624 145T668 183T709 231L774 151Q746 112 716
81T652 28T579 -5T497 -16Q425 -16 363 13T252 104T172 260T128 481H15V582H122Q120 600 120 622T120 661Q120 690 120 718T123 771H15V872H131Q146 988 181 1079T265 1234T375 1332T505 1366Q552 1366 594 1350T670 1307T730 1245T775 1170L705 1100Q665 1172
619 1206T521 1241Q473 1241 432 1212T359 1133T308 1016T281 872H581Z" />
<glyph unicode="&#x2122;" glyph-name="trademark" horiz-adv-x="706" d="M561 1019Q561 1050 561 1080T560 1140T558 1202T553 1269L485 1019H415L351 1269Q349 1234 347 1203T344 1141T342 1080T340 1019H279Q280 1101 284 1184T298 1350H396L455 1112L517 1350H612Q620
1268 624 1185T630 1019H561ZM186 1291V1019H114V1291H51V1350H248V1291H186Z" />
<glyph unicode="&#x2126;" glyph-name="Omega" horiz-adv-x="1064" d="M601 0V153Q646 194 684 254T752 390T797 553T813 734Q813 817 805 886T781 1012T741 1109T684 1179T613 1221T526 1235Q484 1235 448 1222T381 1182T326 1115T285 1022T260 903T251 758Q251
656 266 565T308 397T375 259T464 153V0H64V134H341Q283 171 236 230T157 367T108 539T91 741Q91 849 106 938T151 1096T221 1217T312 1300T420 1349T542 1366Q642 1366 721 1331T857 1222T943 1033T973 761Q973 658 956 566T905 393T824 248T716 134H1001V0H601Z"
/>
<glyph unicode="&#x2202;" glyph-name="partialdiff" horiz-adv-x="830" d="M301 1428Q403 1378 487 1311T632 1149T725 932T758 648Q758 530 748 435T718 267T669 140T600 52T511 1T404 -16Q328 -16 267 17T162 113T94 266T70 473Q70 589 96 686T170 853T288
963T445 1003Q459 1003 473 1003T502 1001T531 997T558 993Q540 1047 509 1095T435 1186T341 1267T230 1338L301 1428ZM609 615Q609 683 604 743T587 860Q571 867 553 872T517 881T480 886T442 888Q401 888 362 861T293 785T244 669T225 522Q225 416 237 337T273
205T334 126T421 99Q465 99 500 128T559 221T596 381T609 615V615Z" />
<glyph unicode="&#x2206;" glyph-name="Delta" horiz-adv-x="890" d="M34 0V105Q65 248 101 405T177 722T259 1041T345 1350H538Q585 1186 628 1027T712 711T788 403T856 105V0H34ZM688 132Q632 396 567 661T428 1191Q407 1103 386 1015T344 839T304 662T265 485T226
308T189 132H688Z" />
<glyph unicode="&#x220f;" glyph-name="product" horiz-adv-x="1098" d="M921 1226V0H766V1226H332V0H177V1226H41V1350H1057V1226H921Z" />
<glyph unicode="&#x2211;" glyph-name="summation" horiz-adv-x="840" d="M63 0V110L455 698L88 1232V1350H733V1218H278L629 704L249 134H746V0H63Z" />
<glyph unicode="&#x2212;" glyph-name="minus" horiz-adv-x="840" d="M67 538V655H773V538H67Z" />
<glyph unicode="&#x2215;" glyph-name="fraction" horiz-adv-x="146" d="M525 1461L607 1410L-354 -137L-438 -87L525 1461Z" />
<glyph unicode="&#x2219;" glyph-name="periodcentered" horiz-adv-x="472" d="M331 598Q331 569 327 551T312 521T283 505T235 500Q207 500 189 504T160 520T146 549T141 596Q141 624 145 643T160 673T189 689T237 694Q265 694 283 690T312 674T327 645T331 598V598Z" />
<glyph unicode="&#x221a;" glyph-name="radical" horiz-adv-x="832" d="M824 1350Q800 1187 769 1019T701 679T619 337T523 0H335L154 880H20V992H273L440 148Q481 302 517 454T584 757T638 1055T677 1350H824Z" />
<glyph unicode="&#x221e;" glyph-name="infinity" horiz-adv-x="1680" d="M1596 612Q1596 532 1574 463T1509 343T1402 263T1253 234Q1200 234 1148 256T1044 314T941 398T839 497Q790 446 738 399T631 315T522 256T409 234Q329 234 269 260T168 334T106 445T84
584Q84 662 107 731T173 851T280 931T426 961Q479 961 532 939T637 879T742 794T845 695Q895 745 947 793T1053 878T1161 938T1271 961Q1349 961 1409 934T1511 861T1574 750T1596 612V612ZM1440 601Q1440 653 1429 694T1395 763T1339 807T1261 822Q1224 822 1187
804T1111 756T1030 687T946 605Q990 560 1031 518T1112 444T1189 393T1261 373Q1309 373 1342 391T1398 440T1430 513T1440 601V601ZM241 594Q241 542 252 501T285 432T341 388T418 373Q455 373 493 390T572 437T653 506T737 589Q692 634 651 676T569 750T491 802T418
822Q371 822 338 804T283 755T251 682T241 594V594Z" />
<glyph unicode="&#x222b;" glyph-name="integral'" horiz-adv-x="662" d="M625 1283Q596 1297 568 1305T512 1314Q451 1314 426 1275T400 1152V-112Q400 -179 388 -232T349 -322T282 -380T184 -400Q156 -400 130 -395T81 -383T37 -365T0 -343L28 -253Q56 -266
85 -274T141 -283Q202 -283 227 -244T252 -122V1142Q252 1209 264 1262T303 1353T370 1411T469 1431Q497 1431 523 1426T572 1413T616 1395T653 1374L625 1283Z" />
<glyph unicode="&#x2248;" glyph-name="approxequal" horiz-adv-x="840" d="M778 796Q750 765 725 742T673 704T619 681T560 673Q525 673 498 681T448 701T403 728T360 755T314 776T259 785Q243 785 228 781T196 767T159 742T115 704L60 780Q86 811 112 834T164
872T217 895T277 903Q312 903 339 895T390 875T435 848T477 821T523 800T578 792Q593 792 608 796T641 809T678 834T722 872L778 796ZM778 413Q750 382 725 359T673 321T619 298T560 290Q525 290 498 298T448 319T403 345T360 372T314 393T259 402Q243 402 228
398T196 384T159 359T115 321L60 397Q86 428 112 451T164 489T217 512T277 520Q312 520 339 512T390 492T435 465T477 438T523 417T578 409Q593 409 608 413T641 426T678 451T722 490L778 413Z" />
<glyph unicode="&#x2260;" glyph-name="notequal" horiz-adv-x="840" d="M374 352L240 50L133 96L250 352H75V465H298L417 728H75V842H466L600 1143L707 1097L590 842H765V728H542L423 465H765V352H374Z" />
<glyph unicode="&#x2264;" glyph-name="lessequal" horiz-adv-x="840" d="M69 0V113H771V0H69ZM703 279L70 630V746L705 1097L762 990L205 688L762 387L703 279Z" />
<glyph unicode="&#x2265;" glyph-name="greaterequal" horiz-adv-x="840" d="M69 0V113H771V0H69ZM135 279L78 386L635 687L78 988L137 1097L770 746V630L135 279Z" />
<glyph unicode="&#x25ca;" glyph-name="lozenge" horiz-adv-x="840" d="M488 0H353L35 678L352 1350H487L805 673L488 0ZM414 1189L182 691L426 161L658 659L414 1189Z" />
<glyph unicode="&#xeeee;" glyph-name="BBox" horiz-adv-x="350" d="M350 1800V-400H0V1800H350Z" />
<glyph unicode="&#xf000;" glyph-name="LuFo" horiz-adv-x="360" d="M360 -400H0V-40H360V-400ZM40 -80V-360H320V-80H40ZM80 -120H120V-280H200V-320H80V-120ZM280 -120V-320H240V-240H160V-200H240V-160H160V-120H280ZM360 1410H0V1770H360V1410ZM40 1730V1450H320V1730H40ZM80
1690H120V1530H200V1490H80V1690ZM280 1690V1490H240V1570H160V1610H240V1650H160V1690H280Z" />
<glyph unicode="&#xf6be;" glyph-name="dotlessj" horiz-adv-x="426" d="M287 79Q287 6 278 -54T248 -166T196 -264T118 -355L25 -302Q75 -239 107 -155T139 36V992H287V79Z" />
<glyph unicode="&#xf6c1;" glyph-name="Scedilla" horiz-adv-x="816" d="M744 362Q744 289 722 221T654 100T541 16T379 -16Q284 -16 206 16T63 100L109 192Q138 174 169 160T233 135T295 120T354 114Q407 114 448 129T518 174T562 247T577 346Q577 407 556 450T500
527T421 588T329 643T238 703T158 778T102 881T81 1020Q81 1095 104 1158T172 1267T277 1340T413 1366Q450 1366 484 1360T552 1343T617 1315T684 1276L645 1184Q592 1210 539 1225T436 1240Q385 1240 349 1224T289 1181T253 1116T241 1037Q241 975 263 932T320
854T400 792T492 736T585 676T665 600T722 500T744 362V362ZM471 -83Q479 -166 448 -232T344 -354L263 -309Q288 -282 305 -256T330 -202T341 -145T340 -83H471Z" />
<glyph unicode="&#xf6c2;" glyph-name="scedilla" horiz-adv-x="678" d="M83 141Q145 120 192 111T283 101Q330 101 364 113T419 147T451 199T462 264Q462 304 446 333T402 384T339 424T266 462T194 504T131 559T87 633T70 736Q70 793 91 842T149 928T240 985T359
1006Q384 1006 409 1003T461 993T513 976T563 951L543 865Q522 872 502 877T462 886T423 892T386 894Q346 894 315 883T264 852T233 806T223 748Q223 707 240 679T284 628T346 587T419 549T491 507T554 452T599 377T616 275Q616 211 595 158T535 66T438 6T308 -16Q241
-16 179 3T64 55L83 141ZM386 -83Q394 -166 363 -232T259 -354L178 -309Q203 -282 220 -256T245 -202T256 -145T255 -83H386Z" />
<glyph unicode="&#xf6c9;" glyph-name="acute.cap" horiz-adv-x="526" d="M371 1709L446 1600L128 1456L79 1529L371 1709Z" />
<glyph unicode="&#xf6ca;" glyph-name="caron.cap" horiz-adv-x="644" d="M79 1639L120 1711L323 1591L525 1711L565 1640L321 1458L79 1639Z" />
<glyph unicode="&#xf6cb;" glyph-name="dieresis.cap" horiz-adv-x="642" d="M562 1560Q562 1534 559 1519T546 1494T522 1481T484 1477Q461 1477 447 1481T423 1494T411 1518T407 1559Q407 1584 410 1599T423 1624T446 1636T484 1640Q508 1640 522 1637T546 1624T558
1600T562 1560ZM234 1560Q234 1534 230 1519T218 1494T194 1481T156 1477Q133 1477 119 1481T95 1494T83 1518T79 1559Q79 1584 82 1599T95 1624T118 1636T156 1640Q180 1640 194 1637T217 1624T230 1600T234 1560Z" />
<glyph unicode="&#xf6ce;" glyph-name="grave.cap" horiz-adv-x="524" d="M397 1456L79 1599L158 1709L446 1531L397 1456Z" />
<glyph unicode="&#xf6cf;" glyph-name="hungarumlaut.cap" horiz-adv-x="904" d="M485 1450L434 1511L741 1708L826 1622L485 1450ZM135 1447L79 1501L336 1707L424 1633L135 1447Z" />
<glyph unicode="&#xf6d0;" glyph-name="macron.cap" horiz-adv-x="628" d="M79 1507V1616H549V1507H79Z" />
<glyph unicode="&#xf730;" glyph-name="zero.oldstyle" horiz-adv-x="840" d="M777 572Q777 406 752 293T679 112T564 14T411 -16Q325 -16 260 10T151 103T85 280T63 561Q63 727 88 840T161 1021T277 1119T429 1149Q516 1149 581 1123T689 1030T755 853T777 572V572ZM624
558Q624 697 612 788T573 933T509 1008T421 1030Q369 1030 331 1008T268 934T229 794T216 575Q216 436 229 345T267 200T331 125T420 103Q471 103 509 125T573 199T611 339T624 558V558Z" />
<glyph unicode="&#xf731;" glyph-name="one.oldstyle" horiz-adv-x="840" d="M111 0V128H369V975L137 881L105 978L405 1134H527V128H758V0H111Z" />
<glyph unicode="&#xf732;" glyph-name="two.oldstyle" horiz-adv-x="840" d="M78 0V115Q180 217 255 296T384 437T471 549T524 642T550 725T557 808Q557 866 542 907T499 973T435 1010T357 1022Q330 1022 304 1019T249 1010T188 995T117 973L94 1081Q135 1096
172 1109T247 1131T325 1145T413 1150Q479 1150 535 1130T633 1068T697 965T721 821Q721 767 712 718T680 620T624 520T539 411T423 285T271 134H748V0H78Z" />
<glyph unicode="&#xf733;" glyph-name="three.oldstyle" horiz-adv-x="840" d="M57 -53Q140 -74 206 -84T326 -95Q393 -95 439 -77T514 -26T555 58T568 175Q568 238 556 288T516 372T444 425T336 443H216V565H331Q383 565 421 580T485 627T523 706T536 814Q536
863 526 902T493 968T434 1009T343 1024Q317 1024 286 1020T223 1010T161 995T107 976L84 1081Q111 1093 145 1105T218 1127T302 1143T396 1150Q475 1150 532 1126T626 1058T680 957T697 833Q697 763 683 710T643 617T585 555T512 520Q569 515 611 486T681 412T722
309T736 192Q736 89 712 11T640 -120T523 -201T363 -229Q331 -229 295 -225T220 -210T136 -185T44 -150L57 -53Z" />
<glyph unicode="&#xf734;" glyph-name="four.oldstyle" horiz-adv-x="840" d="M643 1133V232H801V102H643V-218H495V102H41V224Q85 350 132 471T230 707T330 929T429 1133H643ZM496 1007Q458 930 416 840T331 651T245 445T163 232H496V1007Z" />
<glyph unicode="&#xf735;" glyph-name="five.oldstyle" horiz-adv-x="840" d="M267 999L245 596Q259 599 276 601T313 605T352 608T394 609Q482 609 548 581T657 500T723 373T745 204Q745 96 720 15T647 -120T529 -201T368 -228Q305 -228 228 -212T52 -157L66
-63Q148 -80 216 -90T341 -100Q404 -100 450 -85T525 -37T569 50T584 182Q584 251 571 306T528 401T454 460T343 481Q314 481 286 480T228 474T169 465T104 451L141 1133H272H667V999H267Z" />
<glyph unicode="&#xf736;" glyph-name="six.oldstyle" horiz-adv-x="840" d="M724 1201Q666 1218 608 1228T494 1238Q434 1238 387 1210T307 1118T254 950T231 692Q264 714 295 732T356 762T418 780T482 787Q552 787 605 763T694 692T748 578T767 425Q767 322
743 241T673 102T565 15T423 -16Q367 -16 320 -3T235 40T169 119T122 240T92 407T82 628Q82 775 96 887T137 1080T199 1216T280 1303T374 1349T477 1363Q534 1363 597 1348T739 1299L724 1201ZM234 576Q236 443 249 353T286 208T348 128T437 103Q482 103 516 123T572
180T606 273T617 397Q617 463 606 512T573 595T517 646T437 663Q416 663 394 658T347 643T293 617T234 577V576Z" />
<glyph unicode="&#xf737;" glyph-name="seven.oldstyle" horiz-adv-x="840" d="M533 393Q515 347 494 295T448 188T397 78T346 -33T296 -139T251 -233L146 -197L608 999H65V1133H780V1011L533 393Z" />
<glyph unicode="&#xf738;" glyph-name="eight.oldstyle" horiz-adv-x="840" d="M777 336Q777 261 755 197T687 86T573 11T411 -17Q320 -17 255 6T147 72T84 175T63 308Q63 381 82 437T133 538T208 619T301 689Q260 717 222 748T155 821T107 913T88 1032Q88 1103
109 1164T172 1270T279 1341T430 1367Q521 1367 582 1342T681 1275T735 1176T752 1057Q752 991 735 941T688 849T619 774T537 711Q584 680 627 645T704 565T757 465T777 336V336ZM631 318Q631 376 613 421T565 501T494 566T409 622Q372 595 336 567T272 503T226
423T209 320Q209 270 222 230T263 160T330 115T421 99Q469 99 507 115T573 160T616 229T631 318V318ZM418 1253Q373 1253 338 1238T280 1196T244 1132T232 1048Q232 996 248 957T292 885T354 827T427 776Q467 804 500 832T558 893T595 963T608 1048Q608 1093 597
1130T562 1195T503 1238T418 1253V1253Z" />
<glyph unicode="&#xf739;" glyph-name="nine.oldstyle" horiz-adv-x="840" d="M101 -67Q138 -77 170 -84T233 -97T292 -104T349 -106Q409 -106 456 -78T537 14T590 183T612 442Q579 419 549 402T487 372T426 353T362 346Q292 346 239 370T149 441T95 555T77 708Q77
811 101 892T170 1031T278 1118T421 1149Q476 1149 523 1136T608 1093T674 1014T722 893T751 725T761 505Q761 358 747 246T706 52T644 -85T563 -173T469 -220T364 -234Q333 -234 302 -230T236 -218T165 -196T86 -163L101 -67ZM226 736Q226 670 237 620T270 537T327
487T406 470Q447 470 496 490T609 556V556Q607 688 594 779T557 925T495 1005T407 1030Q361 1030 328 1010T272 953T238 860T226 736V736Z" />
<glyph unicode="&#xf8ff;" glyph-name="" horiz-adv-x="1480" d="M990 223L1048 71L990 51L1045 -89L988 -109L1013 -171L953 -314H845Q842 -333 835 -349T816 -376T785 -394T741 -400Q715 -400 697 -394T666 -377T646 -349T637 -314H528L436 -44L493 -27L436
135L498 155L462 257V355Q425 400 398 448T354 550T328 660T319 779Q319 853 334 924T376 1060T442 1179T528 1272T629 1334T741 1356Q798 1356 852 1334T953 1273T1038 1179T1104 1061T1147 926T1162 779Q1162 717 1153 660T1125 549T1080 448T1017 355V234L990
223ZM783 787Q771 788 761 788T739 789Q728 789 719 789T697 787L708 418H773L783 787ZM41 724Q40 739 40 754T39 786T39 819T41 850L244 834Q243 823 243 811T243 787T243 763T244 739L41 724ZM151 1422Q160 1433 170 1444T191 1467T212 1488T232 1509L369 1331Q362
1325 354 1317T339 1300T324 1283T310 1267L151 1422ZM784 1523Q774 1523 763 1523T740 1524T717 1524T697 1523L682 1757Q682 1757 699 1758T740 1760Q766 1760 782 1759T798 1757L784 1523ZM1169 1267Q1163 1274 1156 1283T1141 1300T1126 1316T1111 1331L1247
1509Q1257 1499 1267 1489T1288 1467T1309 1445T1329 1422L1169 1267ZM1237 742Q1237 752 1237 764T1237 787T1237 810T1237 833L1440 847Q1440 833 1440 818T1441 787T1441 757T1440 728L1237 742ZM947 418Q973 450 994 492T1029 581T1052 678T1061 779Q1061 875
1035 961T964 1111T862 1212T741 1250Q676 1250 618 1213T517 1111T447 961T421 779Q421 728 429 678T452 581T488 493T534 418H633L621 771Q603 768 589 763T561 752Q553 749 548 753T539 767T534 787T534 808T537 827T545 838Q570 848 593 856T638 868T686 875T740
878Q770 878 795 876T842 869T887 856T936 838Q940 835 943 827T947 809T947 787T943 767T934 754T921 752Q906 758 892 763T859 771L848 418H947ZM921 340H559V268L586 184L921 284V340ZM897 201L548 95L581 4L929 106L897 201ZM901 24L550 -83L602 -234H885L909
-168L898 -135L788 -172L763 -114L933 -62L901 24ZM758 824Q760 831 758 838H756Q758 831 756 824H758ZM756 834Q751 835 751 834T752 831T754 828T752 828V826Q756 825 756 826T756 828T754 831T756 832V834ZM750 832Q750 837 744 834V832Q748 834 748 832Q744
832 744 828Q744 825 746 825T748 828V826H750V832ZM744 824Q742 831 744 838H742Q740 831 742 824H744ZM740 828Q737 826 737 830T740 832V834Q734 835 734 829T740 826V828ZM734 834H732V828Q732 826 731 826T730 828V834H728V828Q728 825 731 825T734 828V834ZM726
828H724V836H722V826H726V828ZM747 829Q747 827 747 827T747 829Q746 829 746 829T747 829Z" />
<glyph unicode="&#xfb00;" glyph-name="f_f" horiz-adv-x="948" d="M986 1283Q958 1297 930 1305T874 1314Q812 1314 787 1275T762 1152V992H934V880H762V0H614V880H303V0H155V880H22V992H155V1132Q155 1199 167 1252T205 1343T273 1401T371 1421Q423 1421 469
1406T547 1368L520 1275Q496 1288 469 1296T415 1304Q353 1304 328 1265T303 1142V992H614V1142Q614 1209 626 1262T664 1353T732 1411T830 1431Q858 1431 884 1426T934 1413T978 1395T1014 1374L986 1283Z" />
<glyph unicode="&#xfb01;" glyph-name="fi" horiz-adv-x="900" d="M614 0V880H303V0H155V880H22V992H155V1142Q155 1209 167 1262T205 1353T272 1411T370 1431Q421 1431 466 1416T541 1379L514 1285Q489 1298 464 1306T413 1314Q353 1314 328 1275T303 1152V992H762V0H614ZM778
1248Q778 1221 775 1205T761 1178T734 1164T689 1160Q662 1160 645 1163T618 1176T604 1203T600 1247Q600 1274 604 1290T618 1317T645 1331T689 1335Q716 1335 733 1332T761 1319T774 1292T778 1248V1248Z" />
<glyph unicode="&#xfb02;" glyph-name="fl" horiz-adv-x="928" d="M882 4Q867 0 852 -3T820 -9T788 -12T758 -13Q721 -13 694 -6T649 23T623 83T614 183V1302Q597 1305 579 1307T542 1310T506 1313T474 1314Q433 1314 402 1303T348 1266T315 1195T303 1084V992H466V880H303V0H155V880H22V992H155V1063Q155
1153 170 1222T220 1337T310 1407T445 1431Q463 1431 485 1430T529 1428T574 1424T620 1418H762V244Q762 200 765 172T775 129T794 108T827 102Q839 102 852 102T878 102L882 4Z" />
<glyph unicode="&#xfb03;" glyph-name="f_f_i" horiz-adv-x="1360" d="M1073 0V880H762V0H614V880H303V0H155V880H22V992H155V1132Q155 1199 167 1252T205 1343T273 1401T371 1421Q423 1421 469 1406T547 1368L520 1275Q496 1288 469 1296T415 1304Q353 1304 328
1265T303 1142V992H614V1142Q614 1209 626 1262T664 1353T731 1411T829 1431Q880 1431 925 1416T1000 1379L973 1285Q948 1298 923 1306T872 1314Q812 1314 787 1275T761 1152V992H1221V0H1073ZM1237 1248Q1237 1221 1234 1205T1220 1178T1193 1164T1148 1160Q1121
1160 1104 1163T1077 1176T1063 1203T1059 1247Q1059 1274 1063 1290T1077 1317T1104 1331T1148 1335Q1175 1335 1192 1332T1220 1319T1233 1292T1237 1248V1248Z" />
<glyph unicode="&#xfb04;" glyph-name="f_f_l" horiz-adv-x="1388" d="M1341 4Q1326 0 1311 -3T1279 -9T1247 -12T1217 -13Q1179 -13 1152 -6T1108 23T1082 83T1073 183V1302Q1056 1305 1038 1307T1001 1310T964 1313T933 1314Q892 1314 861 1303T807 1266T774
1195T762 1084V992H925V880H762V0H614V880H303V0H155V880H22V992H155V1132Q155 1199 167 1252T205 1343T273 1401T371 1421Q423 1421 469 1406T547 1368L520 1275Q496 1288 469 1296T415 1304Q353 1304 328 1265T303 1142V992H614V1063Q614 1153 629 1222T679 1337T769
1407T904 1431Q922 1431 943 1430T987 1428T1033 1424T1079 1418H1221V244Q1221 200 1224 172T1234 129T1253 108T1286 102Q1298 102 1311 102T1337 102L1341 4Z" />
<glyph unicode="&#xfb06;" glyph-name="s_t" horiz-adv-x="1232" d="M1192 40Q1133 10 1090 -2T1006 -15Q951 -15 914 -1T853 45T818 126T807 250V880H684V992H807V1061Q807 1129 796 1176T763 1253T711 1296T644 1309Q609 1309 581 1297T531 1262T498 1205T486
1129Q486 1097 492 1071T510 1022T534 983T562 954L543 866Q522 873 502 878T462 886T423 892T386 894Q346 894 315 883T264 852T233 806T223 748Q223 707 240 679T284 628T346 587T419 549T491 507T554 452T599 377T616 275Q616 211 595 158T535 66T438 6T308
-16Q241 -16 179 3T64 55L83 141Q145 120 192 111T283 101Q330 101 364 113T419 147T451 199T462 264Q462 304 446 333T402 384T339 424T266 462T194 504T131 559T87 633T70 736Q70 793 91 842T149 928T240 985T359 1006Q376 1006 390 1005T414 1001Q425 998 435
995Q405 1017 386 1056T367 1146Q367 1210 389 1260T451 1345T544 1399T660 1418Q727 1418 781 1400T875 1341T935 1235T956 1075V992H1169V880H956V288Q956 238 960 203T975 147T1005 116T1053 106Q1074 106 1102 112T1175 135L1192 40Z" />
<glyph unicode="&#xfeff;" glyph-name="uniFEFF" horiz-adv-x="0" />
</font>
</defs>
</svg>
