<?xml version="1.0" standalone="no"?> <!DOCTYPE svg PUBLIC "-//W3C//DTD SVG 1.0//EN" "http://www.w3.org/TR/2001/REC-SVG-20010904/DTD/svg10.dtd" > <svg xmlns="http://www.w3.org/2000/svg" width="100%" height="100%">
<defs >
<font id="SunAntwerpen_800" horiz-adv-x="1009" ><font-face
    font-family="SunAntwerpen"
    units-per-em="2000"
    panose-1="2 11 9 3 5 3 2 2 2 4"
    ascent="1800"
    descent="-400"
    alphabetic="0" />
<missing-glyph horiz-adv-x="1100" d="M900 200V900H200V200H900ZM500 700V800H800V300H700V500H500V600H700V700H500ZM100 100V1000H1000V100H100ZM300 300V800H400V400H600V300H300Z" />
<glyph unicode="&#xd;" glyph-name="CR" horiz-adv-x="0" />
<glyph unicode=" " glyph-name="space" horiz-adv-x="480" />
<glyph unicode="!" glyph-name="exclam" horiz-adv-x="708" d="M241 390L189 1350H578L528 390H241ZM576 145Q576 99 567 68T537 17T478 -10T385 -19Q329 -19 293 -11T235 17T205 67T196 144Q196 188 204 219T234 269T292 297T385 306Q442 306 478 298T537 271T567
221T576 145V145Z" />
<glyph unicode="&quot;" glyph-name="quotedbl" horiz-adv-x="972" d="M147 820L116 1350H421L391 820H147ZM578 820L547 1350H852L822 820H578Z" />
<glyph unicode="#" glyph-name="numbersign" horiz-adv-x="1038" d="M812 390L768 0H536L580 390H392L348 0H117L161 390H47V581H181L208 822H47V1009H230L268 1350H499L461 1009H649L687 1350H919L881 1009H991V822H859L832 581H991V390H812ZM628 822H439L412
581H600L628 822Z" />
<glyph unicode="$" glyph-name="dollar" horiz-adv-x="1000" d="M393 -216L374 8Q269 17 191 49T50 130L136 297Q165 282 198 271T266 250T338 236T410 231Q460 231 495 242T551 272T581 315T591 367Q591 405 569 432T510 482T427 525T331 569T236 623T153 696T94
795T72 929Q72 998 92 1056T150 1160T245 1237T374 1285L393 1498H575L596 1294Q677 1286 750 1256T881 1177L793 1018Q767 1032 739 1043T681 1063T619 1075T553 1079Q515 1079 487 1069T440 1042T412 1002T402 955Q402 913 425 884T486 832T572 788T671 744T770
691T857 620T918 522T941 389Q941 321 920 259T855 146T746 61T596 13L575 -216H393Z" />
<glyph unicode="%" glyph-name="percent" horiz-adv-x="1422" d="M710 1050Q710 883 628 806T382 728Q296 728 237 746T142 803T91 903T75 1052Q75 1137 96 1198T158 1298T260 1357T404 1376Q490 1376 548 1357T643 1299T694 1198T710 1050V1050ZM481 1051Q481
1096 475 1126T457 1176T429 1203T392 1212Q374 1212 358 1205T330 1179T312 1130T305 1051Q305 1005 311 975T329 926T357 900T393 892Q414 892 430 900T457 927T475 976T481 1051V1051ZM1347 296Q1347 129 1265 52T1020 -26Q933 -26 874 -8T779 49T728 149T712
298Q712 383 733 444T795 544T898 603T1041 622Q1127 622 1186 603T1281 545T1332 444T1347 296V296ZM1118 297Q1118 342 1112 372T1094 422T1066 449T1030 458Q1011 458 995 451T967 425T949 376T942 297Q942 251 948 221T966 172T994 146T1030 138Q1051 138 1067
146T1094 173T1112 222T1118 297V297ZM283 -49L123 42L1140 1399L1300 1308L283 -49Z" />
<glyph unicode="&amp;" glyph-name="ampersand" horiz-adv-x="1342" d="M1244 777Q1244 702 1234 632T1206 499T1161 380T1103 276Q1145 240 1176 222T1230 203H1287V8Q1276 3 1263 -3T1231 -13T1189 -21T1131 -24Q1108 -24 1083 -17T1030 5T969 40T900 87Q857
59 810 39T712 5T611 -16T507 -23Q383 -23 297 7T158 89T81 207T57 349Q57 416 75 470T125 569T198 651T288 720Q257 763 231 804T187 885T158 967T148 1051Q148 1121 173 1180T250 1282T381 1349T566 1373Q650 1373 718 1356T836 1304T911 1219T938 1100Q938 1029
917 974T858 873T771 788T664 712Q689 682 716 652T771 591T829 531T886 473Q902 506 913 543T931 618T941 696T944 777H1244ZM361 374Q361 330 375 297T414 241T473 208T549 197Q572 197 593 201T635 211T673 227T707 248Q671 280 636 315T566 386T497 460T432
536Q417 520 404 502T382 465T367 423T361 374V374ZM647 1085Q647 1107 641 1124T622 1155T592 1175T549 1182Q523 1182 504 1175T472 1155T453 1123T446 1079Q446 1059 451 1037T466 991T491 942T529 888Q561 914 583 937T620 985T640 1033T647 1085V1085Z" />
<glyph unicode="&apos;" glyph-name="quotesingle" horiz-adv-x="640" d="M214 820L184 1350H475L446 820H214Z" />
<glyph unicode="(" glyph-name="parenleft" horiz-adv-x="620" d="M359 -349Q298 -259 248 -158T161 55T105 289T84 546Q84 677 104 801T160 1039T247 1258T359 1457L575 1388Q532 1314 495 1223T429 1026T385 802T368 556Q368 426 385 307T430 81T496 -117T575
-283L359 -349Z" />
<glyph unicode=")" glyph-name="parenright" horiz-adv-x="620" d="M45 -280Q87 -206 125 -115T191 82T235 306T252 552Q252 682 235 801T190 1027T124 1225T45 1391L261 1457Q321 1367 372 1266T459 1053T515 818T536 562Q536 430 516 307T460 69T372 -150T261
-349L45 -280Z" />
<glyph unicode="*" glyph-name="asterisk" horiz-adv-x="1000" d="M803 682L595 859L643 591H360L409 859L201 682L60 928L317 1020L60 1112L201 1358L409 1180L360 1449H643L595 1180L803 1358L944 1112L687 1020L944 928L803 682Z" />
<glyph unicode="+" glyph-name="plus" horiz-adv-x="1000" d="M633 489V154H366V489H68V713H366V1040H633V713H931V489H633Z" />
<glyph unicode="," glyph-name="comma" horiz-adv-x="602" d="M476 146Q476 2 405 -117T174 -346L50 -228Q134 -158 164 -113T194 -34Q194 -10 182 3T155 33T128 75T116 146Q116 202 123 239T151 298T208 329T304 338Q358 338 392 327T445 293T470 234T476 146Z" />
<glyph unicode="-" glyph-name="hyphen" horiz-adv-x="478" d="M44 450V684H476V450H44Z" />
<glyph unicode="." glyph-name="period" horiz-adv-x="580" d="M476 156Q476 104 469 69T442 13T387 -17T296 -26Q240 -26 205 -17T150 13T122 68T114 154Q114 208 122 243T150 299T206 329T298 338Q352 338 387 330T442 301T469 245T476 156Z" />
<glyph unicode="/" glyph-name="slash" horiz-adv-x="1000" d="M277 -208H0L714 1418H991L277 -208Z" />
<glyph unicode="0" glyph-name="zero" horiz-adv-x="1000" d="M954 690Q954 488 923 351T833 130T687 11T489 -26Q409 -26 346 -11T234 38T148 125T90 254T56 432T45 663Q45 858 73 994T160 1215T304 1338T508 1376Q624 1376 708 1343T847 1231T928 1020T954 690V690ZM632
677Q632 767 629 836T620 957T603 1043T578 1099T544 1130T501 1139Q476 1139 457 1131T423 1102T398 1048T381 963T371 843T367 683Q367 545 373 455T395 311T437 238T501 217Q524 217 543 225T576 255T601 311T619 397T629 517T632 677V677Z" />
<glyph unicode="1" glyph-name="one" horiz-adv-x="1000" d="M932 289V0H108V289H359V1027L143 953L65 1168L443 1350H710V289H932Z" />
<glyph unicode="2" glyph-name="two" horiz-adv-x="1000" d="M55 0V279Q153 384 226 466T350 612T434 726T485 814T509 885T516 947Q516 991 505 1020T474 1067T425 1092T361 1099Q328 1099 294 1094T227 1079T161 1060T101 1040L43 1258Q93 1284 144 1306T249
1343T365 1367T497 1376Q579 1376 653 1356T784 1291T873 1175T906 1001Q906 924 885 852T810 698T667 517T437 289H940V0H55Z" />
<glyph unicode="3" glyph-name="three" horiz-adv-x="1000" d="M54 258Q138 241 205 234T324 226Q397 226 443 239T516 277T552 334T562 408Q562 447 553 479T520 534T459 568T365 580H205V822H360Q408 822 442 831T497 861T527 912T537 988Q537 1023 529 1048T501
1089T452 1112T378 1120Q346 1120 313 1117T246 1106T178 1090T111 1068L71 1279Q117 1298 164 1315T263 1346T369 1368T485 1376Q594 1376 672 1351T800 1278T873 1164T897 1011Q897 956 884 911T845 831T785 769T706 723Q762 713 805 684T876 615T919 526T934
425Q934 302 897 217T793 77T632 -1T426 -26Q384 -26 338 -21T241 -3T138 29T34 74L54 258Z" />
<glyph unicode="4" glyph-name="four" horiz-adv-x="1000" d="M856 1350V568H970V289H856V0H533V289H29V547Q64 638 105 738T193 941T290 1147T394 1350H856ZM533 1079Q501 1013 470 947T410 816T354 689T302 568H533V1079Z" />
<glyph unicode="5" glyph-name="five" horiz-adv-x="1000" d="M840 1078H394L378 849Q403 854 433 856T499 859Q612 859 694 831T830 747T911 612T937 428Q937 312 903 227T804 86T647 2T439 -26Q357 -26 257 -4T32 74L54 250Q149 237 223 229T354 221Q422 221
467 232T538 265T575 322T585 407Q585 454 576 491T544 554T483 593T387 606Q352 606 319 604T249 597T174 587T86 571L133 1350H410H840V1078Z" />
<glyph unicode="6" glyph-name="six" horiz-adv-x="1000" d="M876 1102Q806 1117 738 1126T602 1135Q554 1135 514 1115T443 1052T394 940T370 772Q402 791 432 805T491 830T551 845T614 851Q708 851 773 825T878 749T935 626T953 461Q953 354 923 265T836 112T698
13T513 -23Q440 -23 379 -12T267 27T177 105T112 232T72 416T58 668Q58 799 75 902T125 1084T202 1217T302 1307T422 1358T557 1374Q637 1374 723 1353T905 1281L876 1102ZM379 554Q379 454 388 388T416 282T460 227T521 211Q549 211 571 222T608 258T631 326T639
433Q639 481 633 514T613 567T577 595T522 604Q503 604 486 602T453 595T418 583T379 565V554Z" />
<glyph unicode="7" glyph-name="seven" horiz-adv-x="1000" d="M708 580Q678 516 649 458T591 347T532 245T473 149T414 59T354 -26L134 54L572 1078H54V1350H952V1098L708 580Z" />
<glyph unicode="8" glyph-name="eight" horiz-adv-x="1000" d="M955 367Q955 283 929 211T846 87T699 4T478 -26Q359 -26 276 1T142 76T67 193T44 345Q44 403 60 451T103 538T167 610T245 669Q209 695 177 727T120 800T81 891T67 1007Q67 1086 93 1153T174 1270T312
1348T509 1376Q621 1376 701 1353T831 1286T906 1177T930 1029Q930 971 916 925T877 841T820 773T752 717Q794 692 831 662T895 589T939 493T955 367V367ZM646 345Q646 384 633 414T597 468T543 514T474 554Q447 534 425 513T387 469T361 418T352 358Q352 322 361
293T388 243T435 211T503 199Q538 199 565 210T610 240T637 286T646 345V345ZM495 1157Q467 1157 445 1148T407 1121T384 1078T375 1020Q375 985 385 958T413 907T454 865T506 829Q530 845 551 863T589 902T615 949T625 1004Q625 1044 618 1073T595 1120T554 1148T495
1157V1157Z" />
<glyph unicode="9" glyph-name="nine" horiz-adv-x="1000" d="M86 244Q137 236 179 230T258 221T330 216T396 214Q445 214 485 233T557 296T607 410T632 584Q599 564 569 550T510 525T450 510T388 505Q293 505 229 531T124 607T66 730T48 895Q48 1002 78 1090T166
1242T304 1340T488 1376Q560 1376 622 1365T735 1326T824 1249T889 1124T929 940T943 688Q943 556 926 452T876 269T798 134T697 43T577 -9T442 -26Q401 -26 359 -22T270 -8T173 21T65 70L86 244ZM623 802Q623 901 614 966T586 1071T541 1126T481 1142Q452 1142
430 1131T393 1095T371 1027T363 923Q363 874 369 842T389 789T425 761T479 752Q498 752 516 754T551 761T585 773T623 791V802Z" />
<glyph unicode=":" glyph-name="colon" horiz-adv-x="612" d="M506 150Q506 56 463 22T330 -12Q242 -12 199 22T156 148Q156 238 199 274T330 310Q422 310 464 276T506 150ZM506 860Q506 768 463 733T330 698Q242 698 199 733T156 860Q156 950 199 986T330 1022Q422
1022 464 988T506 860Z" />
<glyph unicode=";" glyph-name="semicolon" horiz-adv-x="612" d="M500 140Q500 16 426 -107T196 -344L74 -246Q160 -182 199 -129T238 -24Q238 -5 222 10T190 39T162 76T150 142Q150 234 192 270T328 306Q420 306 460 270T500 140ZM500 860Q500 771 458 735T326
698Q235 698 193 734T150 860Q150 948 192 985T326 1022Q418 1022 459 986T500 860Z" />
<glyph unicode="&lt;" glyph-name="less" horiz-adv-x="1000" d="M832 107L67 494V708L832 1095L925 865L381 604L925 344L832 107Z" />
<glyph unicode="=" glyph-name="equal" horiz-adv-x="1000" d="M84 304V522H916V304H84ZM84 680V898H916V680H84Z" />
<glyph unicode="&gt;" glyph-name="greater" horiz-adv-x="1000" d="M168 107L75 337L619 598L75 858L168 1095L933 708V494L168 107Z" />
<glyph unicode="?" glyph-name="question" horiz-adv-x="1000" d="M660 144Q660 96 652 66T622 16T565 -11T470 -20Q361 -20 321 16T280 144Q280 234 321 270T472 306Q530 306 566 298T622 271T651 222T660 144ZM914 1030Q914 958 895 904T845 811T762 725T686
652T642 588T618 496L612 390H330L324 488Q317 564 330 619T367 712T422 781T485 845T535 912T552 992Q552 1045 514 1080T400 1116Q350 1116 295 1104T186 1070L96 1262Q285 1372 504 1372Q706 1372 810 1284T914 1030Z" />
<glyph unicode="@" glyph-name="at" horiz-adv-x="2062" d="M1140 788Q1122 792 1105 794T1072 796Q988 796 936 727T884 516Q884 425 899 389T952 352Q986 352 1021 378T1102 472L1140 788ZM1950 814Q1950 660 1905 532T1774 312T1564 170T1284 120H1144L1126
266Q1055 184 985 143T838 102Q696 102 628 199T560 470Q560 612 601 718T718 892T894 993T1118 1026Q1214 1026 1301 1013T1464 974L1394 348Q1514 348 1590 462T1666 762Q1666 863 1639 947T1552 1095T1391 1194T1148 1230Q959 1230 813 1168T569 1001T423 766T374
502Q374 349 415 228T536 23T735 -104T1004 -148Q1121 -148 1259 -121T1510 -52L1560 -232Q1428 -293 1271 -326T952 -360Q753 -360 594 -310T321 -158T148 95T88 446Q88 658 164 840T385 1157T736 1366T1194 1440Q1391 1440 1535 1395T1771 1265T1906 1067T1950
814Z" />
<glyph unicode="A" glyph-name="A" horiz-adv-x="1200" d="M726 496Q686 655 648 797T572 1062Q555 999 536 927T498 779T461 632T428 496H726ZM828 0Q818 59 804 130T778 248H376Q365 194 353 128T330 0H10Q83 337 173 673T372 1350H822Q928 1030 1016 704T1190 0H828Z" />
<glyph unicode="B" glyph-name="B" horiz-adv-x="1188" d="M768 416Q768 452 757 483T720 538T654 576T556 590H458V234Q485 232 515 230T566 228Q672 228 720 277T768 416ZM712 972Q712 1039 675 1078T560 1118H458V814H536Q627 814 669 859T712 972ZM1124 438Q1124
346 1090 267T984 126T800 31T534 -4Q486 -4 346 -2T126 0V1350H622Q838 1350 946 1263T1054 1024Q1054 920 1012 852T890 742Q997 720 1060 636T1124 438Z" />
<glyph unicode="C" glyph-name="C" horiz-adv-x="1028" d="M1010 186Q942 85 831 30T594 -26Q325 -26 195 140T64 648Q64 1001 206 1188T600 1376Q727 1376 827 1321T986 1156L836 1006Q798 1055 751 1081T648 1108Q590 1108 546 1078T473 993T430 861T416 690Q416
565 431 479T477 342T550 267T652 244Q713 244 767 272T874 360L1010 186Z" />
<glyph unicode="D" glyph-name="D" horiz-adv-x="1210" d="M794 680Q794 904 730 1005T536 1106Q512 1106 496 1106T462 1104V250Q490 248 505 247T534 246Q668 246 731 357T794 680ZM1146 714Q1146 363 985 178T490 -8Q423 -8 296 -5T126 0V1350Q207 1350 348
1352T552 1354Q712 1354 826 1308T1010 1178T1113 977T1146 714Z" />
<glyph unicode="E" glyph-name="E" horiz-adv-x="952" d="M126 0V1350H862V1096H462V812H796V570H462V256H870V0H126Z" />
<glyph unicode="F" glyph-name="F" horiz-adv-x="912" d="M462 1096V788H812V540H462V0H126V1350H854V1096H462Z" />
<glyph unicode="G" glyph-name="G" horiz-adv-x="1156" d="M1060 138Q964 61 840 18T566 -26Q315 -26 190 143T64 642Q64 824 105 962T223 1193T408 1330T650 1376Q780 1376 884 1315T1054 1148L906 1014Q839 1066 783 1089T664 1112Q541 1112 478 1012T414 694Q414
569 427 482T467 341T531 264T618 240Q651 240 680 248T730 270V560H592V802H1060V138Z" />
<glyph unicode="H" glyph-name="H" horiz-adv-x="1316" d="M854 0V562H462V0H126V1350H462V842H854V1350H1190V0H854Z" />
<glyph unicode="I" glyph-name="I" horiz-adv-x="588" d="M126 0V1350H462V0H126Z" />
<glyph unicode="J" glyph-name="J" horiz-adv-x="594" d="M468 146Q468 -14 397 -139T176 -352L16 -220Q53 -175 76 -130T112 -37T128 62T132 182V1350H468V146Z" />
<glyph unicode="K" glyph-name="K" horiz-adv-x="1126" d="M736 0L468 600H462V0H126V1350H462V794H468L728 1350H1084L760 754L1112 0H736Z" />
<glyph unicode="L" glyph-name="L" horiz-adv-x="842" d="M126 0V1350H462V258H812V0H126Z" />
<glyph unicode="M" glyph-name="M" horiz-adv-x="1706" d="M1260 0Q1257 238 1248 469T1222 920H1220L974 0H686L442 920H440Q425 700 418 474T408 0H96Q105 346 128 680T190 1350H632L860 542H862L1094 1350H1514Q1550 1014 1574 681T1614 0H1260Z" />
<glyph unicode="N" glyph-name="N" horiz-adv-x="1300" d="M808 0L492 666Q469 714 450 760T418 844Q401 887 388 926H385Q390 875 393 820Q396 773 398 714T401 596V0H126V1350H529L805 771Q827 723 846 677T880 592Q898 548 911 508H915Q910 559 907 615Q903
663 901 722T899 841V1350H1173V0H808Z" />
<glyph unicode="O" glyph-name="O" horiz-adv-x="1286" d="M870 652Q870 792 855 884T809 1028T737 1101T636 1122Q585 1122 546 1103T477 1036T432 906T416 698Q416 558 431 467T477 324T549 251T650 230Q701 230 740 249T809 314T854 444T870 652ZM1222 702Q1222
516 1182 379T1064 151T878 18T630 -26Q486 -26 381 11T205 129T99 338T64 648Q64 834 104 971T222 1199T408 1332T656 1376Q800 1376 905 1339T1081 1221T1187 1012T1222 702Z" />
<glyph unicode="P" glyph-name="P" horiz-adv-x="1114" d="M732 892Q732 1004 684 1057T524 1110H462V672H524Q630 672 681 728T732 892ZM1084 920Q1084 808 1053 718T953 563T773 463T504 428H462V0H126V1350Q201 1350 352 1352T574 1354Q710 1354 807 1325T966
1239T1055 1103T1084 920Z" />
<glyph unicode="Q" glyph-name="Q" horiz-adv-x="1286" d="M870 654Q870 796 854 887T808 1030T734 1102T636 1122Q588 1122 548 1104T478 1039T432 910T416 702Q416 558 432 466T478 322T552 250T650 230Q698 230 738 248T808 313T854 442T870 654ZM1302 -352Q1242
-318 1179 -312T1052 -307T926 -307T807 -281T699 -197T606 -24Q334 -26 199 134T64 650Q64 838 105 975T223 1201T410 1333T658 1376Q798 1376 904 1339T1081 1222T1187 1014T1222 706Q1222 542 1192 419T1107 210T977 72T812 -2Q856 -52 901 -70T992 -91T1086
-90T1185 -94T1291 -130T1406 -224L1302 -352Z" />
<glyph unicode="R" glyph-name="R" horiz-adv-x="1136" d="M728 940Q728 1022 684 1068T544 1114H462V764H542Q633 764 680 809T728 940ZM748 0L534 520H462V0H126V1350Q239 1353 363 1354T592 1356Q718 1356 810 1327T962 1244T1050 1120T1078 962Q1078 889 1061
831T1012 728T939 652T848 598L1128 0H748Z" />
<glyph unicode="S" glyph-name="S" horiz-adv-x="992" d="M958 394Q958 307 927 232T834 99T677 9T462 -24Q343 -24 236 13T36 118L114 288Q201 255 275 238T400 220Q488 220 536 255T584 356Q584 408 550 446T449 520T314 594T188 680T96 800T60 972Q60 1063
93 1137T187 1264T331 1344T514 1372Q614 1372 709 1343T898 1252L820 1082Q753 1108 691 1120T576 1132Q495 1132 454 1100T412 1010Q412 957 448 919T554 842T696 766T825 681T920 562T958 394Z" />
<glyph unicode="T" glyph-name="T" horiz-adv-x="934" d="M632 1094V0H296V1094H26V1350H906V1094H632Z" />
<glyph unicode="U" glyph-name="U" horiz-adv-x="1304" d="M1180 482Q1180 345 1140 248T1027 90T853 2T630 -26Q374 -26 249 85T124 448V1350H460V482Q460 336 505 277T652 218Q702 218 738 230T799 270T837 345T850 462V1350H1180V482Z" />
<glyph unicode="V" glyph-name="V" horiz-adv-x="1122" d="M1112 1350Q1050 978 969 648T772 0H358Q243 335 159 666T12 1350H378Q405 1135 459 879T590 334Q655 570 704 828T786 1350H1112Z" />
<glyph unicode="W" glyph-name="W" horiz-adv-x="1736" d="M1716 1350Q1685 1169 1652 997T1583 659T1507 329T1422 0H1052L902 630L862 856H860L822 632L684 0H318Q271 165 231 328T154 656T86 991T20 1350H380Q392 1258 407 1162T451 904T495 645T532 422H534L570
630L730 1350H1064L1230 622L1266 422H1270Q1292 558 1311 678T1346 910T1378 1132T1406 1350H1716Z" />
<glyph unicode="X" glyph-name="X" horiz-adv-x="1106" d="M730 0Q681 124 630 238T528 448Q477 351 427 237T334 0H8Q159 401 336 712Q292 793 254 867T181 1018T111 1176T40 1350H398Q437 1245 482 1139T568 952Q613 1034 661 1143T744 1350H1062Q996 1170 922
1016T762 720Q850 565 935 384T1096 0H730Z" />
<glyph unicode="Y" glyph-name="Y" horiz-adv-x="988" d="M1002 1350Q924 1101 840 903T660 550V0H324V550Q221 733 139 926T-14 1350H348Q385 1215 426 1094T516 860Q562 963 600 1085T674 1350H1002Z" />
<glyph unicode="Z" glyph-name="Z" horiz-adv-x="986" d="M52 0V228L518 1088H72L78 1350H914V1124L450 264H936L930 0H52Z" />
<glyph unicode="[" glyph-name="bracketleft" horiz-adv-x="730" d="M171 -346V1478H616V1291H440V-159H616V-346H171Z" />
<glyph unicode="\" glyph-name="backslash" horiz-adv-x="1000" d="M722 -208L8 1418H286L1000 -208H722Z" />
<glyph unicode="]" glyph-name="bracketright" horiz-adv-x="730" d="M113 -346V-159H289V1291H113V1478H558V-346H113Z" />
<glyph unicode="^" glyph-name="asciicircum" horiz-adv-x="1000" d="M720 718L500 1158L276 718L34 804L378 1418H626L968 802L720 718Z" />
<glyph unicode="_" glyph-name="underscore" horiz-adv-x="1000" d="M0 -362V-132H1000V-362H0Z" />
<glyph unicode="`" glyph-name="grave" horiz-adv-x="624" d="M394 1102L68 1344L290 1458L554 1184L394 1102Z" />
<glyph unicode="a" glyph-name="a" horiz-adv-x="1040" d="M620 438H556Q448 438 400 404T352 308Q352 198 464 198Q500 198 542 217T620 266V438ZM690 0L670 94Q604 36 531 5T368 -26Q209 -26 126 49T42 272Q42 437 177 532T568 628H620V684Q620 806 456 806Q383
806 301 790T138 746L98 938Q206 984 314 1009T534 1034Q729 1034 832 950T936 714V0H690Z" />
<glyph unicode="b" glyph-name="b" horiz-adv-x="1088" d="M704 508Q704 650 669 720T570 790Q541 790 503 774T426 726V216Q445 209 469 205T524 200Q607 200 655 276T704 508ZM1030 546Q1030 397 992 288T883 110T710 7T480 -26Q389 -26 291 -13T106 22V1418H426V942Q477
983 537 1008T662 1034Q756 1034 826 996T942 891T1008 735T1030 546Z" />
<glyph unicode="c" glyph-name="c" horiz-adv-x="842" d="M824 122Q760 58 672 18T472 -22Q58 -22 58 492Q58 609 87 708T174 881T312 994T496 1034Q689 1034 806 908L696 742Q659 771 623 784T546 798Q475 798 433 728T390 514Q390 352 427 284T544 216Q635 216
730 286L824 122Z" />
<glyph unicode="d" glyph-name="d" horiz-adv-x="1088" d="M660 794Q636 801 613 805T562 810Q478 810 431 734T384 502Q384 358 419 289T518 220Q581 220 660 284V794ZM720 0L698 96Q634 38 565 6T422 -26Q329 -26 260 12T146 117T80 273T58 462Q58 611 95 720T200
899T360 1001T566 1034Q592 1034 619 1033T660 1030V1418H980V0H720Z" />
<glyph unicode="e" glyph-name="e" horiz-adv-x="1040" d="M664 632Q664 733 631 778T532 824Q466 824 429 773T386 628H664V632ZM384 434V424Q384 319 433 268T578 216Q645 216 737 230T922 272L964 92Q860 36 746 5T516 -26Q409 -26 326 1T182 87T90 244T58
480Q58 750 186 892T542 1034Q649 1034 731 1004T871 905T955 720T970 434H384Z" />
<glyph unicode="f" glyph-name="f" horiz-adv-x="620" d="M642 1198Q579 1216 534 1216Q486 1216 466 1192T446 1116V1010H602V788H446V0H126V788H18V1010H126V1108Q126 1272 196 1358T426 1444Q502 1444 564 1427T682 1378L642 1198Z" />
<glyph unicode="g" glyph-name="g" horiz-adv-x="1088" d="M660 792Q639 800 614 805T562 810Q480 810 432 737T384 520Q384 381 419 314T518 246Q549 246 587 263T660 310V792ZM980 42Q980 -77 945 -157T847 -284T703 -350T524 -370Q439 -370 346 -347T140 -274L162
-100Q260 -116 341 -125T488 -134Q580 -134 620 -105T660 0V100Q604 58 546 33T422 8Q331 8 262 45T148 147T80 298T58 480Q58 621 96 726T205 900T377 1001T602 1034Q690 1034 792 1021T980 988V42Z" />
<glyph unicode="h" glyph-name="h" horiz-adv-x="1102" d="M1002 572Q1002 527 998 329T994 0H674Q674 121 678 302T682 522Q682 605 676 656T656 734T624 770T576 780Q514 780 426 720V0H106V1418H426V936Q479 981 545 1007T686 1034Q849 1034 925 926T1002 572Z" />
<glyph unicode="i" glyph-name="i" horiz-adv-x="534" d="M106 0V1010H426V0H106ZM454 1260Q454 1170 415 1134T268 1098Q210 1098 174 1106T116 1133T87 1182T78 1260Q78 1350 118 1386T268 1422Q325 1422 361 1414T417 1387T445 1338T454 1260Z" />
<glyph unicode="j" glyph-name="j" horiz-adv-x="534" d="M426 98Q426 -50 371 -159T194 -370L-20 -280Q40 -204 73 -125T106 44V1010H426V98ZM454 1260Q454 1172 416 1135T268 1098Q210 1098 174 1106T116 1133T86 1183T78 1260Q78 1350 117 1386T268 1422Q324
1422 360 1414T417 1387T446 1337T454 1260Z" />
<glyph unicode="k" glyph-name="k" horiz-adv-x="1022" d="M642 0L438 478H426V0H106V1418H426V610H438L624 1010H988L728 578L1012 0H642Z" />
<glyph unicode="l" glyph-name="l" horiz-adv-x="562" d="M542 12Q498 -4 446 -12T324 -20Q213 -20 160 26T106 188V1418H426V314Q426 274 429 251T439 217T458 202T488 198H530L542 12Z" />
<glyph unicode="m" glyph-name="m" horiz-adv-x="1652" d="M1554 574Q1554 530 1550 332T1546 0H1226Q1226 74 1227 147T1229 287T1231 420T1232 520Q1232 604 1227 655T1209 734T1179 770T1132 780Q1103 780 1064 763T980 714Q984 689 986 657T988 582V0H668V520Q668
604 663 655T646 734T617 770T572 780Q543 780 506 764T426 720V0H106V1010H368L390 910Q451 968 525 1001T682 1034Q772 1034 835 999T930 898Q1003 965 1079 999T1242 1034Q1404 1034 1479 925T1554 574Z" />
<glyph unicode="n" glyph-name="n" horiz-adv-x="1102" d="M1002 572Q1002 529 998 331T994 0H674Q674 123 678 303T682 522Q682 605 676 656T657 734T625 770T576 780Q544 780 507 765T426 720V0H106V1010H368L390 910Q453 970 528 1002T688 1034Q852 1034 927
925T1002 572Z" />
<glyph unicode="o" glyph-name="o" horiz-adv-x="1098" d="M712 482Q712 580 701 643T668 741T617 789T548 802Q511 802 482 789T431 744T398 659T386 528Q386 429 397 366T429 268T480 221T550 208Q586 208 615 221T666 266T700 350T712 482ZM1040 524Q1040 250
907 112T530 -26Q294 -26 176 94T58 484Q58 759 191 896T568 1034Q684 1034 771 1006T919 917T1009 759T1040 524Z" />
<glyph unicode="p" glyph-name="p" horiz-adv-x="1088" d="M704 508Q704 649 668 719T570 790Q505 790 426 726V216Q468 200 524 200Q609 200 656 276T704 508ZM1030 548Q1030 400 993 291T888 111T727 8T518 -26Q494 -26 469 -25T426 -20V-346H106V1010H366L390
912Q451 970 520 1002T662 1034Q756 1034 826 996T942 891T1008 736T1030 548Z" />
<glyph unicode="q" glyph-name="q" horiz-adv-x="1088" d="M660 794Q641 801 617 805T564 810Q480 810 432 734T384 502Q384 360 419 290T516 220Q548 220 585 237T660 284V794ZM660 -346V68Q613 28 552 1T424 -26Q330 -26 260 12T146 117T80 273T58 462Q58 611
95 720T204 898T377 1001T608 1034Q695 1034 796 1021T980 988V-346H660Z" />
<glyph unicode="r" glyph-name="r" horiz-adv-x="750" d="M696 734Q665 742 642 745T600 748Q561 748 524 719T426 614V0H106V1010H368L392 864Q462 958 515 995T626 1032Q654 1032 681 1027T734 1008L696 734Z" />
<glyph unicode="s" glyph-name="s" horiz-adv-x="850" d="M812 310Q812 238 783 177T697 71T559 1T376 -24Q289 -24 209 -2T40 68L64 228Q151 212 210 205T316 198Q399 198 435 222T472 286Q472 316 451 336T401 369T310 404T205 450T126 506T67 592T44 716Q44
787 72 846T152 947T276 1011T436 1034Q512 1034 585 1015T744 948L714 790Q645 806 598 812T506 818Q442 818 410 796T378 740Q378 710 400 690T450 657T542 622T649 576T729 520T789 434T812 310Z" />
<glyph unicode="t" glyph-name="t" horiz-adv-x="700" d="M666 48Q591 9 526 -7T396 -24Q249 -24 188 35T126 238V788H18V1010H138Q158 1077 175 1147T212 1306H446V1010H638V788H446V316Q446 258 463 236T518 214Q545 214 575 217T644 230L666 48Z" />
<glyph unicode="u" glyph-name="u" horiz-adv-x="1102" d="M734 0L712 98Q646 39 572 7T414 -26Q249 -26 174 84T98 438Q98 481 102 679T106 1010H428Q428 887 424 706T420 486Q420 403 426 352T445 275T477 240T526 230Q556 230 593 246T674 290V1010H994V0H734Z" />
<glyph unicode="v" glyph-name="v" horiz-adv-x="992" d="M976 1010Q942 743 876 496T710 0H272L12 1010H358L482 502L520 282Q576 500 606 672T646 1010H976Z" />
<glyph unicode="w" glyph-name="w" horiz-adv-x="1558" d="M1534 1010Q1506 742 1446 497T1300 0H912L798 512L774 666H770L756 514L654 0H262L20 1010H362L460 504L488 338H490L514 500L610 1010H986L1104 488L1126 340H1128Q1168 530 1195 690T1226 1010H1534Z" />
<glyph unicode="x" glyph-name="x" horiz-adv-x="980" d="M608 0L468 348Q425 238 395 154T344 0H10L268 526L40 1010H396L510 702Q524 733 540 774T570 860T597 943T616 1010H934L704 556L972 0H608Z" />
<glyph unicode="y" glyph-name="y" horiz-adv-x="988" d="M970 1010Q930 652 849 389T660 -40T433 -282T188 -360Q152 -360 107 -347T18 -310V-128Q42 -132 74 -134T130 -136Q213 -136 254 -104Q298 -69 298 -22Q298 3 290 40T262 136L12 1010H354L486 464Q504
400 512 346T518 250Q572 445 605 642T642 1010H970Z" />
<glyph unicode="z" glyph-name="z" horiz-adv-x="800" d="M750 0H42V202L364 774H56L66 1010H728V810L406 240H758L750 0Z" />
<glyph unicode="{" glyph-name="braceleft" horiz-adv-x="776" d="M522 -346Q443 -346 387 -326T295 -269T243 -177T227 -56V347Q227 375 223 396T208 432T181 455T136 463H73V689H136Q162 689 179 696T207 717T222 753T227 802V1190Q227 1258 244 1311T299 1402T392
1458T526 1478H649V1292H581Q558 1292 542 1287T516 1268T501 1234T495 1185V830Q495 785 488 747T464 676T419 619T349 576Q391 559 419 534T464 477T488 405T495 320V-53Q495 -84 499 -105T513 -138T539 -155T582 -160H649V-346H522Z" />
<glyph unicode="|" glyph-name="bar" horiz-adv-x="510" d="M116 -346V1506H392V-346H116Z" />
<glyph unicode="}" glyph-name="braceright" horiz-adv-x="776" d="M639 463Q613 463 596 456T568 434T553 398T548 350V-58Q548 -127 531 -180T476 -270T383 -326T249 -346H126V-160H194Q216 -160 232 -155T259 -136T274 -102T280 -53V322Q280 367 287 405T311
476T356 533T426 576Q384 592 356 617T311 675T287 747T280 832V1185Q280 1216 276 1237T262 1270T236 1287T193 1292H126V1478H253Q332 1478 388 1458T480 1401T532 1309T548 1188V805Q548 776 552 755T567 719T594 697T639 689H702V463H639Z" />
<glyph unicode="~" glyph-name="asciitilde" horiz-adv-x="1000" d="M959 1171Q959 1093 938 1029T875 920T774 849T639 824Q581 824 540 840T469 879T420 931T386 982T359 1022T331 1038Q317 1038 307 1032T289 1008T279 958T275 874H33V930Q33 1010 54 1074T117
1183T217 1253T350 1278Q408 1278 449 1262T519 1223T569 1172T604 1121T632 1081T661 1065Q676 1065 686 1072T703 1097T712 1147T715 1230H959V1171Z" />
<glyph unicode="&#x8e;" glyph-name="Zcaron" horiz-adv-x="986" d="M52 0V228L518 1088H72L78 1350H914V1124L450 264H936L930 0H52ZM268 1722L504 1630L742 1722L818 1598L502 1426L186 1594L268 1722Z" />
<glyph unicode="&#x9e;" glyph-name="zcaron" horiz-adv-x="800" d="M750 0H42V202L364 774H56L66 1010H728V810L406 240H758L750 0ZM398 1102L100 1344L194 1470L404 1340L618 1470L708 1346L398 1102Z" />
<glyph unicode="&#xa0;" glyph-name="space" horiz-adv-x="480" />
<glyph unicode="&#xa1;" glyph-name="exclamdown" horiz-adv-x="708" d="M468 752L520 -208H131L181 752H468ZM133 998Q133 1043 141 1074T172 1125T231 1152T324 1161Q379 1161 416 1153T474 1125T504 1075T513 998Q513 953 505 923T475 873T416 845T324 836Q267
836 230 844T172 871T142 921T133 998V998Z" />
<glyph unicode="&#xa2;" glyph-name="cent" horiz-adv-x="1000" d="M908 337Q884 318 859 301T805 269T746 242T680 223L656 -12H467L445 205Q362 216 296 246T182 331T110 468T85 664Q85 760 111 839T185 980T299 1081T444 1142L467 1359H656L679 1142Q738 1130
788 1105T885 1036L779 874Q742 900 701 916T615 932Q581 932 546 921T481 882T434 808T416 695Q416 610 433 558T477 476T537 437T604 426Q633 426 660 430T714 444T765 468T817 502L908 337Z" />
<glyph unicode="&#xa3;" glyph-name="sterling" horiz-adv-x="1000" d="M73 0V206Q115 251 143 294T187 382T209 474T210 577H54V784H175Q169 802 164 825T155 874T148 926T145 980Q145 1081 173 1154T256 1275T389 1345T568 1368Q614 1368 661 1362T753 1345T838
1318T913 1282L887 1112Q820 1124 767 1129T672 1135Q612 1135 575 1126T517 1097T488 1048T480 976Q480 951 482 927T489 880T499 832T511 784H800V577H538Q542 522 540 477T528 393T499 319T451 252H938V0H73Z" />
<glyph unicode="&#xa4;" glyph-name="currency" horiz-adv-x="1000" d="M758 8L644 167Q608 154 569 147T483 140Q445 140 413 145T353 159L243 8L38 126L163 264Q133 306 117 367T101 508Q101 591 119 657T175 772L38 924L242 1041L359 884Q392 897 430 903T513
909Q552 909 585 904T648 889L761 1041L965 924L836 781Q868 739 884 681T901 546Q901 462 882 397T825 282L965 126L758 8ZM629 505Q629 579 620 624T594 695T552 728T497 737Q467 737 444 728T403 697T376 638T366 544Q366 470 375 425T403 354T445 320T501 311Q529
311 552 320T593 352T619 411T629 505V505Z" />
<glyph unicode="&#xa5;" glyph-name="yen" horiz-adv-x="1000" d="M902 470H657V344H902V143H657V0H343V143H98V344H343V470H98V671H343V694Q294 770 250 849T166 1009T88 1176T15 1350H362Q379 1291 398 1236T436 1130T477 1032T521 942Q544 982 565 1030T604
1130T640 1238T673 1350H989Q953 1258 914 1170T834 999T749 840T657 694V671H902V470Z" />
<glyph unicode="&#xa6;" glyph-name="brokenbar" horiz-adv-x="510" d="M392 -346H118V405H392V-346ZM118 1512H392V723H118V1512Z" />
<glyph unicode="&#xa7;" glyph-name="section" horiz-adv-x="1016" d="M206 -94Q260 -112 308 -119T397 -127Q433 -127 456 -121T493 -102T511 -72T516 -33Q516 1 496 32T443 95T368 160T282 233T195 317T119 418T66 541T46 692Q46 775 68 858T131 1016T224 1156T340
1268T471 1342T606 1370Q671 1370 734 1349T848 1291L790 1115Q742 1129 695 1136T610 1143Q577 1143 556 1137T523 1118T506 1088T501 1050Q501 1015 521 984T574 921T650 856T736 784T823 699T898 597T951 473T972 320Q972 238 950 156T888 0T795 -139T678 -251T545
-326T405 -353Q368 -353 335 -348T270 -332T207 -305T145 -267L206 -94ZM718 280Q718 333 701 377T656 460T592 532T520 597T449 660T388 724T346 792T335 869Q325 855 319 839T308 806T302 770T299 733Q299 680 316 637T360 556T422 485T494 421T565 359T626 294T669
222T683 138Q691 153 697 169T708 203T715 240T718 280V280Z" />
<glyph unicode="&#xa8;" glyph-name="dieresis" horiz-adv-x="840" d="M364 1262Q364 1188 331 1156T216 1124Q135 1124 102 1155T68 1262Q68 1339 101 1371T216 1404Q299 1404 331 1373T364 1262ZM770 1262Q770 1188 737 1156T624 1124Q542 1124 509 1154T476
1262Q476 1339 509 1371T624 1404Q705 1404 737 1373T770 1262Z" />
<glyph unicode="&#xa9;" glyph-name="copyright" horiz-adv-x="1554" d="M1492 683Q1492 582 1468 491T1398 320T1288 175T1144 64T971 -8T777 -34Q673 -34 580 -10T408 58T265 165T156 305T86 474T61 666Q61 765 85 857T155 1029T265 1173T409 1284T581 1356T776
1382Q880 1382 973 1358T1146 1289T1289 1182T1398 1042T1467 873T1492 683V683ZM1269 674Q1269 787 1231 882T1127 1046T971 1153T777 1192Q673 1192 584 1153T428 1045T323 881T284 674Q284 561 322 467T427 303T583 195T777 156Q879 156 969 195T1125 303T1230
467T1269 674V674ZM1065 381Q1041 359 1011 340T944 306T864 282T770 273Q594 273 507 369T419 665Q419 756 444 832T519 963T637 1050T794 1081Q877 1081 939 1057T1050 983L955 854Q931 872 900 883T834 895Q807 895 784 883T744 844T717 779T707 688Q707 623
715 580T739 510T776 471T824 459Q871 459 910 472T985 511L1065 381Z" />
<glyph unicode="&#xaa;" glyph-name="ordfeminine" horiz-adv-x="918" d="M575 678L560 746Q535 726 509 711T454 685T396 669T334 663Q284 663 240 677T163 719T112 788T93 881Q93 940 117 986T190 1065T311 1115T479 1133H521V1170Q521 1190 515 1204T495 1227T461
1240T411 1244Q363 1244 304 1235T173 1204L141 1360Q185 1377 227 1390T310 1414T393 1428T476 1433Q554 1433 610 1418T704 1373T758 1296T776 1185V678H575ZM521 989H471Q433 989 408 983T366 966T343 939T336 903Q336 886 341 873T356 851T380 837T412 832Q425
832 438 835T465 845T493 858T521 875V989ZM135 395V565H780V395H135Z" />
<glyph unicode="&#xab;" glyph-name="guillemotleft" horiz-adv-x="1022" d="M324 159L48 582L325 1005L536 934L349 582L536 227L324 159ZM725 186L473 582L727 978L932 911L771 582L932 251L725 186Z" />
<glyph unicode="&#xac;" glyph-name="logicalnot" horiz-adv-x="1000" d="M656 222V489H67V713H911V222H656Z" />
<glyph unicode="&#xad;" glyph-name="hyphen" horiz-adv-x="478" d="M44 450V684H476V450H44Z" />
<glyph unicode="&#xae;" glyph-name="registered" horiz-adv-x="1134" d="M1058 973Q1058 869 1021 782T917 630T761 530T564 494Q455 494 366 529T212 627T112 776T76 966Q76 1070 113 1157T217 1309T373 1409T570 1445Q679 1445 768 1410T922 1312T1022 1163T1058
973V973ZM887 970Q887 1038 865 1098T802 1204T701 1275T567 1301Q492 1301 433 1275T333 1204T269 1099T247 970Q247 901 269 841T332 735T433 664T567 638Q641 638 700 664T801 735T865 840T887 970V970ZM611 754L553 919H530V754H387V1203Q442 1203 487 1204T569
1206Q613 1206 648 1197T709 1172T748 1129T762 1067Q762 1025 740 992T686 941L773 754H611ZM530 1010H561Q591 1010 604 1025T618 1060Q618 1085 605 1098T558 1111H530V1010Z" />
<glyph unicode="&#xaf;" glyph-name="macron" horiz-adv-x="720" d="M68 1156V1374H650V1156H68Z" />
<glyph unicode="&#xb0;" glyph-name="degree" horiz-adv-x="902" d="M797 1115Q797 1038 775 981T708 885T600 827T452 807Q364 807 299 824T192 877T130 971T109 1108Q109 1184 132 1242T199 1338T308 1395T457 1415Q544 1415 608 1398T715 1346T777 1253T797
1115V1115ZM565 1113Q565 1147 559 1171T539 1209T505 1230T454 1236Q424 1236 403 1229T368 1208T348 1170T342 1113Q342 1079 348 1055T367 1016T401 994T454 987Q483 987 504 993T538 1015T558 1054T565 1113V1113Z" />
<glyph unicode="&#xb1;" glyph-name="plusminus" horiz-adv-x="1000" d="M75 0V212H923V0H75ZM629 619V307H371V619H75V831H371V1135H629V831H923V619H629Z" />
<glyph unicode="&#xb2;" glyph-name="twosuperior" horiz-adv-x="740" d="M66 693V881Q162 957 223 1012T316 1104T360 1165T372 1211Q372 1229 366 1242T348 1262T320 1273T280 1277Q258 1277 233 1273T184 1264T137 1251T96 1239L60 1397Q103 1413 138 1424T210
1444T289 1458T374 1463Q436 1463 488 1451T581 1413T643 1346T666 1249Q666 1207 654 1170T610 1091T525 1000T386 887H686V693H66Z" />
<glyph unicode="&#xb3;" glyph-name="threesuperior" horiz-adv-x="730" d="M58 859Q87 854 111 851T158 845T207 841T258 839Q296 839 322 844T364 859T387 883T394 915Q394 935 387 949T364 973T319 988T248 993H152V1161H258Q321 1161 348 1178T376 1233Q376
1264 355 1278T284 1293Q267 1293 245 1291T197 1285T147 1274T98 1261L62 1409Q138 1435 212 1449T360 1463Q437 1463 493 1450T586 1410T640 1346T658 1257Q658 1226 650 1199T627 1151T590 1114T540 1089Q575 1081 601 1066T644 1029T669 983T678 927Q678 857
651 808T577 728T467 685T330 671Q256 671 182 685T40 727L58 859Z" />
<glyph unicode="&#xb4;" glyph-name="acute" horiz-adv-x="624" d="M230 1102L68 1184L334 1458L554 1344L230 1102Z" />
<glyph unicode="&#xb5;" glyph-name="mu" horiz-adv-x="1108" d="M737 0L715 99Q691 76 664 56T608 21T550 -3T493 -12Q471 -12 452 -3T422 21Q422 21 422 6T422 -36T423 -95T423 -162T424 -230T425 -289T426 -330T426 -346H107V1009H425V461Q425 391 429 347T446
276T478 240T529 230Q545 230 563 234T599 246T638 265T678 290V1009H998V0H737Z" />
<glyph unicode="&#xb6;" glyph-name="paragraph" horiz-adv-x="1318" d="M919 -210V1157H735V-210H493V536Q402 530 325 555T191 633T103 763T71 937Q71 1032 99 1108T183 1238T320 1321T506 1350H1161V-210H919Z" />
<glyph unicode="&#xb7;" glyph-name="periodcentered" horiz-adv-x="564" d="M460 600Q460 546 453 513T426 461T373 433T284 424Q228 424 194 432T141 460T114 512T106 598Q106 653 113 687T140 741T194 769T286 778Q340 778 373 770T426 741T452 688T460 600Z" />
<glyph unicode="&#xb8;" glyph-name="cedilla" horiz-adv-x="508" d="M432 -84Q450 -175 406 -244T254 -372L68 -306Q141 -243 160 -195T162 -84H432Z" />
<glyph unicode="&#xb9;" glyph-name="onesuperior" horiz-adv-x="698" d="M80 693V877H236V1229L102 1191L68 1343L300 1445H508V877H646V693H80Z" />
<glyph unicode="&#xba;" glyph-name="ordmasculine" horiz-adv-x="870" d="M795 1063Q795 964 767 890T688 766T568 690T418 664Q339 664 275 684T164 749T91 863T65 1034Q65 1133 93 1207T172 1331T291 1406T438 1432Q516 1432 581 1410T694 1343T768 1229T795
1063V1063ZM539 1024Q539 1097 531 1142T508 1211T474 1244T431 1253Q406 1253 386 1244T352 1214T329 1157T320 1069Q320 996 328 952T352 884T387 851T433 843Q455 843 474 851T508 879T530 934T539 1024V1024ZM114 395V565H760V395H114Z" />
<glyph unicode="&#xbb;" glyph-name="guillemotright" horiz-adv-x="1022" d="M697 1005L973 582L696 159L485 230L672 582L485 937L697 1005ZM296 978L548 582L294 186L89 253L250 582L89 912L296 978Z" />
<glyph unicode="&#xbc;" glyph-name="onequarter" horiz-adv-x="1496" d="M80 693V877H236V1229L102 1191L68 1343L300 1445H508V877H646V693H80ZM298 -176L138 -88L1288 1466L1448 1376L298 -176ZM1388 -6V-136H1126V-6H788V168Q809 217 836 273T894 387T957
503T1022 612H1388V178H1464V-6H1388ZM1126 452Q1108 426 1088 392T1047 321T1009 247T978 178H1126V452Z" />
<glyph unicode="&#xbd;" glyph-name="onehalf" horiz-adv-x="1596" d="M80 693V877H236V1229L102 1191L68 1343L300 1445H508V877H646V693H80ZM298 -176L138 -88L1288 1466L1448 1376L298 -176ZM921 -136V52Q1017 128 1078 183T1171 275T1215 336T1227 382Q1227
400 1221 413T1203 433T1175 444T1135 448Q1113 448 1088 444T1039 435T992 422T951 410L915 568Q958 584 993 595T1065 615T1144 629T1229 634Q1291 634 1343 622T1436 584T1498 517T1521 420Q1521 378 1509 341T1465 262T1380 171T1241 58H1541V-136H921Z" />
<glyph unicode="&#xbe;" glyph-name="threequarters" horiz-adv-x="1480" d="M58 859Q87 854 111 851T158 845T207 841T258 839Q296 839 322 844T364 859T387 883T394 915Q394 935 387 949T364 973T319 988T248 993H152V1161H258Q321 1161 348 1178T376 1233Q376
1264 355 1278T284 1293Q267 1293 245 1291T197 1285T147 1274T98 1261L62 1409Q138 1435 212 1449T360 1463Q437 1463 493 1450T586 1410T640 1346T658 1257Q658 1226 650 1199T627 1151T590 1114T540 1089Q575 1081 601 1066T644 1029T669 983T678 927Q678 857
651 808T577 728T467 685T330 671Q256 671 182 685T40 727L58 859ZM281 -176L121 -88L1271 1466L1431 1376L281 -176ZM1370 -6V-136H1108V-6H770V168Q791 217 818 273T876 387T939 503T1004 612H1370V178H1446V-6H1370ZM1108 452Q1090 426 1070 392T1029 321T991
247T960 178H1108V452Z" />
<glyph unicode="&#xbf;" glyph-name="questiondown" horiz-adv-x="1000" d="M87 115Q87 190 108 243T160 336T229 408T300 473T356 547T382 645L387 752H670L677 655Q683 573 669 518T630 423T573 354T514 297T468 235T449 154Q449 128 457 105T483 65T530 37T599
26Q625 26 651 29T705 38T760 53T813 73L905 -120Q859 -147 810 -167T709 -202T604 -224T497 -231Q395 -231 318 -208T190 -141T113 -33T87 115V115ZM339 998Q339 1043 348 1074T378 1125T436 1152T530 1161Q585 1161 621 1153T680 1125T711 1075T720 998Q720 953
711 923T679 873T620 845T527 836Q471 836 435 844T377 871T348 921T339 998V998Z" />
<glyph unicode="&#xc0;" glyph-name="Agrave" horiz-adv-x="1200" d="M726 496Q686 655 648 797T572 1062Q555 999 536 927T498 779T461 632T428 496H726ZM828 0Q818 59 804 130T778 248H376Q365 194 353 128T330 0H10Q83 337 173 673T372 1350H822Q928 1030 1016
704T1190 0H828ZM673 1426L251 1538L393 1722L771 1560L673 1426Z" />
<glyph unicode="&#xc1;" glyph-name="Aacute" horiz-adv-x="1200" d="M726 496Q686 655 648 797T572 1062Q555 999 536 927T498 779T461 632T428 496H726ZM828 0Q818 59 804 130T778 248H376Q365 194 353 128T330 0H10Q83 337 173 673T372 1350H822Q928 1030 1016
704T1190 0H828ZM515 1426L417 1560L795 1722L937 1538L515 1426Z" />
<glyph unicode="&#xc2;" glyph-name="Acircumflex" horiz-adv-x="1200" d="M726 496Q686 655 648 797T572 1062Q555 999 536 927T498 779T461 632T428 496H726ZM828 0Q818 59 804 130T778 248H376Q365 194 353 128T330 0H10Q83 337 173 673T372 1350H822Q928 1030
1016 704T1190 0H828ZM831 1426L593 1520L357 1426L279 1550L597 1722L911 1556L831 1426Z" />
<glyph unicode="&#xc3;" glyph-name="Atilde" horiz-adv-x="1200" d="M726 496Q686 655 648 797T572 1062Q555 999 536 927T498 779T461 632T428 496H726ZM828 0Q818 59 804 130T778 248H376Q365 194 353 128T330 0H10Q83 337 173 673T372 1350H822Q928 1030 1016
704T1190 0H828ZM949 1626Q904 1532 840 1483T687 1434Q642 1434 609 1446T550 1474T502 1506T459 1522Q432 1522 411 1504T357 1436L229 1522Q276 1616 339 1665T491 1714Q536 1714 570 1702T629 1673T678 1640T721 1624Q747 1624 767 1642T823 1712L949 1626Z"
/>
<glyph unicode="&#xc4;" glyph-name="Adieresis" horiz-adv-x="1200" d="M726 496Q686 655 648 797T572 1062Q555 999 536 927T498 779T461 632T428 496H726ZM828 0Q818 59 804 130T778 248H376Q365 194 353 128T330 0H10Q83 337 173 673T372 1350H822Q928 1030
1016 704T1190 0H828ZM954 1568Q954 1499 921 1469T808 1438Q725 1438 693 1466T660 1568Q660 1639 693 1669T808 1700Q888 1700 921 1671T954 1568ZM534 1568Q534 1498 501 1468T388 1438Q306 1438 273 1466T240 1568Q240 1639 274 1669T388 1700Q469 1700 501
1671T534 1568Z" />
<glyph unicode="&#xc5;" glyph-name="Aring" horiz-adv-x="1200" d="M726 496Q686 655 648 797T572 1062Q555 999 536 927T498 779T461 632T428 496H726ZM828 0Q818 59 804 130T778 248H376Q365 194 353 128T330 0H10Q83 337 173 673T372 1350H822Q928 1030 1016
704T1190 0H828ZM666 1550Q666 1616 594 1616Q520 1616 520 1550Q520 1484 594 1484Q666 1484 666 1550ZM844 1554Q844 1472 776 1425T588 1378Q461 1378 401 1420T340 1548Q340 1629 409 1675T598 1722Q725 1722 784 1680T844 1554Z" />
<glyph unicode="&#xc6;" glyph-name="AE" horiz-adv-x="1498" d="M672 0V249H352Q343 224 333 194T313 131T292 65T273 0H-53Q9 178 72 350T202 691T338 1023T480 1350H1408V1096H1008V813H1342V570H1008V257H1416V0H672ZM672 1101H670Q635 1020 603 940T540 783T482
633T432 496H672V1101Z" />
<glyph unicode="&#xc7;" glyph-name="Ccedilla" horiz-adv-x="1028" d="M1010 186Q942 85 831 30T594 -26Q325 -26 195 140T64 648Q64 1001 206 1188T600 1376Q727 1376 827 1321T986 1156L836 1006Q798 1055 751 1081T648 1108Q590 1108 546 1078T473 993T430
861T416 690Q416 565 431 479T477 342T550 267T652 244Q713 244 767 272T874 360L1010 186ZM720 -84Q738 -175 694 -244T542 -372L356 -306Q429 -243 448 -195T450 -84H720Z" />
<glyph unicode="&#xc8;" glyph-name="Egrave" horiz-adv-x="952" d="M126 0V1350H862V1096H462V812H796V570H462V256H870V0H126ZM558 1426L136 1538L278 1722L656 1560L558 1426Z" />
<glyph unicode="&#xc9;" glyph-name="Eacute" horiz-adv-x="952" d="M126 0V1350H862V1096H462V812H796V570H462V256H870V0H126ZM432 1426L334 1560L712 1722L854 1538L432 1426Z" />
<glyph unicode="&#xca;" glyph-name="Ecircumflex" horiz-adv-x="952" d="M126 0V1350H862V1096H462V812H796V570H462V256H870V0H126ZM729 1426L491 1520L255 1426L177 1550L495 1722L809 1556L729 1426Z" />
<glyph unicode="&#xcb;" glyph-name="Edieresis" horiz-adv-x="952" d="M126 0V1350H862V1096H462V812H796V570H462V256H870V0H126ZM850 1568Q850 1499 817 1469T704 1438Q621 1438 589 1466T556 1568Q556 1639 589 1669T704 1700Q784 1700 817 1671T850 1568ZM430
1568Q430 1498 397 1468T284 1438Q202 1438 169 1466T136 1568Q136 1639 170 1669T284 1700Q365 1700 397 1671T430 1568Z" />
<glyph unicode="&#xcc;" glyph-name="Igrave" horiz-adv-x="588" d="M126 0V1350H462V0H126ZM621 1426L199 1538L341 1722L719 1560L621 1426Z" />
<glyph unicode="&#xcd;" glyph-name="Iacute" horiz-adv-x="588" d="M126 0V1350H462V0H126ZM204 1426L106 1560L484 1722L626 1538L204 1426Z" />
<glyph unicode="&#xce;" glyph-name="Icircumflex" horiz-adv-x="588" d="M126 0V1350H462V0H126ZM785 1426L547 1520L311 1426L233 1550L551 1722L865 1556L785 1426Z" />
<glyph unicode="&#xcf;" glyph-name="Idieresis" horiz-adv-x="588" d="M126 0V1350H462V0H126ZM652 1568Q652 1499 619 1469T506 1438Q423 1438 391 1466T358 1568Q358 1639 391 1669T506 1700Q586 1700 619 1671T652 1568ZM232 1568Q232 1498 199 1468T86 1438Q4
1438 -29 1466T-62 1568Q-62 1639 -28 1669T86 1700Q167 1700 199 1671T232 1568Z" />
<glyph unicode="&#xd0;" glyph-name="Eth" horiz-adv-x="1230" d="M146 1350Q264 1350 368 1352T572 1354Q681 1354 767 1333T920 1272T1033 1175T1110 1047T1153 892T1167 715Q1167 542 1128 408T1009 181T805 41T510 -8Q466 -8 421 -7T330 -5T238 -2T146 0V570H51V813H146V1350ZM482
813H646V570H482V250Q501 247 519 247T553 247Q622 247 671 276T752 361T799 498T814 680Q814 756 807 817T786 926T749 1007T699 1063T634 1095T557 1106Q547 1106 538 1106T520 1106T501 1106T482 1104V813Z" />
<glyph unicode="&#xd1;" glyph-name="Ntilde" horiz-adv-x="1300" d="M808 0L492 666Q469 714 450 760T418 844Q401 887 388 926H385Q390 875 393 820Q396 773 398 714T401 596V0H126V1350H529L805 771Q827 723 846 677T880 592Q898 548 911 508H915Q910 559 907
615Q903 663 901 722T899 841V1350H1173V0H808ZM1028 1626Q983 1532 919 1483T766 1434Q721 1434 688 1446T629 1474T581 1506T538 1522Q511 1522 490 1504T436 1436L308 1522Q355 1616 418 1665T570 1714Q615 1714 649 1702T708 1673T757 1640T800 1624Q826 1624
846 1642T902 1712L1028 1626Z" />
<glyph unicode="&#xd2;" glyph-name="Ograve" horiz-adv-x="1286" d="M870 652Q870 792 855 884T809 1028T737 1101T636 1122Q585 1122 546 1103T477 1036T432 906T416 698Q416 558 431 467T477 324T549 251T650 230Q701 230 740 249T809 314T854 444T870 652ZM1222
702Q1222 516 1182 379T1064 151T878 18T630 -26Q486 -26 381 11T205 129T99 338T64 648Q64 834 104 971T222 1199T408 1332T656 1376Q800 1376 905 1339T1081 1221T1187 1012T1222 702ZM654 1426L232 1538L374 1722L752 1560L654 1426Z" />
<glyph unicode="&#xd3;" glyph-name="Oacute" horiz-adv-x="1286" d="M870 652Q870 792 855 884T809 1028T737 1101T636 1122Q585 1122 546 1103T477 1036T432 906T416 698Q416 558 431 467T477 324T549 251T650 230Q701 230 740 249T809 314T854 444T870 652ZM1222
702Q1222 516 1182 379T1064 151T878 18T630 -26Q486 -26 381 11T205 129T99 338T64 648Q64 834 104 971T222 1199T408 1332T656 1376Q800 1376 905 1339T1081 1221T1187 1012T1222 702ZM589 1426L491 1560L869 1722L1011 1538L589 1426Z" />
<glyph unicode="&#xd4;" glyph-name="Ocircumflex" horiz-adv-x="1286" d="M870 652Q870 792 855 884T809 1028T737 1101T636 1122Q585 1122 546 1103T477 1036T432 906T416 698Q416 558 431 467T477 324T549 251T650 230Q701 230 740 249T809 314T854 444T870
652ZM1222 702Q1222 516 1182 379T1064 151T878 18T630 -26Q486 -26 381 11T205 129T99 338T64 648Q64 834 104 971T222 1199T408 1332T656 1376Q800 1376 905 1339T1081 1221T1187 1012T1222 702ZM879 1426L641 1520L405 1426L327 1550L645 1722L959 1556L879
1426Z" />
<glyph unicode="&#xd5;" glyph-name="Otilde" horiz-adv-x="1286" d="M870 652Q870 792 855 884T809 1028T737 1101T636 1122Q585 1122 546 1103T477 1036T432 906T416 698Q416 558 431 467T477 324T549 251T650 230Q701 230 740 249T809 314T854 444T870 652ZM1222
702Q1222 516 1182 379T1064 151T878 18T630 -26Q486 -26 381 11T205 129T99 338T64 648Q64 834 104 971T222 1199T408 1332T656 1376Q800 1376 905 1339T1081 1221T1187 1012T1222 702ZM1003 1626Q958 1532 894 1483T741 1434Q696 1434 663 1446T604 1474T556
1506T513 1522Q486 1522 465 1504T411 1436L283 1522Q330 1616 393 1665T545 1714Q590 1714 624 1702T683 1673T732 1640T775 1624Q801 1624 821 1642T877 1712L1003 1626Z" />
<glyph unicode="&#xd6;" glyph-name="Odieresis" horiz-adv-x="1286" d="M870 652Q870 792 855 884T809 1028T737 1101T636 1122Q585 1122 546 1103T477 1036T432 906T416 698Q416 558 431 467T477 324T549 251T650 230Q701 230 740 249T809 314T854 444T870 652ZM1222
702Q1222 516 1182 379T1064 151T878 18T630 -26Q486 -26 381 11T205 129T99 338T64 648Q64 834 104 971T222 1199T408 1332T656 1376Q800 1376 905 1339T1081 1221T1187 1012T1222 702ZM998 1568Q998 1499 965 1469T852 1438Q769 1438 737 1466T704 1568Q704 1639
737 1669T852 1700Q932 1700 965 1671T998 1568ZM578 1568Q578 1498 545 1468T432 1438Q350 1438 317 1466T284 1568Q284 1639 318 1669T432 1700Q513 1700 545 1671T578 1568Z" />
<glyph unicode="&#xd7;" glyph-name="multiply" horiz-adv-x="1000" d="M918 353L750 184L502 433L253 184L85 352L334 601L86 848L254 1017L502 769L750 1017L918 849L670 601L918 353Z" />
<glyph unicode="&#xd8;" glyph-name="Oslash" horiz-adv-x="1286" d="M1222 702Q1222 576 1204 474T1150 290T1064 150T947 51T801 -7T630 -26Q553 -26 485 -14T359 26L242 -168L76 -79L202 131Q135 209 100 336T64 648Q64 773 82 876T136 1060T223 1200T339 1299T485
1357T656 1376Q735 1376 802 1363T927 1324L1044 1518L1210 1429L1082 1221Q1151 1141 1186 1014T1222 702V702ZM892 650Q892 726 889 785T881 890L502 260Q531 234 568 223T652 212Q686 212 718 220T776 247T823 298T860 378T884 494T892 650V650ZM635 1139Q582
1139 538 1121T462 1054T412 920T394 700Q394 630 398 568T406 464L785 1092Q754 1117 717 1128T635 1139V1139Z" />
<glyph unicode="&#xd9;" glyph-name="Ugrave" horiz-adv-x="1304" d="M1180 482Q1180 345 1140 248T1027 90T853 2T630 -26Q374 -26 249 85T124 448V1350H460V482Q460 336 505 277T652 218Q702 218 738 230T799 270T837 345T850 462V1350H1180V482ZM672 1426L250
1538L392 1722L770 1560L672 1426Z" />
<glyph unicode="&#xda;" glyph-name="Uacute" horiz-adv-x="1304" d="M1180 482Q1180 345 1140 248T1027 90T853 2T630 -26Q374 -26 249 85T124 448V1350H460V482Q460 336 505 277T652 218Q702 218 738 230T799 270T837 345T850 462V1350H1180V482ZM628 1426L530
1560L908 1722L1050 1538L628 1426Z" />
<glyph unicode="&#xdb;" glyph-name="Ucircumflex" horiz-adv-x="1304" d="M1180 482Q1180 345 1140 248T1027 90T853 2T630 -26Q374 -26 249 85T124 448V1350H460V482Q460 336 505 277T652 218Q702 218 738 230T799 270T837 345T850 462V1350H1180V482ZM888 1426L650
1520L414 1426L336 1550L654 1722L968 1556L888 1426Z" />
<glyph unicode="&#xdc;" glyph-name="Udieresis" horiz-adv-x="1304" d="M1180 482Q1180 345 1140 248T1027 90T853 2T630 -26Q374 -26 249 85T124 448V1350H460V482Q460 336 505 277T652 218Q702 218 738 230T799 270T837 345T850 462V1350H1180V482ZM1009 1568Q1009
1499 976 1469T863 1438Q780 1438 748 1466T715 1568Q715 1639 748 1669T863 1700Q943 1700 976 1671T1009 1568ZM589 1568Q589 1498 556 1468T443 1438Q361 1438 328 1466T295 1568Q295 1639 329 1669T443 1700Q524 1700 556 1671T589 1568Z" />
<glyph unicode="&#xdd;" glyph-name="Yacute" horiz-adv-x="988" d="M1002 1350Q924 1101 840 903T660 550V0H324V550Q221 733 139 926T-14 1350H348Q385 1215 426 1094T516 860Q562 963 600 1085T674 1350H1002ZM473 1426L375 1560L753 1722L895 1538L473 1426Z" />
<glyph unicode="&#xde;" glyph-name="Thorn" horiz-adv-x="1114" d="M732 690Q732 801 683 854T524 908H462V468H524Q630 468 681 524T732 690ZM1084 718Q1084 607 1053 518T952 363T771 262T502 226H462V0H126V1350H462V1150Q479 1151 496 1151T531 1152T574
1152Q710 1152 807 1123T966 1037T1055 901T1084 718Z" />
<glyph unicode="&#xdf;" glyph-name="germandbls" horiz-adv-x="1156" d="M1124 318Q1124 248 1104 187T1041 80T934 8T784 -18Q635 -18 514 56L536 212Q581 205 620 201T692 196Q747 196 773 221T800 286Q800 321 781 348T725 404T651 461T583 523T532 606T512
720Q512 769 525 807T559 872T615 935T666 988T695 1032T708 1092Q708 1152 676 1184T578 1216Q495 1216 461 1164T426 996V0H106V986Q106 1206 232 1325T582 1444Q692 1444 773 1422T907 1358T985 1260T1010 1134Q1010 1041 986 987T929 903T864 839T832 764Q832
734 851 709T903 657T979 596T1052 525T1104 436T1124 318Z" />
<glyph unicode="&#xe0;" glyph-name="agrave" horiz-adv-x="1040" d="M620 438H556Q448 438 400 404T352 308Q352 198 464 198Q500 198 542 217T620 266V438ZM690 0L670 94Q604 36 531 5T368 -26Q209 -26 126 49T42 272Q42 437 177 532T568 628H620V684Q620 806
456 806Q383 806 301 790T138 746L98 938Q206 984 314 1009T534 1034Q729 1034 832 950T936 714V0H690ZM503 1102L177 1344L399 1458L663 1184L503 1102Z" />
<glyph unicode="&#xe1;" glyph-name="aacute" horiz-adv-x="1040" d="M620 438H556Q448 438 400 404T352 308Q352 198 464 198Q500 198 542 217T620 266V438ZM690 0L670 94Q604 36 531 5T368 -26Q209 -26 126 49T42 272Q42 437 177 532T568 628H620V684Q620 806
456 806Q383 806 301 790T138 746L98 938Q206 984 314 1009T534 1034Q729 1034 832 950T936 714V0H690ZM525 1102L363 1184L629 1458L849 1344L525 1102Z" />
<glyph unicode="&#xe2;" glyph-name="acircumflex" horiz-adv-x="1040" d="M620 438H556Q448 438 400 404T352 308Q352 198 464 198Q500 198 542 217T620 266V438ZM690 0L670 94Q604 36 531 5T368 -26Q209 -26 126 49T42 272Q42 437 177 532T568 628H620V684Q620
806 456 806Q383 806 301 790T138 746L98 938Q206 984 314 1009T534 1034Q729 1034 832 950T936 714V0H690ZM731 1104L521 1234L309 1104L217 1226L527 1472L825 1230L731 1104Z" />
<glyph unicode="&#xe3;" glyph-name="atilde" horiz-adv-x="1040" d="M620 438H556Q448 438 400 404T352 308Q352 198 464 198Q500 198 542 217T620 266V438ZM690 0L670 94Q604 36 531 5T368 -26Q209 -26 126 49T42 272Q42 437 177 532T568 628H620V684Q620 806
456 806Q383 806 301 790T138 746L98 938Q206 984 314 1009T534 1034Q729 1034 832 950T936 714V0H690ZM852 1320Q808 1225 748 1176T602 1126Q558 1126 526 1138T469 1167T421 1200T380 1216Q355 1216 336 1198T282 1126L160 1214Q206 1310 266 1359T412 1408Q456
1408 488 1396T544 1367T591 1334T634 1318Q659 1318 678 1336T732 1408L852 1320Z" />
<glyph unicode="&#xe4;" glyph-name="adieresis" horiz-adv-x="1040" d="M620 438H556Q448 438 400 404T352 308Q352 198 464 198Q500 198 542 217T620 266V438ZM690 0L670 94Q604 36 531 5T368 -26Q209 -26 126 49T42 272Q42 437 177 532T568 628H620V684Q620
806 456 806Q383 806 301 790T138 746L98 938Q206 984 314 1009T534 1034Q729 1034 832 950T936 714V0H690ZM467 1262Q467 1188 434 1156T319 1124Q238 1124 205 1155T171 1262Q171 1339 204 1371T319 1404Q402 1404 434 1373T467 1262ZM873 1262Q873 1188 840
1156T727 1124Q645 1124 612 1154T579 1262Q579 1339 612 1371T727 1404Q808 1404 840 1373T873 1262Z" />
<glyph unicode="&#xe5;" glyph-name="aring" horiz-adv-x="1040" d="M620 438H556Q448 438 400 404T352 308Q352 198 464 198Q500 198 542 217T620 266V438ZM690 0L670 94Q604 36 531 5T368 -26Q209 -26 126 49T42 272Q42 437 177 532T568 628H620V684Q620 806
456 806Q383 806 301 790T138 746L98 938Q206 984 314 1009T534 1034Q729 1034 832 950T936 714V0H690ZM594 1298Q594 1378 518 1378Q442 1378 442 1298Q442 1218 518 1218Q594 1218 594 1298ZM784 1302Q784 1199 712 1141T514 1082Q379 1082 316 1135T252 1294Q252
1396 324 1455T522 1514Q656 1514 720 1461T784 1302Z" />
<glyph unicode="&#xe6;" glyph-name="ae" horiz-adv-x="1586" d="M1511 91Q1409 38 1295 6T1063 -26Q1003 -26 950 -17T853 11T772 60T710 133Q679 99 643 70T563 20T472 -13T368 -26Q207 -26 125 49T42 272Q42 352 75 418T173 530T338 602T569 628H619V685Q619
715 609 738T579 776T529 799T457 807Q418 807 378 802T296 789T215 770T138 746L99 937Q149 959 201 977T308 1007T419 1026T532 1033Q580 1033 622 1026T700 1006T763 975T811 935Q839 959 868 977T932 1008T1005 1028T1091 1035Q1158 1035 1218 1023T1328 982T1416
907T1480 795T1514 639T1517 434H930V424Q930 370 943 332T981 268T1042 230T1124 217Q1157 217 1197 220T1282 230T1374 247T1469 272L1511 91ZM1210 628V631Q1210 683 1202 720T1177 780T1135 814T1078 825Q1044 825 1019 812T975 773T945 711T932 628H1210ZM556
437Q500 437 461 428T398 402T364 361T353 307Q353 281 360 261T381 227T416 206T463 199Q509 199 550 224T619 287Q619 321 619 359T619 437H556Z" />
<glyph unicode="&#xe7;" glyph-name="ccedilla" horiz-adv-x="842" d="M824 122Q760 58 672 18T472 -22Q58 -22 58 492Q58 609 87 708T174 881T312 994T496 1034Q689 1034 806 908L696 742Q659 771 623 784T546 798Q475 798 433 728T390 514Q390 352 427 284T544
216Q635 216 730 286L824 122ZM597 -84Q615 -175 571 -244T419 -372L233 -306Q306 -243 325 -195T327 -84H597Z" />
<glyph unicode="&#xe8;" glyph-name="egrave" horiz-adv-x="1040" d="M664 632Q664 733 631 778T532 824Q466 824 429 773T386 628H664V632ZM384 434V424Q384 319 433 268T578 216Q645 216 737 230T922 272L964 92Q860 36 746 5T516 -26Q409 -26 326 1T182 87T90
244T58 480Q58 750 186 892T542 1034Q649 1034 731 1004T871 905T955 720T970 434H384ZM519 1102L193 1344L415 1458L679 1184L519 1102Z" />
<glyph unicode="&#xe9;" glyph-name="eacute" horiz-adv-x="1040" d="M664 632Q664 733 631 778T532 824Q466 824 429 773T386 628H664V632ZM384 434V424Q384 319 433 268T578 216Q645 216 737 230T922 272L964 92Q860 36 746 5T516 -26Q409 -26 326 1T182 87T90
244T58 480Q58 750 186 892T542 1034Q649 1034 731 1004T871 905T955 720T970 434H384ZM534 1102L372 1184L638 1458L858 1344L534 1102Z" />
<glyph unicode="&#xea;" glyph-name="ecircumflex" horiz-adv-x="1040" d="M664 632Q664 733 631 778T532 824Q466 824 429 773T386 628H664V632ZM384 434V424Q384 319 433 268T578 216Q645 216 737 230T922 272L964 92Q860 36 746 5T516 -26Q409 -26 326 1T182
87T90 244T58 480Q58 750 186 892T542 1034Q649 1034 731 1004T871 905T955 720T970 434H384ZM744 1104L534 1234L322 1104L230 1226L540 1472L838 1230L744 1104Z" />
<glyph unicode="&#xeb;" glyph-name="edieresis" horiz-adv-x="1040" d="M664 632Q664 733 631 778T532 824Q466 824 429 773T386 628H664V632ZM384 434V424Q384 319 433 268T578 216Q645 216 737 230T922 272L964 92Q860 36 746 5T516 -26Q409 -26 326 1T182
87T90 244T58 480Q58 750 186 892T542 1034Q649 1034 731 1004T871 905T955 720T970 434H384ZM479 1262Q479 1188 446 1156T331 1124Q250 1124 217 1155T183 1262Q183 1339 216 1371T331 1404Q414 1404 446 1373T479 1262ZM885 1262Q885 1188 852 1156T739 1124Q657
1124 624 1154T591 1262Q591 1339 624 1371T739 1404Q820 1404 852 1373T885 1262Z" />
<glyph unicode="&#xec;" glyph-name="igrave" horiz-adv-x="534" d="M107 0V1009H427V0H107ZM553 1102L227 1344L449 1458L713 1184L553 1102Z" />
<glyph unicode="&#xed;" glyph-name="iacute" horiz-adv-x="534" d="M107 0V1009H427V0H107ZM257 1102L95 1184L361 1458L581 1344L257 1102Z" />
<glyph unicode="&#xee;" glyph-name="icircumflex" horiz-adv-x="534" d="M107 0V1009H427V0H107ZM732 1104L522 1234L310 1104L218 1226L528 1472L826 1230L732 1104Z" />
<glyph unicode="&#xef;" glyph-name="idieresis" horiz-adv-x="534" d="M107 0V1009H427V0H107ZM849 1262Q849 1225 842 1199T818 1157T773 1132T705 1124Q664 1124 637 1131T593 1154T569 1197T561 1262Q561 1338 592 1371T705 1404Q745 1404 773 1397T817 1373T841
1329T849 1262ZM487 1262Q487 1225 480 1199T457 1157T413 1132T345 1124Q304 1124 277 1131T233 1154T209 1197T201 1262Q201 1338 232 1371T345 1404Q385 1404 412 1397T456 1373T480 1329T487 1262Z" />
<glyph unicode="&#xf0;" glyph-name="eth" horiz-adv-x="1084" d="M830 1193Q871 1139 907 1075T970 939T1012 787T1028 621Q1028 502 1011 409T963 244T885 122T780 40T653 -8T505 -23Q391 -23 306 9T163 103T76 253T47 457Q47 581 78 684T170 861T322 977T531
1019Q540 1019 550 1018T570 1016T588 1014T601 1011Q593 1024 584 1039T563 1070T540 1102T514 1133L339 1079L218 1223L390 1275Q350 1314 310 1349T222 1418H609Q621 1410 634 1401T659 1380T684 1358T706 1337L865 1385L986 1241L830 1193ZM680 546Q680 622
672 685T652 792Q644 795 634 797T613 800T591 802T568 803Q523 803 490 784T435 727T403 634T392 506Q392 431 402 377T430 289T475 238T539 221Q571 221 597 231T641 276T670 374T680 546V546Z" />
<glyph unicode="&#xf1;" glyph-name="ntilde" horiz-adv-x="1102" d="M1002 572Q1002 529 998 331T994 0H674Q674 123 678 303T682 522Q682 605 676 656T657 734T625 770T576 780Q544 780 507 765T426 720V0H106V1010H368L390 910Q453 970 528 1002T688 1034Q852
1034 927 925T1002 572ZM903 1320Q859 1225 799 1176T653 1126Q609 1126 577 1138T520 1167T472 1200T431 1216Q406 1216 387 1198T333 1126L211 1214Q257 1310 317 1359T463 1408Q507 1408 539 1396T595 1367T642 1334T685 1318Q710 1318 729 1336T783 1408L903
1320Z" />
<glyph unicode="&#xf2;" glyph-name="ograve" horiz-adv-x="1098" d="M712 482Q712 580 701 643T668 741T617 789T548 802Q511 802 482 789T431 744T398 659T386 528Q386 429 397 366T429 268T480 221T550 208Q586 208 615 221T666 266T700 350T712 482ZM1040
524Q1040 250 907 112T530 -26Q294 -26 176 94T58 484Q58 759 191 896T568 1034Q684 1034 771 1006T919 917T1009 759T1040 524ZM536 1102L210 1344L432 1458L696 1184L536 1102Z" />
<glyph unicode="&#xf3;" glyph-name="oacute" horiz-adv-x="1098" d="M712 482Q712 580 701 643T668 741T617 789T548 802Q511 802 482 789T431 744T398 659T386 528Q386 429 397 366T429 268T480 221T550 208Q586 208 615 221T666 266T700 350T712 482ZM1040
524Q1040 250 907 112T530 -26Q294 -26 176 94T58 484Q58 759 191 896T568 1034Q684 1034 771 1006T919 917T1009 759T1040 524ZM540 1102L378 1184L644 1458L864 1344L540 1102Z" />
<glyph unicode="&#xf4;" glyph-name="ocircumflex" horiz-adv-x="1098" d="M712 482Q712 580 701 643T668 741T617 789T548 802Q511 802 482 789T431 744T398 659T386 528Q386 429 397 366T429 268T480 221T550 208Q586 208 615 221T666 266T700 350T712 482ZM1040
524Q1040 250 907 112T530 -26Q294 -26 176 94T58 484Q58 759 191 896T568 1034Q684 1034 771 1006T919 917T1009 759T1040 524ZM763 1104L553 1234L341 1104L249 1226L559 1472L857 1230L763 1104Z" />
<glyph unicode="&#xf5;" glyph-name="otilde" horiz-adv-x="1098" d="M712 482Q712 580 701 643T668 741T617 789T548 802Q511 802 482 789T431 744T398 659T386 528Q386 429 397 366T429 268T480 221T550 208Q586 208 615 221T666 266T700 350T712 482ZM1040
524Q1040 250 907 112T530 -26Q294 -26 176 94T58 484Q58 759 191 896T568 1034Q684 1034 771 1006T919 917T1009 759T1040 524ZM897 1320Q853 1225 793 1176T647 1126Q603 1126 571 1138T514 1167T466 1200T425 1216Q400 1216 381 1198T327 1126L205 1214Q251
1310 311 1359T457 1408Q501 1408 533 1396T589 1367T636 1334T679 1318Q704 1318 723 1336T777 1408L897 1320Z" />
<glyph unicode="&#xf6;" glyph-name="odieresis" horiz-adv-x="1098" d="M712 482Q712 580 701 643T668 741T617 789T548 802Q511 802 482 789T431 744T398 659T386 528Q386 429 397 366T429 268T480 221T550 208Q586 208 615 221T666 266T700 350T712 482ZM1040
524Q1040 250 907 112T530 -26Q294 -26 176 94T58 484Q58 759 191 896T568 1034Q684 1034 771 1006T919 917T1009 759T1040 524ZM499 1262Q499 1188 466 1156T351 1124Q270 1124 237 1155T203 1262Q203 1339 236 1371T351 1404Q434 1404 466 1373T499 1262ZM905
1262Q905 1188 872 1156T759 1124Q677 1124 644 1154T611 1262Q611 1339 644 1371T759 1404Q840 1404 872 1373T905 1262Z" />
<glyph unicode="&#xf7;" glyph-name="divide" horiz-adv-x="1000" d="M664 215Q664 170 658 141T633 93T583 68T501 60Q449 60 417 67T367 93T342 140T335 214Q335 260 341 290T366 339T417 364T502 372Q551 372 583 365T633 339T657 291T664 215V215ZM68 489V713H931V489H68ZM664
984Q664 939 658 910T633 863T583 838T502 830Q450 830 418 837T367 863T342 910T335 985Q335 1031 341 1061T366 1109T417 1134T501 1142Q551 1142 582 1135T632 1109T657 1061T664 984V984Z" />
<glyph unicode="&#xf8;" glyph-name="oslash" horiz-adv-x="1098" d="M919 918Q980 856 1010 758T1040 525Q1040 431 1024 354T979 216T905 110T804 34T679 -11T531 -26Q479 -26 432 -19T342 1L238 -165L72 -76L177 93Q119 153 89 247T58 485Q58 577 73 654T119
793T193 899T293 975T418 1020T567 1035Q621 1035 670 1029T755 1008L860 1174L1026 1087L919 918ZM469 205Q482 197 505 193T550 189Q589 189 623 202T683 249T723 338T738 480Q738 530 737 567T734 636L469 205ZM629 804Q614 812 593 816T548 820Q508 820 474
807T414 760T375 670T360 530Q360 481 361 444T364 373L629 804Z" />
<glyph unicode="&#xf9;" glyph-name="ugrave" horiz-adv-x="1102" d="M734 0L712 98Q646 39 572 7T414 -26Q249 -26 174 84T98 438Q98 481 102 679T106 1010H428Q428 887 424 706T420 486Q420 403 426 352T445 275T477 240T526 230Q556 230 593 246T674 290V1010H994V0H734ZM556
1102L230 1344L452 1458L716 1184L556 1102Z" />
<glyph unicode="&#xfa;" glyph-name="uacute" horiz-adv-x="1102" d="M734 0L712 98Q646 39 572 7T414 -26Q249 -26 174 84T98 438Q98 481 102 679T106 1010H428Q428 887 424 706T420 486Q420 403 426 352T445 275T477 240T526 230Q556 230 593 246T674 290V1010H994V0H734ZM546
1102L384 1184L650 1458L870 1344L546 1102Z" />
<glyph unicode="&#xfb;" glyph-name="ucircumflex" horiz-adv-x="1102" d="M734 0L712 98Q646 39 572 7T414 -26Q249 -26 174 84T98 438Q98 481 102 679T106 1010H428Q428 887 424 706T420 486Q420 403 426 352T445 275T477 240T526 230Q556 230 593 246T674 290V1010H994V0H734ZM762
1104L552 1234L340 1104L248 1226L558 1472L856 1230L762 1104Z" />
<glyph unicode="&#xfc;" glyph-name="udieresis" horiz-adv-x="1102" d="M734 0L712 98Q646 39 572 7T414 -26Q249 -26 174 84T98 438Q98 481 102 679T106 1010H428Q428 887 424 706T420 486Q420 403 426 352T445 275T477 240T526 230Q556 230 593 246T674 290V1010H994V0H734ZM495
1262Q495 1188 462 1156T347 1124Q266 1124 233 1155T199 1262Q199 1339 232 1371T347 1404Q430 1404 462 1373T495 1262ZM901 1262Q901 1188 868 1156T755 1124Q673 1124 640 1154T607 1262Q607 1339 640 1371T755 1404Q836 1404 868 1373T901 1262Z" />
<glyph unicode="&#xfd;" glyph-name="yacute" horiz-adv-x="988" d="M970 1010Q930 652 849 389T660 -40T433 -282T188 -360Q152 -360 107 -347T18 -310V-128Q42 -132 74 -134T130 -136Q213 -136 254 -104Q298 -69 298 -22Q298 3 290 40T262 136L12 1010H354L486
464Q504 400 512 346T518 250Q572 445 605 642T642 1010H970ZM518 1102L356 1184L622 1458L842 1344L518 1102Z" />
<glyph unicode="&#xfe;" glyph-name="thorn" horiz-adv-x="1088" d="M107 -346V1418H427V941Q449 960 475 976T532 1006T595 1027T663 1035Q759 1035 828 995T942 888T1008 733T1030 547Q1030 395 992 287T887 109T725 7T519 -26Q507 -26 494 -26T468 -24T445
-23T427 -20V-346H107ZM427 216Q435 212 445 209T468 204T494 201T523 200Q564 200 597 218T653 273T690 368T704 507Q704 580 695 633T668 721T625 773T570 790Q540 790 503 773T427 719V216Z" />
<glyph unicode="&#xff;" glyph-name="ydieresis" horiz-adv-x="988" d="M970 1010Q930 652 849 389T660 -40T433 -282T188 -360Q152 -360 107 -347T18 -310V-128Q42 -132 74 -134T130 -136Q213 -136 254 -104Q298 -69 298 -22Q298 3 290 40T262 136L12 1010H354L486
464Q504 400 512 346T518 250Q572 445 605 642T642 1010H970ZM444 1262Q444 1188 411 1156T296 1124Q215 1124 182 1155T148 1262Q148 1339 181 1371T296 1404Q379 1404 411 1373T444 1262ZM850 1262Q850 1188 817 1156T704 1124Q622 1124 589 1154T556 1262Q556
1339 589 1371T704 1404Q785 1404 817 1373T850 1262Z" />
<glyph unicode="&#x100;" glyph-name="Amacron" horiz-adv-x="1200" d="M726 496Q686 655 648 797T572 1062Q555 999 536 927T498 779T461 632T428 496H726ZM828 0Q818 59 804 130T778 248H376Q365 194 353 128T330 0H10Q83 337 173 673T372 1350H822Q928 1030
1016 704T1190 0H828ZM305 1472V1676H893V1472H305Z" />
<glyph unicode="&#x101;" glyph-name="amacron" horiz-adv-x="1040" d="M620 438H556Q448 438 400 404T352 308Q352 198 464 198Q500 198 542 217T620 266V438ZM690 0L670 94Q604 36 531 5T368 -26Q209 -26 126 49T42 272Q42 437 177 532T568 628H620V684Q620
806 456 806Q383 806 301 790T138 746L98 938Q206 984 314 1009T534 1034Q729 1034 832 950T936 714V0H690ZM229 1156V1374H811V1156H229Z" />
<glyph unicode="&#x102;" glyph-name="Abreve" horiz-adv-x="1200" d="M726 496Q686 655 648 797T572 1062Q555 999 536 927T498 779T461 632T428 496H726ZM828 0Q818 59 804 130T778 248H376Q365 194 353 128T330 0H10Q83 337 173 673T372 1350H822Q928 1030
1016 704T1190 0H828ZM904 1736Q904 1586 822 1502T596 1418Q450 1418 370 1499T290 1736H480Q480 1680 509 1649T596 1618Q655 1618 685 1650T716 1736H904Z" />
<glyph unicode="&#x103;" glyph-name="abreve" horiz-adv-x="1040" d="M620 438H556Q448 438 400 404T352 308Q352 198 464 198Q500 198 542 217T620 266V438ZM690 0L670 94Q604 36 531 5T368 -26Q209 -26 126 49T42 272Q42 437 177 532T568 628H620V684Q620 806
456 806Q383 806 301 790T138 746L98 938Q206 984 314 1009T534 1034Q729 1034 832 950T936 714V0H690ZM834 1452Q834 1280 751 1190T520 1100Q371 1100 291 1187T210 1452H404Q403 1373 430 1342T520 1310Q582 1310 611 1342T640 1452H834Z" />
<glyph unicode="&#x104;" glyph-name="Aogonek" horiz-adv-x="1200" d="M1148 -316Q1123 -329 1096 -339T1041 -356T986 -366T936 -370Q882 -370 842 -360T776 -331T736 -283T722 -216Q722 -187 729 -159T751 -103T785 -49T829 0Q824 26 818 58T804 124T791 190T778
249H377Q365 198 353 132T329 0H10Q47 174 89 345T177 686T271 1020T373 1350H822Q879 1180 928 1014T1022 680T1108 343T1189 0Q1124 -6 1082 -23T1015 -63T982 -111T973 -156Q973 -176 985 -189T1029 -202Q1048 -202 1069 -196T1108 -181L1148 -316ZM726 496Q709
564 691 636T653 781T613 924T573 1063Q555 999 536 927T498 781T461 634T428 496H726Z" />
<glyph unicode="&#x105;" glyph-name="aogonek" horiz-adv-x="1040" d="M989 -316Q964 -329 937 -339T882 -356T828 -366T777 -370Q724 -370 684 -360T617 -331T577 -283T564 -216Q564 -158 595 -98T687 14L670 95Q639 67 606 45T536 7T458 -17T368 -26Q207 -26
125 49T42 272Q42 352 75 418T173 530T338 602T569 628H619V685Q619 715 609 738T579 776T529 799T457 807Q418 807 378 802T296 789T215 770T138 746L99 937Q149 959 201 977T308 1007T419 1026T534 1033Q633 1033 708 1011T834 948T910 848T936 714V0Q880 -32
848 -71T815 -156Q815 -176 827 -189T870 -202Q889 -202 911 -196T950 -181L989 -316ZM619 437H556Q499 437 461 428T398 402T364 361T353 307Q353 281 360 261T381 227T416 206T463 199Q502 199 543 217T619 267V437Z" />
<glyph unicode="&#x106;" glyph-name="Cacute" horiz-adv-x="1028" d="M1010 186Q942 85 831 30T594 -26Q325 -26 195 140T64 648Q64 1001 206 1188T600 1376Q727 1376 827 1321T986 1156L836 1006Q798 1055 751 1081T648 1108Q590 1108 546 1078T473 993T430
861T416 690Q416 565 431 479T477 342T550 267T652 244Q713 244 767 272T874 360L1010 186ZM545 1426L447 1560L825 1722L967 1538L545 1426Z" />
<glyph unicode="&#x107;" glyph-name="cacute" horiz-adv-x="842" d="M824 122Q760 58 672 18T472 -22Q58 -22 58 492Q58 609 87 708T174 881T312 994T496 1034Q689 1034 806 908L696 742Q659 771 623 784T546 798Q475 798 433 728T390 514Q390 352 427 284T544
216Q635 216 730 286L824 122ZM524 1102L362 1184L628 1458L848 1344L524 1102Z" />
<glyph unicode="&#x108;" glyph-name="Ccircumflex" horiz-adv-x="1028" d="M1010 186Q942 85 831 30T594 -26Q325 -26 195 140T64 648Q64 1001 206 1188T600 1376Q727 1376 827 1321T986 1156L836 1006Q798 1055 751 1081T648 1108Q590 1108 546 1078T473 993T430
861T416 690Q416 565 431 479T477 342T550 267T652 244Q713 244 767 272T874 360L1010 186ZM830 1426L592 1520L356 1426L278 1550L596 1722L910 1556L830 1426Z" />
<glyph unicode="&#x109;" glyph-name="ccircumflex" horiz-adv-x="842" d="M824 122Q760 58 672 18T472 -22Q58 -22 58 492Q58 609 87 708T174 881T312 994T496 1034Q689 1034 806 908L696 742Q659 771 623 784T546 798Q475 798 433 728T390 514Q390 352 427 284T544
216Q635 216 730 286L824 122ZM700 1104L490 1234L278 1104L186 1226L496 1472L794 1230L700 1104Z" />
<glyph unicode="&#x10a;" glyph-name="Cdotaccent" horiz-adv-x="1028" d="M1010 186Q942 85 831 30T594 -26Q325 -26 195 140T64 648Q64 1001 206 1188T600 1376Q727 1376 827 1321T986 1156L836 1006Q798 1055 751 1081T648 1108Q590 1108 546 1078T473 993T430
861T416 690Q416 565 431 479T477 342T550 267T652 244Q713 244 767 272T874 360L1010 186ZM762 1585Q762 1509 724 1478T588 1447Q536 1447 504 1454T452 1476T426 1518T418 1585Q418 1662 455 1691T590 1721Q642 1721 674 1715T726 1693T753 1652T762 1585Z"
/>
<glyph unicode="&#x10b;" glyph-name="cdotaccent" horiz-adv-x="842" d="M824 122Q760 58 672 18T472 -22Q58 -22 58 492Q58 609 87 708T174 881T312 994T496 1034Q689 1034 806 908L696 742Q659 771 623 784T546 798Q475 798 433 728T390 514Q390 352 427 284T544
216Q635 216 730 286L824 122ZM670 1277Q670 1190 631 1157T484 1123Q426 1123 390 1131T332 1156T303 1203T294 1277Q294 1363 334 1397T484 1431Q541 1431 577 1423T633 1398T661 1351T670 1277Z" />
<glyph unicode="&#x10c;" glyph-name="Ccaron" horiz-adv-x="1028" d="M1010 186Q942 85 831 30T594 -26Q325 -26 195 140T64 648Q64 1001 206 1188T600 1376Q727 1376 827 1321T986 1156L836 1006Q798 1055 751 1081T648 1108Q590 1108 546 1078T473 993T430
861T416 690Q416 565 431 479T477 342T550 267T652 244Q713 244 767 272T874 360L1010 186ZM364 1722L600 1630L838 1722L914 1598L598 1426L282 1594L364 1722Z" />
<glyph unicode="&#x10d;" glyph-name="ccaron" horiz-adv-x="842" d="M824 122Q760 58 672 18T472 -22Q58 -22 58 492Q58 609 87 708T174 881T312 994T496 1034Q689 1034 806 908L696 742Q659 771 623 784T546 798Q475 798 433 728T390 514Q390 352 427 284T544
216Q635 216 730 286L824 122ZM479 1102L181 1344L275 1470L485 1340L699 1470L789 1346L479 1102Z" />
<glyph unicode="&#x10e;" glyph-name="Dcaron" horiz-adv-x="1210" d="M794 680Q794 904 730 1005T536 1106Q512 1106 496 1106T462 1104V250Q490 248 505 247T534 246Q668 246 731 357T794 680ZM1146 714Q1146 363 985 178T490 -8Q423 -8 296 -5T126 0V1350Q207
1350 348 1352T552 1354Q712 1354 826 1308T1010 1178T1113 977T1146 714ZM339 1722L575 1630L813 1722L889 1598L573 1426L257 1594L339 1722Z" />
<glyph unicode="&#x10f;" glyph-name="dcaron" horiz-adv-x="1252" d="M660 794Q636 801 613 805T562 810Q478 810 431 734T384 502Q384 358 419 289T518 220Q581 220 660 284V794ZM720 0L698 96Q634 38 565 6T422 -26Q329 -26 260 12T146 117T80 273T58 462Q58
611 95 720T200 899T360 1001T566 1034Q592 1034 619 1033T660 1030V1418H980V0H720ZM1185 1100L1029 1126L1095 1526L1313 1484L1185 1100Z" />
<glyph unicode="&#x110;" glyph-name="Dcroat" horiz-adv-x="1230" d="M146 1350Q264 1350 368 1352T572 1354Q681 1354 767 1333T920 1272T1033 1175T1110 1047T1153 892T1167 715Q1167 542 1128 408T1009 181T805 41T510 -8Q466 -8 421 -7T330 -5T238 -2T146
0V570H51V813H146V1350ZM482 813H646V570H482V250Q501 247 519 247T553 247Q622 247 671 276T752 361T799 498T814 680Q814 756 807 817T786 926T749 1007T699 1063T634 1095T557 1106Q547 1106 538 1106T520 1106T501 1106T482 1104V813Z" />
<glyph unicode="&#x111;" glyph-name="dcroat" horiz-adv-x="1088" d="M981 0H720L697 97Q668 69 636 47T569 8T498 -17T423 -26Q326 -26 257 13T144 120T79 275T58 462Q58 614 96 723T201 901T362 1002T565 1035Q593 1035 619 1033T661 1029V1112H493V1283H661V1418H981V1283H1096V1112H981V0ZM661
793Q641 801 617 805T563 810Q522 810 489 792T433 736T397 640T384 502Q384 427 393 374T420 286T462 235T517 219Q547 219 584 235T661 283V793Z" />
<glyph unicode="&#x112;" glyph-name="Emacron" horiz-adv-x="952" d="M126 0V1350H862V1096H462V812H796V570H462V256H870V0H126ZM198 1472V1676H786V1472H198Z" />
<glyph unicode="&#x113;" glyph-name="emacron" horiz-adv-x="1040" d="M664 632Q664 733 631 778T532 824Q466 824 429 773T386 628H664V632ZM384 434V424Q384 319 433 268T578 216Q645 216 737 230T922 272L964 92Q860 36 746 5T516 -26Q409 -26 326 1T182 87T90
244T58 480Q58 750 186 892T542 1034Q649 1034 731 1004T871 905T955 720T970 434H384ZM236 1156V1374H818V1156H236Z" />
<glyph unicode="&#x114;" glyph-name="Ebreve" horiz-adv-x="952" d="M126 0V1350H862V1096H462V812H796V570H462V256H870V0H126ZM795 1736Q795 1586 713 1502T487 1418Q341 1418 261 1499T181 1736H371Q371 1680 400 1649T487 1618Q546 1618 576 1650T607 1736H795Z" />
<glyph unicode="&#x115;" glyph-name="ebreve" horiz-adv-x="1040" d="M664 632Q664 733 631 778T532 824Q466 824 429 773T386 628H664V632ZM384 434V424Q384 319 433 268T578 216Q645 216 737 230T922 272L964 92Q860 36 746 5T516 -26Q409 -26 326 1T182 87T90
244T58 480Q58 750 186 892T542 1034Q649 1034 731 1004T871 905T955 720T970 434H384ZM841 1452Q841 1280 758 1190T527 1100Q378 1100 298 1187T217 1452H411Q410 1373 437 1342T527 1310Q589 1310 618 1342T647 1452H841Z" />
<glyph unicode="&#x116;" glyph-name="Edotaccent" horiz-adv-x="952" d="M126 0V1350H862V1096H462V812H796V570H462V256H870V0H126ZM669 1576Q669 1500 631 1469T495 1438Q443 1438 411 1445T359 1467T333 1509T325 1576Q325 1653 362 1682T497 1712Q549 1712
581 1706T633 1684T660 1643T669 1576Z" />
<glyph unicode="&#x117;" glyph-name="edotaccent" horiz-adv-x="1040" d="M664 632Q664 733 631 778T532 824Q466 824 429 773T386 628H664V632ZM384 434V424Q384 319 433 268T578 216Q645 216 737 230T922 272L964 92Q860 36 746 5T516 -26Q409 -26 326 1T182
87T90 244T58 480Q58 750 186 892T542 1034Q649 1034 731 1004T871 905T955 720T970 434H384ZM717 1277Q717 1190 678 1157T531 1123Q473 1123 437 1131T379 1156T350 1203T341 1277Q341 1363 381 1397T531 1431Q588 1431 624 1423T680 1398T708 1351T717 1277Z"
/>
<glyph unicode="&#x118;" glyph-name="Eogonek" horiz-adv-x="952" d="M871 0Q835 -14 809 -31T766 -70T741 -112T733 -156Q733 -176 745 -189T788 -202Q807 -202 829 -196T868 -181L907 -316Q882 -329 855 -339T800 -356T746 -366T695 -370Q642 -370 602 -360T535
-331T495 -283T482 -216Q482 -187 489 -159T511 -103T545 -49T589 0H126V1350H863V1096H462V813H796V570H462V257H871V0Z" />
<glyph unicode="&#x119;" glyph-name="eogonek" horiz-adv-x="1040" d="M965 91Q934 67 904 36T849 -29T809 -96T793 -156Q793 -176 805 -189T849 -202Q868 -202 890 -196T928 -181L968 -316Q943 -329 916 -339T861 -356T806 -366T756 -370Q703 -370 663 -360T596
-331T556 -283T542 -216Q542 -163 567 -111T641 -13Q612 -19 580 -22T517 -26Q413 -26 329 0T184 85T91 241T58 480Q58 617 92 721T188 894T340 999T542 1035Q610 1035 670 1023T781 982T870 907T934 795T968 639T971 434H384V424Q384 370 397 332T434 268T495
230T577 217Q610 217 651 220T736 230T828 247T923 272L965 91ZM664 628V631Q664 683 656 720T630 780T589 814T531 825Q498 825 472 811T428 772T399 710T385 628H664Z" />
<glyph unicode="&#x11a;" glyph-name="Ecaron" horiz-adv-x="952" d="M126 0V1350H862V1096H462V812H796V570H462V256H870V0H126ZM253 1722L489 1630L727 1722L803 1598L487 1426L171 1594L253 1722Z" />
<glyph unicode="&#x11b;" glyph-name="ecaron" horiz-adv-x="1040" d="M664 632Q664 733 631 778T532 824Q466 824 429 773T386 628H664V632ZM384 434V424Q384 319 433 268T578 216Q645 216 737 230T922 272L964 92Q860 36 746 5T516 -26Q409 -26 326 1T182 87T90
244T58 480Q58 750 186 892T542 1034Q649 1034 731 1004T871 905T955 720T970 434H384ZM527 1102L229 1344L323 1470L533 1340L747 1470L837 1346L527 1102Z" />
<glyph unicode="&#x11c;" glyph-name="Gcircumflex" horiz-adv-x="1156" d="M1060 138Q964 61 840 18T566 -26Q315 -26 190 143T64 642Q64 824 105 962T223 1193T408 1330T650 1376Q780 1376 884 1315T1054 1148L906 1014Q839 1066 783 1089T664 1112Q541 1112
478 1012T414 694Q414 569 427 482T467 341T531 264T618 240Q651 240 680 248T730 270V560H592V802H1060V138ZM871 1426L633 1520L397 1426L319 1550L637 1722L951 1556L871 1426Z" />
<glyph unicode="&#x11d;" glyph-name="gcircumflex" horiz-adv-x="1088" d="M660 792Q639 800 614 805T562 810Q480 810 432 737T384 520Q384 381 419 314T518 246Q549 246 587 263T660 310V792ZM980 42Q980 -77 945 -157T847 -284T703 -350T524 -370Q439 -370
346 -347T140 -274L162 -100Q260 -116 341 -125T488 -134Q580 -134 620 -105T660 0V100Q604 58 546 33T422 8Q331 8 262 45T148 147T80 298T58 480Q58 621 96 726T205 900T377 1001T602 1034Q690 1034 792 1021T980 988V42ZM753 1104L543 1234L331 1104L239 1226L549
1472L847 1230L753 1104Z" />
<glyph unicode="&#x11e;" glyph-name="Gbreve" horiz-adv-x="1156" d="M1060 138Q964 61 840 18T566 -26Q315 -26 190 143T64 642Q64 824 105 962T223 1193T408 1330T650 1376Q780 1376 884 1315T1054 1148L906 1014Q839 1066 783 1089T664 1112Q541 1112 478
1012T414 694Q414 569 427 482T467 341T531 264T618 240Q651 240 680 248T730 270V560H592V802H1060V138ZM909 1736Q909 1586 827 1502T601 1418Q455 1418 375 1499T295 1736H485Q485 1680 514 1649T601 1618Q660 1618 690 1650T721 1736H909Z" />
<glyph unicode="&#x11f;" glyph-name="gbreve" horiz-adv-x="1088" d="M660 792Q639 800 614 805T562 810Q480 810 432 737T384 520Q384 381 419 314T518 246Q549 246 587 263T660 310V792ZM980 42Q980 -77 945 -157T847 -284T703 -350T524 -370Q439 -370 346
-347T140 -274L162 -100Q260 -116 341 -125T488 -134Q580 -134 620 -105T660 0V100Q604 58 546 33T422 8Q331 8 262 45T148 147T80 298T58 480Q58 621 96 726T205 900T377 1001T602 1034Q690 1034 792 1021T980 988V42ZM878 1452Q878 1280 795 1190T564 1100Q415
1100 335 1187T254 1452H448Q447 1373 474 1342T564 1310Q626 1310 655 1342T684 1452H878Z" />
<glyph unicode="&#x120;" glyph-name="Gdotaccent" horiz-adv-x="1156" d="M1060 138Q964 61 840 18T566 -26Q315 -26 190 143T64 642Q64 824 105 962T223 1193T408 1330T650 1376Q780 1376 884 1315T1054 1148L906 1014Q839 1066 783 1089T664 1112Q541 1112
478 1012T414 694Q414 569 427 482T467 341T531 264T618 240Q651 240 680 248T730 270V560H592V802H1060V138ZM796 1585Q796 1509 758 1478T622 1447Q570 1447 538 1454T486 1476T460 1518T452 1585Q452 1662 489 1691T624 1721Q676 1721 708 1715T760 1693T787
1652T796 1585Z" />
<glyph unicode="&#x121;" glyph-name="gdotaccent" horiz-adv-x="1088" d="M660 792Q639 800 614 805T562 810Q480 810 432 737T384 520Q384 381 419 314T518 246Q549 246 587 263T660 310V792ZM980 42Q980 -77 945 -157T847 -284T703 -350T524 -370Q439 -370
346 -347T140 -274L162 -100Q260 -116 341 -125T488 -134Q580 -134 620 -105T660 0V100Q604 58 546 33T422 8Q331 8 262 45T148 147T80 298T58 480Q58 621 96 726T205 900T377 1001T602 1034Q690 1034 792 1021T980 988V42ZM730 1277Q730 1190 691 1157T544 1123Q486
1123 450 1131T392 1156T363 1203T354 1277Q354 1363 394 1397T544 1431Q601 1431 637 1423T693 1398T721 1351T730 1277Z" />
<glyph unicode="&#x122;" glyph-name="Gcommaaccent" horiz-adv-x="1156" d="M1060 138Q964 61 840 18T566 -26Q315 -26 190 143T64 642Q64 824 105 962T223 1193T408 1330T650 1376Q780 1376 884 1315T1054 1148L906 1014Q839 1066 783 1089T664 1112Q541 1112
478 1012T414 694Q414 569 427 482T467 341T531 264T618 240Q651 240 680 248T730 270V560H592V802H1060V138ZM606 -62Q663 -62 696 -94T730 -180Q730 -218 717 -248T677 -301T611 -339T519 -360T402 -366L368 -266Q488 -248 488 -200Q488 -194 483 -182T478 -152Q478
-114 512 -88T606 -62Z" />
<glyph unicode="&#x123;" glyph-name="gcommaaccent" horiz-adv-x="1088" d="M660 792Q639 800 614 805T562 810Q480 810 432 737T384 520Q384 381 419 314T518 246Q549 246 587 263T660 310V792ZM980 42Q980 -77 945 -157T847 -284T703 -350T524 -370Q439 -370
346 -347T140 -274L162 -100Q260 -116 341 -125T488 -134Q580 -134 620 -105T660 0V100Q604 58 546 33T422 8Q331 8 262 45T148 147T80 298T58 480Q58 621 96 726T205 900T377 1001T602 1034Q690 1034 792 1021T980 988V42ZM607 1118Q550 1118 517 1150T483 1240Q483
1289 504 1327T567 1390T673 1428T821 1436L853 1334Q791 1327 758 1307T725 1260Q725 1255 726 1253T729 1243T733 1228T735 1210Q735 1171 701 1145T607 1118Z" />
<glyph unicode="&#x124;" glyph-name="Hcircumflex" horiz-adv-x="1316" d="M854 0V562H462V0H126V1350H462V842H854V1350H1190V0H854ZM893 1426L655 1520L419 1426L341 1550L659 1722L973 1556L893 1426Z" />
<glyph unicode="&#x125;" glyph-name="hcircumflex" horiz-adv-x="1102" d="M1002 572Q1002 527 998 329T994 0H674Q674 121 678 302T682 522Q682 605 676 656T656 734T624 770T576 780Q514 780 426 720V0H106V1418H426V936Q479 981 545 1007T686 1034Q849 1034
925 926T1002 572ZM764 1473L526 1567L290 1473L212 1597L530 1769L844 1603L764 1473Z" />
<glyph unicode="&#x126;" glyph-name="Hbar" horiz-adv-x="1356" d="M874 0V517H482V0H146V955H25V1189H146V1350H482V1189H874V1350H1210V1189H1331V955H1210V0H874ZM874 782V955H482V782H874Z" />
<glyph unicode="&#x127;" glyph-name="hbar" horiz-adv-x="1102" d="M674 0Q674 80 675 155T677 297T680 419T681 514Q681 599 675 650T655 727T622 763T575 772Q560 772 543 768T507 756T468 737T427 712V0H107V1115H-1V1330H107V1441H427V1330H677V1115H427V929Q451
950 480 967T541 998T610 1019T687 1027Q767 1027 826 1002T925 921T983 777T1003 564Q1003 520 1002 459T999 324T996 169T995 0H674Z" />
<glyph unicode="&#x128;" glyph-name="Itilde" horiz-adv-x="588" d="M126 0V1350H462V0H126ZM655 1626Q610 1532 546 1483T393 1434Q348 1434 315 1446T256 1474T208 1506T165 1522Q138 1522 117 1504T63 1436L-65 1522Q-18 1616 45 1665T197 1714Q242 1714 276
1702T335 1673T384 1640T427 1624Q453 1624 473 1642T529 1712L655 1626Z" />
<glyph unicode="&#x129;" glyph-name="itilde" horiz-adv-x="534" d="M107 0V1009H427V0H107ZM613 1320Q569 1225 509 1176T363 1126Q319 1126 287 1138T230 1167T182 1200T141 1216Q116 1216 97 1198T43 1126L-79 1214Q-33 1310 27 1359T173 1408Q217 1408 249
1396T305 1367T352 1334T395 1318Q420 1318 439 1336T493 1408L613 1320Z" />
<glyph unicode="&#x12a;" glyph-name="Imacron" horiz-adv-x="588" d="M126 0V1350H462V0H126ZM256 1472V1676H844V1472H256Z" />
<glyph unicode="&#x12b;" glyph-name="imacron" horiz-adv-x="534" d="M107 0V1009H427V0H107ZM232 1156V1374H814V1156H232Z" />
<glyph unicode="&#x12c;" glyph-name="Ibreve" horiz-adv-x="588" d="M126 0V1350H462V0H126ZM859 1736Q859 1586 777 1502T551 1418Q405 1418 325 1499T245 1736H435Q435 1680 464 1649T551 1618Q610 1618 640 1650T671 1736H859Z" />
<glyph unicode="&#x12d;" glyph-name="ibreve" horiz-adv-x="534" d="M107 0V1009H427V0H107ZM837 1452Q837 1280 754 1190T523 1100Q374 1100 294 1187T213 1452H407Q406 1373 433 1342T523 1310Q585 1310 614 1342T643 1452H837Z" />
<glyph unicode="&#x12e;" glyph-name="Iogonek" horiz-adv-x="588" d="M126 1350H462V0Q411 -6 376 -22T317 -60T284 -107T274 -156Q274 -176 286 -189T329 -202Q349 -202 370 -196T409 -181L448 -316Q423 -329 396 -339T341 -356T287 -366T236 -370Q183 -370
143 -360T76 -331T36 -283T23 -216Q23 -160 51 -105T126 0V1350Z" />
<glyph unicode="&#x12f;" glyph-name="iogonek" horiz-adv-x="534" d="M455 1261Q455 1219 447 1188T418 1138T361 1108T267 1098Q210 1098 174 1106T116 1134T87 1185T79 1261Q79 1305 87 1335T117 1384T175 1412T267 1421Q324 1421 360 1414T417 1388T446 1339T455
1261V1261ZM107 1009H427V0Q380 -6 347 -22T293 -60T262 -107T251 -156Q251 -176 263 -189T307 -202Q326 -202 348 -196T386 -181L426 -316Q401 -329 374 -339T319 -356T264 -366T214 -370Q161 -370 121 -360T54 -331T14 -283T0 -216Q0 -160 29 -105T107 0V1009Z"
/>
<glyph unicode="&#x130;" glyph-name="Idotaccent" horiz-adv-x="588" d="M126 0V1350H462V0H126ZM464 1576Q464 1500 426 1469T290 1438Q238 1438 206 1445T154 1467T128 1509T120 1576Q120 1653 157 1682T292 1712Q344 1712 376 1706T428 1684T455 1643T464 1576Z" />
<glyph unicode="&#x131;" glyph-name="dotlessi" horiz-adv-x="534" d="M107 0V1009H427V0H107Z" />
<glyph unicode="&#x132;" glyph-name="IJ" horiz-adv-x="1182" d="M126 0V1350H462V0H126ZM1056 146Q1056 -14 985 -139T764 -352L604 -220Q641 -175 664 -130T700 -37T716 62T720 182V1350H1056V146Z" />
<glyph unicode="&#x133;" glyph-name="ij" horiz-adv-x="1066" d="M106 0V1010H426V0H106ZM454 1260Q454 1170 415 1134T268 1098Q210 1098 174 1106T116 1133T87 1182T78 1260Q78 1350 118 1386T268 1422Q325 1422 361 1414T417 1387T445 1338T454 1260ZM959
98Q959 -50 904 -159T727 -370L513 -280Q573 -204 606 -125T639 44V1010H959V98ZM987 1260Q987 1172 949 1135T801 1098Q743 1098 707 1106T649 1133T619 1183T611 1260Q611 1350 650 1386T801 1422Q857 1422 893 1414T950 1387T979 1337T987 1260Z" />
<glyph unicode="&#x134;" glyph-name="Jcircumflex" horiz-adv-x="594" d="M468 146Q468 -14 397 -139T176 -352L16 -220Q53 -175 76 -130T112 -37T128 62T132 182V1350H468V146ZM791 1426L553 1520L317 1426L239 1550L557 1722L871 1556L791 1426Z" />
<glyph unicode="&#x135;" glyph-name="jcircumflex" horiz-adv-x="534" d="M427 98Q427 25 414 -38T371 -158T298 -266T193 -369L-20 -279Q39 -204 73 -125T107 44V1009H427V98ZM733 1104L523 1234L311 1104L219 1226L529 1472L827 1230L733 1104Z" />
<glyph unicode="&#x136;" glyph-name="Kcommaaccent" horiz-adv-x="1126" d="M736 0L468 600H462V0H126V1350H462V794H468L728 1350H1084L760 754L1112 0H736ZM589 -62Q646 -62 679 -94T713 -180Q713 -218 700 -248T660 -301T594 -339T502 -360T385 -366L351 -266Q471
-248 471 -200Q471 -194 466 -182T461 -152Q461 -114 495 -88T589 -62Z" />
<glyph unicode="&#x137;" glyph-name="kcommaaccent" horiz-adv-x="1022" d="M642 0L438 478H426V0H106V1418H426V610H438L624 1010H988L728 578L1012 0H642ZM523 -62Q580 -62 613 -94T647 -180Q647 -218 634 -248T594 -301T528 -339T436 -360T319 -366L285 -266Q405
-248 405 -200Q405 -194 400 -182T395 -152Q395 -114 429 -88T523 -62Z" />
<glyph unicode="&#x138;" glyph-name="kgreenlandic" horiz-adv-x="1022" d="M642 0L438 458H427V0H107V1009H427V589H438L625 1009H988L728 557L1012 0H642Z" />
<glyph unicode="&#x139;" glyph-name="Lacute" horiz-adv-x="842" d="M126 0V1350H462V258H812V0H126ZM303 1426L205 1560L583 1722L725 1538L303 1426Z" />
<glyph unicode="&#x13a;" glyph-name="lacute" horiz-adv-x="562" d="M542 12Q498 -4 446 -12T324 -20Q213 -20 160 26T106 188V1418H426V314Q426 274 429 251T439 217T458 202T488 198H530L542 12ZM247 1459L149 1593L527 1755L669 1571L247 1459Z" />
<glyph unicode="&#x13b;" glyph-name="Lcommaaccent" horiz-adv-x="842" d="M126 0V1350H462V258H812V0H126ZM466 -62Q523 -62 556 -94T590 -180Q590 -218 577 -248T537 -301T471 -339T379 -360T262 -366L228 -266Q348 -248 348 -200Q348 -194 343 -182T338 -152Q338
-114 372 -88T466 -62Z" />
<glyph unicode="&#x13c;" glyph-name="lcommaaccent" horiz-adv-x="562" d="M542 12Q498 -4 446 -12T324 -20Q213 -20 160 26T106 188V1418H426V314Q426 274 429 251T439 217T458 202T488 198H530L542 12ZM360 -62Q417 -62 450 -94T484 -180Q484 -218 471 -248T431
-301T365 -339T273 -360T156 -366L122 -266Q242 -248 242 -200Q242 -194 237 -182T232 -152Q232 -114 266 -88T360 -62Z" />
<glyph unicode="&#x13d;" glyph-name="Lcaron" horiz-adv-x="842" d="M126 0V1350H462V258H813V0H126ZM709 1100L554 1126L618 1527L836 1485L709 1100Z" />
<glyph unicode="&#x13e;" glyph-name="lcaron" horiz-adv-x="710" d="M542 12Q498 -4 446 -12T324 -20Q213 -20 160 26T106 188V1418H426V314Q426 274 429 251T439 217T458 202T488 198H530L542 12ZM631 1100L475 1126L541 1526L759 1484L631 1100Z" />
<glyph unicode="&#x13f;" glyph-name="Ldot" horiz-adv-x="1038" d="M126 0V1350H462V258H812V0H126ZM1008 680Q1008 626 1001 593T974 541T921 513T832 504Q776 504 742 512T689 540T662 592T654 678Q654 733 661 767T688 821T742 849T834 858Q888 858 921 850T974
821T1000 768T1008 680Z" />
<glyph unicode="&#x140;" glyph-name="ldot" horiz-adv-x="1012" d="M542 12Q498 -4 446 -12T324 -20Q213 -20 160 26T106 188V1418H426V314Q426 274 429 251T439 217T458 202T488 198H530L542 12ZM950 600Q950 546 943 513T916 461T863 433T774 424Q718 424 684
432T631 460T604 512T596 598Q596 653 603 687T630 741T684 769T776 778Q830 778 863 770T916 741T942 688T950 600Z" />
<glyph unicode="&#x141;" glyph-name="Lslash" horiz-adv-x="854" d="M648 1057V833L475 743V258H825V0H139V574L35 519V744L139 796V1350H475V965L648 1057Z" />
<glyph unicode="&#x142;" glyph-name="lslash" horiz-adv-x="576" d="M554 13Q533 5 511 -1T461 -11T404 -17T336 -19Q284 -19 244 -10T176 23T134 87T119 188V572L14 515V740L119 798V1418H439V971L544 1028V803L439 745V315Q439 274 442 251T452 216T471 201T500
197Q509 197 520 197T542 198L554 13Z" />
<glyph unicode="&#x143;" glyph-name="Nacute" horiz-adv-x="1300" d="M808 0L492 666Q469 714 450 760T418 844Q401 887 388 926H385Q390 875 393 820Q396 773 398 714T401 596V0H126V1350H529L805 771Q827 723 846 677T880 592Q898 548 911 508H915Q910 559
907 615Q903 663 901 722T899 841V1350H1173V0H808ZM628 1426L530 1560L908 1722L1050 1538L628 1426Z" />
<glyph unicode="&#x144;" glyph-name="nacute" horiz-adv-x="1102" d="M1002 572Q1002 529 998 331T994 0H674Q674 123 678 303T682 522Q682 605 676 656T657 734T625 770T576 780Q544 780 507 765T426 720V0H106V1010H368L390 910Q453 970 528 1002T688 1034Q852
1034 927 925T1002 572ZM563 1102L401 1184L667 1458L887 1344L563 1102Z" />
<glyph unicode="&#x145;" glyph-name="Ncommaaccent" horiz-adv-x="1300" d="M808 0L492 666Q469 714 450 760T418 844Q401 887 388 926H385Q390 875 393 820Q396 773 398 714T401 596V0H126V1350H529L805 771Q827 723 846 677T880 592Q898 548 911 508H915Q910
559 907 615Q903 663 901 722T899 841V1350H1173V0H808ZM635 -62Q692 -62 725 -94T759 -180Q759 -218 746 -248T706 -301T640 -339T548 -360T431 -366L397 -266Q517 -248 517 -200Q517 -194 512 -182T507 -152Q507 -114 541 -88T635 -62Z" />
<glyph unicode="&#x146;" glyph-name="ncommaaccent" horiz-adv-x="1102" d="M1002 572Q1002 529 998 331T994 0H674Q674 123 678 303T682 522Q682 605 676 656T657 734T625 770T576 780Q544 780 507 765T426 720V0H106V1010H368L390 910Q453 970 528 1002T688
1034Q852 1034 927 925T1002 572ZM549 -62Q606 -62 639 -94T673 -180Q673 -218 660 -248T620 -301T554 -339T462 -360T345 -366L311 -266Q431 -248 431 -200Q431 -194 426 -182T421 -152Q421 -114 455 -88T549 -62Z" />
<glyph unicode="&#x147;" glyph-name="Ncaron" horiz-adv-x="1300" d="M808 0L492 666Q469 714 450 760T418 844Q401 887 388 926H385Q390 875 393 820Q396 773 398 714T401 596V0H126V1350H529L805 771Q827 723 846 677T880 592Q898 548 911 508H915Q910 559
907 615Q903 663 901 722T899 841V1350H1173V0H808ZM450 1722L686 1630L924 1722L1000 1598L684 1426L368 1594L450 1722Z" />
<glyph unicode="&#x148;" glyph-name="ncaron" horiz-adv-x="1102" d="M1002 572Q1002 529 998 331T994 0H674Q674 123 678 303T682 522Q682 605 676 656T657 734T625 770T576 780Q544 780 507 765T426 720V0H106V1010H368L390 910Q453 970 528 1002T688 1034Q852
1034 927 925T1002 572ZM550 1102L252 1344L346 1470L556 1340L770 1470L860 1346L550 1102Z" />
<glyph unicode="&#x149;" glyph-name="napostrophe" horiz-adv-x="1232" d="M10 1102Q44 1130 66 1153T103 1196T123 1231T129 1261Q129 1281 119 1292T98 1316T77 1349T67 1407Q67 1450 73 1479T95 1526T141 1551T217 1559Q261 1559 288 1551T331 1525T351 1478T356
1406Q356 1347 342 1294T298 1192T221 1096T110 1006L10 1102ZM1132 572Q1132 529 1128 331T1124 0H804Q804 123 808 303T812 522Q812 605 806 656T787 734T755 770T706 780Q674 780 637 765T556 720V0H236V1010H498L520 910Q583 970 658 1002T818 1034Q982 1034
1057 925T1132 572Z" />
<glyph unicode="&#x14a;" glyph-name="Eng" horiz-adv-x="1300" d="M1173 106Q1173 32 1157 -35T1105 -162T1014 -274T883 -370L734 -235Q763 -210 784 -180T818 -118T838 -57T844 0H804L492 665Q469 714 450 760T417 844Q401 887 388 926H385Q390 875 393 820Q396
773 398 714T401 596V0H126V1350H529L806 766Q828 719 847 672T880 587Q897 542 911 501H915Q910 553 907 610Q903 658 901 717T899 836V1350H1173V106Z" />
<glyph unicode="&#x14b;" glyph-name="eng" horiz-adv-x="1102" d="M552 -279Q612 -204 645 -125T679 44V522Q679 607 673 657T654 735T622 770T576 779Q559 779 542 775T506 763T467 744T427 719V0H107V1009H368L390 910Q421 939 455 962T526 1001T604 1026T687
1035Q769 1035 828 1009T925 926T981 783T999 572V98Q999 25 986 -38T944 -158T871 -266T766 -369L552 -279Z" />
<glyph unicode="&#x14c;" glyph-name="Omacron" horiz-adv-x="1286" d="M870 652Q870 792 855 884T809 1028T737 1101T636 1122Q585 1122 546 1103T477 1036T432 906T416 698Q416 558 431 467T477 324T549 251T650 230Q701 230 740 249T809 314T854 444T870 652ZM1222
702Q1222 516 1182 379T1064 151T878 18T630 -26Q486 -26 381 11T205 129T99 338T64 648Q64 834 104 971T222 1199T408 1332T656 1376Q800 1376 905 1339T1081 1221T1187 1012T1222 702ZM348 1472V1676H936V1472H348Z" />
<glyph unicode="&#x14d;" glyph-name="omacron" horiz-adv-x="1098" d="M712 482Q712 580 701 643T668 741T617 789T548 802Q511 802 482 789T431 744T398 659T386 528Q386 429 397 366T429 268T480 221T550 208Q586 208 615 221T666 266T700 350T712 482ZM1040
524Q1040 250 907 112T530 -26Q294 -26 176 94T58 484Q58 759 191 896T568 1034Q684 1034 771 1006T919 917T1009 759T1040 524ZM258 1156V1374H840V1156H258Z" />
<glyph unicode="&#x14e;" glyph-name="Obreve" horiz-adv-x="1286" d="M870 652Q870 792 855 884T809 1028T737 1101T636 1122Q585 1122 546 1103T477 1036T432 906T416 698Q416 558 431 467T477 324T549 251T650 230Q701 230 740 249T809 314T854 444T870 652ZM1222
702Q1222 516 1182 379T1064 151T878 18T630 -26Q486 -26 381 11T205 129T99 338T64 648Q64 834 104 971T222 1199T408 1332T656 1376Q800 1376 905 1339T1081 1221T1187 1012T1222 702ZM951 1736Q951 1586 869 1502T643 1418Q497 1418 417 1499T337 1736H527Q527
1680 556 1649T643 1618Q702 1618 732 1650T763 1736H951Z" />
<glyph unicode="&#x14f;" glyph-name="obreve" horiz-adv-x="1098" d="M712 482Q712 580 701 643T668 741T617 789T548 802Q511 802 482 789T431 744T398 659T386 528Q386 429 397 366T429 268T480 221T550 208Q586 208 615 221T666 266T700 350T712 482ZM1040
524Q1040 250 907 112T530 -26Q294 -26 176 94T58 484Q58 759 191 896T568 1034Q684 1034 771 1006T919 917T1009 759T1040 524ZM860 1452Q860 1280 777 1190T546 1100Q397 1100 317 1187T236 1452H430Q429 1373 456 1342T546 1310Q608 1310 637 1342T666 1452H860Z"
/>
<glyph unicode="&#x150;" glyph-name="Ohungarumlaut" horiz-adv-x="1286" d="M870 652Q870 792 855 884T809 1028T737 1101T636 1122Q585 1122 546 1103T477 1036T432 906T416 698Q416 558 431 467T477 324T549 251T650 230Q701 230 740 249T809 314T854 444T870
652ZM1222 702Q1222 516 1182 379T1064 151T878 18T630 -26Q486 -26 381 11T205 129T99 338T64 648Q64 834 104 971T222 1199T408 1332T656 1376Q800 1376 905 1339T1081 1221T1187 1012T1222 702ZM446 1412L304 1492L606 1742L800 1622L446 1412ZM886 1414L752
1512L1118 1738L1302 1602L886 1414Z" />
<glyph unicode="&#x151;" glyph-name="ohungarumlaut" horiz-adv-x="1098" d="M712 482Q712 580 701 643T668 741T617 789T548 802Q511 802 482 789T431 744T398 659T386 528Q386 429 397 366T429 268T480 221T550 208Q586 208 615 221T666 266T700 350T712 482ZM1040
524Q1040 250 907 112T530 -26Q294 -26 176 94T58 484Q58 759 191 896T568 1034Q684 1034 771 1006T919 917T1009 759T1040 524ZM786 1102L626 1184L888 1446L1108 1332L786 1102ZM374 1100L218 1182L456 1458L672 1346L374 1100Z" />
<glyph unicode="&#x152;" glyph-name="OE" horiz-adv-x="1580" d="M836 0Q789 -13 737 -19T630 -26Q491 -26 386 9T209 124T101 333T64 651Q64 775 82 877T136 1061T223 1201T340 1299T486 1357T658 1376Q717 1376 771 1370T875 1350H1491V1096H1090V813H1425V570H1090V257H1499V0H836ZM754
1090Q730 1108 701 1114T636 1121Q588 1121 548 1104T479 1039T434 911T417 703Q417 559 432 467T478 323T551 250T650 230Q680 230 706 235T754 253V1090Z" />
<glyph unicode="&#x153;" glyph-name="oe" horiz-adv-x="1686" d="M1611 91Q1509 38 1395 6T1163 -26Q1114 -26 1071 -20T990 1T917 38T854 95Q826 62 791 40T714 3T627 -19T531 -26Q418 -26 330 1T182 89T90 248T58 486Q58 579 73 656T119 794T192 900T292 975T415
1020T562 1035Q613 1035 659 1029T747 1008T825 969T890 910Q914 938 945 961T1013 1000T1095 1026T1188 1035Q1256 1035 1316 1023T1427 982T1516 907T1580 795T1615 639T1617 434H1030V424Q1030 370 1043 332T1081 268T1141 230T1224 217Q1257 217 1297 220T1382
230T1474 247T1569 272L1611 91ZM1310 628V631Q1310 683 1302 720T1277 780T1235 814T1178 825Q1144 825 1119 812T1075 773T1045 711T1032 628H1310ZM712 480Q712 581 700 644T667 742T616 789T550 802Q514 802 484 790T432 746T398 662T385 530Q385 428 396 365T430
267T482 220T552 207Q586 207 615 220T666 264T700 348T712 480V480Z" />
<glyph unicode="&#x154;" glyph-name="Racute" horiz-adv-x="1136" d="M728 940Q728 1022 684 1068T544 1114H462V764H542Q633 764 680 809T728 940ZM748 0L534 520H462V0H126V1350Q239 1353 363 1354T592 1356Q718 1356 810 1327T962 1244T1050 1120T1078 962Q1078
889 1061 831T1012 728T939 652T848 598L1128 0H748ZM491 1426L393 1560L771 1722L913 1538L491 1426Z" />
<glyph unicode="&#x155;" glyph-name="racute" horiz-adv-x="750" d="M696 734Q665 742 642 745T600 748Q561 748 524 719T426 614V0H106V1010H368L392 864Q462 958 515 995T626 1032Q654 1032 681 1027T734 1008L696 734ZM413 1102L251 1184L517 1458L737 1344L413
1102Z" />
<glyph unicode="&#x156;" glyph-name="Rcommaaccent" horiz-adv-x="1136" d="M728 940Q728 1022 684 1068T544 1114H462V764H542Q633 764 680 809T728 940ZM748 0L534 520H462V0H126V1350Q239 1353 363 1354T592 1356Q718 1356 810 1327T962 1244T1050 1120T1078
962Q1078 889 1061 831T1012 728T939 652T848 598L1128 0H748ZM593 -62Q650 -62 683 -94T717 -180Q717 -218 704 -248T664 -301T598 -339T506 -360T389 -366L355 -266Q475 -248 475 -200Q475 -194 470 -182T465 -152Q465 -114 499 -88T593 -62Z" />
<glyph unicode="&#x157;" glyph-name="rcommaaccent" horiz-adv-x="750" d="M696 734Q665 742 642 745T600 748Q561 748 524 719T426 614V0H106V1010H368L392 864Q462 958 515 995T626 1032Q654 1032 681 1027T734 1008L696 734ZM532 -62Q589 -62 622 -94T656
-180Q656 -218 643 -248T603 -301T537 -339T445 -360T328 -366L294 -266Q414 -248 414 -200Q414 -194 409 -182T404 -152Q404 -114 438 -88T532 -62Z" />
<glyph unicode="&#x158;" glyph-name="Rcaron" horiz-adv-x="1136" d="M728 940Q728 1022 684 1068T544 1114H462V764H542Q633 764 680 809T728 940ZM748 0L534 520H462V0H126V1350Q239 1353 363 1354T592 1356Q718 1356 810 1327T962 1244T1050 1120T1078 962Q1078
889 1061 831T1012 728T939 652T848 598L1128 0H748ZM321 1722L557 1630L795 1722L871 1598L555 1426L239 1594L321 1722Z" />
<glyph unicode="&#x159;" glyph-name="rcaron" horiz-adv-x="750" d="M696 734Q665 742 642 745T600 748Q561 748 524 719T426 614V0H106V1010H368L392 864Q462 958 515 995T626 1032Q654 1032 681 1027T734 1008L696 734ZM416 1102L118 1344L212 1470L422 1340L636
1470L726 1346L416 1102Z" />
<glyph unicode="&#x15a;" glyph-name="Sacute" horiz-adv-x="992" d="M958 394Q958 307 927 232T834 99T677 9T462 -24Q343 -24 236 13T36 118L114 288Q201 255 275 238T400 220Q488 220 536 255T584 356Q584 408 550 446T449 520T314 594T188 680T96 800T60 972Q60
1063 93 1137T187 1264T331 1344T514 1372Q614 1372 709 1343T898 1252L820 1082Q753 1108 691 1120T576 1132Q495 1132 454 1100T412 1010Q412 957 448 919T554 842T696 766T825 681T920 562T958 394ZM457 1426L359 1560L737 1722L879 1538L457 1426Z" />
<glyph unicode="&#x15b;" glyph-name="sacute" horiz-adv-x="850" d="M812 310Q812 238 783 177T697 71T559 1T376 -24Q289 -24 209 -2T40 68L64 228Q151 212 210 205T316 198Q399 198 435 222T472 286Q472 316 451 336T401 369T310 404T205 450T126 506T67 592T44
716Q44 787 72 846T152 947T276 1011T436 1034Q512 1034 585 1015T744 948L714 790Q645 806 598 812T506 818Q442 818 410 796T378 740Q378 710 400 690T450 657T542 622T649 576T729 520T789 434T812 310ZM417 1102L255 1184L521 1458L741 1344L417 1102Z" />
<glyph unicode="&#x15c;" glyph-name="Scircumflex" horiz-adv-x="992" d="M958 394Q958 307 927 232T834 99T677 9T462 -24Q343 -24 236 13T36 118L114 288Q201 255 275 238T400 220Q488 220 536 255T584 356Q584 408 550 446T449 520T314 594T188 680T96 800T60
972Q60 1063 93 1137T187 1264T331 1344T514 1372Q614 1372 709 1343T898 1252L820 1082Q753 1108 691 1120T576 1132Q495 1132 454 1100T412 1010Q412 957 448 919T554 842T696 766T825 681T920 562T958 394ZM751 1426L513 1520L277 1426L199 1550L517 1722L831
1556L751 1426Z" />
<glyph unicode="&#x15d;" glyph-name="scircumflex" horiz-adv-x="850" d="M812 310Q812 238 783 177T697 71T559 1T376 -24Q289 -24 209 -2T40 68L64 228Q151 212 210 205T316 198Q399 198 435 222T472 286Q472 316 451 336T401 369T310 404T205 450T126 506T67
592T44 716Q44 787 72 846T152 947T276 1011T436 1034Q512 1034 585 1015T744 948L714 790Q645 806 598 812T506 818Q442 818 410 796T378 740Q378 710 400 690T450 657T542 622T649 576T729 520T789 434T812 310ZM634 1104L424 1234L212 1104L120 1226L430 1472L728
1230L634 1104Z" />
<glyph unicode="&#x15e;" glyph-name="Scedilla" horiz-adv-x="992" d="M958 394Q958 307 927 232T834 99T677 9T462 -24Q343 -24 236 13T36 118L114 288Q201 255 275 238T400 220Q488 220 536 255T584 356Q584 408 550 446T449 520T314 594T188 680T96 800T60
972Q60 1063 93 1137T187 1264T331 1344T514 1372Q614 1372 709 1343T898 1252L820 1082Q753 1108 691 1120T576 1132Q495 1132 454 1100T412 1010Q412 957 448 919T554 842T696 766T825 681T920 562T958 394ZM608 -84Q626 -175 582 -244T430 -372L244 -306Q317
-243 336 -195T338 -84H608Z" />
<glyph unicode="&#x15f;" glyph-name="scedilla" horiz-adv-x="850" d="M812 310Q812 238 783 177T697 71T559 1T376 -24Q289 -24 209 -2T40 68L64 228Q151 212 210 205T316 198Q399 198 435 222T472 286Q472 316 451 336T401 369T310 404T205 450T126 506T67
592T44 716Q44 787 72 846T152 947T276 1011T436 1034Q512 1034 585 1015T744 948L714 790Q645 806 598 812T506 818Q442 818 410 796T378 740Q378 710 400 690T450 657T542 622T649 576T729 520T789 434T812 310ZM527 -84Q545 -175 501 -244T349 -372L163 -306Q236
-243 255 -195T257 -84H527Z" />
<glyph unicode="&#x160;" glyph-name="Scaron" horiz-adv-x="992" d="M958 394Q958 307 927 232T834 99T677 9T462 -24Q343 -24 236 13T36 118L114 288Q201 255 275 238T400 220Q488 220 536 255T584 356Q584 408 550 446T449 520T314 594T188 680T96 800T60 972Q60
1063 93 1137T187 1264T331 1344T514 1372Q614 1372 709 1343T898 1252L820 1082Q753 1108 691 1120T576 1132Q495 1132 454 1100T412 1010Q412 957 448 919T554 842T696 766T825 681T920 562T958 394ZM259 1722L495 1630L733 1722L809 1598L493 1426L177 1594L259
1722Z" />
<glyph unicode="&#x161;" glyph-name="scaron" horiz-adv-x="850" d="M812 310Q812 238 783 177T697 71T559 1T376 -24Q289 -24 209 -2T40 68L64 228Q151 212 210 205T316 198Q399 198 435 222T472 286Q472 316 451 336T401 369T310 404T205 450T126 506T67 592T44
716Q44 787 72 846T152 947T276 1011T436 1034Q512 1034 585 1015T744 948L714 790Q645 806 598 812T506 818Q442 818 410 796T378 740Q378 710 400 690T450 657T542 622T649 576T729 520T789 434T812 310ZM421 1102L123 1344L217 1470L427 1340L641 1470L731 1346L421
1102Z" />
<glyph unicode="&#x162;" glyph-name="uni0162" horiz-adv-x="934" d="M632 1094V0H296V1094H26V1350H906V1094H632ZM470 -62Q527 -62 560 -94T594 -180Q594 -218 581 -248T541 -301T475 -339T383 -360T266 -366L232 -266Q352 -248 352 -200Q352 -194 347 -182T342
-152Q342 -114 376 -88T470 -62Z" />
<glyph unicode="&#x163;" glyph-name="uni0163" horiz-adv-x="700" d="M666 48Q591 9 526 -7T396 -24Q249 -24 188 35T126 238V788H18V1010H138Q158 1077 175 1147T212 1306H446V1010H638V788H446V316Q446 258 463 236T518 214Q545 214 575 217T644 230L666 48ZM410
-62Q467 -62 500 -94T534 -180Q534 -218 521 -248T481 -301T415 -339T323 -360T206 -366L172 -266Q292 -248 292 -200Q292 -194 287 -182T282 -152Q282 -114 316 -88T410 -62Z" />
<glyph unicode="&#x164;" glyph-name="Tcaron" horiz-adv-x="934" d="M632 1094V0H296V1094H26V1350H906V1094H632ZM232 1722L468 1630L706 1722L782 1598L466 1426L150 1594L232 1722Z" />
<glyph unicode="&#x165;" glyph-name="tcaron" horiz-adv-x="778" d="M666 48Q591 9 526 -7T396 -24Q249 -24 188 35T126 238V788H18V1010H138Q158 1077 175 1147T212 1306H446V1010H638V788H446V316Q446 258 463 236T518 214Q545 214 575 217T644 230L666 48ZM668
1100L512 1126L578 1526L796 1484L668 1100Z" />
<glyph unicode="&#x166;" glyph-name="Tbar" horiz-adv-x="934" d="M633 1093V728H807V506H633V0H296V506H125V728H296V1093H26V1350H906V1093H633Z" />
<glyph unicode="&#x167;" glyph-name="tbar" horiz-adv-x="700" d="M666 48Q588 8 522 -8T395 -24Q322 -24 271 -11T188 34T141 116T126 238V409H36V627H126V788H18V1009H139Q159 1078 176 1149T211 1306H446V1009H639V788H446V627H618V409H446V315Q446 286 450
266T464 235T486 218T518 213Q541 213 570 216T644 231L666 48Z" />
<glyph unicode="&#x168;" glyph-name="Utilde" horiz-adv-x="1304" d="M1180 482Q1180 345 1140 248T1027 90T853 2T630 -26Q374 -26 249 85T124 448V1350H460V482Q460 336 505 277T652 218Q702 218 738 230T799 270T837 345T850 462V1350H1180V482ZM1012 1626Q967
1532 903 1483T750 1434Q705 1434 672 1446T613 1474T565 1506T522 1522Q495 1522 474 1504T420 1436L292 1522Q339 1616 402 1665T554 1714Q599 1714 633 1702T692 1673T741 1640T784 1624Q810 1624 830 1642T886 1712L1012 1626Z" />
<glyph unicode="&#x169;" glyph-name="utilde" horiz-adv-x="1102" d="M734 0L712 98Q646 39 572 7T414 -26Q249 -26 174 84T98 438Q98 481 102 679T106 1010H428Q428 887 424 706T420 486Q420 403 426 352T445 275T477 240T526 230Q556 230 593 246T674 290V1010H994V0H734ZM896
1320Q852 1225 792 1176T646 1126Q602 1126 570 1138T513 1167T465 1200T424 1216Q399 1216 380 1198T326 1126L204 1214Q250 1310 310 1359T456 1408Q500 1408 532 1396T588 1367T635 1334T678 1318Q703 1318 722 1336T776 1408L896 1320Z" />
<glyph unicode="&#x16a;" glyph-name="Umacron" horiz-adv-x="1304" d="M1180 482Q1180 345 1140 248T1027 90T853 2T630 -26Q374 -26 249 85T124 448V1350H460V482Q460 336 505 277T652 218Q702 218 738 230T799 270T837 345T850 462V1350H1180V482ZM357 1472V1676H945V1472H357Z"
/>
<glyph unicode="&#x16b;" glyph-name="umacron" horiz-adv-x="1102" d="M734 0L712 98Q646 39 572 7T414 -26Q249 -26 174 84T98 438Q98 481 102 679T106 1010H428Q428 887 424 706T420 486Q420 403 426 352T445 275T477 240T526 230Q556 230 593 246T674 290V1010H994V0H734ZM259
1156V1374H841V1156H259Z" />
<glyph unicode="&#x16c;" glyph-name="Ubreve" horiz-adv-x="1304" d="M1180 482Q1180 345 1140 248T1027 90T853 2T630 -26Q374 -26 249 85T124 448V1350H460V482Q460 336 505 277T652 218Q702 218 738 230T799 270T837 345T850 462V1350H1180V482ZM960 1736Q960
1586 878 1502T652 1418Q506 1418 426 1499T346 1736H536Q536 1680 565 1649T652 1618Q711 1618 741 1650T772 1736H960Z" />
<glyph unicode="&#x16d;" glyph-name="ubreve" horiz-adv-x="1102" d="M734 0L712 98Q646 39 572 7T414 -26Q249 -26 174 84T98 438Q98 481 102 679T106 1010H428Q428 887 424 706T420 486Q420 403 426 352T445 275T477 240T526 230Q556 230 593 246T674 290V1010H994V0H734ZM862
1452Q862 1280 779 1190T548 1100Q399 1100 319 1187T238 1452H432Q431 1373 458 1342T548 1310Q610 1310 639 1342T668 1452H862Z" />
<glyph unicode="&#x16e;" glyph-name="Uring" horiz-adv-x="1304" d="M1180 482Q1180 345 1140 248T1027 90T853 2T630 -26Q374 -26 249 85T124 448V1350H460V482Q460 336 505 277T652 218Q702 218 738 230T799 270T837 345T850 462V1350H1180V482ZM730 1550Q730
1616 658 1616Q584 1616 584 1550Q584 1484 658 1484Q730 1484 730 1550ZM908 1554Q908 1472 840 1425T652 1378Q525 1378 465 1420T404 1548Q404 1629 473 1675T662 1722Q789 1722 848 1680T908 1554Z" />
<glyph unicode="&#x16f;" glyph-name="uring" horiz-adv-x="1102" d="M734 0L712 98Q646 39 572 7T414 -26Q249 -26 174 84T98 438Q98 481 102 679T106 1010H428Q428 887 424 706T420 486Q420 403 426 352T445 275T477 240T526 230Q556 230 593 246T674 290V1010H994V0H734ZM630
1298Q630 1378 554 1378Q478 1378 478 1298Q478 1218 554 1218Q630 1218 630 1298ZM820 1302Q820 1199 748 1141T550 1082Q415 1082 352 1135T288 1294Q288 1396 360 1455T558 1514Q692 1514 756 1461T820 1302Z" />
<glyph unicode="&#x170;" glyph-name="Uhungarumlaut" horiz-adv-x="1304" d="M1180 482Q1180 345 1140 248T1027 90T853 2T630 -26Q374 -26 249 85T124 448V1350H460V482Q460 336 505 277T652 218Q702 218 738 230T799 270T837 345T850 462V1350H1180V482ZM443
1412L301 1492L603 1742L797 1622L443 1412ZM883 1414L749 1512L1115 1738L1299 1602L883 1414Z" />
<glyph unicode="&#x171;" glyph-name="uhungarumlaut" horiz-adv-x="1102" d="M734 0L712 98Q646 39 572 7T414 -26Q249 -26 174 84T98 438Q98 481 102 679T106 1010H428Q428 887 424 706T420 486Q420 403 426 352T445 275T477 240T526 230Q556 230 593 246T674
290V1010H994V0H734ZM763 1102L603 1184L865 1446L1085 1332L763 1102ZM351 1100L195 1182L433 1458L649 1346L351 1100Z" />
<glyph unicode="&#x172;" glyph-name="Uogonek" horiz-adv-x="1304" d="M1015 -316Q990 -329 963 -339T908 -356T854 -366T803 -370Q750 -370 710 -360T643 -331T603 -283T589 -216Q589 -191 595 -166T614 -115T642 -66T680 -20Q668 -23 655 -24T630 -26Q500 -26
405 0T247 84T154 231T124 449V1350H460V481Q460 408 471 357T505 275T565 231T652 217Q700 217 737 229T799 269T837 344T850 462V1350H1180V481Q1180 415 1171 360T1145 260T1106 180T1056 117Q1008 69 968 32T900 -37T856 -97T840 -156Q840 -176 852 -189T896
-202Q915 -202 937 -196T975 -181L1015 -316Z" />
<glyph unicode="&#x173;" glyph-name="uogonek" horiz-adv-x="1102" d="M995 0Q939 -32 906 -71T873 -156Q873 -176 885 -189T928 -202Q948 -202 969 -196T1008 -181L1047 -316Q1023 -329 996 -339T940 -356T886 -366T836 -370Q782 -370 742 -360T676 -331T636
-283T622 -216Q622 -158 652 -102T733 3L711 99Q680 69 646 47T575 8T497 -17T414 -26Q332 -26 273 0T175 83T118 227T99 437Q99 481 100 543T102 679T104 837T106 1009H427Q427 927 426 850T424 706T421 582T420 487Q420 402 426 352T446 274T479 239T526 230Q541
230 559 234T595 246T634 265T675 290V1009H995V0Z" />
<glyph unicode="&#x174;" glyph-name="Wcircumflex" horiz-adv-x="1736" d="M1716 1350Q1685 1169 1652 997T1583 659T1507 329T1422 0H1052L902 630L862 856H860L822 632L684 0H318Q271 165 231 328T154 656T86 991T20 1350H380Q392 1258 407 1162T451 904T495
645T532 422H534L570 630L730 1350H1064L1230 622L1266 422H1270Q1292 558 1311 678T1346 910T1378 1132T1406 1350H1716ZM1131 1426L893 1520L657 1426L579 1550L897 1722L1211 1556L1131 1426Z" />
<glyph unicode="&#x175;" glyph-name="wcircumflex" horiz-adv-x="1558" d="M1534 1010Q1506 742 1446 497T1300 0H912L798 512L774 666H770L756 514L654 0H262L20 1010H362L460 504L488 338H490L514 500L610 1010H986L1104 488L1126 340H1128Q1168 530 1195 690T1226
1010H1534ZM1006 1104L796 1234L584 1104L492 1226L802 1472L1100 1230L1006 1104Z" />
<glyph unicode="&#x176;" glyph-name="Ycircumflex" horiz-adv-x="988" d="M1002 1350Q924 1101 840 903T660 550V0H324V550Q221 733 139 926T-14 1350H348Q385 1215 426 1094T516 860Q562 963 600 1085T674 1350H1002ZM739 1426L501 1520L265 1426L187 1550L505
1722L819 1556L739 1426Z" />
<glyph unicode="&#x177;" glyph-name="ycircumflex" horiz-adv-x="988" d="M970 1010Q930 652 849 389T660 -40T433 -282T188 -360Q152 -360 107 -347T18 -310V-128Q42 -132 74 -134T130 -136Q213 -136 254 -104Q298 -69 298 -22Q298 3 290 40T262 136L12 1010H354L486
464Q504 400 512 346T518 250Q572 445 605 642T642 1010H970ZM721 1104L511 1234L299 1104L207 1226L517 1472L815 1230L721 1104Z" />
<glyph unicode="&#x178;" glyph-name="Ydieresis" horiz-adv-x="988" d="M1002 1350Q924 1101 840 903T660 550V0H324V550Q221 733 139 926T-14 1350H348Q385 1215 426 1094T516 860Q562 963 600 1085T674 1350H1002ZM864 1568Q864 1499 831 1469T718 1438Q635
1438 603 1466T570 1568Q570 1639 603 1669T718 1700Q798 1700 831 1671T864 1568ZM444 1568Q444 1498 411 1468T298 1438Q216 1438 183 1466T150 1568Q150 1639 184 1669T298 1700Q379 1700 411 1671T444 1568Z" />
<glyph unicode="&#x179;" glyph-name="Zacute" horiz-adv-x="986" d="M52 0V228L518 1088H72L78 1350H914V1124L450 264H936L930 0H52ZM463 1426L365 1560L743 1722L885 1538L463 1426Z" />
<glyph unicode="&#x17a;" glyph-name="zacute" horiz-adv-x="800" d="M750 0H42V202L364 774H56L66 1010H728V810L406 240H758L750 0ZM438 1102L276 1184L542 1458L762 1344L438 1102Z" />
<glyph unicode="&#x17b;" glyph-name="Zdotaccent" horiz-adv-x="986" d="M52 0V228L518 1088H72L78 1350H914V1124L450 264H936L930 0H52ZM670 1576Q670 1500 632 1469T496 1438Q444 1438 412 1445T360 1467T334 1509T326 1576Q326 1653 363 1682T498 1712Q550
1712 582 1706T634 1684T661 1643T670 1576Z" />
<glyph unicode="&#x17c;" glyph-name="zdotaccent" horiz-adv-x="800" d="M750 0H42V202L364 774H56L66 1010H728V810L406 240H758L750 0ZM595 1268Q595 1181 556 1148T409 1114Q351 1114 315 1122T257 1147T228 1194T219 1268Q219 1354 259 1388T409 1422Q466
1422 502 1414T558 1389T586 1342T595 1268Z" />
<glyph unicode="&#x17d;" glyph-name="Zcaron" horiz-adv-x="986" d="M52 0V228L518 1088H72L78 1350H914V1124L450 264H936L930 0H52ZM268 1722L504 1630L742 1722L818 1598L502 1426L186 1594L268 1722Z" />
<glyph unicode="&#x17e;" glyph-name="zcaron" horiz-adv-x="800" d="M750 0H42V202L364 774H56L66 1010H728V810L406 240H758L750 0ZM398 1102L100 1344L194 1470L404 1340L618 1470L708 1346L398 1102Z" />
<glyph unicode="&#x17f;" glyph-name="longs" horiz-adv-x="556" d="M593 1200Q567 1208 545 1211T502 1215Q460 1215 444 1191T427 1115V0H107V1108Q107 1186 121 1248T169 1354T256 1420T387 1444Q426 1444 459 1440T522 1427T578 1409T628 1387L593 1200Z" />
<glyph unicode="&#x192;" glyph-name="florin" horiz-adv-x="1000" d="M916 1122Q891 1131 855 1137T787 1144Q756 1144 736 1137T701 1114T679 1074T668 1013L647 782H896V573H632L593 120Q587 42 565 -21T502 -129T398 -198T251 -223Q209 -223 173 -218T104
-203T41 -181T-17 -152L25 21Q51 12 87 6T155 -1Q184 -1 205 6T241 29T263 70T274 130L312 573H83V782H327L349 1023Q355 1102 377 1165T440 1273T543 1342T690 1367Q732 1367 768 1362T838 1347T901 1324T959 1296L916 1122Z" />
<glyph unicode="&#x1e6;" glyph-name="Gcaron" horiz-adv-x="1156" d="M1060 138Q964 61 840 18T566 -26Q315 -26 190 143T64 642Q64 824 105 962T223 1193T408 1330T650 1376Q780 1376 884 1315T1054 1148L906 1014Q839 1066 783 1089T664 1112Q541 1112 478
1012T414 694Q414 569 427 482T467 341T531 264T618 240Q651 240 680 248T730 270V560H592V802H1060V138ZM393 1722L629 1630L867 1722L943 1598L627 1426L311 1594L393 1722Z" />
<glyph unicode="&#x1e7;" glyph-name="gcaron" horiz-adv-x="1088" d="M660 792Q639 800 614 805T562 810Q480 810 432 737T384 520Q384 381 419 314T518 246Q549 246 587 263T660 310V792ZM980 42Q980 -77 945 -157T847 -284T703 -350T524 -370Q439 -370 346
-347T140 -274L162 -100Q260 -116 341 -125T488 -134Q580 -134 620 -105T660 0V100Q604 58 546 33T422 8Q331 8 262 45T148 147T80 298T58 480Q58 621 96 726T205 900T377 1001T602 1034Q690 1034 792 1021T980 988V42ZM537 1102L239 1344L333 1470L543 1340L757
1470L847 1346L537 1102Z" />
<glyph unicode="&#x1fa;" glyph-name="Aringacute" horiz-adv-x="1200" d="M726 496Q686 655 648 797T572 1062Q555 999 536 927T498 779T461 632T428 496H726ZM828 0Q818 59 804 130T778 248H376Q365 194 353 128T330 0H10Q83 337 173 673T372 1350H822Q928 1030
1016 704T1190 0H828ZM837 1490Q837 1462 821 1440T773 1402T697 1377T598 1368Q544 1368 501 1375T429 1396T384 1431T368 1480Q368 1507 384 1529T432 1568T508 1592T607 1601Q661 1601 704 1595T776 1574T821 1539T837 1490V1490ZM665 1486Q665 1508 650 1519T602
1530Q569 1530 554 1519T539 1483Q539 1462 554 1451T602 1440Q635 1440 650 1451T665 1486V1486ZM785 1770L846 1670L482 1620L446 1693L785 1770Z" />
<glyph unicode="&#x1fb;" glyph-name="aringacute" horiz-adv-x="1040" d="M620 438H556Q448 438 400 404T352 308Q352 198 464 198Q500 198 542 217T620 266V438ZM690 0L670 94Q604 36 531 5T368 -26Q209 -26 126 49T42 272Q42 437 177 532T568 628H620V684Q620
806 456 806Q383 806 301 790T138 746L98 938Q206 984 314 1009T534 1034Q729 1034 832 950T936 714V0H690ZM764 1265Q764 1225 747 1193T698 1138T622 1103T521 1091Q398 1091 342 1133T286 1260Q286 1299 302 1331T351 1385T427 1420T529 1433Q590 1433 634 1422T707
1390T750 1337T764 1265V1265ZM594 1262Q594 1278 590 1290T577 1311T555 1323T524 1327Q489 1327 472 1311T455 1262Q455 1245 459 1233T471 1213T493 1201T524 1197Q561 1197 577 1213T594 1262V1262ZM618 1770L835 1676L565 1481L409 1544L618 1770Z" />
<glyph unicode="&#x1fc;" glyph-name="AEacute" horiz-adv-x="1498" d="M672 0V249H352Q343 224 333 194T313 131T292 65T273 0H-53Q9 178 72 350T202 691T338 1023T480 1350H1408V1096H1008V813H1342V570H1008V257H1416V0H672ZM672 1101H670Q635 1020 603 940T540
783T482 633T432 496H672V1101ZM889 1426L791 1560L1169 1722L1311 1538L889 1426Z" />
<glyph unicode="&#x1fd;" glyph-name="aeacute" horiz-adv-x="1586" d="M1511 91Q1409 38 1295 6T1063 -26Q1003 -26 950 -17T853 11T772 60T710 133Q679 99 643 70T563 20T472 -13T368 -26Q207 -26 125 49T42 272Q42 352 75 418T173 530T338 602T569 628H619V685Q619
715 609 738T579 776T529 799T457 807Q418 807 378 802T296 789T215 770T138 746L99 937Q149 959 201 977T308 1007T419 1026T532 1033Q580 1033 622 1026T700 1006T763 975T811 935Q839 959 868 977T932 1008T1005 1028T1091 1035Q1158 1035 1218 1023T1328 982T1416
907T1480 795T1514 639T1517 434H930V424Q930 370 943 332T981 268T1042 230T1124 217Q1157 217 1197 220T1282 230T1374 247T1469 272L1511 91ZM1210 628V631Q1210 683 1202 720T1177 780T1135 814T1078 825Q1044 825 1019 812T975 773T945 711T932 628H1210ZM556
437Q500 437 461 428T398 402T364 361T353 307Q353 281 360 261T381 227T416 206T463 199Q509 199 550 224T619 287Q619 321 619 359T619 437H556ZM820 1102L658 1184L924 1458L1144 1344L820 1102Z" />
<glyph unicode="&#x1fe;" glyph-name="Oslashacute" horiz-adv-x="1286" d="M1222 702Q1222 576 1204 474T1150 290T1064 150T947 51T801 -7T630 -26Q553 -26 485 -14T359 26L242 -168L76 -79L202 131Q135 209 100 336T64 648Q64 773 82 876T136 1060T223 1200T339
1299T485 1357T656 1376Q735 1376 802 1363T927 1324L1044 1518L1210 1429L1082 1221Q1151 1141 1186 1014T1222 702V702ZM892 650Q892 726 889 785T881 890L502 260Q531 234 568 223T652 212Q686 212 718 220T776 247T823 298T860 378T884 494T892 650V650ZM635
1139Q582 1139 538 1121T462 1054T412 920T394 700Q394 630 398 568T406 464L785 1092Q754 1117 717 1128T635 1139V1139ZM602 1456L504 1590L882 1752L1024 1568L602 1456Z" />
<glyph unicode="&#x1ff;" glyph-name="oslashacute" horiz-adv-x="1098" d="M919 918Q980 856 1010 758T1040 525Q1040 431 1024 354T979 216T905 110T804 34T679 -11T531 -26Q479 -26 432 -19T342 1L238 -165L72 -76L177 93Q119 153 89 247T58 485Q58 577 73
654T119 793T193 899T293 975T418 1020T567 1035Q621 1035 670 1029T755 1008L860 1174L1026 1087L919 918ZM469 205Q482 197 505 193T550 189Q589 189 623 202T683 249T723 338T738 480Q738 530 737 567T734 636L469 205ZM629 804Q614 812 593 816T548 820Q508
820 474 807T414 760T375 670T360 530Q360 481 361 444T364 373L629 804ZM566 1102L404 1184L670 1458L890 1344L566 1102Z" />
<glyph unicode="&#x218;" glyph-name="Scommaaccent" horiz-adv-x="992" d="M958 394Q958 307 927 232T834 99T677 9T462 -24Q343 -24 236 13T36 118L114 288Q201 255 275 238T400 220Q488 220 536 255T584 356Q584 408 550 446T449 520T314 594T188 680T96 800T60
972Q60 1063 93 1137T187 1264T331 1344T514 1372Q614 1372 709 1343T898 1252L820 1082Q753 1108 691 1120T576 1132Q495 1132 454 1100T412 1010Q412 957 448 919T554 842T696 766T825 681T920 562T958 394ZM506 -62Q563 -62 596 -94T630 -180Q630 -218 617 -248T577
-301T511 -339T419 -360T302 -366L268 -266Q388 -248 388 -200Q388 -194 383 -182T378 -152Q378 -114 412 -88T506 -62Z" />
<glyph unicode="&#x219;" glyph-name="scommaaccent" horiz-adv-x="850" d="M812 310Q812 238 783 177T697 71T559 1T376 -24Q289 -24 209 -2T40 68L64 228Q151 212 210 205T316 198Q399 198 435 222T472 286Q472 316 451 336T401 369T310 404T205 450T126 506T67
592T44 716Q44 787 72 846T152 947T276 1011T436 1034Q512 1034 585 1015T744 948L714 790Q645 806 598 812T506 818Q442 818 410 796T378 740Q378 710 400 690T450 657T542 622T649 576T729 520T789 434T812 310ZM420 -62Q477 -62 510 -94T544 -180Q544 -218 531
-248T491 -301T425 -339T333 -360T216 -366L182 -266Q302 -248 302 -200Q302 -194 297 -182T292 -152Q292 -114 326 -88T420 -62Z" />
<glyph unicode="&#x21a;" glyph-name="Tcommaaccent" horiz-adv-x="934" d="M632 1094V0H296V1094H26V1350H906V1094H632ZM470 -62Q527 -62 560 -94T594 -180Q594 -218 581 -248T541 -301T475 -339T383 -360T266 -366L232 -266Q352 -248 352 -200Q352 -194 347
-182T342 -152Q342 -114 376 -88T470 -62Z" />
<glyph unicode="&#x21b;" glyph-name="tcommaaccent" horiz-adv-x="700" d="M666 48Q591 9 526 -7T396 -24Q249 -24 188 35T126 238V788H18V1010H138Q158 1077 175 1147T212 1306H446V1010H638V788H446V316Q446 258 463 236T518 214Q545 214 575 217T644 230L666
48ZM410 -62Q467 -62 500 -94T534 -180Q534 -218 521 -248T481 -301T415 -339T323 -360T206 -366L172 -266Q292 -248 292 -200Q292 -194 287 -182T282 -152Q282 -114 316 -88T410 -62Z" />
<glyph unicode="&#x237;" glyph-name="dotlessj" horiz-adv-x="534" d="M427 98Q427 25 414 -38T371 -158T298 -266T193 -369L-20 -279Q39 -204 73 -125T107 44V1009H427V98Z" />
<glyph unicode="&#x2bc;" glyph-name="apostrophe" horiz-adv-x="426" d="M10 1102Q44 1130 66 1153T103 1196T123 1231T129 1261Q129 1281 119 1292T98 1316T77 1349T67 1407Q67 1450 73 1479T95 1526T141 1551T217 1559Q261 1559 288 1551T331 1525T351 1478T356
1406Q356 1347 342 1294T298 1192T221 1096T110 1006L10 1102Z" />
<glyph unicode="&#x2c6;" glyph-name="circumflex" horiz-adv-x="744" d="M582 1104L372 1234L160 1104L68 1226L378 1472L676 1230L582 1104Z" />
<glyph unicode="&#x2c7;" glyph-name="caron" horiz-adv-x="744" d="M366 1102L68 1344L162 1470L372 1340L586 1470L676 1346L366 1102Z" />
<glyph unicode="&#x2c9;" glyph-name="macron" horiz-adv-x="720" d="M68 1156V1374H650V1156H68Z" />
<glyph unicode="&#x2d8;" glyph-name="breve" horiz-adv-x="760" d="M692 1452Q692 1280 609 1190T378 1100Q229 1100 149 1187T68 1452H262Q261 1373 288 1342T378 1310Q440 1310 469 1342T498 1452H692Z" />
<glyph unicode="&#x2d9;" glyph-name="dotaccent" horiz-adv-x="514" d="M444 1268Q444 1181 405 1148T258 1114Q200 1114 164 1122T106 1147T77 1194T68 1268Q68 1354 108 1388T258 1422Q315 1422 351 1414T407 1389T435 1342T444 1268Z" />
<glyph unicode="&#x2da;" glyph-name="ring" horiz-adv-x="668" d="M410 1298Q410 1378 334 1378Q258 1378 258 1298Q258 1218 334 1218Q410 1218 410 1298ZM600 1302Q600 1199 528 1141T330 1082Q195 1082 132 1135T68 1294Q68 1396 140 1455T338 1514Q472 1514
536 1461T600 1302Z" />
<glyph unicode="&#x2db;" glyph-name="ogonek" horiz-adv-x="562" d="M494 -316Q448 -342 390 -356T282 -370Q177 -370 123 -331T68 -216Q68 -161 97 -104T176 0H436Q373 -42 347 -79T320 -156Q320 -178 333 -190T376 -202Q417 -202 454 -180L494 -316Z" />
<glyph unicode="&#x2dc;" glyph-name="tilde" horiz-adv-x="830" d="M760 1320Q716 1225 656 1176T510 1126Q466 1126 434 1138T377 1167T329 1200T288 1216Q263 1216 244 1198T190 1126L68 1214Q114 1310 174 1359T320 1408Q364 1408 396 1396T452 1367T499 1334T542
1318Q567 1318 586 1336T640 1408L760 1320Z" />
<glyph unicode="&#x2dd;" glyph-name="hungarumlaut" horiz-adv-x="1026" d="M636 1102L476 1184L738 1446L958 1332L636 1102ZM224 1100L68 1182L306 1458L522 1346L224 1100Z" />
<glyph unicode="&#x312;" glyph-name="uni0312" horiz-adv-x="506" d="M192 1118Q135 1118 102 1150T68 1240Q68 1289 89 1327T152 1390T258 1428T406 1436L438 1334Q376 1327 343 1307T310 1260Q310 1255 311 1253T314 1243T318 1228T320 1210Q320 1171 286 1145T192
1118Z" />
<glyph unicode="&#x315;" glyph-name="uni0315" horiz-adv-x="420" d="M224 1100L68 1126L134 1526L352 1484L224 1100Z" />
<glyph unicode="&#x326;" glyph-name="uni0326" horiz-adv-x="498" d="M306 -62Q363 -62 396 -94T430 -180Q430 -218 417 -248T377 -301T311 -339T219 -360T102 -366L68 -266Q188 -248 188 -200Q188 -194 183 -182T178 -152Q178 -114 212 -88T306 -62Z" />
<glyph unicode="&#x37e;" glyph-name="semicolon" horiz-adv-x="612" d="M500 140Q500 16 426 -107T196 -344L74 -246Q160 -182 199 -129T238 -24Q238 -5 222 10T190 39T162 76T150 142Q150 234 192 270T328 306Q420 306 460 270T500 140ZM500 860Q500 771 458
735T326 698Q235 698 193 734T150 860Q150 948 192 985T326 1022Q418 1022 459 986T500 860Z" />
<glyph unicode="&#x394;" glyph-name="Delta" horiz-adv-x="1150" d="M39 0V229Q72 372 108 514T182 797T262 1076T349 1350H798Q845 1208 887 1069T968 790T1041 511T1111 229V0H39ZM761 248Q714 453 661 655T549 1063Q535 1013 518 947T481 805T442 650T404
497T371 358T346 248H761Z" />
<glyph unicode="&#x3a9;" glyph-name="Omega" horiz-adv-x="1316" d="M726 0V197Q767 226 797 264T846 360T874 499T884 698Q884 774 877 835T857 943T823 1023T778 1078T721 1110T654 1120Q617 1120 587 1110T533 1077T489 1021T458 944T440 843T433 719Q433
596 442 510T470 364T519 265T591 197V0H59V212H275Q225 248 189 297T128 410T93 551T81 720Q81 793 93 870T133 1020T206 1157T317 1270T471 1347T672 1376Q831 1376 939 1327T1113 1193T1207 993T1236 746Q1236 649 1221 568T1178 421T1111 302T1021 212H1258V0H726Z"
/>
<glyph unicode="&#x3bc;" glyph-name="mu" horiz-adv-x="1108" d="M737 0L715 99Q691 76 664 56T608 21T550 -3T493 -12Q471 -12 452 -3T422 21Q422 21 422 6T422 -36T423 -95T423 -162T424 -230T425 -289T426 -330T426 -346H107V1009H425V461Q425 391 429 347T446
276T478 240T529 230Q545 230 563 234T599 246T638 265T678 290V1009H998V0H737Z" />
<glyph unicode="&#x3c0;" glyph-name="pi" horiz-adv-x="1250" d="M999 795H845Q845 660 846 565T850 404T858 301T871 243T891 218T917 212Q934 212 957 216T1001 226L1020 46Q972 17 915 -1T807 -19Q762 -19 727 -11T665 20T619 81T585 179T563 322T549 519Q547
552 547 585T547 654Q547 689 550 724T557 795H390Q390 789 390 759T388 684T387 582T385 467T383 351T381 247T380 167T379 124Q378 90 378 67T377 30T377 8T377 0H88Q88 -2 88 10T88 52T89 131T92 251Q94 328 95 413T97 574T100 710T102 795H6V1009H999V795Z"
/>
<glyph unicode="&#x1e02;" glyph-name="uni1E02" horiz-adv-x="1188" d="M768 416Q768 452 757 483T720 538T654 576T556 590H458V234Q485 232 515 230T566 228Q672 228 720 277T768 416ZM712 972Q712 1039 675 1078T560 1118H458V814H536Q627 814 669 859T712
972ZM1124 438Q1124 346 1090 267T984 126T800 31T534 -4Q486 -4 346 -2T126 0V1350H622Q838 1350 946 1263T1054 1024Q1054 920 1012 852T890 742Q997 720 1060 636T1124 438ZM725 1576Q725 1500 687 1469T551 1438Q499 1438 467 1445T415 1467T389 1509T381 1576Q381
1653 418 1682T553 1712Q605 1712 637 1706T689 1684T716 1643T725 1576Z" />
<glyph unicode="&#x1e03;" glyph-name="uni1E03" horiz-adv-x="1088" d="M107 1395H427V941Q449 960 476 976T533 1006T595 1027T663 1035Q759 1035 828 995T942 888T1008 733T1030 547Q1030 395 992 287T882 109T709 7T481 -26Q432 -26 383 -22T285 -12T191 3T107
21V1395ZM427 216Q443 209 466 205T523 200Q564 200 597 218T653 273T690 368T704 507Q704 580 695 633T668 721T625 773T570 790Q556 790 539 786T504 774T466 754T427 725V216ZM445 1617Q445 1580 437 1554T408 1512T352 1489T266 1482Q213 1482 179 1488T126
1509T99 1551T91 1617Q91 1656 99 1682T128 1724T182 1747T268 1754Q320 1754 354 1748T409 1726T437 1684T445 1617V1617Z" />
<glyph unicode="&#x1e0a;" glyph-name="uni1E0A" horiz-adv-x="1210" d="M794 680Q794 904 730 1005T536 1106Q512 1106 496 1106T462 1104V250Q490 248 505 247T534 246Q668 246 731 357T794 680ZM1146 714Q1146 363 985 178T490 -8Q423 -8 296 -5T126 0V1350Q207
1350 348 1352T552 1354Q712 1354 826 1308T1010 1178T1113 977T1146 714ZM730 1576Q730 1500 692 1469T556 1438Q504 1438 472 1445T420 1467T394 1509T386 1576Q386 1653 423 1682T558 1712Q610 1712 642 1706T694 1684T721 1643T730 1576Z" />
<glyph unicode="&#x1e0b;" glyph-name="uni1E0B" horiz-adv-x="1088" d="M720 0L697 97Q668 69 636 47T569 8T498 -17T423 -26Q326 -26 257 13T144 120T79 275T58 462Q58 614 96 723T201 901T362 1002T565 1035Q593 1035 619 1033T661 1029V1395H981V0H720ZM661
793Q641 801 617 805T563 810Q522 810 489 792T433 736T397 640T384 502Q384 427 393 374T420 286T462 235T517 219Q547 219 584 235T661 283V793ZM999 1617Q999 1580 991 1554T962 1512T906 1489T820 1482Q767 1482 733 1488T680 1509T653 1551T645 1617Q645 1656
653 1682T682 1724T736 1747T822 1754Q874 1754 908 1748T963 1726T991 1684T999 1617V1617Z" />
<glyph unicode="&#x1e1e;" glyph-name="uni1E1E" horiz-adv-x="912" d="M462 1096V788H812V540H462V0H126V1350H854V1096H462ZM673 1576Q673 1500 635 1469T499 1438Q447 1438 415 1445T363 1467T337 1509T329 1576Q329 1653 366 1682T501 1712Q553 1712 585 1706T637
1684T664 1643T673 1576Z" />
<glyph unicode="&#x1e1f;" glyph-name="uni1E1F" horiz-adv-x="620" d="M641 1186Q610 1195 584 1199T533 1203Q484 1203 465 1179T446 1104V1009H602V788H446V0H126V788H18V1009H126V1078Q126 1156 141 1218T192 1324T285 1390T426 1413Q468 1413 503 1410T569
1399T627 1383T680 1364L641 1186ZM564 1617Q564 1580 556 1554T527 1512T471 1489T385 1482Q332 1482 298 1488T245 1509T218 1551T210 1617Q210 1656 218 1682T247 1724T301 1747T387 1754Q439 1754 473 1748T528 1726T556 1684T564 1617V1617Z" />
<glyph unicode="&#x1e40;" glyph-name="uni1E40" horiz-adv-x="1706" d="M1260 0Q1257 238 1248 469T1222 920H1220L974 0H686L442 920H440Q425 700 418 474T408 0H96Q105 346 128 680T190 1350H632L860 542H862L1094 1350H1514Q1550 1014 1574 681T1614 0H1260ZM1025
1576Q1025 1500 987 1469T851 1438Q799 1438 767 1445T715 1467T689 1509T681 1576Q681 1653 718 1682T853 1712Q905 1712 937 1706T989 1684T1016 1643T1025 1576Z" />
<glyph unicode="&#x1e41;" glyph-name="uni1E41" horiz-adv-x="1652" d="M1554 574Q1554 530 1550 332T1546 0H1226Q1226 74 1227 147T1229 287T1231 420T1232 520Q1232 604 1227 655T1209 734T1179 770T1132 780Q1103 780 1064 763T980 714Q984 689 986 657T988
582V0H668V520Q668 604 663 655T646 734T617 770T572 780Q543 780 506 764T426 720V0H106V1010H368L390 910Q451 968 525 1001T682 1034Q772 1034 835 999T930 898Q1003 965 1079 999T1242 1034Q1404 1034 1479 925T1554 574ZM1013 1268Q1013 1181 974 1148T827
1114Q769 1114 733 1122T675 1147T646 1194T637 1268Q637 1354 677 1388T827 1422Q884 1422 920 1414T976 1389T1004 1342T1013 1268Z" />
<glyph unicode="&#x1e56;" glyph-name="uni1E56" horiz-adv-x="1114" d="M732 892Q732 1004 684 1057T524 1110H462V672H524Q630 672 681 728T732 892ZM1084 920Q1084 808 1053 718T953 563T773 463T504 428H462V0H126V1350Q201 1350 352 1352T574 1354Q710 1354
807 1325T966 1239T1055 1103T1084 920ZM730 1576Q730 1500 692 1469T556 1438Q504 1438 472 1445T420 1467T394 1509T386 1576Q386 1653 423 1682T558 1712Q610 1712 642 1706T694 1684T721 1643T730 1576Z" />
<glyph unicode="&#x1e57;" glyph-name="uni1E57" horiz-adv-x="1088" d="M704 508Q704 649 668 719T570 790Q505 790 426 726V216Q468 200 524 200Q609 200 656 276T704 508ZM1030 548Q1030 400 993 291T888 111T727 8T518 -26Q494 -26 469 -25T426 -20V-346H106V1010H366L390
912Q451 970 520 1002T662 1034Q756 1034 826 996T942 891T1008 736T1030 548ZM731 1268Q731 1181 692 1148T545 1114Q487 1114 451 1122T393 1147T364 1194T355 1268Q355 1354 395 1388T545 1422Q602 1422 638 1414T694 1389T722 1342T731 1268Z" />
<glyph unicode="&#x1e60;" glyph-name="uni1E60" horiz-adv-x="992" d="M958 394Q958 307 927 232T834 99T677 9T462 -24Q343 -24 236 13T36 118L114 288Q201 255 275 238T400 220Q488 220 536 255T584 356Q584 408 550 446T449 520T314 594T188 680T96 800T60
972Q60 1063 93 1137T187 1264T331 1344T514 1372Q614 1372 709 1343T898 1252L820 1082Q753 1108 691 1120T576 1132Q495 1132 454 1100T412 1010Q412 957 448 919T554 842T696 766T825 681T920 562T958 394ZM668 1591Q668 1515 630 1484T494 1453Q442 1453 410
1460T358 1482T332 1524T324 1591Q324 1668 361 1697T496 1727Q548 1727 580 1721T632 1699T659 1658T668 1591Z" />
<glyph unicode="&#x1e61;" glyph-name="uni1E61" horiz-adv-x="850" d="M812 310Q812 238 783 177T697 71T559 1T376 -24Q289 -24 209 -2T40 68L64 228Q151 212 210 205T316 198Q399 198 435 222T472 286Q472 316 451 336T401 369T310 404T205 450T126 506T67
592T44 716Q44 787 72 846T152 947T276 1011T436 1034Q512 1034 585 1015T744 948L714 790Q645 806 598 812T506 818Q442 818 410 796T378 740Q378 710 400 690T450 657T542 622T649 576T729 520T789 434T812 310ZM612 1277Q612 1190 573 1157T426 1123Q368 1123
332 1131T274 1156T245 1203T236 1277Q236 1363 276 1397T426 1431Q483 1431 519 1423T575 1398T603 1351T612 1277Z" />
<glyph unicode="&#x1e6a;" glyph-name="uni1E6A" horiz-adv-x="934" d="M632 1094V0H296V1094H26V1350H906V1094H632ZM638 1576Q638 1500 600 1469T464 1438Q412 1438 380 1445T328 1467T302 1509T294 1576Q294 1653 331 1682T466 1712Q518 1712 550 1706T602
1684T629 1643T638 1576Z" />
<glyph unicode="&#x1e6b;" glyph-name="uni1E6B" horiz-adv-x="700" d="M666 48Q591 9 526 -7T396 -24Q249 -24 188 35T126 238V788H18V1010H138Q158 1077 175 1147T212 1306H446V1010H638V788H446V316Q446 258 463 236T518 214Q545 214 575 217T644 230L666 48ZM444
1268Q444 1181 405 1148T258 1114Q200 1114 164 1122T106 1147T77 1194T68 1268Q68 1354 108 1388T258 1422Q315 1422 351 1414T407 1389T435 1342T444 1268Z" />
<glyph unicode="&#x1e80;" glyph-name="Wgrave" horiz-adv-x="1736" d="M1716 1350Q1685 1169 1652 997T1583 659T1507 329T1422 0H1052L902 630L862 856H860L822 632L684 0H318Q271 165 231 328T154 656T86 991T20 1350H380Q392 1258 407 1162T451 904T495 645T532
422H534L570 630L730 1350H1064L1230 622L1266 422H1270Q1292 558 1311 678T1346 910T1378 1132T1406 1350H1716ZM1011 1426L589 1538L731 1722L1109 1560L1011 1426Z" />
<glyph unicode="&#x1e81;" glyph-name="wgrave" horiz-adv-x="1558" d="M1534 1010Q1506 742 1446 497T1300 0H912L798 512L774 666H770L756 514L654 0H262L20 1010H362L460 504L488 338H490L514 500L610 1010H986L1104 488L1126 340H1128Q1168 530 1195 690T1226
1010H1534ZM821 1102L495 1344L717 1458L981 1184L821 1102Z" />
<glyph unicode="&#x1e82;" glyph-name="Wacute" horiz-adv-x="1736" d="M1716 1350Q1685 1169 1652 997T1583 659T1507 329T1422 0H1052L902 630L862 856H860L822 632L684 0H318Q271 165 231 328T154 656T86 991T20 1350H380Q392 1258 407 1162T451 904T495 645T532
422H534L570 630L730 1350H1064L1230 622L1266 422H1270Q1292 558 1311 678T1346 910T1378 1132T1406 1350H1716ZM775 1426L677 1560L1055 1722L1197 1538L775 1426Z" />
<glyph unicode="&#x1e83;" glyph-name="wacute" horiz-adv-x="1558" d="M1534 1010Q1506 742 1446 497T1300 0H912L798 512L774 666H770L756 514L654 0H262L20 1010H362L460 504L488 338H490L514 500L610 1010H986L1104 488L1126 340H1128Q1168 530 1195 690T1226
1010H1534ZM747 1102L585 1184L851 1458L1071 1344L747 1102Z" />
<glyph unicode="&#x1e84;" glyph-name="Wdieresis" horiz-adv-x="1736" d="M1716 1350Q1685 1169 1652 997T1583 659T1507 329T1422 0H1052L902 630L862 856H860L822 632L684 0H318Q271 165 231 328T154 656T86 991T20 1350H380Q392 1258 407 1162T451 904T495
645T532 422H534L570 630L730 1350H1064L1230 622L1266 422H1270Q1292 558 1311 678T1346 910T1378 1132T1406 1350H1716ZM1255 1568Q1255 1499 1222 1469T1109 1438Q1026 1438 994 1466T961 1568Q961 1639 994 1669T1109 1700Q1189 1700 1222 1671T1255 1568ZM835
1568Q835 1498 802 1468T689 1438Q607 1438 574 1466T541 1568Q541 1639 575 1669T689 1700Q770 1700 802 1671T835 1568Z" />
<glyph unicode="&#x1e85;" glyph-name="wdieresis" horiz-adv-x="1558" d="M1534 1010Q1506 742 1446 497T1300 0H912L798 512L774 666H770L756 514L654 0H262L20 1010H362L460 504L488 338H490L514 500L610 1010H986L1104 488L1126 340H1128Q1168 530 1195 690T1226
1010H1534ZM744 1262Q744 1188 711 1156T596 1124Q515 1124 482 1155T448 1262Q448 1339 481 1371T596 1404Q679 1404 711 1373T744 1262ZM1150 1262Q1150 1188 1117 1156T1004 1124Q922 1124 889 1154T856 1262Q856 1339 889 1371T1004 1404Q1085 1404 1117 1373T1150
1262Z" />
<glyph unicode="&#x1ef2;" glyph-name="Ygrave" horiz-adv-x="988" d="M1002 1350Q924 1101 840 903T660 550V0H324V550Q221 733 139 926T-14 1350H348Q385 1215 426 1094T516 860Q562 963 600 1085T674 1350H1002ZM568 1426L146 1538L288 1722L666 1560L568 1426Z" />
<glyph unicode="&#x1ef3;" glyph-name="ygrave" horiz-adv-x="988" d="M970 1010Q930 652 849 389T660 -40T433 -282T188 -360Q152 -360 107 -347T18 -310V-128Q42 -132 74 -134T130 -136Q213 -136 254 -104Q298 -69 298 -22Q298 3 290 40T262 136L12 1010H354L486
464Q504 400 512 346T518 250Q572 445 605 642T642 1010H970ZM536 1102L210 1344L432 1458L696 1184L536 1102Z" />
<glyph unicode="&#x200b;" glyph-name="uni200B" horiz-adv-x="0" />
<glyph unicode="&#x2010;" glyph-name="hyphen" horiz-adv-x="478" d="M44 450V684H476V450H44Z" />
<glyph unicode="&#x2011;" glyph-name="hyphen" horiz-adv-x="478" d="M44 450V684H476V450H44Z" />
<glyph unicode="&#x2013;" glyph-name="endash" horiz-adv-x="1000" d="M88 488V714H912V488H88Z" />
<glyph unicode="&#x2014;" glyph-name="emdash" horiz-adv-x="2000" d="M232 488V714H1768V488H232Z" />
<glyph unicode="&#x2015;" glyph-name="uni2015" horiz-adv-x="2000" d="M232 488V714H1768V488H232Z" />
<glyph unicode="&#x2018;" glyph-name="quoteleft" horiz-adv-x="576" d="M104 1134Q104 1274 175 1391T398 1612L520 1498Q443 1432 412 1388T380 1308Q380 1289 386 1281T414 1248T446 1200T456 1134Q456 1079 448 1044T421 988T366 958T272 948Q219 948 186
958T135 989T111 1045T104 1134Z" />
<glyph unicode="&#x2019;" glyph-name="quoteright" horiz-adv-x="582" d="M478 1362Q478 1221 407 1105T182 884L60 998Q137 1064 168 1108T200 1188Q200 1207 194 1215T167 1248T136 1296T126 1362Q126 1417 133 1452T160 1508T215 1538T308 1548Q362 1548 395
1538T446 1507T471 1451T478 1362Z" />
<glyph unicode="&#x201a;" glyph-name="quotesinglbase" horiz-adv-x="600" d="M474 138Q474 -3 404 -119T180 -340L56 -226Q133 -160 164 -116T196 -36Q196 -17 190 -9T163 24T132 72T122 138Q122 193 129 228T157 284T212 314T304 324Q358 324 391 314T443 283T467
227T474 138Z" />
<glyph unicode="&#x201c;" glyph-name="quotedblleft" horiz-adv-x="972" d="M104 1136Q104 1271 171 1384T392 1606L504 1498Q422 1427 390 1382T358 1302Q358 1283 363 1275T389 1244T418 1197T428 1134Q428 1081 421 1048T396 995T344 965T258 956Q209 956
179 966T133 997T110 1051T104 1136ZM532 1136Q532 1270 597 1382T804 1594L918 1486Q846 1424 816 1380T786 1302Q786 1283 791 1275T817 1244T846 1197T856 1134Q856 1081 849 1048T824 995T772 965T686 956Q637 956 607 966T561 997T538 1051T532 1136Z" />
<glyph unicode="&#x201d;" glyph-name="quotedblright" horiz-adv-x="978" d="M874 1358Q874 1223 807 1110T586 888L472 996Q555 1066 586 1111T618 1192Q618 1211 613 1219T588 1250T559 1297T550 1360Q550 1413 557 1446T582 1499T634 1529T720 1538Q769 1538
799 1528T845 1497T868 1443T874 1358ZM446 1358Q446 1224 381 1112T174 900L60 1010Q132 1071 162 1114T192 1192Q192 1211 187 1219T161 1250T132 1297T122 1360Q122 1413 129 1446T154 1499T206 1529T292 1538Q341 1538 371 1528T417 1497T440 1443T446 1358Z"
/>
<glyph unicode="&#x201e;" glyph-name="quotedblbase" horiz-adv-x="996" d="M870 134Q870 -1 803 -114T582 -336L470 -228Q552 -157 584 -112T616 -32Q616 -13 611 -5T585 26T556 73T546 136Q546 189 553 222T578 275T630 305T716 314Q765 314 795 304T841 273T864
219T870 134ZM442 134Q442 0 377 -112T170 -324L56 -214Q128 -153 158 -110T188 -32Q188 -13 183 -5T157 26T128 73T118 136Q118 189 125 222T150 275T202 305T288 314Q337 314 367 304T413 273T436 219T442 134Z" />
<glyph unicode="&#x2020;" glyph-name="dagger" horiz-adv-x="790" d="M544 982V379H245V982H50V1181H245V1418H544V1181H738V982H544Z" />
<glyph unicode="&#x2021;" glyph-name="daggerdbl" horiz-adv-x="790" d="M542 259V0H248V259H50V459H248V953H50V1153H248V1418H542V1153H738V953H542V459H738V259H542Z" />
<glyph unicode="&#x2022;" glyph-name="bullet" horiz-adv-x="1000" d="M500 1002Q581 1002 653 972T781 886T867 758T898 604Q898 523 868 451T782 323T654 237T500 206Q419 206 347 236T219 322T133 450T102 604Q102 685 132 757T218 885T346 971T500 1002Z" />
<glyph unicode="&#x2026;" glyph-name="ellipsis" horiz-adv-x="1554" d="M470 148Q470 96 463 64T437 13T386 -15T298 -24Q244 -24 211 -16T158 12T132 63T124 146Q124 200 131 233T158 285T210 313T298 322Q352 322 385 314T437 286T462 234T470 148ZM948 148Q948
96 941 64T914 13T862 -15T774 -24Q720 -24 687 -16T634 12T608 63T600 146Q600 200 607 233T634 285T687 313T776 322Q830 322 863 314T914 286T940 234T948 148ZM1424 148Q1424 96 1417 64T1390 13T1338 -15T1250 -24Q1196 -24 1163 -16T1110 12T1084 63T1076
146Q1076 200 1083 233T1110 285T1163 313T1252 322Q1306 322 1339 314T1390 286T1416 234T1424 148Z" />
<glyph unicode="&#x2030;" glyph-name="perthousand" horiz-adv-x="2126" d="M710 1050Q710 883 628 806T382 728Q296 728 237 746T142 803T91 903T75 1052Q75 1137 96 1198T158 1298T260 1357T404 1376Q490 1376 548 1357T643 1299T694 1198T710 1050V1050ZM481
1051Q481 1096 475 1126T457 1176T429 1203T392 1212Q374 1212 358 1205T330 1179T312 1130T305 1051Q305 1005 311 975T329 926T357 900T393 892Q414 892 430 900T457 927T475 976T481 1051V1051ZM283 -49L123 42L1140 1399L1300 1308L283 -49ZM1347 296Q1347
129 1265 52T1020 -26Q933 -26 874 -8T779 49T728 149T712 298Q712 383 733 444T795 544T898 603T1041 622Q1127 622 1186 603T1281 545T1332 444T1347 296V296ZM1118 297Q1118 342 1112 372T1094 422T1066 449T1030 458Q1011 458 995 451T967 425T949 376T942
297Q942 251 948 221T966 172T994 146T1030 138Q1051 138 1067 146T1094 173T1112 222T1118 297V297ZM2052 296Q2052 129 1970 52T1724 -26Q1637 -26 1578 -8T1483 49T1432 149T1417 298Q1417 383 1437 444T1499 544T1602 603T1745 622Q1831 622 1890 603T1985
545T2036 444T2052 296V296ZM1822 297Q1822 342 1816 372T1799 422T1771 449T1734 458Q1715 458 1699 451T1671 425T1653 376T1646 297Q1646 251 1652 221T1671 172T1699 146T1734 138Q1755 138 1771 146T1799 173T1816 222T1822 297V297Z" />
<glyph unicode="&#x2039;" glyph-name="guilsinglleft" horiz-adv-x="620" d="M326 159L50 582L327 1005L544 934L357 582L544 227L326 159Z" />
<glyph unicode="&#x203a;" glyph-name="guilsinglright" horiz-adv-x="620" d="M294 1005L569 582L292 159L76 230L263 582L76 937L294 1005Z" />
<glyph unicode="&#x2044;" glyph-name="fraction" horiz-adv-x="194" d="M-402 -176L-562 -88L588 1466L748 1376L-402 -176Z" />
<glyph unicode="&#x2060;" glyph-name="uni2060" horiz-adv-x="0" />
<glyph unicode="&#x2070;" glyph-name="zero.superior" horiz-adv-x="832" d="M780 1077Q780 966 756 889T686 763T570 693T408 671Q309 671 242 692T132 758T70 878T50 1061Q50 1168 72 1244T139 1368T254 1440T422 1463Q521 1463 588 1444T697 1382T760 1264T780
1077ZM498 1065Q498 1140 494 1184T480 1250T455 1281T414 1289Q389 1289 374 1280T349 1247T335 1180T330 1067Q330 997 334 954T348 888T373 855T414 845Q438 845 454 855T479 890T493 956T498 1065Z" />
<glyph unicode="&#x2074;" glyph-name="four.superior" horiz-adv-x="736" d="M626 823V693H364V823H26V997Q47 1046 74 1102T132 1216T195 1332T260 1441H626V1007H702V823H626ZM364 1281Q346 1255 326 1221T285 1150T247 1076T216 1007H364V1281Z" />
<glyph unicode="&#x2075;" glyph-name="five.superior" horiz-adv-x="726" d="M338 1251L332 1145Q345 1147 369 1148T418 1149Q480 1149 529 1136T612 1095T664 1027T682 931Q682 866 659 817T590 736T479 687T330 671Q301 671 267 675T196 688T122 709T50 735L66
857Q126 847 174 842T270 837Q305 837 329 842T368 856T389 880T396 915Q396 934 390 948T369 973T330 988T270 993Q233 993 185 990T84 981L116 1441H616V1251H338Z" />
<glyph unicode="&#x2076;" glyph-name="six.superior" horiz-adv-x="806" d="M694 1283Q622 1291 579 1295T496 1299Q454 1299 425 1290T376 1260T346 1209T334 1133Q372 1151 413 1160T500 1169Q573 1169 623 1154T702 1110T745 1040T758 945Q758 883 735 833T666
746T555 691T404 671Q318 671 257 687T152 745T85 864T62 1061Q62 1168 89 1245T166 1370T287 1440T448 1463Q479 1463 512 1460T580 1449T650 1431T720 1405L694 1283ZM488 931Q488 982 470 1001T412 1021Q393 1021 373 1016T332 999Q332 948 337 915T351 862T376
835T412 827Q449 827 468 851T488 931Z" />
<glyph unicode="&#x2077;" glyph-name="seven.superior" horiz-adv-x="678" d="M498 995Q468 942 439 895T382 807T326 732T272 669L68 727L328 1241H32V1441H648V1253L498 995Z" />
<glyph unicode="&#x2078;" glyph-name="eight.superior" horiz-adv-x="816" d="M764 903Q764 849 745 806T681 732T566 684T392 667Q297 667 231 681T125 722T68 789T50 881Q50 912 59 938T85 985T126 1022T182 1051Q124 1082 96 1128T68 1245Q68 1293 88 1333T150
1403T258 1449T414 1465Q501 1465 563 1453T666 1415T726 1352T746 1259Q746 1199 719 1161T632 1091Q698 1066 731 1022T764 903ZM478 1243Q478 1283 461 1302T404 1321Q371 1321 354 1302T336 1247Q336 1230 341 1216T356 1189T382 1168T418 1153Q449 1168 463
1189T478 1243ZM492 881Q492 898 486 912T467 938T432 960T380 981Q352 968 337 943T322 889Q322 849 344 830T412 811Q431 811 446 815T471 829T487 852T492 881Z" />
<glyph unicode="&#x2079;" glyph-name="nine.superior" horiz-adv-x="802" d="M90 855Q162 844 213 839T308 833Q350 833 379 842T428 871T458 922T470 999Q433 981 391 972T304 963Q232 963 183 978T104 1022T61 1091T48 1185Q48 1246 70 1297T137 1385T248 1443T400
1463Q486 1463 548 1447T653 1389T719 1270T742 1073Q742 964 715 887T638 763T517 693T356 671Q294 671 218 686T66 731L90 855ZM472 1131Q472 1183 468 1217T454 1270T429 1297T392 1305Q355 1305 337 1281T318 1203Q318 1176 322 1158T335 1130T358 1116T392
1111Q411 1111 431 1116T472 1131Z" />
<glyph unicode="&#x2080;" glyph-name="zero.inferior" horiz-adv-x="832" d="M780 248Q780 137 756 60T686 -66T570 -136T408 -158Q309 -158 242 -137T132 -71T70 49T50 232Q50 339 72 415T139 539T254 611T422 634Q521 634 588 615T697 553T760 435T780 248ZM498
236Q498 311 494 355T480 421T455 452T414 460Q389 460 374 451T349 418T335 351T330 238Q330 168 334 125T348 59T373 26T414 16Q438 16 454 26T479 61T493 127T498 236Z" />
<glyph unicode="&#x2083;" glyph-name="three.inferior" horiz-adv-x="730" d="M58 30Q87 25 111 22T158 16T207 12T258 10Q296 10 322 15T364 30T387 54T394 86Q394 106 387 120T364 144T319 159T248 164H152V332H258Q321 332 348 349T376 404Q376 435 355 449T284
464Q267 464 245 462T197 456T147 445T98 432L62 580Q138 606 212 620T360 634Q437 634 493 621T586 581T640 517T658 428Q658 397 650 370T627 322T590 285T540 260Q575 252 601 237T644 200T669 154T678 98Q678 28 651 -21T577 -101T467 -144T330 -158Q256 -158
182 -144T40 -102L58 30Z" />
<glyph unicode="&#x2086;" glyph-name="six.inferior" horiz-adv-x="806" d="M694 454Q622 462 579 466T496 470Q454 470 425 461T376 431T346 380T334 304Q372 322 413 331T500 340Q573 340 623 325T702 281T745 211T758 116Q758 54 735 4T666 -83T555 -138T404
-158Q318 -158 257 -142T152 -84T85 35T62 232Q62 339 89 416T166 541T287 611T448 634Q479 634 512 631T580 620T650 602T720 576L694 454ZM488 102Q488 153 470 172T412 192Q393 192 373 187T332 170Q332 119 337 86T351 33T376 6T412 -2Q449 -2 468 22T488 102Z"
/>
<glyph unicode="&#x2089;" glyph-name="nine.inferior" horiz-adv-x="802" d="M90 26Q162 15 213 10T308 4Q350 4 379 13T428 42T458 93T470 170Q433 152 391 143T304 134Q232 134 183 149T104 193T61 262T48 356Q48 417 70 468T137 556T248 614T400 634Q486 634
548 618T653 560T719 441T742 244Q742 135 715 58T638 -66T517 -136T356 -158Q294 -158 218 -143T66 -98L90 26ZM472 302Q472 354 468 388T454 441T429 468T392 476Q355 476 337 452T318 374Q318 347 322 329T335 301T358 287T392 282Q411 282 431 287T472 302Z"
/>
<glyph unicode="&#x20ac;" glyph-name="Euro" horiz-adv-x="1000" d="M701 938V739H426Q424 725 424 713T423 687Q423 670 423 654T426 618H701V419H452Q460 371 477 335T519 273T576 236T648 223Q678 223 706 228T759 246T806 274T848 312L971 153Q938 113 898
80T811 24T710 -13T595 -26Q492 -26 410 2T268 86T170 225T117 419H2V618H100Q99 633 99 645T99 672Q99 686 99 703T101 739H2V938H122Q143 1043 187 1125T294 1262T435 1347T606 1376Q658 1376 708 1365T803 1330T886 1270T954 1183L824 1041Q792 1084 749 1108T647
1132Q606 1132 574 1118T518 1077T478 1016T452 938H701Z" />
<glyph unicode="&#x2122;" glyph-name="trademark" horiz-adv-x="852" d="M669 1013Q669 1035 669 1058T668 1104T668 1146T666 1185L613 1013H487L433 1184Q433 1166 433 1146T432 1104T432 1059T431 1013H314Q315 1100 319 1182T330 1350H506L558 1168L608 1350H773Q782
1263 786 1182T792 1013H669ZM234 1245V1013H102V1245H37V1350H295V1245H234Z" />
<glyph unicode="&#x2126;" glyph-name="Omega" horiz-adv-x="1316" d="M726 0V197Q767 226 797 264T846 360T874 499T884 698Q884 774 877 835T857 943T823 1023T778 1078T721 1110T654 1120Q617 1120 587 1110T533 1077T489 1021T458 944T440 843T433 719Q433
596 442 510T470 364T519 265T591 197V0H59V212H275Q225 248 189 297T128 410T93 551T81 720Q81 793 93 870T133 1020T206 1157T317 1270T471 1347T672 1376Q831 1376 939 1327T1113 1193T1207 993T1236 746Q1236 649 1221 568T1178 421T1111 302T1021 212H1258V0H726Z"
/>
<glyph unicode="&#x2202;" glyph-name="partialdiff" horiz-adv-x="1092" d="M467 1438Q605 1389 710 1318T886 1147T992 916T1028 617Q1028 513 1013 426T967 268T892 142T791 52T665 -4T517 -23Q405 -23 318 6T170 94T79 243T47 457Q47 592 78 696T174 872T335
979T566 1016Q572 1016 578 1016T592 1014T604 1012T614 1009Q591 1051 560 1087T488 1156T394 1222T273 1288L467 1438ZM687 537Q687 617 683 677T670 786Q661 790 649 793T622 798T594 801T570 803Q529 803 496 784T440 727T403 634T389 506Q389 427 400 373T431
285T480 236T548 221Q576 221 601 232T645 277T675 373T687 537V537Z" />
<glyph unicode="&#x2206;" glyph-name="Delta" horiz-adv-x="1150" d="M39 0V229Q72 372 108 514T182 797T262 1076T349 1350H798Q845 1208 887 1069T968 790T1041 511T1111 229V0H39ZM761 248Q714 453 661 655T549 1063Q535 1013 518 947T481 805T442 650T404
497T371 358T346 248H761Z" />
<glyph unicode="&#x220f;" glyph-name="product" horiz-adv-x="1306" d="M1168 1093V0H832V1093H475V0H139V1093H33V1350H1275V1093H1168Z" />
<glyph unicode="&#x2211;" glyph-name="summation" horiz-adv-x="1000" d="M79 0V229L464 694L95 1118V1350H901V1097H477L819 706L454 259H933V0H79Z" />
<glyph unicode="&#x2212;" glyph-name="minus" horiz-adv-x="1000" d="M68 490V714H932V490H68Z" />
<glyph unicode="&#x2215;" glyph-name="fraction" horiz-adv-x="194" d="M-402 -176L-562 -88L588 1466L748 1376L-402 -176Z" />
<glyph unicode="&#x2219;" glyph-name="periodcentered" horiz-adv-x="564" d="M460 600Q460 546 453 513T426 461T373 433T284 424Q228 424 194 432T141 460T114 512T106 598Q106 653 113 687T140 741T194 769T286 778Q340 778 373 770T426 741T452 688T460 600Z" />
<glyph unicode="&#x221a;" glyph-name="radical" horiz-adv-x="1000" d="M1004 1350Q974 1176 939 1008T860 673T764 339T649 0H300L114 801H13V1009H370L503 352Q536 473 565 593T620 837T667 1087T707 1350H1004Z" />
<glyph unicode="&#x221e;" glyph-name="infinity" horiz-adv-x="2030" d="M1953 606Q1953 520 1928 445T1847 312T1702 222T1483 189Q1427 189 1370 204T1254 248T1134 317T1008 409Q959 369 903 330T785 259T659 209T524 189Q405 189 321 221T183 306T106 431T81
581Q81 673 113 750T206 882T352 968T543 999Q602 999 661 983T779 938T897 866T1019 773Q1068 812 1125 852T1244 924T1372 978T1505 999Q1619 999 1703 969T1843 887T1926 762T1953 606V606ZM1618 596Q1618 619 1612 643T1591 687T1554 718T1496 730Q1472 730
1446 721T1390 694T1328 651T1259 596Q1298 563 1331 537T1394 494T1448 468T1498 458Q1530 458 1553 469T1590 500T1611 545T1618 596V596ZM417 592Q417 568 423 544T445 501T483 470T540 458Q564 458 589 467T643 493T702 535T768 591Q731 623 699 649T639 693T586
721T539 730Q506 730 483 719T445 688T424 644T417 592V592Z" />
<glyph unicode="&#x222b;" glyph-name="integral'" horiz-adv-x="800" d="M742 1202Q714 1208 689 1211T641 1215Q592 1215 573 1189T554 1100V-34Q554 -112 539 -174T488 -280T395 -346T254 -370Q214 -370 180 -365T116 -352T59 -333T7 -308L46 -128Q74 -134
99 -137T147 -141Q196 -141 215 -115T234 -26V1108Q234 1186 249 1248T300 1354T393 1420T534 1444Q574 1444 608 1439T672 1426T729 1407T781 1382L742 1202Z" />
<glyph unicode="&#x2248;" glyph-name="approxequal" horiz-adv-x="1000" d="M941 764Q905 732 872 709T805 670T737 648T666 640Q620 640 585 648T520 667T465 692T416 717T367 736T311 744Q291 744 271 739T230 722T186 694T139 656L59 832Q95 864 128 887T195
926T263 948T335 956Q380 956 415 948T480 929T535 904T584 879T633 860T689 852Q708 852 728 857T770 874T814 902T862 940L941 764ZM941 370Q905 338 872 315T805 276T737 254T666 246Q620 246 585 254T520 273T465 298T416 323T367 342T311 350Q291 350 271
345T230 328T186 300T139 262L59 438Q95 470 128 493T195 532T263 554T335 562Q380 562 415 554T480 535T535 510T584 485T633 466T689 458Q708 458 728 463T770 480T814 508T862 546L941 370Z" />
<glyph unicode="&#x2260;" glyph-name="notequal" horiz-adv-x="1000" d="M483 318L326 18L120 121L225 318H71V521H329L414 681H71V884H520L677 1184L883 1082L777 884H931V681H673L588 521H931V318H483Z" />
<glyph unicode="&#x2264;" glyph-name="lessequal" horiz-adv-x="1000" d="M75 0V212H923V0H75ZM843 283L75 620V832L843 1168L926 953L366 729L926 505L843 283Z" />
<glyph unicode="&#x2265;" glyph-name="greaterequal" horiz-adv-x="1000" d="M75 0V212H923V0H75ZM156 283L72 499L633 722L72 947L156 1168L923 832V620L156 283Z" />
<glyph unicode="&#x25ca;" glyph-name="lozenge" horiz-adv-x="1000" d="M616 0H385L25 678L385 1350H614L974 673L616 0ZM488 1011L312 701L515 339L692 650L488 1011Z" />
<glyph unicode="&#xeeee;" glyph-name="BBox" horiz-adv-x="350" d="M350 1800V-400H0V1800H350Z" />
<glyph unicode="&#xf000;" glyph-name="LuFo" horiz-adv-x="360" d="M360 -400H0V-40H360V-400ZM40 -80V-360H320V-80H40ZM80 -120H120V-280H200V-320H80V-120ZM280 -120V-320H240V-240H160V-200H240V-160H160V-120H280ZM360 1410H0V1770H360V1410ZM40 1730V1450H320V1730H40ZM80
1690H120V1530H200V1490H80V1690ZM280 1690V1490H240V1570H160V1610H240V1650H160V1690H280Z" />
<glyph unicode="&#xf6be;" glyph-name="dotlessj" horiz-adv-x="534" d="M427 98Q427 25 414 -38T371 -158T298 -266T193 -369L-20 -279Q39 -204 73 -125T107 44V1009H427V98Z" />
<glyph unicode="&#xf6c1;" glyph-name="Scedilla" horiz-adv-x="992" d="M958 394Q958 307 927 232T834 99T677 9T462 -24Q343 -24 236 13T36 118L114 288Q201 255 275 238T400 220Q488 220 536 255T584 356Q584 408 550 446T449 520T314 594T188 680T96 800T60
972Q60 1063 93 1137T187 1264T331 1344T514 1372Q614 1372 709 1343T898 1252L820 1082Q753 1108 691 1120T576 1132Q495 1132 454 1100T412 1010Q412 957 448 919T554 842T696 766T825 681T920 562T958 394ZM608 -84Q626 -175 582 -244T430 -372L244 -306Q317
-243 336 -195T338 -84H608Z" />
<glyph unicode="&#xf6c2;" glyph-name="scedilla" horiz-adv-x="850" d="M812 310Q812 238 783 177T697 71T559 1T376 -24Q289 -24 209 -2T40 68L64 228Q151 212 210 205T316 198Q399 198 435 222T472 286Q472 316 451 336T401 369T310 404T205 450T126 506T67
592T44 716Q44 787 72 846T152 947T276 1011T436 1034Q512 1034 585 1015T744 948L714 790Q645 806 598 812T506 818Q442 818 410 796T378 740Q378 710 400 690T450 657T542 622T649 576T729 520T789 434T812 310ZM527 -84Q545 -175 501 -244T349 -372L163 -306Q236
-243 255 -195T257 -84H527Z" />
<glyph unicode="&#xf6c9;" glyph-name="acute.cap" horiz-adv-x="656" d="M166 1426L68 1560L446 1722L588 1538L166 1426Z" />
<glyph unicode="&#xf6ca;" glyph-name="caron.cap" horiz-adv-x="770" d="M150 1722L386 1630L624 1722L700 1598L384 1426L68 1594L150 1722Z" />
<glyph unicode="&#xf6cb;" glyph-name="dieresis.cap" horiz-adv-x="850" d="M782 1568Q782 1499 749 1469T636 1438Q553 1438 521 1466T488 1568Q488 1639 521 1669T636 1700Q716 1700 749 1671T782 1568ZM362 1568Q362 1498 329 1468T216 1438Q134 1438 101
1466T68 1568Q68 1639 102 1669T216 1700Q297 1700 329 1671T362 1568Z" />
<glyph unicode="&#xf6ce;" glyph-name="grave.cap" horiz-adv-x="656" d="M490 1426L68 1538L210 1722L588 1560L490 1426Z" />
<glyph unicode="&#xf6cf;" glyph-name="hungarumlaut.cap" horiz-adv-x="1134" d="M210 1412L68 1492L370 1742L564 1622L210 1412ZM650 1414L516 1512L882 1738L1066 1602L650 1414Z" />
<glyph unicode="&#xf6d0;" glyph-name="macron.cap" horiz-adv-x="726" d="M68 1472V1676H656V1472H68Z" />
<glyph unicode="&#xf730;" glyph-name="zero.oldstyle" horiz-adv-x="1000" d="M636 576Q636 692 629 764T605 875T563 927T502 940Q466 940 439 928T395 878T370 769T362 580Q362 466 369 394T392 283T435 230T504 216Q540 216 566 231T607 285T629 394T636 576ZM958
586Q958 414 927 297T836 108T688 5T488 -26Q364 -26 279 3T141 101T64 284T40 566Q40 736 71 853T162 1042T310 1146T514 1178Q630 1178 714 1150T852 1055T932 874T958 586Z" />
<glyph unicode="&#xf731;" glyph-name="one.oldstyle" horiz-adv-x="1000" d="M108 0V270H358V838L142 768L66 974L442 1152H710V270H932V0H108Z" />
<glyph unicode="&#xf732;" glyph-name="two.oldstyle" horiz-adv-x="1000" d="M70 0V230Q226 352 320 435T463 579T527 688T542 788Q542 842 503 878T378 914Q320 914 256 899T108 858L70 1072Q124 1094 173 1113T273 1146T378 1168T496 1176Q710 1176 811 1078T912
818Q912 746 889 682T817 553T692 420T508 272H936V0H70Z" />
<glyph unicode="&#xf733;" glyph-name="three.oldstyle" horiz-adv-x="1000" d="M932 224Q932 102 895 16T790 -124T629 -203T424 -228Q340 -228 238 -204T32 -128L52 56Q136 40 203 32T322 24Q396 24 442 38T514 76T550 133T560 206Q560 288 518 334T362 380H208V622H358Q454
622 495 661T536 788Q536 858 500 889T376 920Q312 920 244 905T108 868L68 1078Q162 1118 262 1147T484 1176Q702 1176 798 1078T894 810Q894 700 843 630T704 522Q760 512 803 483T874 414T917 325T932 224Z" />
<glyph unicode="&#xf734;" glyph-name="four.oldstyle" horiz-adv-x="1000" d="M532 882Q474 759 415 620T302 344H532V882ZM856 78V-208H532V78H28V322Q64 418 106 523T195 735T291 948T390 1152H856V344H970V78H856Z" />
<glyph unicode="&#xf735;" glyph-name="five.oldstyle" horiz-adv-x="1000" d="M938 232Q938 5 807 -111T438 -228Q351 -228 250 -205T32 -128L54 48Q152 34 225 27T354 20Q423 20 468 31T538 64T575 121T586 208Q586 309 541 359T386 410Q321 410 256 402T86
376L132 1152H840V878H394L378 652Q400 656 434 659T498 662Q720 662 829 552T938 232Z" />
<glyph unicode="&#xf736;" glyph-name="six.oldstyle" horiz-adv-x="1000" d="M638 432Q638 530 613 567T522 604Q485 604 455 595T378 564V554Q378 455 387 389T415 283T459 227T520 210Q580 210 609 260T638 432ZM954 460Q954 355 924 267T836 113T696 13T514
-22Q397 -22 315 6T176 109T88 319T58 668Q58 859 95 995T200 1214T357 1336T556 1374Q643 1374 727 1352T904 1280L876 1102Q805 1118 737 1126T602 1134Q501 1134 441 1048T370 772Q438 812 495 831T614 850Q795 850 874 752T954 460Z" />
<glyph unicode="&#xf737;" glyph-name="seven.oldstyle" horiz-adv-x="1000" d="M708 386Q620 196 532 49T354 -226L134 -146L570 878H54V1152H950V900L708 386Z" />
<glyph unicode="&#xf738;" glyph-name="eight.oldstyle" horiz-adv-x="1000" d="M646 346Q646 416 602 463T472 548Q354 468 354 358Q354 283 390 241T504 198Q571 198 608 239T646 346ZM632 1018Q632 1158 500 1158Q438 1158 403 1124T368 1028Q368 961 405 914T508
830Q567 868 599 912T632 1018ZM960 368Q960 281 933 210T847 85T696 3T478 -26Q361 -26 277 0T140 74T64 188T40 338Q40 450 95 528T252 666Q159 723 110 803T60 1006Q60 1086 88 1153T173 1271T315 1348T510 1376Q730 1376 835 1288T940 1028Q940 922 887 846T748
716Q848 662 904 581T960 368Z" />
<glyph unicode="&#xf739;" glyph-name="nine.oldstyle" horiz-adv-x="1000" d="M622 600Q622 698 613 764T586 870T542 927T480 944Q421 944 392 893T362 722Q362 625 388 588T480 550Q518 550 550 559T622 590V600ZM944 486Q944 295 906 157T800 -68T642 -194T442
-234Q349 -234 260 -214T66 -138L86 36Q185 20 257 13T396 6Q498 6 560 96T632 382Q564 342 507 323T388 304Q295 304 230 329T124 405T66 526T48 694Q48 799 78 887T166 1041T306 1141T488 1176Q605 1176 687 1148T826 1045T914 835T944 486Z" />
<glyph unicode="&#xf8ff;" glyph-name="" horiz-adv-x="2000" d="M1377 262L1447 101L1379 82L1447 -73L1376 -92L1397 -142L1332 -296H1207Q1203 -319 1186 -338T1142 -370T1079 -392T1000 -400Q957 -400 921 -392T858 -370T814 -338T794 -296H670L552 -15L620
3L552 166L625 184L586 280V445Q555 481 530 522T486 610T458 706T448 809Q448 885 468 955T524 1087T610 1198T721 1283T853 1338T1000 1358Q1076 1358 1146 1339T1278 1284T1389 1198T1476 1087T1532 956T1552 809Q1552 755 1542 704T1514 606T1470 518T1413
442V272L1377 262ZM1080 794Q1058 797 1040 797T1002 798Q982 798 962 798T919 794L949 507H1051L1080 794ZM96 724Q93 744 92 765T91 809T92 852T96 894L371 866Q369 853 369 839T368 809T368 780T371 752L96 724ZM301 1389Q313 1405 327 1421T357 1452T388 1482T420
1508L596 1294Q585 1286 574 1276T553 1256T533 1235T515 1213L301 1389ZM1057 1438Q1044 1439 1030 1440T1000 1441T971 1440T943 1438L912 1763Q933 1766 954 1767T998 1768Q1022 1768 1044 1767T1088 1763L1057 1438ZM1485 1213Q1477 1224 1467 1235T1447 1256T1425
1276T1404 1294L1580 1508Q1596 1495 1612 1481T1643 1452T1673 1421T1699 1389L1485 1213ZM1629 752Q1630 765 1631 780T1632 809T1631 838T1629 866L1904 894Q1907 873 1908 852T1909 809T1908 766T1904 724L1629 752ZM1262 507Q1291 532 1316 564T1359 635T1389
717T1400 809Q1400 892 1369 965T1283 1092T1156 1177T1000 1209Q918 1209 845 1178T718 1092T632 965T600 809Q600 764 609 722T637 641T681 568T740 507H841L808 777Q782 771 762 763T726 749Q715 745 708 753T696 775T690 808T690 843T697 872T712 887Q743 897
778 905T850 920T925 929T1000 933Q1040 933 1078 930T1153 920T1225 906T1293 887Q1300 884 1305 872T1312 844T1313 809T1307 776T1295 754T1275 751Q1259 757 1237 764T1190 777L1159 507H1262ZM1257 387H742V289L772 219L1257 343V387ZM1231 226L737 102L766
38L1259 163L1231 226ZM1234 48L739 -79L787 -197H1213L1236 -140L1227 -120L1082 -158L1048 -66L1260 -14L1234 48ZM1020 848Q1022 855 1020 862H1018Q1020 855 1018 848H1020ZM1016 858Q1011 859 1011 858T1012 855T1014 852T1012 852V850Q1017 849 1017 850T1017
852T1014 855T1016 856V858ZM1010 856Q1010 861 1004 858V856Q1008 858 1008 856Q1004 856 1004 852Q1004 849 1006 849T1008 852V850H1010V856ZM1002 848Q1000 855 1002 862H1000Q998 855 1000 848H1002ZM996 852Q993 850 993 854T996 856V858Q990 859 990 853T996
850V852ZM988 858H986V852Q986 850 985 850T984 852V858H982V852Q982 849 985 849T988 852V858ZM980 852H978V860H976V850H980V852ZM1008 854Q1006 854 1006 853T1006 852Q1006 850 1007 851T1008 854V854Z" />
<glyph unicode="&#xfb00;" glyph-name="f_f" horiz-adv-x="1206" d="M1227 1198Q1196 1207 1170 1211T1119 1215Q1071 1215 1052 1191T1032 1116V1009H1188V788H1032V0H712V788H446V0H126V788H18V1009H126V1090Q126 1168 141 1230T192 1336T285 1402T425 1426Q494
1426 553 1411T663 1370L629 1183Q609 1189 582 1193T532 1197Q484 1197 465 1173T446 1098V1009H712V1108Q712 1186 728 1248T779 1354T871 1420T1013 1444Q1054 1444 1089 1439T1157 1425T1216 1404T1269 1378L1227 1198Z" />
<glyph unicode="&#xfb01;" glyph-name="fi" horiz-adv-x="1138" d="M712 0V788H446V0H126V788H18V1009H126V1109Q126 1188 141 1250T192 1355T284 1421T424 1444Q491 1444 545 1431T634 1402L602 1204Q586 1209 566 1212T525 1215Q480 1215 463 1192T446 1117V1009H1032V0H712ZM1060
1260Q1060 1216 1052 1185T1022 1135T965 1107T873 1098Q816 1098 780 1106T722 1133T693 1183T684 1260Q684 1304 693 1335T723 1385T780 1412T873 1421Q929 1421 965 1414T1023 1387T1052 1337T1060 1260V1260Z" />
<glyph unicode="&#xfb02;" glyph-name="fl" horiz-adv-x="1162" d="M1143 13Q1122 5 1099 -1T1050 -11T993 -17T927 -19Q874 -19 833 -10T764 23T722 87T708 188V1200Q693 1204 677 1207T644 1212T610 1216T577 1217Q540 1217 516 1210T475 1187T453 1145T446
1084V1009H579V788H446V0H126V788H18V1009H126V1070Q126 1158 142 1227T200 1345T314 1418T500 1444Q528 1444 559 1442T620 1436T679 1428T732 1418H1028V315Q1028 274 1031 251T1041 216T1060 201T1089 197Q1102 197 1113 197T1131 198L1143 13Z" />
<glyph unicode="&#xfb03;" glyph-name="f_f_i" horiz-adv-x="1724" d="M1298 0V788H1032V0H712V788H446V0H126V788H18V1009H126V1090Q126 1168 141 1230T192 1336T285 1402T425 1426Q494 1426 553 1411T663 1370L629 1183Q609 1189 582 1193T532 1197Q484 1197
465 1173T446 1098V1009H712V1109Q712 1188 727 1250T778 1355T870 1421T1010 1444Q1077 1444 1131 1431T1220 1402L1188 1204Q1172 1209 1152 1212T1111 1215Q1066 1215 1049 1192T1032 1117V1009H1618V0H1298ZM1646 1260Q1646 1216 1638 1185T1608 1135T1551
1107T1459 1098Q1402 1098 1366 1106T1308 1133T1279 1183T1270 1260Q1270 1304 1279 1335T1309 1385T1367 1412T1459 1421Q1515 1421 1551 1414T1609 1387T1638 1337T1646 1260V1260Z" />
<glyph unicode="&#xfb04;" glyph-name="f_f_l" horiz-adv-x="1748" d="M1729 13Q1708 5 1686 -1T1636 -11T1579 -17T1513 -19Q1460 -19 1419 -10T1350 23T1308 87T1294 188V1200Q1279 1204 1263 1207T1230 1212T1196 1216T1163 1217Q1127 1217 1102 1210T1061
1187T1039 1145T1032 1084V1009H1165V788H1032V0H712V788H446V0H126V788H18V1009H126V1090Q126 1168 141 1230T192 1336T285 1402T425 1426Q494 1426 553 1411T663 1370L621 1184Q601 1190 578 1193T532 1197Q484 1197 465 1173T446 1098V1009H712V1070Q712 1158
728 1227T786 1345T900 1418T1086 1444Q1114 1444 1145 1442T1206 1436T1265 1428T1318 1418H1614V315Q1614 274 1617 251T1627 216T1646 201T1675 197Q1688 197 1699 197T1717 198L1729 13Z" />
<glyph unicode="&#xfb06;" glyph-name="s_t" horiz-adv-x="1518" d="M1485 48Q1407 8 1342 -8T1215 -24Q1142 -24 1091 -11T1007 34T960 116T945 238V788H838V1009H945V1036Q945 1081 936 1112T910 1163T869 1191T813 1200Q786 1200 763 1191T722 1165T696 1124T686
1071Q686 1055 689 1039T699 1008T716 980T743 956L715 790Q678 797 649 803T595 812T549 817T506 819Q472 819 449 813T409 796T386 771T379 740Q379 713 397 694T446 660T515 632T595 602T674 562T743 505T793 424T812 310Q812 238 783 177T698 71T561 1T376
-24Q287 -24 206 -1T40 69L63 228Q151 211 210 205T317 199Q361 199 390 206T438 225T464 252T472 287Q472 315 454 333T405 367T337 395T258 426T180 465T111 522T63 603T44 717Q44 788 72 846T152 946T276 1010T437 1033Q455 1033 470 1032T495 1029Q508 1027
517 1025Q487 1041 470 1075T453 1148Q453 1213 484 1264T568 1349T693 1400T845 1418Q958 1418 1038 1394T1168 1325T1241 1212T1265 1059V1009H1458V788H1265V315Q1265 286 1269 266T1283 235T1306 218T1338 213Q1360 213 1389 216T1463 231L1485 48Z" />
<glyph unicode="&#xfeff;" glyph-name="uniFEFF" horiz-adv-x="0" />
</font>
</defs>
</svg>
