<?xml version="1.0" standalone="no"?> <!DOCTYPE svg PUBLIC "-//W3C//DTD SVG 1.0//EN" "http://www.w3.org/TR/2001/REC-SVG-20010904/DTD/svg10.dtd" > <svg xmlns="http://www.w3.org/2000/svg" width="100%" height="100%">
<defs >
<font id="SunAntwerpenCd_700" horiz-adv-x="829" ><font-face
    font-family="SunAntwerpenCd"
    units-per-em="2000"
    panose-1="2 11 8 3 5 3 2 2 2 4"
    ascent="1800"
    descent="-400"
    alphabetic="0" />
<missing-glyph horiz-adv-x="1100" d="M900 200V900H200V200H900ZM500 700V800H800V300H700V500H500V600H700V700H500ZM100 100V1000H1000V100H100ZM300 300V800H400V400H600V300H300Z" />
<glyph unicode="&#xd;" glyph-name="CR" horiz-adv-x="0" />
<glyph unicode=" " glyph-name="space" horiz-adv-x="414" />
<glyph unicode="!" glyph-name="exclam" horiz-adv-x="600" d="M246 356L207 1350H494L456 356H246ZM494 123Q494 83 488 56T465 13T421 -10T350 -17Q309 -17 281 -10T237 13T215 55T208 122Q208 160 214 186T237 229T281 253T351 260Q394 260 422 253T465 230T487
188T494 123V123Z" />
<glyph unicode="&quot;" glyph-name="quotedbl" horiz-adv-x="782" d="M132 850L109 1350H335L312 850H132ZM470 850L447 1350H673L649 850H470Z" />
<glyph unicode="#" glyph-name="numbersign" horiz-adv-x="840" d="M651 380L614 0H448L484 380H297L261 0H97L130 380H40V540H147L175 846H40V1003H191L224 1350H390L357 1003H545L578 1350H745L711 1003H800V846H695L667 540H800V380H651ZM528 846H342L313 540H500L528
846Z" />
<glyph unicode="$" glyph-name="dollar" horiz-adv-x="840" d="M338 -208L324 12Q241 19 172 50T45 129L111 267Q138 252 167 239T226 217T285 202T342 197Q386 197 420 207T477 237T512 287T524 357Q524 402 504 434T452 491T379 539T295 586T210 641T137 712T85
810T65 943Q65 1007 83 1062T135 1160T216 1233T324 1276L338 1490H474L488 1283Q555 1276 616 1248T724 1179L660 1045Q638 1059 613 1070T562 1089T510 1101T459 1106Q422 1106 394 1095T346 1065T318 1020T309 964Q309 917 329 884T382 824T457 775T544 729T631
675T706 604T760 508T780 375Q780 312 761 253T706 146T615 63T489 17L474 -208H338Z" />
<glyph unicode="%" glyph-name="percent" horiz-adv-x="1404" d="M631 1022Q631 839 557 747T342 654Q267 654 215 675T129 739T80 848T65 1004Q65 1096 83 1164T138 1279T229 1349T354 1372Q428 1372 480 1351T566 1287T615 1178T631 1022V1022ZM450 1011Q450
1068 445 1106T426 1168T394 1202T349 1212Q323 1212 304 1203T271 1170T252 1109T245 1015Q245 958 251 920T269 859T301 825T347 815Q373 815 392 824T425 856T444 917T450 1011V1011ZM1340 347Q1340 164 1266 72T1051 -21Q977 -21 925 0T839 64T790 173T774
329Q774 420 792 489T848 604T938 673T1063 697Q1137 697 1189 676T1275 612T1324 502T1340 347V347ZM1160 336Q1160 392 1154 430T1136 492T1104 526T1058 536Q1032 536 1013 527T980 495T961 434T954 340Q954 283 960 245T978 183T1010 149T1056 139Q1082 139
1101 149T1134 181T1153 242T1160 336V336ZM326 -72L189 5L1076 1428L1212 1350L326 -72Z" />
<glyph unicode="&amp;" glyph-name="ampersand" horiz-adv-x="1128" d="M1024 768Q1024 696 1015 627T989 493T948 369T892 260Q934 218 968 194T1028 169H1076V6Q1066 2 1054 -3T1026 -12T993 -18T957 -21Q933 -21 909 -14T860 9T806 46T745 99Q711 70 673 48T594
11T511 -12T426 -20Q326 -20 257 9T144 89T80 205T60 346Q60 415 76 470T119 571T182 654T258 723Q225 779 203 825T166 911T145 983T138 1047Q138 1123 163 1183T233 1285T338 1348T471 1370Q542 1370 597 1350T691 1294T748 1211T767 1109Q767 1035 746 978T691
875T613 791T524 717Q547 681 573 644T626 571T682 502T738 436Q754 471 766 510T786 592T798 678T803 768H1024ZM283 373Q283 323 296 284T332 218T388 177T458 163Q479 163 499 167T538 181T577 204T615 235Q582 270 549 309T484 389T422 472T363 556Q346 540
332 521T306 479T289 431T283 373V373ZM552 1097Q552 1118 546 1138T529 1174T499 1200T456 1210Q431 1210 412 1200T381 1173T363 1131T357 1080Q357 1059 361 1038T373 992T395 938T427 874Q451 898 474 922T514 974T541 1031T552 1097V1097Z" />
<glyph unicode="&apos;" glyph-name="quotesingle" horiz-adv-x="476" d="M152 850L130 1350H347L324 850H152Z" />
<glyph unicode="(" glyph-name="parenleft" horiz-adv-x="510" d="M309 -345Q257 -252 215 -149T144 66T99 300T83 549Q83 674 98 795T143 1032T215 1254T310 1456L468 1400Q429 1318 397 1222T342 1020T306 796T293 555Q293 435 306 319T342 96T398 -109T468
-290L309 -345Z" />
<glyph unicode=")" glyph-name="parenright" horiz-adv-x="510" d="M42 -290Q81 -208 113 -112T168 91T204 315T217 556Q217 675 204 791T168 1014T113 1219T42 1400L202 1456Q254 1363 295 1260T366 1044T412 811T428 562Q428 437 412 315T367 78T296 -143T201
-345L42 -290Z" />
<glyph unicode="*" glyph-name="asterisk" horiz-adv-x="840" d="M680 715L503 874L526 611H311L335 873L160 715L51 905L257 1015L51 1122L160 1312L335 1155L311 1418H528L505 1157L680 1312L789 1122L582 1017L789 904L680 715Z" />
<glyph unicode="+" glyph-name="plus" horiz-adv-x="840" d="M514 512V178H326V512H57V688H326V1018H514V688H783V512H514Z" />
<glyph unicode="," glyph-name="comma" horiz-adv-x="450" d="M37 -226Q74 -195 97 -169T134 -121T153 -77T159 -32Q159 -7 149 5T126 30T104 63T93 123Q93 164 101 191T126 235T171 259T237 267Q279 267 307 260T351 235T375 190T382 121Q382 48 370 -10T329
-121T252 -222T130 -325L37 -226Z" />
<glyph unicode="-" glyph-name="hyphen" horiz-adv-x="378" d="M34 488V678H389V488H34Z" />
<glyph unicode="." glyph-name="period" horiz-adv-x="456" d="M382 126Q382 85 376 58T353 14T308 -10T236 -17Q194 -17 167 -10T123 14T100 57T93 124Q93 163 99 190T122 234T167 259T238 267Q281 267 309 260T353 236T375 192T382 126V126Z" />
<glyph unicode="/" glyph-name="slash" horiz-adv-x="840" d="M164 -208H-31L638 1418H832L164 -208Z" />
<glyph unicode="0" glyph-name="zero" horiz-adv-x="840" d="M800 684Q800 488 778 353T708 135T587 15T412 -22Q345 -22 291 -8T196 39T125 123T76 253T49 432T40 666Q40 862 62 997T132 1215T253 1335T428 1372Q529 1372 600 1339T715 1226T780 1015T800 684V684ZM562
673Q562 773 559 850T549 983T531 1078T504 1138T467 1170T419 1180Q393 1180 373 1171T336 1140T309 1082T291 989T281 856T278 677Q278 526 285 428T309 273T353 193T421 170Q447 170 467 179T504 210T531 268T549 361T559 494T562 673V673Z" />
<glyph unicode="1" glyph-name="one" horiz-adv-x="840" d="M772 208V0H87V208H314V1104L115 1024L61 1181L374 1351H571V208H772Z" />
<glyph unicode="2" glyph-name="two" horiz-adv-x="840" d="M54 0V188Q139 301 204 393T316 561T394 700T444 814T471 910T479 993Q479 1040 467 1072T432 1124T381 1152T319 1161Q294 1161 269 1158T215 1148T155 1132T87 1110L59 1282Q103 1301 143 1317T225
1346T309 1364T401 1371Q487 1371 552 1348T660 1279T726 1167T748 1014Q748 935 729 854T662 680T538 475T347 221H765V0H54Z" />
<glyph unicode="3" glyph-name="three" horiz-adv-x="840" d="M50 224Q114 206 172 196T298 186Q349 186 386 200T448 241T485 309T497 403Q497 454 487 492T456 556T399 595T315 608H188V807H310Q353 807 383 819T434 856T463 916T473 1000Q473 1038 465 1068T439
1119T393 1151T324 1163Q298 1163 270 1159T212 1149T155 1133T99 1112L67 1286Q102 1303 140 1318T221 1345T308 1364T404 1371Q492 1371 554 1346T657 1275T717 1166T736 1029Q736 972 724 923T690 836T637 770T568 728Q619 718 656 691T719 623T757 530T769
420Q769 314 742 232T662 94T533 8T359 -21Q322 -21 282 -17T201 -1T117 27T33 69L50 224Z" />
<glyph unicode="4" glyph-name="four" horiz-adv-x="840" d="M692 1350V506H806V294H692V0H453V294H22V500Q54 616 90 727T164 944T243 1151T325 1350H692ZM454 1159Q425 1088 394 1010T331 849T269 680T213 506H454V1159Z" />
<glyph unicode="5" glyph-name="five" horiz-adv-x="840" d="M694 1129H317L302 835Q324 839 354 842T416 845Q507 845 574 817T686 736T752 604T774 426Q774 313 746 229T665 90T538 7T370 -21Q303 -21 220 -2T34 66L55 214Q140 197 206 188T322 179Q373 179
410 191T470 230T505 300T517 408Q517 464 506 507T472 579T414 622T331 637Q302 637 274 635T217 629T154 619T83 605L122 1350H329H694V1129Z" />
<glyph unicode="6" glyph-name="six" horiz-adv-x="840" d="M741 1139Q678 1154 619 1163T503 1173Q458 1173 421 1149T357 1074T312 941T291 745Q319 764 344 779T396 806T450 823T512 829Q587 829 641 804T730 729T781 610T797 449Q797 344 771 257T697 109T582
13T430 -21Q371 -21 321 -10T229 31T155 109T101 234T68 413T56 656Q56 793 71 899T113 1084T179 1219T263 1308T362 1356T473 1371Q536 1371 607 1352T763 1287L741 1139ZM297 561Q297 454 306 380T334 258T379 190T439 169Q468 169 491 184T529 229T553 307T561
421Q561 478 554 517T533 581T495 617T439 628Q422 628 406 625T372 615T337 597T297 571V561Z" />
<glyph unicode="7" glyph-name="seven" horiz-adv-x="840" d="M575 585Q556 537 536 488T493 387T445 283T394 179T342 76T288 -24L123 39L512 1129H50V1350H789V1145L575 585Z" />
<glyph unicode="8" glyph-name="eight" horiz-adv-x="840" d="M801 361Q801 278 778 208T706 87T583 7T407 -22Q310 -22 241 2T126 71T60 181T39 327Q39 392 53 444T94 539T156 616T234 681Q201 706 170 736T116 806T78 894T63 1008Q63 1086 85 1153T154 1268T269
1344T431 1372Q526 1372 591 1347T698 1278T758 1173T777 1041Q777 979 763 931T726 843T671 773T605 716Q645 689 680 657T742 582T785 485T801 361V361ZM572 338Q572 383 559 418T523 481T470 531T406 574Q380 553 356 531T312 481T280 419T268 339Q268 299 277
267T306 211T353 175T420 162Q456 162 484 175T532 211T562 266T572 338V338ZM418 1193Q386 1193 362 1181T321 1148T297 1097T288 1032Q288 991 300 960T332 903T377 858T430 820Q456 841 478 862T517 909T542 965T552 1032Q552 1066 544 1095T520 1146T479 1180T418
1193V1193Z" />
<glyph unicode="9" glyph-name="nine" horiz-adv-x="840" d="M79 215Q122 207 157 201T222 191T279 185T335 183Q377 183 414 205T481 277T528 409T550 610Q523 590 497 575T446 548T393 530T335 524Q264 524 210 549T118 622T62 742T43 905Q43 1010 67 1095T137
1242T251 1337T406 1371Q467 1371 518 1359T612 1317T686 1238T740 1114T773 938T784 703Q784 566 769 459T727 272T660 136T574 45T471 -5T355 -21Q324 -21 291 -17T222 -2T146 26T61 70L79 215ZM544 796Q544 902 534 975T506 1093T461 1159T401 1179Q371 1179
348 1164T310 1119T286 1043T278 934Q278 877 286 838T310 773T348 738T400 727Q416 727 432 730T466 740T503 757T544 783V796Z" />
<glyph unicode=":" glyph-name="colon" horiz-adv-x="486" d="M405 879Q405 839 397 813T373 771T332 748T273 741Q239 741 215 748T174 770T149 812T141 879Q141 917 149 944T173 987T215 1010T274 1017Q308 1017 333 1010T373 988T397 946T405 879V879ZM405
124Q405 83 397 57T373 16T332 -6T273 -13Q239 -13 215 -7T174 15T149 57T141 123Q141 161 149 188T173 231T215 254T274 261Q308 261 333 254T373 232T397 190T405 124V124Z" />
<glyph unicode=";" glyph-name="semicolon" horiz-adv-x="504" d="M401 879Q401 839 393 813T369 771T328 748T269 741Q235 741 211 748T170 770T145 812T137 879Q137 917 145 944T169 987T211 1010T270 1017Q304 1017 329 1010T370 988T393 946T401 879V879ZM69
-242Q106 -211 131 -183T172 -129T195 -79T203 -32Q203 -16 198 -6T186 13T171 28T155 47T142 76T137 120Q137 160 145 187T170 230T211 253T269 260Q303 260 328 254T369 231T393 188T401 118Q401 63 388 7T346 -104T271 -216T159 -325L69 -242Z" />
<glyph unicode="&lt;" glyph-name="less" horiz-adv-x="840" d="M690 124L58 516V683L692 1076L791 897L290 601L791 304L690 124Z" />
<glyph unicode="=" glyph-name="equal" horiz-adv-x="840" d="M70 696V871H770V696H70ZM70 328V504H770V328H70Z" />
<glyph unicode="&gt;" glyph-name="greater" horiz-adv-x="840" d="M150 124L51 302L552 599L51 895L152 1076L784 683V516L150 124Z" />
<glyph unicode="?" glyph-name="question" horiz-adv-x="780" d="M712 1037Q712 963 694 911T649 816T589 740T529 668T482 585T461 478L458 356H248L243 474Q240 551 253 606T289 704T340 781T392 848T432 917T448 1001Q448 1035 439 1063T413 1112T369 1144T305
1156Q280 1156 255 1152T206 1142T160 1128T118 1112L53 1271Q92 1295 131 1313T210 1343T291 1361T378 1368Q462 1368 525 1345T629 1280T691 1176T712 1037V1037ZM496 123Q496 83 490 56T467 13T423 -10T351 -17Q310 -17 283 -10T239 13T217 55T210 122Q210 160
216 186T239 229T283 253T353 260Q396 260 424 253T467 230T489 188T496 123V123Z" />
<glyph unicode="@" glyph-name="at" horiz-adv-x="1674" d="M1262 -211Q1206 -242 1148 -265T1027 -305T901 -330T772 -338Q663 -338 570 -316T401 -249T267 -140T168 11T108 202T87 433Q87 573 114 701T194 940T322 1141T494 1296T708 1395T958 1430Q1117 1430
1232 1383T1422 1252T1533 1055T1569 810Q1569 661 1535 536T1434 321T1266 181T1032 131H931L921 290Q895 252 867 221T809 168T747 134T681 121Q624 121 583 146T516 216T477 323T464 463Q464 602 496 705T585 875T721 976T894 1009Q968 1009 1039 999T1172 963L1111
314Q1150 314 1183 329T1244 373T1293 442T1329 532T1351 640T1359 762Q1359 829 1349 892T1318 1010T1262 1111T1181 1190T1070 1241T927 1259Q822 1259 735 1228T578 1141T455 1012T368 850T315 668T298 479Q298 326 329 207T425 4T586 -123T813 -167Q861 -167
913 -161T1019 -142T1125 -112T1226 -72L1262 -211ZM938 816Q926 821 908 824T867 827Q832 827 800 809T744 750T706 648T692 499Q692 448 696 414T708 359T730 329T760 319Q778 319 796 331T833 364T869 414T904 478L938 816Z" />
<glyph unicode="A" glyph-name="A" horiz-adv-x="966" d="M695 0Q688 38 682 73T670 142T657 207T644 270H296Q283 209 271 144T245 0H10Q42 168 77 339T151 681T232 1019T319 1350H641Q689 1177 731 1009T812 673T886 338T956 0H695ZM609 464Q592 543 574 625T538
789T502 951T464 1110Q449 1038 432 958T398 794T364 626T330 464H609Z" />
<glyph unicode="B" glyph-name="B" horiz-adv-x="970" d="M116 1350H502Q595 1350 661 1326T770 1258T834 1154T854 1021Q854 967 844 923T813 843T765 781T702 735Q754 720 793 690T858 619T898 529T912 425Q912 337 885 260T801 123T653 30T435 -4Q401 -4 363
-4T284 -2T201 -1T116 0V1350ZM362 800H441Q484 800 515 815T566 855T595 915T604 989Q604 1024 597 1055T572 1110T529 1146T465 1160H362V800ZM362 195Q362 195 371 195T395 193T428 191T465 190Q515 190 550 206T608 252T642 321T653 410Q653 453 643 490T609
555T547 597T453 613H362V195Z" />
<glyph unicode="C" glyph-name="C" horiz-adv-x="794" d="M772 176Q744 130 711 94T638 32T552 -7T451 -21Q359 -21 286 19T164 143T88 353T61 652Q61 838 93 973T182 1197T314 1327T479 1370Q518 1370 556 1359T631 1324T699 1265T758 1181L644 1053Q609 1105
576 1129T497 1153Q475 1153 454 1143T412 1109T376 1051T348 964T329 844T322 691Q322 560 334 466T369 313T424 225T496 196Q522 196 544 203T588 225T629 259T673 308L772 176Z" />
<glyph unicode="D" glyph-name="D" horiz-adv-x="992" d="M116 1350Q204 1350 291 1351T458 1353Q545 1353 615 1333T738 1273T830 1178T893 1051T929 894T941 712Q941 538 909 405T812 180T647 41T413 -7Q376 -7 338 -6T263 -4T188 -2T116 0V1350ZM366 207Q384
204 402 204T437 203Q499 203 544 234T620 326T665 476T680 681Q680 758 674 822T654 938T621 1029T575 1095T515 1135T440 1148Q425 1148 412 1148T388 1148T372 1148T366 1147V207Z" />
<glyph unicode="E" glyph-name="E" horiz-adv-x="770" d="M116 0V1350H702V1141H370V795H643V595H370V211H708V0H116Z" />
<glyph unicode="F" glyph-name="F" horiz-adv-x="704" d="M370 1141V773H630V568H370V0H116V1350H673V1141H370Z" />
<glyph unicode="G" glyph-name="G" horiz-adv-x="936" d="M852 131Q818 97 779 69T696 20T600 -10T490 -21Q380 -21 299 21T165 147T86 356T60 648Q60 838 94 974T189 1199T333 1328T516 1370Q571 1370 620 1356T711 1314T787 1250T847 1166L736 1053Q710 1079
685 1099T634 1133T582 1154T529 1161Q478 1161 438 1136T370 1056T327 911T311 693Q311 551 326 454T367 299T432 214T516 188Q532 188 546 191T573 198T595 209T612 222V577H487V749H852V131Z" />
<glyph unicode="H" glyph-name="H" horiz-adv-x="1050" d="M680 0V609H370V0H116V1350H370V811H680V1350H934V0H680Z" />
<glyph unicode="I" glyph-name="I" horiz-adv-x="490" d="M116 0V1350H373V0H116Z" />
<glyph unicode="J" glyph-name="J" horiz-adv-x="492" d="M376 143Q376 65 363 -4T322 -135T251 -251T148 -351L22 -243Q53 -200 72 -155T102 -59T115 46T119 167V1350H376V143Z" />
<glyph unicode="K" glyph-name="K" horiz-adv-x="904" d="M619 0L367 628H366V0H116V1350H366V778H367L606 1350H878L586 746L904 0H619Z" />
<glyph unicode="L" glyph-name="L" horiz-adv-x="666" d="M116 0V1350H373V206H655V0H116Z" />
<glyph unicode="M" glyph-name="M" horiz-adv-x="1432" d="M1085 0Q1084 90 1083 180T1078 358T1072 531T1064 697T1055 854T1046 1001H1044L813 0H587L359 1001H357Q351 889 346 770T336 524T329 267T325 0H90Q94 168 101 337T118 675T141 1013T171 1350H510L724
447H726L945 1350H1261Q1275 1182 1287 1014T1310 676T1328 337T1342 0H1085Z" />
<glyph unicode="N" glyph-name="N" horiz-adv-x="1072" d="M668 0L410 733Q390 788 373 841T342 938Q326 987 314 1033H310Q314 978 317 916Q320 864 322 798T324 663V0H116V1350H445L665 740Q683 690 699 639T730 545Q745 495 758 450H762Q758 510 755 574Q752
628 750 693T748 819V1350H956V0H668Z" />
<glyph unicode="O" glyph-name="O" horiz-adv-x="1048" d="M988 697Q988 560 971 454T923 268T848 133T751 44T638 -5T514 -21Q404 -21 320 14T177 130T90 338T60 652Q60 788 77 894T125 1080T200 1215T297 1305T410 1354T534 1370Q644 1370 728 1335T871 1219T958
1011T988 697V697ZM732 651Q732 797 718 895T676 1052T608 1135T518 1160Q475 1160 438 1138T374 1061T332 919T316 698Q316 600 322 525T341 392T372 297T414 234T467 199T530 188Q573 188 610 211T674 288T716 430T732 651V651Z" />
<glyph unicode="P" glyph-name="P" horiz-adv-x="918" d="M116 0V1350Q159 1350 205 1350T298 1351T389 1352T473 1353Q586 1353 665 1322T795 1236T868 1104T892 934Q892 835 865 751T780 603T632 504T415 468H370V0H116ZM370 669H433Q486 669 523 684T585 731T619
807T630 911Q630 967 621 1011T588 1087T527 1135T432 1152H370V669Z" />
<glyph unicode="Q" glyph-name="Q" horiz-adv-x="1048" d="M1081 -336Q1035 -304 989 -294T896 -284Q868 -284 842 -285T789 -287Q749 -287 709 -279T632 -243T561 -163T499 -21Q395 -19 314 17T176 132T90 338T60 652Q60 788 77 894T125 1080T200 1215T297 1305T410
1354T534 1370Q644 1370 728 1335T871 1219T958 1011T988 697Q988 582 976 490T941 324T888 196T820 102T739 38T651 0Q674 -33 696 -53T741 -85T787 -101T834 -106Q860 -106 886 -105T940 -103Q966 -103 992 -108T1045 -128T1100 -167T1159 -230L1081 -336ZM732
651Q732 748 726 824T707 957T676 1052T634 1115T581 1149T518 1160Q475 1160 438 1138T374 1061T332 919T316 700Q316 553 330 455T372 297T439 213T530 188Q573 188 610 211T674 288T716 430T732 651V651Z" />
<glyph unicode="R" glyph-name="R" horiz-adv-x="938" d="M650 0L427 570H364V0H116V1350Q161 1351 209 1352T304 1353T396 1354T481 1355Q588 1355 662 1328T784 1252T852 1133T873 980Q873 933 867 893T849 818T818 754T775 701T721 660T655 631L924 0H650ZM364
768H451Q493 768 524 781T576 819T605 883T615 972Q615 1018 606 1053T577 1112T523 1148T443 1160H364V768Z" />
<glyph unicode="S" glyph-name="S" horiz-adv-x="816" d="M769 382Q769 303 746 230T674 102T552 13T376 -21Q273 -21 186 15T32 112L93 256Q126 238 159 224T222 201T279 188T330 183Q371 183 402 194T455 227T488 280T499 354Q499 402 481 437T430 501T358 555T277
607T195 668T123 746T72 850T53 991Q53 1076 79 1146T154 1265T268 1342T416 1370Q455 1370 493 1364T569 1344T645 1311T721 1261L664 1117Q606 1145 554 1158T461 1171Q423 1171 395 1160T349 1128T322 1079T313 1018Q313 970 332 934T384 868T457 813T541 759T625
698T698 621T749 519T769 382V382Z" />
<glyph unicode="T" glyph-name="T" horiz-adv-x="720" d="M488 1139V0H232V1139H14V1350H706V1139H488Z" />
<glyph unicode="U" glyph-name="U" horiz-adv-x="1036" d="M923 487Q923 348 894 252T810 94T679 6T507 -22Q408 -22 334 4T211 87T138 236T113 457V1350H367V485Q367 399 374 341T400 246T449 194T524 178Q565 178 594 192T643 241T672 331T681 469V1350H923V487Z" />
<glyph unicode="V" glyph-name="V" horiz-adv-x="908" d="M906 1350Q880 1178 850 1009T784 671T704 336T610 0H300Q252 170 210 337T131 672T64 1008T5 1350H276Q307 1100 359 829T474 276Q505 404 532 535T583 802T626 1075T663 1350H906Z" />
<glyph unicode="W" glyph-name="W" horiz-adv-x="1432" d="M1420 1350Q1391 1167 1362 995T1301 656T1235 327T1162 0H875L744 716L711 954H709L680 717L554 0H272Q231 168 196 331T130 658T69 993T12 1350H277Q294 1227 311 1105T348 856T387 597T429 322H431L459
536L604 1350H869L1018 528L1044 321H1046Q1067 452 1086 582T1123 840T1157 1096T1188 1350H1420Z" />
<glyph unicode="X" glyph-name="X" horiz-adv-x="904" d="M606 0Q584 72 563 139T521 270T478 392T435 510Q415 455 395 396T354 274T312 142T271 0H22Q51 103 80 196T140 375T203 544T270 707Q240 778 212 853T156 1007T101 1172T45 1350H313Q331 1287 349 1230T386
1117T423 1007T461 898Q480 951 499 1005T537 1117T574 1232T609 1350H853Q830 1265 804 1183T749 1022T689 867T626 719Q658 647 690 567T754 396T817 207T881 0H606Z" />
<glyph unicode="Y" glyph-name="Y" horiz-adv-x="796" d="M814 1350Q782 1236 748 1128T678 921T603 734T525 570V0H269V570Q229 650 192 738T118 924T48 1127T-18 1350H249Q265 1276 284 1208T325 1074T369 939T417 797Q439 868 460 937T500 1076T537 1213T569
1350H814Z" />
<glyph unicode="Z" glyph-name="Z" horiz-adv-x="764" d="M45 0V198L419 1135H59L61 1350H698V1153L323 217H719L718 0H45Z" />
<glyph unicode="[" glyph-name="bracketleft" horiz-adv-x="606" d="M142 -346V1478H499V1325H353V-193H499V-346H142Z" />
<glyph unicode="\" glyph-name="backslash" horiz-adv-x="840" d="M680 -208L12 1418H207L875 -208H680Z" />
<glyph unicode="]" glyph-name="bracketright" horiz-adv-x="604" d="M106 -346V-193H251V1325H106V1478H462V-346H106Z" />
<glyph unicode="^" glyph-name="asciicircum" horiz-adv-x="840" d="M619 723L421 1205L221 723L40 796L330 1418H516L802 797L619 723Z" />
<glyph unicode="_" glyph-name="underscore" horiz-adv-x="840" d="M0 -368V-179H841V-368H0Z" />
<glyph unicode="`" glyph-name="grave" horiz-adv-x="490" d="M330 1111L54 1351L211 1451L436 1184L330 1111Z" />
<glyph unicode="a" glyph-name="a" horiz-adv-x="856" d="M572 0L560 101Q534 73 506 51T446 13T379 -11T304 -20Q172 -20 109 51T46 264Q46 341 71 404T149 513T283 583T474 608H524V685Q524 727 514 756T485 803T438 828T374 836Q342 836 310 832T245 819T181
801T118 777L87 935Q126 954 167 970T252 998T340 1016T432 1023Q511 1023 572 1003T674 944T737 847T758 713V0H572ZM524 453H464Q408 453 372 442T315 409T286 358T277 294Q277 262 283 238T303 198T336 174T381 165Q419 165 454 185T524 240V453Z" />
<glyph unicode="b" glyph-name="b" horiz-adv-x="906" d="M102 1418H339V927Q365 949 391 967T446 997T501 1016T557 1023Q632 1023 687 985T778 882T833 731T851 548Q851 404 819 298T728 121T584 16T390 -19Q357 -19 319 -16T243 -8T169 3T102 19V1418ZM339
170Q358 164 377 162T414 160Q459 160 493 182T551 249T587 357T599 506Q599 590 590 650T564 748T524 804T472 822Q460 822 445 818T412 804T377 781T339 750V170Z" />
<glyph unicode="c" glyph-name="c" horiz-adv-x="706" d="M689 126Q659 93 627 66T558 21T479 -8T389 -19Q306 -19 244 12T140 107T77 265T56 488Q56 618 83 717T157 884T270 986T410 1021Q488 1021 552 990T670 894L586 762Q550 796 515 813T447 830Q412 830
385 813T338 758T310 660T300 515Q300 423 309 358T337 253T383 194T447 175Q490 175 529 196T613 261L689 126Z" />
<glyph unicode="d" glyph-name="d" horiz-adv-x="906" d="M607 0L594 100Q564 71 534 49T473 11T410 -13T348 -21Q274 -21 220 16T128 119T74 270T56 453Q56 599 87 706T176 882T315 985T496 1019Q511 1019 530 1018T568 1012V1418H805V0H607ZM568 832Q548 838
529 840T493 842Q447 842 413 821T356 757T320 648T308 495Q308 411 317 352T342 254T382 198T435 180Q459 180 494 198T568 252V832Z" />
<glyph unicode="e" glyph-name="e" horiz-adv-x="872" d="M296 454V442Q296 372 308 322T343 239T400 190T478 174Q511 174 544 178T611 189T683 207T761 233L794 85Q707 37 616 8T431 -21Q345 -21 276 5T157 89T82 242T56 474Q56 632 90 737T181 906T308 996T452
1023Q508 1023 557 1012T646 974T717 904T767 798T794 650T795 454H296ZM564 607V611Q564 673 556 719T531 795T491 839T438 854Q410 854 386 839T343 792T313 715T298 607H564Z" />
<glyph unicode="f" glyph-name="f" horiz-adv-x="504" d="M531 1228Q505 1239 482 1244T436 1250Q390 1250 372 1221T354 1129V1003H492V827H354V0H116V827H15V1003H116V1117Q116 1191 129 1249T171 1349T247 1412T359 1434Q392 1434 420 1429T474 1416T522 1396T564
1371L531 1228Z" />
<glyph unicode="g" glyph-name="g" horiz-adv-x="906" d="M805 39Q805 -42 791 -103T753 -209T693 -284T617 -331T528 -356T430 -364Q396 -364 360 -360T286 -345T207 -319T123 -283L140 -137Q227 -153 290 -162T401 -171Q448 -171 479 -162T530 -133T559 -81T568
-3V96Q516 52 460 26T350 0Q275 0 220 38T128 140T74 289T56 464Q56 605 87 709T177 883T321 986T516 1021Q549 1021 587 1018T664 1010T738 998T805 983V39ZM568 832Q557 835 547 837T528 840T509 841T490 842Q447 842 413 820T356 756T320 651T308 508Q308 427
317 369T343 274T383 219T435 201Q447 201 462 206T494 220T529 242T568 273V832Z" />
<glyph unicode="h" glyph-name="h" horiz-adv-x="918" d="M580 0Q580 76 580 151T582 294T584 422T585 524Q585 614 579 671T559 762T526 808T478 821Q462 821 446 816T412 800T376 777T339 747V0H102V1418H339V918Q359 938 383 957T436 990T495 1014T560 1023Q626
1023 675 999T758 921T807 782T824 573Q824 526 823 462T821 323T819 165T818 0H580Z" />
<glyph unicode="i" glyph-name="i" horiz-adv-x="440" d="M358 1252Q358 1215 352 1191T329 1152T287 1131T220 1125Q180 1125 154 1130T112 1150T90 1188T83 1251Q83 1288 89 1312T112 1351T154 1372T221 1378Q261 1378 287 1373T329 1353T351 1315T358 1252V1252ZM102
0V1003H339V0H102Z" />
<glyph unicode="j" glyph-name="j" horiz-adv-x="440" d="M339 91Q339 18 328 -44T294 -161T235 -266T150 -364L-7 -287Q44 -217 73 -136T102 41V961V1003H339V91ZM358 1252Q358 1215 352 1191T329 1152T287 1131T220 1125Q180 1125 154 1130T112 1150T90 1188T83
1251Q83 1288 89 1312T112 1351T154 1372T221 1378Q261 1378 287 1373T329 1353T351 1315T358 1252V1252Z" />
<glyph unicode="k" glyph-name="k" horiz-adv-x="794" d="M550 0L345 506H339V0H102V1418H339V614H345L518 1003H780L544 590L812 0H550Z" />
<glyph unicode="l" glyph-name="l" horiz-adv-x="466" d="M442 9Q421 3 401 -2T359 -10T316 -15T272 -17Q230 -17 199 -8T145 23T113 85T102 186V1418H339V289Q339 249 342 225T351 186T368 167T396 162Q405 162 415 162T434 162L442 9Z" />
<glyph unicode="m" glyph-name="m" horiz-adv-x="1378" d="M1039 0Q1039 76 1040 151T1042 294T1043 422T1044 524Q1044 614 1038 671T1019 762T987 808T942 821Q929 821 913 816T879 800T842 774T801 740Q803 724 804 708T807 672T808 630T809 578V0H573V524Q573
614 567 671T549 762T518 808T473 821Q460 821 444 816T411 800T376 777T339 747V0H102V1003H297L310 898Q335 922 363 944T422 984T486 1012T555 1023Q594 1023 626 1013T685 985T730 941T764 883Q796 914 827 939T890 983T956 1012T1025 1023Q1089 1023 1137
999T1218 921T1267 782T1283 573Q1283 526 1282 462T1280 323T1278 165T1277 0H1039Z" />
<glyph unicode="n" glyph-name="n" horiz-adv-x="918" d="M580 0Q580 76 580 151T582 294T584 422T585 524Q585 614 579 671T559 762T526 808T478 821Q462 821 446 816T412 800T376 777T339 747V0H102V1003H297L310 898Q335 922 363 944T423 984T489 1012T560
1023Q626 1023 675 999T758 921T807 782T824 573Q824 526 823 462T821 323T819 165T818 0H580Z" />
<glyph unicode="o" glyph-name="o" horiz-adv-x="906" d="M851 526Q851 426 837 347T796 207T732 103T649 33T549 -8T436 -21Q347 -21 276 5T156 91T82 245T56 476Q56 575 70 654T111 795T175 899T258 969T357 1010T470 1023Q560 1023 631 997T750 911T825 757T851
526V526ZM609 486Q609 587 599 654T568 761T518 817T452 833Q417 833 389 817T340 764T309 666T297 516Q297 415 308 348T339 241T388 185T454 169Q489 169 517 185T566 238T598 336T609 486V486Z" />
<glyph unicode="p" glyph-name="p" horiz-adv-x="906" d="M102 -346V1003H300L314 904Q343 933 373 955T435 992T498 1015T557 1023Q631 1023 686 986T778 883T833 732T851 547Q851 404 819 298T730 122T591 19T412 -15Q397 -15 378 -14T339 -9V-346H102ZM339
170Q357 164 376 162T414 160Q459 160 493 182T551 249T587 358T599 506Q599 590 590 650T564 748T524 804T472 822Q460 822 445 818T412 804T377 781T339 750V170Z" />
<glyph unicode="q" glyph-name="q" horiz-adv-x="906" d="M568 -346V75Q542 52 515 35T461 5T405 -14T350 -21Q299 -21 259 -4T185 44T128 120T88 216T64 329T56 454Q56 598 87 704T177 881T321 986T516 1021Q549 1021 587 1018T664 1010T738 998T805 983V-346H568ZM568
832Q558 835 548 837T529 840T511 841T493 842Q447 842 413 820T355 753T320 644T308 496Q308 411 317 352T342 254T382 198T435 180Q447 180 462 184T494 198T529 221T568 252V832Z" />
<glyph unicode="r" glyph-name="r" horiz-adv-x="610" d="M568 772Q541 781 523 784T492 787Q475 787 460 779T427 753T388 706T339 635V0H102V1003H297L315 845Q346 897 372 931T421 985T467 1013T513 1022Q532 1022 553 1017T596 1001L568 772Z" />
<glyph unicode="s" glyph-name="s" horiz-adv-x="698" d="M60 197Q128 179 178 171T270 162Q309 162 336 171T379 196T403 234T411 280Q411 311 396 333T355 373T296 406T229 440T162 482T103 539T62 617T46 724Q46 789 69 844T134 938T234 1000T364 1023Q393
1023 424 1019T485 1006T547 984T607 951L583 818Q557 825 535 830T492 839T453 844T419 846Q386 846 362 838T322 817T299 784T291 743Q291 712 307 690T348 649T407 615T475 581T542 540T601 483T643 404T659 296Q659 227 636 169T569 69T462 3T320 -21Q241 -21
171 2T41 64L60 197Z" />
<glyph unicode="t" glyph-name="t" horiz-adv-x="578" d="M529 195L548 44Q515 26 487 14T433 -6T383 -17T335 -20Q276 -20 234 -7T166 38T128 119T116 242V827H15V1003H127Q135 1037 142 1071T155 1140T167 1214T180 1294H353V1003H524V827H353V305Q353 270 356
245T367 204T389 181T423 174Q433 174 443 175T467 178T495 185T529 195V195Z" />
<glyph unicode="u" glyph-name="u" horiz-adv-x="918" d="M623 0L610 105Q585 81 557 59T497 19T431 -9T360 -20Q294 -20 245 4T162 82T113 221T96 430Q96 476 97 540T99 680T101 837T102 1003H340Q340 926 340 851T338 708T336 581T335 478Q335 389 341 332T361
241T394 195T442 182Q457 182 474 187T508 202T544 226T581 256V1003H818V0H623Z" />
<glyph unicode="v" glyph-name="v" horiz-adv-x="796" d="M782 1003Q766 868 744 741T693 487T628 239T550 0H235L5 1003H257L383 441L414 239Q439 340 460 437T497 630T524 817T541 1003H782Z" />
<glyph unicode="w" glyph-name="w" horiz-adv-x="1272" d="M1246 1003Q1233 876 1214 752T1168 503T1110 253T1042 0H758L651 560L629 715H627L608 560L512 0H227L13 1003H264L365 452L391 279H393L415 439L509 1003H782L894 436L916 280H918Q936 375 952 467T982
650T1005 827T1020 1003H1246Z" />
<glyph unicode="x" glyph-name="x" horiz-adv-x="794" d="M516 0L376 376Q359 330 342 281T308 183T277 88T250 0H11L233 529L41 1003H300L413 674Q428 709 443 753T473 843T500 931T519 1003H749L554 546L781 0H516Z" />
<glyph unicode="y" glyph-name="y" horiz-adv-x="786" d="M773 1003Q751 806 722 643T657 348T581 112T498 -70T408 -203T316 -292T223 -341T132 -356Q105 -356 71 -347T2 -316V-164Q13 -166 24 -167T47 -169T69 -170T89 -171Q123 -171 149 -162T198 -133Q209
-122 217 -108T232 -79T242 -48T246 -15Q246 14 240 50T220 136L0 1003H250L385 405Q390 382 394 357T402 307T408 256T409 206Q431 294 452 392T489 594T517 801T532 1003H773Z" />
<glyph unicode="z" glyph-name="z" horiz-adv-x="692" d="M634 0H51V175L347 812H65L73 1003H619V830L322 193H641L634 0Z" />
<glyph unicode="{" glyph-name="braceleft" horiz-adv-x="600" d="M425 -346Q362 -346 318 -328T244 -276T202 -191T188 -77V319Q188 371 182 403T165 453T137 477T100 483H53V669H100Q120 669 136 674T164 697T182 745T188 829V1206Q188 1273 202 1323T244 1408T318
1460T428 1478H500V1325H464Q440 1325 425 1320T400 1303T388 1269T385 1217V841Q385 788 379 746T359 671T322 614T262 576Q298 561 321 538T359 482T379 408T385 314V-81Q385 -114 388 -136T400 -170T426 -188T467 -193H500V-346H425Z" />
<glyph unicode="|" glyph-name="bar" horiz-adv-x="416" d="M106 -346V1506H310V-346H106Z" />
<glyph unicode="}" glyph-name="braceright" horiz-adv-x="600" d="M499 483Q479 483 463 478T435 455T418 407T411 323V-73Q411 -141 398 -191T355 -276T281 -328T171 -346H100V-193H135Q159 -193 174 -188T199 -171T211 -138T215 -85V310Q215 363 220 406T240
481T277 537T338 576Q301 590 278 614T240 670T221 744T215 838V1213Q215 1246 212 1267T199 1302T173 1320T133 1325H100V1478H174Q237 1478 282 1460T355 1408T397 1323T411 1209V833Q411 780 417 748T435 699T462 675T499 669H547V483H499Z" />
<glyph unicode="~" glyph-name="asciitilde" horiz-adv-x="840" d="M808 1172Q808 1099 790 1040T738 938T656 872T548 849Q499 849 465 865T406 904T364 955T332 1006T306 1046T277 1062Q263 1062 252 1054T233 1026T222 973T219 891H33V937Q33 1010 51 1069T103
1171T184 1237T292 1260Q340 1260 375 1244T434 1205T476 1154T508 1103T536 1064T565 1048Q579 1048 589 1056T607 1084T617 1137T621 1219H808V1172Z" />
<glyph unicode="&#x8e;" glyph-name="Zcaron" horiz-adv-x="764" d="M45 0V198L419 1135H59L61 1350H698V1153L323 217H719L718 0H45ZM131 1620L185 1724L387 1626L589 1724L643 1622L385 1442L131 1620Z" />
<glyph unicode="&#x9e;" glyph-name="zcaron" horiz-adv-x="692" d="M634 0H51V175L347 812H65L73 1003H619V830L322 193H641L634 0ZM348 1118L106 1379L173 1469L352 1322L527 1469L596 1380L348 1118Z" />
<glyph unicode="&#xa0;" glyph-name="space" horiz-adv-x="414" />
<glyph unicode="&#xa1;" glyph-name="exclamdown" horiz-adv-x="600" d="M354 782L393 -212H106L144 782H354ZM106 1015Q106 1054 112 1081T135 1124T179 1147T250 1154Q291 1154 319 1147T363 1124T385 1082T392 1016Q392 977 386 951T363 908T319 885T249 878Q206
878 178 884T135 907T113 949T106 1015V1015Z" />
<glyph unicode="&#xa2;" glyph-name="cent" horiz-adv-x="840" d="M760 298Q741 278 719 259T671 224T616 196T554 177L536 -22H395L377 164Q311 175 257 203T165 284T107 415T86 602Q86 703 108 781T168 916T260 1010T376 1064L395 1259H536L553 1065Q607 1055
654 1027T741 955L661 823Q625 854 587 872T504 891Q470 891 439 876T383 830T345 751T330 637Q330 552 344 496T381 407T434 361T496 348Q527 348 553 354T604 371T649 397T690 432L760 298Z" />
<glyph unicode="&#xa3;" glyph-name="sterling" horiz-adv-x="840" d="M70 0V168Q108 216 134 265T174 366T192 475T191 595H54V766H166Q161 786 156 812T147 868T140 927T138 989Q138 1088 161 1159T229 1277T336 1345T478 1367Q515 1367 554 1361T630 1345T700
1319T762 1287L741 1146Q682 1161 635 1167T552 1174Q501 1174 468 1162T417 1127T391 1069T384 989Q384 958 386 930T393 874T402 819T413 766H671V595H433Q438 534 436 480T423 377T395 286T346 206H784V0H70Z" />
<glyph unicode="&#xa4;" glyph-name="currency" horiz-adv-x="840" d="M651 19L551 182Q520 162 484 152T404 142Q370 142 340 149T285 171L191 19L39 115L146 262Q120 305 107 366T93 509Q93 593 109 660T156 775L39 935L190 1031L291 871Q320 890 354 898T430
907Q465 907 496 899T555 875L652 1031L803 935L690 781Q717 739 731 681T745 545Q745 461 730 396T683 280L803 115L651 19ZM543 507Q543 582 535 631T510 710T470 752T417 764Q388 764 365 753T326 715T301 647T292 544Q292 466 300 416T325 337T366 297T421
285Q448 285 470 296T509 334T534 402T543 507V507Z" />
<glyph unicode="&#xa5;" glyph-name="yen" horiz-adv-x="840" d="M755 435H548V302H755V145H548V0H292V145H85V302H292V435H85V592H292V650Q251 727 214 807T141 974T73 1153T6 1350H266Q283 1285 303 1221T345 1094T391 969T441 847Q466 900 489 961T533 1087T574
1218T608 1350H832Q802 1260 770 1170T703 990T629 816T548 651V592H755V435Z" />
<glyph unicode="&#xa6;" glyph-name="brokenbar" horiz-adv-x="416" d="M310 -346H106V407H310V-346ZM106 1500H310V737H106V1500Z" />
<glyph unicode="&#xa7;" glyph-name="section" horiz-adv-x="840" d="M181 -139Q212 -150 252 -157T330 -165Q361 -165 382 -156T417 -132T436 -95T443 -50Q443 -10 426 25T381 96T317 168T244 245T170 333T106 436T61 559T44 707Q44 785 62 864T111 1015T186
1151T279 1262T383 1336T493 1363Q547 1363 597 1344T688 1294L647 1149Q610 1162 574 1168T503 1174Q474 1174 454 1165T420 1138T401 1099T395 1051Q395 1015 412 982T458 915T522 846T595 769T669 679T733 574T778 449T796 298Q796 214 775 133T719 -20T638
-154T541 -260T438 -330T338 -355Q309 -355 283 -350T232 -336T183 -314T135 -282L181 -139ZM607 269Q607 330 591 381T550 475T492 557T427 629T364 697T311 765T278 838T273 919Q265 900 258 881T245 840T237 795T233 743Q233 681 248 631T289 538T345 457T409
386T472 318T525 249T560 174T568 88Q576 108 583 128T595 171T603 217T607 269V269Z" />
<glyph unicode="&#xa8;" glyph-name="dieresis" horiz-adv-x="668" d="M614 1258Q614 1225 608 1203T588 1168T554 1148T504 1141Q474 1141 454 1147T420 1167T400 1203T394 1258Q394 1290 400 1312T420 1347T454 1366T504 1372Q533 1372 554 1366T588 1347T608
1313T614 1258ZM275 1258Q275 1225 269 1203T249 1168T215 1148T165 1141Q135 1141 114 1147T80 1167T61 1203T54 1258Q54 1290 60 1312T80 1347T115 1366T165 1372Q195 1372 215 1366T249 1347T269 1313T275 1258Z" />
<glyph unicode="&#xa9;" glyph-name="copyright" horiz-adv-x="1324" d="M1256 680Q1256 579 1235 488T1175 318T1082 177T961 70T818 2T659 -22Q574 -22 497 1T355 67T236 172T146 311T88 479T68 671Q68 772 89 863T149 1032T242 1173T363 1280T506 1348T665
1372Q750 1372 827 1349T969 1283T1088 1178T1178 1039T1236 872T1256 680V680ZM1093 674Q1093 794 1061 895T972 1071T836 1187T662 1229Q569 1229 490 1188T354 1072T264 897T231 677Q231 557 263 455T352 279T488 163T662 121Q755 121 834 162T970 278T1060
453T1093 674V674ZM890 394Q866 369 841 349T786 314T724 291T651 283Q519 283 453 379T386 669Q386 765 406 841T464 969T552 1050T666 1078Q727 1078 779 1054T874 980L806 875Q778 898 751 911T697 924Q672 924 651 912T614 871T591 799T582 692Q582 624 589
577T611 499T646 455T695 441Q730 441 761 455T828 502L890 394Z" />
<glyph unicode="&#xaa;" glyph-name="ordfeminine" horiz-adv-x="724" d="M462 678L451 749Q428 728 405 712T359 686T312 670T264 665Q220 665 184 679T121 721T79 788T63 877Q63 932 82 978T141 1056T240 1107T381 1126H422V1178Q422 1201 417 1219T400 1249T368
1267T319 1273Q282 1273 234 1265T127 1234L101 1364Q135 1379 168 1391T235 1413T301 1426T365 1431Q428 1431 474 1417T550 1375T596 1301T612 1194V678H462ZM422 1003H381Q339 1003 312 994T270 969T250 934T245 894Q245 876 249 861T263 833T286 815T317 808Q326
808 338 811T363 820T390 836T422 859V1003ZM94 406V550H622V406H94Z" />
<glyph unicode="&#xab;" glyph-name="guillemotleft" horiz-adv-x="828" d="M274 187L53 588L276 989L433 932L278 588L433 247L274 187ZM592 227L404 588L594 949L750 892L622 588L750 287L592 227Z" />
<glyph unicode="&#xac;" glyph-name="logicalnot" horiz-adv-x="840" d="M577 239V507H53V692H765V239H577Z" />
<glyph unicode="&#xad;" glyph-name="hyphen" horiz-adv-x="378" d="M34 488V678H389V488H34Z" />
<glyph unicode="&#xae;" glyph-name="registered" horiz-adv-x="944" d="M877 968Q877 872 845 788T758 641T628 542T468 506Q382 506 309 541T182 639T98 785T67 966Q67 1063 99 1147T186 1293T316 1392T476 1428Q562 1428 635 1393T762 1295T846 1149T877 968V968ZM763
965Q763 1042 741 1108T681 1222T589 1297T473 1324Q411 1324 357 1298T264 1224T203 1112T181 969Q181 891 203 826T263 712T355 637T472 610Q535 610 588 636T679 709T740 822T763 965V965ZM521 741L458 928H436V741H317V1218Q359 1219 399 1221T474 1223Q515
1223 547 1213T602 1185T637 1140T649 1079Q649 1034 628 999T571 945L654 741H521ZM436 1013H471Q497 1013 511 1030T525 1070Q525 1100 513 1115T468 1131H436V1013Z" />
<glyph unicode="&#xaf;" glyph-name="macron" horiz-adv-x="566" d="M54 1154V1328H512V1154H54Z" />
<glyph unicode="&#xb0;" glyph-name="degree" horiz-adv-x="760" d="M651 1119Q651 1049 634 995T581 903T494 845T374 825Q304 825 253 842T169 895T121 984T105 1111Q105 1180 123 1234T176 1326T262 1382T382 1402Q452 1402 503 1385T586 1334T635 1246T651
1119V1119ZM477 1116Q477 1152 472 1177T455 1219T424 1243T378 1251Q350 1251 332 1242T302 1216T285 1174T279 1116Q279 1079 285 1053T303 1010T333 986T378 978Q405 978 424 986T454 1012T471 1055T477 1116V1116Z" />
<glyph unicode="&#xb1;" glyph-name="plusminus" horiz-adv-x="840" d="M60 0V176H780V0H60ZM514 620V311H326V620H57V796H326V1102H514V796H783V620H514Z" />
<glyph unicode="&#xb2;" glyph-name="twosuperior" horiz-adv-x="606" d="M58 704V858Q140 938 192 997T273 1097T311 1166T322 1220Q322 1245 316 1262T299 1289T273 1303T238 1308Q219 1308 198 1305T158 1295T124 1284T84 1270L58 1400Q90 1414 118 1424T176
1443T239 1455T308 1460Q357 1460 398 1448T472 1411T522 1346T540 1252Q540 1210 529 1170T490 1084T416 985T296 866H556V704H58Z" />
<glyph unicode="&#xb3;" glyph-name="threesuperior" horiz-adv-x="610" d="M54 848Q82 842 101 839T141 832T181 828T222 826Q255 826 278 832T315 850T335 880T342 922Q342 947 336 964T315 993T276 1010T214 1016H134V1154H222Q275 1154 300 1176T326 1242Q326
1281 306 1300T242 1320Q227 1320 208 1318T169 1312T127 1303T88 1290L60 1410Q116 1434 176 1447T298 1460Q359 1460 403 1447T477 1409T520 1348T534 1264Q534 1232 527 1205T507 1157T476 1120T434 1096Q463 1090 485 1076T522 1039T544 990T552 932Q552 866
531 819T473 744T384 702T272 688Q214 688 156 699T40 736L54 848Z" />
<glyph unicode="&#xb4;" glyph-name="acute" horiz-adv-x="488" d="M156 1111L54 1184L280 1451L434 1351L156 1111Z" />
<glyph unicode="&#xb5;" glyph-name="mu" horiz-adv-x="920" d="M623 0L610 108Q586 82 562 61T512 24T460 1T406 -8Q367 -8 339 11T297 66Q299 43 301 19T307 -31T313 -83T319 -137T326 -191T333 -244T340 -296T347 -346H102V1003H339V439Q339 365 345 315T365
236T397 194T442 182Q457 182 474 187T508 202T544 226T581 256V1003H818V0H623Z" />
<glyph unicode="&#xb6;" glyph-name="paragraph" horiz-adv-x="1122" d="M788 -215V1188H613V-215H432V563Q354 557 288 581T174 657T99 782T72 951Q72 1040 95 1113T164 1239T277 1321T433 1350H969V-215H788Z" />
<glyph unicode="&#xb7;" glyph-name="periodcentered" horiz-adv-x="474" d="M375 601Q375 561 369 534T346 491T304 467T236 460Q196 460 170 467T129 490T107 533T100 599Q100 637 106 664T128 707T171 731T238 739Q279 739 305 732T347 708T368 666T375 601V601Z" />
<glyph unicode="&#xb8;" glyph-name="cedilla" horiz-adv-x="390" d="M332 -83Q344 -171 309 -239T189 -363L54 -308Q83 -277 101 -250T128 -195T137 -140T131 -83H332Z" />
<glyph unicode="&#xb9;" glyph-name="onesuperior" horiz-adv-x="578" d="M72 704V858H206V1266L88 1224L62 1348L252 1446H406V858H528V704H72Z" />
<glyph unicode="&#xba;" glyph-name="ordmasculine" horiz-adv-x="718" d="M654 1063Q654 964 632 890T568 766T469 691T345 665Q280 665 228 685T138 750T80 864T59 1032Q59 1130 81 1204T145 1329T242 1405T368 1430Q432 1430 485 1410T575 1345T633 1231T654
1063V1063ZM464 1037Q464 1111 456 1158T434 1233T399 1271T356 1282Q331 1282 312 1272T278 1235T256 1166T248 1058Q248 984 256 937T279 862T313 824T357 813Q381 813 401 823T435 860T456 929T464 1037V1037ZM98 406V550H627V406H98Z" />
<glyph unicode="&#xbb;" glyph-name="guillemotright" horiz-adv-x="828" d="M553 989L774 588L551 187L394 245L549 588L394 930L553 989ZM235 949L423 588L233 227L77 285L205 588L77 890L235 949Z" />
<glyph unicode="&#xbc;" glyph-name="onequarter" horiz-adv-x="1268" d="M72 704V858H206V1266L88 1224L62 1348L252 1446H406V858H528V704H72ZM1085 1464L1206 1390L250 -161L129 -87L1085 1464ZM1160 12V-130H966V12H678V154Q697 206 721 264T773 382T829 499T886
608H1160V164H1236V12H1160ZM966 474Q950 445 931 408T893 328T855 244T822 164H966V474Z" />
<glyph unicode="&#xbd;" glyph-name="onehalf" horiz-adv-x="1330" d="M72 704V858H206V1266L88 1224L62 1348L252 1446H406V858H528V704H72ZM1085 1464L1206 1390L250 -161L129 -87L1085 1464ZM782 -130V24Q864 104 916 163T997 263T1035 332T1046 386Q1046 411
1040 428T1023 455T997 469T962 474Q943 474 922 471T882 461T848 450T808 436L782 566Q814 580 842 590T900 609T963 621T1032 626Q1081 626 1122 614T1196 577T1246 512T1264 418Q1264 376 1253 336T1214 250T1140 151T1020 32H1280V-130H782Z" />
<glyph unicode="&#xbe;" glyph-name="threequarters" horiz-adv-x="1248" d="M54 848Q82 842 101 839T141 832T181 828T222 826Q255 826 278 832T315 850T335 880T342 922Q342 947 336 964T315 993T276 1010T214 1016H134V1154H222Q275 1154 300 1176T326 1242Q326
1281 306 1300T242 1320Q227 1320 208 1318T169 1312T127 1303T88 1290L60 1410Q116 1434 176 1447T298 1460Q359 1460 403 1447T477 1409T520 1348T534 1264Q534 1232 527 1205T507 1157T476 1120T434 1096Q463 1090 485 1076T522 1039T544 990T552 932Q552 866
531 819T473 744T384 702T272 688Q214 688 156 699T40 736L54 848ZM1065 1464L1186 1390L230 -161L109 -87L1065 1464ZM1140 12V-130H946V12H658V154Q677 206 701 264T753 382T809 499T866 608H1140V164H1216V12H1140ZM946 474Q930 445 911 408T873 328T835 244T802
164H946V474Z" />
<glyph unicode="&#xbf;" glyph-name="questiondown" horiz-adv-x="780" d="M68 101Q68 174 86 227T131 321T191 398T251 470T298 552T319 659L322 782H532L537 663Q540 586 527 531T491 433T440 357T388 290T348 221T332 136Q332 102 341 74T367 26T411 -6T475
-18Q500 -18 525 -15T574 -5T620 9T662 26L727 -134Q688 -157 649 -175T570 -206T489 -224T402 -230Q318 -230 255 -207T151 -142T89 -38T68 101V101ZM284 1015Q284 1054 290 1081T313 1124T357 1147T429 1154Q470 1154 497 1147T541 1124T563 1082T570 1016Q570
977 564 951T541 908T497 885T427 878Q384 878 356 884T313 907T291 949T284 1015V1015Z" />
<glyph unicode="&#xc0;" glyph-name="Agrave" horiz-adv-x="966" d="M695 0Q688 38 682 73T670 142T657 207T644 270H296Q283 209 271 144T245 0H10Q42 168 77 339T151 681T232 1019T319 1350H641Q689 1177 731 1009T812 673T886 338T956 0H695ZM609 464Q592 543
574 625T538 789T502 951T464 1110Q449 1038 432 958T398 794T364 626T330 464H609ZM547 1438L203 1568L321 1718L621 1548L547 1438Z" />
<glyph unicode="&#xc1;" glyph-name="Aacute" horiz-adv-x="966" d="M695 0Q688 38 682 73T670 142T657 207T644 270H296Q283 209 271 144T245 0H10Q42 168 77 339T151 681T232 1019T319 1350H641Q689 1177 731 1009T812 673T886 338T956 0H695ZM609 464Q592 543
574 625T538 789T502 951T464 1110Q449 1038 432 958T398 794T364 626T330 464H609ZM630 1718L740 1568L398 1438L322 1548L630 1718Z" />
<glyph unicode="&#xc2;" glyph-name="Acircumflex" horiz-adv-x="966" d="M695 0Q688 38 682 73T670 142T657 207T644 270H296Q283 209 271 144T245 0H10Q42 168 77 339T151 681T232 1019T319 1350H641Q689 1177 731 1009T812 673T886 338T956 0H695ZM609 464Q592
543 574 625T538 789T502 951T464 1110Q449 1038 432 958T398 794T364 626T330 464H609ZM738 1543L684 1442L481 1539L279 1442L226 1544L484 1723L738 1543Z" />
<glyph unicode="&#xc3;" glyph-name="Atilde" horiz-adv-x="966" d="M695 0Q688 38 682 73T670 142T657 207T644 270H296Q283 209 271 144T245 0H10Q42 168 77 339T151 681T232 1019T319 1350H641Q689 1177 731 1009T812 673T886 338T956 0H695ZM609 464Q592 543
574 625T538 789T502 951T464 1110Q449 1038 432 958T398 794T364 626T330 464H609ZM783 1628Q764 1584 743 1551T697 1495T640 1459T569 1446Q530 1446 502 1459T453 1489T410 1524T371 1542Q360 1542 349 1537T327 1520T303 1491T277 1448L183 1520Q202 1564
223 1597T269 1653T326 1689T397 1702Q436 1702 464 1689T513 1659T556 1624T595 1606Q606 1606 617 1611T639 1628T663 1657T689 1700L783 1628Z" />
<glyph unicode="&#xc4;" glyph-name="Adieresis" horiz-adv-x="966" d="M695 0Q688 38 682 73T670 142T657 207T644 270H296Q283 209 271 144T245 0H10Q42 168 77 339T151 681T232 1019T319 1350H641Q689 1177 731 1009T812 673T886 338T956 0H695ZM609 464Q592
543 574 625T538 789T502 951T464 1110Q449 1038 432 958T398 794T364 626T330 464H609ZM760 1570Q760 1537 753 1515T733 1478T698 1458T648 1452Q618 1452 598 1458T564 1477T545 1513T538 1568Q538 1600 544 1622T563 1657T597 1676T648 1682Q678 1682 699 1676T733
1657T753 1623T760 1570ZM412 1570Q412 1537 406 1515T387 1478T354 1458T304 1452Q275 1452 255 1458T221 1477T201 1513T194 1568Q194 1600 200 1622T220 1657T254 1676T304 1682Q334 1682 354 1676T387 1657T406 1623T412 1570Z" />
<glyph unicode="&#xc5;" glyph-name="Aring" horiz-adv-x="966" d="M695 0Q688 38 682 73T670 142T657 207T644 270H296Q283 209 271 144T245 0H10Q42 168 77 339T151 681T232 1019T319 1350H641Q689 1177 731 1009T812 673T886 338T956 0H695ZM609 464Q592 543
574 625T538 789T502 951T464 1110Q449 1038 432 958T398 794T364 626T330 464H609ZM689 1574Q689 1527 673 1493T628 1438T560 1408T473 1398Q424 1398 387 1406T325 1433T286 1483T273 1558Q273 1605 289 1639T334 1694T402 1724T489 1734Q538 1734 574 1726T636
1699T675 1649T689 1574ZM543 1566Q543 1608 528 1626T481 1644Q451 1644 434 1626T417 1566Q417 1544 421 1529T434 1505T453 1492T481 1488Q511 1488 527 1506T543 1566Z" />
<glyph unicode="&#xc6;" glyph-name="AE" horiz-adv-x="1198" d="M541 0V262H264Q255 231 246 199T227 133T208 66T189 0H-42Q9 178 63 349T173 688T288 1021T409 1350H1115V1141H782V790H1055V589H782V211H1123V0H541ZM541 1143H538Q506 1048 477 957T421 781T368
615T320 464H541V1143Z" />
<glyph unicode="&#xc7;" glyph-name="Ccedilla" horiz-adv-x="794" d="M772 176Q744 130 711 94T638 32T552 -7T451 -21Q359 -21 286 19T164 143T88 353T61 652Q61 838 93 973T182 1197T314 1327T479 1370Q518 1370 556 1359T631 1324T699 1265T758 1181L644 1053Q609
1105 576 1129T497 1153Q475 1153 454 1143T412 1109T376 1051T348 964T329 844T322 691Q322 560 334 466T369 313T424 225T496 196Q522 196 544 203T588 225T629 259T673 308L772 176ZM539 -83Q551 -171 516 -239T396 -363L261 -308Q290 -277 308 -250T335 -195T344
-140T338 -83H539Z" />
<glyph unicode="&#xc8;" glyph-name="Egrave" horiz-adv-x="770" d="M116 0V1350H702V1141H370V795H643V595H370V211H708V0H116ZM467 1438L123 1568L241 1718L541 1548L467 1438Z" />
<glyph unicode="&#xc9;" glyph-name="Eacute" horiz-adv-x="770" d="M116 0V1350H702V1141H370V795H643V595H370V211H708V0H116ZM581 1718L691 1568L349 1438L273 1548L581 1718Z" />
<glyph unicode="&#xca;" glyph-name="Ecircumflex" horiz-adv-x="770" d="M116 0V1350H702V1141H370V795H643V595H370V211H708V0H116ZM664 1543L610 1442L407 1539L205 1442L152 1544L410 1723L664 1543Z" />
<glyph unicode="&#xcb;" glyph-name="Edieresis" horiz-adv-x="770" d="M116 0V1350H702V1141H370V795H643V595H370V211H708V0H116ZM691 1570Q691 1537 684 1515T664 1478T629 1458T579 1452Q549 1452 529 1458T495 1477T476 1513T469 1568Q469 1600 475 1622T494
1657T528 1676T579 1682Q609 1682 630 1676T664 1657T684 1623T691 1570ZM343 1570Q343 1537 337 1515T318 1478T285 1458T235 1452Q206 1452 186 1458T152 1477T132 1513T125 1568Q125 1600 131 1622T151 1657T185 1676T235 1682Q265 1682 285 1676T318 1657T337
1623T343 1570Z" />
<glyph unicode="&#xcc;" glyph-name="Igrave" horiz-adv-x="490" d="M116 0V1350H373V0H116ZM562 1438L218 1568L336 1718L636 1548L562 1438Z" />
<glyph unicode="&#xcd;" glyph-name="Iacute" horiz-adv-x="490" d="M116 0V1350H373V0H116ZM414 1718L524 1568L182 1438L106 1548L414 1718Z" />
<glyph unicode="&#xce;" glyph-name="Icircumflex" horiz-adv-x="490" d="M116 0V1350H373V0H116ZM749 1543L695 1442L492 1539L290 1442L237 1544L495 1723L749 1543Z" />
<glyph unicode="&#xcf;" glyph-name="Idieresis" horiz-adv-x="490" d="M116 0V1350H373V0H116ZM774 1570Q774 1537 767 1515T747 1478T712 1458T662 1452Q632 1452 612 1458T578 1477T559 1513T552 1568Q552 1600 558 1622T577 1657T611 1676T662 1682Q692 1682
713 1676T747 1657T767 1623T774 1570ZM426 1570Q426 1537 420 1515T401 1478T368 1458T318 1452Q289 1452 269 1458T235 1477T215 1513T208 1568Q208 1600 214 1622T234 1657T268 1676T318 1682Q348 1682 368 1676T401 1657T420 1623T426 1570Z" />
<glyph unicode="&#xd0;" glyph-name="Eth" horiz-adv-x="1010" d="M134 1350Q223 1350 309 1351T476 1353Q563 1353 633 1333T756 1273T848 1178T911 1051T947 894T958 712Q958 538 927 405T830 180T665 41T431 -7Q394 -7 356 -6T280 -4T206 -2T134 0V595H33V792H134V1350ZM383
792H530V595H383V207Q402 204 420 204T455 203Q516 203 562 234T638 326T683 476T698 681Q698 758 692 822T672 938T639 1029T592 1095T532 1135T457 1148Q443 1148 431 1148T409 1148T393 1148T383 1147V792Z" />
<glyph unicode="&#xd1;" glyph-name="Ntilde" horiz-adv-x="1072" d="M668 0L410 733Q390 788 373 841T342 938Q326 987 314 1033H310Q314 978 317 916Q320 864 322 798T324 663V0H116V1350H445L665 740Q683 690 699 639T730 545Q745 495 758 450H762Q758 510
755 574Q752 628 750 693T748 819V1350H956V0H668ZM849 1628Q830 1584 809 1551T763 1495T706 1459T635 1446Q596 1446 568 1459T519 1489T476 1524T437 1542Q426 1542 415 1537T393 1520T369 1491T343 1448L249 1520Q268 1564 289 1597T335 1653T392 1689T463
1702Q502 1702 530 1689T579 1659T622 1624T661 1606Q672 1606 683 1611T705 1628T729 1657T755 1700L849 1628Z" />
<glyph unicode="&#xd2;" glyph-name="Ograve" horiz-adv-x="1048" d="M988 697Q988 560 971 454T923 268T848 133T751 44T638 -5T514 -21Q404 -21 320 14T177 130T90 338T60 652Q60 788 77 894T125 1080T200 1215T297 1305T410 1354T534 1370Q644 1370 728 1335T871
1219T958 1011T988 697V697ZM732 651Q732 797 718 895T676 1052T608 1135T518 1160Q475 1160 438 1138T374 1061T332 919T316 698Q316 600 322 525T341 392T372 297T414 234T467 199T530 188Q573 188 610 211T674 288T716 430T732 651V651ZM597 1438L253 1568L371
1718L671 1548L597 1438Z" />
<glyph unicode="&#xd3;" glyph-name="Oacute" horiz-adv-x="1048" d="M988 697Q988 560 971 454T923 268T848 133T751 44T638 -5T514 -21Q404 -21 320 14T177 130T90 338T60 652Q60 788 77 894T125 1080T200 1215T297 1305T410 1354T534 1370Q644 1370 728 1335T871
1219T958 1011T988 697V697ZM732 651Q732 797 718 895T676 1052T608 1135T518 1160Q475 1160 438 1138T374 1061T332 919T316 698Q316 600 322 525T341 392T372 297T414 234T467 199T530 188Q573 188 610 211T674 288T716 430T732 651V651ZM697 1718L807 1568L465
1438L389 1548L697 1718Z" />
<glyph unicode="&#xd4;" glyph-name="Ocircumflex" horiz-adv-x="1048" d="M988 697Q988 560 971 454T923 268T848 133T751 44T638 -5T514 -21Q404 -21 320 14T177 130T90 338T60 652Q60 788 77 894T125 1080T200 1215T297 1305T410 1354T534 1370Q644 1370 728
1335T871 1219T958 1011T988 697V697ZM732 651Q732 797 718 895T676 1052T608 1135T518 1160Q475 1160 438 1138T374 1061T332 919T316 698Q316 600 322 525T341 392T372 297T414 234T467 199T530 188Q573 188 610 211T674 288T716 430T732 651V651ZM780 1543L726
1442L523 1539L321 1442L268 1544L526 1723L780 1543Z" />
<glyph unicode="&#xd5;" glyph-name="Otilde" horiz-adv-x="1048" d="M988 697Q988 560 971 454T923 268T848 133T751 44T638 -5T514 -21Q404 -21 320 14T177 130T90 338T60 652Q60 788 77 894T125 1080T200 1215T297 1305T410 1354T534 1370Q644 1370 728 1335T871
1219T958 1011T988 697V697ZM732 651Q732 797 718 895T676 1052T608 1135T518 1160Q475 1160 438 1138T374 1061T332 919T316 698Q316 600 322 525T341 392T372 297T414 234T467 199T530 188Q573 188 610 211T674 288T716 430T732 651V651ZM825 1628Q806 1584 785
1551T739 1495T682 1459T611 1446Q572 1446 544 1459T495 1489T452 1524T413 1542Q402 1542 391 1537T369 1520T345 1491T319 1448L225 1520Q244 1564 265 1597T311 1653T368 1689T439 1702Q478 1702 506 1689T555 1659T598 1624T637 1606Q648 1606 659 1611T681
1628T705 1657T731 1700L825 1628Z" />
<glyph unicode="&#xd6;" glyph-name="Odieresis" horiz-adv-x="1048" d="M988 697Q988 560 971 454T923 268T848 133T751 44T638 -5T514 -21Q404 -21 320 14T177 130T90 338T60 652Q60 788 77 894T125 1080T200 1215T297 1305T410 1354T534 1370Q644 1370 728
1335T871 1219T958 1011T988 697V697ZM732 651Q732 797 718 895T676 1052T608 1135T518 1160Q475 1160 438 1138T374 1061T332 919T316 698Q316 600 322 525T341 392T372 297T414 234T467 199T530 188Q573 188 610 211T674 288T716 430T732 651V651ZM808 1570Q808
1537 801 1515T781 1478T746 1458T696 1452Q666 1452 646 1458T612 1477T593 1513T586 1568Q586 1600 592 1622T611 1657T645 1676T696 1682Q726 1682 747 1676T781 1657T801 1623T808 1570ZM460 1570Q460 1537 454 1515T435 1478T402 1458T352 1452Q323 1452 303
1458T269 1477T249 1513T242 1568Q242 1600 248 1622T268 1657T302 1676T352 1682Q382 1682 402 1676T435 1657T454 1623T460 1570Z" />
<glyph unicode="&#xd7;" glyph-name="multiply" horiz-adv-x="840" d="M788 346L661 220L420 473L179 220L52 346L296 600L52 854L179 980L420 726L661 980L788 854L544 600L788 346Z" />
<glyph unicode="&#xd8;" glyph-name="Oslash" horiz-adv-x="1048" d="M988 697Q988 560 971 454T923 268T848 133T751 44T638 -5T514 -21Q447 -21 390 -6T285 41L184 -157L56 -93L171 137Q115 218 88 345T60 652Q60 788 77 894T125 1080T200 1215T297 1305T410
1354T534 1370Q601 1370 658 1355T763 1307L864 1506L992 1442L877 1212Q932 1130 960 1003T988 697V697ZM748 653Q748 727 742 791T722 907L386 243Q414 209 448 193T530 176Q562 176 590 185T643 218T686 277T720 366T741 490T748 653V653ZM518 1173Q470 1173
430 1150T361 1072T316 925T300 696Q300 622 306 558T326 442L662 1106Q634 1140 600 1156T518 1173V1173Z" />
<glyph unicode="&#xd9;" glyph-name="Ugrave" horiz-adv-x="1036" d="M923 487Q923 348 894 252T810 94T679 6T507 -22Q408 -22 334 4T211 87T138 236T113 457V1350H367V485Q367 399 374 341T400 246T449 194T524 178Q565 178 594 192T643 241T672 331T681 469V1350H923V487ZM562
1438L218 1568L336 1718L636 1548L562 1438Z" />
<glyph unicode="&#xda;" glyph-name="Uacute" horiz-adv-x="1036" d="M923 487Q923 348 894 252T810 94T679 6T507 -22Q408 -22 334 4T211 87T138 236T113 457V1350H367V485Q367 399 374 341T400 246T449 194T524 178Q565 178 594 192T643 241T672 331T681 469V1350H923V487ZM744
1718L854 1568L512 1438L436 1548L744 1718Z" />
<glyph unicode="&#xdb;" glyph-name="Ucircumflex" horiz-adv-x="1036" d="M923 487Q923 348 894 252T810 94T679 6T507 -22Q408 -22 334 4T211 87T138 236T113 457V1350H367V485Q367 399 374 341T400 246T449 194T524 178Q565 178 594 192T643 241T672 331T681
469V1350H923V487ZM780 1543L726 1442L523 1539L321 1442L268 1544L526 1723L780 1543Z" />
<glyph unicode="&#xdc;" glyph-name="Udieresis" horiz-adv-x="1036" d="M923 487Q923 348 894 252T810 94T679 6T507 -22Q408 -22 334 4T211 87T138 236T113 457V1350H367V485Q367 399 374 341T400 246T449 194T524 178Q565 178 594 192T643 241T672 331T681
469V1350H923V487ZM808 1570Q808 1537 801 1515T781 1478T746 1458T696 1452Q666 1452 646 1458T612 1477T593 1513T586 1568Q586 1600 592 1622T611 1657T645 1676T696 1682Q726 1682 747 1676T781 1657T801 1623T808 1570ZM460 1570Q460 1537 454 1515T435 1478T402
1458T352 1452Q323 1452 303 1458T269 1477T249 1513T242 1568Q242 1600 248 1622T268 1657T302 1676T352 1682Q382 1682 402 1676T435 1657T454 1623T460 1570Z" />
<glyph unicode="&#xdd;" glyph-name="Yacute" horiz-adv-x="796" d="M814 1350Q782 1236 748 1128T678 921T603 734T525 570V0H269V570Q229 650 192 738T118 924T48 1127T-18 1350H249Q265 1276 284 1208T325 1074T369 939T417 797Q439 868 460 937T500 1076T537
1213T569 1350H814ZM628 1718L738 1568L396 1438L320 1548L628 1718Z" />
<glyph unicode="&#xde;" glyph-name="Thorn" horiz-adv-x="918" d="M116 0V1350H370V1140Q392 1141 418 1141T474 1141Q587 1141 666 1110T795 1024T869 891T892 721Q892 623 865 538T780 391T632 292T415 256H370V0H116ZM370 456H433Q486 456 523 472T585 519T619
595T630 698Q630 754 621 799T588 875T527 922T432 939H370V456Z" />
<glyph unicode="&#xdf;" glyph-name="germandbls" horiz-adv-x="968" d="M102 0V992Q102 1100 128 1183T205 1321T328 1405T493 1434Q574 1434 637 1415T744 1358T810 1265T833 1137Q833 1076 822 1034T792 962T754 909T715 865T686 818T674 758Q674 729 685 705T713
661T754 620T800 578T847 530T887 472T916 398T928 303Q928 236 911 178T859 77T773 9T652 -17Q594 -17 542 0T440 50L459 177Q497 169 526 165T587 160Q614 160 633 169T665 194T683 230T689 274Q689 319 671 350T625 409T564 462T504 523T458 605T439 720Q439
771 450 808T480 875T518 930T557 981T586 1037T598 1110Q598 1142 590 1168T567 1211T530 1238T480 1247Q440 1247 414 1232T371 1186T347 1109T340 1002V0H102Z" />
<glyph unicode="&#xe0;" glyph-name="agrave" horiz-adv-x="856" d="M572 0L560 101Q534 73 506 51T446 13T379 -11T304 -20Q172 -20 109 51T46 264Q46 341 71 404T149 513T283 583T474 608H524V685Q524 727 514 756T485 803T438 828T374 836Q342 836 310 832T245
819T181 801T118 777L87 935Q126 954 167 970T252 998T340 1016T432 1023Q511 1023 572 1003T674 944T737 847T758 713V0H572ZM524 453H464Q408 453 372 442T315 409T286 358T277 294Q277 262 283 238T303 198T336 174T381 165Q419 165 454 185T524 240V453ZM446
1111L170 1351L327 1451L552 1184L446 1111Z" />
<glyph unicode="&#xe1;" glyph-name="aacute" horiz-adv-x="856" d="M572 0L560 101Q534 73 506 51T446 13T379 -11T304 -20Q172 -20 109 51T46 264Q46 341 71 404T149 513T283 583T474 608H524V685Q524 727 514 756T485 803T438 828T374 836Q342 836 310 832T245
819T181 801T118 777L87 935Q126 954 167 970T252 998T340 1016T432 1023Q511 1023 572 1003T674 944T737 847T758 713V0H572ZM524 453H464Q408 453 372 442T315 409T286 358T277 294Q277 262 283 238T303 198T336 174T381 165Q419 165 454 185T524 240V453ZM414
1111L312 1184L538 1451L692 1351L414 1111Z" />
<glyph unicode="&#xe2;" glyph-name="acircumflex" horiz-adv-x="856" d="M572 0L560 101Q534 73 506 51T446 13T379 -11T304 -20Q172 -20 109 51T46 264Q46 341 71 404T149 513T283 583T474 608H524V685Q524 727 514 756T485 803T438 828T374 836Q342 836 310
832T245 819T181 801T118 777L87 935Q126 954 167 970T252 998T340 1016T432 1023Q511 1023 572 1003T674 944T737 847T758 713V0H572ZM524 453H464Q408 453 372 442T315 409T286 358T277 294Q277 262 283 238T303 198T336 174T381 165Q419 165 454 185T524 240V453ZM604
1115L428 1263L251 1116L183 1205L430 1467L674 1206L604 1115Z" />
<glyph unicode="&#xe3;" glyph-name="atilde" horiz-adv-x="856" d="M572 0L560 101Q534 73 506 51T446 13T379 -11T304 -20Q172 -20 109 51T46 264Q46 341 71 404T149 513T283 583T474 608H524V685Q524 727 514 756T485 803T438 828T374 836Q342 836 310 832T245
819T181 801T118 777L87 935Q126 954 167 970T252 998T340 1016T432 1023Q511 1023 572 1003T674 944T737 847T758 713V0H572ZM524 453H464Q408 453 372 442T315 409T286 358T277 294Q277 262 283 238T303 198T336 174T381 165Q419 165 454 185T524 240V453ZM709
1325Q692 1283 672 1249T628 1191T573 1155T504 1142Q462 1142 434 1157T384 1190T346 1223T309 1239Q298 1239 288 1234T267 1217T244 1187T218 1144L128 1215Q145 1257 165 1291T209 1349T264 1385T333 1398Q375 1398 403 1383T453 1350T491 1316T528 1301Q539
1301 549 1306T570 1323T593 1353T619 1396L709 1325Z" />
<glyph unicode="&#xe4;" glyph-name="adieresis" horiz-adv-x="856" d="M572 0L560 101Q534 73 506 51T446 13T379 -11T304 -20Q172 -20 109 51T46 264Q46 341 71 404T149 513T283 583T474 608H524V685Q524 727 514 756T485 803T438 828T374 836Q342 836 310 832T245
819T181 801T118 777L87 935Q126 954 167 970T252 998T340 1016T432 1023Q511 1023 572 1003T674 944T737 847T758 713V0H572ZM524 453H464Q408 453 372 442T315 409T286 358T277 294Q277 262 283 238T303 198T336 174T381 165Q419 165 454 185T524 240V453ZM709
1258Q709 1225 703 1203T683 1168T649 1148T599 1141Q569 1141 549 1147T515 1167T495 1203T489 1258Q489 1290 495 1312T515 1347T549 1366T599 1372Q628 1372 649 1366T683 1347T703 1313T709 1258ZM370 1258Q370 1225 364 1203T344 1168T310 1148T260 1141Q230
1141 209 1147T175 1167T156 1203T149 1258Q149 1290 155 1312T175 1347T210 1366T260 1372Q290 1372 310 1366T344 1347T364 1313T370 1258Z" />
<glyph unicode="&#xe5;" glyph-name="aring" horiz-adv-x="856" d="M572 0L560 101Q534 73 506 51T446 13T379 -11T304 -20Q172 -20 109 51T46 264Q46 341 71 404T149 513T283 583T474 608H524V685Q524 727 514 756T485 803T438 828T374 836Q342 836 310 832T245
819T181 801T118 777L87 935Q126 954 167 970T252 998T340 1016T432 1023Q511 1023 572 1003T674 944T737 847T758 713V0H572ZM524 453H464Q408 453 372 442T315 409T286 358T277 294Q277 262 283 238T303 198T336 174T381 165Q419 165 454 185T524 240V453ZM631
1299Q631 1241 614 1201T568 1135T500 1098T414 1086Q367 1086 330 1096T268 1129T229 1189T215 1278Q215 1335 231 1376T277 1442T345 1479T431 1491Q479 1491 516 1481T578 1448T617 1388T631 1299V1299ZM486 1282Q486 1312 482 1333T469 1367T449 1384T423 1390Q395
1390 378 1369T360 1295Q360 1264 364 1244T376 1211T396 1193T422 1187Q451 1187 468 1208T486 1282V1282Z" />
<glyph unicode="&#xe6;" glyph-name="ae" horiz-adv-x="1330" d="M1253 85Q1166 37 1075 8T890 -21Q844 -21 802 -13T723 14T656 61T602 131Q567 94 532 66T459 18T383 -10T304 -20Q172 -20 109 51T46 264Q46 341 71 404T149 513T283 583T474 608H524V685Q524
727 514 756T485 803T438 828T374 836Q342 836 310 832T245 819T181 801T118 777L87 935Q126 954 167 970T252 998T340 1016T432 1023Q472 1023 508 1016T575 996T630 962T671 913Q693 938 719 958T776 993T840 1015T911 1023Q966 1023 1015 1012T1104 974T1175
904T1225 798T1252 650T1254 454H755V442Q755 372 766 322T801 238T858 190T937 174Q970 174 1002 178T1070 189T1141 207T1220 233L1253 85ZM1022 607V611Q1022 673 1014 719T990 795T950 839T897 854Q869 854 845 839T802 792T772 715T757 607H1022ZM464 454Q408
454 373 442T316 409T286 359T277 294Q277 262 283 238T303 198T336 174T381 165Q419 165 459 189T542 261Q532 307 528 357T524 454H464Z" />
<glyph unicode="&#xe7;" glyph-name="ccedilla" horiz-adv-x="706" d="M689 126Q659 93 627 66T558 21T479 -8T389 -19Q306 -19 244 12T140 107T77 265T56 488Q56 618 83 717T157 884T270 986T410 1021Q488 1021 552 990T670 894L586 762Q550 796 515 813T447
830Q412 830 385 813T338 758T310 660T300 515Q300 423 309 358T337 253T383 194T447 175Q490 175 529 196T613 261L689 126ZM476 -83Q488 -171 453 -239T333 -363L198 -308Q227 -277 245 -250T272 -195T281 -140T275 -83H476Z" />
<glyph unicode="&#xe8;" glyph-name="egrave" horiz-adv-x="872" d="M296 454V442Q296 372 308 322T343 239T400 190T478 174Q511 174 544 178T611 189T683 207T761 233L794 85Q707 37 616 8T431 -21Q345 -21 276 5T157 89T82 242T56 474Q56 632 90 737T181 906T308
996T452 1023Q508 1023 557 1012T646 974T717 904T767 798T794 650T795 454H296ZM564 607V611Q564 673 556 719T531 795T491 839T438 854Q410 854 386 839T343 792T313 715T298 607H564ZM455 1111L179 1351L336 1451L561 1184L455 1111Z" />
<glyph unicode="&#xe9;" glyph-name="eacute" horiz-adv-x="872" d="M296 454V442Q296 372 308 322T343 239T400 190T478 174Q511 174 544 178T611 189T683 207T761 233L794 85Q707 37 616 8T431 -21Q345 -21 276 5T157 89T82 242T56 474Q56 632 90 737T181 906T308
996T452 1023Q508 1023 557 1012T646 974T717 904T767 798T794 650T795 454H296ZM564 607V611Q564 673 556 719T531 795T491 839T438 854Q410 854 386 839T343 792T313 715T298 607H564ZM419 1111L317 1184L543 1451L697 1351L419 1111Z" />
<glyph unicode="&#xea;" glyph-name="ecircumflex" horiz-adv-x="872" d="M296 454V442Q296 372 308 322T343 239T400 190T478 174Q511 174 544 178T611 189T683 207T761 233L794 85Q707 37 616 8T431 -21Q345 -21 276 5T157 89T82 242T56 474Q56 632 90 737T181
906T308 996T452 1023Q508 1023 557 1012T646 974T717 904T767 798T794 650T795 454H296ZM564 607V611Q564 673 556 719T531 795T491 839T438 854Q410 854 386 839T343 792T313 715T298 607H564ZM618 1115L442 1263L265 1116L197 1205L444 1467L688 1206L618 1115Z"
/>
<glyph unicode="&#xeb;" glyph-name="edieresis" horiz-adv-x="872" d="M296 454V442Q296 372 308 322T343 239T400 190T478 174Q511 174 544 178T611 189T683 207T761 233L794 85Q707 37 616 8T431 -21Q345 -21 276 5T157 89T82 242T56 474Q56 632 90 737T181
906T308 996T452 1023Q508 1023 557 1012T646 974T717 904T767 798T794 650T795 454H296ZM564 607V611Q564 673 556 719T531 795T491 839T438 854Q410 854 386 839T343 792T313 715T298 607H564ZM725 1258Q725 1225 719 1203T699 1168T665 1148T615 1141Q585 1141
565 1147T531 1167T511 1203T505 1258Q505 1290 511 1312T531 1347T565 1366T615 1372Q644 1372 665 1366T699 1347T719 1313T725 1258ZM386 1258Q386 1225 380 1203T360 1168T326 1148T276 1141Q246 1141 225 1147T191 1167T172 1203T165 1258Q165 1290 171 1312T191
1347T226 1366T276 1372Q306 1372 326 1366T360 1347T380 1313T386 1258Z" />
<glyph unicode="&#xec;" glyph-name="igrave" horiz-adv-x="440" d="M102 0V1003H339V0H102ZM500 1111L224 1351L381 1451L606 1184L500 1111Z" />
<glyph unicode="&#xed;" glyph-name="iacute" horiz-adv-x="440" d="M102 0V1003H339V0H102ZM197 1111L95 1184L321 1451L475 1351L197 1111Z" />
<glyph unicode="&#xee;" glyph-name="icircumflex" horiz-adv-x="440" d="M102 0V1003H339V0H102ZM653 1115L477 1263L300 1116L232 1205L479 1467L723 1206L653 1115Z" />
<glyph unicode="&#xef;" glyph-name="idieresis" horiz-adv-x="440" d="M102 0V1003H339V0H102ZM727 1258Q727 1226 721 1204T702 1168T668 1148T620 1141Q590 1141 571 1147T538 1167T519 1203T513 1258Q513 1290 519 1311T538 1346T570 1366T620 1372Q648 1372
668 1367T702 1348T721 1312T727 1258V1258ZM442 1258Q442 1226 436 1204T417 1168T383 1148T336 1141Q306 1141 286 1147T253 1167T234 1203T228 1258Q228 1290 234 1311T253 1346T286 1366T336 1372Q364 1372 384 1367T417 1348T436 1312T442 1258V1258Z" />
<glyph unicode="&#xf0;" glyph-name="eth" horiz-adv-x="898" d="M660 1209Q692 1158 724 1097T781 962T822 802T838 613Q838 501 825 411T788 250T727 128T645 44T543 -4T420 -20Q333 -20 264 10T148 101T75 251T50 460Q50 588 75 690T151 865T273 975T439 1014Q449
1014 459 1013T479 1011T498 1009T515 1005Q508 1021 499 1038T480 1074T459 1109T436 1143L279 1076L189 1196L345 1263Q307 1307 271 1345T195 1418H480Q492 1408 503 1397T525 1375T547 1352T568 1328L711 1390L801 1268L660 1209ZM584 552Q584 630 577 698T555
820Q545 824 534 827T512 832T490 835T467 836Q425 836 394 816T343 754T313 652T303 506Q303 425 312 364T338 262T383 200T448 179Q485 179 510 198T552 260T576 375T584 552V552Z" />
<glyph unicode="&#xf1;" glyph-name="ntilde" horiz-adv-x="918" d="M580 0Q580 76 580 151T582 294T584 422T585 524Q585 614 579 671T559 762T526 808T478 821Q462 821 446 816T412 800T376 777T339 747V0H102V1003H297L310 898Q335 922 363 944T423 984T489
1012T560 1023Q626 1023 675 999T758 921T807 782T824 573Q824 526 823 462T821 323T819 165T818 0H580ZM747 1325Q730 1283 710 1249T666 1191T611 1155T542 1142Q500 1142 472 1157T422 1190T384 1223T347 1239Q336 1239 326 1234T305 1217T282 1187T256 1144L166
1215Q183 1257 203 1291T247 1349T302 1385T371 1398Q413 1398 441 1383T491 1350T529 1316T566 1301Q577 1301 587 1306T608 1323T631 1353T657 1396L747 1325Z" />
<glyph unicode="&#xf2;" glyph-name="ograve" horiz-adv-x="906" d="M851 526Q851 426 837 347T796 207T732 103T649 33T549 -8T436 -21Q347 -21 276 5T156 91T82 245T56 476Q56 575 70 654T111 795T175 899T258 969T357 1010T470 1023Q560 1023 631 997T750 911T825
757T851 526V526ZM609 486Q609 587 599 654T568 761T518 817T452 833Q417 833 389 817T340 764T309 666T297 516Q297 415 308 348T339 241T388 185T454 169Q489 169 517 185T566 238T598 336T609 486V486ZM455 1111L179 1351L336 1451L561 1184L455 1111Z" />
<glyph unicode="&#xf3;" glyph-name="oacute" horiz-adv-x="906" d="M851 526Q851 426 837 347T796 207T732 103T649 33T549 -8T436 -21Q347 -21 276 5T156 91T82 245T56 476Q56 575 70 654T111 795T175 899T258 969T357 1010T470 1023Q560 1023 631 997T750 911T825
757T851 526V526ZM609 486Q609 587 599 654T568 761T518 817T452 833Q417 833 389 817T340 764T309 666T297 516Q297 415 308 348T339 241T388 185T454 169Q489 169 517 185T566 238T598 336T609 486V486ZM434 1111L332 1184L558 1451L712 1351L434 1111Z" />
<glyph unicode="&#xf4;" glyph-name="ocircumflex" horiz-adv-x="906" d="M851 526Q851 426 837 347T796 207T732 103T649 33T549 -8T436 -21Q347 -21 276 5T156 91T82 245T56 476Q56 575 70 654T111 795T175 899T258 969T357 1010T470 1023Q560 1023 631 997T750
911T825 757T851 526V526ZM609 486Q609 587 599 654T568 761T518 817T452 833Q417 833 389 817T340 764T309 666T297 516Q297 415 308 348T339 241T388 185T454 169Q489 169 517 185T566 238T598 336T609 486V486ZM624 1115L448 1263L271 1116L203 1205L450 1467L694
1206L624 1115Z" />
<glyph unicode="&#xf5;" glyph-name="otilde" horiz-adv-x="906" d="M851 526Q851 426 837 347T796 207T732 103T649 33T549 -8T436 -21Q347 -21 276 5T156 91T82 245T56 476Q56 575 70 654T111 795T175 899T258 969T357 1010T470 1023Q560 1023 631 997T750 911T825
757T851 526V526ZM609 486Q609 587 599 654T568 761T518 817T452 833Q417 833 389 817T340 764T309 666T297 516Q297 415 308 348T339 241T388 185T454 169Q489 169 517 185T566 238T598 336T609 486V486ZM744 1325Q727 1283 707 1249T663 1191T608 1155T539 1142Q497
1142 469 1157T419 1190T381 1223T344 1239Q333 1239 323 1234T302 1217T279 1187T253 1144L163 1215Q180 1257 200 1291T244 1349T299 1385T368 1398Q410 1398 438 1383T488 1350T526 1316T563 1301Q574 1301 584 1306T605 1323T628 1353T654 1396L744 1325Z"
/>
<glyph unicode="&#xf6;" glyph-name="odieresis" horiz-adv-x="906" d="M851 526Q851 426 837 347T796 207T732 103T649 33T549 -8T436 -21Q347 -21 276 5T156 91T82 245T56 476Q56 575 70 654T111 795T175 899T258 969T357 1010T470 1023Q560 1023 631 997T750
911T825 757T851 526V526ZM609 486Q609 587 599 654T568 761T518 817T452 833Q417 833 389 817T340 764T309 666T297 516Q297 415 308 348T339 241T388 185T454 169Q489 169 517 185T566 238T598 336T609 486V486ZM734 1258Q734 1225 728 1203T708 1168T674 1148T624
1141Q594 1141 574 1147T540 1167T520 1203T514 1258Q514 1290 520 1312T540 1347T574 1366T624 1372Q653 1372 674 1366T708 1347T728 1313T734 1258ZM395 1258Q395 1225 389 1203T369 1168T335 1148T285 1141Q255 1141 234 1147T200 1167T181 1203T174 1258Q174
1290 180 1312T200 1347T235 1366T285 1372Q315 1372 335 1366T369 1347T389 1313T395 1258Z" />
<glyph unicode="&#xf7;" glyph-name="divide" horiz-adv-x="840" d="M545 275Q545 239 538 215T516 176T476 155T419 148Q385 148 362 153T323 174T301 213T294 273Q294 309 301 333T323 373T363 395T420 402Q452 402 475 396T514 375T537 335T545 275V275ZM65
507V692H775V507H65ZM545 926Q545 890 538 865T516 826T476 804T419 797Q385 797 362 803T323 823T301 863T294 925Q294 960 301 984T323 1023T363 1045T420 1052Q452 1052 475 1046T514 1024T537 985T545 926V926Z" />
<glyph unicode="&#xf8;" glyph-name="oslash" horiz-adv-x="906" d="M752 909Q802 846 826 751T851 526Q851 426 837 347T796 207T732 103T649 33T549 -8T436 -21Q393 -21 352 -13T276 12L190 -152L68 -90L162 86Q108 146 82 243T56 476Q56 575 70 654T111 795T175
899T258 969T357 1010T470 1023Q515 1023 557 1015T637 985L719 1140L841 1078L752 909ZM365 187Q383 171 405 164T453 156Q492 156 523 173T577 228T612 329T625 483Q625 531 621 570T604 641L365 187ZM548 809Q529 830 505 838T454 847Q415 847 383 830T329 774T294
672T281 517Q281 464 287 422T305 351L548 809Z" />
<glyph unicode="&#xf9;" glyph-name="ugrave" horiz-adv-x="918" d="M623 0L610 105Q585 81 557 59T497 19T431 -9T360 -20Q294 -20 245 4T162 82T113 221T96 430Q96 476 97 540T99 680T101 837T102 1003H340Q340 926 340 851T338 708T336 581T335 478Q335 389
341 332T361 241T394 195T442 182Q457 182 474 187T508 202T544 226T581 256V1003H818V0H623ZM458 1111L182 1351L339 1451L564 1184L458 1111Z" />
<glyph unicode="&#xfa;" glyph-name="uacute" horiz-adv-x="918" d="M623 0L610 105Q585 81 557 59T497 19T431 -9T360 -20Q294 -20 245 4T162 82T113 221T96 430Q96 476 97 540T99 680T101 837T102 1003H340Q340 926 340 851T338 708T336 581T335 478Q335 389
341 332T361 241T394 195T442 182Q457 182 474 187T508 202T544 226T581 256V1003H818V0H623ZM461 1111L359 1184L585 1451L739 1351L461 1111Z" />
<glyph unicode="&#xfb;" glyph-name="ucircumflex" horiz-adv-x="918" d="M623 0L610 105Q585 81 557 59T497 19T431 -9T360 -20Q294 -20 245 4T162 82T113 221T96 430Q96 476 97 540T99 680T101 837T102 1003H340Q340 926 340 851T338 708T336 581T335 478Q335
389 341 332T361 241T394 195T442 182Q457 182 474 187T508 202T544 226T581 256V1003H818V0H623ZM632 1115L456 1263L279 1116L211 1205L458 1467L702 1206L632 1115Z" />
<glyph unicode="&#xfc;" glyph-name="udieresis" horiz-adv-x="918" d="M623 0L610 105Q585 81 557 59T497 19T431 -9T360 -20Q294 -20 245 4T162 82T113 221T96 430Q96 476 97 540T99 680T101 837T102 1003H340Q340 926 340 851T338 708T336 581T335 478Q335
389 341 332T361 241T394 195T442 182Q457 182 474 187T508 202T544 226T581 256V1003H818V0H623ZM739 1258Q739 1225 733 1203T713 1168T679 1148T629 1141Q599 1141 579 1147T545 1167T525 1203T519 1258Q519 1290 525 1312T545 1347T579 1366T629 1372Q658 1372
679 1366T713 1347T733 1313T739 1258ZM400 1258Q400 1225 394 1203T374 1168T340 1148T290 1141Q260 1141 239 1147T205 1167T186 1203T179 1258Q179 1290 185 1312T205 1347T240 1366T290 1372Q320 1372 340 1366T374 1347T394 1313T400 1258Z" />
<glyph unicode="&#xfd;" glyph-name="yacute" horiz-adv-x="786" d="M773 1003Q751 806 722 643T657 348T581 112T498 -70T408 -203T316 -292T223 -341T132 -356Q105 -356 71 -347T2 -316V-164Q13 -166 24 -167T47 -169T69 -170T89 -171Q123 -171 149 -162T198
-133Q209 -122 217 -108T232 -79T242 -48T246 -15Q246 14 240 50T220 136L0 1003H250L385 405Q390 382 394 357T402 307T408 256T409 206Q431 294 452 392T489 594T517 801T532 1003H773ZM408 1111L306 1184L532 1451L686 1351L408 1111Z" />
<glyph unicode="&#xfe;" glyph-name="thorn" horiz-adv-x="906" d="M102 -346V1418H339V927Q365 949 391 967T446 997T501 1016T557 1023Q632 1023 687 985T778 882T833 731T851 548Q851 404 819 298T730 123T591 19T412 -15Q405 -15 397 -15T379 -15T359 -13T339
-9V-346H102ZM339 170Q348 167 357 165T376 162T395 161T414 160Q459 160 493 182T551 249T587 357T599 506Q599 590 590 650T564 748T524 804T472 822Q448 822 413 804T339 750V170Z" />
<glyph unicode="&#xff;" glyph-name="ydieresis" horiz-adv-x="786" d="M773 1003Q751 806 722 643T657 348T581 112T498 -70T408 -203T316 -292T223 -341T132 -356Q105 -356 71 -347T2 -316V-164Q13 -166 24 -167T47 -169T69 -170T89 -171Q123 -171 149 -162T198
-133Q209 -122 217 -108T232 -79T242 -48T246 -15Q246 14 240 50T220 136L0 1003H250L385 405Q390 382 394 357T402 307T408 256T409 206Q431 294 452 392T489 594T517 801T532 1003H773ZM686 1258Q686 1225 680 1203T660 1168T626 1148T576 1141Q546 1141 526
1147T492 1167T472 1203T466 1258Q466 1290 472 1312T492 1347T526 1366T576 1372Q605 1372 626 1366T660 1347T680 1313T686 1258ZM347 1258Q347 1225 341 1203T321 1168T287 1148T237 1141Q207 1141 186 1147T152 1167T133 1203T126 1258Q126 1290 132 1312T152
1347T187 1366T237 1372Q267 1372 287 1366T321 1347T341 1313T347 1258Z" />
<glyph unicode="&#x100;" glyph-name="Amacron" horiz-adv-x="966" d="M695 0Q688 38 682 73T670 142T657 207T644 270H296Q283 209 271 144T245 0H10Q42 168 77 339T151 681T232 1019T319 1350H641Q689 1177 731 1009T812 673T886 338T956 0H695ZM609 464Q592
543 574 625T538 789T502 951T464 1110Q449 1038 432 958T398 794T364 626T330 464H609ZM234 1486V1652H733V1486H234Z" />
<glyph unicode="&#x101;" glyph-name="amacron" horiz-adv-x="856" d="M572 0L560 101Q534 73 506 51T446 13T379 -11T304 -20Q172 -20 109 51T46 264Q46 341 71 404T149 513T283 583T474 608H524V685Q524 727 514 756T485 803T438 828T374 836Q342 836 310 832T245
819T181 801T118 777L87 935Q126 954 167 970T252 998T340 1016T432 1023Q511 1023 572 1003T674 944T737 847T758 713V0H572ZM524 453H464Q408 453 372 442T315 409T286 358T277 294Q277 262 283 238T303 198T336 174T381 165Q419 165 454 185T524 240V453ZM206
1154V1328H664V1154H206Z" />
<glyph unicode="&#x102;" glyph-name="Abreve" horiz-adv-x="966" d="M695 0Q688 38 682 73T670 142T657 207T644 270H296Q283 209 271 144T245 0H10Q42 168 77 339T151 681T232 1019T319 1350H641Q689 1177 731 1009T812 673T886 338T956 0H695ZM609 464Q592
543 574 625T538 789T502 951T464 1110Q449 1038 432 958T398 794T364 626T330 464H609ZM731 1714Q731 1646 714 1592T665 1501T585 1445T479 1426Q420 1426 374 1444T296 1499T246 1589T229 1714H373Q373 1683 380 1659T400 1620T433 1596T479 1588Q505 1588 525
1596T560 1620T581 1659T589 1714H731Z" />
<glyph unicode="&#x103;" glyph-name="abreve" horiz-adv-x="856" d="M572 0L560 101Q534 73 506 51T446 13T379 -11T304 -20Q172 -20 109 51T46 264Q46 341 71 404T149 513T283 583T474 608H524V685Q524 727 514 756T485 803T438 828T374 836Q342 836 310 832T245
819T181 801T118 777L87 935Q126 954 167 970T252 998T340 1016T432 1023Q511 1023 572 1003T674 944T737 847T758 713V0H572ZM524 453H464Q408 453 372 442T315 409T286 358T277 294Q277 262 283 238T303 198T336 174T381 165Q419 165 454 185T524 240V453ZM680
1436Q680 1355 663 1293T613 1190T534 1127T428 1106Q369 1106 323 1126T245 1187T195 1290T178 1436H322Q321 1394 327 1365T347 1317T381 1289T428 1280Q456 1280 476 1288T510 1315T531 1364T538 1436H680Z" />
<glyph unicode="&#x104;" glyph-name="Aogonek" horiz-adv-x="964" d="M958 -324Q938 -334 917 -341T873 -354T827 -361T781 -364Q737 -364 701 -356T638 -330T598 -284T584 -219Q584 -191 591 -162T613 -105T647 -50T694 0Q687 38 681 73T669 142T656 207T643
270H295Q282 209 270 144T244 0H9Q41 168 76 339T150 681T231 1019T319 1350H640Q688 1177 730 1009T811 673T885 338T955 0Q912 -10 882 -29T832 -73T804 -122T795 -168Q795 -198 810 -211T859 -224Q873 -224 894 -221T936 -213L958 -324ZM608 464Q591 543 573
625T537 789T501 951T463 1110Q448 1038 431 958T397 794T363 626T329 464H608Z" />
<glyph unicode="&#x105;" glyph-name="aogonek" horiz-adv-x="856" d="M810 -324Q790 -334 769 -341T725 -354T680 -361T634 -364Q589 -364 553 -356T491 -330T451 -284T437 -219Q437 -163 467 -105T571 9L560 101Q534 73 506 51T446 13T379 -11T304 -20Q172 -20
109 51T46 264Q46 341 71 404T149 513T283 583T474 608H524V685Q524 727 514 756T485 803T438 828T374 836Q342 836 310 832T245 819T181 801T118 777L87 935Q126 954 167 970T252 998T340 1016T432 1023Q511 1023 571 1003T673 944T736 847T758 713V0Q698 -43
673 -88T647 -168Q647 -198 662 -211T711 -224Q725 -224 746 -221T788 -213L810 -324ZM524 453H464Q408 453 372 442T315 409T286 358T277 294Q277 262 283 238T303 198T336 174T381 165Q419 165 454 185T524 240V453Z" />
<glyph unicode="&#x106;" glyph-name="Cacute" horiz-adv-x="794" d="M772 176Q744 130 711 94T638 32T552 -7T451 -21Q359 -21 286 19T164 143T88 353T61 652Q61 838 93 973T182 1197T314 1327T479 1370Q518 1370 556 1359T631 1324T699 1265T758 1181L644 1053Q609
1105 576 1129T497 1153Q475 1153 454 1143T412 1109T376 1051T348 964T329 844T322 691Q322 560 334 466T369 313T424 225T496 196Q522 196 544 203T588 225T629 259T673 308L772 176ZM624 1718L734 1568L392 1438L316 1548L624 1718Z" />
<glyph unicode="&#x107;" glyph-name="cacute" horiz-adv-x="706" d="M689 126Q659 93 627 66T558 21T479 -8T389 -19Q306 -19 244 12T140 107T77 265T56 488Q56 618 83 717T157 884T270 986T410 1021Q488 1021 552 990T670 894L586 762Q550 796 515 813T447 830Q412
830 385 813T338 758T310 660T300 515Q300 423 309 358T337 253T383 194T447 175Q490 175 529 196T613 261L689 126ZM420 1111L318 1184L544 1451L698 1351L420 1111Z" />
<glyph unicode="&#x108;" glyph-name="Ccircumflex" horiz-adv-x="794" d="M772 176Q744 130 711 94T638 32T552 -7T451 -21Q359 -21 286 19T164 143T88 353T61 652Q61 838 93 973T182 1197T314 1327T479 1370Q518 1370 556 1359T631 1324T699 1265T758 1181L644
1053Q609 1105 576 1129T497 1153Q475 1153 454 1143T412 1109T376 1051T348 964T329 844T322 691Q322 560 334 466T369 313T424 225T496 196Q522 196 544 203T588 225T629 259T673 308L772 176ZM720 1543L666 1442L463 1539L261 1442L208 1544L466 1723L720 1543Z"
/>
<glyph unicode="&#x109;" glyph-name="ccircumflex" horiz-adv-x="706" d="M689 126Q659 93 627 66T558 21T479 -8T389 -19Q306 -19 244 12T140 107T77 265T56 488Q56 618 83 717T157 884T270 986T410 1021Q488 1021 552 990T670 894L586 762Q550 796 515 813T447
830Q412 830 385 813T338 758T310 660T300 515Q300 423 309 358T337 253T383 194T447 175Q490 175 529 196T613 261L689 126ZM580 1115L404 1263L227 1116L159 1205L406 1467L650 1206L580 1115Z" />
<glyph unicode="&#x10a;" glyph-name="Cdotaccent" horiz-adv-x="794" d="M772 176Q744 130 711 94T638 32T552 -7T451 -21Q359 -21 286 19T164 143T88 353T61 652Q61 838 93 973T182 1197T314 1327T479 1370Q518 1370 556 1359T631 1324T699 1265T758 1181L644
1053Q609 1105 576 1129T497 1153Q475 1153 454 1143T412 1109T376 1051T348 964T329 844T322 691Q322 560 334 466T369 313T424 225T496 196Q522 196 544 203T588 225T629 259T673 308L772 176ZM589 1574Q589 1539 583 1516T561 1480T520 1461T457 1455Q419 1455
394 1460T354 1478T333 1513T326 1571Q326 1606 332 1628T354 1665T394 1684T458 1690Q495 1690 520 1685T560 1667T582 1632T589 1574V1574Z" />
<glyph unicode="&#x10b;" glyph-name="cdotaccent" horiz-adv-x="706" d="M689 126Q659 93 627 66T558 21T479 -8T389 -19Q306 -19 244 12T140 107T77 265T56 488Q56 618 83 717T157 884T270 986T410 1021Q488 1021 552 990T670 894L586 762Q550 796 515 813T447
830Q412 830 385 813T338 758T310 660T300 515Q300 423 309 358T337 253T383 194T447 175Q490 175 529 196T613 261L689 126ZM541 1259Q541 1222 535 1198T513 1159T471 1138T403 1132Q363 1132 337 1137T296 1157T274 1195T267 1258Q267 1295 273 1319T295 1358T337
1379T405 1385Q444 1385 470 1380T512 1360T534 1322T541 1259V1259Z" />
<glyph unicode="&#x10c;" glyph-name="Ccaron" horiz-adv-x="794" d="M772 176Q744 130 711 94T638 32T552 -7T451 -21Q359 -21 286 19T164 143T88 353T61 652Q61 838 93 973T182 1197T314 1327T479 1370Q518 1370 556 1359T631 1324T699 1265T758 1181L644 1053Q609
1105 576 1129T497 1153Q475 1153 454 1143T412 1109T376 1051T348 964T329 844T322 691Q322 560 334 466T369 313T424 225T496 196Q522 196 544 203T588 225T629 259T673 308L772 176ZM200 1620L254 1724L456 1626L658 1724L712 1622L454 1442L200 1620Z" />
<glyph unicode="&#x10d;" glyph-name="ccaron" horiz-adv-x="706" d="M689 126Q659 93 627 66T558 21T479 -8T389 -19Q306 -19 244 12T140 107T77 265T56 488Q56 618 83 717T157 884T270 986T410 1021Q488 1021 552 990T670 894L586 762Q550 796 515 813T447 830Q412
830 385 813T338 758T310 660T300 515Q300 423 309 358T337 253T383 194T447 175Q490 175 529 196T613 261L689 126ZM398 1118L156 1379L223 1469L402 1322L577 1469L646 1380L398 1118Z" />
<glyph unicode="&#x10e;" glyph-name="Dcaron" horiz-adv-x="992" d="M116 1350Q204 1350 291 1351T458 1353Q545 1353 615 1333T738 1273T830 1178T893 1051T929 894T941 712Q941 538 909 405T812 180T647 41T413 -7Q376 -7 338 -6T263 -4T188 -2T116 0V1350ZM366
207Q384 204 402 204T437 203Q499 203 544 234T620 326T665 476T680 681Q680 758 674 822T654 938T621 1029T575 1095T515 1135T440 1148Q425 1148 412 1148T388 1148T372 1148T366 1147V207ZM193 1620L247 1724L449 1626L651 1724L705 1622L447 1442L193 1620Z"
/>
<glyph unicode="&#x10f;" glyph-name="dcaron" horiz-adv-x="1046" d="M607 0L594 100Q564 71 534 49T473 11T410 -13T348 -21Q274 -21 220 16T128 119T74 270T56 453Q56 599 87 706T176 882T315 985T496 1019Q511 1019 530 1018T568 1012V1418H805V0H607ZM568
832Q548 838 529 840T493 842Q447 842 413 821T356 757T320 648T308 495Q308 411 317 352T342 254T382 198T435 180Q459 180 494 198T568 252V832ZM981 1096L855 1114L919 1484L1095 1460L981 1096Z" />
<glyph unicode="&#x110;" glyph-name="Dcroat" horiz-adv-x="1010" d="M134 1350Q223 1350 309 1351T476 1353Q563 1353 633 1333T756 1273T848 1178T911 1051T947 894T958 712Q958 538 927 405T830 180T665 41T431 -7Q394 -7 356 -6T280 -4T206 -2T134 0V595H33V792H134V1350ZM383
792H530V595H383V207Q402 204 420 204T455 203Q516 203 562 234T638 326T683 476T698 681Q698 758 692 822T672 938T639 1029T592 1095T532 1135T457 1148Q443 1148 431 1148T409 1148T393 1148T383 1147V792Z" />
<glyph unicode="&#x111;" glyph-name="dcroat" horiz-adv-x="906" d="M805 0H607L594 100Q564 71 534 49T473 11T410 -13T348 -21Q274 -21 219 16T128 119T73 270T55 453Q55 597 87 704T177 880T316 984T496 1019Q511 1019 530 1018T568 1012V1127H402V1270H568V1418H805V1270H916V1127H805V0ZM568
832Q548 838 529 840T493 842Q447 842 413 820T356 753T320 644T308 495Q308 411 317 352T342 254T382 198T435 180Q459 180 494 198T568 252V832Z" />
<glyph unicode="&#x112;" glyph-name="Emacron" horiz-adv-x="770" d="M116 0V1350H702V1141H370V795H643V595H370V211H708V0H116ZM155 1486V1652H654V1486H155Z" />
<glyph unicode="&#x113;" glyph-name="emacron" horiz-adv-x="872" d="M296 454V442Q296 372 308 322T343 239T400 190T478 174Q511 174 544 178T611 189T683 207T761 233L794 85Q707 37 616 8T431 -21Q345 -21 276 5T157 89T82 242T56 474Q56 632 90 737T181
906T308 996T452 1023Q508 1023 557 1012T646 974T717 904T767 798T794 650T795 454H296ZM564 607V611Q564 673 556 719T531 795T491 839T438 854Q410 854 386 839T343 792T313 715T298 607H564ZM224 1154V1328H682V1154H224Z" />
<glyph unicode="&#x114;" glyph-name="Ebreve" horiz-adv-x="770" d="M116 0V1350H702V1141H370V795H643V595H370V211H708V0H116ZM650 1714Q650 1646 633 1592T584 1501T504 1445T398 1426Q339 1426 293 1444T215 1499T165 1589T148 1714H292Q292 1683 299 1659T319
1620T352 1596T398 1588Q424 1588 444 1596T479 1620T500 1659T508 1714H650Z" />
<glyph unicode="&#x115;" glyph-name="ebreve" horiz-adv-x="872" d="M296 454V442Q296 372 308 322T343 239T400 190T478 174Q511 174 544 178T611 189T683 207T761 233L794 85Q707 37 616 8T431 -21Q345 -21 276 5T157 89T82 242T56 474Q56 632 90 737T181 906T308
996T452 1023Q508 1023 557 1012T646 974T717 904T767 798T794 650T795 454H296ZM564 607V611Q564 673 556 719T531 795T491 839T438 854Q410 854 386 839T343 792T313 715T298 607H564ZM688 1436Q688 1355 671 1293T621 1190T542 1127T436 1106Q377 1106 331 1126T253
1187T203 1290T186 1436H330Q329 1394 335 1365T355 1317T389 1289T436 1280Q464 1280 484 1288T518 1315T539 1364T546 1436H688Z" />
<glyph unicode="&#x116;" glyph-name="Edotaccent" horiz-adv-x="770" d="M116 0V1350H702V1141H370V795H643V595H370V211H708V0H116ZM542 1567Q542 1532 536 1509T514 1473T473 1454T410 1448Q372 1448 347 1453T307 1471T286 1506T279 1564Q279 1599 285 1621T307
1658T347 1677T411 1683Q448 1683 473 1678T513 1660T535 1625T542 1567V1567Z" />
<glyph unicode="&#x117;" glyph-name="edotaccent" horiz-adv-x="872" d="M296 454V442Q296 372 308 322T343 239T400 190T478 174Q511 174 544 178T611 189T683 207T761 233L794 85Q707 37 616 8T431 -21Q345 -21 276 5T157 89T82 242T56 474Q56 632 90 737T181
906T308 996T452 1023Q508 1023 557 1012T646 974T717 904T767 798T794 650T795 454H296ZM564 607V611Q564 673 556 719T531 795T491 839T438 854Q410 854 386 839T343 792T313 715T298 607H564ZM582 1259Q582 1222 576 1198T554 1159T512 1138T444 1132Q404 1132
378 1137T337 1157T315 1195T308 1258Q308 1295 314 1319T336 1358T378 1379T446 1385Q485 1385 511 1380T553 1360T575 1322T582 1259V1259Z" />
<glyph unicode="&#x118;" glyph-name="Eogonek" horiz-adv-x="770" d="M708 0Q674 -22 652 -45T615 -89T595 -131T589 -168Q589 -198 604 -211T653 -224Q668 -224 688 -221T731 -213L752 -324Q733 -334 711 -341T667 -354T622 -361T576 -364Q531 -364 495 -356T433
-330T393 -284T379 -219Q379 -191 386 -163T409 -107T448 -52T504 0H116V1350H702V1141H370V795H643V595H370V211H708V0Z" />
<glyph unicode="&#x119;" glyph-name="eogonek" horiz-adv-x="872" d="M793 87Q751 58 721 24T672 -45T644 -112T635 -168Q635 -198 650 -211T699 -224Q714 -224 735 -221T777 -213L799 -324Q779 -334 758 -341T714 -354T668 -361T622 -364Q578 -364 542 -356T479
-330T439 -284T425 -219Q425 -163 453 -109T540 -5Q515 -13 488 -17T431 -21Q345 -21 276 5T157 89T82 242T56 474Q56 632 90 737T181 906T308 996T452 1023Q508 1023 557 1012T646 974T717 904T767 798T794 650T795 454H296V442Q296 372 308 322T343 239T400 190T478
174Q511 174 544 178T611 189T683 207T761 233L793 87ZM564 607V611Q564 673 556 719T531 795T491 839T438 854Q410 854 386 839T343 792T313 715T298 607H564Z" />
<glyph unicode="&#x11a;" glyph-name="Ecaron" horiz-adv-x="770" d="M116 0V1350H702V1141H370V795H643V595H370V211H708V0H116ZM158 1620L212 1724L414 1626L616 1724L670 1622L412 1442L158 1620Z" />
<glyph unicode="&#x11b;" glyph-name="ecaron" horiz-adv-x="872" d="M296 454V442Q296 372 308 322T343 239T400 190T478 174Q511 174 544 178T611 189T683 207T761 233L794 85Q707 37 616 8T431 -21Q345 -21 276 5T157 89T82 242T56 474Q56 632 90 737T181 906T308
996T452 1023Q508 1023 557 1012T646 974T717 904T767 798T794 650T795 454H296ZM564 607V611Q564 673 556 719T531 795T491 839T438 854Q410 854 386 839T343 792T313 715T298 607H564ZM449 1118L207 1379L274 1469L453 1322L628 1469L697 1380L449 1118Z" />
<glyph unicode="&#x11c;" glyph-name="Gcircumflex" horiz-adv-x="936" d="M852 131Q818 97 779 69T696 20T600 -10T490 -21Q380 -21 299 21T165 147T86 356T60 648Q60 838 94 974T189 1199T333 1328T516 1370Q571 1370 620 1356T711 1314T787 1250T847 1166L736
1053Q710 1079 685 1099T634 1133T582 1154T529 1161Q478 1161 438 1136T370 1056T327 911T311 693Q311 551 326 454T367 299T432 214T516 188Q532 188 546 191T573 198T595 209T612 222V577H487V749H852V131ZM773 1543L719 1442L516 1539L314 1442L261 1544L519
1723L773 1543Z" />
<glyph unicode="&#x11d;" glyph-name="gcircumflex" horiz-adv-x="906" d="M805 39Q805 -42 791 -103T753 -209T693 -284T617 -331T528 -356T430 -364Q396 -364 360 -360T286 -345T207 -319T123 -283L140 -137Q227 -153 290 -162T401 -171Q448 -171 479 -162T530
-133T559 -81T568 -3V96Q516 52 460 26T350 0Q275 0 220 38T128 140T74 289T56 464Q56 605 87 709T177 883T321 986T516 1021Q549 1021 587 1018T664 1010T738 998T805 983V39ZM568 832Q557 835 547 837T528 840T509 841T490 842Q447 842 413 820T356 756T320 651T308
508Q308 427 317 369T343 274T383 219T435 201Q447 201 462 206T494 220T529 242T568 273V832ZM653 1115L477 1263L300 1116L232 1205L479 1467L723 1206L653 1115Z" />
<glyph unicode="&#x11e;" glyph-name="Gbreve" horiz-adv-x="936" d="M852 131Q818 97 779 69T696 20T600 -10T490 -21Q380 -21 299 21T165 147T86 356T60 648Q60 838 94 974T189 1199T333 1328T516 1370Q571 1370 620 1356T711 1314T787 1250T847 1166L736 1053Q710
1079 685 1099T634 1133T582 1154T529 1161Q478 1161 438 1136T370 1056T327 911T311 693Q311 551 326 454T367 299T432 214T516 188Q532 188 546 191T573 198T595 209T612 222V577H487V749H852V131ZM763 1714Q763 1646 746 1592T697 1501T617 1445T511 1426Q452
1426 406 1444T328 1499T278 1589T261 1714H405Q405 1683 412 1659T432 1620T465 1596T511 1588Q537 1588 557 1596T592 1620T613 1659T621 1714H763Z" />
<glyph unicode="&#x11f;" glyph-name="gbreve" horiz-adv-x="906" d="M805 39Q805 -42 791 -103T753 -209T693 -284T617 -331T528 -356T430 -364Q396 -364 360 -360T286 -345T207 -319T123 -283L140 -137Q227 -153 290 -162T401 -171Q448 -171 479 -162T530 -133T559
-81T568 -3V96Q516 52 460 26T350 0Q275 0 220 38T128 140T74 289T56 464Q56 605 87 709T177 883T321 986T516 1021Q549 1021 587 1018T664 1010T738 998T805 983V39ZM568 832Q557 835 547 837T528 840T509 841T490 842Q447 842 413 820T356 756T320 651T308 508Q308
427 317 369T343 274T383 219T435 201Q447 201 462 206T494 220T529 242T568 273V832ZM731 1436Q731 1355 714 1293T664 1190T585 1127T479 1106Q420 1106 374 1126T296 1187T246 1290T229 1436H373Q372 1394 378 1365T398 1317T432 1289T479 1280Q507 1280 527
1288T561 1315T582 1364T589 1436H731Z" />
<glyph unicode="&#x120;" glyph-name="Gdotaccent" horiz-adv-x="936" d="M852 131Q818 97 779 69T696 20T600 -10T490 -21Q380 -21 299 21T165 147T86 356T60 648Q60 838 94 974T189 1199T333 1328T516 1370Q571 1370 620 1356T711 1314T787 1250T847 1166L736
1053Q710 1079 685 1099T634 1133T582 1154T529 1161Q478 1161 438 1136T370 1056T327 911T311 693Q311 551 326 454T367 299T432 214T516 188Q532 188 546 191T573 198T595 209T612 222V577H487V749H852V131ZM644 1574Q644 1539 638 1516T616 1480T575 1461T512
1455Q474 1455 449 1460T409 1478T388 1513T381 1571Q381 1606 387 1628T409 1665T449 1684T513 1690Q550 1690 575 1685T615 1667T637 1632T644 1574V1574Z" />
<glyph unicode="&#x121;" glyph-name="gdotaccent" horiz-adv-x="906" d="M805 39Q805 -42 791 -103T753 -209T693 -284T617 -331T528 -356T430 -364Q396 -364 360 -360T286 -345T207 -319T123 -283L140 -137Q227 -153 290 -162T401 -171Q448 -171 479 -162T530
-133T559 -81T568 -3V96Q516 52 460 26T350 0Q275 0 220 38T128 140T74 289T56 464Q56 605 87 709T177 883T321 986T516 1021Q549 1021 587 1018T664 1010T738 998T805 983V39ZM568 832Q557 835 547 837T528 840T509 841T490 842Q447 842 413 820T356 756T320 651T308
508Q308 427 317 369T343 274T383 219T435 201Q447 201 462 206T494 220T529 242T568 273V832ZM603 1259Q603 1222 597 1198T575 1159T533 1138T465 1132Q425 1132 399 1137T358 1157T336 1195T329 1258Q329 1295 335 1319T357 1358T399 1379T467 1385Q506 1385
532 1380T574 1360T596 1322T603 1259V1259Z" />
<glyph unicode="&#x122;" glyph-name="Gcommaaccent" horiz-adv-x="936" d="M852 131Q818 97 779 69T696 20T600 -10T490 -21Q380 -21 299 21T165 147T86 356T60 648Q60 838 94 974T189 1199T333 1328T516 1370Q571 1370 620 1356T711 1314T787 1250T847 1166L736
1053Q710 1079 685 1099T634 1133T582 1154T529 1161Q478 1161 438 1136T370 1056T327 911T311 693Q311 551 326 454T367 299T432 214T516 188Q532 188 546 191T573 198T595 209T612 222V577H487V749H852V131ZM508 -68Q539 -68 560 -74T593 -91T610 -121T616 -166Q616
-211 598 -246T544 -307T455 -346T332 -362L300 -274Q355 -261 384 -244T413 -202Q413 -195 411 -190T407 -179T404 -168T402 -152Q402 -131 408 -116T428 -89T461 -73T508 -68V-68Z" />
<glyph unicode="&#x123;" glyph-name="gcommaaccent" horiz-adv-x="906" d="M805 39Q805 -42 791 -103T753 -209T693 -284T617 -331T528 -356T430 -364Q396 -364 360 -360T286 -345T207 -319T123 -283L140 -137Q227 -153 290 -162T401 -171Q448 -171 479 -162T530
-133T559 -81T568 -3V96Q516 52 460 26T350 0Q275 0 220 38T128 140T74 289T56 464Q56 605 87 709T177 883T321 986T516 1021Q549 1021 587 1018T664 1010T738 998T805 983V39ZM568 832Q557 835 547 837T528 840T509 841T490 842Q447 842 413 820T356 756T320 651T308
508Q308 427 317 369T343 274T383 219T435 201Q447 201 462 206T494 220T529 242T568 273V832ZM680 1392Q655 1379 635 1366T601 1337T580 1306T572 1273Q572 1263 574 1257T580 1244T585 1227T588 1201Q588 1175 582 1157T563 1128T530 1111T482 1106Q453 1106
433 1111T401 1128T383 1160T377 1210Q377 1258 394 1298T445 1370T525 1428T632 1471L680 1392Z" />
<glyph unicode="&#x124;" glyph-name="Hcircumflex" horiz-adv-x="1050" d="M680 0V609H370V0H116V1350H370V811H680V1350H934V0H680ZM780 1543L726 1442L523 1539L321 1442L268 1544L526 1723L780 1543Z" />
<glyph unicode="&#x125;" glyph-name="hcircumflex" horiz-adv-x="918" d="M580 0Q580 76 580 151T582 294T584 422T585 524Q585 614 579 671T559 762T526 808T478 821Q462 821 446 816T412 800T376 777T339 747V0H102V1418H339V918Q359 938 383 957T436 990T495
1014T560 1023Q626 1023 675 999T758 921T807 782T824 573Q824 526 823 462T821 323T819 165T818 0H580ZM736 1571L682 1470L479 1567L277 1470L224 1572L482 1751L736 1571Z" />
<glyph unicode="&#x126;" glyph-name="Hbar" horiz-adv-x="1068" d="M689 0V595H380V0H126V999H40V1174H126V1350H380V1174H689V1350H943V1174H1028V999H943V0H689ZM689 796V999H380V796H689Z" />
<glyph unicode="&#x127;" glyph-name="hbar" horiz-adv-x="918" d="M580 0Q580 76 580 151T582 294T584 422T585 524Q585 614 579 671T559 762T526 808T478 821Q462 821 446 816T412 800T376 777T339 747V0H102V1141H1V1311H102V1435H339V1311H523V1141H339V918Q359
938 383 957T436 990T495 1014T560 1023Q626 1023 675 999T758 921T807 782T824 573Q824 526 823 462T821 323T819 165T818 0H580Z" />
<glyph unicode="&#x128;" glyph-name="Itilde" horiz-adv-x="490" d="M116 0V1350H373V0H116ZM801 1628Q782 1584 761 1551T715 1495T658 1459T587 1446Q548 1446 520 1459T471 1489T428 1524T389 1542Q378 1542 367 1537T345 1520T321 1491T295 1448L201 1520Q220
1564 241 1597T287 1653T344 1689T415 1702Q454 1702 482 1689T531 1659T574 1624T613 1606Q624 1606 635 1611T657 1628T681 1657T707 1700L801 1628Z" />
<glyph unicode="&#x129;" glyph-name="itilde" horiz-adv-x="440" d="M102 0V1003H339V0H102ZM768 1325Q751 1283 731 1249T687 1191T632 1155T563 1142Q521 1142 493 1157T443 1190T405 1223T368 1239Q357 1239 347 1234T326 1217T303 1187T277 1144L187 1215Q204
1257 224 1291T268 1349T323 1385T392 1398Q434 1398 462 1383T512 1350T550 1316T587 1301Q598 1301 608 1306T629 1323T652 1353T678 1396L768 1325Z" />
<glyph unicode="&#x12a;" glyph-name="Imacron" horiz-adv-x="490" d="M116 0V1350H373V0H116ZM251 1486V1652H750V1486H251Z" />
<glyph unicode="&#x12b;" glyph-name="imacron" horiz-adv-x="440" d="M102 0V1003H339V0H102ZM249 1154V1328H707V1154H249Z" />
<glyph unicode="&#x12c;" glyph-name="Ibreve" horiz-adv-x="490" d="M116 0V1350H373V0H116ZM753 1714Q753 1646 736 1592T687 1501T607 1445T501 1426Q442 1426 396 1444T318 1499T268 1589T251 1714H395Q395 1683 402 1659T422 1620T455 1596T501 1588Q527
1588 547 1596T582 1620T603 1659T611 1714H753Z" />
<glyph unicode="&#x12d;" glyph-name="ibreve" horiz-adv-x="440" d="M102 0V1003H339V0H102ZM728 1436Q728 1355 711 1293T661 1190T582 1127T476 1106Q417 1106 371 1126T293 1187T243 1290T226 1436H370Q369 1394 375 1365T395 1317T429 1289T476 1280Q504
1280 524 1288T558 1315T579 1364T586 1436H728Z" />
<glyph unicode="&#x12e;" glyph-name="Iogonek" horiz-adv-x="490" d="M116 1350H373V0Q332 -13 304 -34T258 -80T233 -127T225 -168Q225 -198 240 -211T289 -224Q304 -224 325 -221T367 -213L389 -324Q369 -334 347 -341T303 -354T258 -361T212 -364Q168 -364
132 -356T69 -330T29 -284T15 -219Q15 -162 41 -108T116 0V1350Z" />
<glyph unicode="&#x12f;" glyph-name="iogonek" horiz-adv-x="440" d="M358 1252Q358 1215 352 1191T329 1152T287 1131T220 1125Q180 1125 154 1130T112 1150T90 1188T83 1251Q83 1288 89 1312T112 1351T154 1372T221 1378Q261 1378 287 1373T329 1353T351 1315T358
1252V1252ZM102 1003H339V0Q305 -13 281 -34T241 -80T218 -127T211 -168Q211 -198 226 -211T275 -224Q289 -224 310 -221T352 -213L374 -324Q354 -334 333 -341T289 -354T243 -361T197 -364Q153 -364 117 -356T54 -330T14 -284T0 -219Q0 -162 26 -108T102 0V1003Z"
/>
<glyph unicode="&#x130;" glyph-name="Idotaccent" horiz-adv-x="490" d="M116 0V1350H373V0H116ZM377 1567Q377 1532 371 1509T349 1473T308 1454T245 1448Q207 1448 182 1453T142 1471T121 1506T114 1564Q114 1599 120 1621T142 1658T182 1677T246 1683Q283
1683 308 1678T348 1660T370 1625T377 1567V1567Z" />
<glyph unicode="&#x131;" glyph-name="dotlessi" horiz-adv-x="440" d="M102 0V1003H339V0H102Z" />
<glyph unicode="&#x132;" glyph-name="IJ" horiz-adv-x="982" d="M116 0V1350H373V0H116ZM865 143Q865 65 852 -4T811 -135T740 -251T637 -351L511 -243Q542 -200 561 -155T591 -59T604 46T608 167V1350H865V143Z" />
<glyph unicode="&#x133;" glyph-name="ij" horiz-adv-x="882" d="M358 1252Q358 1215 352 1191T329 1152T287 1131T220 1125Q180 1125 154 1130T112 1150T90 1188T83 1251Q83 1288 89 1312T112 1351T154 1372T221 1378Q261 1378 287 1373T329 1353T351 1315T358
1252V1252ZM102 0V1003H339V0H102ZM780 91Q780 18 769 -44T735 -161T676 -266T591 -364L434 -287Q485 -217 514 -136T543 41V961V1003H780V91ZM799 1252Q799 1215 793 1191T770 1152T728 1131T661 1125Q621 1125 595 1130T553 1150T531 1188T524 1251Q524 1288
530 1312T553 1351T595 1372T662 1378Q702 1378 728 1373T770 1353T792 1315T799 1252V1252Z" />
<glyph unicode="&#x134;" glyph-name="Jcircumflex" horiz-adv-x="492" d="M376 143Q376 65 363 -4T322 -135T251 -251T148 -351L22 -243Q53 -200 72 -155T102 -59T115 46T119 167V1350H376V143ZM760 1543L706 1442L503 1539L301 1442L248 1544L506 1723L760 1543Z" />
<glyph unicode="&#x135;" glyph-name="jcircumflex" horiz-adv-x="440" d="M339 91Q339 18 328 -44T294 -161T235 -266T150 -364L-7 -287Q44 -217 73 -136T102 41V1003H339V91ZM654 1115L478 1263L301 1116L233 1205L480 1467L724 1206L654 1115Z" />
<glyph unicode="&#x136;" glyph-name="Kcommaaccent" horiz-adv-x="904" d="M619 0L367 628H366V0H116V1350H366V778H367L606 1350H878L586 746L904 0H619ZM476 -68Q507 -68 528 -74T561 -91T578 -121T584 -166Q584 -211 566 -246T512 -307T423 -346T300 -362L268
-274Q323 -261 352 -244T381 -202Q381 -195 379 -190T375 -179T372 -168T370 -152Q370 -131 376 -116T396 -89T429 -73T476 -68V-68Z" />
<glyph unicode="&#x137;" glyph-name="kcommaaccent" horiz-adv-x="786" d="M550 0L345 506H339V0H102V1418H339V614H345L518 1003H780L544 590L812 0H550ZM427 -68Q458 -68 479 -74T512 -91T529 -121T535 -166Q535 -211 517 -246T463 -307T374 -346T251 -362L219
-274Q274 -261 303 -244T332 -202Q332 -195 330 -190T326 -179T323 -168T321 -152Q321 -131 327 -116T347 -89T380 -73T427 -68V-68Z" />
<glyph unicode="&#x138;" glyph-name="kgreenlandic" horiz-adv-x="786" d="M536 0L340 478H339V0H102V1003H339V586H340L519 1003H781L539 562L798 0H536Z" />
<glyph unicode="&#x139;" glyph-name="Lacute" horiz-adv-x="666" d="M116 0V1350H373V206H655V0H116ZM477 1718L587 1568L245 1438L169 1548L477 1718Z" />
<glyph unicode="&#x13a;" glyph-name="lacute" horiz-adv-x="466" d="M442 9Q421 3 401 -2T359 -10T316 -15T272 -17Q230 -17 199 -8T145 23T113 85T102 186V1418H339V289Q339 249 342 225T351 186T368 167T396 162Q405 162 415 162T434 162L442 9ZM419 1734L529
1584L187 1454L111 1564L419 1734Z" />
<glyph unicode="&#x13b;" glyph-name="Lcommaaccent" horiz-adv-x="666" d="M116 0V1350H373V206H655V0H116ZM415 -68Q446 -68 467 -74T500 -91T517 -121T523 -166Q523 -211 505 -246T451 -307T362 -346T239 -362L207 -274Q262 -261 291 -244T320 -202Q320 -195
318 -190T314 -179T311 -168T309 -152Q309 -131 315 -116T335 -89T368 -73T415 -68V-68Z" />
<glyph unicode="&#x13c;" glyph-name="lcommaaccent" horiz-adv-x="466" d="M442 9Q421 3 401 -2T359 -10T316 -15T272 -17Q230 -17 199 -8T145 23T113 85T102 186V1418H339V289Q339 249 342 225T351 186T368 167T396 162Q405 162 415 162T434 162L442 9ZM304
-68Q335 -68 356 -74T389 -91T406 -121T412 -166Q412 -211 394 -246T340 -307T251 -346T128 -362L96 -274Q151 -261 180 -244T209 -202Q209 -195 207 -190T203 -179T200 -168T198 -152Q198 -131 204 -116T224 -89T257 -73T304 -68V-68Z" />
<glyph unicode="&#x13d;" glyph-name="Lcaron" horiz-adv-x="742" d="M116 0V1350H373V206H655V0H116ZM594 1139L469 1157L534 1528L710 1503L594 1139Z" />
<glyph unicode="&#x13e;" glyph-name="lcaron" horiz-adv-x="594" d="M442 9Q421 3 401 -2T359 -10T316 -15T272 -17Q230 -17 199 -8T145 23T113 85T102 186V1418H339V289Q339 249 342 225T351 186T368 167T396 162Q405 162 415 162T434 162L442 9ZM515 1096L389
1114L453 1484L629 1460L515 1096Z" />
<glyph unicode="&#x13f;" glyph-name="Ldot" horiz-adv-x="840" d="M116 0V1350H373V206H655V0H116ZM812 701Q812 661 806 634T783 591T741 567T673 560Q633 560 607 567T566 590T544 633T537 699Q537 737 543 764T565 807T608 831T675 839Q716 839 742 832T784
808T805 766T812 701V701Z" />
<glyph unicode="&#x140;" glyph-name="ldot" horiz-adv-x="734" d="M442 9Q421 3 401 -2T359 -10T316 -15T272 -17Q230 -17 199 -8T145 23T113 85T102 186V1418H339V289Q339 249 342 225T351 186T368 167T396 162Q405 162 415 162T434 162L442 9ZM722 601Q722
561 716 534T693 491T651 467T583 460Q543 460 517 467T476 490T454 533T447 599Q447 637 453 664T475 707T518 731T585 739Q626 739 652 732T694 708T715 666T722 601V601Z" />
<glyph unicode="&#x141;" glyph-name="Lslash" horiz-adv-x="686" d="M548 1022V837L393 740V206H675V0H136V587L39 526V711L136 772V1350H393V926L548 1022Z" />
<glyph unicode="&#x142;" glyph-name="lslash" horiz-adv-x="482" d="M456 9Q435 3 415 -2T373 -10T330 -15T286 -17Q244 -17 213 -8T160 23T127 85T116 186V590L20 528V714L116 776V1418H353V927L452 991V805L353 741V289Q353 249 356 225T365 186T382 167T410
162Q419 162 429 162T448 162L456 9Z" />
<glyph unicode="&#x143;" glyph-name="Nacute" horiz-adv-x="1072" d="M668 0L410 733Q390 788 373 841T342 938Q326 987 314 1033H310Q314 978 317 916Q320 864 322 798T324 663V0H116V1350H445L665 740Q683 690 699 639T730 545Q745 495 758 450H762Q758 510
755 574Q752 628 750 693T748 819V1350H956V0H668ZM769 1718L879 1568L537 1438L461 1548L769 1718Z" />
<glyph unicode="&#x144;" glyph-name="nacute" horiz-adv-x="918" d="M580 0Q580 76 580 151T582 294T584 422T585 524Q585 614 579 671T559 762T526 808T478 821Q462 821 446 816T412 800T376 777T339 747V0H102V1003H297L310 898Q335 922 363 944T423 984T489
1012T560 1023Q626 1023 675 999T758 921T807 782T824 573Q824 526 823 462T821 323T819 165T818 0H580ZM474 1111L372 1184L598 1451L752 1351L474 1111Z" />
<glyph unicode="&#x145;" glyph-name="Ncommaaccent" horiz-adv-x="1072" d="M668 0L410 733Q390 788 373 841T342 938Q326 987 314 1033H310Q314 978 317 916Q320 864 322 798T324 663V0H116V1350H445L665 740Q683 690 699 639T730 545Q745 495 758 450H762Q758
510 755 574Q752 628 750 693T748 819V1350H956V0H668ZM527 -68Q558 -68 579 -74T612 -91T629 -121T635 -166Q635 -211 617 -246T563 -307T474 -346T351 -362L319 -274Q374 -261 403 -244T432 -202Q432 -195 430 -190T426 -179T423 -168T421 -152Q421 -131 427
-116T447 -89T480 -73T527 -68V-68Z" />
<glyph unicode="&#x146;" glyph-name="ncommaaccent" horiz-adv-x="918" d="M580 0Q580 76 580 151T582 294T584 422T585 524Q585 614 579 671T559 762T526 808T478 821Q462 821 446 816T412 800T376 777T339 747V0H102V1003H297L310 898Q335 922 363 944T423
984T489 1012T560 1023Q626 1023 675 999T758 921T807 782T824 573Q824 526 823 462T821 323T819 165T818 0H580ZM461 -68Q492 -68 513 -74T546 -91T563 -121T569 -166Q569 -211 551 -246T497 -307T408 -346T285 -362L253 -274Q308 -261 337 -244T366 -202Q366
-195 364 -190T360 -179T357 -168T355 -152Q355 -131 361 -116T381 -89T414 -73T461 -68V-68Z" />
<glyph unicode="&#x147;" glyph-name="Ncaron" horiz-adv-x="1072" d="M668 0L410 733Q390 788 373 841T342 938Q326 987 314 1033H310Q314 978 317 916Q320 864 322 798T324 663V0H116V1350H445L665 740Q683 690 699 639T730 545Q745 495 758 450H762Q758 510
755 574Q752 628 750 693T748 819V1350H956V0H668ZM288 1620L342 1724L544 1626L746 1724L800 1622L542 1442L288 1620Z" />
<glyph unicode="&#x148;" glyph-name="ncaron" horiz-adv-x="918" d="M580 0Q580 76 580 151T582 294T584 422T585 524Q585 614 579 671T559 762T526 808T478 821Q462 821 446 816T412 800T376 777T339 747V0H102V1003H297L310 898Q335 922 363 944T423 984T489
1012T560 1023Q626 1023 675 999T758 921T807 782T824 573Q824 526 823 462T821 323T819 165T818 0H580ZM458 1118L216 1379L283 1469L462 1322L637 1469L706 1380L458 1118Z" />
<glyph unicode="&#x149;" glyph-name="napostrophe" horiz-adv-x="958" d="M265 1154Q288 1166 305 1176T332 1196T346 1215T351 1236Q351 1247 348 1254T341 1270T333 1290T330 1318Q330 1344 336 1362T356 1391T390 1407T437 1412Q465 1412 485 1407T518 1391T537
1361T544 1311Q544 1273 530 1239T489 1174T419 1117T322 1071L265 1154ZM620 0Q620 76 620 151T622 294T624 422T625 524Q625 614 619 671T599 762T566 808T518 821Q502 821 486 816T452 800T416 777T379 747V0H142V1003H337L350 898Q375 922 403 944T463 984T529
1012T600 1023Q666 1023 715 999T798 921T847 782T864 573Q864 526 863 462T861 323T859 165T858 0H620Z" />
<glyph unicode="&#x14a;" glyph-name="Eng" horiz-adv-x="1072" d="M956 129Q956 51 946 -20T913 -153T853 -269T761 -365L612 -261Q633 -233 649 -203T677 -140T695 -72T706 0H666L409 733Q389 788 372 841T342 938Q326 987 314 1033H310Q314 978 317 916Q320
864 322 798T324 663V0H116V1350H445L665 738Q683 689 699 638T729 543Q745 494 758 447H762Q758 507 755 572Q752 626 750 691T748 819V1350H956V129Z" />
<glyph unicode="&#x14b;" glyph-name="eng" horiz-adv-x="918" d="M476 -287Q527 -217 556 -136T585 41V524Q585 614 579 671T559 762T526 808T478 821Q462 821 446 816T412 800T376 777T339 747V0H102V1003H297L310 898Q335 922 363 944T423 984T489 1012T560
1023Q626 1023 675 999T757 921T806 782T822 573V91Q822 18 811 -44T777 -161T719 -266T633 -364L476 -287Z" />
<glyph unicode="&#x14c;" glyph-name="Omacron" horiz-adv-x="1048" d="M988 697Q988 560 971 454T923 268T848 133T751 44T638 -5T514 -21Q404 -21 320 14T177 130T90 338T60 652Q60 788 77 894T125 1080T200 1215T297 1305T410 1354T534 1370Q644 1370 728 1335T871
1219T958 1011T988 697V697ZM732 651Q732 797 718 895T676 1052T608 1135T518 1160Q475 1160 438 1138T374 1061T332 919T316 698Q316 600 322 525T341 392T372 297T414 234T467 199T530 188Q573 188 610 211T674 288T716 430T732 651V651ZM276 1486V1652H775V1486H276Z"
/>
<glyph unicode="&#x14d;" glyph-name="omacron" horiz-adv-x="906" d="M851 526Q851 426 837 347T796 207T732 103T649 33T549 -8T436 -21Q347 -21 276 5T156 91T82 245T56 476Q56 575 70 654T111 795T175 899T258 969T357 1010T470 1023Q560 1023 631 997T750
911T825 757T851 526V526ZM609 486Q609 587 599 654T568 761T518 817T452 833Q417 833 389 817T340 764T309 666T297 516Q297 415 308 348T339 241T388 185T454 169Q489 169 517 185T566 238T598 336T609 486V486ZM225 1154V1328H683V1154H225Z" />
<glyph unicode="&#x14e;" glyph-name="Obreve" horiz-adv-x="1048" d="M988 697Q988 560 971 454T923 268T848 133T751 44T638 -5T514 -21Q404 -21 320 14T177 130T90 338T60 652Q60 788 77 894T125 1080T200 1215T297 1305T410 1354T534 1370Q644 1370 728 1335T871
1219T958 1011T988 697V697ZM732 651Q732 797 718 895T676 1052T608 1135T518 1160Q475 1160 438 1138T374 1061T332 919T316 698Q316 600 322 525T341 392T372 297T414 234T467 199T530 188Q573 188 610 211T674 288T716 430T732 651V651ZM775 1714Q775 1646 758
1592T709 1501T629 1445T523 1426Q464 1426 418 1444T340 1499T290 1589T273 1714H417Q417 1683 424 1659T444 1620T477 1596T523 1588Q549 1588 569 1596T604 1620T625 1659T633 1714H775Z" />
<glyph unicode="&#x14f;" glyph-name="obreve" horiz-adv-x="906" d="M851 526Q851 426 837 347T796 207T732 103T649 33T549 -8T436 -21Q347 -21 276 5T156 91T82 245T56 476Q56 575 70 654T111 795T175 899T258 969T357 1010T470 1023Q560 1023 631 997T750
911T825 757T851 526V526ZM609 486Q609 587 599 654T568 761T518 817T452 833Q417 833 389 817T340 764T309 666T297 516Q297 415 308 348T339 241T388 185T454 169Q489 169 517 185T566 238T598 336T609 486V486ZM704 1436Q704 1355 687 1293T637 1190T558 1127T452
1106Q393 1106 347 1126T269 1187T219 1290T202 1436H346Q345 1394 351 1365T371 1317T405 1289T452 1280Q480 1280 500 1288T534 1315T555 1364T562 1436H704Z" />
<glyph unicode="&#x150;" glyph-name="Ohungarumlaut" horiz-adv-x="1048" d="M988 697Q988 560 971 454T923 268T848 133T751 44T638 -5T514 -21Q404 -21 320 14T177 130T90 338T60 652Q60 788 77 894T125 1080T200 1215T297 1305T410 1354T534 1370Q644 1370
728 1335T871 1219T958 1011T988 697V697ZM732 651Q732 797 718 895T676 1052T608 1135T518 1160Q475 1160 438 1138T374 1061T332 919T316 698Q316 600 322 525T341 392T372 297T414 234T467 199T530 188Q573 188 610 211T674 288T716 430T732 651V651ZM707 1437L624
1526L955 1727L1087 1614L707 1437ZM336 1435L247 1510L514 1724L650 1633L336 1435Z" />
<glyph unicode="&#x151;" glyph-name="ohungarumlaut" horiz-adv-x="906" d="M851 526Q851 426 837 347T796 207T732 103T649 33T549 -8T436 -21Q347 -21 276 5T156 91T82 245T56 476Q56 575 70 654T111 795T175 899T258 969T357 1010T470 1023Q560 1023 631 997T750
911T825 757T851 526V526ZM609 486Q609 587 599 654T568 761T518 817T452 833Q417 833 389 817T340 764T309 666T297 516Q297 415 308 348T339 241T388 185T454 169Q489 169 517 185T566 238T598 336T609 486V486ZM616 1097L513 1171L760 1443L902 1341L616 1097ZM298
1097L196 1168L425 1443L566 1342L298 1097Z" />
<glyph unicode="&#x152;" glyph-name="OE" horiz-adv-x="1252" d="M678 0Q638 -11 597 -16T514 -21Q404 -21 319 14T177 130T90 338T60 652Q60 788 77 894T125 1080T200 1215T297 1305T410 1354T534 1370Q582 1370 627 1365T706 1350H1185V1141H859V795H1127V595H859V211H1191V0H678ZM612
1141Q589 1151 566 1155T518 1160Q475 1160 438 1138T374 1061T332 919T316 698Q316 551 330 454T372 297T439 213T530 188Q551 188 572 192T612 204V1141Z" />
<glyph unicode="&#x153;" glyph-name="oe" horiz-adv-x="1422" d="M1343 85Q1256 37 1165 8T980 -21Q932 -21 892 -12T819 17T759 64T712 130Q691 92 663 64T599 17T522 -11T436 -21Q347 -21 276 5T156 91T82 245T56 476Q56 575 70 654T111 795T175 899T258 969T357
1010T470 1023Q515 1023 555 1014T630 987T693 939T744 871Q763 908 790 936T851 983T922 1013T1001 1023Q1057 1023 1106 1012T1195 974T1265 904T1315 798T1342 650T1344 454H845V442Q845 372 857 322T892 239T949 190T1027 174Q1060 174 1093 178T1160 189T1232
207T1310 233L1343 85ZM1113 607V611Q1113 673 1105 719T1080 795T1040 839T987 854Q959 854 935 839T892 792T862 715T847 607H1113ZM609 486Q609 587 599 654T568 761T518 817T452 833Q417 833 389 817T340 764T309 666T297 516Q297 415 308 348T339 241T388
185T454 169Q489 169 517 185T566 238T598 336T609 486V486Z" />
<glyph unicode="&#x154;" glyph-name="Racute" horiz-adv-x="938" d="M650 0L427 570H364V0H116V1350Q161 1351 209 1352T304 1353T396 1354T481 1355Q588 1355 662 1328T784 1252T852 1133T873 980Q873 933 867 893T849 818T818 754T775 701T721 660T655 631L924
0H650ZM364 768H451Q493 768 524 781T576 819T605 883T615 972Q615 1018 606 1053T577 1112T523 1148T443 1160H364V768ZM622 1718L732 1568L390 1438L314 1548L622 1718Z" />
<glyph unicode="&#x155;" glyph-name="racute" horiz-adv-x="610" d="M568 772Q541 781 523 784T492 787Q475 787 460 779T427 753T388 706T339 635V0H102V1003H297L315 845Q346 897 372 931T421 985T467 1013T513 1022Q532 1022 553 1017T596 1001L568 772ZM345
1111L243 1184L469 1451L623 1351L345 1111Z" />
<glyph unicode="&#x156;" glyph-name="Rcommaaccent" horiz-adv-x="938" d="M650 0L427 570H364V0H116V1350Q161 1351 209 1352T304 1353T396 1354T481 1355Q588 1355 662 1328T784 1252T852 1133T873 980Q873 933 867 893T849 818T818 754T775 701T721 660T655
631L924 0H650ZM364 768H451Q493 768 524 781T576 819T605 883T615 972Q615 1018 606 1053T577 1112T523 1148T443 1160H364V768ZM495 -68Q526 -68 547 -74T580 -91T597 -121T603 -166Q603 -211 585 -246T531 -307T442 -346T319 -362L287 -274Q342 -261 371 -244T400
-202Q400 -195 398 -190T394 -179T391 -168T389 -152Q389 -131 395 -116T415 -89T448 -73T495 -68V-68Z" />
<glyph unicode="&#x157;" glyph-name="rcommaaccent" horiz-adv-x="610" d="M568 772Q541 781 523 784T492 787Q475 787 460 779T427 753T388 706T339 635V0H102V1003H297L315 845Q346 897 372 931T421 985T467 1013T513 1022Q532 1022 553 1017T596 1001L568
772ZM484 -68Q515 -68 536 -74T569 -91T586 -121T592 -166Q592 -211 574 -246T520 -307T431 -346T308 -362L276 -274Q331 -261 360 -244T389 -202Q389 -195 387 -190T383 -179T380 -168T378 -152Q378 -131 384 -116T404 -89T437 -73T484 -68V-68Z" />
<glyph unicode="&#x158;" glyph-name="Rcaron" horiz-adv-x="938" d="M650 0L427 570H364V0H116V1350Q161 1351 209 1352T304 1353T396 1354T481 1355Q588 1355 662 1328T784 1252T852 1133T873 980Q873 933 867 893T849 818T818 754T775 701T721 660T655 631L924
0H650ZM364 768H451Q493 768 524 781T576 819T605 883T615 972Q615 1018 606 1053T577 1112T523 1148T443 1160H364V768ZM185 1620L239 1724L441 1626L643 1724L697 1622L439 1442L185 1620Z" />
<glyph unicode="&#x159;" glyph-name="rcaron" horiz-adv-x="610" d="M568 772Q541 781 523 784T492 787Q475 787 460 779T427 753T388 706T339 635V0H102V1003H297L315 845Q346 897 372 931T421 985T467 1013T513 1022Q532 1022 553 1017T596 1001L568 772ZM334
1118L92 1379L159 1469L338 1322L513 1469L582 1380L334 1118Z" />
<glyph unicode="&#x15a;" glyph-name="Sacute" horiz-adv-x="816" d="M769 382Q769 303 746 230T674 102T552 13T376 -21Q273 -21 186 15T32 112L93 256Q126 238 159 224T222 201T279 188T330 183Q371 183 402 194T455 227T488 280T499 354Q499 402 481 437T430
501T358 555T277 607T195 668T123 746T72 850T53 991Q53 1076 79 1146T154 1265T268 1342T416 1370Q455 1370 493 1364T569 1344T645 1311T721 1261L664 1117Q606 1145 554 1158T461 1171Q423 1171 395 1160T349 1128T322 1079T313 1018Q313 970 332 934T384 868T457
813T541 759T625 698T698 621T749 519T769 382V382ZM595 1718L705 1568L363 1438L287 1548L595 1718Z" />
<glyph unicode="&#x15b;" glyph-name="sacute" horiz-adv-x="698" d="M60 197Q128 179 178 171T270 162Q309 162 336 171T379 196T403 234T411 280Q411 311 396 333T355 373T296 406T229 440T162 482T103 539T62 617T46 724Q46 789 69 844T134 938T234 1000T364
1023Q393 1023 424 1019T485 1006T547 984T607 951L583 818Q557 825 535 830T492 839T453 844T419 846Q386 846 362 838T322 817T299 784T291 743Q291 712 307 690T348 649T407 615T475 581T542 540T601 483T643 404T659 296Q659 227 636 169T569 69T462 3T320
-21Q241 -21 171 2T41 64L60 197ZM361 1111L259 1184L485 1451L639 1351L361 1111Z" />
<glyph unicode="&#x15c;" glyph-name="Scircumflex" horiz-adv-x="816" d="M769 382Q769 303 746 230T674 102T552 13T376 -21Q273 -21 186 15T32 112L93 256Q126 238 159 224T222 201T279 188T330 183Q371 183 402 194T455 227T488 280T499 354Q499 402 481 437T430
501T358 555T277 607T195 668T123 746T72 850T53 991Q53 1076 79 1146T154 1265T268 1342T416 1370Q455 1370 493 1364T569 1344T645 1311T721 1261L664 1117Q606 1145 554 1158T461 1171Q423 1171 395 1160T349 1128T322 1079T313 1018Q313 970 332 934T384 868T457
813T541 759T625 698T698 621T749 519T769 382V382ZM673 1543L619 1442L416 1539L214 1442L161 1544L419 1723L673 1543Z" />
<glyph unicode="&#x15d;" glyph-name="scircumflex" horiz-adv-x="698" d="M60 197Q128 179 178 171T270 162Q309 162 336 171T379 196T403 234T411 280Q411 311 396 333T355 373T296 406T229 440T162 482T103 539T62 617T46 724Q46 789 69 844T134 938T234 1000T364
1023Q393 1023 424 1019T485 1006T547 984T607 951L583 818Q557 825 535 830T492 839T453 844T419 846Q386 846 362 838T322 817T299 784T291 743Q291 712 307 690T348 649T407 615T475 581T542 540T601 483T643 404T659 296Q659 227 636 169T569 69T462 3T320
-21Q241 -21 171 2T41 64L60 197ZM523 1115L347 1263L170 1116L102 1205L349 1467L593 1206L523 1115Z" />
<glyph unicode="&#x15e;" glyph-name="Scedilla" horiz-adv-x="816" d="M769 382Q769 303 746 230T674 102T552 13T376 -21Q273 -21 186 15T32 112L93 256Q126 238 159 224T222 201T279 188T330 183Q371 183 402 194T455 227T488 280T499 354Q499 402 481 437T430
501T358 555T277 607T195 668T123 746T72 850T53 991Q53 1076 79 1146T154 1265T268 1342T416 1370Q455 1370 493 1364T569 1344T645 1311T721 1261L664 1117Q606 1145 554 1158T461 1171Q423 1171 395 1160T349 1128T322 1079T313 1018Q313 970 332 934T384 868T457
813T541 759T625 698T698 621T749 519T769 382V382ZM497 -83Q509 -171 474 -239T354 -363L219 -308Q248 -277 266 -250T293 -195T302 -140T296 -83H497Z" />
<glyph unicode="&#x15f;" glyph-name="scedilla" horiz-adv-x="698" d="M60 197Q128 179 178 171T270 162Q309 162 336 171T379 196T403 234T411 280Q411 311 396 333T355 373T296 406T229 440T162 482T103 539T62 617T46 724Q46 789 69 844T134 938T234 1000T364
1023Q393 1023 424 1019T485 1006T547 984T607 951L583 818Q557 825 535 830T492 839T453 844T419 846Q386 846 362 838T322 817T299 784T291 743Q291 712 307 690T348 649T407 615T475 581T542 540T601 483T643 404T659 296Q659 227 636 169T569 69T462 3T320
-21Q241 -21 171 2T41 64L60 197ZM423 -83Q435 -171 400 -239T280 -363L145 -308Q174 -277 192 -250T219 -195T228 -140T222 -83H423Z" />
<glyph unicode="&#x160;" glyph-name="Scaron" horiz-adv-x="816" d="M769 382Q769 303 746 230T674 102T552 13T376 -21Q273 -21 186 15T32 112L93 256Q126 238 159 224T222 201T279 188T330 183Q371 183 402 194T455 227T488 280T499 354Q499 402 481 437T430
501T358 555T277 607T195 668T123 746T72 850T53 991Q53 1076 79 1146T154 1265T268 1342T416 1370Q455 1370 493 1364T569 1344T645 1311T721 1261L664 1117Q606 1145 554 1158T461 1171Q423 1171 395 1160T349 1128T322 1079T313 1018Q313 970 332 934T384 868T457
813T541 759T625 698T698 621T749 519T769 382V382ZM156 1620L210 1724L412 1626L614 1724L668 1622L410 1442L156 1620Z" />
<glyph unicode="&#x161;" glyph-name="scaron" horiz-adv-x="698" d="M60 197Q128 179 178 171T270 162Q309 162 336 171T379 196T403 234T411 280Q411 311 396 333T355 373T296 406T229 440T162 482T103 539T62 617T46 724Q46 789 69 844T134 938T234 1000T364
1023Q393 1023 424 1019T485 1006T547 984T607 951L583 818Q557 825 535 830T492 839T453 844T419 846Q386 846 362 838T322 817T299 784T291 743Q291 712 307 690T348 649T407 615T475 581T542 540T601 483T643 404T659 296Q659 227 636 169T569 69T462 3T320
-21Q241 -21 171 2T41 64L60 197ZM354 1118L112 1379L179 1469L358 1322L533 1469L602 1380L354 1118Z" />
<glyph unicode="&#x162;" glyph-name="uni0162" horiz-adv-x="720" d="M488 1139V0H232V1139H14V1350H706V1139H488ZM362 -68Q393 -68 414 -74T447 -91T464 -121T470 -166Q470 -211 452 -246T398 -307T309 -346T186 -362L154 -274Q209 -261 238 -244T267 -202Q267
-195 265 -190T261 -179T258 -168T256 -152Q256 -131 262 -116T282 -89T315 -73T362 -68V-68Z" />
<glyph unicode="&#x163;" glyph-name="uni0163" horiz-adv-x="578" d="M529 195L548 44Q515 26 487 14T433 -6T383 -17T335 -20Q276 -20 234 -7T166 38T128 119T116 242V827H15V1003H127Q135 1037 142 1071T155 1140T167 1214T180 1294H353V1003H524V827H353V305Q353
270 356 245T367 204T389 181T423 174Q433 174 443 175T467 178T495 185T529 195V195ZM330 -68Q361 -68 382 -74T415 -91T432 -121T438 -166Q438 -211 420 -246T366 -307T277 -346T154 -362L122 -274Q177 -261 206 -244T235 -202Q235 -195 233 -190T229 -179T226
-168T224 -152Q224 -131 230 -116T250 -89T283 -73T330 -68V-68Z" />
<glyph unicode="&#x164;" glyph-name="Tcaron" horiz-adv-x="720" d="M488 1139V0H232V1139H14V1350H706V1139H488ZM104 1620L158 1724L360 1626L562 1724L616 1622L358 1442L104 1620Z" />
<glyph unicode="&#x165;" glyph-name="tcaron" horiz-adv-x="662" d="M529 195L548 44Q515 26 487 14T433 -6T383 -17T335 -20Q276 -20 234 -7T166 38T128 119T116 242V827H15V1003H127Q135 1037 142 1071T155 1140T167 1214T180 1294H353V1003H524V827H353V305Q353
270 356 245T367 204T389 181T423 174Q433 174 443 175T467 178T495 185T529 195V195ZM540 1096L414 1114L478 1484L654 1460L540 1096Z" />
<glyph unicode="&#x166;" glyph-name="Tbar" horiz-adv-x="720" d="M488 1139V771H638V571H488V0H232V571H82V771H232V1139H14V1350H706V1139H488Z" />
<glyph unicode="&#x167;" glyph-name="tbar" horiz-adv-x="578" d="M548 44Q492 11 439 -4T336 -20Q276 -20 235 -6T167 39T128 120T116 242V441H31V613H116V827H15V1003H127Q143 1070 155 1140T180 1294H353V1003H524V827H353V613H496V441H353V305Q353 269 357
244T370 203T393 181T430 174Q449 174 472 178T529 195L548 44Z" />
<glyph unicode="&#x168;" glyph-name="Utilde" horiz-adv-x="1036" d="M923 487Q923 348 894 252T810 94T679 6T507 -22Q408 -22 334 4T211 87T138 236T113 457V1350H367V485Q367 399 374 341T400 246T449 194T524 178Q565 178 594 192T643 241T672 331T681 469V1350H923V487ZM824
1628Q805 1584 784 1551T738 1495T681 1459T610 1446Q571 1446 543 1459T494 1489T451 1524T412 1542Q401 1542 390 1537T368 1520T344 1491T318 1448L224 1520Q243 1564 264 1597T310 1653T367 1689T438 1702Q477 1702 505 1689T554 1659T597 1624T636 1606Q647
1606 658 1611T680 1628T704 1657T730 1700L824 1628Z" />
<glyph unicode="&#x169;" glyph-name="utilde" horiz-adv-x="918" d="M623 0L610 105Q585 81 557 59T497 19T431 -9T360 -20Q294 -20 245 4T162 82T113 221T96 430Q96 476 97 540T99 680T101 837T102 1003H340Q340 926 340 851T338 708T336 581T335 478Q335 389
341 332T361 241T394 195T442 182Q457 182 474 187T508 202T544 226T581 256V1003H818V0H623ZM750 1325Q733 1283 713 1249T669 1191T614 1155T545 1142Q503 1142 475 1157T425 1190T387 1223T350 1239Q339 1239 329 1234T308 1217T285 1187T259 1144L169 1215Q186
1257 206 1291T250 1349T305 1385T374 1398Q416 1398 444 1383T494 1350T532 1316T569 1301Q580 1301 590 1306T611 1323T634 1353T660 1396L750 1325Z" />
<glyph unicode="&#x16a;" glyph-name="Umacron" horiz-adv-x="1036" d="M923 487Q923 348 894 252T810 94T679 6T507 -22Q408 -22 334 4T211 87T138 236T113 457V1350H367V485Q367 399 374 341T400 246T449 194T524 178Q565 178 594 192T643 241T672 331T681 469V1350H923V487ZM275
1486V1652H774V1486H275Z" />
<glyph unicode="&#x16b;" glyph-name="umacron" horiz-adv-x="918" d="M623 0L610 105Q585 81 557 59T497 19T431 -9T360 -20Q294 -20 245 4T162 82T113 221T96 430Q96 476 97 540T99 680T101 837T102 1003H340Q340 926 340 851T338 708T336 581T335 478Q335 389
341 332T361 241T394 195T442 182Q457 182 474 187T508 202T544 226T581 256V1003H818V0H623ZM232 1154V1328H690V1154H232Z" />
<glyph unicode="&#x16c;" glyph-name="Ubreve" horiz-adv-x="1036" d="M923 487Q923 348 894 252T810 94T679 6T507 -22Q408 -22 334 4T211 87T138 236T113 457V1350H367V485Q367 399 374 341T400 246T449 194T524 178Q565 178 594 192T643 241T672 331T681 469V1350H923V487ZM775
1714Q775 1646 758 1592T709 1501T629 1445T523 1426Q464 1426 418 1444T340 1499T290 1589T273 1714H417Q417 1683 424 1659T444 1620T477 1596T523 1588Q549 1588 569 1596T604 1620T625 1659T633 1714H775Z" />
<glyph unicode="&#x16d;" glyph-name="ubreve" horiz-adv-x="918" d="M623 0L610 105Q585 81 557 59T497 19T431 -9T360 -20Q294 -20 245 4T162 82T113 221T96 430Q96 476 97 540T99 680T101 837T102 1003H340Q340 926 340 851T338 708T336 581T335 478Q335 389
341 332T361 241T394 195T442 182Q457 182 474 187T508 202T544 226T581 256V1003H818V0H623ZM710 1436Q710 1355 693 1293T643 1190T564 1127T458 1106Q399 1106 353 1126T275 1187T225 1290T208 1436H352Q351 1394 357 1365T377 1317T411 1289T458 1280Q486 1280
506 1288T540 1315T561 1364T568 1436H710Z" />
<glyph unicode="&#x16e;" glyph-name="Uring" horiz-adv-x="1036" d="M923 487Q923 348 894 252T810 94T679 6T507 -22Q408 -22 334 4T211 87T138 236T113 457V1350H367V485Q367 399 374 341T400 246T449 194T524 178Q565 178 594 192T643 241T672 331T681 469V1350H923V487ZM727
1574Q727 1527 711 1493T666 1438T598 1408T511 1398Q462 1398 425 1406T363 1433T324 1483T311 1558Q311 1605 327 1639T372 1694T440 1724T527 1734Q576 1734 612 1726T674 1699T713 1649T727 1574ZM581 1566Q581 1608 566 1626T519 1644Q489 1644 472 1626T455
1566Q455 1544 459 1529T472 1505T491 1492T519 1488Q549 1488 565 1506T581 1566Z" />
<glyph unicode="&#x16f;" glyph-name="uring" horiz-adv-x="918" d="M623 0L610 105Q585 81 557 59T497 19T431 -9T360 -20Q294 -20 245 4T162 82T113 221T96 430Q96 476 97 540T99 680T101 837T102 1003H340Q340 926 340 851T338 708T336 581T335 478Q335 389
341 332T361 241T394 195T442 182Q457 182 474 187T508 202T544 226T581 256V1003H818V0H623ZM671 1299Q671 1241 654 1201T608 1135T540 1098T454 1086Q407 1086 370 1096T308 1129T269 1189T255 1278Q255 1335 271 1376T317 1442T385 1479T471 1491Q519 1491
556 1481T618 1448T657 1388T671 1299V1299ZM526 1282Q526 1312 522 1333T509 1367T489 1384T463 1390Q435 1390 418 1369T400 1295Q400 1264 404 1244T416 1211T436 1193T462 1187Q491 1187 508 1208T526 1282V1282Z" />
<glyph unicode="&#x170;" glyph-name="Uhungarumlaut" horiz-adv-x="1036" d="M923 487Q923 348 894 252T810 94T679 6T507 -22Q408 -22 334 4T211 87T138 236T113 457V1350H367V485Q367 399 374 341T400 246T449 194T524 178Q565 178 594 192T643 241T672 331T681
469V1350H923V487ZM655 1437L572 1526L903 1727L1035 1614L655 1437ZM284 1435L195 1510L462 1724L598 1633L284 1435Z" />
<glyph unicode="&#x171;" glyph-name="uhungarumlaut" horiz-adv-x="918" d="M623 0L610 105Q585 81 557 59T497 19T431 -9T360 -20Q294 -20 245 4T162 82T113 221T96 430Q96 476 97 540T99 680T101 837T102 1003H340Q340 926 340 851T338 708T336 581T335 478Q335
389 341 332T361 241T394 195T442 182Q457 182 474 187T508 202T544 226T581 256V1003H818V0H623ZM597 1097L494 1171L741 1443L883 1341L597 1097ZM279 1097L177 1168L406 1443L547 1342L279 1097Z" />
<glyph unicode="&#x172;" glyph-name="Uogonek" horiz-adv-x="1036" d="M809 -324Q789 -334 768 -341T724 -354T679 -361T632 -364Q588 -364 552 -356T490 -330T450 -284T436 -219Q436 -193 442 -167T461 -114T496 -64T546 -17Q537 -20 527 -21T507 -22Q408 -22
334 4T211 87T138 236T113 457V1350H367V485Q367 399 374 341T400 246T449 194T524 178Q565 178 594 192T643 241T672 331T681 469V1350H923V487Q923 418 916 358T893 247T853 153T795 77Q762 44 735 13T688 -49T657 -109T646 -168Q646 -198 661 -211T710 -224Q724
-224 745 -221T787 -213L809 -324Z" />
<glyph unicode="&#x173;" glyph-name="uogonek" horiz-adv-x="918" d="M818 0Q758 -43 733 -88T707 -168Q707 -198 722 -211T771 -224Q786 -224 806 -221T849 -213L870 -324Q851 -334 829 -341T785 -354T740 -361T694 -364Q649 -364 613 -356T551 -330T511 -284T497
-219Q497 -163 526 -108T623 5L610 105Q585 81 557 59T497 19T431 -9T360 -20Q294 -20 245 4T162 82T113 221T96 430Q96 476 97 540T99 680T101 837T102 1003H340Q340 926 340 851T338 708T336 581T335 478Q335 389 341 332T361 241T394 195T442 182Q457 182 474
187T508 202T544 226T581 256V1003H818V0Z" />
<glyph unicode="&#x174;" glyph-name="Wcircumflex" horiz-adv-x="1432" d="M1420 1350Q1391 1167 1362 995T1301 656T1235 327T1162 0H875L744 716L711 954H709L680 717L554 0H272Q231 168 196 331T130 658T69 993T12 1350H277Q294 1227 311 1105T348 856T387
597T429 322H431L459 536L604 1350H869L1018 528L1044 321H1046Q1067 452 1086 582T1123 840T1157 1096T1188 1350H1420ZM993 1543L939 1442L736 1539L534 1442L481 1544L739 1723L993 1543Z" />
<glyph unicode="&#x175;" glyph-name="wcircumflex" horiz-adv-x="1272" d="M1246 1003Q1233 876 1214 752T1168 503T1110 253T1042 0H758L651 560L629 715H627L608 560L512 0H227L13 1003H264L365 452L391 279H393L415 439L509 1003H782L894 436L916 280H918Q936
375 952 467T982 650T1005 827T1020 1003H1246ZM809 1115L633 1263L456 1116L388 1205L635 1467L879 1206L809 1115Z" />
<glyph unicode="&#x176;" glyph-name="Ycircumflex" horiz-adv-x="796" d="M814 1350Q782 1236 748 1128T678 921T603 734T525 570V0H269V570Q229 650 192 738T118 924T48 1127T-18 1350H249Q265 1276 284 1208T325 1074T369 939T417 797Q439 868 460 937T500
1076T537 1213T569 1350H814ZM664 1543L610 1442L407 1539L205 1442L152 1544L410 1723L664 1543Z" />
<glyph unicode="&#x177;" glyph-name="ycircumflex" horiz-adv-x="786" d="M773 1003Q751 806 722 643T657 348T581 112T498 -70T408 -203T316 -292T223 -341T132 -356Q105 -356 71 -347T2 -316V-164Q13 -166 24 -167T47 -169T69 -170T89 -171Q123 -171 149 -162T198
-133Q209 -122 217 -108T232 -79T242 -48T246 -15Q246 14 240 50T220 136L0 1003H250L385 405Q390 382 394 357T402 307T408 256T409 206Q431 294 452 392T489 594T517 801T532 1003H773ZM575 1115L399 1263L222 1116L154 1205L401 1467L645 1206L575 1115Z" />
<glyph unicode="&#x178;" glyph-name="Ydieresis" horiz-adv-x="796" d="M814 1350Q782 1236 748 1128T678 921T603 734T525 570V0H269V570Q229 650 192 738T118 924T48 1127T-18 1350H249Q265 1276 284 1208T325 1074T369 939T417 797Q439 868 460 937T500 1076T537
1213T569 1350H814ZM689 1570Q689 1537 682 1515T662 1478T627 1458T577 1452Q547 1452 527 1458T493 1477T474 1513T467 1568Q467 1600 473 1622T492 1657T526 1676T577 1682Q607 1682 628 1676T662 1657T682 1623T689 1570ZM341 1570Q341 1537 335 1515T316 1478T283
1458T233 1452Q204 1452 184 1458T150 1477T130 1513T123 1568Q123 1600 129 1622T149 1657T183 1676T233 1682Q263 1682 283 1676T316 1657T335 1623T341 1570Z" />
<glyph unicode="&#x179;" glyph-name="Zacute" horiz-adv-x="764" d="M45 0V198L419 1135H59L61 1350H698V1153L323 217H719L718 0H45ZM572 1718L682 1568L340 1438L264 1548L572 1718Z" />
<glyph unicode="&#x17a;" glyph-name="zacute" horiz-adv-x="692" d="M634 0H51V175L347 812H65L73 1003H619V830L322 193H641L634 0ZM315 1111L213 1184L439 1451L593 1351L315 1111Z" />
<glyph unicode="&#x17b;" glyph-name="Zdotaccent" horiz-adv-x="764" d="M45 0V198L419 1135H59L61 1350H698V1153L323 217H719L718 0H45ZM518 1567Q518 1532 512 1509T490 1473T449 1454T386 1448Q348 1448 323 1453T283 1471T262 1506T255 1564Q255 1599 261
1621T283 1658T323 1677T387 1683Q424 1683 449 1678T489 1660T511 1625T518 1567V1567Z" />
<glyph unicode="&#x17c;" glyph-name="zdotaccent" horiz-adv-x="692" d="M634 0H51V175L347 812H65L73 1003H619V830L322 193H641L634 0ZM484 1252Q484 1215 478 1191T456 1152T414 1131T346 1125Q306 1125 280 1130T239 1150T217 1188T210 1251Q210 1288 216
1312T238 1351T280 1372T348 1378Q387 1378 413 1373T455 1353T477 1315T484 1252V1252Z" />
<glyph unicode="&#x17d;" glyph-name="Zcaron" horiz-adv-x="764" d="M45 0V198L419 1135H59L61 1350H698V1153L323 217H719L718 0H45ZM131 1620L185 1724L387 1626L589 1724L643 1622L385 1442L131 1620Z" />
<glyph unicode="&#x17e;" glyph-name="zcaron" horiz-adv-x="692" d="M634 0H51V175L347 812H65L73 1003H619V830L322 193H641L634 0ZM348 1118L106 1379L173 1469L352 1322L527 1469L596 1380L348 1118Z" />
<glyph unicode="&#x17f;" glyph-name="longs" horiz-adv-x="458" d="M504 1228Q482 1238 460 1244T417 1250Q374 1250 357 1221T339 1129V0H102V1117Q102 1191 114 1249T155 1349T227 1412T335 1434Q366 1434 394 1430T446 1417T492 1398T533 1375L504 1228Z" />
<glyph unicode="&#x192;" glyph-name="florin" horiz-adv-x="840" d="M762 1160Q723 1171 694 1176T639 1182Q615 1182 598 1173T570 1148T553 1108T544 1054L518 767H748V594H508L468 103Q463 32 443 -27T388 -130T304 -197T191 -221Q159 -221 130 -216T75 -203T25
-183T-23 -157L9 -15Q48 -26 77 -31T132 -37Q154 -37 173 -30T205 -8T228 30T239 84L280 594H73V767H290L313 1042Q319 1108 337 1167T388 1270T469 1339T581 1365Q613 1365 642 1361T697 1348T748 1327T795 1302L762 1160Z" />
<glyph unicode="&#x1e6;" glyph-name="Gcaron" horiz-adv-x="936" d="M852 131Q818 97 779 69T696 20T600 -10T490 -21Q380 -21 299 21T165 147T86 356T60 648Q60 838 94 974T189 1199T333 1328T516 1370Q571 1370 620 1356T711 1314T787 1250T847 1166L736 1053Q710
1079 685 1099T634 1133T582 1154T529 1161Q478 1161 438 1136T370 1056T327 911T311 693Q311 551 326 454T367 299T432 214T516 188Q532 188 546 191T573 198T595 209T612 222V577H487V749H852V131ZM258 1620L312 1724L514 1626L716 1724L770 1622L512 1442L258
1620Z" />
<glyph unicode="&#x1e7;" glyph-name="gcaron" horiz-adv-x="906" d="M805 39Q805 -42 791 -103T753 -209T693 -284T617 -331T528 -356T430 -364Q396 -364 360 -360T286 -345T207 -319T123 -283L140 -137Q227 -153 290 -162T401 -171Q448 -171 479 -162T530 -133T559
-81T568 -3V96Q516 52 460 26T350 0Q275 0 220 38T128 140T74 289T56 464Q56 605 87 709T177 883T321 986T516 1021Q549 1021 587 1018T664 1010T738 998T805 983V39ZM568 832Q557 835 547 837T528 840T509 841T490 842Q447 842 413 820T356 756T320 651T308 508Q308
427 317 369T343 274T383 219T435 201Q447 201 462 206T494 220T529 242T568 273V832ZM472 1118L230 1379L297 1469L476 1322L651 1469L720 1380L472 1118Z" />
<glyph unicode="&#x1fa;" glyph-name="Aringacute" horiz-adv-x="966" d="M695 0Q688 38 682 73T670 142T657 207T644 270H296Q283 209 271 144T245 0H10Q42 168 77 339T151 681T232 1019T319 1350H641Q689 1177 731 1009T812 673T886 338T956 0H695ZM609 464Q592
543 574 625T538 789T502 951T464 1110Q449 1038 432 958T398 794T364 626T330 464H609ZM688 1494Q688 1462 671 1440T625 1404T557 1383T471 1376Q424 1376 387 1382T325 1401T286 1434T272 1482Q272 1513 288 1536T334 1573T402 1595T488 1602Q536 1602 573 1596T635
1577T674 1544T688 1494V1494ZM543 1486Q543 1514 527 1526T480 1538Q452 1538 435 1526T417 1491Q417 1464 433 1452T479 1440Q508 1440 525 1451T543 1486V1486ZM647 1770L702 1680L374 1626L343 1688L647 1770Z" />
<glyph unicode="&#x1fb;" glyph-name="aringacute" horiz-adv-x="856" d="M572 0L560 101Q534 73 506 51T446 13T379 -11T304 -20Q172 -20 109 51T46 264Q46 341 71 404T149 513T283 583T474 608H524V685Q524 727 514 756T485 803T438 828T374 836Q342 836 310
832T245 819T181 801T118 777L87 935Q126 954 167 970T252 998T340 1016T432 1023Q511 1023 572 1003T674 944T737 847T758 713V0H572ZM524 453H464Q408 453 372 442T315 409T286 358T277 294Q277 262 283 238T303 198T336 174T381 165Q419 165 454 185T524 240V453ZM636
1263Q636 1212 619 1177T573 1120T505 1088T419 1078Q324 1078 272 1115T220 1244Q220 1295 236 1330T282 1387T350 1419T436 1429Q484 1429 521 1421T583 1392T622 1341T636 1263V1263ZM491 1248Q491 1274 487 1292T474 1321T454 1336T428 1341Q400 1341 383 1323T365
1259Q365 1233 369 1216T381 1187T401 1172T427 1167Q456 1167 473 1184T491 1248V1248ZM591 1701L669 1565L334 1469L283 1562L591 1701Z" />
<glyph unicode="&#x1fc;" glyph-name="AEacute" horiz-adv-x="1198" d="M541 0V262H264Q255 231 246 199T227 133T208 66T189 0H-42Q9 178 63 349T173 688T288 1021T409 1350H1115V1141H782V790H1055V589H782V211H1123V0H541ZM541 1143H538Q506 1048 477 957T421
781T368 615T320 464H541V1143ZM934 1718L1044 1568L702 1438L626 1548L934 1718Z" />
<glyph unicode="&#x1fd;" glyph-name="aeacute" horiz-adv-x="1330" d="M1253 85Q1166 37 1075 8T890 -21Q844 -21 802 -13T723 14T656 61T602 131Q567 94 532 66T459 18T383 -10T304 -20Q172 -20 109 51T46 264Q46 341 71 404T149 513T283 583T474 608H524V685Q524
727 514 756T485 803T438 828T374 836Q342 836 310 832T245 819T181 801T118 777L87 935Q126 954 167 970T252 998T340 1016T432 1023Q472 1023 508 1016T575 996T630 962T671 913Q693 938 719 958T776 993T840 1015T911 1023Q966 1023 1015 1012T1104 974T1175
904T1225 798T1252 650T1254 454H755V442Q755 372 766 322T801 238T858 190T937 174Q970 174 1002 178T1070 189T1141 207T1220 233L1253 85ZM1022 607V611Q1022 673 1014 719T990 795T950 839T897 854Q869 854 845 839T802 792T772 715T757 607H1022ZM464 454Q408
454 373 442T316 409T286 359T277 294Q277 262 283 238T303 198T336 174T381 165Q419 165 459 189T542 261Q532 307 528 357T524 454H464ZM681 1111L579 1184L805 1451L959 1351L681 1111Z" />
<glyph unicode="&#x1fe;" glyph-name="Oslashacute" horiz-adv-x="1048" d="M988 697Q988 560 971 454T923 268T848 133T751 44T638 -5T514 -21Q447 -21 390 -6T285 41L184 -157L56 -93L171 137Q115 218 88 345T60 652Q60 788 77 894T125 1080T200 1215T297 1305T410
1354T534 1370Q601 1370 658 1355T763 1307L864 1506L992 1442L877 1212Q932 1130 960 1003T988 697V697ZM748 653Q748 727 742 791T722 907L386 243Q414 209 448 193T530 176Q562 176 590 185T643 218T686 277T720 366T741 490T748 653V653ZM518 1173Q470 1173
430 1150T361 1072T316 925T300 696Q300 622 306 558T326 442L662 1106Q634 1140 600 1156T518 1173V1173ZM707 1734L817 1584L475 1454L399 1564L707 1734Z" />
<glyph unicode="&#x1ff;" glyph-name="oslashacute" horiz-adv-x="906" d="M752 909Q802 846 826 751T851 526Q851 426 837 347T796 207T732 103T649 33T549 -8T436 -21Q393 -21 352 -13T276 12L190 -152L68 -90L162 86Q108 146 82 243T56 476Q56 575 70 654T111
795T175 899T258 969T357 1010T470 1023Q515 1023 557 1015T637 985L719 1140L841 1078L752 909ZM365 187Q383 171 405 164T453 156Q492 156 523 173T577 228T612 329T625 483Q625 531 621 570T604 641L365 187ZM548 809Q529 830 505 838T454 847Q415 847 383 830T329
774T294 672T281 517Q281 464 287 422T305 351L548 809ZM435 1111L333 1184L559 1451L713 1351L435 1111Z" />
<glyph unicode="&#x218;" glyph-name="Scommaaccent" horiz-adv-x="816" d="M769 382Q769 303 746 230T674 102T552 13T376 -21Q273 -21 186 15T32 112L93 256Q126 238 159 224T222 201T279 188T330 183Q371 183 402 194T455 227T488 280T499 354Q499 402 481
437T430 501T358 555T277 607T195 668T123 746T72 850T53 991Q53 1076 79 1146T154 1265T268 1342T416 1370Q455 1370 493 1364T569 1344T645 1311T721 1261L664 1117Q606 1145 554 1158T461 1171Q423 1171 395 1160T349 1128T322 1079T313 1018Q313 970 332 934T384
868T457 813T541 759T625 698T698 621T749 519T769 382V382ZM402 -68Q433 -68 454 -74T487 -91T504 -121T510 -166Q510 -211 492 -246T438 -307T349 -346T226 -362L194 -274Q249 -261 278 -244T307 -202Q307 -195 305 -190T301 -179T298 -168T296 -152Q296 -131
302 -116T322 -89T355 -73T402 -68V-68Z" />
<glyph unicode="&#x219;" glyph-name="scommaaccent" horiz-adv-x="698" d="M60 197Q128 179 178 171T270 162Q309 162 336 171T379 196T403 234T411 280Q411 311 396 333T355 373T296 406T229 440T162 482T103 539T62 617T46 724Q46 789 69 844T134 938T234 1000T364
1023Q393 1023 424 1019T485 1006T547 984T607 951L583 818Q557 825 535 830T492 839T453 844T419 846Q386 846 362 838T322 817T299 784T291 743Q291 712 307 690T348 649T407 615T475 581T542 540T601 483T643 404T659 296Q659 227 636 169T569 69T462 3T320
-21Q241 -21 171 2T41 64L60 197ZM339 -68Q370 -68 391 -74T424 -91T441 -121T447 -166Q447 -211 429 -246T375 -307T286 -346T163 -362L131 -274Q186 -261 215 -244T244 -202Q244 -195 242 -190T238 -179T235 -168T233 -152Q233 -131 239 -116T259 -89T292 -73T339
-68V-68Z" />
<glyph unicode="&#x21a;" glyph-name="Tcommaaccent" horiz-adv-x="720" d="M488 1139V0H232V1139H14V1350H706V1139H488ZM362 -68Q393 -68 414 -74T447 -91T464 -121T470 -166Q470 -211 452 -246T398 -307T309 -346T186 -362L154 -274Q209 -261 238 -244T267
-202Q267 -195 265 -190T261 -179T258 -168T256 -152Q256 -131 262 -116T282 -89T315 -73T362 -68V-68Z" />
<glyph unicode="&#x21b;" glyph-name="tcommaaccent" horiz-adv-x="578" d="M529 195L548 44Q515 26 487 14T433 -6T383 -17T335 -20Q276 -20 234 -7T166 38T128 119T116 242V827H15V1003H127Q135 1037 142 1071T155 1140T167 1214T180 1294H353V1003H524V827H353V305Q353
270 356 245T367 204T389 181T423 174Q433 174 443 175T467 178T495 185T529 195V195ZM330 -68Q361 -68 382 -74T415 -91T432 -121T438 -166Q438 -211 420 -246T366 -307T277 -346T154 -362L122 -274Q177 -261 206 -244T235 -202Q235 -195 233 -190T229 -179T226
-168T224 -152Q224 -131 230 -116T250 -89T283 -73T330 -68V-68Z" />
<glyph unicode="&#x237;" glyph-name="dotlessj" horiz-adv-x="440" d="M339 91Q339 18 328 -44T294 -161T235 -266T150 -364L-7 -287Q44 -217 73 -136T102 41V1003H339V91Z" />
<glyph unicode="&#x2bc;" glyph-name="apostrophe" horiz-adv-x="460" d="M65 1154Q88 1166 105 1176T132 1196T146 1215T151 1236Q151 1247 148 1254T141 1270T133 1290T130 1318Q130 1344 136 1362T156 1391T190 1407T237 1412Q265 1412 285 1407T318 1391T337
1361T344 1311Q344 1273 330 1239T289 1174T219 1117T122 1071L65 1154Z" />
<glyph unicode="&#x2c6;" glyph-name="circumflex" horiz-adv-x="598" d="M475 1115L299 1263L122 1116L54 1205L301 1467L545 1206L475 1115Z" />
<glyph unicode="&#x2c7;" glyph-name="caron" horiz-adv-x="598" d="M296 1118L54 1379L121 1469L300 1322L475 1469L544 1380L296 1118Z" />
<glyph unicode="&#x2c9;" glyph-name="macron" horiz-adv-x="566" d="M54 1154V1328H512V1154H54Z" />
<glyph unicode="&#x2d8;" glyph-name="breve" horiz-adv-x="610" d="M556 1436Q556 1355 539 1293T489 1190T410 1127T304 1106Q245 1106 199 1126T121 1187T71 1290T54 1436H198Q197 1394 203 1365T223 1317T257 1289T304 1280Q332 1280 352 1288T386 1315T407
1364T414 1436H556Z" />
<glyph unicode="&#x2d9;" glyph-name="dotaccent" horiz-adv-x="382" d="M328 1252Q328 1215 322 1191T300 1152T258 1131T190 1125Q150 1125 124 1130T83 1150T61 1188T54 1251Q54 1288 60 1312T82 1351T124 1372T192 1378Q231 1378 257 1373T299 1353T321 1315T328
1252V1252Z" />
<glyph unicode="&#x2da;" glyph-name="ring" horiz-adv-x="524" d="M470 1299Q470 1241 453 1201T407 1135T339 1098T253 1086Q206 1086 169 1096T107 1129T68 1189T54 1278Q54 1335 70 1376T116 1442T184 1479T270 1491Q318 1491 355 1481T417 1448T456 1388T470
1299V1299ZM325 1282Q325 1312 321 1333T308 1367T288 1384T262 1390Q234 1390 217 1369T199 1295Q199 1264 203 1244T215 1211T235 1193T261 1187Q290 1187 307 1208T325 1282V1282Z" />
<glyph unicode="&#x2db;" glyph-name="ogonek" horiz-adv-x="482" d="M427 -324Q408 -334 386 -341T342 -354T297 -361T251 -364Q206 -364 170 -356T108 -330T68 -284T54 -219Q54 -191 61 -163T84 -108T122 -53T176 0H372Q343 -22 323 -44T289 -88T270 -130T264
-168Q264 -198 279 -211T328 -224Q343 -224 363 -221T406 -213L427 -324Z" />
<glyph unicode="&#x2dc;" glyph-name="tilde" horiz-adv-x="690" d="M635 1325Q618 1283 598 1249T554 1191T499 1155T430 1142Q388 1142 360 1157T310 1190T272 1223T235 1239Q224 1239 214 1234T193 1217T170 1187T144 1144L54 1215Q71 1257 91 1291T135 1349T190
1385T259 1398Q301 1398 329 1383T379 1350T417 1316T454 1301Q465 1301 475 1306T496 1323T519 1353T545 1396L635 1325Z" />
<glyph unicode="&#x2dd;" glyph-name="hungarumlaut" horiz-adv-x="814" d="M474 1097L371 1171L618 1443L760 1341L474 1097ZM156 1097L54 1168L283 1443L424 1342L156 1097Z" />
<glyph unicode="&#x312;" glyph-name="uni0312" horiz-adv-x="410" d="M357 1392Q332 1379 312 1366T278 1337T257 1306T249 1273Q249 1263 251 1257T257 1244T262 1227T265 1201Q265 1175 259 1157T240 1128T207 1111T159 1106Q130 1106 110 1111T78 1128T60
1160T54 1210Q54 1258 71 1298T122 1370T202 1428T309 1471L357 1392Z" />
<glyph unicode="&#x315;" glyph-name="uni0315" horiz-adv-x="348" d="M180 1096L54 1114L118 1484L294 1460L180 1096Z" />
<glyph unicode="&#x326;" glyph-name="uni0326" horiz-adv-x="424" d="M262 -68Q293 -68 314 -74T347 -91T364 -121T370 -166Q370 -211 352 -246T298 -307T209 -346T86 -362L54 -274Q109 -261 138 -244T167 -202Q167 -195 165 -190T161 -179T158 -168T156 -152Q156
-131 162 -116T182 -89T215 -73T262 -68V-68Z" />
<glyph unicode="&#x37e;" glyph-name="semicolon" horiz-adv-x="504" d="M401 879Q401 839 393 813T369 771T328 748T269 741Q235 741 211 748T170 770T145 812T137 879Q137 917 145 944T169 987T211 1010T270 1017Q304 1017 329 1010T370 988T393 946T401 879V879ZM69
-242Q106 -211 131 -183T172 -129T195 -79T203 -32Q203 -16 198 -6T186 13T171 28T155 47T142 76T137 120Q137 160 145 187T170 230T211 253T269 260Q303 260 328 254T369 231T393 188T401 118Q401 63 388 7T346 -104T271 -216T159 -325L69 -242Z" />
<glyph unicode="&#x394;" glyph-name="Delta" horiz-adv-x="916" d="M18 0V176Q45 313 77 461T144 760T218 1060T296 1350H617Q658 1205 696 1056T771 756T839 460T899 176V0H18ZM633 212Q593 435 544 659T440 1110Q424 1035 408 961T377 811T346 661T315 511T286
361T258 212H633Z" />
<glyph unicode="&#x3a9;" glyph-name="Omega" horiz-adv-x="1058" d="M581 0V236Q616 279 645 334T695 456T728 600T740 762Q740 832 734 888T715 989T685 1066T643 1119T589 1150T523 1160Q492 1160 465 1151T415 1121T375 1071T345 998T326 902T319 782Q319
690 330 610T362 461T412 336T479 236V0H48V217H290Q238 248 196 299T125 421T79 578T63 766Q63 872 80 958T127 1111T200 1228T296 1308T410 1355T539 1370Q650 1370 735 1338T878 1235T966 1054T996 788Q996 690 980 605T932 448T856 317T756 217H1012V0H581Z"
/>
<glyph unicode="&#x3bc;" glyph-name="mu" horiz-adv-x="920" d="M623 0L610 108Q586 82 562 61T512 24T460 1T406 -8Q367 -8 339 11T297 66Q299 43 301 19T307 -31T313 -83T319 -137T326 -191T333 -244T340 -296T347 -346H102V1003H339V439Q339 365 345 315T365
236T397 194T442 182Q457 182 474 187T508 202T544 226T581 256V1003H818V0H623Z" />
<glyph unicode="&#x3c0;" glyph-name="pi" horiz-adv-x="1008" d="M973 806H793Q793 666 795 565T803 393T817 280T836 214T862 183T894 175Q911 175 929 178T969 190L988 40Q944 12 895 -4T800 -20Q753 -20 719 -10T661 24T622 87T597 183T583 316T576 490Q575
509 575 529T574 572Q573 624 573 682T573 806H369Q369 774 369 739T368 667T367 592T366 516T364 440T362 364T359 291T357 221Q355 193 354 165T351 110T349 54T347 0H100Q103 38 106 77T112 157T118 239T123 322Q127 383 130 445T136 569T141 690T144 806H15V1003H973V806Z"
/>
<glyph unicode="&#x1e02;" glyph-name="uni1E02" horiz-adv-x="972" d="M117 1350H503Q596 1350 662 1326T771 1258T835 1154T855 1021Q855 967 845 923T814 843T766 781T703 735Q755 720 794 690T859 619T899 529T913 425Q913 337 886 260T802 123T654 30T436
-4Q402 -4 364 -4T285 -2T202 -1T117 0V1350ZM363 800H442Q485 800 516 815T567 855T596 915T605 989Q605 1024 598 1055T573 1110T530 1146T466 1160H363V800ZM363 195Q363 195 372 195T396 193T429 191T466 190Q516 190 551 206T609 252T643 321T654 410Q654
453 644 490T610 555T548 597T454 613H363V195ZM583 1567Q583 1532 577 1509T555 1473T514 1454T451 1448Q413 1448 388 1453T348 1471T327 1506T320 1564Q320 1599 326 1621T348 1658T388 1677T452 1683Q489 1683 514 1678T554 1660T576 1625T583 1567V1567Z"
/>
<glyph unicode="&#x1e03;" glyph-name="uni1E03" horiz-adv-x="906" d="M102 1401H339V927Q365 949 391 967T446 997T501 1016T557 1023Q632 1023 687 985T778 882T833 731T851 548Q851 404 819 298T728 121T584 16T390 -19Q357 -19 319 -16T243 -8T169 3T102
19V1401ZM339 170Q358 164 377 162T414 160Q459 160 493 182T551 249T587 357T599 506Q599 590 590 650T564 748T524 804T472 822Q460 822 445 818T412 804T377 781T339 750V170ZM357 1628Q357 1593 351 1570T328 1534T286 1515T220 1509Q181 1509 156 1513T114
1531T92 1566T85 1625Q85 1659 91 1682T114 1718T156 1737T221 1742Q260 1742 286 1738T328 1721T350 1686T357 1628V1628Z" />
<glyph unicode="&#x1e0a;" glyph-name="uni1E0A" horiz-adv-x="992" d="M116 1350Q204 1350 291 1351T458 1353Q545 1353 615 1333T738 1273T830 1178T893 1051T929 894T941 712Q941 538 909 405T812 180T647 41T413 -7Q376 -7 338 -6T263 -4T188 -2T116 0V1350ZM366
207Q384 204 402 204T437 203Q499 203 544 234T620 326T665 476T680 681Q680 758 674 822T654 938T621 1029T575 1095T515 1135T440 1148Q425 1148 412 1148T388 1148T372 1148T366 1147V207ZM584 1567Q584 1532 578 1509T556 1473T515 1454T452 1448Q414 1448
389 1453T349 1471T328 1506T321 1564Q321 1599 327 1621T349 1658T389 1677T453 1683Q490 1683 515 1678T555 1660T577 1625T584 1567V1567Z" />
<glyph unicode="&#x1e0b;" glyph-name="uni1E0B" horiz-adv-x="906" d="M607 0L594 100Q564 71 534 49T473 11T410 -13T348 -21Q274 -21 220 16T128 119T74 270T56 453Q56 599 87 706T176 882T315 985T496 1019Q511 1019 530 1018T568 1012V1401H805V0H607ZM568
832Q548 838 529 840T493 842Q447 842 413 821T356 757T320 648T308 495Q308 411 317 352T342 254T382 198T435 180Q459 180 494 198T568 252V832ZM824 1628Q824 1593 818 1570T795 1534T753 1515T687 1509Q648 1509 623 1513T581 1531T559 1566T552 1625Q552 1659
558 1682T581 1718T623 1737T688 1742Q727 1742 753 1738T795 1721T817 1686T824 1628V1628Z" />
<glyph unicode="&#x1e1e;" glyph-name="uni1E1E" horiz-adv-x="704" d="M370 1141V773H630V568H370V0H116V1350H673V1141H370ZM536 1567Q536 1532 530 1509T508 1473T467 1454T404 1448Q366 1448 341 1453T301 1471T280 1506T273 1564Q273 1599 279 1621T301 1658T341
1677T405 1683Q442 1683 467 1678T507 1660T529 1625T536 1567V1567Z" />
<glyph unicode="&#x1e1f;" glyph-name="uni1E1F" horiz-adv-x="504" d="M531 1217Q505 1227 482 1233T436 1239Q390 1239 372 1210T354 1118V1003H492V827H354V0H116V827H15V1003H116V1105Q116 1179 129 1237T171 1335T247 1395T359 1416Q392 1416 420 1412T474
1400T522 1383T564 1362L531 1217ZM483 1628Q483 1593 477 1570T454 1534T412 1515T346 1509Q307 1509 282 1513T240 1531T218 1566T211 1625Q211 1659 217 1682T240 1718T282 1737T347 1742Q386 1742 412 1738T454 1721T476 1686T483 1628V1628Z" />
<glyph unicode="&#x1e40;" glyph-name="uni1E40" horiz-adv-x="1432" d="M1085 0Q1084 90 1083 180T1078 358T1072 531T1064 697T1055 854T1046 1001H1044L813 0H587L359 1001H357Q351 889 346 770T336 524T329 267T325 0H90Q94 168 101 337T118 675T141 1013T171
1350H510L724 447H726L945 1350H1261Q1275 1182 1287 1014T1310 676T1328 337T1342 0H1085ZM856 1567Q856 1532 850 1509T828 1473T787 1454T724 1448Q686 1448 661 1453T621 1471T600 1506T593 1564Q593 1599 599 1621T621 1658T661 1677T725 1683Q762 1683 787
1678T827 1660T849 1625T856 1567V1567Z" />
<glyph unicode="&#x1e41;" glyph-name="uni1E41" horiz-adv-x="1378" d="M1039 0Q1039 76 1040 151T1042 294T1043 422T1044 524Q1044 614 1038 671T1019 762T987 808T942 821Q929 821 913 816T879 800T842 774T801 740Q803 724 804 708T807 672T808 630T809 578V0H573V524Q573
614 567 671T549 762T518 808T473 821Q460 821 444 816T411 800T376 777T339 747V0H102V1003H297L310 898Q335 922 363 944T422 984T486 1012T555 1023Q594 1023 626 1013T685 985T730 941T764 883Q796 914 827 939T890 983T956 1012T1025 1023Q1089 1023 1137
999T1218 921T1267 782T1283 573Q1283 526 1282 462T1280 323T1278 165T1277 0H1039ZM826 1252Q826 1215 820 1191T798 1152T756 1131T688 1125Q648 1125 622 1130T581 1150T559 1188T552 1251Q552 1288 558 1312T580 1351T622 1372T690 1378Q729 1378 755 1373T797
1353T819 1315T826 1252V1252Z" />
<glyph unicode="&#x1e56;" glyph-name="uni1E56" horiz-adv-x="918" d="M116 0V1350Q159 1350 205 1350T298 1351T389 1352T473 1353Q586 1353 665 1322T795 1236T868 1104T892 934Q892 835 865 751T780 603T632 504T415 468H370V0H116ZM370 669H433Q486 669 523
684T585 731T619 807T630 911Q630 967 621 1011T588 1087T527 1135T432 1152H370V669ZM579 1567Q579 1532 573 1509T551 1473T510 1454T447 1448Q409 1448 384 1453T344 1471T323 1506T316 1564Q316 1599 322 1621T344 1658T384 1677T448 1683Q485 1683 510 1678T550
1660T572 1625T579 1567V1567Z" />
<glyph unicode="&#x1e57;" glyph-name="uni1E57" horiz-adv-x="906" d="M102 -346V1003H300L314 904Q343 933 373 955T435 992T498 1015T557 1023Q631 1023 686 986T778 883T833 732T851 547Q851 404 819 298T730 122T591 19T412 -15Q397 -15 378 -14T339 -9V-346H102ZM339
170Q357 164 376 162T414 160Q459 160 493 182T551 249T587 358T599 506Q599 590 590 650T564 748T524 804T472 822Q460 822 445 818T412 804T377 781T339 750V170ZM585 1252Q585 1215 579 1191T557 1152T515 1131T447 1125Q407 1125 381 1130T340 1150T318 1188T311
1251Q311 1288 317 1312T339 1351T381 1372T449 1378Q488 1378 514 1373T556 1353T578 1315T585 1252V1252Z" />
<glyph unicode="&#x1e60;" glyph-name="uni1E60" horiz-adv-x="816" d="M769 382Q769 303 746 230T674 102T552 13T376 -21Q273 -21 186 15T32 112L93 256Q126 238 159 224T222 201T279 188T330 183Q371 183 402 194T455 227T488 280T499 354Q499 402 481 437T430
501T358 555T277 607T195 668T123 746T72 850T53 991Q53 1076 79 1146T154 1265T268 1342T416 1370Q455 1370 493 1364T569 1344T645 1311T721 1261L664 1117Q606 1145 554 1158T461 1171Q423 1171 395 1160T349 1128T322 1079T313 1018Q313 970 332 934T384 868T457
813T541 759T625 698T698 621T749 519T769 382V382ZM544 1573Q544 1538 538 1515T516 1479T475 1460T412 1454Q374 1454 349 1459T309 1477T288 1512T281 1570Q281 1605 287 1627T309 1664T349 1683T413 1689Q450 1689 475 1684T515 1666T537 1631T544 1573V1573Z"
/>
<glyph unicode="&#x1e61;" glyph-name="uni1E61" horiz-adv-x="698" d="M60 197Q128 179 178 171T270 162Q309 162 336 171T379 196T403 234T411 280Q411 311 396 333T355 373T296 406T229 440T162 482T103 539T62 617T46 724Q46 789 69 844T134 938T234 1000T364
1023Q393 1023 424 1019T485 1006T547 984T607 951L583 818Q557 825 535 830T492 839T453 844T419 846Q386 846 362 838T322 817T299 784T291 743Q291 712 307 690T348 649T407 615T475 581T542 540T601 483T643 404T659 296Q659 227 636 169T569 69T462 3T320
-21Q241 -21 171 2T41 64L60 197ZM486 1259Q486 1222 480 1198T458 1159T416 1138T348 1132Q308 1132 282 1137T241 1157T219 1195T212 1258Q212 1295 218 1319T240 1358T282 1379T350 1385Q389 1385 415 1380T457 1360T479 1322T486 1259V1259Z" />
<glyph unicode="&#x1e6a;" glyph-name="uni1E6A" horiz-adv-x="720" d="M488 1139V0H232V1139H14V1350H706V1139H488ZM492 1567Q492 1532 486 1509T464 1473T423 1454T360 1448Q322 1448 297 1453T257 1471T236 1506T229 1564Q229 1599 235 1621T257 1658T297
1677T361 1683Q398 1683 423 1678T463 1660T485 1625T492 1567V1567Z" />
<glyph unicode="&#x1e6b;" glyph-name="uni1E6B" horiz-adv-x="578" d="M529 195L548 44Q515 26 487 14T433 -6T383 -17T335 -20Q276 -20 234 -7T166 38T128 119T116 242V827H15V1003H127Q135 1037 142 1071T155 1140T167 1214T180 1294H353V1003H524V827H353V305Q353
270 356 245T367 204T389 181T423 174Q433 174 443 175T467 178T495 185T529 195V195ZM365 1421Q365 1384 359 1360T337 1321T295 1300T227 1294Q187 1294 161 1299T120 1319T98 1357T91 1420Q91 1457 97 1481T119 1520T161 1541T229 1547Q268 1547 294 1542T336
1522T358 1484T365 1421V1421Z" />
<glyph unicode="&#x1e80;" glyph-name="Wgrave" horiz-adv-x="1432" d="M1420 1350Q1391 1167 1362 995T1301 656T1235 327T1162 0H875L744 716L711 954H709L680 717L554 0H272Q231 168 196 331T130 658T69 993T12 1350H277Q294 1227 311 1105T348 856T387 597T429
322H431L459 536L604 1350H869L1018 528L1044 321H1046Q1067 452 1086 582T1123 840T1157 1096T1188 1350H1420ZM810 1438L466 1568L584 1718L884 1548L810 1438Z" />
<glyph unicode="&#x1e81;" glyph-name="wgrave" horiz-adv-x="1272" d="M1246 1003Q1233 876 1214 752T1168 503T1110 253T1042 0H758L651 560L629 715H627L608 560L512 0H227L13 1003H264L365 452L391 279H393L415 439L509 1003H782L894 436L916 280H918Q936
375 952 467T982 650T1005 827T1020 1003H1246ZM649 1111L373 1351L530 1451L755 1184L649 1111Z" />
<glyph unicode="&#x1e82;" glyph-name="Wacute" horiz-adv-x="1432" d="M1420 1350Q1391 1167 1362 995T1301 656T1235 327T1162 0H875L744 716L711 954H709L680 717L554 0H272Q231 168 196 331T130 658T69 993T12 1350H277Q294 1227 311 1105T348 856T387 597T429
322H431L459 536L604 1350H869L1018 528L1044 321H1046Q1067 452 1086 582T1123 840T1157 1096T1188 1350H1420ZM892 1718L1002 1568L660 1438L584 1548L892 1718Z" />
<glyph unicode="&#x1e83;" glyph-name="wacute" horiz-adv-x="1272" d="M1246 1003Q1233 876 1214 752T1168 503T1110 253T1042 0H758L651 560L629 715H627L608 560L512 0H227L13 1003H264L365 452L391 279H393L415 439L509 1003H782L894 436L916 280H918Q936
375 952 467T982 650T1005 827T1020 1003H1246ZM645 1111L543 1184L769 1451L923 1351L645 1111Z" />
<glyph unicode="&#x1e84;" glyph-name="Wdieresis" horiz-adv-x="1432" d="M1420 1350Q1391 1167 1362 995T1301 656T1235 327T1162 0H875L744 716L711 954H709L680 717L554 0H272Q231 168 196 331T130 658T69 993T12 1350H277Q294 1227 311 1105T348 856T387
597T429 322H431L459 536L604 1350H869L1018 528L1044 321H1046Q1067 452 1086 582T1123 840T1157 1096T1188 1350H1420ZM1023 1570Q1023 1537 1016 1515T996 1478T961 1458T911 1452Q881 1452 861 1458T827 1477T808 1513T801 1568Q801 1600 807 1622T826 1657T860
1676T911 1682Q941 1682 962 1676T996 1657T1016 1623T1023 1570ZM675 1570Q675 1537 669 1515T650 1478T617 1458T567 1452Q538 1452 518 1458T484 1477T464 1513T457 1568Q457 1600 463 1622T483 1657T517 1676T567 1682Q597 1682 617 1676T650 1657T669 1623T675
1570Z" />
<glyph unicode="&#x1e85;" glyph-name="wdieresis" horiz-adv-x="1272" d="M1246 1003Q1233 876 1214 752T1168 503T1110 253T1042 0H758L651 560L629 715H627L608 560L512 0H227L13 1003H264L365 452L391 279H393L415 439L509 1003H782L894 436L916 280H918Q936
375 952 467T982 650T1005 827T1020 1003H1246ZM912 1258Q912 1225 906 1203T886 1168T852 1148T802 1141Q772 1141 752 1147T718 1167T698 1203T692 1258Q692 1290 698 1312T718 1347T752 1366T802 1372Q831 1372 852 1366T886 1347T906 1313T912 1258ZM573 1258Q573
1225 567 1203T547 1168T513 1148T463 1141Q433 1141 412 1147T378 1167T359 1203T352 1258Q352 1290 358 1312T378 1347T413 1366T463 1372Q493 1372 513 1366T547 1347T567 1313T573 1258Z" />
<glyph unicode="&#x1ef2;" glyph-name="Ygrave" horiz-adv-x="796" d="M814 1350Q782 1236 748 1128T678 921T603 734T525 570V0H269V570Q229 650 192 738T118 924T48 1127T-18 1350H249Q265 1276 284 1208T325 1074T369 939T417 797Q439 868 460 937T500 1076T537
1213T569 1350H814ZM436 1438L92 1568L210 1718L510 1548L436 1438Z" />
<glyph unicode="&#x1ef3;" glyph-name="ygrave" horiz-adv-x="786" d="M773 1003Q751 806 722 643T657 348T581 112T498 -70T408 -203T316 -292T223 -341T132 -356Q105 -356 71 -347T2 -316V-164Q13 -166 24 -167T47 -169T69 -170T89 -171Q123 -171 149 -162T198
-133Q209 -122 217 -108T232 -79T242 -48T246 -15Q246 14 240 50T220 136L0 1003H250L385 405Q390 382 394 357T402 307T408 256T409 206Q431 294 452 392T489 594T517 801T532 1003H773ZM410 1111L134 1351L291 1451L516 1184L410 1111Z" />
<glyph unicode="&#x200b;" glyph-name="uni200B" horiz-adv-x="0" />
<glyph unicode="&#x2010;" glyph-name="hyphen" horiz-adv-x="378" d="M34 488V678H389V488H34Z" />
<glyph unicode="&#x2011;" glyph-name="hyphen" horiz-adv-x="378" d="M34 488V678H389V488H34Z" />
<glyph unicode="&#x2013;" glyph-name="endash" horiz-adv-x="840" d="M65 509V691H775V509H65Z" />
<glyph unicode="&#x2014;" glyph-name="emdash" horiz-adv-x="1680" d="M205 509V691H1475V509H205Z" />
<glyph unicode="&#x2015;" glyph-name="uni2015" horiz-adv-x="1680" d="M205 509V691H1475V509H205Z" />
<glyph unicode="&#x2018;" glyph-name="quoteleft" horiz-adv-x="452" d="M404 1460Q375 1434 353 1407T317 1354T295 1307T288 1267Q288 1253 292 1245T304 1228T319 1212T333 1192T344 1163T349 1121Q349 1081 341 1054T317 1010T275 988T217 981Q183 981 158
987T117 1009T93 1053T85 1124Q85 1178 98 1234T137 1343T205 1448T302 1546L404 1460Z" />
<glyph unicode="&#x2019;" glyph-name="quoteright" horiz-adv-x="460" d="M56 997Q85 1023 106 1050T142 1102T164 1149T171 1189Q171 1210 162 1221T141 1244T121 1277T111 1336Q111 1376 119 1403T143 1446T184 1469T243 1476Q276 1476 301 1470T342 1447T366
1403T374 1333Q374 1278 362 1223T322 1114T255 1009T158 911L56 997Z" />
<glyph unicode="&#x201a;" glyph-name="quotesinglbase" horiz-adv-x="460" d="M51 -219Q80 -193 101 -166T137 -114T159 -66T166 -27Q166 -7 157 4T136 28T115 61T105 120Q105 160 113 187T138 230T179 253T237 260Q271 260 296 254T337 231T361 187T369 117Q369
62 356 7T317 -102T250 -207T153 -305L51 -219Z" />
<glyph unicode="&#x201c;" glyph-name="quotedblleft" horiz-adv-x="780" d="M733 1460Q704 1434 683 1407T647 1354T627 1307T620 1267Q620 1247 629 1236T649 1212T669 1179T678 1121Q678 1081 670 1054T646 1010T606 988T551 981Q518 981 494 987T455 1009T431
1053T423 1124Q423 1178 435 1234T473 1343T539 1448T634 1546L733 1460ZM395 1460Q366 1434 345 1407T309 1354T289 1307T282 1267Q282 1247 291 1236T311 1212T331 1179T340 1121Q340 1081 332 1054T308 1010T269 988T214 981Q180 981 156 987T117 1009T93 1053T85
1124Q85 1178 97 1234T135 1343T201 1448T296 1546L395 1460Z" />
<glyph unicode="&#x201d;" glyph-name="quotedblright" horiz-adv-x="788" d="M394 997Q422 1023 443 1050T479 1102T500 1149T507 1189Q507 1210 498 1221T478 1244T458 1277T448 1336Q448 1376 456 1403T480 1446T519 1469T575 1476Q608 1476 632 1470T672 1447T695
1403T703 1333Q703 1278 691 1223T654 1114T588 1009T493 911L394 997ZM56 997Q85 1023 106 1050T141 1102T162 1149T169 1189Q169 1210 160 1221T140 1244T120 1277T111 1336Q111 1376 118 1403T142 1446T182 1469T238 1476Q271 1476 295 1470T334 1447T357 1403T365
1333Q365 1278 353 1223T316 1114T250 1009T155 911L56 997Z" />
<glyph unicode="&#x201e;" glyph-name="quotedblbase" horiz-adv-x="788" d="M389 -216Q417 -190 438 -163T474 -110T495 -63T502 -23Q502 -3 493 8T473 32T453 65T443 123Q443 163 451 190T475 233T514 256T570 263Q603 263 627 257T667 234T690 191T698 120Q698
66 686 10T648 -99T583 -204T487 -302L389 -216ZM51 -216Q79 -190 100 -163T136 -110T157 -63T164 -23Q164 -3 155 8T135 32T115 65T105 123Q105 163 113 190T137 233T177 256T233 263Q266 263 290 257T329 234T352 191T360 120Q360 66 348 10T311 -99T245 -204T150
-302L51 -216Z" />
<glyph unicode="&#x2020;" glyph-name="dagger" horiz-adv-x="656" d="M437 1002V392H219V1002H50V1168H219V1418H437V1168H606V1002H437Z" />
<glyph unicode="&#x2021;" glyph-name="daggerdbl" horiz-adv-x="656" d="M437 265V0H219V265H50V431H219V980H50V1146H219V1418H437V1146H606V980H437V431H606V265H437Z" />
<glyph unicode="&#x2022;" glyph-name="bullet" horiz-adv-x="840" d="M738 663Q738 595 714 537T647 436T546 369T420 344Q352 344 294 368T193 436T126 537T101 663Q101 731 125 789T193 890T294 957T420 981Q488 981 546 957T647 890T714 789T738 663V663Z" />
<glyph unicode="&#x2026;" glyph-name="ellipsis" horiz-adv-x="1282" d="M1177 124Q1177 83 1169 57T1145 16T1105 -6T1046 -13Q1012 -13 987 -7T946 15T922 57T914 123Q914 161 922 188T946 231T987 254T1047 261Q1081 261 1105 254T1146 232T1169 190T1177
124V124ZM773 124Q773 83 765 57T741 16T701 -6T642 -13Q607 -13 583 -7T542 15T518 57T510 123Q510 161 518 188T542 231T583 254T642 261Q677 261 702 254T742 232T765 190T773 124V124ZM369 124Q369 83 362 57T338 16T297 -6T237 -13Q203 -13 179 -7T138 15T113
57T105 123Q105 161 113 188T137 231T179 254T238 261Q272 261 297 254T338 232T361 190T369 124V124Z" />
<glyph unicode="&#x2030;" glyph-name="perthousand" horiz-adv-x="1920" d="M599 1043Q599 870 529 782T326 694Q256 694 207 714T126 774T80 877T65 1024Q65 1110 83 1175T135 1284T220 1350T338 1372Q408 1372 457 1353T538 1292T584 1189T599 1043V1043ZM429
1031Q429 1085 424 1122T406 1181T376 1214T333 1224Q308 1224 289 1215T258 1184T240 1126T234 1036Q234 982 240 945T258 885T288 853T330 843Q356 843 375 852T406 883T423 941T429 1031V1031ZM251 -67L120 10L1063 1423L1192 1345L251 -67ZM1247 326Q1247 154
1177 66T975 -22Q905 -22 856 -3T775 58T729 161T714 307Q714 394 731 459T783 568T868 634T986 656Q1056 656 1105 636T1186 576T1232 473T1247 326V326ZM1077 314Q1077 369 1072 406T1054 465T1024 498T981 508Q956 508 938 499T907 467T889 409T883 319Q883
265 889 228T906 169T936 136T978 126Q1004 126 1023 135T1054 167T1071 225T1077 314V314ZM1856 326Q1856 154 1786 66T1583 -22Q1513 -22 1464 -3T1383 58T1337 161T1322 307Q1322 394 1340 459T1392 568T1477 634T1595 656Q1664 656 1714 636T1795 576T1841
473T1856 326V326ZM1686 314Q1686 369 1680 406T1663 465T1633 498T1590 508Q1565 508 1546 499T1515 467T1498 409T1492 319Q1492 265 1497 228T1515 169T1545 136T1588 126Q1613 126 1631 135T1662 167T1680 225T1686 314V314Z" />
<glyph unicode="&#x2039;" glyph-name="guilsinglleft" horiz-adv-x="516" d="M274 187L53 588L276 989L439 932L284 588L439 247L274 187Z" />
<glyph unicode="&#x203a;" glyph-name="guilsinglright" horiz-adv-x="516" d="M242 989L463 588L240 187L77 245L232 588L77 930L242 989Z" />
<glyph unicode="&#x2044;" glyph-name="fraction" horiz-adv-x="174" d="M505 1464L626 1390L-330 -161L-451 -87L505 1464Z" />
<glyph unicode="&#x2060;" glyph-name="uni2060" horiz-adv-x="0" />
<glyph unicode="&#x2070;" glyph-name="zero.superior" horiz-adv-x="678" d="M626 1085Q626 978 608 903T552 780T460 710T330 687Q252 687 199 706T112 770T62 887T46 1069Q46 1173 63 1247T117 1368T209 1438T342 1461Q420 1461 472 1443T559 1382T609 1267T626
1085ZM418 1071Q418 1151 414 1199T400 1272T375 1307T336 1317Q313 1317 298 1306T273 1268T259 1195T254 1077Q254 1002 258 954T273 880T298 842T336 831Q359 831 374 843T399 882T413 956T418 1071Z" />
<glyph unicode="&#x2074;" glyph-name="four.superior" horiz-adv-x="618" d="M512 846V704H318V846H30V988Q49 1040 73 1098T125 1216T181 1333T238 1442H512V998H588V846H512ZM318 1308Q302 1279 283 1242T245 1162T207 1078T174 998H318V1308Z" />
<glyph unicode="&#x2075;" glyph-name="five.superior" horiz-adv-x="598" d="M268 1287L260 1147Q273 1149 294 1150T336 1151Q388 1151 429 1138T498 1098T541 1031T556 937Q556 874 537 827T482 750T393 704T272 689Q249 689 222 692T165 703T105 721T46 745L60
847Q109 837 150 832T230 827Q261 827 282 832T317 848T337 878T344 923Q344 948 338 966T319 996T283 1014T230 1021Q197 1021 157 1018T74 1007L102 1443H502V1287H268Z" />
<glyph unicode="&#x2076;" glyph-name="six.superior" horiz-adv-x="656" d="M560 1309Q502 1317 468 1321T402 1325Q366 1325 340 1314T297 1278T271 1217T260 1125Q293 1144 328 1153T404 1163Q462 1163 502 1149T566 1107T601 1040T612 949Q612 890 594 842T539
760T450 707T332 689Q263 689 214 705T129 762T76 876T58 1063Q58 1173 80 1250T142 1373T239 1440T366 1461Q391 1461 417 1458T470 1449T526 1434T580 1411L560 1309ZM410 937Q410 992 393 1016T338 1041Q318 1041 299 1035T260 1013Q260 957 264 920T278 861T301
829T338 819Q373 819 391 848T410 937Z" />
<glyph unicode="&#x2077;" glyph-name="seven.superior" horiz-adv-x="564" d="M403 1014Q379 964 356 918T309 829T262 751T218 687L65 734L296 1279H34V1443H532V1292L403 1014Z" />
<glyph unicode="&#x2078;" glyph-name="eight.superior" horiz-adv-x="662" d="M615 906Q615 857 600 817T549 747T456 702T317 686Q241 686 189 699T106 738T60 801T46 887Q46 920 54 946T77 994T114 1033T162 1064Q112 1095 87 1139T62 1255Q62 1300 78 1338T127
1405T212 1448T336 1464Q405 1464 455 1452T537 1415T584 1354T600 1268Q600 1206 574 1168T497 1095Q553 1068 584 1025T615 906V906ZM402 1254Q402 1299 385 1321T329 1343Q297 1343 279 1322T261 1259Q261 1240 265 1224T279 1194T303 1169T337 1148Q371 1169
386 1194T402 1254V1254ZM411 886Q411 906 406 922T388 953T356 980T310 1006Q279 987 264 959T249 896Q249 850 270 828T334 806Q353 806 367 811T390 827T405 852T411 886V886Z" />
<glyph unicode="&#x2079;" glyph-name="nine.superior" horiz-adv-x="652" d="M78 845Q133 834 175 829T254 823Q290 823 315 834T358 870T384 932T394 1023Q361 1003 325 993T252 983Q195 983 155 998T91 1040T55 1107T44 1197Q44 1256 62 1304T117 1388T205
1442T324 1461Q393 1461 442 1445T525 1388T578 1273T596 1085Q596 975 575 899T513 776T416 710T288 689Q239 689 179 701T58 741L78 845ZM396 1135Q396 1190 391 1227T377 1288T353 1321T318 1331Q282 1331 264 1302T246 1213Q246 1184 250 1165T263 1133T285
1115T318 1109Q338 1109 356 1115T396 1135Z" />
<glyph unicode="&#x2080;" glyph-name="zero.inferior" horiz-adv-x="678" d="M626 250Q626 143 608 68T552 -55T460 -125T330 -148Q252 -148 199 -129T112 -65T62 52T46 234Q46 338 63 412T117 533T209 603T342 626Q420 626 472 608T559 547T609 432T626 250ZM418
236Q418 316 414 364T400 437T375 472T336 482Q313 482 298 471T273 433T259 360T254 242Q254 167 258 119T273 45T298 7T336 -4Q359 -4 374 8T399 47T413 121T418 236Z" />
<glyph unicode="&#x2081;" glyph-name="one.inferior" horiz-adv-x="578" d="M72 -130V24H206V432L88 390L62 514L252 612H406V24H528V-130H72Z" />
<glyph unicode="&#x2082;" glyph-name="two.inferior" horiz-adv-x="606" d="M58 -130V24Q140 104 192 163T273 263T311 332T322 386Q322 411 316 428T299 455T273 469T238 474Q219 474 198 471T158 461T124 450T84 436L58 566Q90 580 118 590T176 609T239 621T308
626Q357 626 398 614T472 577T522 512T540 418Q540 376 529 336T490 250T416 151T296 32H556V-130H58Z" />
<glyph unicode="&#x2083;" glyph-name="three.inferior" horiz-adv-x="610" d="M54 14Q82 8 101 5T141 -2T181 -6T222 -8Q255 -8 278 -2T315 16T335 46T342 88Q342 113 336 130T315 159T276 176T214 182H134V320H222Q275 320 300 342T326 408Q326 447 306 466T242
486Q227 486 208 484T169 478T127 469T88 456L60 576Q116 600 176 613T298 626Q359 626 403 613T477 575T520 514T534 430Q534 398 527 371T507 323T476 286T434 262Q463 256 485 242T522 205T544 156T552 98Q552 32 531 -15T473 -90T384 -132T272 -146Q214 -146
156 -135T40 -98L54 14Z" />
<glyph unicode="&#x2084;" glyph-name="four.inferior" horiz-adv-x="618" d="M512 12V-130H318V12H30V154Q49 206 73 264T125 382T181 499T238 608H512V164H588V12H512ZM318 474Q302 445 283 408T245 328T207 244T174 164H318V474Z" />
<glyph unicode="&#x2085;" glyph-name="five.inferior" horiz-adv-x="598" d="M268 452L260 312Q273 314 294 315T336 316Q388 316 429 303T498 263T541 196T556 102Q556 39 537 -8T482 -85T393 -131T272 -146Q249 -146 222 -143T165 -132T105 -114T46 -90L60
12Q109 2 150 -3T230 -8Q261 -8 282 -3T317 13T337 43T344 88Q344 113 338 131T319 161T283 179T230 186Q197 186 157 183T74 172L102 608H502V452H268Z" />
<glyph unicode="&#x2086;" glyph-name="six.inferior" horiz-adv-x="656" d="M560 474Q502 482 468 486T402 490Q366 490 340 479T297 443T271 382T260 290Q293 309 328 318T404 328Q462 328 502 314T566 272T601 205T612 114Q612 55 594 7T539 -75T450 -128T332
-146Q263 -146 214 -130T129 -73T76 41T58 228Q58 338 80 415T142 538T239 605T366 626Q391 626 417 623T470 614T526 599T580 576L560 474ZM410 102Q410 157 393 181T338 206Q318 206 299 200T260 178Q260 122 264 85T278 26T301 -6T338 -16Q373 -16 391 13T410
102Z" />
<glyph unicode="&#x2087;" glyph-name="seven.inferior" horiz-adv-x="564" d="M403 179Q379 129 356 83T309 -6T262 -84T218 -148L65 -101L296 444H34V608H532V457L403 179Z" />
<glyph unicode="&#x2088;" glyph-name="eight.inferior" horiz-adv-x="662" d="M615 71Q615 22 600 -18T549 -88T456 -133T317 -149Q241 -149 189 -136T106 -97T60 -34T46 52Q46 85 54 111T77 159T114 198T162 229Q112 260 87 304T62 420Q62 465 78 503T127 570T212
613T336 629Q405 629 455 617T537 580T584 519T600 433Q600 371 574 333T497 260Q553 233 584 190T615 71V71ZM402 419Q402 464 385 486T329 508Q297 508 279 487T261 424Q261 405 265 389T279 359T303 334T337 313Q371 334 386 359T402 419V419ZM411 51Q411 71
406 87T388 118T356 145T310 171Q279 152 264 124T249 61Q249 15 270 -7T334 -29Q353 -29 367 -24T390 -8T405 17T411 51V51Z" />
<glyph unicode="&#x2089;" glyph-name="nine.inferior" horiz-adv-x="652" d="M78 10Q133 -1 175 -6T254 -12Q290 -12 315 -1T358 35T384 97T394 188Q361 168 325 158T252 148Q195 148 155 163T91 205T55 272T44 362Q44 421 62 469T117 553T205 607T324 626Q393
626 442 610T525 553T578 438T596 250Q596 140 575 64T513 -59T416 -125T288 -146Q239 -146 179 -134T58 -94L78 10ZM396 300Q396 355 391 392T377 453T353 486T318 496Q282 496 264 467T246 378Q246 349 250 330T263 298T285 280T318 274Q338 274 356 280T396
300Z" />
<glyph unicode="&#x20ac;" glyph-name="Euro" horiz-adv-x="840" d="M600 903V750H350Q349 730 349 713T349 677Q349 660 349 640T350 602H600V449H361Q369 377 387 326T429 241T482 193T543 178Q565 178 585 185T625 204T661 232T696 268L790 140Q764 103 732
73T664 22T587 -10T504 -21Q426 -21 361 6T247 91T164 237T119 449H12V602H110Q109 619 109 638T109 670Q109 691 109 711T111 750H12V903H122Q140 1019 177 1106T264 1253T377 1341T509 1371Q557 1371 599 1357T677 1319T741 1262T788 1194L686 1075Q655 1123
619 1148T540 1173Q504 1173 474 1153T420 1096T381 1011T360 903H600Z" />
<glyph unicode="&#x2122;" glyph-name="trademark" horiz-adv-x="710" d="M561 1015Q561 1041 561 1067T560 1118T558 1168T556 1218L505 1015H411L362 1218Q360 1193 360 1169T358 1119T357 1067T356 1015H270Q270 1100 273 1182T285 1350H417L464 1148L512 1350H637Q645
1265 648 1183T653 1015H561ZM194 1263V1015H95V1263H38V1350H248V1263H194Z" />
<glyph unicode="&#x2126;" glyph-name="Omega" horiz-adv-x="1058" d="M581 0V236Q616 279 645 334T695 456T728 600T740 762Q740 832 734 888T715 989T685 1066T643 1119T589 1150T523 1160Q492 1160 465 1151T415 1121T375 1071T345 998T326 902T319 782Q319
690 330 610T362 461T412 336T479 236V0H48V217H290Q238 248 196 299T125 421T79 578T63 766Q63 872 80 958T127 1111T200 1228T296 1308T410 1355T539 1370Q650 1370 735 1338T878 1235T966 1054T996 788Q996 690 980 605T932 448T856 317T756 217H1012V0H581Z"
/>
<glyph unicode="&#x2202;" glyph-name="partialdiff" horiz-adv-x="876" d="M344 1435Q457 1387 546 1315T696 1144T789 915T822 621Q822 510 811 419T778 257T722 133T645 47T546 -4T424 -21Q336 -21 267 9T150 100T76 254T50 473Q50 594 75 694T151 865T275
976T445 1016Q454 1016 464 1016T483 1015T502 1013T519 1010Q500 1058 472 1098T405 1174T321 1240T219 1299L344 1435ZM582 582Q582 650 577 706T560 813Q549 818 537 822T511 828T484 832T455 833Q421 833 392 812T340 750T306 652T293 525Q293 429 302 361T330
250T376 187T441 167Q473 167 499 188T543 258T572 386T582 582V582Z" />
<glyph unicode="&#x2206;" glyph-name="Delta" horiz-adv-x="916" d="M18 0V176Q45 313 77 461T144 760T218 1060T296 1350H617Q658 1205 696 1056T771 756T839 460T899 176V0H18ZM633 212Q593 435 544 659T440 1110Q424 1035 408 961T377 811T346 661T315 511T286
361T258 212H633Z" />
<glyph unicode="&#x220f;" glyph-name="product" horiz-adv-x="1094" d="M954 1150V0H702V1150H392V0H140V1150H32V1350H1062V1150H954Z" />
<glyph unicode="&#x2211;" glyph-name="summation" horiz-adv-x="840" d="M60 0V189L402 695L80 1155V1350H749V1135H374L676 704L349 217H765V0H60Z" />
<glyph unicode="&#x2212;" glyph-name="minus" horiz-adv-x="840" d="M64 507V692H776V507H64Z" />
<glyph unicode="&#x2215;" glyph-name="fraction" horiz-adv-x="174" d="M505 1464L626 1390L-330 -161L-451 -87L505 1464Z" />
<glyph unicode="&#x2219;" glyph-name="periodcentered" horiz-adv-x="474" d="M375 601Q375 561 369 534T346 491T304 467T236 460Q196 460 170 467T129 490T107 533T100 599Q100 637 106 664T128 707T171 731T238 739Q279 739 305 732T347 708T368 666T375 601V601Z" />
<glyph unicode="&#x221a;" glyph-name="radical" horiz-adv-x="836" d="M836 1350Q812 1181 783 1012T718 674T640 337T546 0H276L115 831H16V1003H302L429 271Q461 405 489 539T541 808T584 1078T616 1350H836Z" />
<glyph unicode="&#x221e;" glyph-name="infinity" horiz-adv-x="1680" d="M1616 613Q1616 531 1595 460T1527 335T1410 250T1238 219Q1189 219 1140 236T1040 283T939 355T836 446Q791 403 742 363T641 290T533 239T421 219Q329 219 262 248T150 327T85 444T64
588Q64 673 90 746T164 871T282 952T438 982Q489 982 539 965T640 916T741 843T844 751Q888 793 937 834T1040 909T1147 962T1256 982Q1346 982 1413 955T1526 878T1593 761T1616 613V613ZM1371 604Q1371 639 1364 668T1341 717T1302 749T1248 761Q1223 761 1197
749T1143 716T1083 667T1018 605Q1054 569 1085 539T1145 488T1199 454T1248 441Q1280 441 1303 454T1342 489T1364 541T1371 604V604ZM312 598Q312 563 319 534T342 485T380 453T434 441Q458 441 484 452T538 485T597 534T661 596Q626 631 595 661T536 713T483
748T434 761Q402 761 379 748T341 713T319 661T312 598V598Z" />
<glyph unicode="&#x222b;" glyph-name="integral'" horiz-adv-x="664" d="M625 1228Q599 1239 576 1244T531 1250Q484 1250 466 1221T448 1129V-83Q448 -157 435 -215T393 -315T317 -378T205 -400Q173 -400 144 -395T90 -382T42 -362T0 -338L33 -194Q57 -205 81
-210T128 -216Q174 -216 192 -187T211 -95V1117Q211 1191 223 1249T265 1349T341 1412T453 1434Q486 1434 515 1429T569 1416T617 1396T658 1371L625 1228Z" />
<glyph unicode="&#x2248;" glyph-name="approxequal" horiz-adv-x="840" d="M794 777Q769 746 743 722T688 680T629 653T563 644Q527 644 499 652T446 671T399 697T355 723T310 742T259 750Q244 750 229 747T198 734T162 712T122 680L43 804Q68 835 94 859T149
901T208 928T274 938Q309 938 338 930T391 910T438 884T482 859T527 839T578 831Q592 831 607 835T639 847T674 869T715 901L794 777ZM794 396Q769 365 743 340T688 298T629 272T563 262Q527 262 499 270T446 290T399 315T355 341T310 361T259 369Q244 369 229
365T198 352T162 330T122 298L43 422Q68 453 94 478T149 520T208 546T274 556Q309 556 338 548T391 528T438 503T482 477T527 457T578 449Q592 449 607 453T639 466T674 487T715 519L794 396Z" />
<glyph unicode="&#x2260;" glyph-name="notequal" horiz-adv-x="840" d="M399 328L279 47L116 115L210 328H70V504H282L368 696H70V871H441L561 1152L724 1085L630 871H770V696H558L472 504H770V328H399Z" />
<glyph unicode="&#x2264;" glyph-name="lessequal" horiz-adv-x="840" d="M60 0V176H780V0H60ZM698 286L61 623V809L701 1146L783 981L264 717L783 455L698 286Z" />
<glyph unicode="&#x2265;" glyph-name="greaterequal" horiz-adv-x="840" d="M60 0V176H780V0H60ZM139 286L57 451L576 715L57 977L142 1146L779 809V623L139 286Z" />
<glyph unicode="&#x25ca;" glyph-name="lozenge" horiz-adv-x="840" d="M517 0H324L20 679L323 1350H516L820 672L517 0ZM406 1076L243 707L434 274L598 644L406 1076Z" />
<glyph unicode="&#xeeee;" glyph-name="BBox" horiz-adv-x="350" d="M350 1800V-400H0V1800H350Z" />
<glyph unicode="&#xf000;" glyph-name="LuFo" horiz-adv-x="360" d="M360 -400H0V-40H360V-400ZM40 -80V-360H320V-80H40ZM80 -120H120V-280H200V-320H80V-120ZM280 -120V-320H240V-240H160V-200H240V-160H160V-120H280ZM360 1410H0V1770H360V1410ZM40 1730V1450H320V1730H40ZM80
1690H120V1530H200V1490H80V1690ZM280 1690V1490H240V1570H160V1610H240V1650H160V1690H280Z" />
<glyph unicode="&#xf6be;" glyph-name="dotlessj" horiz-adv-x="440" d="M339 91Q339 18 328 -44T294 -161T235 -266T150 -364L-7 -287Q44 -217 73 -136T102 41V1003H339V91Z" />
<glyph unicode="&#xf6c1;" glyph-name="Scedilla" horiz-adv-x="816" d="M769 382Q769 303 746 230T674 102T552 13T376 -21Q273 -21 186 15T32 112L93 256Q126 238 159 224T222 201T279 188T330 183Q371 183 402 194T455 227T488 280T499 354Q499 402 481 437T430
501T358 555T277 607T195 668T123 746T72 850T53 991Q53 1076 79 1146T154 1265T268 1342T416 1370Q455 1370 493 1364T569 1344T645 1311T721 1261L664 1117Q606 1145 554 1158T461 1171Q423 1171 395 1160T349 1128T322 1079T313 1018Q313 970 332 934T384 868T457
813T541 759T625 698T698 621T749 519T769 382V382ZM497 -83Q509 -171 474 -239T354 -363L219 -308Q248 -277 266 -250T293 -195T302 -140T296 -83H497Z" />
<glyph unicode="&#xf6c2;" glyph-name="scedilla" horiz-adv-x="698" d="M60 197Q128 179 178 171T270 162Q309 162 336 171T379 196T403 234T411 280Q411 311 396 333T355 373T296 406T229 440T162 482T103 539T62 617T46 724Q46 789 69 844T134 938T234 1000T364
1023Q393 1023 424 1019T485 1006T547 984T607 951L583 818Q557 825 535 830T492 839T453 844T419 846Q386 846 362 838T322 817T299 784T291 743Q291 712 307 690T348 649T407 615T475 581T542 540T601 483T643 404T659 296Q659 227 636 169T569 69T462 3T320
-21Q241 -21 171 2T41 64L60 197ZM423 -83Q435 -171 400 -239T280 -363L145 -308Q174 -277 192 -250T219 -195T228 -140T222 -83H423Z" />
<glyph unicode="&#xf6c9;" glyph-name="acute.cap" horiz-adv-x="526" d="M362 1718L472 1568L130 1438L54 1548L362 1718Z" />
<glyph unicode="&#xf6ca;" glyph-name="caron.cap" horiz-adv-x="620" d="M54 1620L108 1724L310 1626L512 1724L566 1622L308 1442L54 1620Z" />
<glyph unicode="&#xf6cb;" glyph-name="dieresis.cap" horiz-adv-x="672" d="M620 1570Q620 1537 613 1515T593 1478T558 1458T508 1452Q478 1452 458 1458T424 1477T405 1513T398 1568Q398 1600 404 1622T423 1657T457 1676T508 1682Q538 1682 559 1676T593 1657T613
1623T620 1570ZM272 1570Q272 1537 266 1515T247 1478T214 1458T164 1452Q135 1452 115 1458T81 1477T61 1513T54 1568Q54 1600 60 1622T80 1657T114 1676T164 1682Q194 1682 214 1676T247 1657T266 1623T272 1570Z" />
<glyph unicode="&#xf6ce;" glyph-name="grave.cap" horiz-adv-x="526" d="M398 1438L54 1568L172 1718L472 1548L398 1438Z" />
<glyph unicode="&#xf6cf;" glyph-name="hungarumlaut.cap" horiz-adv-x="948" d="M514 1437L431 1526L762 1727L894 1614L514 1437ZM143 1435L54 1510L321 1724L457 1633L143 1435Z" />
<glyph unicode="&#xf6d0;" glyph-name="macron.cap" horiz-adv-x="606" d="M54 1486V1652H553V1486H54Z" />
<glyph unicode="&#xf730;" glyph-name="zero.oldstyle" horiz-adv-x="840" d="M800 580Q800 412 774 297T699 111T578 10T412 -21Q317 -21 248 6T132 99T64 279T42 564Q42 732 67 847T142 1032T264 1134T429 1165Q523 1165 593 1138T709 1044T777 864T800 580V580ZM559
567Q559 693 551 772T525 895T482 956T421 973Q385 973 359 957T316 897T291 776T283 576Q283 451 291 372T316 248T359 187T420 171Q456 171 482 187T525 247T550 368T559 567V567Z" />
<glyph unicode="&#xf731;" glyph-name="one.oldstyle" horiz-adv-x="840" d="M91 0V208H318V897L120 818L65 975L378 1145H575V208H777V0H91Z" />
<glyph unicode="&#xf732;" glyph-name="two.oldstyle" horiz-adv-x="840" d="M61 0V188Q152 278 219 347T333 472T409 570T454 651T475 724T481 797Q481 835 471 864T442 913T394 943T328 954Q303 954 277 951T222 940T162 924T94 902L65 1077Q108 1096 149 1112T232
1141T318 1159T414 1166Q498 1166 560 1142T665 1074T729 965T750 820Q750 770 742 724T715 633T667 542T597 447T503 341T383 221H772V0H61Z" />
<glyph unicode="&#xf733;" glyph-name="three.oldstyle" horiz-adv-x="840" d="M49 14Q121 -3 179 -11T283 -20Q346 -20 387 -5T453 38T486 106T496 195Q496 243 487 282T456 347T399 388T313 403H187V601H308Q352 601 383 613T433 649T462 711T472 798Q472 838
464 868T438 918T392 948T323 959Q296 959 268 955T211 945T153 929T98 908L67 1080Q102 1096 140 1111T220 1139T307 1159T403 1166Q490 1166 553 1141T656 1070T715 960T734 818Q734 757 722 709T687 625T634 563T567 521Q617 513 654 484T717 413T755 319T768
212Q768 98 738 15T655 -122T525 -203T358 -230Q323 -230 285 -225T206 -209T122 -180T33 -138L49 14Z" />
<glyph unicode="&#xf734;" glyph-name="four.oldstyle" horiz-adv-x="840" d="M690 1144V300H812V87H690V-214H455V87H30V293Q63 409 100 519T176 735T256 943T341 1144H690ZM456 951Q426 881 395 804T332 643T271 474T214 300H456V951Z" />
<glyph unicode="&#xf735;" glyph-name="five.oldstyle" horiz-adv-x="840" d="M319 923L304 632Q312 635 324 637T352 640T383 642T415 642Q507 642 575 614T687 532T754 400T776 221Q776 108 748 24T667 -117T540 -201T372 -229Q306 -229 224 -210T39 -141L57
5Q135 -10 197 -17T310 -25Q369 -25 409 -13T474 27T508 96T519 198Q519 254 510 297T478 372T421 419T334 436Q305 436 277 434T219 427T156 417T85 403L124 1144H328H696V923H319Z" />
<glyph unicode="&#xf736;" glyph-name="six.oldstyle" horiz-adv-x="840" d="M737 1137Q678 1153 620 1162T506 1171Q457 1171 419 1150T353 1078T309 946T287 743Q314 761 340 777T394 804T449 821T510 827Q584 827 637 802T726 727T777 608T794 448Q794 343
768 257T693 108T577 13T423 -21Q364 -21 314 -9T223 32T150 111T97 236T64 414T53 653Q53 790 67 896T109 1082T175 1217T259 1305T358 1354T469 1370Q533 1370 603 1351T759 1286L737 1137ZM293 568Q294 452 303 376T330 254T374 190T436 171Q466 171 489 185T527
230T550 307T558 420Q558 475 551 514T528 578T489 614T434 626Q419 626 403 623T370 613T333 595T293 569V568Z" />
<glyph unicode="&#xf737;" glyph-name="seven.oldstyle" horiz-adv-x="840" d="M577 384Q556 327 533 272T484 162T433 56T382 -47T331 -144T282 -234L117 -172L516 923H54V1144H793V939L577 384Z" />
<glyph unicode="&#xf738;" glyph-name="eight.oldstyle" horiz-adv-x="840" d="M801 361Q801 278 778 208T706 87T583 7T407 -22Q310 -22 241 2T126 71T60 181T39 327Q39 392 53 444T94 539T156 616T234 681Q201 706 170 736T116 806T78 894T63 1008Q63 1086 85
1153T154 1268T269 1344T431 1372Q526 1372 591 1347T698 1278T758 1173T777 1041Q777 979 763 931T726 843T671 773T605 716Q645 689 680 657T742 582T785 485T801 361V361ZM572 338Q572 383 559 418T523 481T470 531T406 574Q380 553 356 531T312 481T280 419T268
339Q268 299 277 267T306 211T353 175T420 162Q456 162 484 175T532 211T562 266T572 338V338ZM418 1193Q386 1193 362 1181T321 1148T297 1097T288 1032Q288 991 300 960T332 903T377 858T430 820Q456 841 478 862T517 909T542 965T552 1032Q552 1066 544 1095T520
1146T479 1180T418 1193V1193Z" />
<glyph unicode="&#xf739;" glyph-name="nine.oldstyle" horiz-adv-x="840" d="M85 2Q122 -6 155 -12T220 -23T279 -29T336 -31Q385 -31 423 -9T490 64T534 197T556 402Q528 383 502 367T449 340T394 323T333 317Q259 317 206 342T117 416T66 535T49 696Q49 801
75 887T149 1035T266 1131T420 1165Q478 1165 528 1153T620 1111T692 1032T746 907T779 729T790 490Q790 353 776 247T734 60T667 -77T582 -168T481 -218T368 -234Q335 -234 301 -230T230 -215T153 -187T67 -143L85 2ZM285 724Q285 669 292 630T314 565T353 529T409
518Q438 518 472 531T550 575V575Q549 690 540 766T513 889T469 954T407 973Q376 973 354 959T316 914T293 837T285 724V724Z" />
<glyph unicode="&#xf8ff;" glyph-name="" horiz-adv-x="1480" d="M1021 236L1080 82L1019 60L1077 -80L1017 -101L1046 -171L977 -315H862Q859 -336 851 -351T828 -378T793 -394T741 -400Q710 -400 689 -395T654 -378T633 -352T622 -315H505L407 -33L465 -14L407
154L469 174L434 266V364Q399 406 373 455T329 558T303 671T294 791Q294 867 310 940T355 1078T425 1198T516 1292T623 1354T741 1376Q802 1376 859 1354T965 1293T1056 1199T1126 1079T1171 942T1187 792Q1187 730 1178 671T1151 558T1107 454T1045 363V246L1021
236ZM779 774Q770 775 761 775T740 776Q729 776 720 776T701 774L712 465H769L779 774ZM34 696Q33 714 32 737T31 784T32 831T34 873L235 851Q234 838 233 821T232 785T233 748T235 716L34 696ZM138 1410Q150 1424 164 1440T192 1472T221 1502T249 1529L384 1338Q375
1329 364 1318T342 1294T321 1270T303 1247L138 1410ZM803 1507Q789 1508 773 1508T739 1509T706 1509T678 1507L659 1756Q659 1756 682 1758T740 1760Q775 1760 798 1758T822 1756L803 1507ZM1176 1247Q1168 1257 1158 1269T1137 1294T1115 1317T1095 1338L1230
1529Q1242 1517 1256 1502T1286 1472T1314 1441T1341 1410L1176 1247ZM1246 722Q1247 735 1247 751T1248 785T1248 819T1246 848L1447 867Q1447 849 1447 828T1448 785T1448 742T1447 704L1246 722ZM951 465Q970 492 987 529T1016 610T1035 699T1042 792Q1042 883
1019 962T954 1101T858 1195T741 1229Q679 1229 625 1195T529 1102T465 963T441 792Q441 748 447 702T466 613T495 532T531 465H624L612 754Q594 749 579 743T552 732Q543 728 538 735T529 755T524 783T524 813T528 838T536 851Q560 862 584 870T633 883T684 891T740
894Q770 894 797 892T849 884T898 870T947 851Q951 849 954 838T958 813T958 783T954 755T946 735T933 732Q917 739 902 745T868 754L857 465H951ZM913 357H568V284L591 215L913 312V357ZM893 209L563 104L590 27L918 130L893 209ZM897 25L565 -83L611 -213H886L905
-167L895 -135L792 -172L763 -97L924 -46L897 25ZM758 824Q760 831 758 838H756Q758 831 756 824H758ZM756 834Q751 835 751 834T752 831T754 828T752 828V826Q756 825 756 826T756 828T754 831T756 832V834ZM750 832Q750 837 744 834V832Q748 834 748 832Q744
832 744 828Q744 825 746 825T748 828V826H750V832ZM744 824Q742 831 744 838H742Q740 831 742 824H744ZM740 828Q737 826 737 830T740 832V834Q734 835 734 829T740 826V828ZM734 834H732V828Q732 826 731 826T730 828V834H728V828Q728 825 731 825T734 828V834ZM726
828H724V836H722V826H726V828ZM747 829Q747 827 747 827T747 829Q746 829 746 829T747 829Z" />
<glyph unicode="&#xfb00;" glyph-name="f_f" horiz-adv-x="972" d="M998 1228Q972 1239 949 1244T903 1250Q857 1250 839 1221T821 1129V1003H959V827H821V0H583V827H354V0H116V827H15V1003H116V1107Q116 1181 129 1239T171 1339T247 1402T359 1424Q415 1424 462
1409T547 1371L515 1222Q499 1230 479 1235T436 1240Q390 1240 372 1211T354 1119V1003H583V1117Q583 1191 596 1249T638 1349T714 1412T826 1434Q859 1434 887 1429T941 1416T989 1396T1031 1371L998 1228Z" />
<glyph unicode="&#xfb01;" glyph-name="fi" horiz-adv-x="922" d="M583 0V827H354V0H116V827H15V1003H116V1117Q116 1191 129 1249T170 1349T244 1412T355 1434Q412 1434 456 1420T533 1383L503 1233Q484 1241 467 1245T433 1250Q388 1250 370 1221T352 1129V1003H821V0H583ZM839
1252Q839 1215 833 1191T812 1152T770 1131T705 1125Q665 1125 639 1130T598 1150T577 1188T571 1251Q571 1288 577 1312T598 1351T639 1372T705 1378Q744 1378 770 1373T811 1353T833 1315T839 1252V1252Z" />
<glyph unicode="&#xfb02;" glyph-name="fl" horiz-adv-x="948" d="M923 9Q903 3 882 -2T840 -10T797 -15T754 -17Q712 -17 680 -8T627 23T594 85T583 186V1242Q571 1244 557 1245T529 1247T502 1249T478 1250Q448 1250 425 1243T386 1217T362 1167T354 1087V1003H474V827H354V0H116V827H15V1003H116V1064Q116
1156 131 1225T181 1340T272 1410T410 1434Q432 1434 455 1433T500 1430T546 1424T592 1418H821V289Q821 249 823 225T832 186T849 167T878 162Q887 162 896 162T915 162L923 9Z" />
<glyph unicode="&#xfb03;" glyph-name="f_f_i" horiz-adv-x="1390" d="M1050 0V827H821V0H583V827H354V0H116V827H15V1003H116V1107Q116 1181 129 1239T171 1339T247 1402T359 1424Q415 1424 462 1409T547 1371L515 1222Q499 1230 479 1235T436 1240Q390 1240
372 1211T354 1119V1003H583V1117Q583 1191 596 1249T637 1349T711 1412T822 1434Q879 1434 923 1420T1000 1383L970 1233Q951 1241 934 1245T900 1250Q855 1250 838 1221T820 1129V1003H1288V0H1050ZM1306 1252Q1306 1215 1300 1191T1279 1152T1237 1131T1172
1125Q1132 1125 1106 1130T1065 1150T1044 1188T1038 1251Q1038 1288 1044 1312T1065 1351T1106 1372T1172 1378Q1211 1378 1237 1373T1278 1353T1300 1315T1306 1252V1252Z" />
<glyph unicode="&#xfb04;" glyph-name="f_f_l" horiz-adv-x="1414" d="M1390 9Q1370 3 1349 -2T1307 -10T1264 -15T1221 -17Q1179 -17 1148 -8T1094 23T1061 85T1050 186V1242Q1038 1244 1024 1245T996 1247T969 1249T945 1250Q915 1250 892 1243T853 1217T829
1167T821 1087V1003H941V827H821V0H583V827H354V0H116V827H15V1003H116V1107Q116 1181 129 1239T171 1339T247 1402T359 1424Q415 1424 462 1409T547 1371L515 1222Q499 1230 479 1235T436 1240Q390 1240 372 1211T354 1119V1003H583V1064Q583 1156 598 1225T648
1340T739 1410T877 1434Q899 1434 922 1433T967 1430T1013 1424T1059 1418H1288V289Q1288 249 1290 225T1299 186T1316 167T1345 162Q1354 162 1363 162T1382 162L1390 9Z" />
<glyph unicode="&#xfb06;" glyph-name="s_t" horiz-adv-x="1260" d="M1229 44Q1164 8 1114 -6T1017 -20Q958 -20 916 -7T848 38T810 120T798 242V827H701V1003H798V1054Q798 1108 789 1145T763 1206T724 1240T672 1250Q646 1250 624 1241T585 1214T559 1168T549
1104Q549 1079 553 1058T566 1018T584 986T606 961L583 822Q557 828 535 833T492 840T453 844T419 846Q386 846 362 838T322 817T299 784T291 743Q291 712 307 690T348 649T407 615T475 581T542 540T601 483T643 404T659 296Q659 227 636 169T569 69T462 3T320
-21Q241 -21 171 2T41 64L60 197Q128 179 178 171T270 162Q309 162 336 171T379 196T403 234T411 280Q411 311 396 333T355 373T296 406T229 440T162 482T103 539T62 617T46 724Q46 789 69 844T134 938T234 1000T364 1023Q379 1023 392 1022T414 1018Q425 1016
434 1014Q404 1034 385 1069T366 1151Q366 1215 391 1265T460 1348T565 1400T695 1418Q780 1418 843 1399T950 1337T1014 1231T1035 1075V1003H1206V827H1035V305Q1035 268 1039 243T1051 203T1073 181T1105 174Q1123 174 1148 178T1211 195L1229 44Z" />
<glyph unicode="&#xfeff;" glyph-name="uniFEFF" horiz-adv-x="0" />
</font>
</defs>
</svg>
